<svg version="1.1" xmlns="http://www.w3.org/2000/svg" viewBox="0 0 1860.666666666667 935.3333333333358" width="5582.000000000001" height="2806.0000000000073">
  <!-- svg-source:excalidraw -->
  
  <defs>
    <style class="style-fonts">
      @font-face {
        font-family: "Virgil";
        src: url("https://excalidraw.com/Virgil.woff2");
      }
      @font-face {
        font-family: "Cascadia";
        src: url("https://excalidraw.com/Cascadia.woff2");
      }
    </style>
    
  </defs>
  <g stroke-linecap="round" transform="translate(511.5000000000009 630.3333333333358) rotate(0 169.5 147.5)"><path d="M7.86 8.16 C7.86 8.16, 7.86 8.16, 7.86 8.16 M7.86 8.16 C7.86 8.16, 7.86 8.16, 7.86 8.16 M8.78 31.49 C14.45 24.97, 20.11 18.45, 34.37 2.05 M8.78 31.49 C18.86 19.9, 28.94 8.31, 34.37 2.05 M8.39 56.32 C18.49 44.71, 28.59 33.09, 55.63 1.98 M8.39 56.32 C27.25 34.63, 46.11 12.94, 55.63 1.98 M8.66 80.4 C32.55 52.92, 56.44 25.44, 76.89 1.91 M8.66 80.4 C29.02 56.98, 49.38 33.56, 76.89 1.91 M8.27 105.24 C35.53 73.88, 62.79 42.53, 98.15 1.85 M8.27 105.24 C43.49 64.72, 78.71 24.21, 98.15 1.85 M8.54 129.32 C35.25 98.6, 61.96 67.87, 119.41 1.78 M8.54 129.32 C46.2 85.99, 83.87 42.66, 119.41 1.78 M8.15 154.16 C40.14 117.36, 72.13 80.55, 140.67 1.71 M8.15 154.16 C47.4 109.01, 86.65 63.85, 140.67 1.71 M8.41 178.24 C40.43 141.41, 72.45 104.58, 161.28 2.39 M8.41 178.24 C60.97 117.78, 113.53 57.32, 161.28 2.39 M8.02 203.08 C58.91 144.54, 109.79 86.01, 182.54 2.32 M8.02 203.08 C47.82 157.3, 87.62 111.52, 182.54 2.32 M8.29 227.16 C84.9 139.03, 161.5 50.91, 203.8 2.26 M8.29 227.16 C84.81 139.13, 161.34 51.1, 203.8 2.26 M7.9 252 C92.04 155.2, 176.18 58.41, 225.06 2.19 M7.9 252 C74.79 175.05, 141.68 98.1, 225.06 2.19 M4.89 279.85 C63.9 211.96, 122.92 144.07, 246.32 2.12 M4.89 279.85 C81.64 191.55, 158.4 103.25, 246.32 2.12 M14.99 292.61 C73.88 224.87, 132.76 157.13, 267.58 2.05 M14.99 292.61 C106.28 187.6, 197.57 82.58, 267.58 2.05 M32.97 296.32 C95.39 224.52, 157.8 152.72, 288.84 1.98 M32.97 296.32 C87.6 233.48, 142.22 170.64, 288.84 1.98 M54.23 296.25 C106.02 236.68, 157.8 177.11, 309.44 2.66 M54.23 296.25 C109.91 232.2, 165.59 168.15, 309.44 2.66 M75.49 296.18 C173.33 183.63, 271.16 71.09, 328.08 5.61 M75.49 296.18 C157.05 202.36, 238.6 108.54, 328.08 5.61 M96.75 296.11 C155.04 229.06, 213.33 162, 338.18 18.38 M96.75 296.11 C148.15 236.98, 199.55 177.85, 338.18 18.38 M118.01 296.04 C183.9 220.25, 249.78 144.46, 343.7 36.42 M118.01 296.04 C196.01 206.31, 274.01 116.59, 343.7 36.42 M139.27 295.97 C213.72 210.33, 288.16 124.69, 343.96 60.5 M139.27 295.97 C197.6 228.87, 255.93 161.77, 343.96 60.5 M160.53 295.9 C214.6 233.71, 268.66 171.52, 343.57 85.34 M160.53 295.9 C222 225.19, 283.47 154.48, 343.57 85.34 M181.79 295.83 C239.31 229.66, 296.83 163.5, 343.84 109.42 M181.79 295.83 C226.9 243.94, 272.01 192.05, 343.84 109.42 M203.05 295.76 C253.21 238.07, 303.36 180.38, 344.11 133.5 M203.05 295.76 C231.6 262.92, 260.15 230.08, 344.11 133.5 M224.32 295.7 C256.65 258.5, 288.99 221.3, 343.72 158.34 M224.32 295.7 C253.19 262.48, 282.06 229.26, 343.72 158.34 M244.92 296.38 C279.67 256.41, 314.41 216.44, 343.98 182.42 M244.92 296.38 C265.61 272.57, 286.31 248.77, 343.98 182.42 M266.18 296.31 C292.28 266.28, 318.38 236.26, 343.59 207.26 M266.18 296.31 C291.63 267.04, 317.08 237.76, 343.59 207.26 M287.44 296.24 C308.85 271.61, 330.26 246.98, 343.86 231.34 M287.44 296.24 C302.87 278.49, 318.31 260.73, 343.86 231.34 M308.7 296.17 C317.57 285.98, 326.43 275.78, 344.13 255.42 M308.7 296.17 C319.23 284.06, 329.75 271.95, 344.13 255.42" stroke="#ced4da" stroke-width="2" fill="none"></path><path d="M32 0 M32 0 C103.69 0, 175.39 0, 307 0 M32 0 C106.05 0, 180.09 0, 307 0 M307 0 C328.33 0, 339 10.67, 339 32 M307 0 C328.33 0, 339 10.67, 339 32 M339 32 C339 92.96, 339 153.92, 339 263 M339 32 C339 99.01, 339 166.01, 339 263 M339 263 C339 284.33, 328.33 295, 307 295 M339 263 C339 284.33, 328.33 295, 307 295 M307 295 C200.09 295, 93.19 295, 32 295 M307 295 C234.35 295, 161.71 295, 32 295 M32 295 C10.67 295, 0 284.33, 0 263 M32 295 C10.67 295, 0 284.33, 0 263 M0 263 C0 206.23, 0 149.46, 0 32 M0 263 C0 194.38, 0 125.77, 0 32 M0 32 C0 10.67, 10.67 0, 32 0 M0 32 C0 10.67, 10.67 0, 32 0" stroke="#868e96" stroke-width="4" fill="none"></path></g><g transform="translate(586.0500030517587 635.3333333333358) rotate(0 94.94999694824219 43.19999999999982)"><text x="94.94999694824219" y="0" font-family="Cascadia, Segoe UI Emoji" font-size="36px" fill="#868e96" text-anchor="middle" style="white-space: pre;" direction="ltr" dominant-baseline="text-before-edge"></text><text x="94.94999694824219" y="43.199999999999996" font-family="Cascadia, Segoe UI Emoji" font-size="36px" fill="#868e96" text-anchor="middle" style="white-space: pre;" direction="ltr" dominant-baseline="text-before-edge">std::list</text></g><g stroke-linecap="round" transform="translate(543.8333333333344 754.4166666666697) rotate(0 136.5 74.5)"><path d="M7.86 8.16 C7.86 8.16, 7.86 8.16, 7.86 8.16 M7.86 8.16 C7.86 8.16, 7.86 8.16, 7.86 8.16 M8.78 31.49 C17.07 21.96, 25.35 12.43, 34.37 2.05 M8.78 31.49 C18.8 19.97, 28.81 8.44, 34.37 2.05 M8.39 56.32 C26.69 35.28, 44.98 14.23, 55.63 1.98 M8.39 56.32 C20.47 42.43, 32.54 28.54, 55.63 1.98 M8.66 80.4 C34.53 50.64, 60.41 20.88, 76.89 1.91 M8.66 80.4 C25.35 61.21, 42.04 42.01, 76.89 1.91 M8.27 105.24 C32.64 77.2, 57.02 49.17, 98.15 1.85 M8.27 105.24 C28.54 81.92, 48.81 58.61, 98.15 1.85 M4.6 133.85 C44.64 87.79, 84.68 41.73, 119.41 1.78 M4.6 133.85 C39.77 93.39, 74.94 52.94, 119.41 1.78 M14.71 146.61 C43.27 113.75, 71.84 80.89, 140.67 1.71 M14.71 146.61 C61.35 92.95, 107.99 39.3, 140.67 1.71 M33.34 149.56 C80.07 95.81, 126.8 42.05, 161.28 2.39 M33.34 149.56 C73.05 103.88, 112.76 58.2, 161.28 2.39 M53.95 150.25 C90.56 108.13, 127.17 66.01, 182.54 2.32 M53.95 150.25 C100.71 96.46, 147.47 42.67, 182.54 2.32 M75.21 150.18 C111.47 108.46, 147.74 66.74, 203.8 2.26 M75.21 150.18 C119.62 99.08, 164.04 47.99, 203.8 2.26 M96.47 150.11 C128.09 113.73, 159.71 77.36, 225.06 2.19 M96.47 150.11 C145.84 93.31, 195.21 36.52, 225.06 2.19 M117.73 150.04 C165.15 95.49, 212.58 40.93, 245 3.63 M117.73 150.04 C162.86 98.12, 207.99 46.2, 245 3.63 M138.99 149.97 C186.55 95.26, 234.11 40.55, 263.64 6.58 M138.99 149.97 C165.7 119.24, 192.41 88.51, 263.64 6.58 M160.25 149.9 C186.3 119.94, 212.35 89.97, 273.09 20.09 M160.25 149.9 C186.87 119.28, 213.48 88.67, 273.09 20.09 M181.51 149.83 C214.07 112.37, 246.64 74.91, 279.26 37.38 M181.51 149.83 C214.98 111.32, 248.46 72.81, 279.26 37.38 M202.77 149.76 C223.57 125.84, 244.37 101.91, 279.53 61.46 M202.77 149.76 C229.01 119.58, 255.25 89.39, 279.53 61.46 M224.03 149.7 C235.74 136.22, 247.46 122.74, 279.14 86.3 M224.03 149.7 C238.41 133.16, 252.78 116.62, 279.14 86.3 M243.98 151.14 C250.69 143.41, 257.41 135.69, 273.5 117.17 M243.98 151.14 C255.19 138.24, 266.4 125.34, 273.5 117.17" stroke="#ced4da" stroke-width="2" fill="none"></path><path d="M32 0 M32 0 C95.11 0, 158.22 0, 241 0 M32 0 C108.64 0, 185.29 0, 241 0 M241 0 C262.33 0, 273 10.67, 273 32 M241 0 C262.33 0, 273 10.67, 273 32 M273 32 C273 51.74, 273 71.48, 273 117 M273 32 C273 49.63, 273 67.25, 273 117 M273 117 C273 138.33, 262.33 149, 241 149 M273 117 C273 138.33, 262.33 149, 241 149 M241 149 C182.21 149, 123.42 149, 32 149 M241 149 C162.09 149, 83.17 149, 32 149 M32 149 C10.67 149, 0 138.33, 0 117 M32 149 C10.67 149, 0 138.33, 0 117 M0 117 C0 87.19, 0 57.37, 0 32 M0 117 C0 99.24, 0 81.49, 0 32 M0 32 C0 10.67, 10.67 0, 32 0 M0 32 C0 10.67, 10.67 0, 32 0" stroke="#868e96" stroke-width="4" fill="none"></path></g><g transform="translate(595.9333318074555 807.3166666666693) rotate(0 84.4000015258789 21.600000000000364)"><text x="84.4000015258789" y="0" font-family="Cascadia, Segoe UI Emoji" font-size="36px" fill="#868e96" text-anchor="middle" style="white-space: pre;" direction="ltr" dominant-baseline="text-before-edge">next_ptr</text></g><g stroke-linecap="round" transform="translate(10 295.0000000000018) rotate(0 169.5 147.5)"><path d="M7.86 8.16 C7.86 8.16, 7.86 8.16, 7.86 8.16 M7.86 8.16 C7.86 8.16, 7.86 8.16, 7.86 8.16 M8.78 31.49 C17.54 21.42, 26.29 11.35, 34.37 2.05 M8.78 31.49 C16.23 22.92, 23.68 14.35, 34.37 2.05 M8.39 56.32 C27.14 34.76, 45.88 13.2, 55.63 1.98 M8.39 56.32 C25.06 37.15, 41.73 17.97, 55.63 1.98 M8.66 80.4 C34.2 51.03, 59.73 21.65, 76.89 1.91 M8.66 80.4 C32.61 52.85, 56.56 25.3, 76.89 1.91 M8.27 105.24 C34 75.64, 59.73 46.04, 98.15 1.85 M8.27 105.24 C43.09 65.19, 77.9 25.14, 98.15 1.85 M8.54 129.32 C40.53 92.52, 72.52 55.72, 119.41 1.78 M8.54 129.32 C46.23 85.96, 83.93 42.59, 119.41 1.78 M8.15 154.16 C49.93 106.1, 91.71 58.03, 140.67 1.71 M8.15 154.16 C45.12 111.63, 82.09 69.1, 140.67 1.71 M8.41 178.24 C41.03 140.72, 73.65 103.2, 161.28 2.39 M8.41 178.24 C66.76 111.12, 125.11 43.99, 161.28 2.39 M8.02 203.08 C73.82 127.39, 139.61 51.7, 182.54 2.32 M8.02 203.08 C68.92 133.03, 129.81 62.98, 182.54 2.32 M8.29 227.16 C63.39 163.77, 118.5 100.38, 203.8 2.26 M8.29 227.16 C70.85 155.19, 133.42 83.22, 203.8 2.26 M7.9 252 C77.27 172.19, 146.64 92.39, 225.06 2.19 M7.9 252 C70.61 179.86, 133.32 107.72, 225.06 2.19 M4.89 279.85 C84.97 187.72, 165.06 95.59, 246.32 2.12 M4.89 279.85 C57.77 219.01, 110.66 158.17, 246.32 2.12 M14.99 292.61 C76.93 221.37, 138.86 150.12, 267.58 2.05 M14.99 292.61 C80.75 216.96, 146.51 141.32, 267.58 2.05 M32.97 296.32 C85.54 235.84, 138.11 175.37, 288.84 1.98 M32.97 296.32 C100.36 218.79, 167.75 141.27, 288.84 1.98 M54.23 296.25 C108.22 234.15, 162.2 172.05, 309.44 2.66 M54.23 296.25 C155.25 180.05, 256.26 63.85, 309.44 2.66 M75.49 296.18 C138.69 223.48, 201.88 150.78, 328.08 5.61 M75.49 296.18 C140.6 221.28, 205.71 146.38, 328.08 5.61 M96.75 296.11 C176.53 204.34, 256.31 112.56, 338.18 18.38 M96.75 296.11 C168.6 213.46, 240.45 130.8, 338.18 18.38 M118.01 296.04 C167.16 239.5, 216.31 182.97, 343.7 36.42 M118.01 296.04 C191.89 211.05, 265.77 126.06, 343.7 36.42 M139.27 295.97 C194.26 232.72, 249.24 169.47, 343.96 60.5 M139.27 295.97 C208.57 216.26, 277.86 136.55, 343.96 60.5 M160.53 295.9 C227.29 219.11, 294.04 142.32, 343.57 85.34 M160.53 295.9 C200.36 250.09, 240.18 204.28, 343.57 85.34 M181.79 295.83 C238.09 231.07, 294.39 166.31, 343.84 109.42 M181.79 295.83 C240.4 228.42, 299 161, 343.84 109.42 M203.05 295.76 C252.73 238.62, 302.41 181.47, 344.11 133.5 M203.05 295.76 C258.65 231.81, 314.25 167.85, 344.11 133.5 M224.32 295.7 C253.31 262.34, 282.31 228.98, 343.72 158.34 M224.32 295.7 C269.74 243.44, 315.16 191.19, 343.72 158.34 M244.92 296.38 C279.21 256.94, 313.49 217.49, 343.98 182.42 M244.92 296.38 C278.92 257.27, 312.91 218.16, 343.98 182.42 M266.18 296.31 C288.3 270.87, 310.42 245.42, 343.59 207.26 M266.18 296.31 C287.74 271.51, 309.3 246.71, 343.59 207.26 M287.44 296.24 C305.33 275.66, 323.22 255.08, 343.86 231.34 M287.44 296.24 C302.73 278.65, 318.02 261.06, 343.86 231.34 M308.7 296.17 C321.5 281.44, 334.31 266.71, 344.13 255.42 M308.7 296.17 C319.68 283.54, 330.66 270.91, 344.13 255.42" stroke="#ced4da" stroke-width="2" fill="none"></path><path d="M32 0 M32 0 C125.6 0, 219.2 0, 307 0 M32 0 C88.19 0, 144.39 0, 307 0 M307 0 C328.33 0, 339 10.67, 339 32 M307 0 C328.33 0, 339 10.67, 339 32 M339 32 C339 112.01, 339 192.02, 339 263 M339 32 C339 122.22, 339 212.44, 339 263 M339 263 C339 284.33, 328.33 295, 307 295 M339 263 C339 284.33, 328.33 295, 307 295 M307 295 C220.58 295, 134.16 295, 32 295 M307 295 C209.66 295, 112.32 295, 32 295 M32 295 C10.67 295, 0 284.33, 0 263 M32 295 C10.67 295, 0 284.33, 0 263 M0 263 C0 215.49, 0 167.97, 0 32 M0 263 C0 205.13, 0 147.26, 0 32 M0 32 C0 10.67, 10.67 0, 32 0 M0 32 C0 10.67, 10.67 0, 32 0" stroke="#1e1e1e" stroke-width="4" fill="none"></path></g><g transform="translate(137.29999923706055 300.0000000000018) rotate(0 42.20000076293945 43.19999999999982)"><text x="42.20000076293945" y="0" font-family="Cascadia, Segoe UI Emoji" font-size="36px" fill="#1e1e1e" text-anchor="middle" style="white-space: pre;" direction="ltr" dominant-baseline="text-before-edge"></text><text x="42.20000076293945" y="43.199999999999996" font-family="Cascadia, Segoe UI Emoji" font-size="36px" fill="#1e1e1e" text-anchor="middle" style="white-space: pre;" direction="ltr" dominant-baseline="text-before-edge">node</text></g><g stroke-linecap="round" transform="translate(42.33333333333394 419.08333333333394) rotate(0 136.5 74.5)"><path d="M7.86 8.16 C7.86 8.16, 7.86 8.16, 7.86 8.16 M7.86 8.16 C7.86 8.16, 7.86 8.16, 7.86 8.16 M8.78 31.49 C14.75 24.62, 20.72 17.75, 34.37 2.05 M8.78 31.49 C18.28 20.56, 27.77 9.64, 34.37 2.05 M8.39 56.32 C26.08 35.97, 43.78 15.62, 55.63 1.98 M8.39 56.32 C24.99 37.23, 41.59 18.13, 55.63 1.98 M8.66 80.4 C26.27 60.15, 43.88 39.89, 76.89 1.91 M8.66 80.4 C28.95 57.06, 49.24 33.72, 76.89 1.91 M8.27 105.24 C30.16 80.06, 52.05 54.88, 98.15 1.85 M8.27 105.24 C39.49 69.33, 70.7 33.42, 98.15 1.85 M4.6 133.85 C40.85 92.15, 77.1 50.44, 119.41 1.78 M4.6 133.85 C31.53 102.87, 58.46 71.89, 119.41 1.78 M14.71 146.61 C54.92 100.36, 95.13 54.1, 140.67 1.71 M14.71 146.61 C52.89 102.68, 91.08 58.76, 140.67 1.71 M33.34 149.56 C70.76 106.51, 108.18 63.47, 161.28 2.39 M33.34 149.56 C61.92 116.69, 90.49 83.82, 161.28 2.39 M53.95 150.25 C92.86 105.49, 131.76 60.73, 182.54 2.32 M53.95 150.25 C80.61 119.58, 107.27 88.91, 182.54 2.32 M75.21 150.18 C123.97 94.08, 172.73 37.99, 203.8 2.26 M75.21 150.18 C116.98 102.13, 158.74 54.08, 203.8 2.26 M96.47 150.11 C141.39 98.43, 186.32 46.75, 225.06 2.19 M96.47 150.11 C137.44 102.98, 178.4 55.85, 225.06 2.19 M117.73 150.04 C165.01 95.65, 212.29 41.26, 245 3.63 M117.73 150.04 C158.5 103.14, 199.27 56.24, 245 3.63 M138.99 149.97 C185.11 96.92, 231.23 43.86, 263.64 6.58 M138.99 149.97 C172.14 111.83, 205.29 73.7, 263.64 6.58 M160.25 149.9 C201.95 101.93, 243.65 53.96, 273.09 20.09 M160.25 149.9 C184.12 122.44, 207.99 94.98, 273.09 20.09 M181.51 149.83 C213.73 112.77, 245.94 75.71, 279.26 37.38 M181.51 149.83 C215.6 110.62, 249.69 71.4, 279.26 37.38 M202.77 149.76 C224.14 125.18, 245.51 100.59, 279.53 61.46 M202.77 149.76 C227.37 121.46, 251.97 93.16, 279.53 61.46 M224.03 149.7 C243.2 127.64, 262.38 105.58, 279.14 86.3 M224.03 149.7 C237.07 134.69, 250.11 119.69, 279.14 86.3 M243.98 151.14 C253.06 140.69, 262.15 130.24, 273.5 117.17 M243.98 151.14 C255.48 137.91, 266.97 124.68, 273.5 117.17" stroke="#ced4da" stroke-width="2" fill="none"></path><path d="M32 0 M32 0 C115.5 0, 199 0, 241 0 M32 0 C88.34 0, 144.68 0, 241 0 M241 0 C262.33 0, 273 10.67, 273 32 M241 0 C262.33 0, 273 10.67, 273 32 M273 32 C273 63.57, 273 95.15, 273 117 M273 32 C273 49.24, 273 66.49, 273 117 M273 117 C273 138.33, 262.33 149, 241 149 M273 117 C273 138.33, 262.33 149, 241 149 M241 149 C173.85 149, 106.7 149, 32 149 M241 149 C198.93 149, 156.86 149, 32 149 M32 149 C10.67 149, 0 138.33, 0 117 M32 149 C10.67 149, 0 138.33, 0 117 M0 117 C0 87.58, 0 58.16, 0 32 M0 117 C0 87.83, 0 58.66, 0 32 M0 32 C0 10.67, 10.67 0, 32 0 M0 32 C0 10.67, 10.67 0, 32 0" stroke="#1e1e1e" stroke-width="4" fill="none"></path></g><g transform="translate(94.43333180745503 471.9833333333336) rotate(0 84.4000015258789 21.600000000000364)"><text x="84.4000015258789" y="0" font-family="Cascadia, Segoe UI Emoji" font-size="36px" fill="#1e1e1e" text-anchor="middle" style="white-space: pre;" direction="ltr" dominant-baseline="text-before-edge">next_ptr</text></g><g stroke-linecap="round" transform="translate(536.6666666666674 10) rotate(0 169.5 147.5)"><path d="M7.86 8.16 C7.86 8.16, 7.86 8.16, 7.86 8.16 M7.86 8.16 C7.86 8.16, 7.86 8.16, 7.86 8.16 M8.78 31.49 C15.81 23.41, 22.83 15.33, 34.37 2.05 M8.78 31.49 C17.21 21.8, 25.63 12.11, 34.37 2.05 M8.39 56.32 C20.74 42.12, 33.08 27.92, 55.63 1.98 M8.39 56.32 C25.19 37.01, 41.98 17.69, 55.63 1.98 M8.66 80.4 C27.38 58.87, 46.1 37.33, 76.89 1.91 M8.66 80.4 C32.15 53.38, 55.64 26.36, 76.89 1.91 M8.27 105.24 C30.25 79.96, 52.23 54.67, 98.15 1.85 M8.27 105.24 C32.72 77.12, 57.16 49, 98.15 1.85 M8.54 129.32 C48.36 83.51, 88.18 37.7, 119.41 1.78 M8.54 129.32 C50.53 81.01, 92.53 32.7, 119.41 1.78 M8.15 154.16 C47.46 108.94, 86.76 63.72, 140.67 1.71 M8.15 154.16 C59.07 95.58, 109.99 37, 140.67 1.71 M8.41 178.24 C63.51 114.86, 118.61 51.47, 161.28 2.39 M8.41 178.24 C39.45 142.54, 70.48 106.84, 161.28 2.39 M8.02 203.08 C62.81 140.06, 117.59 77.03, 182.54 2.32 M8.02 203.08 C70.91 130.73, 133.8 58.39, 182.54 2.32 M8.29 227.16 C69.75 156.45, 131.21 85.75, 203.8 2.26 M8.29 227.16 C68.47 157.93, 128.64 88.71, 203.8 2.26 M7.9 252 C83.37 165.18, 158.83 78.37, 225.06 2.19 M7.9 252 C59.74 192.36, 111.59 132.72, 225.06 2.19 M4.89 279.85 C92.25 179.35, 179.62 78.84, 246.32 2.12 M4.89 279.85 C54.17 223.15, 103.46 166.46, 246.32 2.12 M14.99 292.61 C91.56 204.53, 168.12 116.46, 267.58 2.05 M14.99 292.61 C97.86 197.28, 180.73 101.95, 267.58 2.05 M32.97 296.32 C96.56 223.17, 160.14 150.02, 288.84 1.98 M32.97 296.32 C115.73 201.12, 198.48 105.92, 288.84 1.98 M54.23 296.25 C115.78 225.44, 177.33 154.64, 309.44 2.66 M54.23 296.25 C132.69 205.99, 211.15 115.73, 309.44 2.66 M75.49 296.18 C132.21 230.93, 188.93 165.68, 328.08 5.61 M75.49 296.18 C155.65 203.97, 235.81 111.75, 328.08 5.61 M96.75 296.11 C163.58 219.24, 230.4 142.37, 338.18 18.38 M96.75 296.11 C175.49 205.53, 254.23 114.96, 338.18 18.38 M118.01 296.04 C195.87 206.48, 273.73 116.91, 343.7 36.42 M118.01 296.04 C198.79 203.12, 279.57 110.2, 343.7 36.42 M139.27 295.97 C196.53 230.1, 253.79 164.23, 343.96 60.5 M139.27 295.97 C201.46 224.43, 263.65 152.9, 343.96 60.5 M160.53 295.9 C228.15 218.12, 295.77 140.34, 343.57 85.34 M160.53 295.9 C203.99 245.91, 247.45 195.92, 343.57 85.34 M181.79 295.83 C242.49 226.02, 303.18 156.2, 343.84 109.42 M181.79 295.83 C219.14 252.87, 256.48 209.91, 343.84 109.42 M203.05 295.76 C240.04 253.22, 277.02 210.68, 344.11 133.5 M203.05 295.76 C240.92 252.2, 278.79 208.64, 344.11 133.5 M224.32 295.7 C253.01 262.68, 281.71 229.67, 343.72 158.34 M224.32 295.7 C256.12 259.11, 287.92 222.53, 343.72 158.34 M244.92 296.38 C273.88 263.07, 302.83 229.76, 343.98 182.42 M244.92 296.38 C282.96 252.62, 321 208.85, 343.98 182.42 M266.18 296.31 C282.52 277.52, 298.85 258.73, 343.59 207.26 M266.18 296.31 C284.92 274.75, 303.66 253.2, 343.59 207.26 M287.44 296.24 C306.26 274.6, 325.07 252.95, 343.86 231.34 M287.44 296.24 C300.83 280.84, 314.22 265.44, 343.86 231.34 M308.7 296.17 C321.99 280.88, 335.28 265.6, 344.13 255.42 M308.7 296.17 C321.4 281.56, 334.1 266.95, 344.13 255.42" stroke="#ced4da" stroke-width="2" fill="none"></path><path d="M32 0 M32 0 C132.14 0, 232.29 0, 307 0 M32 0 C115.03 0, 198.05 0, 307 0 M307 0 C328.33 0, 339 10.67, 339 32 M307 0 C328.33 0, 339 10.67, 339 32 M339 32 C339 116.16, 339 200.32, 339 263 M339 32 C339 123.13, 339 214.25, 339 263 M339 263 C339 284.33, 328.33 295, 307 295 M339 263 C339 284.33, 328.33 295, 307 295 M307 295 C241.84 295, 176.69 295, 32 295 M307 295 C239.87 295, 172.74 295, 32 295 M32 295 C10.67 295, 0 284.33, 0 263 M32 295 C10.67 295, 0 284.33, 0 263 M0 263 C0 184.61, 0 106.23, 0 32 M0 263 C0 175.26, 0 87.52, 0 32 M0 32 C0 10.67, 10.67 0, 32 0 M0 32 C0 10.67, 10.67 0, 32 0" stroke="#1e1e1e" stroke-width="4" fill="none"></path></g><g transform="translate(663.966665903728 15) rotate(0 42.20000076293945 43.19999999999982)"><text x="42.20000076293945" y="0" font-family="Cascadia, Segoe UI Emoji" font-size="36px" fill="#1e1e1e" text-anchor="middle" style="white-space: pre;" direction="ltr" dominant-baseline="text-before-edge"></text><text x="42.20000076293945" y="43.199999999999996" font-family="Cascadia, Segoe UI Emoji" font-size="36px" fill="#1e1e1e" text-anchor="middle" style="white-space: pre;" direction="ltr" dominant-baseline="text-before-edge">node</text></g><g stroke-linecap="round" transform="translate(569.0000000000014 134.08333333333576) rotate(0 136.5 74.5)"><path d="M7.86 8.16 C7.86 8.16, 7.86 8.16, 7.86 8.16 M7.86 8.16 C7.86 8.16, 7.86 8.16, 7.86 8.16 M8.78 31.49 C13.91 25.59, 19.04 19.69, 34.37 2.05 M8.78 31.49 C14.1 25.37, 19.41 19.26, 34.37 2.05 M8.39 56.32 C18.24 44.99, 28.09 33.67, 55.63 1.98 M8.39 56.32 C19.89 43.1, 31.38 29.88, 55.63 1.98 M8.66 80.4 C29.49 56.44, 50.33 32.47, 76.89 1.91 M8.66 80.4 C31.87 53.71, 55.07 27.01, 76.89 1.91 M8.27 105.24 C39.25 69.61, 70.22 33.97, 98.15 1.85 M8.27 105.24 C38.48 70.49, 68.69 35.74, 98.15 1.85 M4.6 133.85 C41.1 91.87, 77.59 49.89, 119.41 1.78 M4.6 133.85 C44.98 87.4, 85.36 40.94, 119.41 1.78 M14.71 146.61 C63.67 90.29, 112.62 33.97, 140.67 1.71 M14.71 146.61 C40.61 116.82, 66.51 87.02, 140.67 1.71 M33.34 149.56 C62.42 116.12, 91.49 82.68, 161.28 2.39 M33.34 149.56 C75.58 100.98, 117.81 52.39, 161.28 2.39 M53.95 150.25 C85.42 114.05, 116.88 77.85, 182.54 2.32 M53.95 150.25 C103.72 92.99, 153.5 35.73, 182.54 2.32 M75.21 150.18 C117.32 101.73, 159.43 53.29, 203.8 2.26 M75.21 150.18 C124.49 93.48, 173.78 36.78, 203.8 2.26 M96.47 150.11 C131.4 109.92, 166.33 69.74, 225.06 2.19 M96.47 150.11 C133.26 107.78, 170.06 65.45, 225.06 2.19 M117.73 150.04 C158.12 103.58, 198.51 57.12, 245 3.63 M117.73 150.04 C160.93 100.35, 204.12 50.65, 245 3.63 M138.99 149.97 C186.74 95.04, 234.48 40.12, 263.64 6.58 M138.99 149.97 C173.73 110.01, 208.46 70.05, 263.64 6.58 M160.25 149.9 C182.83 123.92, 205.42 97.94, 273.09 20.09 M160.25 149.9 C188.13 117.83, 216.01 85.76, 273.09 20.09 M181.51 149.83 C215.44 110.8, 249.37 71.76, 279.26 37.38 M181.51 149.83 C202.12 126.12, 222.74 102.41, 279.26 37.38 M202.77 149.76 C232.25 115.86, 261.72 81.95, 279.53 61.46 M202.77 149.76 C223.89 125.47, 245.01 101.18, 279.53 61.46 M224.03 149.7 C239.83 131.51, 255.64 113.33, 279.14 86.3 M224.03 149.7 C240.52 130.72, 257.02 111.75, 279.14 86.3 M243.98 151.14 C255.25 138.17, 266.52 125.21, 273.5 117.17 M243.98 151.14 C250.26 143.91, 256.54 136.68, 273.5 117.17" stroke="#ced4da" stroke-width="2" fill="none"></path><path d="M32 0 M32 0 C111.36 0, 190.71 0, 241 0 M32 0 C80.23 0, 128.46 0, 241 0 M241 0 C262.33 0, 273 10.67, 273 32 M241 0 C262.33 0, 273 10.67, 273 32 M273 32 C273 56.35, 273 80.71, 273 117 M273 32 C273 58.55, 273 85.09, 273 117 M273 117 C273 138.33, 262.33 149, 241 149 M273 117 C273 138.33, 262.33 149, 241 149 M241 149 C166.68 149, 92.35 149, 32 149 M241 149 C181.7 149, 122.39 149, 32 149 M32 149 C10.67 149, 0 138.33, 0 117 M32 149 C10.67 149, 0 138.33, 0 117 M0 117 C0 92.15, 0 67.31, 0 32 M0 117 C0 84.36, 0 51.72, 0 32 M0 32 C0 10.67, 10.67 0, 32 0 M0 32 C0 10.67, 10.67 0, 32 0" stroke="#1e1e1e" stroke-width="4" fill="none"></path></g><g transform="translate(621.0999984741225 186.9833333333354) rotate(0 84.4000015258789 21.600000000000364)"><text x="84.4000015258789" y="0" font-family="Cascadia, Segoe UI Emoji" font-size="36px" fill="#1e1e1e" text-anchor="middle" style="white-space: pre;" direction="ltr" dominant-baseline="text-before-edge">next_ptr</text></g><g stroke-linecap="round" transform="translate(1026.6666666666679 293.33333333333394) rotate(0 169.5 147.5)"><path d="M7.86 8.16 C7.86 8.16, 7.86 8.16, 7.86 8.16 M7.86 8.16 C7.86 8.16, 7.86 8.16, 7.86 8.16 M8.78 31.49 C14.51 24.9, 20.24 18.31, 34.37 2.05 M8.78 31.49 C18.7 20.08, 28.62 8.67, 34.37 2.05 M8.39 56.32 C18.71 44.46, 29.02 32.6, 55.63 1.98 M8.39 56.32 C21.74 40.97, 35.08 25.62, 55.63 1.98 M8.66 80.4 C29.89 55.98, 51.12 31.56, 76.89 1.91 M8.66 80.4 C22.75 64.19, 36.84 47.98, 76.89 1.91 M8.27 105.24 C32.87 76.95, 57.46 48.65, 98.15 1.85 M8.27 105.24 C41.72 66.76, 75.17 28.28, 98.15 1.85 M8.54 129.32 C47.97 83.97, 87.39 38.61, 119.41 1.78 M8.54 129.32 C40 93.13, 71.46 56.94, 119.41 1.78 M8.15 154.16 C37.25 120.68, 66.36 87.2, 140.67 1.71 M8.15 154.16 C41.7 115.56, 75.26 76.96, 140.67 1.71 M8.41 178.24 C65.8 112.23, 123.19 46.21, 161.28 2.39 M8.41 178.24 C41.36 140.34, 74.3 102.45, 161.28 2.39 M8.02 203.08 C62.87 139.98, 117.72 76.89, 182.54 2.32 M8.02 203.08 C50.69 154, 93.35 104.92, 182.54 2.32 M8.29 227.16 C75.44 149.91, 142.59 72.67, 203.8 2.26 M8.29 227.16 C80.3 144.32, 152.3 61.49, 203.8 2.26 M7.9 252 C77.49 171.95, 147.07 91.9, 225.06 2.19 M7.9 252 C69.83 180.75, 131.77 109.5, 225.06 2.19 M4.89 279.85 C74.27 200.03, 143.66 120.21, 246.32 2.12 M4.89 279.85 C96.39 174.59, 187.9 69.32, 246.32 2.12 M14.99 292.61 C66.91 232.89, 118.82 173.17, 267.58 2.05 M14.99 292.61 C74.32 224.37, 133.64 156.13, 267.58 2.05 M32.97 296.32 C132.63 181.67, 232.29 67.03, 288.84 1.98 M32.97 296.32 C98.16 221.33, 163.35 146.34, 288.84 1.98 M54.23 296.25 C115.92 225.28, 177.61 154.32, 309.44 2.66 M54.23 296.25 C149.49 186.66, 244.75 77.08, 309.44 2.66 M75.49 296.18 C147.93 212.85, 220.36 129.53, 328.08 5.61 M75.49 296.18 C144.46 216.84, 213.42 137.51, 328.08 5.61 M96.75 296.11 C170.58 211.18, 244.41 126.25, 338.18 18.38 M96.75 296.11 C169.31 212.64, 241.87 129.17, 338.18 18.38 M118.01 296.04 C201.71 199.76, 285.41 103.47, 343.7 36.42 M118.01 296.04 C181.57 222.93, 245.12 149.82, 343.7 36.42 M139.27 295.97 C216.92 206.65, 294.56 117.34, 343.96 60.5 M139.27 295.97 C187.81 240.14, 236.34 184.31, 343.96 60.5 M160.53 295.9 C213.28 235.22, 266.03 174.55, 343.57 85.34 M160.53 295.9 C233.49 211.98, 306.44 128.06, 343.57 85.34 M181.79 295.83 C222.06 249.51, 262.32 203.2, 343.84 109.42 M181.79 295.83 C234.25 235.49, 286.71 175.14, 343.84 109.42 M203.05 295.76 C236.87 256.87, 270.68 217.97, 344.11 133.5 M203.05 295.76 C247.1 245.09, 291.15 194.42, 344.11 133.5 M224.32 295.7 C248.69 267.65, 273.07 239.61, 343.72 158.34 M224.32 295.7 C262.7 251.54, 301.08 207.39, 343.72 158.34 M244.92 296.38 C272.78 264.33, 300.64 232.28, 343.98 182.42 M244.92 296.38 C282.72 252.9, 320.51 209.42, 343.98 182.42 M266.18 296.31 C292.65 265.86, 319.12 235.41, 343.59 207.26 M266.18 296.31 C290.31 268.56, 314.43 240.8, 343.59 207.26 M287.44 296.24 C300.03 281.76, 312.62 267.27, 343.86 231.34 M287.44 296.24 C306.36 274.48, 325.28 252.72, 343.86 231.34 M308.7 296.17 C317.99 285.49, 327.27 274.81, 344.13 255.42 M308.7 296.17 C322.73 280.03, 336.76 263.89, 344.13 255.42" stroke="#ced4da" stroke-width="2" fill="none"></path><path d="M32 0 M32 0 C122.93 0, 213.86 0, 307 0 M32 0 C134.56 0, 237.13 0, 307 0 M307 0 C328.33 0, 339 10.67, 339 32 M307 0 C328.33 0, 339 10.67, 339 32 M339 32 C339 106.16, 339 180.33, 339 263 M339 32 C339 97.59, 339 163.17, 339 263 M339 263 C339 284.33, 328.33 295, 307 295 M339 263 C339 284.33, 328.33 295, 307 295 M307 295 C202.19 295, 97.38 295, 32 295 M307 295 C218.46 295, 129.92 295, 32 295 M32 295 C10.67 295, 0 284.33, 0 263 M32 295 C10.67 295, 0 284.33, 0 263 M0 263 C0 177.34, 0 91.67, 0 32 M0 263 C0 194.56, 0 126.11, 0 32 M0 32 C0 10.67, 10.67 0, 32 0 M0 32 C0 10.67, 10.67 0, 32 0" stroke="#1e1e1e" stroke-width="4" fill="none"></path></g><g transform="translate(1153.9666659037284 298.33333333333394) rotate(0 42.20000076293945 43.19999999999982)"><text x="42.20000076293945" y="0" font-family="Cascadia, Segoe UI Emoji" font-size="36px" fill="#1e1e1e" text-anchor="middle" style="white-space: pre;" direction="ltr" dominant-baseline="text-before-edge"></text><text x="42.20000076293945" y="43.199999999999996" font-family="Cascadia, Segoe UI Emoji" font-size="36px" fill="#1e1e1e" text-anchor="middle" style="white-space: pre;" direction="ltr" dominant-baseline="text-before-edge">node</text></g><g stroke-linecap="round" transform="translate(1059.0000000000018 417.41666666666606) rotate(0 136.5 74.5)"><path d="M7.86 8.16 C7.86 8.16, 7.86 8.16, 7.86 8.16 M7.86 8.16 C7.86 8.16, 7.86 8.16, 7.86 8.16 M8.78 31.49 C15.67 23.57, 22.55 15.65, 34.37 2.05 M8.78 31.49 C16.53 22.58, 24.28 13.66, 34.37 2.05 M8.39 56.32 C19.31 43.76, 30.23 31.2, 55.63 1.98 M8.39 56.32 C24.91 37.33, 41.42 18.33, 55.63 1.98 M8.66 80.4 C27.61 58.6, 46.56 36.81, 76.89 1.91 M8.66 80.4 C34.08 51.16, 59.5 21.93, 76.89 1.91 M8.27 105.24 C27.07 83.61, 45.87 61.98, 98.15 1.85 M8.27 105.24 C29.78 80.49, 51.3 55.74, 98.15 1.85 M4.6 133.85 C48.88 82.91, 93.16 31.98, 119.41 1.78 M4.6 133.85 C42.31 90.47, 80.02 47.1, 119.41 1.78 M14.71 146.61 C47.63 108.74, 80.55 70.87, 140.67 1.71 M14.71 146.61 C45.5 111.19, 76.28 75.78, 140.67 1.71 M33.34 149.56 C61.34 117.35, 89.34 85.14, 161.28 2.39 M33.34 149.56 C63.26 115.14, 93.18 80.73, 161.28 2.39 M53.95 150.25 C92.98 105.34, 132.02 60.44, 182.54 2.32 M53.95 150.25 C92.63 105.75, 131.31 61.25, 182.54 2.32 M75.21 150.18 C108.39 112.01, 141.57 73.83, 203.8 2.26 M75.21 150.18 C103.82 117.26, 132.44 84.34, 203.8 2.26 M96.47 150.11 C129.44 112.18, 162.41 74.25, 225.06 2.19 M96.47 150.11 C130.54 110.92, 164.61 71.72, 225.06 2.19 M117.73 150.04 C160.83 100.45, 203.94 50.87, 245 3.63 M117.73 150.04 C168.44 91.7, 219.16 33.36, 245 3.63 M138.99 149.97 C182.01 100.48, 225.04 50.98, 263.64 6.58 M138.99 149.97 C165.6 119.36, 192.21 88.75, 263.64 6.58 M160.25 149.9 C199.84 104.36, 239.43 58.82, 273.09 20.09 M160.25 149.9 C198.17 106.28, 236.08 62.67, 273.09 20.09 M181.51 149.83 C220.59 104.88, 259.66 59.93, 279.26 37.38 M181.51 149.83 C215.08 111.22, 248.64 72.6, 279.26 37.38 M202.77 149.76 C228.82 119.8, 254.86 89.84, 279.53 61.46 M202.77 149.76 C231.92 116.23, 261.08 82.69, 279.53 61.46 M224.03 149.7 C243.58 127.2, 263.14 104.71, 279.14 86.3 M224.03 149.7 C239.02 132.45, 254.01 115.21, 279.14 86.3 M243.98 151.14 C249.99 144.22, 256 137.3, 273.5 117.17 M243.98 151.14 C254.16 139.42, 264.34 127.71, 273.5 117.17" stroke="#ced4da" stroke-width="2" fill="none"></path><path d="M32 0 M32 0 C105.1 0, 178.19 0, 241 0 M32 0 C102.43 0, 172.85 0, 241 0 M241 0 C262.33 0, 273 10.67, 273 32 M241 0 C262.33 0, 273 10.67, 273 32 M273 32 C273 64.88, 273 97.77, 273 117 M273 32 C273 64.71, 273 97.41, 273 117 M273 117 C273 138.33, 262.33 149, 241 149 M273 117 C273 138.33, 262.33 149, 241 149 M241 149 C182.67 149, 124.34 149, 32 149 M241 149 C179.92 149, 118.84 149, 32 149 M32 149 C10.67 149, 0 138.33, 0 117 M32 149 C10.67 149, 0 138.33, 0 117 M0 117 C0 93.09, 0 69.19, 0 32 M0 117 C0 84.57, 0 52.14, 0 32 M0 32 C0 10.67, 10.67 0, 32 0 M0 32 C0 10.67, 10.67 0, 32 0" stroke="#1e1e1e" stroke-width="4" fill="none"></path></g><g transform="translate(1111.099998474123 470.3166666666657) rotate(0 84.4000015258789 21.600000000000364)"><text x="84.4000015258789" y="0" font-family="Cascadia, Segoe UI Emoji" font-size="36px" fill="#1e1e1e" text-anchor="middle" style="white-space: pre;" direction="ltr" dominant-baseline="text-before-edge">next_ptr</text></g><g stroke-linecap="round"><g transform="translate(862.0833333333376 748.0473005156437) rotate(0 77.53306203388001 -74.64865025782092)"><path d="M0 0 C25.84 -24.88, 129.22 -124.41, 155.07 -149.3 M0 0 C25.84 -24.88, 129.22 -124.41, 155.07 -149.3" stroke="#868e96" stroke-width="4" fill="none"></path></g><g transform="translate(862.0833333333376 748.0473005156437) rotate(0 77.53306203388001 -74.64865025782092)"><path d="M141.87 -122.35 C145.86 -130.5, 149.85 -138.64, 155.07 -149.3 M141.87 -122.35 C145.93 -130.64, 149.99 -138.94, 155.07 -149.3" stroke="#868e96" stroke-width="4" fill="none"></path></g><g transform="translate(862.0833333333376 748.0473005156437) rotate(0 77.53306203388001 -74.64865025782092)"><path d="M127.64 -137.14 C135.93 -140.81, 144.22 -144.49, 155.07 -149.3 M127.64 -137.14 C136.08 -140.88, 144.52 -144.62, 155.07 -149.3" stroke="#868e96" stroke-width="4" fill="none"></path></g></g><mask></mask><g stroke-linecap="round"><g transform="translate(1010.7500000000023 438.3800927997745) rotate(0 -62.16666666666788 -64.09334672295154)"><path d="M0 0 C-20.72 -21.36, -103.61 -106.82, -124.33 -128.19 M0 0 C-20.72 -21.36, -103.61 -106.82, -124.33 -128.19" stroke="#1e1e1e" stroke-width="4" fill="none"></path></g><g transform="translate(1010.7500000000023 438.3800927997745) rotate(0 -62.16666666666788 -64.09334672295154)"><path d="M-97.34 -115.09 C-106.96 -119.76, -116.57 -124.42, -124.33 -128.19 M-97.34 -115.09 C-106.48 -119.53, -115.62 -123.96, -124.33 -128.19" stroke="#1e1e1e" stroke-width="4" fill="none"></path></g><g transform="translate(1010.7500000000023 438.3800927997745) rotate(0 -62.16666666666788 -64.09334672295154)"><path d="M-112.07 -100.81 C-116.44 -110.56, -120.81 -120.32, -124.33 -128.19 M-112.07 -100.81 C-116.22 -110.08, -120.37 -119.34, -124.33 -128.19" stroke="#1e1e1e" stroke-width="4" fill="none"></path></g></g><mask></mask><g stroke-linecap="round"><g transform="translate(529.3232009883627 308.4343642632848) rotate(0 -83.24493382751461 68.09652943639958)"><path d="M0 0 C-27.75 22.7, -138.74 113.49, -166.49 136.19 M0 0 C-27.75 22.7, -138.74 113.49, -166.49 136.19" stroke="#1e1e1e" stroke-width="4" fill="none"></path></g><g transform="translate(529.3232009883627 308.4343642632848) rotate(0 -83.24493382751461 68.09652943639958)"><path d="M-151.17 110.4 C-156.1 118.7, -161.03 127.01, -166.49 136.19 M-151.17 110.4 C-156.95 120.14, -162.74 129.88, -166.49 136.19" stroke="#1e1e1e" stroke-width="4" fill="none"></path></g><g transform="translate(529.3232009883627 308.4343642632848) rotate(0 -83.24493382751461 68.09652943639958)"><path d="M-138.17 126.29 C-147.29 129.47, -156.4 132.66, -166.49 136.19 M-138.17 126.29 C-148.87 130.03, -159.56 133.77, -166.49 136.19" stroke="#1e1e1e" stroke-width="4" fill="none"></path></g></g><mask></mask><g stroke-linecap="round"><g transform="translate(337.819289693844 597.4166666666697) rotate(0 75.0681091334211 74.24315546731032)"><path d="M0 0 C25.02 24.75, 125.11 123.74, 150.14 148.49 M0 0 C25.02 24.75, 125.11 123.74, 150.14 148.49" stroke="#fa5252" stroke-width="4" fill="none"></path></g><g transform="translate(337.819289693844 597.4166666666697) rotate(0 75.0681091334211 74.24315546731032)"><path d="M122.88 135.96 C128.82 138.69, 134.77 141.42, 150.14 148.49 M122.88 135.96 C131.74 140.03, 140.59 144.1, 150.14 148.49" stroke="#fa5252" stroke-width="4" fill="none"></path></g><g transform="translate(337.819289693844 597.4166666666697) rotate(0 75.0681091334211 74.24315546731032)"><path d="M137.31 121.37 C140.11 127.28, 142.9 133.2, 150.14 148.49 M137.31 121.37 C141.48 130.18, 145.64 138.99, 150.14 148.49" stroke="#fa5252" stroke-width="4" fill="none"></path></g></g><mask></mask><g stroke-linecap="round" transform="translate(1511.666666666667 630) rotate(0 169.5 147.5)"><path d="M7.86 8.16 C7.86 8.16, 7.86 8.16, 7.86 8.16 M7.86 8.16 C7.86 8.16, 7.86 8.16, 7.86 8.16 M8.78 31.49 C16.45 22.67, 24.11 13.86, 34.37 2.05 M8.78 31.49 C14.79 24.58, 20.79 17.67, 34.37 2.05 M8.39 56.32 C25.12 37.09, 41.84 17.85, 55.63 1.98 M8.39 56.32 C25.29 36.89, 42.19 17.45, 55.63 1.98 M8.66 80.4 C31.4 54.24, 54.15 28.08, 76.89 1.91 M8.66 80.4 C22.72 64.23, 36.78 48.05, 76.89 1.91 M8.27 105.24 C27.32 83.32, 46.37 61.41, 98.15 1.85 M8.27 105.24 C35.28 74.17, 62.29 43.1, 98.15 1.85 M8.54 129.32 C37.99 95.45, 67.43 61.57, 119.41 1.78 M8.54 129.32 C32.37 101.91, 56.2 74.49, 119.41 1.78 M8.15 154.16 C46.17 110.42, 84.19 66.68, 140.67 1.71 M8.15 154.16 C49.39 106.71, 90.64 59.27, 140.67 1.71 M8.41 178.24 C54.43 125.3, 100.45 72.36, 161.28 2.39 M8.41 178.24 C65.47 112.6, 122.53 46.96, 161.28 2.39 M8.02 203.08 C74.57 126.52, 141.12 49.97, 182.54 2.32 M8.02 203.08 C67.64 134.49, 127.26 65.91, 182.54 2.32 M8.29 227.16 C79.62 145.11, 150.94 63.05, 203.8 2.26 M8.29 227.16 C76.27 148.95, 144.25 70.75, 203.8 2.26 M7.9 252 C66.1 185.04, 124.3 118.09, 225.06 2.19 M7.9 252 C61.81 189.97, 115.73 127.95, 225.06 2.19 M4.89 279.85 C53.74 223.65, 102.6 167.45, 246.32 2.12 M4.89 279.85 C67.58 207.73, 130.27 135.61, 246.32 2.12 M14.99 292.61 C113.51 179.29, 212.02 65.96, 267.58 2.05 M14.99 292.61 C88.84 207.67, 162.68 122.72, 267.58 2.05 M32.97 296.32 C104.46 214.08, 175.95 131.85, 288.84 1.98 M32.97 296.32 C131.52 182.95, 230.07 69.58, 288.84 1.98 M54.23 296.25 C146.31 190.33, 238.38 84.41, 309.44 2.66 M54.23 296.25 C115.42 225.86, 176.61 155.47, 309.44 2.66 M75.49 296.18 C146.72 214.24, 217.94 132.31, 328.08 5.61 M75.49 296.18 C139.89 222.1, 204.28 148.03, 328.08 5.61 M96.75 296.11 C160.49 222.79, 224.22 149.48, 338.18 18.38 M96.75 296.11 C159.78 223.6, 222.81 151.1, 338.18 18.38 M118.01 296.04 C166.88 239.83, 215.74 183.62, 343.7 36.42 M118.01 296.04 C198 204.03, 277.99 112.01, 343.7 36.42 M139.27 295.97 C211.67 212.69, 284.06 129.41, 343.96 60.5 M139.27 295.97 C186.67 241.45, 234.07 186.92, 343.96 60.5 M160.53 295.9 C217.21 230.7, 273.89 165.5, 343.57 85.34 M160.53 295.9 C201.48 248.8, 242.43 201.69, 343.57 85.34 M181.79 295.83 C239.19 229.81, 296.59 163.78, 343.84 109.42 M181.79 295.83 C219.26 252.74, 256.72 209.64, 343.84 109.42 M203.05 295.76 C246.55 245.72, 290.05 195.68, 344.11 133.5 M203.05 295.76 C253.5 237.73, 303.95 179.7, 344.11 133.5 M224.32 295.7 C267.32 246.22, 310.33 196.74, 343.72 158.34 M224.32 295.7 C253.52 262.1, 282.72 228.51, 343.72 158.34 M244.92 296.38 C282.57 253.07, 320.22 209.75, 343.98 182.42 M244.92 296.38 C275.2 261.55, 305.48 226.71, 343.98 182.42 M266.18 296.31 C292.24 266.33, 318.3 236.35, 343.59 207.26 M266.18 296.31 C286.39 273.06, 306.6 249.81, 343.59 207.26 M287.44 296.24 C299.42 282.46, 311.4 268.69, 343.86 231.34 M287.44 296.24 C308.43 272.1, 329.41 247.96, 343.86 231.34 M308.7 296.17 C316.45 287.26, 324.2 278.34, 344.13 255.42 M308.7 296.17 C321.97 280.9, 335.25 265.63, 344.13 255.42" stroke="#ced4da" stroke-width="2" fill="none"></path><path d="M32 0 M32 0 C118.07 0, 204.15 0, 307 0 M32 0 C118.74 0, 205.48 0, 307 0 M307 0 C328.33 0, 339 10.67, 339 32 M307 0 C328.33 0, 339 10.67, 339 32 M339 32 C339 80.22, 339 128.45, 339 263 M339 32 C339 111.9, 339 191.79, 339 263 M339 263 C339 284.33, 328.33 295, 307 295 M339 263 C339 284.33, 328.33 295, 307 295 M307 295 C210.97 295, 114.94 295, 32 295 M307 295 C202.3 295, 97.6 295, 32 295 M32 295 C10.67 295, 0 284.33, 0 263 M32 295 C10.67 295, 0 284.33, 0 263 M0 263 C0 204.42, 0 145.84, 0 32 M0 263 C0 210.78, 0 158.55, 0 32 M0 32 C0 10.67, 10.67 0, 32 0 M0 32 C0 10.67, 10.67 0, 32 0" stroke="#1e1e1e" stroke-width="4" fill="none"></path></g><g transform="translate(1586.2166697184248 635) rotate(0 94.94999694824219 43.19999999999982)"><text x="94.94999694824219" y="0" font-family="Cascadia, Segoe UI Emoji" font-size="36px" fill="#1e1e1e" text-anchor="middle" style="white-space: pre;" direction="ltr" dominant-baseline="text-before-edge"></text><text x="94.94999694824219" y="43.199999999999996" font-family="Cascadia, Segoe UI Emoji" font-size="36px" fill="#1e1e1e" text-anchor="middle" style="white-space: pre;" direction="ltr" dominant-baseline="text-before-edge">std::list</text></g><g stroke-linecap="round" transform="translate(1544.000000000001 754.0833333333321) rotate(0 136.5 74.5)"><path d="M7.86 8.16 C7.86 8.16, 7.86 8.16, 7.86 8.16 M7.86 8.16 C7.86 8.16, 7.86 8.16, 7.86 8.16 M8.78 31.49 C14.63 24.76, 20.47 18.04, 34.37 2.05 M8.78 31.49 C16.87 22.18, 24.97 12.87, 34.37 2.05 M8.39 56.32 C24.64 37.63, 40.89 18.94, 55.63 1.98 M8.39 56.32 C19.64 43.38, 30.89 30.44, 55.63 1.98 M8.66 80.4 C34.63 50.53, 60.6 20.65, 76.89 1.91 M8.66 80.4 C23.03 63.87, 37.4 47.34, 76.89 1.91 M8.27 105.24 C35.19 74.27, 62.12 43.3, 98.15 1.85 M8.27 105.24 C29.25 81.11, 50.23 56.97, 98.15 1.85 M4.6 133.85 C48.42 83.44, 92.24 33.03, 119.41 1.78 M4.6 133.85 C32.26 102.04, 59.91 70.23, 119.41 1.78 M14.71 146.61 C45.41 111.3, 76.11 75.98, 140.67 1.71 M14.71 146.61 C44.48 112.36, 74.26 78.11, 140.67 1.71 M33.34 149.56 C78.58 97.53, 123.81 45.49, 161.28 2.39 M33.34 149.56 C75.15 101.47, 116.95 53.39, 161.28 2.39 M53.95 150.25 C85.59 113.84, 117.24 77.44, 182.54 2.32 M53.95 150.25 C86.95 112.29, 119.94 74.33, 182.54 2.32 M75.21 150.18 C105.89 114.88, 136.58 79.58, 203.8 2.26 M75.21 150.18 C106.42 114.27, 137.64 78.36, 203.8 2.26 M96.47 150.11 C128.19 113.62, 159.9 77.14, 225.06 2.19 M96.47 150.11 C136.13 104.48, 175.8 58.85, 225.06 2.19 M117.73 150.04 C155.84 106.2, 193.96 62.35, 245 3.63 M117.73 150.04 C158.21 103.47, 198.69 56.91, 245 3.63 M138.99 149.97 C183.32 98.97, 227.66 47.97, 263.64 6.58 M138.99 149.97 C177.75 105.38, 216.52 60.78, 263.64 6.58 M160.25 149.9 C184.96 121.47, 209.67 93.05, 273.09 20.09 M160.25 149.9 C198.22 106.22, 236.19 62.54, 273.09 20.09 M181.51 149.83 C216.09 110.05, 250.67 70.27, 279.26 37.38 M181.51 149.83 C219.42 106.22, 257.33 62.61, 279.26 37.38 M202.77 149.76 C218.16 132.06, 233.55 114.35, 279.53 61.46 M202.77 149.76 C220.94 128.87, 239.1 107.97, 279.53 61.46 M224.03 149.7 C245.62 124.86, 267.21 100.02, 279.14 86.3 M224.03 149.7 C244.28 126.4, 264.53 103.11, 279.14 86.3 M243.98 151.14 C251.88 142.05, 259.77 132.96, 273.5 117.17 M243.98 151.14 C250.23 143.94, 256.48 136.75, 273.5 117.17" stroke="#ced4da" stroke-width="2" fill="none"></path><path d="M32 0 M32 0 C92.81 0, 153.62 0, 241 0 M32 0 C91.12 0, 150.23 0, 241 0 M241 0 C262.33 0, 273 10.67, 273 32 M241 0 C262.33 0, 273 10.67, 273 32 M273 32 C273 49.39, 273 66.79, 273 117 M273 32 C273 50.6, 273 69.2, 273 117 M273 117 C273 138.33, 262.33 149, 241 149 M273 117 C273 138.33, 262.33 149, 241 149 M241 149 C189.7 149, 138.4 149, 32 149 M241 149 C192 149, 143.01 149, 32 149 M32 149 C10.67 149, 0 138.33, 0 117 M32 149 C10.67 149, 0 138.33, 0 117 M0 117 C0 84.69, 0 52.39, 0 32 M0 117 C0 91.02, 0 65.04, 0 32 M0 32 C0 10.67, 10.67 0, 32 0 M0 32 C0 10.67, 10.67 0, 32 0" stroke="#1e1e1e" stroke-width="4" fill="none"></path></g><g transform="translate(1596.099998474122 806.9833333333318) rotate(0 84.4000015258789 21.600000000000364)"><text x="84.4000015258789" y="0" font-family="Cascadia, Segoe UI Emoji" font-size="36px" fill="#1e1e1e" text-anchor="middle" style="white-space: pre;" direction="ltr" dominant-baseline="text-before-edge">next_ptr</text></g><g mask="url(#mask-JjGf0B585KBFiP-tea5Gz)" stroke-linecap="round"><g transform="translate(863.523809523811 805.818642311282) rotate(0 314.1855705861947 28.00456353825757)"><path d="M0 0 C6.19 -2.48, 15.57 -24.31, 37.16 -14.85 C58.75 -5.39, 97.64 56.4, 129.55 56.76 C161.47 57.11, 185.68 -15.44, 228.65 -12.72 C271.62 -10, 345.3 69.26, 387.36 73.06 C429.42 76.86, 452.55 13.45, 480.99 10.06 C509.43 6.67, 533.44 48.5, 558 52.71 C582.56 56.91, 616.64 38.18, 628.37 35.27 M0 0 C6.19 -2.48, 15.57 -24.31, 37.16 -14.85 C58.75 -5.39, 97.64 56.4, 129.55 56.76 C161.47 57.11, 185.68 -15.44, 228.65 -12.72 C271.62 -10, 345.3 69.26, 387.36 73.06 C429.42 76.86, 452.55 13.45, 480.99 10.06 C509.43 6.67, 533.44 48.5, 558 52.71 C582.56 56.91, 616.64 38.18, 628.37 35.27" stroke="#1e1e1e" stroke-width="4" fill="none"></path></g><g transform="translate(863.523809523811 805.818642311282) rotate(0 314.1855705861947 28.00456353825757)"><path d="M605.52 54.71 C614.51 47.05, 623.51 39.4, 628.37 35.27 M605.52 54.71 C611.38 49.72, 617.23 44.74, 628.37 35.27" stroke="#1e1e1e" stroke-width="4" fill="none"></path></g><g transform="translate(863.523809523811 805.818642311282) rotate(0 314.1855705861947 28.00456353825757)"><path d="M598.37 35.47 C610.18 35.39, 621.99 35.31, 628.37 35.27 M598.37 35.47 C606.06 35.42, 613.75 35.37, 628.37 35.27" stroke="#1e1e1e" stroke-width="4" fill="none"></path></g></g><mask id="mask-JjGf0B585KBFiP-tea5Gz"><rect x="0" y="0" fill="#fff" width="1591.8949506962003" height="993.7304070171643"></rect><rect x="1110.1705503246826" y="815.1207077207073" fill="#000" width="126.5999984741211" height="43.199999999999996" opacity="1"></rect></mask><g transform="translate(1110.1705503246826 815.1207077207073) rotate(0 67.53882978532306 18.702498128832303)"><text x="63.29999923706055" y="0" font-family="Cascadia, Segoe UI Emoji" font-size="36px" fill="#1e1e1e" text-anchor="middle" style="white-space: pre;" direction="ltr" dominant-baseline="text-before-edge">MEMCPY</text></g><g stroke-linecap="round"><g transform="translate(1496.0436537482033 764.1666666666661) rotate(0 -64.92822598197267 -85.6331378871173)"><path d="M0 0 C-21.64 -28.54, -108.21 -142.72, -129.86 -171.27 M0 0 C-21.64 -28.54, -108.21 -142.72, -129.86 -171.27" stroke="#1e1e1e" stroke-width="4" fill="none"></path></g><g transform="translate(1496.0436537482033 764.1666666666661) rotate(0 -64.92822598197267 -85.6331378871173)"><path d="M-104.65 -155 C-109.86 -158.36, -115.07 -161.73, -129.86 -171.27 M-104.65 -155 C-110.29 -158.64, -115.94 -162.29, -129.86 -171.27" stroke="#1e1e1e" stroke-width="4" fill="none"></path></g><g transform="translate(1496.0436537482033 764.1666666666661) rotate(0 -64.92822598197267 -85.6331378871173)"><path d="M-121 -142.6 C-122.83 -148.53, -124.66 -154.45, -129.86 -171.27 M-121 -142.6 C-122.98 -149.02, -124.97 -155.44, -129.86 -171.27" stroke="#1e1e1e" stroke-width="4" fill="none"></path></g></g><mask></mask></svg>