<svg version="1.1" xmlns="http://www.w3.org/2000/svg" viewBox="0 0 1959.9768607053875 1056.637745677599" width="5879.930582116162" height="3169.913237032797">
  <!-- svg-source:excalidraw -->
  
  <defs>
    <style class="style-fonts">
      @font-face {
        font-family: "Virgil";
        src: url("https://excalidraw.com/Virgil.woff2");
      }
      @font-face {
        font-family: "Cascadia";
        src: url("https://excalidraw.com/Cascadia.woff2");
      }
    </style>
    
  </defs>
  <g stroke-linecap="round" transform="translate(10 10) rotate(0 725 167.5)"><path d="M7.86 8.16 C7.86 8.16, 7.86 8.16, 7.86 8.16 M7.86 8.16 C7.86 8.16, 7.86 8.16, 7.86 8.16 M4.85 36.01 C13.27 26.32, 21.7 16.63, 34.37 2.05 M4.85 36.01 C15.27 24.03, 25.68 12.05, 34.37 2.05 M5.11 60.1 C18.79 44.37, 32.46 28.64, 55.63 1.98 M5.11 60.1 C20.46 42.44, 35.81 24.79, 55.63 1.98 M4.72 84.93 C33.45 51.88, 62.19 18.83, 76.89 1.91 M4.72 84.93 C28.29 57.82, 51.87 30.7, 76.89 1.91 M4.99 109.01 C28.21 82.31, 51.42 55.6, 98.15 1.85 M4.99 109.01 C32.09 77.83, 59.2 46.66, 98.15 1.85 M4.6 133.85 C31.89 102.45, 59.19 71.06, 119.41 1.78 M4.6 133.85 C29.31 105.43, 54.01 77.01, 119.41 1.78 M4.87 157.93 C51.82 103.92, 98.76 49.92, 140.02 2.46 M4.87 157.93 C49.34 106.77, 93.82 55.61, 140.02 2.46 M5.13 182.01 C47.19 133.63, 89.25 85.25, 161.28 2.39 M5.13 182.01 C57.63 121.62, 110.13 61.23, 161.28 2.39 M4.74 206.85 C65.14 137.37, 125.54 67.89, 182.54 2.32 M4.74 206.85 C53.91 150.3, 103.07 93.74, 182.54 2.32 M5.01 230.93 C60.06 167.6, 115.12 104.27, 203.8 2.26 M5.01 230.93 C82.28 142.05, 159.54 53.16, 203.8 2.26 M5.28 255.01 C75.49 174.25, 145.7 93.48, 225.06 2.19 M5.28 255.01 C87.21 160.76, 169.15 66.5, 225.06 2.19 M4.89 279.85 C92.55 179.01, 180.21 78.16, 246.32 2.12 M4.89 279.85 C65.91 209.65, 126.93 139.46, 246.32 2.12 M5.15 303.93 C83.52 213.78, 161.88 123.64, 267.58 2.05 M5.15 303.93 C67.8 231.86, 130.46 159.79, 267.58 2.05 M8.04 324.99 C106.1 212.2, 204.15 99.4, 288.84 1.98 M8.04 324.99 C117.5 199.07, 226.97 73.15, 288.84 1.98 M20.12 335.49 C80.42 266.12, 140.73 196.75, 310.1 1.91 M20.12 335.49 C100.26 243.3, 180.41 151.1, 310.1 1.91 M34.82 342.97 C146.14 214.91, 257.46 86.85, 331.36 1.84 M34.82 342.97 C106.76 260.21, 178.7 177.46, 331.36 1.84 M56.08 342.9 C143.95 241.81, 231.83 140.73, 351.96 2.53 M56.08 342.9 C135.68 251.34, 215.27 159.77, 351.96 2.53 M76.68 343.59 C165.82 241.05, 254.95 138.51, 373.22 2.46 M76.68 343.59 C146.37 263.43, 216.05 183.26, 373.22 2.46 M97.94 343.52 C196.98 229.59, 296.01 115.66, 394.48 2.39 M97.94 343.52 C210.98 213.48, 324.03 83.44, 394.48 2.39 M119.2 343.45 C208.87 240.3, 298.53 137.15, 415.74 2.32 M119.2 343.45 C229.57 216.49, 339.93 89.53, 415.74 2.32 M140.46 343.38 C201.53 273.13, 262.59 202.89, 437 2.25 M140.46 343.38 C246.84 221, 353.22 98.63, 437 2.25 M161.72 343.31 C243.92 248.76, 326.11 154.21, 458.26 2.18 M161.72 343.31 C233.06 261.24, 304.41 179.17, 458.26 2.18 M182.98 343.24 C277.46 234.56, 371.94 125.87, 479.52 2.11 M182.98 343.24 C280.45 231.12, 377.92 119, 479.52 2.11 M204.24 343.17 C275.44 261.27, 346.65 179.36, 500.78 2.04 M204.24 343.17 C265.89 272.26, 327.53 201.34, 500.78 2.04 M225.5 343.1 C343.09 207.84, 460.67 72.58, 522.04 1.98 M225.5 343.1 C343.92 206.88, 462.34 70.66, 522.04 1.98 M246.76 343.03 C343.16 232.14, 439.56 121.25, 543.3 1.91 M246.76 343.03 C312.89 266.96, 379.02 190.89, 543.3 1.91 M268.02 342.97 C351.74 246.66, 435.45 150.36, 563.91 2.59 M268.02 342.97 C345.02 254.39, 422.02 165.82, 563.91 2.59 M288.63 343.65 C402.71 212.42, 516.78 81.19, 585.17 2.52 M288.63 343.65 C352.72 269.92, 416.81 196.19, 585.17 2.52 M309.89 343.58 C410.67 227.65, 511.45 111.71, 606.43 2.45 M309.89 343.58 C423.22 213.21, 536.55 82.84, 606.43 2.45 M331.15 343.51 C446.91 210.35, 562.67 77.18, 627.69 2.38 M331.15 343.51 C419.72 241.63, 508.29 139.74, 627.69 2.38 M352.41 343.44 C425.97 258.82, 499.53 174.2, 648.95 2.32 M352.41 343.44 C416.83 269.34, 481.25 195.23, 648.95 2.32 M373.67 343.38 C442.53 264.16, 511.4 184.94, 670.21 2.25 M373.67 343.38 C481.41 219.43, 589.15 95.49, 670.21 2.25 M394.93 343.31 C456.33 272.67, 517.73 202.04, 691.47 2.18 M394.93 343.31 C513.16 207.3, 631.39 71.28, 691.47 2.18 M416.19 343.24 C510.83 234.36, 605.48 125.49, 712.73 2.11 M416.19 343.24 C500.41 246.36, 584.62 149.48, 712.73 2.11 M437.45 343.17 C536.82 228.86, 636.19 114.55, 733.99 2.04 M437.45 343.17 C538.61 226.8, 639.77 110.43, 733.99 2.04 M458.71 343.1 C571.04 213.88, 683.37 84.66, 755.25 1.97 M458.71 343.1 C552.38 235.35, 646.05 127.59, 755.25 1.97 M479.31 343.79 C559.14 251.96, 638.96 160.13, 775.85 2.66 M479.31 343.79 C550.58 261.81, 621.84 179.83, 775.85 2.66 M500.57 343.72 C576.95 255.86, 653.32 168, 797.11 2.59 M500.57 343.72 C588.16 242.95, 675.76 142.19, 797.11 2.59 M521.83 343.65 C630.1 219.1, 738.37 94.55, 818.37 2.52 M521.83 343.65 C602.88 250.41, 683.93 157.18, 818.37 2.52 M543.09 343.58 C638.14 234.24, 733.19 124.9, 839.63 2.45 M543.09 343.58 C614.32 261.65, 685.54 179.71, 839.63 2.45 M564.35 343.51 C652.53 242.07, 740.71 140.64, 860.89 2.38 M564.35 343.51 C682.5 207.6, 800.64 71.69, 860.89 2.38 M585.61 343.44 C660.23 257.61, 734.84 171.78, 882.15 2.31 M585.61 343.44 C689.17 224.31, 792.73 105.18, 882.15 2.31 M606.87 343.37 C683.74 254.95, 760.6 166.53, 903.41 2.24 M606.87 343.37 C712.2 222.21, 817.52 101.05, 903.41 2.24 M628.13 343.3 C703.3 256.84, 778.46 170.38, 924.67 2.17 M628.13 343.3 C688.23 274.17, 748.33 205.04, 924.67 2.17 M649.4 343.23 C756.93 219.52, 864.47 95.81, 945.93 2.1 M649.4 343.23 C727.8 253.04, 806.2 162.85, 945.93 2.1 M670.66 343.16 C744.03 258.75, 817.41 174.34, 967.19 2.04 M670.66 343.16 C777.98 219.7, 885.3 96.24, 967.19 2.04 M691.26 343.85 C761.97 262.5, 832.69 181.15, 987.8 2.72 M691.26 343.85 C758.91 266.03, 826.56 188.21, 987.8 2.72 M712.52 343.78 C793.69 250.41, 874.86 157.03, 1009.06 2.65 M712.52 343.78 C822.15 217.67, 931.78 91.55, 1009.06 2.65 M733.78 343.71 C803.81 263.15, 873.84 182.59, 1030.32 2.58 M733.78 343.71 C831.54 231.25, 929.3 118.79, 1030.32 2.58 M755.04 343.64 C841.38 244.32, 927.72 145, 1051.58 2.51 M755.04 343.64 C858.8 224.28, 962.56 104.92, 1051.58 2.51 M776.3 343.57 C842.73 267.16, 909.15 190.75, 1072.84 2.45 M776.3 343.57 C845.57 263.89, 914.83 184.21, 1072.84 2.45 M797.56 343.51 C909.48 214.76, 1021.39 86.02, 1094.1 2.38 M797.56 343.51 C859.16 272.65, 920.76 201.79, 1094.1 2.38 M818.82 343.44 C934.17 210.74, 1049.53 78.04, 1115.36 2.31 M818.82 343.44 C933.18 211.88, 1047.55 80.32, 1115.36 2.31 M840.08 343.37 C937.59 231.19, 1035.11 119.02, 1136.62 2.24 M840.08 343.37 C908.16 265.05, 976.23 186.74, 1136.62 2.24 M861.34 343.3 C931.59 262.48, 1001.84 181.67, 1157.88 2.17 M861.34 343.3 C924.49 270.65, 987.64 198.01, 1157.88 2.17 M882.6 343.23 C959.88 254.33, 1037.15 165.44, 1179.14 2.1 M882.6 343.23 C966.56 246.65, 1050.52 150.06, 1179.14 2.1 M903.21 343.91 C1019.52 210.11, 1135.83 76.31, 1199.74 2.79 M903.21 343.91 C999.21 233.47, 1095.22 123.03, 1199.74 2.79 M924.47 343.85 C985.72 273.38, 1046.98 202.91, 1221 2.72 M924.47 343.85 C988.91 269.71, 1053.35 195.58, 1221 2.72 M945.73 343.78 C1063.82 207.92, 1181.92 72.06, 1242.26 2.65 M945.73 343.78 C1036.95 238.84, 1128.17 133.89, 1242.26 2.65 M966.99 343.71 C1061.7 234.75, 1156.41 125.8, 1263.52 2.58 M966.99 343.71 C1044.78 254.22, 1122.56 164.74, 1263.52 2.58 M988.25 343.64 C1082.24 235.51, 1176.24 127.38, 1284.78 2.51 M988.25 343.64 C1087.7 229.23, 1187.15 114.83, 1284.78 2.51 M1009.51 343.57 C1089.71 251.31, 1169.9 159.05, 1306.04 2.44 M1009.51 343.57 C1077.58 265.26, 1145.66 186.95, 1306.04 2.44 M1030.77 343.5 C1128.38 231.21, 1225.98 118.93, 1327.3 2.37 M1030.77 343.5 C1137.23 221.03, 1243.7 98.55, 1327.3 2.37 M1052.03 343.43 C1126.13 258.19, 1200.23 172.95, 1348.57 2.3 M1052.03 343.43 C1144.46 237.1, 1236.9 130.76, 1348.57 2.3 M1073.29 343.36 C1172.42 229.32, 1271.56 115.27, 1369.83 2.23 M1073.29 343.36 C1165.78 236.96, 1258.27 130.56, 1369.83 2.23 M1094.55 343.29 C1203.01 218.52, 1311.48 93.75, 1390.43 2.92 M1094.55 343.29 C1178.2 247.07, 1261.84 150.84, 1390.43 2.92 M1115.15 343.98 C1219.15 224.34, 1323.15 104.71, 1411.69 2.85 M1115.15 343.98 C1206.65 238.72, 1298.15 133.47, 1411.69 2.85 M1136.41 343.91 C1210 259.25, 1283.6 174.59, 1432.95 2.78 M1136.41 343.91 C1224.69 242.35, 1312.98 140.79, 1432.95 2.78 M1157.67 343.84 C1248.49 239.36, 1339.32 134.88, 1445.68 12.52 M1157.67 343.84 C1228.17 262.74, 1298.67 181.65, 1445.68 12.52 M1178.93 343.77 C1245.03 267.73, 1311.14 191.69, 1453.16 28.3 M1178.93 343.77 C1259.32 251.29, 1339.72 158.81, 1453.16 28.3 M1200.19 343.7 C1272.11 260.97, 1344.03 178.24, 1453.43 52.39 M1200.19 343.7 C1300.88 227.87, 1401.57 112.04, 1453.43 52.39 M1221.45 343.63 C1270.3 287.44, 1319.15 231.24, 1453.7 76.47 M1221.45 343.63 C1311.27 240.32, 1401.08 137, 1453.7 76.47 M1242.71 343.57 C1291.39 287.56, 1340.07 231.56, 1453.31 101.3 M1242.71 343.57 C1290.17 288.97, 1337.64 234.37, 1453.31 101.3 M1263.97 343.5 C1328.43 269.35, 1392.88 195.21, 1453.57 125.39 M1263.97 343.5 C1316.55 283.01, 1369.13 222.52, 1453.57 125.39 M1285.23 343.43 C1327.24 295.11, 1369.24 246.78, 1453.18 150.22 M1285.23 343.43 C1346.97 272.4, 1408.71 201.38, 1453.18 150.22 M1306.49 343.36 C1355.35 287.15, 1404.22 230.94, 1453.45 174.3 M1306.49 343.36 C1342.52 301.92, 1378.54 260.48, 1453.45 174.3 M1327.1 344.04 C1371.77 292.65, 1416.45 241.25, 1453.72 198.39 M1327.1 344.04 C1358.13 308.34, 1389.17 272.64, 1453.72 198.39 M1348.36 343.98 C1370.33 318.69, 1392.31 293.41, 1453.33 223.22 M1348.36 343.98 C1385.26 301.52, 1422.17 259.06, 1453.33 223.22 M1369.62 343.91 C1392.3 317.81, 1414.99 291.71, 1453.59 247.3 M1369.62 343.91 C1391.45 318.79, 1413.28 293.68, 1453.59 247.3 M1390.88 343.84 C1410.24 321.56, 1429.61 299.28, 1453.2 272.14 M1390.88 343.84 C1405.8 326.67, 1420.72 309.51, 1453.2 272.14 M1418.7 336.22 C1427.44 326.16, 1436.19 316.1, 1453.47 296.22 M1418.7 336.22 C1432.45 320.41, 1446.2 304.59, 1453.47 296.22" stroke="#e9ecef" stroke-width="2" fill="none"></path><path d="M32 0 M32 0 C441.44 0, 850.89 0, 1418 0 M32 0 C492.71 0, 953.42 0, 1418 0 M1418 0 C1439.33 0, 1450 10.67, 1450 32 M1418 0 C1439.33 0, 1450 10.67, 1450 32 M1450 32 C1450 116.42, 1450 200.84, 1450 303 M1450 32 C1450 104.34, 1450 176.69, 1450 303 M1450 303 C1450 324.33, 1439.33 335, 1418 335 M1450 303 C1450 324.33, 1439.33 335, 1418 335 M1418 335 C1075.84 335, 733.68 335, 32 335 M1418 335 C947.33 335, 476.67 335, 32 335 M32 335 C10.67 335, 0 324.33, 0 303 M32 335 C10.67 335, 0 324.33, 0 303 M0 303 C0 198.03, 0 93.07, 0 32 M0 303 C0 233.39, 0 163.78, 0 32 M0 32 C0 10.67, 10.67 0, 32 0 M0 32 C0 10.67, 10.67 0, 32 0" stroke="#1e1e1e" stroke-width="4" fill="none"></path></g><g stroke-linecap="round" transform="translate(1462.5833333333358 596.0466224512529) rotate(0 243.69676368602586 152)"><path d="M7.86 8.16 C7.86 8.16, 7.86 8.16, 7.86 8.16 M7.86 8.16 C7.86 8.16, 7.86 8.16, 7.86 8.16 M4.85 36.01 C13.04 26.59, 21.23 17.17, 34.37 2.05 M4.85 36.01 C14.2 25.26, 23.55 14.5, 34.37 2.05 M4.46 60.85 C21.84 40.85, 39.23 20.85, 55.63 1.98 M4.46 60.85 C17.11 46.29, 29.77 31.74, 55.63 1.98 M4.72 84.93 C29.18 56.8, 53.63 28.68, 76.89 1.91 M4.72 84.93 C23.56 63.26, 42.41 41.59, 76.89 1.91 M4.99 109.01 C28.34 82.16, 51.69 55.3, 98.15 1.85 M4.99 109.01 C34.86 74.65, 64.73 40.29, 98.15 1.85 M4.6 133.85 C40.01 93.11, 75.43 52.37, 119.41 1.78 M4.6 133.85 C40.46 92.6, 76.33 51.34, 119.41 1.78 M4.87 157.93 C51.12 104.72, 97.37 51.52, 140.67 1.71 M4.87 157.93 C46.83 109.66, 88.78 61.4, 140.67 1.71 M4.48 182.77 C52.73 127.26, 100.98 71.76, 161.28 2.39 M4.48 182.77 C40.85 140.92, 77.23 99.08, 161.28 2.39 M4.74 206.85 C47.49 157.68, 90.24 108.5, 182.54 2.32 M4.74 206.85 C60.62 142.57, 116.5 78.29, 182.54 2.32 M5.01 230.93 C79.9 144.78, 154.8 58.62, 203.8 2.26 M5.01 230.93 C77.09 148.01, 149.17 65.09, 203.8 2.26 M4.62 255.77 C70.67 179.78, 136.73 103.8, 225.06 2.19 M4.62 255.77 C53.1 199.99, 101.59 144.22, 225.06 2.19 M2.92 282.11 C69.72 205.26, 136.53 128.41, 246.32 2.12 M2.92 282.11 C58.45 218.23, 113.99 154.34, 246.32 2.12 M10.4 297.89 C109.8 183.55, 209.2 69.2, 267.58 2.05 M10.4 297.89 C85.1 211.96, 159.8 126.03, 267.58 2.05 M25.76 304.62 C99.02 220.34, 172.29 136.06, 288.84 1.98 M25.76 304.62 C113.58 203.59, 201.41 102.55, 288.84 1.98 M41.11 311.34 C118.59 222.22, 196.06 133.09, 310.1 1.91 M41.11 311.34 C141.08 196.35, 241.04 81.35, 310.1 1.91 M61.72 312.03 C165.58 192.55, 269.44 73.06, 331.36 1.84 M61.72 312.03 C160.41 198.49, 259.11 84.95, 331.36 1.84 M82.98 311.96 C166.55 215.81, 250.13 119.67, 352.62 1.77 M82.98 311.96 C161.32 221.84, 239.65 131.72, 352.62 1.77 M104.24 311.89 C187.75 215.82, 271.27 119.74, 373.88 1.7 M104.24 311.89 C210.06 190.16, 315.87 68.43, 373.88 1.7 M125.5 311.82 C199.96 226.16, 274.42 140.51, 394.48 2.39 M125.5 311.82 C194.21 232.78, 262.91 153.74, 394.48 2.39 M146.76 311.75 C223.68 223.26, 300.6 134.77, 415.74 2.32 M146.76 311.75 C217.23 230.68, 287.7 149.62, 415.74 2.32 M168.02 311.68 C257.28 208.99, 346.55 106.31, 437 2.25 M168.02 311.68 C236.85 232.49, 305.69 153.31, 437 2.25 M189.28 311.61 C260.98 229.13, 332.68 146.64, 458.26 2.18 M189.28 311.61 C244.38 248.23, 299.48 184.84, 458.26 2.18 M210.54 311.54 C300.11 208.51, 389.68 105.47, 476.24 5.89 M210.54 311.54 C280.35 231.23, 350.17 150.92, 476.24 5.89 M231.8 311.47 C313.99 216.92, 396.19 122.37, 486.35 18.65 M231.8 311.47 C290.96 243.41, 350.13 175.35, 486.35 18.65 M253.06 311.41 C318.51 236.12, 383.95 160.83, 492.52 35.94 M253.06 311.41 C307.66 248.6, 362.26 185.78, 492.52 35.94 M274.32 311.34 C327.71 249.92, 381.09 188.51, 492.13 60.77 M274.32 311.34 C347.82 226.79, 421.32 142.24, 492.13 60.77 M294.92 312.02 C342.31 257.5, 389.71 202.99, 492.4 84.86 M294.92 312.02 C351.2 247.28, 407.48 182.54, 492.4 84.86 M316.18 311.95 C376.33 242.76, 436.47 173.58, 492.01 109.69 M316.18 311.95 C367.84 252.53, 419.49 193.11, 492.01 109.69 M337.44 311.88 C376.99 266.39, 416.53 220.9, 492.27 133.77 M337.44 311.88 C391.36 249.86, 445.28 187.83, 492.27 133.77 M358.7 311.82 C391.02 274.64, 423.33 237.47, 492.54 157.86 M358.7 311.82 C393.05 272.3, 427.4 232.79, 492.54 157.86 M379.96 311.75 C408.75 278.64, 437.53 245.52, 492.15 182.69 M379.96 311.75 C415.14 271.28, 450.32 230.81, 492.15 182.69 M401.22 311.68 C427.63 281.3, 454.04 250.92, 492.42 206.77 M401.22 311.68 C434.27 273.66, 467.33 235.64, 492.42 206.77 M422.48 311.61 C443.29 287.67, 464.1 263.73, 492.03 231.61 M422.48 311.61 C440.43 290.97, 458.37 270.33, 492.03 231.61 M443.74 311.54 C460.82 291.9, 477.89 272.26, 492.29 255.69 M443.74 311.54 C459.71 293.17, 475.67 274.81, 492.29 255.69 M475.5 299.4 C479.49 294.8, 483.48 290.21, 486.65 286.57 M475.5 299.4 C478.18 296.32, 480.85 293.24, 486.65 286.57" stroke="#1e1e1e" stroke-width="2" fill="none"></path><path d="M32 0 M32 0 C121.56 0, 211.13 0, 455.39 0 M32 0 C139.88 0, 247.76 0, 455.39 0 M455.39 0 C476.73 0, 487.39 10.67, 487.39 32 M455.39 0 C476.73 0, 487.39 10.67, 487.39 32 M487.39 32 C487.39 119.63, 487.39 207.25, 487.39 272 M487.39 32 C487.39 97.59, 487.39 163.19, 487.39 272 M487.39 272 C487.39 293.33, 476.73 304, 455.39 304 M487.39 272 C487.39 293.33, 476.73 304, 455.39 304 M455.39 304 C350.14 304, 244.89 304, 32 304 M455.39 304 C360.58 304, 265.76 304, 32 304 M32 304 C10.67 304, 0 293.33, 0 272 M32 304 C10.67 304, 0 293.33, 0 272 M0 272 C0 199.77, 0 127.54, 0 32 M0 272 C0 221.57, 0 171.14, 0 32 M0 32 C0 10.67, 10.67 0, 32 0 M0 32 C0 10.67, 10.67 0, 32 0" stroke="#1e1e1e" stroke-width="4" fill="none"></path></g><g mask="url(#mask-mJRVmAFwlnlJ5Wj0ZSWJk)" stroke-linecap="round"><g transform="translate(771.204437673458 361.33333333333576) rotate(0 0.3014862134134546 96.25)"><path d="M0 0 C0.1 32.08, 0.5 160.42, 0.6 192.5 M0 0 C0.1 32.08, 0.5 160.42, 0.6 192.5" stroke="#1e1e1e" stroke-width="4" fill="none"></path></g><g transform="translate(771.204437673458 361.33333333333576) rotate(0 0.3014862134134546 96.25)"><path d="M0.6 192.5 L-5.78 178.93 L6.9 178.89 L0.6 192.5" stroke="none" stroke-width="0" fill="#1e1e1e" fill-rule="evenodd"></path><path d="M0.6 192.5 C-1.93 187.11, -4.46 181.72, -5.78 178.93 M0.6 192.5 C-1.44 188.15, -3.49 183.79, -5.78 178.93 M-5.78 178.93 C-2.27 178.91, 1.24 178.9, 6.9 178.89 M-5.78 178.93 C-2.64 178.92, 0.49 178.91, 6.9 178.89 M6.9 178.89 C5.56 181.79, 4.22 184.69, 0.6 192.5 M6.9 178.89 C5.54 181.82, 4.19 184.74, 0.6 192.5 M0.6 192.5 C0.6 192.5, 0.6 192.5, 0.6 192.5 M0.6 192.5 C0.6 192.5, 0.6 192.5, 0.6 192.5" stroke="#1e1e1e" stroke-width="4" fill="none"></path></g></g><mask id="mask-mJRVmAFwlnlJ5Wj0ZSWJk"><rect x="0" y="0" fill="#fff" width="871.8074101002849" height="653.8333333333358"></rect><rect x="581.6059299903868" y="414.38333333333503" fill="#000" width="379.79998779296875" height="86.39999999999999" opacity="1"></rect></mask><g transform="translate(581.605929990387 414.38333333333503) rotate(0 189.89999389648438 43.20000000000073)"><text x="189.89999389648438" y="0" font-family="Cascadia, Segoe UI Emoji" font-size="36px" fill="#1e1e1e" text-anchor="middle" style="white-space: pre;" direction="ltr" dominant-baseline="text-before-edge">         .        </text><text x="189.89999389648438" y="43.199999999999996" font-family="Cascadia, Segoe UI Emoji" font-size="36px" fill="#1e1e1e" text-anchor="middle" style="white-space: pre;" direction="ltr" dominant-baseline="text-before-edge">                  </text></g><g transform="translate(646.2023809523857 406.1389759765043) rotate(0 129.5 44.209083440318864)"><text x="129.49999999999997" y="0" font-family="Cascadia, Segoe UI Emoji" font-size="73.68180573386446px" fill="#1e1e1e" text-anchor="middle" style="white-space: pre;" direction="ltr" dominant-baseline="text-before-edge">MEMCPY</text></g><g stroke-linecap="round" transform="translate(1089.2108830264951 24.824903827644448) rotate(0 175.74836111837976 153.45192724515255)"><path d="M7.86 8.16 C7.86 8.16, 7.86 8.16, 7.86 8.16 M7.86 8.16 C7.86 8.16, 7.86 8.16, 7.86 8.16 M8.78 31.49 C18.86 19.9, 28.93 8.31, 34.37 2.05 M8.78 31.49 C16.63 22.46, 24.47 13.44, 34.37 2.05 M8.39 56.32 C21.53 41.21, 34.67 26.09, 55.63 1.98 M8.39 56.32 C18.48 44.72, 28.56 33.12, 55.63 1.98 M8.66 80.4 C22.5 64.48, 36.34 48.56, 76.89 1.91 M8.66 80.4 C26.84 59.5, 45.01 38.59, 76.89 1.91 M8.27 105.24 C26.42 84.36, 44.58 63.47, 98.15 1.85 M8.27 105.24 C38.68 70.26, 69.08 35.28, 98.15 1.85 M8.54 129.32 C45.07 87.29, 81.61 45.26, 119.41 1.78 M8.54 129.32 C37.78 95.69, 67.01 62.05, 119.41 1.78 M8.15 154.16 C60.75 93.64, 113.36 33.13, 140.67 1.71 M8.15 154.16 C48.02 108.29, 87.89 62.43, 140.67 1.71 M8.41 178.24 C55.9 123.61, 103.39 68.98, 161.28 2.39 M8.41 178.24 C68.7 108.89, 128.98 39.55, 161.28 2.39 M8.02 203.08 C44.58 161.03, 81.13 118.98, 182.54 2.32 M8.02 203.08 C49.49 155.38, 90.96 107.67, 182.54 2.32 M8.29 227.16 C47.79 181.71, 87.3 136.27, 203.8 2.26 M8.29 227.16 C73.86 151.73, 139.43 76.3, 203.8 2.26 M8.56 251.24 C74.51 175.37, 140.46 99.5, 225.06 2.19 M8.56 251.24 C66.2 184.93, 123.83 118.63, 225.06 2.19 M1.61 283.62 C94.16 177.15, 186.72 70.67, 246.32 2.12 M1.61 283.62 C86.05 186.48, 170.49 89.34, 246.32 2.12 M9.09 299.4 C77.94 220.2, 146.79 141, 267.58 2.05 M9.09 299.4 C82.92 214.47, 156.76 129.53, 267.58 2.05 M22.48 308.39 C111.02 206.53, 199.57 104.67, 288.84 1.98 M22.48 308.39 C92.53 227.81, 162.58 147.22, 288.84 1.98 M39.14 313.61 C146.79 189.77, 254.44 65.94, 310.1 1.91 M39.14 313.61 C141.03 196.4, 242.91 79.2, 310.1 1.91 M60.4 313.54 C135.01 227.71, 209.61 141.89, 330.04 3.35 M60.4 313.54 C143.98 217.4, 227.55 121.26, 330.04 3.35 M81.66 313.47 C165.74 216.75, 249.82 120.03, 345.4 10.07 M81.66 313.47 C186.84 192.48, 292.01 71.49, 345.4 10.07 M102.92 313.4 C188.34 215.14, 273.76 116.87, 352.88 25.85 M102.92 313.4 C174.9 230.6, 246.88 147.8, 352.88 25.85 M124.18 313.33 C212.06 212.25, 299.93 111.16, 361.02 40.88 M124.18 313.33 C218.12 205.27, 312.06 97.21, 361.02 40.88 M145.45 313.26 C226.84 219.63, 308.23 125.99, 361.29 64.96 M145.45 313.26 C227.54 218.82, 309.64 124.38, 361.29 64.96 M166.71 313.19 C208.18 265.48, 249.65 217.77, 361.55 89.04 M166.71 313.19 C243.37 225, 320.04 136.8, 361.55 89.04 M187.97 313.12 C248.77 243.18, 309.57 173.23, 361.17 113.88 M187.97 313.12 C248.87 243.06, 309.78 172.99, 361.17 113.88 M209.23 313.05 C243 274.2, 276.78 235.34, 361.43 137.96 M209.23 313.05 C269.27 243.99, 329.31 174.92, 361.43 137.96 M230.49 312.98 C276.26 260.33, 322.03 207.68, 361.04 162.8 M230.49 312.98 C275.88 260.76, 321.28 208.54, 361.04 162.8 M251.09 313.67 C283.56 276.32, 316.03 238.96, 361.31 186.88 M251.09 313.67 C293.64 264.72, 336.19 215.77, 361.31 186.88 M272.35 313.6 C306.39 274.45, 340.42 235.29, 361.57 210.96 M272.35 313.6 C298.72 283.27, 325.09 252.93, 361.57 210.96 M293.61 313.53 C310.24 294.4, 326.87 275.27, 361.18 235.8 M293.61 313.53 C316.31 287.42, 339.01 261.3, 361.18 235.8 M320.12 307.43 C335.34 289.92, 350.56 272.41, 361.45 259.88 M320.12 307.43 C332.66 293, 345.2 278.57, 361.45 259.88" stroke="#a5d8ff" stroke-width="2" fill="none"></path><path d="M32 0 M32 0 C92.43 0, 152.86 0, 319.5 0 M32 0 C144.99 0, 257.98 0, 319.5 0 M319.5 0 C340.83 0, 351.5 10.67, 351.5 32 M319.5 0 C340.83 0, 351.5 10.67, 351.5 32 M351.5 32 C351.5 113.95, 351.5 195.9, 351.5 274.9 M351.5 32 C351.5 112.2, 351.5 192.4, 351.5 274.9 M351.5 274.9 C351.5 296.24, 340.83 306.9, 319.5 306.9 M351.5 274.9 C351.5 296.24, 340.83 306.9, 319.5 306.9 M319.5 306.9 C255.77 306.9, 192.05 306.9, 32 306.9 M319.5 306.9 C207.97 306.9, 96.44 306.9, 32 306.9 M32 306.9 C10.67 306.9, 0 296.24, 0 274.9 M32 306.9 C10.67 306.9, 0 296.24, 0 274.9 M0 274.9 C0 190.94, 0 106.97, 0 32 M0 274.9 C0 195.72, 0 116.54, 0 32 M0 32 C0 10.67, 10.67 0, 32 0 M0 32 C0 10.67, 10.67 0, 32 0" stroke="#1e1e1e" stroke-width="4" fill="none"></path></g><g transform="translate(1119.540232370523 68.77536141777819) rotate(0 146.40209953321028 112.41543341336182)"><text x="146.40209953321022" y="0" font-family="Cascadia, Segoe UI Emoji" font-size="62.45301856297864px" fill="#1e1e1e" text-anchor="middle" style="white-space: pre;" direction="ltr" dominant-baseline="text-before-edge">T object</text><text x="146.40209953321022" y="74.94362227557437" font-family="Cascadia, Segoe UI Emoji" font-size="62.45301856297864px" fill="#1e1e1e" text-anchor="middle" style="white-space: pre;" direction="ltr" dominant-baseline="text-before-edge"></text><text x="146.40209953321022" y="149.88724455114874" font-family="Cascadia, Segoe UI Emoji" font-size="62.45301856297864px" fill="#1e1e1e" text-anchor="middle" style="white-space: pre;" direction="ltr" dominant-baseline="text-before-edge">#4</text></g><g stroke-linecap="round" transform="translate(734.0335742711877 25.61978560564239) rotate(0 175.74836111837976 153.45192724515255)"><path d="M7.86 8.16 C7.86 8.16, 7.86 8.16, 7.86 8.16 M7.86 8.16 C7.86 8.16, 7.86 8.16, 7.86 8.16 M8.78 31.49 C17.88 21.03, 26.97 10.57, 34.37 2.05 M8.78 31.49 C14.52 24.89, 20.25 18.29, 34.37 2.05 M8.39 56.32 C24.2 38.14, 40 19.96, 55.63 1.98 M8.39 56.32 C19.79 43.21, 31.19 30.1, 55.63 1.98 M8.66 80.4 C33.69 51.61, 58.73 22.81, 76.89 1.91 M8.66 80.4 C31.19 54.48, 53.72 28.57, 76.89 1.91 M8.27 105.24 C34.36 75.22, 60.46 45.2, 98.15 1.85 M8.27 105.24 C35.03 74.46, 61.78 43.68, 98.15 1.85 M8.54 129.32 C40.45 92.61, 72.36 55.9, 119.41 1.78 M8.54 129.32 C51.41 80.01, 94.28 30.69, 119.41 1.78 M8.15 154.16 C37.93 119.89, 67.72 85.63, 140.67 1.71 M8.15 154.16 C53.08 102.47, 98 50.79, 140.67 1.71 M8.41 178.24 C67.48 110.29, 126.55 42.34, 161.28 2.39 M8.41 178.24 C47.84 132.88, 87.28 87.52, 161.28 2.39 M8.02 203.08 C45.63 159.82, 83.23 116.56, 182.54 2.32 M8.02 203.08 C55.22 148.78, 102.42 94.48, 182.54 2.32 M8.29 227.16 C57.1 171.01, 105.9 114.87, 203.8 2.26 M8.29 227.16 C84.52 139.47, 160.75 51.77, 203.8 2.26 M8.56 251.24 C64.61 186.76, 120.66 122.27, 225.06 2.19 M8.56 251.24 C90.49 156.99, 172.42 62.73, 225.06 2.19 M1.61 283.62 C95.4 175.73, 189.19 67.83, 246.32 2.12 M1.61 283.62 C52.89 224.62, 104.18 165.63, 246.32 2.12 M9.09 299.4 C78.92 219.07, 148.76 138.73, 267.58 2.05 M9.09 299.4 C94.56 201.09, 180.02 102.77, 267.58 2.05 M22.48 308.39 C78.91 243.47, 135.34 178.56, 288.84 1.98 M22.48 308.39 C109.12 208.72, 195.76 109.06, 288.84 1.98 M39.14 313.61 C115.86 225.36, 192.57 137.11, 310.1 1.91 M39.14 313.61 C141.01 196.42, 242.88 79.23, 310.1 1.91 M60.4 313.54 C135.53 227.11, 210.66 140.68, 330.04 3.35 M60.4 313.54 C148.45 212.25, 236.5 110.97, 330.04 3.35 M81.66 313.47 C147.72 237.48, 213.77 161.5, 345.4 10.07 M81.66 313.47 C172.55 208.92, 263.43 104.37, 345.4 10.07 M102.92 313.4 C164.31 242.78, 225.7 172.16, 352.88 25.85 M102.92 313.4 C198.95 202.94, 294.97 92.48, 352.88 25.85 M124.18 313.33 C181.85 246.99, 239.52 180.65, 361.02 40.88 M124.18 313.33 C182.91 245.77, 241.64 178.21, 361.02 40.88 M145.45 313.26 C208.8 240.38, 272.15 167.5, 361.29 64.96 M145.45 313.26 C199.45 251.14, 253.45 189.01, 361.29 64.96 M166.71 313.19 C215.89 256.61, 265.07 200.03, 361.55 89.04 M166.71 313.19 C221.02 250.71, 275.34 188.22, 361.55 89.04 M187.97 313.12 C243.72 248.98, 299.48 184.84, 361.17 113.88 M187.97 313.12 C232.64 261.73, 277.32 210.33, 361.17 113.88 M209.23 313.05 C267.99 245.45, 326.76 177.84, 361.43 137.96 M209.23 313.05 C241.32 276.13, 273.42 239.2, 361.43 137.96 M230.49 312.98 C276.06 260.56, 321.63 208.14, 361.04 162.8 M230.49 312.98 C272.52 264.63, 314.56 216.27, 361.04 162.8 M251.09 313.67 C281.09 279.16, 311.09 244.65, 361.31 186.88 M251.09 313.67 C295.12 263.01, 339.16 212.36, 361.31 186.88 M272.35 313.6 C300.18 281.58, 328.01 249.57, 361.57 210.96 M272.35 313.6 C302.52 278.9, 332.68 244.2, 361.57 210.96 M293.61 313.53 C310.98 293.55, 328.35 273.57, 361.18 235.8 M293.61 313.53 C319.36 283.91, 345.12 254.28, 361.18 235.8 M320.12 307.43 C331.13 294.76, 342.13 282.1, 361.45 259.88 M320.12 307.43 C335.96 289.2, 351.8 270.98, 361.45 259.88" stroke="#a5d8ff" stroke-width="2" fill="none"></path><path d="M32 0 M32 0 C91.18 0, 150.36 0, 319.5 0 M32 0 C110.57 0, 189.14 0, 319.5 0 M319.5 0 C340.83 0, 351.5 10.67, 351.5 32 M319.5 0 C340.83 0, 351.5 10.67, 351.5 32 M351.5 32 C351.5 89.58, 351.5 147.16, 351.5 274.9 M351.5 32 C351.5 117.58, 351.5 203.17, 351.5 274.9 M351.5 274.9 C351.5 296.24, 340.83 306.9, 319.5 306.9 M351.5 274.9 C351.5 296.24, 340.83 306.9, 319.5 306.9 M319.5 306.9 C255.47 306.9, 191.44 306.9, 32 306.9 M319.5 306.9 C236.08 306.9, 152.66 306.9, 32 306.9 M32 306.9 C10.67 306.9, 0 296.24, 0 274.9 M32 306.9 C10.67 306.9, 0 296.24, 0 274.9 M0 274.9 C0 204.45, 0 134, 0 32 M0 274.9 C0 204.62, 0 134.33, 0 32 M0 32 C0 10.67, 10.67 0, 32 0 M0 32 C0 10.67, 10.67 0, 32 0" stroke="#1e1e1e" stroke-width="4" fill="none"></path></g><g transform="translate(764.362923615214 69.57024319577613) rotate(0 146.40209953321016 112.41543341336182)"><text x="146.40209953321022" y="0" font-family="Cascadia, Segoe UI Emoji" font-size="62.45301856297864px" fill="#1e1e1e" text-anchor="middle" style="white-space: pre;" direction="ltr" dominant-baseline="text-before-edge">T object</text><text x="146.40209953321022" y="74.94362227557437" font-family="Cascadia, Segoe UI Emoji" font-size="62.45301856297864px" fill="#1e1e1e" text-anchor="middle" style="white-space: pre;" direction="ltr" dominant-baseline="text-before-edge"></text><text x="146.40209953321022" y="149.88724455114874" font-family="Cascadia, Segoe UI Emoji" font-size="62.45301856297864px" fill="#1e1e1e" text-anchor="middle" style="white-space: pre;" direction="ltr" dominant-baseline="text-before-edge">#3</text></g><g stroke-linecap="round" transform="translate(378.80303682539216 23.01082871716426) rotate(0 175.74836111837988 153.45192724515255)"><path d="M7.86 8.16 C7.86 8.16, 7.86 8.16, 7.86 8.16 M7.86 8.16 C7.86 8.16, 7.86 8.16, 7.86 8.16 M8.78 31.49 C15.37 23.91, 21.96 16.33, 34.37 2.05 M8.78 31.49 C18.23 20.62, 27.67 9.76, 34.37 2.05 M8.39 56.32 C25.07 37.14, 41.75 17.95, 55.63 1.98 M8.39 56.32 C24.51 37.78, 40.63 19.24, 55.63 1.98 M8.66 80.4 C30.45 55.34, 52.24 30.27, 76.89 1.91 M8.66 80.4 C24.44 62.25, 40.23 44.09, 76.89 1.91 M8.27 105.24 C39.56 69.25, 70.85 33.25, 98.15 1.85 M8.27 105.24 C28.92 81.49, 49.56 57.74, 98.15 1.85 M8.54 129.32 C41.94 90.9, 75.35 52.47, 119.41 1.78 M8.54 129.32 C34.92 98.97, 61.31 68.62, 119.41 1.78 M8.15 154.16 C41.03 116.34, 73.9 78.52, 140.67 1.71 M8.15 154.16 C52.09 103.61, 96.03 53.06, 140.67 1.71 M8.41 178.24 C39.41 142.59, 70.4 106.93, 161.28 2.39 M8.41 178.24 C42.39 139.15, 76.37 100.07, 161.28 2.39 M8.02 203.08 C53.72 150.5, 99.43 97.93, 182.54 2.32 M8.02 203.08 C63.99 138.7, 119.96 74.31, 182.54 2.32 M8.29 227.16 C75.16 150.24, 142.02 73.32, 203.8 2.26 M8.29 227.16 C86.25 137.47, 164.22 47.78, 203.8 2.26 M8.56 251.24 C77.21 172.26, 145.87 93.28, 225.06 2.19 M8.56 251.24 C63.18 188.41, 117.8 125.58, 225.06 2.19 M1.61 283.62 C88.75 183.38, 175.89 83.14, 246.32 2.12 M1.61 283.62 C90.51 181.35, 179.41 79.08, 246.32 2.12 M9.09 299.4 C76.35 222.02, 143.62 144.65, 267.58 2.05 M9.09 299.4 C102.85 191.54, 196.62 83.68, 267.58 2.05 M22.48 308.39 C75.95 246.88, 129.42 185.37, 288.84 1.98 M22.48 308.39 C100.49 218.65, 178.49 128.91, 288.84 1.98 M39.14 313.61 C108.59 233.72, 178.04 153.83, 310.1 1.91 M39.14 313.61 C112.24 229.52, 185.33 145.44, 310.1 1.91 M60.4 313.54 C154.91 204.82, 249.41 96.11, 330.04 3.35 M60.4 313.54 C153.65 206.27, 246.89 99.01, 330.04 3.35 M81.66 313.47 C184.32 195.37, 286.98 77.28, 345.4 10.07 M81.66 313.47 C179.84 200.53, 278.01 87.59, 345.4 10.07 M102.92 313.4 C202.54 198.8, 302.17 84.2, 352.88 25.85 M102.92 313.4 C168.33 238.16, 233.73 162.93, 352.88 25.85 M124.18 313.33 C186.17 242.03, 248.15 170.73, 361.02 40.88 M124.18 313.33 C183.49 245.11, 242.79 176.89, 361.02 40.88 M145.45 313.26 C200.91 249.45, 256.38 185.65, 361.29 64.96 M145.45 313.26 C223.41 223.57, 301.37 133.89, 361.29 64.96 M166.71 313.19 C243.68 224.64, 320.66 136.09, 361.55 89.04 M166.71 313.19 C218.46 253.65, 270.22 194.12, 361.55 89.04 M187.97 313.12 C249.72 242.09, 311.47 171.05, 361.17 113.88 M187.97 313.12 C247.98 244.08, 308 175.04, 361.17 113.88 M209.23 313.05 C244.15 272.88, 279.07 232.71, 361.43 137.96 M209.23 313.05 C264.11 249.91, 319 186.78, 361.43 137.96 M230.49 312.98 C262.69 275.93, 294.9 238.88, 361.04 162.8 M230.49 312.98 C269.77 267.79, 309.05 222.6, 361.04 162.8 M251.09 313.67 C286.77 272.62, 322.45 231.58, 361.31 186.88 M251.09 313.67 C279.67 280.8, 308.24 247.93, 361.31 186.88 M272.35 313.6 C307.66 272.98, 342.98 232.36, 361.57 210.96 M272.35 313.6 C298.13 283.95, 323.9 254.3, 361.57 210.96 M293.61 313.53 C317.64 285.89, 341.67 258.25, 361.18 235.8 M293.61 313.53 C311.64 292.79, 329.67 272.05, 361.18 235.8 M320.12 307.43 C336.27 288.85, 352.42 270.27, 361.45 259.88 M320.12 307.43 C334.85 290.48, 349.57 273.54, 361.45 259.88" stroke="#a5d8ff" stroke-width="2" fill="none"></path><path d="M32 0 M32 0 C124.39 0, 216.78 0, 319.5 0 M32 0 C109.51 0, 187.01 0, 319.5 0 M319.5 0 C340.83 0, 351.5 10.67, 351.5 32 M319.5 0 C340.83 0, 351.5 10.67, 351.5 32 M351.5 32 C351.5 89.18, 351.5 146.37, 351.5 274.9 M351.5 32 C351.5 83.6, 351.5 135.21, 351.5 274.9 M351.5 274.9 C351.5 296.24, 340.83 306.9, 319.5 306.9 M351.5 274.9 C351.5 296.24, 340.83 306.9, 319.5 306.9 M319.5 306.9 C235.11 306.9, 150.73 306.9, 32 306.9 M319.5 306.9 C237.55 306.9, 155.61 306.9, 32 306.9 M32 306.9 C10.67 306.9, 0 296.24, 0 274.9 M32 306.9 C10.67 306.9, 0 296.24, 0 274.9 M0 274.9 C0 222.1, 0 169.29, 0 32 M0 274.9 C0 181.88, 0 88.86, 0 32 M0 32 C0 10.67, 10.67 0, 32 0 M0 32 C0 10.67, 10.67 0, 32 0" stroke="#1e1e1e" stroke-width="4" fill="none"></path></g><g transform="translate(409.13238616941953 66.961286307298) rotate(0 146.40209953321028 112.41543341336182)"><text x="146.40209953321022" y="0" font-family="Cascadia, Segoe UI Emoji" font-size="62.45301856297864px" fill="#1e1e1e" text-anchor="middle" style="white-space: pre;" direction="ltr" dominant-baseline="text-before-edge">T object</text><text x="146.40209953321022" y="74.94362227557437" font-family="Cascadia, Segoe UI Emoji" font-size="62.45301856297864px" fill="#1e1e1e" text-anchor="middle" style="white-space: pre;" direction="ltr" dominant-baseline="text-before-edge"></text><text x="146.40209953321022" y="149.88724455114874" font-family="Cascadia, Segoe UI Emoji" font-size="62.45301856297864px" fill="#1e1e1e" text-anchor="middle" style="white-space: pre;" direction="ltr" dominant-baseline="text-before-edge">#2</text></g><g stroke-linecap="round" transform="translate(23.62572807008405 23.805710495176754) rotate(0 175.74836111837988 153.45192724515255)"><path d="M7.86 8.16 C7.86 8.16, 7.86 8.16, 7.86 8.16 M7.86 8.16 C7.86 8.16, 7.86 8.16, 7.86 8.16 M8.78 31.49 C16.29 22.85, 23.8 14.21, 34.37 2.05 M8.78 31.49 C14.61 24.79, 20.43 18.09, 34.37 2.05 M8.39 56.32 C22.23 40.41, 36.06 24.5, 55.63 1.98 M8.39 56.32 C26.53 35.46, 44.66 14.6, 55.63 1.98 M8.66 80.4 C28.1 58.04, 47.55 35.67, 76.89 1.91 M8.66 80.4 C30.81 54.92, 52.97 29.44, 76.89 1.91 M8.27 105.24 C41.14 67.43, 74.01 29.61, 98.15 1.85 M8.27 105.24 C32.88 76.94, 57.48 48.63, 98.15 1.85 M8.54 129.32 C33.58 100.52, 58.62 71.71, 119.41 1.78 M8.54 129.32 C35.3 98.53, 62.07 67.75, 119.41 1.78 M8.15 154.16 C46.39 110.17, 84.63 66.18, 140.67 1.71 M8.15 154.16 C46.13 110.46, 84.11 66.77, 140.67 1.71 M8.41 178.24 C46.16 134.82, 83.9 91.4, 161.28 2.39 M8.41 178.24 C66.47 111.45, 124.53 44.66, 161.28 2.39 M8.02 203.08 C43.18 162.63, 78.34 122.19, 182.54 2.32 M8.02 203.08 C54.3 149.84, 100.57 96.61, 182.54 2.32 M8.29 227.16 C86.03 137.72, 163.78 48.29, 203.8 2.26 M8.29 227.16 C71.48 154.46, 134.68 81.77, 203.8 2.26 M8.56 251.24 C87.22 160.74, 165.89 70.25, 225.06 2.19 M8.56 251.24 C59.07 193.13, 109.59 135.01, 225.06 2.19 M1.61 283.62 C61.89 214.27, 122.18 144.92, 246.32 2.12 M1.61 283.62 C59.41 217.13, 117.2 150.64, 246.32 2.12 M9.09 299.4 C100.04 194.77, 191 90.14, 267.58 2.05 M9.09 299.4 C111.53 181.56, 213.97 63.72, 267.58 2.05 M22.48 308.39 C97.07 222.59, 171.66 136.78, 288.84 1.98 M22.48 308.39 C92.93 227.34, 163.39 146.29, 288.84 1.98 M39.14 313.61 C110.51 231.51, 181.88 149.41, 310.1 1.91 M39.14 313.61 C131.4 207.48, 223.66 101.35, 310.1 1.91 M60.4 313.54 C142.49 219.11, 224.58 124.68, 330.04 3.35 M60.4 313.54 C150.8 209.55, 241.19 105.56, 330.04 3.35 M81.66 313.47 C164.23 218.49, 246.79 123.52, 345.4 10.07 M81.66 313.47 C143.27 242.6, 204.87 171.74, 345.4 10.07 M102.92 313.4 C163.93 243.22, 224.94 173.04, 352.88 25.85 M102.92 313.4 C192.08 210.84, 281.23 108.28, 352.88 25.85 M124.18 313.33 C179.78 249.38, 235.37 185.43, 361.02 40.88 M124.18 313.33 C177.35 252.17, 230.52 191.01, 361.02 40.88 M145.45 313.26 C219.31 228.29, 293.17 143.32, 361.29 64.96 M145.45 313.26 C192.57 259.05, 239.7 204.83, 361.29 64.96 M166.71 313.19 C221.47 250.19, 276.24 187.19, 361.55 89.04 M166.71 313.19 C214.13 258.64, 261.55 204.08, 361.55 89.04 M187.97 313.12 C250.46 241.23, 312.96 169.33, 361.17 113.88 M187.97 313.12 C255.7 235.2, 323.44 157.28, 361.17 113.88 M209.23 313.05 C243.24 273.93, 277.25 234.8, 361.43 137.96 M209.23 313.05 C239.93 277.73, 270.63 242.41, 361.43 137.96 M230.49 312.98 C280.2 255.8, 329.91 198.61, 361.04 162.8 M230.49 312.98 C273.17 263.88, 315.85 214.79, 361.04 162.8 M251.09 313.67 C289.89 269.03, 328.69 224.4, 361.31 186.88 M251.09 313.67 C294.31 263.95, 337.53 214.23, 361.31 186.88 M272.35 313.6 C290.33 292.92, 308.3 272.24, 361.57 210.96 M272.35 313.6 C295.47 287, 318.6 260.4, 361.57 210.96 M293.61 313.53 C312.24 292.1, 330.87 270.67, 361.18 235.8 M293.61 313.53 C313.11 291.1, 332.61 268.66, 361.18 235.8 M320.12 307.43 C334.22 291.2, 348.33 274.98, 361.45 259.88 M320.12 307.43 C328.48 297.8, 336.85 288.18, 361.45 259.88" stroke="#a5d8ff" stroke-width="2" fill="none"></path><path d="M32 0 M32 0 C124.59 0, 217.18 0, 319.5 0 M32 0 C131.55 0, 231.1 0, 319.5 0 M319.5 0 C340.83 0, 351.5 10.67, 351.5 32 M319.5 0 C340.83 0, 351.5 10.67, 351.5 32 M351.5 32 C351.5 80.81, 351.5 129.63, 351.5 274.9 M351.5 32 C351.5 110.15, 351.5 188.29, 351.5 274.9 M351.5 274.9 C351.5 296.24, 340.83 306.9, 319.5 306.9 M351.5 274.9 C351.5 296.24, 340.83 306.9, 319.5 306.9 M319.5 306.9 C231.62 306.9, 143.74 306.9, 32 306.9 M319.5 306.9 C224.43 306.9, 129.35 306.9, 32 306.9 M32 306.9 C10.67 306.9, 0 296.24, 0 274.9 M32 306.9 C10.67 306.9, 0 296.24, 0 274.9 M0 274.9 C0 201.44, 0 127.97, 0 32 M0 274.9 C0 223.47, 0 172.03, 0 32 M0 32 C0 10.67, 10.67 0, 32 0 M0 32 C0 10.67, 10.67 0, 32 0" stroke="#1e1e1e" stroke-width="4" fill="none"></path></g><g transform="translate(53.955077414111884 67.75616808530685) rotate(0 146.40209953321016 112.41543341336182)"><text x="146.40209953321022" y="0" font-family="Cascadia, Segoe UI Emoji" font-size="62.45301856297864px" fill="#1e1e1e" text-anchor="middle" style="white-space: pre;" direction="ltr" dominant-baseline="text-before-edge">T object</text><text x="146.40209953321022" y="74.94362227557437" font-family="Cascadia, Segoe UI Emoji" font-size="62.45301856297864px" fill="#1e1e1e" text-anchor="middle" style="white-space: pre;" direction="ltr" dominant-baseline="text-before-edge"></text><text x="146.40209953321022" y="149.88724455114874" font-family="Cascadia, Segoe UI Emoji" font-size="62.45301856297864px" fill="#1e1e1e" text-anchor="middle" style="white-space: pre;" direction="ltr" dominant-baseline="text-before-edge">#1</text></g><g stroke-linecap="round" transform="translate(12.166666666669698 579.3333333333358) rotate(0 725 167.5)"><path d="M7.86 8.16 C7.86 8.16, 7.86 8.16, 7.86 8.16 M7.86 8.16 C7.86 8.16, 7.86 8.16, 7.86 8.16 M4.85 36.01 C15.97 23.22, 27.08 10.44, 34.37 2.05 M4.85 36.01 C14.27 25.17, 23.7 14.33, 34.37 2.05 M5.11 60.1 C19.16 43.94, 33.21 27.77, 55.63 1.98 M5.11 60.1 C24.57 37.72, 44.02 15.34, 55.63 1.98 M4.72 84.93 C22.42 64.57, 40.12 44.21, 76.89 1.91 M4.72 84.93 C26.81 59.53, 48.89 34.13, 76.89 1.91 M4.99 109.01 C27.34 83.3, 49.69 57.59, 98.15 1.85 M4.99 109.01 C31.42 78.61, 57.85 48.21, 98.15 1.85 M4.6 133.85 C31.16 103.3, 57.72 72.74, 119.41 1.78 M4.6 133.85 C38.31 95.08, 72.01 56.3, 119.41 1.78 M4.87 157.93 C49.97 106.04, 95.08 54.15, 140.02 2.46 M4.87 157.93 C51.83 103.91, 98.79 49.89, 140.02 2.46 M5.13 182.01 C58.81 120.27, 112.49 58.52, 161.28 2.39 M5.13 182.01 C60.71 118.08, 116.29 54.14, 161.28 2.39 M4.74 206.85 C54.15 150.01, 103.56 93.17, 182.54 2.32 M4.74 206.85 C74.25 126.89, 143.77 46.92, 182.54 2.32 M5.01 230.93 C66.66 160.01, 128.32 89.08, 203.8 2.26 M5.01 230.93 C74.24 151.29, 143.47 71.65, 203.8 2.26 M5.28 255.01 C73.27 176.8, 141.26 98.58, 225.06 2.19 M5.28 255.01 C51.42 201.93, 97.57 148.84, 225.06 2.19 M4.89 279.85 C95.88 175.18, 186.86 70.51, 246.32 2.12 M4.89 279.85 C79 194.59, 153.11 109.33, 246.32 2.12 M5.15 303.93 C105.9 188.04, 206.64 72.15, 267.58 2.05 M5.15 303.93 C105.28 188.75, 205.4 73.57, 267.58 2.05 M8.04 324.99 C94.83 225.15, 181.62 125.31, 288.84 1.98 M8.04 324.99 C78.17 244.33, 148.29 163.66, 288.84 1.98 M20.12 335.49 C129.15 210.06, 238.19 84.63, 310.1 1.91 M20.12 335.49 C96.66 247.44, 173.21 159.38, 310.1 1.91 M34.82 342.97 C150.67 209.7, 266.51 76.43, 331.36 1.84 M34.82 342.97 C146.16 214.89, 257.5 86.81, 331.36 1.84 M56.08 342.9 C138.62 247.95, 221.16 152.99, 351.96 2.53 M56.08 342.9 C173.48 207.84, 290.89 72.78, 351.96 2.53 M76.68 343.59 C143.18 267.09, 209.68 190.59, 373.22 2.46 M76.68 343.59 C155.07 253.41, 233.46 163.23, 373.22 2.46 M97.94 343.52 C158.67 273.66, 219.4 203.8, 394.48 2.39 M97.94 343.52 C187.16 240.89, 276.37 138.26, 394.48 2.39 M119.2 343.45 C217.43 230.45, 315.65 117.46, 415.74 2.32 M119.2 343.45 C201.59 248.68, 283.97 153.9, 415.74 2.32 M140.46 343.38 C254.4 212.31, 368.33 81.25, 437 2.25 M140.46 343.38 C222.95 248.49, 305.43 153.61, 437 2.25 M161.72 343.31 C266.03 223.32, 370.34 103.33, 458.26 2.18 M161.72 343.31 C268.05 221, 374.37 98.69, 458.26 2.18 M182.98 343.24 C291.75 218.12, 400.51 93.01, 479.52 2.11 M182.98 343.24 C245.86 270.91, 308.73 198.58, 479.52 2.11 M204.24 343.17 C276.8 259.71, 349.35 176.24, 500.78 2.04 M204.24 343.17 C272.58 264.56, 340.92 185.94, 500.78 2.04 M225.5 343.1 C290.96 267.81, 356.41 192.51, 522.04 1.98 M225.5 343.1 C334.34 217.91, 443.17 92.71, 522.04 1.98 M246.76 343.03 C332.06 244.91, 417.36 146.78, 543.3 1.91 M246.76 343.03 C365 207.02, 483.23 71.01, 543.3 1.91 M268.02 342.97 C366.58 229.59, 465.13 116.22, 563.91 2.59 M268.02 342.97 C383.1 210.59, 498.17 78.22, 563.91 2.59 M288.63 343.65 C370.79 249.13, 452.95 154.62, 585.17 2.52 M288.63 343.65 C392.35 224.34, 496.07 105.02, 585.17 2.52 M309.89 343.58 C372.04 272.08, 434.2 200.58, 606.43 2.45 M309.89 343.58 C400.27 239.61, 490.64 135.65, 606.43 2.45 M331.15 343.51 C428.43 231.6, 525.72 119.68, 627.69 2.38 M331.15 343.51 C435.31 223.68, 539.48 103.86, 627.69 2.38 M352.41 343.44 C433.9 249.7, 515.39 155.96, 648.95 2.32 M352.41 343.44 C448.16 233.29, 543.92 123.14, 648.95 2.32 M373.67 343.38 C455.08 249.72, 536.49 156.07, 670.21 2.25 M373.67 343.38 C448.45 257.36, 523.22 171.33, 670.21 2.25 M394.93 343.31 C475.57 250.54, 556.21 157.78, 691.47 2.18 M394.93 343.31 C463.98 263.87, 533.03 184.44, 691.47 2.18 M416.19 343.24 C495.99 251.44, 575.78 159.65, 712.73 2.11 M416.19 343.24 C500 246.83, 583.8 150.42, 712.73 2.11 M437.45 343.17 C515.44 253.45, 593.44 163.72, 733.99 2.04 M437.45 343.17 C498.36 273.09, 559.28 203.02, 733.99 2.04 M458.71 343.1 C572.33 212.4, 685.94 81.7, 755.25 1.97 M458.71 343.1 C534.05 256.43, 609.38 169.77, 755.25 1.97 M479.31 343.79 C547.17 265.73, 615.02 187.67, 775.85 2.66 M479.31 343.79 C595.75 209.84, 712.19 75.9, 775.85 2.66 M500.57 343.72 C561.9 273.17, 623.23 202.62, 797.11 2.59 M500.57 343.72 C607.08 221.2, 713.58 98.68, 797.11 2.59 M521.83 343.65 C601.55 251.94, 681.27 160.23, 818.37 2.52 M521.83 343.65 C619.06 231.81, 716.28 119.97, 818.37 2.52 M543.09 343.58 C616.93 258.64, 690.77 173.7, 839.63 2.45 M543.09 343.58 C653.36 216.73, 763.63 89.88, 839.63 2.45 M564.35 343.51 C624.06 274.83, 683.76 206.14, 860.89 2.38 M564.35 343.51 C660.9 232.45, 757.45 121.38, 860.89 2.38 M585.61 343.44 C685.64 228.37, 785.68 113.3, 882.15 2.31 M585.61 343.44 C658.95 259.08, 732.28 174.72, 882.15 2.31 M606.87 343.37 C714.62 219.43, 822.36 95.48, 903.41 2.24 M606.87 343.37 C690.39 247.3, 773.9 151.23, 903.41 2.24 M628.13 343.3 C692.84 268.87, 757.54 194.44, 924.67 2.17 M628.13 343.3 C723.6 233.48, 819.07 123.65, 924.67 2.17 M649.4 343.23 C711.85 271.39, 774.3 199.55, 945.93 2.1 M649.4 343.23 C730.36 250.09, 811.32 156.95, 945.93 2.1 M670.66 343.16 C776.44 221.48, 882.22 99.79, 967.19 2.04 M670.66 343.16 C763.61 236.24, 856.56 129.31, 967.19 2.04 M691.26 343.85 C785.45 235.5, 879.64 127.14, 987.8 2.72 M691.26 343.85 C797.46 221.69, 903.65 99.52, 987.8 2.72 M712.52 343.78 C812.4 228.88, 912.28 113.99, 1009.06 2.65 M712.52 343.78 C807.64 234.36, 902.75 124.94, 1009.06 2.65 M733.78 343.71 C845.78 214.87, 957.78 86.03, 1030.32 2.58 M733.78 343.71 C845.41 215.3, 957.03 86.89, 1030.32 2.58 M755.04 343.64 C832.47 254.57, 909.89 165.51, 1051.58 2.51 M755.04 343.64 C821.47 267.22, 887.9 190.8, 1051.58 2.51 M776.3 343.57 C836.44 274.39, 896.58 205.21, 1072.84 2.45 M776.3 343.57 C879.72 224.6, 983.14 105.63, 1072.84 2.45 M797.56 343.51 C901.64 223.78, 1005.71 104.06, 1094.1 2.38 M797.56 343.51 C881.98 246.39, 966.4 149.28, 1094.1 2.38 M818.82 343.44 C914.81 233.01, 1010.8 122.58, 1115.36 2.31 M818.82 343.44 C901.01 248.89, 983.2 154.34, 1115.36 2.31 M840.08 343.37 C942.85 225.15, 1045.61 106.93, 1136.62 2.24 M840.08 343.37 C942.51 225.54, 1044.94 107.71, 1136.62 2.24 M861.34 343.3 C976.97 210.28, 1092.6 77.26, 1157.88 2.17 M861.34 343.3 C963.63 225.63, 1065.92 107.95, 1157.88 2.17 M882.6 343.23 C973.56 238.59, 1064.52 133.96, 1179.14 2.1 M882.6 343.23 C950.85 264.72, 1019.09 186.22, 1179.14 2.1 M903.21 343.91 C1012.85 217.78, 1122.49 91.65, 1199.74 2.79 M903.21 343.91 C997.11 235.89, 1091.01 127.87, 1199.74 2.79 M924.47 343.85 C986.49 272.49, 1048.52 201.14, 1221 2.72 M924.47 343.85 C1026.48 226.49, 1128.5 109.13, 1221 2.72 M945.73 343.78 C1049.56 224.33, 1153.39 104.89, 1242.26 2.65 M945.73 343.78 C1045.98 228.44, 1146.24 113.11, 1242.26 2.65 M966.99 343.71 C1070.84 224.24, 1174.7 104.77, 1263.52 2.58 M966.99 343.71 C1048.1 250.4, 1129.21 157.1, 1263.52 2.58 M988.25 343.64 C1088.15 228.72, 1188.05 113.79, 1284.78 2.51 M988.25 343.64 C1087.97 228.91, 1187.7 114.19, 1284.78 2.51 M1009.51 343.57 C1111.82 225.87, 1214.14 108.16, 1306.04 2.44 M1009.51 343.57 C1124.05 211.8, 1238.6 80.03, 1306.04 2.44 M1030.77 343.5 C1106.24 256.68, 1181.71 169.86, 1327.3 2.37 M1030.77 343.5 C1095.89 268.59, 1161.01 193.68, 1327.3 2.37 M1052.03 343.43 C1149.15 231.71, 1246.27 119.98, 1348.57 2.3 M1052.03 343.43 C1120.6 264.55, 1189.17 185.66, 1348.57 2.3 M1073.29 343.36 C1175.96 225.25, 1278.64 107.14, 1369.83 2.23 M1073.29 343.36 C1155.58 248.69, 1237.88 154.02, 1369.83 2.23 M1094.55 343.29 C1198.19 224.07, 1301.83 104.85, 1390.43 2.92 M1094.55 343.29 C1194.73 228.05, 1294.9 112.81, 1390.43 2.92 M1115.15 343.98 C1226.09 216.36, 1337.03 88.73, 1411.69 2.85 M1115.15 343.98 C1228.09 214.05, 1341.04 84.13, 1411.69 2.85 M1136.41 343.91 C1250.49 212.68, 1364.57 81.44, 1432.95 2.78 M1136.41 343.91 C1201.56 268.96, 1266.71 194.01, 1432.95 2.78 M1157.67 343.84 C1220.72 271.32, 1283.76 198.79, 1445.68 12.52 M1157.67 343.84 C1267.61 217.38, 1377.54 90.91, 1445.68 12.52 M1178.93 343.77 C1266.95 242.52, 1354.96 141.27, 1453.16 28.3 M1178.93 343.77 C1279.66 227.9, 1380.39 112.02, 1453.16 28.3 M1200.19 343.7 C1271.12 262.11, 1342.05 180.52, 1453.43 52.39 M1200.19 343.7 C1279.54 252.43, 1358.88 161.15, 1453.43 52.39 M1221.45 343.63 C1306.89 245.34, 1392.34 147.05, 1453.7 76.47 M1221.45 343.63 C1280.75 275.42, 1340.05 207.21, 1453.7 76.47 M1242.71 343.57 C1300.82 276.72, 1358.94 209.87, 1453.31 101.3 M1242.71 343.57 C1324.9 249.02, 1407.09 154.47, 1453.31 101.3 M1263.97 343.5 C1311.97 288.28, 1359.98 233.06, 1453.57 125.39 M1263.97 343.5 C1328.23 269.58, 1392.49 195.66, 1453.57 125.39 M1285.23 343.43 C1326.13 296.39, 1367.02 249.34, 1453.18 150.22 M1285.23 343.43 C1320.22 303.18, 1355.21 262.92, 1453.18 150.22 M1306.49 343.36 C1339.29 305.63, 1372.09 267.9, 1453.45 174.3 M1306.49 343.36 C1343.89 300.34, 1381.29 257.31, 1453.45 174.3 M1327.1 344.04 C1369.95 294.74, 1412.81 245.44, 1453.72 198.39 M1327.1 344.04 C1370.73 293.85, 1414.36 243.66, 1453.72 198.39 M1348.36 343.98 C1373.87 314.63, 1399.38 285.28, 1453.33 223.22 M1348.36 343.98 C1371.42 317.44, 1394.49 290.9, 1453.33 223.22 M1369.62 343.91 C1389.39 321.16, 1409.16 298.42, 1453.59 247.3 M1369.62 343.91 C1399.63 309.39, 1429.63 274.86, 1453.59 247.3 M1390.88 343.84 C1415.6 315.4, 1440.32 286.96, 1453.2 272.14 M1390.88 343.84 C1405.44 327.09, 1420 310.34, 1453.2 272.14 M1418.7 336.22 C1430.09 323.12, 1441.48 310.01, 1453.47 296.22 M1418.7 336.22 C1432.12 320.78, 1445.55 305.33, 1453.47 296.22" stroke="#e9ecef" stroke-width="2" fill="none"></path><path d="M32 0 M32 0 C429.25 0, 826.5 0, 1418 0 M32 0 C414.91 0, 797.83 0, 1418 0 M1418 0 C1439.33 0, 1450 10.67, 1450 32 M1418 0 C1439.33 0, 1450 10.67, 1450 32 M1450 32 C1450 114.21, 1450 196.42, 1450 303 M1450 32 C1450 94.64, 1450 157.27, 1450 303 M1450 303 C1450 324.33, 1439.33 335, 1418 335 M1450 303 C1450 324.33, 1439.33 335, 1418 335 M1418 335 C934.93 335, 451.85 335, 32 335 M1418 335 C864.05 335, 310.11 335, 32 335 M32 335 C10.67 335, 0 324.33, 0 303 M32 335 C10.67 335, 0 324.33, 0 303 M0 303 C0 232.46, 0 161.91, 0 32 M0 303 C0 222.07, 0 141.15, 0 32 M0 32 C0 10.67, 10.67 0, 32 0 M0 32 C0 10.67, 10.67 0, 32 0" stroke="#1e1e1e" stroke-width="4" fill="none"></path></g><g stroke-linecap="round" transform="translate(1091.3775496931648 594.1582371609766) rotate(0 175.74836111837976 153.45192724515255)"><path d="M7.86 8.16 C7.86 8.16, 7.86 8.16, 7.86 8.16 M7.86 8.16 C7.86 8.16, 7.86 8.16, 7.86 8.16 M8.78 31.49 C18.04 20.83, 27.31 10.18, 34.37 2.05 M8.78 31.49 C15.91 23.29, 23.04 15.09, 34.37 2.05 M8.39 56.32 C20.64 42.24, 32.88 28.15, 55.63 1.98 M8.39 56.32 C25.39 36.77, 42.38 17.22, 55.63 1.98 M8.66 80.4 C25.52 61.01, 42.38 41.61, 76.89 1.91 M8.66 80.4 C35.52 49.51, 62.37 18.61, 76.89 1.91 M8.27 105.24 C38.22 70.79, 68.17 36.34, 98.15 1.85 M8.27 105.24 C35.66 73.73, 63.06 42.21, 98.15 1.85 M8.54 129.32 C41.24 91.71, 73.93 54.09, 119.41 1.78 M8.54 129.32 C33.95 100.08, 59.37 70.85, 119.41 1.78 M8.15 154.16 C36.93 121.05, 65.71 87.94, 140.67 1.71 M8.15 154.16 C58.09 96.71, 108.02 39.26, 140.67 1.71 M8.41 178.24 C43.54 137.83, 78.67 97.42, 161.28 2.39 M8.41 178.24 C53.31 126.6, 98.2 74.95, 161.28 2.39 M8.02 203.08 C50.79 153.88, 93.55 104.68, 182.54 2.32 M8.02 203.08 C64.71 137.87, 121.39 72.66, 182.54 2.32 M8.29 227.16 C65.98 160.79, 123.67 94.43, 203.8 2.26 M8.29 227.16 C62.35 164.97, 116.41 102.78, 203.8 2.26 M8.56 251.24 C66.9 184.13, 125.24 117.01, 225.06 2.19 M8.56 251.24 C68.94 181.77, 129.33 112.31, 225.06 2.19 M1.61 283.62 C63.46 212.47, 125.31 141.32, 246.32 2.12 M1.61 283.62 C62.42 213.67, 123.23 143.71, 246.32 2.12 M9.09 299.4 C76.77 221.55, 144.44 143.7, 267.58 2.05 M9.09 299.4 C99.71 195.16, 190.33 90.91, 267.58 2.05 M22.48 308.39 C124.64 190.86, 226.81 73.34, 288.84 1.98 M22.48 308.39 C92.19 228.19, 161.91 147.99, 288.84 1.98 M39.14 313.61 C123.74 216.29, 208.34 118.97, 310.1 1.91 M39.14 313.61 C102.13 241.15, 165.12 168.69, 310.1 1.91 M60.4 313.54 C137.8 224.5, 215.19 135.47, 330.04 3.35 M60.4 313.54 C154.65 205.12, 248.89 96.71, 330.04 3.35 M81.66 313.47 C142.21 243.81, 202.76 174.16, 345.4 10.07 M81.66 313.47 C186.76 192.57, 291.86 71.66, 345.4 10.07 M102.92 313.4 C173.27 232.48, 243.61 151.56, 352.88 25.85 M102.92 313.4 C184.5 219.56, 266.08 125.71, 352.88 25.85 M124.18 313.33 C205.07 220.28, 285.95 127.24, 361.02 40.88 M124.18 313.33 C196.15 230.54, 268.11 147.76, 361.02 40.88 M145.45 313.26 C189.42 262.67, 233.4 212.08, 361.29 64.96 M145.45 313.26 C229.21 216.9, 312.98 120.54, 361.29 64.96 M166.71 313.19 C224.07 247.2, 281.44 181.2, 361.55 89.04 M166.71 313.19 C241.72 226.9, 316.73 140.61, 361.55 89.04 M187.97 313.12 C224.3 271.33, 260.63 229.53, 361.17 113.88 M187.97 313.12 C241.96 251.01, 295.96 188.89, 361.17 113.88 M209.23 313.05 C247.8 268.68, 286.38 224.3, 361.43 137.96 M209.23 313.05 C248.73 267.61, 288.22 222.18, 361.43 137.96 M230.49 312.98 C279.31 256.81, 328.14 200.64, 361.04 162.8 M230.49 312.98 C263.86 274.59, 297.24 236.19, 361.04 162.8 M251.09 313.67 C284.43 275.32, 317.76 236.97, 361.31 186.88 M251.09 313.67 C287.07 272.28, 323.04 230.9, 361.31 186.88 M272.35 313.6 C298.2 283.87, 324.05 254.13, 361.57 210.96 M272.35 313.6 C304.41 276.72, 336.47 239.84, 361.57 210.96 M293.61 313.53 C310.11 294.56, 326.6 275.58, 361.18 235.8 M293.61 313.53 C318.33 285.09, 343.05 256.66, 361.18 235.8 M320.12 307.43 C331.23 294.64, 342.35 281.86, 361.45 259.88 M320.12 307.43 C334.32 291.09, 348.52 274.75, 361.45 259.88" stroke="#a5d8ff" stroke-width="2" fill="none"></path><path d="M32 0 M32 0 C146.93 0, 261.86 0, 319.5 0 M32 0 C129.52 0, 227.05 0, 319.5 0 M319.5 0 C340.83 0, 351.5 10.67, 351.5 32 M319.5 0 C340.83 0, 351.5 10.67, 351.5 32 M351.5 32 C351.5 89.68, 351.5 147.36, 351.5 274.9 M351.5 32 C351.5 97.61, 351.5 163.22, 351.5 274.9 M351.5 274.9 C351.5 296.24, 340.83 306.9, 319.5 306.9 M351.5 274.9 C351.5 296.24, 340.83 306.9, 319.5 306.9 M319.5 306.9 C225.34 306.9, 131.19 306.9, 32 306.9 M319.5 306.9 C243.42 306.9, 167.35 306.9, 32 306.9 M32 306.9 C10.67 306.9, 0 296.24, 0 274.9 M32 306.9 C10.67 306.9, 0 296.24, 0 274.9 M0 274.9 C0 185.09, 0 95.28, 0 32 M0 274.9 C0 180.12, 0 85.33, 0 32 M0 32 C0 10.67, 10.67 0, 32 0 M0 32 C0 10.67, 10.67 0, 32 0" stroke="#1e1e1e" stroke-width="4" fill="none"></path></g><g transform="translate(1121.7068990371927 638.108694751114) rotate(0 146.40209953321028 112.41543341336182)"><text x="146.40209953321022" y="0" font-family="Cascadia, Segoe UI Emoji" font-size="62.45301856297864px" fill="#1e1e1e" text-anchor="middle" style="white-space: pre;" direction="ltr" dominant-baseline="text-before-edge">T object</text><text x="146.40209953321022" y="74.94362227557437" font-family="Cascadia, Segoe UI Emoji" font-size="62.45301856297864px" fill="#1e1e1e" text-anchor="middle" style="white-space: pre;" direction="ltr" dominant-baseline="text-before-edge"></text><text x="146.40209953321022" y="149.88724455114874" font-family="Cascadia, Segoe UI Emoji" font-size="62.45301856297864px" fill="#1e1e1e" text-anchor="middle" style="white-space: pre;" direction="ltr" dominant-baseline="text-before-edge">#4</text></g><g stroke-linecap="round" transform="translate(736.2002409378574 594.9531189389745) rotate(0 175.74836111837976 153.45192724515255)"><path d="M7.86 8.16 C7.86 8.16, 7.86 8.16, 7.86 8.16 M7.86 8.16 C7.86 8.16, 7.86 8.16, 7.86 8.16 M8.78 31.49 C17.41 21.57, 26.03 11.65, 34.37 2.05 M8.78 31.49 C17.44 21.52, 26.1 11.56, 34.37 2.05 M8.39 56.32 C26.67 35.29, 44.95 14.26, 55.63 1.98 M8.39 56.32 C18.81 44.34, 29.22 32.37, 55.63 1.98 M8.66 80.4 C26.98 59.33, 45.31 38.25, 76.89 1.91 M8.66 80.4 C22.5 64.49, 36.33 48.57, 76.89 1.91 M8.27 105.24 C34.61 74.94, 60.96 44.63, 98.15 1.85 M8.27 105.24 C30.18 80.04, 52.08 54.84, 98.15 1.85 M8.54 129.32 C38.15 95.26, 67.76 61.2, 119.41 1.78 M8.54 129.32 C51.55 79.85, 94.56 30.37, 119.41 1.78 M8.15 154.16 C38.53 119.21, 68.91 84.26, 140.67 1.71 M8.15 154.16 C38.46 119.29, 68.77 84.42, 140.67 1.71 M8.41 178.24 C67.78 109.95, 127.14 41.66, 161.28 2.39 M8.41 178.24 C65.11 113.01, 121.81 47.79, 161.28 2.39 M8.02 203.08 C53.49 150.77, 98.96 98.47, 182.54 2.32 M8.02 203.08 C59.17 144.24, 110.32 85.4, 182.54 2.32 M8.29 227.16 C48.74 180.63, 89.19 134.09, 203.8 2.26 M8.29 227.16 C49.37 179.9, 90.45 132.65, 203.8 2.26 M8.56 251.24 C88.86 158.86, 169.16 66.49, 225.06 2.19 M8.56 251.24 C81.24 167.62, 153.93 84.01, 225.06 2.19 M1.61 283.62 C54.46 222.82, 107.31 162.02, 246.32 2.12 M1.61 283.62 C86.04 186.5, 170.47 89.37, 246.32 2.12 M9.09 299.4 C77.06 221.21, 145.04 143.02, 267.58 2.05 M9.09 299.4 C70.31 228.97, 131.54 158.54, 267.58 2.05 M22.48 308.39 C83.1 238.65, 143.73 168.91, 288.84 1.98 M22.48 308.39 C128.08 186.91, 233.68 65.43, 288.84 1.98 M39.14 313.61 C136.17 201.99, 233.2 90.37, 310.1 1.91 M39.14 313.61 C109.01 233.23, 178.88 152.85, 310.1 1.91 M60.4 313.54 C160.86 197.98, 261.31 82.42, 330.04 3.35 M60.4 313.54 C159.22 199.86, 258.03 86.19, 330.04 3.35 M81.66 313.47 C186.23 193.18, 290.79 72.9, 345.4 10.07 M81.66 313.47 C145.34 240.21, 209.02 166.96, 345.4 10.07 M102.92 313.4 C177.99 227.05, 253.05 140.7, 352.88 25.85 M102.92 313.4 C162.5 244.86, 222.08 176.33, 352.88 25.85 M124.18 313.33 C180.3 248.78, 236.41 184.23, 361.02 40.88 M124.18 313.33 C174.28 255.7, 224.38 198.07, 361.02 40.88 M145.45 313.26 C227.28 219.12, 309.11 124.99, 361.29 64.96 M145.45 313.26 C226.74 219.74, 308.04 126.21, 361.29 64.96 M166.71 313.19 C216.81 255.56, 266.91 197.92, 361.55 89.04 M166.71 313.19 C239.44 229.52, 312.17 145.86, 361.55 89.04 M187.97 313.12 C239.24 254.14, 290.52 195.15, 361.17 113.88 M187.97 313.12 C244.64 247.93, 301.31 182.74, 361.17 113.88 M209.23 313.05 C263.02 251.17, 316.82 189.28, 361.43 137.96 M209.23 313.05 C256.88 258.23, 304.54 203.41, 361.43 137.96 M230.49 312.98 C264.02 274.41, 297.54 235.84, 361.04 162.8 M230.49 312.98 C258.82 280.39, 287.15 247.8, 361.04 162.8 M251.09 313.67 C288.68 270.43, 326.27 227.19, 361.31 186.88 M251.09 313.67 C295.04 263.12, 338.98 212.56, 361.31 186.88 M272.35 313.6 C306.79 273.99, 341.22 234.37, 361.57 210.96 M272.35 313.6 C303.97 277.22, 335.59 240.85, 361.57 210.96 M293.61 313.53 C317.52 286.03, 341.42 258.53, 361.18 235.8 M293.61 313.53 C319.22 284.07, 344.84 254.6, 361.18 235.8 M320.12 307.43 C333.62 291.89, 347.13 276.36, 361.45 259.88 M320.12 307.43 C329.58 296.54, 339.04 285.66, 361.45 259.88" stroke="#a5d8ff" stroke-width="2" fill="none"></path><path d="M32 0 M32 0 C102.24 0, 172.49 0, 319.5 0 M32 0 C142.46 0, 252.92 0, 319.5 0 M319.5 0 C340.83 0, 351.5 10.67, 351.5 32 M319.5 0 C340.83 0, 351.5 10.67, 351.5 32 M351.5 32 C351.5 98.75, 351.5 165.5, 351.5 274.9 M351.5 32 C351.5 110.44, 351.5 188.87, 351.5 274.9 M351.5 274.9 C351.5 296.24, 340.83 306.9, 319.5 306.9 M351.5 274.9 C351.5 296.24, 340.83 306.9, 319.5 306.9 M319.5 306.9 C259.66 306.9, 199.83 306.9, 32 306.9 M319.5 306.9 C215.93 306.9, 112.36 306.9, 32 306.9 M32 306.9 C10.67 306.9, 0 296.24, 0 274.9 M32 306.9 C10.67 306.9, 0 296.24, 0 274.9 M0 274.9 C0 204.78, 0 134.65, 0 32 M0 274.9 C0 200.41, 0 125.91, 0 32 M0 32 C0 10.67, 10.67 0, 32 0 M0 32 C0 10.67, 10.67 0, 32 0" stroke="#1e1e1e" stroke-width="4" fill="none"></path></g><g transform="translate(766.5295902818834 638.9035765291119) rotate(0 146.40209953321028 112.41543341336182)"><text x="146.40209953321022" y="0" font-family="Cascadia, Segoe UI Emoji" font-size="62.45301856297864px" fill="#1e1e1e" text-anchor="middle" style="white-space: pre;" direction="ltr" dominant-baseline="text-before-edge">T object</text><text x="146.40209953321022" y="74.94362227557437" font-family="Cascadia, Segoe UI Emoji" font-size="62.45301856297864px" fill="#1e1e1e" text-anchor="middle" style="white-space: pre;" direction="ltr" dominant-baseline="text-before-edge"></text><text x="146.40209953321022" y="149.88724455114874" font-family="Cascadia, Segoe UI Emoji" font-size="62.45301856297864px" fill="#1e1e1e" text-anchor="middle" style="white-space: pre;" direction="ltr" dominant-baseline="text-before-edge">#3</text></g><g stroke-linecap="round" transform="translate(380.96970349206185 592.3441620504964) rotate(0 175.74836111837988 153.45192724515255)"><path d="M7.86 8.16 C7.86 8.16, 7.86 8.16, 7.86 8.16 M7.86 8.16 C7.86 8.16, 7.86 8.16, 7.86 8.16 M8.78 31.49 C14.08 25.39, 19.38 19.3, 34.37 2.05 M8.78 31.49 C15.16 24.15, 21.54 16.81, 34.37 2.05 M8.39 56.32 C19.03 44.09, 29.66 31.85, 55.63 1.98 M8.39 56.32 C21.77 40.94, 35.14 25.55, 55.63 1.98 M8.66 80.4 C23.7 63.11, 38.74 45.81, 76.89 1.91 M8.66 80.4 C28.13 58.01, 47.59 35.62, 76.89 1.91 M8.27 105.24 C40.47 68.2, 72.66 31.17, 98.15 1.85 M8.27 105.24 C35.03 74.46, 61.79 43.68, 98.15 1.85 M8.54 129.32 C33.36 100.77, 58.18 72.22, 119.41 1.78 M8.54 129.32 C44.41 88.05, 80.29 46.78, 119.41 1.78 M8.15 154.16 C55.87 99.27, 103.58 44.37, 140.67 1.71 M8.15 154.16 C59.82 94.72, 111.49 35.28, 140.67 1.71 M8.41 178.24 C39.67 142.28, 70.93 106.33, 161.28 2.39 M8.41 178.24 C40.52 141.31, 72.62 104.38, 161.28 2.39 M8.02 203.08 C47.66 157.48, 87.3 111.88, 182.54 2.32 M8.02 203.08 C50.98 153.67, 93.93 104.26, 182.54 2.32 M8.29 227.16 C60.69 166.88, 113.08 106.61, 203.8 2.26 M8.29 227.16 C80.96 143.56, 153.63 59.97, 203.8 2.26 M8.56 251.24 C67.99 182.87, 127.42 114.5, 225.06 2.19 M8.56 251.24 C80.88 168.04, 153.2 84.84, 225.06 2.19 M1.61 283.62 C60.08 216.35, 118.56 149.08, 246.32 2.12 M1.61 283.62 C54.68 222.57, 107.75 161.52, 246.32 2.12 M9.09 299.4 C95.97 199.46, 182.85 99.52, 267.58 2.05 M9.09 299.4 C87.31 209.42, 165.54 119.43, 267.58 2.05 M22.48 308.39 C91.89 228.54, 161.31 148.68, 288.84 1.98 M22.48 308.39 C111.74 205.71, 201 103.02, 288.84 1.98 M39.14 313.61 C137.92 199.97, 236.7 86.34, 310.1 1.91 M39.14 313.61 C142.65 194.54, 246.15 75.47, 310.1 1.91 M60.4 313.54 C166.9 191.03, 273.4 68.52, 330.04 3.35 M60.4 313.54 C140.55 221.34, 220.7 129.14, 330.04 3.35 M81.66 313.47 C142.65 243.31, 203.64 173.15, 345.4 10.07 M81.66 313.47 C182.84 197.08, 284.01 80.69, 345.4 10.07 M102.92 313.4 C158.61 249.34, 214.29 185.29, 352.88 25.85 M102.92 313.4 C166.73 240, 230.54 166.6, 352.88 25.85 M124.18 313.33 C201.47 224.43, 278.75 135.53, 361.02 40.88 M124.18 313.33 C195.27 231.55, 266.36 149.78, 361.02 40.88 M145.45 313.26 C198.01 252.79, 250.58 192.32, 361.29 64.96 M145.45 313.26 C219.38 228.21, 293.31 143.16, 361.29 64.96 M166.71 313.19 C236.58 232.81, 306.46 152.42, 361.55 89.04 M166.71 313.19 C226.23 244.71, 285.76 176.23, 361.55 89.04 M187.97 313.12 C235.69 258.22, 283.42 203.31, 361.17 113.88 M187.97 313.12 C235.34 258.62, 282.72 204.12, 361.17 113.88 M209.23 313.05 C263.39 250.75, 317.55 188.44, 361.43 137.96 M209.23 313.05 C263.24 250.91, 317.26 188.78, 361.43 137.96 M230.49 312.98 C263.89 274.56, 297.28 236.14, 361.04 162.8 M230.49 312.98 C275.42 261.3, 320.34 209.61, 361.04 162.8 M251.09 313.67 C280.22 280.15, 309.36 246.64, 361.31 186.88 M251.09 313.67 C293.49 264.89, 335.89 216.11, 361.31 186.88 M272.35 313.6 C293.77 288.96, 315.2 264.31, 361.57 210.96 M272.35 313.6 C292.99 289.85, 313.63 266.11, 361.57 210.96 M293.61 313.53 C317.21 286.38, 340.81 259.23, 361.18 235.8 M293.61 313.53 C314.74 289.23, 335.86 264.93, 361.18 235.8 M320.12 307.43 C328.5 297.78, 336.89 288.13, 361.45 259.88 M320.12 307.43 C336.38 288.72, 352.65 270.01, 361.45 259.88" stroke="#a5d8ff" stroke-width="2" fill="none"></path><path d="M32 0 M32 0 C145.41 0, 258.83 0, 319.5 0 M32 0 C100.32 0, 168.63 0, 319.5 0 M319.5 0 C340.83 0, 351.5 10.67, 351.5 32 M319.5 0 C340.83 0, 351.5 10.67, 351.5 32 M351.5 32 C351.5 84.31, 351.5 136.61, 351.5 274.9 M351.5 32 C351.5 126.07, 351.5 220.14, 351.5 274.9 M351.5 274.9 C351.5 296.24, 340.83 306.9, 319.5 306.9 M351.5 274.9 C351.5 296.24, 340.83 306.9, 319.5 306.9 M319.5 306.9 C209.75 306.9, 100 306.9, 32 306.9 M319.5 306.9 C261.01 306.9, 202.52 306.9, 32 306.9 M32 306.9 C10.67 306.9, 0 296.24, 0 274.9 M32 306.9 C10.67 306.9, 0 296.24, 0 274.9 M0 274.9 C0 218.4, 0 161.89, 0 32 M0 274.9 C0 204.58, 0 134.25, 0 32 M0 32 C0 10.67, 10.67 0, 32 0 M0 32 C0 10.67, 10.67 0, 32 0" stroke="#1e1e1e" stroke-width="4" fill="none"></path></g><g transform="translate(411.29905283608923 636.2946196406338) rotate(0 146.40209953321028 112.41543341336182)"><text x="146.40209953321022" y="0" font-family="Cascadia, Segoe UI Emoji" font-size="62.45301856297864px" fill="#1e1e1e" text-anchor="middle" style="white-space: pre;" direction="ltr" dominant-baseline="text-before-edge">T object</text><text x="146.40209953321022" y="74.94362227557437" font-family="Cascadia, Segoe UI Emoji" font-size="62.45301856297864px" fill="#1e1e1e" text-anchor="middle" style="white-space: pre;" direction="ltr" dominant-baseline="text-before-edge"></text><text x="146.40209953321022" y="149.88724455114874" font-family="Cascadia, Segoe UI Emoji" font-size="62.45301856297864px" fill="#1e1e1e" text-anchor="middle" style="white-space: pre;" direction="ltr" dominant-baseline="text-before-edge">#2</text></g><g stroke-linecap="round" transform="translate(25.792394736753522 593.1390438285089) rotate(0 175.74836111837988 153.45192724515255)"><path d="M7.86 8.16 C7.86 8.16, 7.86 8.16, 7.86 8.16 M7.86 8.16 C7.86 8.16, 7.86 8.16, 7.86 8.16 M8.78 31.49 C15.9 23.3, 23.01 15.12, 34.37 2.05 M8.78 31.49 C18.64 20.15, 28.49 8.82, 34.37 2.05 M8.39 56.32 C19.98 43, 31.56 29.67, 55.63 1.98 M8.39 56.32 C22.85 39.7, 37.3 23.07, 55.63 1.98 M8.66 80.4 C25.03 61.57, 41.4 42.74, 76.89 1.91 M8.66 80.4 C28.02 58.14, 47.37 35.87, 76.89 1.91 M8.27 105.24 C29.06 81.32, 49.86 57.4, 98.15 1.85 M8.27 105.24 C34.66 74.89, 61.04 44.53, 98.15 1.85 M8.54 129.32 C45.54 86.75, 82.55 44.18, 119.41 1.78 M8.54 129.32 C47.06 85, 85.59 40.69, 119.41 1.78 M8.15 154.16 C53.7 101.75, 99.26 49.34, 140.67 1.71 M8.15 154.16 C55.32 99.89, 102.49 45.63, 140.67 1.71 M8.41 178.24 C50.9 129.37, 93.38 80.5, 161.28 2.39 M8.41 178.24 C68.18 109.49, 127.94 40.74, 161.28 2.39 M8.02 203.08 C62.15 140.81, 116.27 78.55, 182.54 2.32 M8.02 203.08 C68.8 133.16, 129.58 63.24, 182.54 2.32 M8.29 227.16 C68.77 157.58, 129.26 88, 203.8 2.26 M8.29 227.16 C49.34 179.93, 90.39 132.71, 203.8 2.26 M8.56 251.24 C90.15 157.38, 171.74 63.51, 225.06 2.19 M8.56 251.24 C75.02 174.79, 141.48 98.33, 225.06 2.19 M1.61 283.62 C95.55 175.55, 189.49 67.48, 246.32 2.12 M1.61 283.62 C94.97 176.22, 188.34 68.81, 246.32 2.12 M9.09 299.4 C88.98 207.49, 168.88 115.59, 267.58 2.05 M9.09 299.4 C73.64 225.14, 138.19 150.88, 267.58 2.05 M22.48 308.39 C122.63 193.18, 222.79 77.96, 288.84 1.98 M22.48 308.39 C92.79 227.51, 163.1 146.63, 288.84 1.98 M39.14 313.61 C145 191.84, 250.85 70.07, 310.1 1.91 M39.14 313.61 C140.88 196.57, 242.61 79.54, 310.1 1.91 M60.4 313.54 C135.63 227, 210.85 140.47, 330.04 3.35 M60.4 313.54 C167.4 190.45, 274.39 67.37, 330.04 3.35 M81.66 313.47 C140.81 245.43, 199.95 177.39, 345.4 10.07 M81.66 313.47 C151.38 233.26, 221.1 153.06, 345.4 10.07 M102.92 313.4 C154.11 254.51, 205.3 195.63, 352.88 25.85 M102.92 313.4 C178.12 226.89, 253.32 140.38, 352.88 25.85 M124.18 313.33 C202.63 223.08, 281.08 132.84, 361.02 40.88 M124.18 313.33 C189.98 237.64, 255.78 161.94, 361.02 40.88 M145.45 313.26 C228.38 217.86, 311.31 122.46, 361.29 64.96 M145.45 313.26 C205.48 244.19, 265.52 175.13, 361.29 64.96 M166.71 313.19 C235.24 234.35, 303.78 155.5, 361.55 89.04 M166.71 313.19 C236.57 232.82, 306.43 152.46, 361.55 89.04 M187.97 313.12 C251.49 240.04, 315.02 166.97, 361.17 113.88 M187.97 313.12 C224.69 270.88, 261.41 228.63, 361.17 113.88 M209.23 313.05 C246.47 270.21, 283.71 227.37, 361.43 137.96 M209.23 313.05 C244.3 272.7, 279.38 232.35, 361.43 137.96 M230.49 312.98 C259.3 279.83, 288.12 246.68, 361.04 162.8 M230.49 312.98 C278.4 257.86, 326.32 202.74, 361.04 162.8 M251.09 313.67 C282.79 277.2, 314.5 240.73, 361.31 186.88 M251.09 313.67 C295.04 263.12, 338.98 212.56, 361.31 186.88 M272.35 313.6 C302.07 279.41, 331.79 245.23, 361.57 210.96 M272.35 313.6 C307.05 273.68, 341.75 233.76, 361.57 210.96 M293.61 313.53 C312.33 291.99, 331.06 270.46, 361.18 235.8 M293.61 313.53 C317.25 286.34, 340.88 259.15, 361.18 235.8 M320.12 307.43 C328.78 297.46, 337.45 287.49, 361.45 259.88 M320.12 307.43 C332.72 292.93, 345.31 278.44, 361.45 259.88" stroke="#a5d8ff" stroke-width="2" fill="none"></path><path d="M32 0 M32 0 C126.32 0, 220.64 0, 319.5 0 M32 0 C132.99 0, 233.98 0, 319.5 0 M319.5 0 C340.83 0, 351.5 10.67, 351.5 32 M319.5 0 C340.83 0, 351.5 10.67, 351.5 32 M351.5 32 C351.5 90.31, 351.5 148.61, 351.5 274.9 M351.5 32 C351.5 119.92, 351.5 207.84, 351.5 274.9 M351.5 274.9 C351.5 296.24, 340.83 306.9, 319.5 306.9 M351.5 274.9 C351.5 296.24, 340.83 306.9, 319.5 306.9 M319.5 306.9 C252.67 306.9, 185.85 306.9, 32 306.9 M319.5 306.9 C250.56 306.9, 181.62 306.9, 32 306.9 M32 306.9 C10.67 306.9, 0 296.24, 0 274.9 M32 306.9 C10.67 306.9, 0 296.24, 0 274.9 M0 274.9 C0 204.76, 0 134.63, 0 32 M0 274.9 C0 218.75, 0 162.59, 0 32 M0 32 C0 10.67, 10.67 0, 32 0 M0 32 C0 10.67, 10.67 0, 32 0" stroke="#1e1e1e" stroke-width="4" fill="none"></path></g><g transform="translate(56.121744080781355 637.089501418639) rotate(0 146.40209953321028 112.41543341336182)"><text x="146.40209953321022" y="0" font-family="Cascadia, Segoe UI Emoji" font-size="62.45301856297864px" fill="#1e1e1e" text-anchor="middle" style="white-space: pre;" direction="ltr" dominant-baseline="text-before-edge">T object</text><text x="146.40209953321022" y="74.94362227557437" font-family="Cascadia, Segoe UI Emoji" font-size="62.45301856297864px" fill="#1e1e1e" text-anchor="middle" style="white-space: pre;" direction="ltr" dominant-baseline="text-before-edge"></text><text x="146.40209953321022" y="149.88724455114874" font-family="Cascadia, Segoe UI Emoji" font-size="62.45301856297864px" fill="#1e1e1e" text-anchor="middle" style="white-space: pre;" direction="ltr" dominant-baseline="text-before-edge">#1</text></g><g transform="translate(24.33333333333576 354.54889165781424) rotate(0 227 58.11777500885364)"><text x="227" y="0" font-family="Cascadia, Segoe UI Emoji" font-size="96.86295834809025px" fill="#868e96" text-anchor="middle" style="white-space: pre;" direction="ltr" dominant-baseline="text-before-edge">t_buffer</text></g><g transform="translate(23.33333333333576 928.6955876557367) rotate(0 345.5 58.971079010931135)"><text x="345.5" y="0" font-family="Cascadia, Segoe UI Emoji" font-size="98.285131684885px" fill="#868e96" text-anchor="middle" style="white-space: pre;" direction="ltr" dominant-baseline="text-before-edge">t_buffer_new</text></g></svg>