<svg version="1.1" xmlns="http://www.w3.org/2000/svg" viewBox="0 0 2378.788653651267 1344.1432049867326" width="7136.365960953801" height="4032.429614960198">
  <!-- svg-source:excalidraw -->
  
  <defs>
    <style class="style-fonts">
      @font-face {
        font-family: "Virgil";
        src: url("https://excalidraw.com/Virgil.woff2");
      }
      @font-face {
        font-family: "Cascadia";
        src: url("https://excalidraw.com/Cascadia.woff2");
      }
    </style>
    
  </defs>
  <g stroke-linecap="round" transform="translate(10 10) rotate(0 1179.3943268256335 662.0716024933663)"><path d="M32 0 M32 0 C554.95 0, 1077.9 0, 2326.79 0 M2326.79 0 C2348.12 0, 2358.79 10.67, 2358.79 32 M2358.79 32 C2358.79 374.09, 2358.79 716.18, 2358.79 1292.14 M2358.79 1292.14 C2358.79 1313.48, 2348.12 1324.14, 2326.79 1324.14 M2326.79 1324.14 C1712.74 1324.14, 1098.7 1324.14, 32 1324.14 M32 1324.14 C10.67 1324.14, 0 1313.48, 0 1292.14 M0 1292.14 C0 1036.6, 0 781.06, 0 32 M0 32 C0 10.67, 10.67 0, 32 0" stroke="#868e96" stroke-width="4.5" fill="none" stroke-dasharray="1.5 10"></path></g><g stroke-linecap="round" transform="translate(143.41771486198923 889.5288167281833) rotate(0 1051.165921084296 163.1840947813307)"><path d="M7.86 8.16 C7.86 8.16, 7.86 8.16, 7.86 8.16 M7.86 8.16 C7.86 8.16, 7.86 8.16, 7.86 8.16 M4.85 36.01 C12.05 27.73, 19.24 19.45, 34.37 2.05 M4.85 36.01 C14.7 24.68, 24.55 13.35, 34.37 2.05 M5.11 60.1 C23.5 38.95, 41.88 17.8, 55.63 1.98 M5.11 60.1 C16.11 47.45, 27.1 34.81, 55.63 1.98 M4.72 84.93 C27.76 58.43, 50.81 31.92, 76.89 1.91 M4.72 84.93 C27.79 58.4, 50.86 31.86, 76.89 1.91 M4.99 109.01 C40.68 67.95, 76.38 26.89, 98.15 1.85 M4.99 109.01 C30.17 80.05, 55.35 51.08, 98.15 1.85 M5.26 133.1 C48.09 83.82, 90.93 34.54, 119.41 1.78 M5.26 133.1 C49 82.78, 92.74 32.46, 119.41 1.78 M4.87 157.93 C49.34 106.77, 93.82 55.6, 140.67 1.71 M4.87 157.93 C50.95 104.92, 97.04 51.9, 140.67 1.71 M5.13 182.01 C44.13 137.16, 83.12 92.3, 161.28 2.39 M5.13 182.01 C63.18 115.24, 121.23 48.46, 161.28 2.39 M4.74 206.85 C74.99 126.04, 145.24 45.22, 182.54 2.32 M4.74 206.85 C66.9 135.35, 129.06 63.84, 182.54 2.32 M5.01 230.93 C49.94 179.24, 94.88 127.55, 203.8 2.26 M5.01 230.93 C77.1 148, 149.19 65.07, 203.8 2.26 M5.28 255.01 C66.7 184.35, 128.13 113.69, 225.06 2.19 M5.28 255.01 C50.47 203.02, 95.67 151.03, 225.06 2.19 M4.89 279.85 C85.24 187.41, 165.6 94.98, 246.32 2.12 M4.89 279.85 C92.46 179.11, 180.03 78.37, 246.32 2.12 M4.5 304.69 C75.37 223.16, 146.23 141.64, 267.58 2.05 M4.5 304.69 C81.24 216.4, 157.99 128.12, 267.58 2.05 M11.32 321.22 C79.05 243.31, 146.77 165.4, 288.84 1.98 M11.32 321.22 C69.21 254.63, 127.09 188.04, 288.84 1.98 M26.68 327.94 C125.57 214.18, 224.46 100.43, 310.1 1.91 M26.68 327.94 C132.04 206.74, 237.4 85.53, 310.1 1.91 M47.94 327.88 C155.34 204.33, 262.74 80.78, 331.36 1.84 M47.94 327.88 C123.48 240.98, 199.01 154.09, 331.36 1.84 M69.2 327.81 C153.52 230.81, 237.84 133.8, 352.62 1.77 M69.2 327.81 C151.22 233.45, 233.24 139.1, 352.62 1.77 M90.46 327.74 C147.61 262, 204.76 196.25, 373.22 2.46 M90.46 327.74 C184.48 219.58, 278.5 111.42, 373.22 2.46 M111.72 327.67 C221.97 200.84, 332.22 74.01, 394.48 2.39 M111.72 327.67 C187.49 240.51, 263.25 153.35, 394.48 2.39 M132.98 327.6 C224.43 222.4, 315.88 117.19, 415.74 2.32 M132.98 327.6 C226.91 219.55, 320.84 111.49, 415.74 2.32 M154.24 327.53 C237.97 231.21, 321.71 134.88, 437 2.25 M154.24 327.53 C213.74 259.09, 273.24 190.64, 437 2.25 M174.84 328.22 C287.67 198.43, 400.49 68.64, 458.26 2.18 M174.84 328.22 C237.46 256.19, 300.07 184.16, 458.26 2.18 M196.1 328.15 C304.24 203.75, 412.38 79.35, 479.52 2.11 M196.1 328.15 C309.33 197.9, 422.55 67.65, 479.52 2.11 M217.36 328.08 C281.59 254.2, 345.82 180.31, 500.78 2.04 M217.36 328.08 C297.79 235.57, 378.21 143.05, 500.78 2.04 M238.62 328.01 C297.24 260.58, 355.86 193.15, 522.04 1.98 M238.62 328.01 C351.3 198.39, 463.98 68.77, 522.04 1.98 M259.89 327.94 C332.11 244.86, 404.33 161.78, 543.3 1.91 M259.89 327.94 C326.6 251.2, 393.31 174.45, 543.3 1.91 M281.15 327.87 C345.75 253.55, 410.35 179.24, 564.56 1.84 M281.15 327.87 C379.4 214.84, 477.65 101.82, 564.56 1.84 M302.41 327.8 C379.84 238.72, 457.28 149.64, 585.17 2.52 M302.41 327.8 C392.95 223.64, 483.5 119.47, 585.17 2.52 M323.67 327.73 C407.42 231.39, 491.17 135.04, 606.43 2.45 M323.67 327.73 C399.61 240.37, 475.56 153, 606.43 2.45 M344.93 327.66 C435.46 223.52, 525.99 119.37, 627.69 2.38 M344.93 327.66 C404.98 258.58, 465.04 189.49, 627.69 2.38 M366.19 327.6 C467.47 211.08, 568.76 94.56, 648.95 2.32 M366.19 327.6 C469.32 208.95, 572.46 90.3, 648.95 2.32 M386.79 328.28 C493.22 205.85, 599.65 83.41, 670.21 2.25 M386.79 328.28 C476.25 225.37, 565.71 122.45, 670.21 2.25 M408.05 328.21 C508.91 212.19, 609.76 96.17, 691.47 2.18 M408.05 328.21 C497.69 225.09, 587.33 121.97, 691.47 2.18 M429.31 328.14 C504.98 241.09, 580.65 154.05, 712.73 2.11 M429.31 328.14 C503.99 242.24, 578.66 156.34, 712.73 2.11 M450.57 328.07 C543.08 221.65, 635.59 115.23, 733.99 2.04 M450.57 328.07 C559.41 202.87, 668.24 77.67, 733.99 2.04 M471.83 328.01 C575.83 208.36, 679.84 88.72, 755.25 1.97 M471.83 328.01 C533.91 256.59, 595.99 185.18, 755.25 1.97 M493.09 327.94 C578.8 229.34, 664.51 130.75, 776.51 1.9 M493.09 327.94 C580.5 227.38, 667.92 126.82, 776.51 1.9 M514.35 327.87 C597.24 232.52, 680.12 137.17, 797.11 2.59 M514.35 327.87 C620.43 205.83, 726.52 83.8, 797.11 2.59 M535.61 327.8 C595.47 258.94, 655.33 190.08, 818.37 2.52 M535.61 327.8 C594.91 259.58, 654.21 191.36, 818.37 2.52 M556.87 327.73 C615.83 259.91, 674.79 192.08, 839.63 2.45 M556.87 327.73 C628.81 244.98, 700.74 162.22, 839.63 2.45 M578.13 327.66 C684.86 204.89, 791.58 82.12, 860.89 2.38 M578.13 327.66 C659.5 234.05, 740.87 140.45, 860.89 2.38 M598.74 328.35 C689.83 223.55, 780.93 118.75, 882.15 2.31 M598.74 328.35 C657.96 260.21, 717.19 192.08, 882.15 2.31 M620 328.28 C681.82 257.16, 743.64 186.04, 903.41 2.24 M620 328.28 C711.3 223.25, 802.6 118.21, 903.41 2.24 M641.26 328.21 C750.52 202.51, 859.78 76.82, 924.67 2.17 M641.26 328.21 C732.17 223.62, 823.09 119.03, 924.67 2.17 M662.52 328.14 C761.02 214.82, 859.52 101.51, 945.93 2.1 M662.52 328.14 C767.98 206.82, 873.44 85.5, 945.93 2.1 M683.78 328.07 C797.07 197.74, 910.37 67.41, 967.19 2.04 M683.78 328.07 C769.21 229.79, 854.64 131.52, 967.19 2.04 M705.04 328 C782.93 238.4, 860.82 148.79, 988.45 1.97 M705.04 328 C783.42 237.83, 861.81 147.65, 988.45 1.97 M726.3 327.93 C813.49 227.63, 900.68 127.32, 1009.06 2.65 M726.3 327.93 C837.2 200.36, 948.09 72.78, 1009.06 2.65 M747.56 327.86 C833.62 228.86, 919.68 129.86, 1030.32 2.58 M747.56 327.86 C847.71 212.65, 947.86 97.44, 1030.32 2.58 M768.82 327.79 C853.91 229.9, 939.01 132.01, 1051.58 2.51 M768.82 327.79 C843.48 241.9, 918.15 156.01, 1051.58 2.51 M790.08 327.73 C856.78 250.99, 923.48 174.26, 1072.84 2.45 M790.08 327.73 C875.83 229.08, 961.59 130.43, 1072.84 2.45 M811.34 327.66 C899.66 226.05, 987.99 124.44, 1094.1 2.38 M811.34 327.66 C901.16 224.32, 990.99 120.99, 1094.1 2.38 M831.94 328.34 C906.9 242.12, 981.85 155.89, 1115.36 2.31 M831.94 328.34 C917.48 229.94, 1003.02 131.54, 1115.36 2.31 M853.2 328.27 C944.71 223.01, 1036.21 117.75, 1136.62 2.24 M853.2 328.27 C961.86 203.28, 1070.52 78.28, 1136.62 2.24 M874.46 328.2 C953.94 236.77, 1033.42 145.34, 1157.88 2.17 M874.46 328.2 C961.62 227.94, 1048.77 127.68, 1157.88 2.17 M895.72 328.14 C968.82 244.05, 1041.91 159.96, 1179.14 2.1 M895.72 328.14 C958.42 256.01, 1021.12 183.88, 1179.14 2.1 M916.98 328.07 C1021.69 207.61, 1126.41 87.15, 1200.4 2.03 M916.98 328.07 C1018.37 211.43, 1119.76 94.79, 1200.4 2.03 M938.24 328 C1019.78 234.2, 1101.31 140.41, 1221 2.72 M938.24 328 C1000.71 256.14, 1063.18 184.28, 1221 2.72 M959.5 327.93 C1047.88 226.27, 1136.25 124.61, 1242.26 2.65 M959.5 327.93 C1035.73 240.24, 1111.95 152.56, 1242.26 2.65 M980.76 327.86 C1074.16 220.41, 1167.56 112.97, 1263.52 2.58 M980.76 327.86 C1066.12 229.66, 1151.48 131.47, 1263.52 2.58 M1002.02 327.79 C1082.88 234.78, 1163.73 141.76, 1284.78 2.51 M1002.02 327.79 C1098.09 217.28, 1194.16 106.76, 1284.78 2.51 M1023.28 327.72 C1120.91 215.41, 1218.54 103.11, 1306.04 2.44 M1023.28 327.72 C1083.57 258.37, 1143.85 189.02, 1306.04 2.44 M1043.89 328.41 C1146.29 210.61, 1248.69 92.81, 1327.3 2.37 M1043.89 328.41 C1113.25 248.62, 1182.6 168.83, 1327.3 2.37 M1065.15 328.34 C1133.15 250.1, 1201.16 171.87, 1348.57 2.3 M1065.15 328.34 C1131.37 252.16, 1197.6 175.97, 1348.57 2.3 M1086.41 328.27 C1144.66 261.26, 1202.91 194.25, 1369.83 2.23 M1086.41 328.27 C1182.94 217.22, 1279.48 106.17, 1369.83 2.23 M1107.67 328.2 C1211.53 208.72, 1315.39 89.24, 1391.09 2.17 M1107.67 328.2 C1184.69 239.6, 1261.7 151, 1391.09 2.17 M1128.93 328.13 C1236.87 203.96, 1344.81 79.79, 1412.35 2.1 M1128.93 328.13 C1231.87 209.7, 1334.82 91.28, 1412.35 2.1 M1150.19 328.06 C1213.15 255.63, 1276.12 183.19, 1433.61 2.03 M1150.19 328.06 C1253.81 208.86, 1357.42 89.67, 1433.61 2.03 M1171.45 327.99 C1240.67 248.36, 1309.9 168.73, 1454.21 2.71 M1171.45 327.99 C1264.22 221.27, 1356.99 114.55, 1454.21 2.71 M1192.71 327.92 C1291.61 214.15, 1390.52 100.37, 1475.47 2.64 M1192.71 327.92 C1301.03 203.32, 1409.35 78.71, 1475.47 2.64 M1213.97 327.85 C1284.74 246.45, 1355.5 165.04, 1496.73 2.58 M1213.97 327.85 C1279.11 252.92, 1344.26 177.98, 1496.73 2.58 M1235.23 327.79 C1302.33 250.59, 1369.43 173.4, 1517.99 2.51 M1235.23 327.79 C1326.2 223.14, 1417.16 118.49, 1517.99 2.51 M1255.83 328.47 C1325.38 248.46, 1394.93 168.46, 1539.25 2.44 M1255.83 328.47 C1353.61 216, 1451.38 103.52, 1539.25 2.44 M1277.09 328.4 C1338.9 257.3, 1400.71 186.2, 1560.51 2.37 M1277.09 328.4 C1336.25 260.35, 1395.4 192.3, 1560.51 2.37 M1298.35 328.33 C1404.26 206.51, 1510.16 84.68, 1581.77 2.3 M1298.35 328.33 C1390.87 221.9, 1483.39 115.47, 1581.77 2.3 M1319.61 328.26 C1424.69 207.39, 1529.76 86.52, 1603.03 2.23 M1319.61 328.26 C1376.59 262.73, 1433.56 197.19, 1603.03 2.23 M1340.87 328.2 C1446.84 206.3, 1552.8 84.4, 1624.29 2.16 M1340.87 328.2 C1428.46 227.44, 1516.05 126.68, 1624.29 2.16 M1362.13 328.13 C1424.27 256.65, 1486.4 185.18, 1645.55 2.09 M1362.13 328.13 C1442.96 235.14, 1523.79 142.16, 1645.55 2.09 M1383.39 328.06 C1462.61 236.94, 1541.82 145.81, 1666.16 2.78 M1383.39 328.06 C1441.84 260.83, 1500.28 193.59, 1666.16 2.78 M1404.65 327.99 C1470.48 252.26, 1536.31 176.54, 1687.42 2.71 M1404.65 327.99 C1511.41 205.18, 1618.17 82.37, 1687.42 2.71 M1425.91 327.92 C1516.92 223.23, 1607.93 118.53, 1708.68 2.64 M1425.91 327.92 C1486.15 258.62, 1546.39 189.33, 1708.68 2.64 M1447.17 327.85 C1539.37 221.8, 1631.56 115.74, 1729.94 2.57 M1447.17 327.85 C1510.52 254.98, 1573.87 182.1, 1729.94 2.57 M1467.78 328.54 C1531.2 255.58, 1594.63 182.62, 1751.2 2.5 M1467.78 328.54 C1553.2 230.27, 1638.62 132.01, 1751.2 2.5 M1489.04 328.47 C1590.74 211.47, 1692.44 94.48, 1772.46 2.43 M1489.04 328.47 C1574.16 230.55, 1659.27 132.64, 1772.46 2.43 M1510.3 328.4 C1597.01 228.65, 1683.72 128.9, 1793.72 2.36 M1510.3 328.4 C1602.34 222.52, 1694.38 116.63, 1793.72 2.36 M1531.56 328.33 C1598.56 251.26, 1665.56 174.18, 1814.98 2.29 M1531.56 328.33 C1619.92 226.69, 1708.27 125.05, 1814.98 2.29 M1552.82 328.26 C1661.57 203.16, 1770.32 78.06, 1836.24 2.23 M1552.82 328.26 C1642.33 225.29, 1731.84 122.32, 1836.24 2.23 M1574.08 328.19 C1633.38 259.98, 1692.67 191.76, 1857.5 2.16 M1574.08 328.19 C1657.22 232.55, 1740.37 136.9, 1857.5 2.16 M1595.34 328.12 C1671.05 241.03, 1746.75 153.94, 1878.1 2.84 M1595.34 328.12 C1704.76 202.25, 1814.18 76.37, 1878.1 2.84 M1616.6 328.05 C1722.11 206.68, 1827.62 85.3, 1899.36 2.77 M1616.6 328.05 C1704.22 227.26, 1791.84 126.46, 1899.36 2.77 M1637.86 327.98 C1712.51 242.1, 1787.17 156.23, 1920.62 2.7 M1637.86 327.98 C1702.97 253.08, 1768.08 178.18, 1920.62 2.7 M1659.12 327.92 C1763.54 207.79, 1867.96 87.67, 1941.88 2.64 M1659.12 327.92 C1759.7 212.21, 1860.27 96.51, 1941.88 2.64 M1679.72 328.6 C1757.34 239.32, 1834.95 150.04, 1963.14 2.57 M1679.72 328.6 C1741.35 257.7, 1802.98 186.81, 1963.14 2.57 M1700.98 328.53 C1781.51 235.9, 1862.04 143.26, 1984.4 2.5 M1700.98 328.53 C1773.24 245.42, 1845.49 162.3, 1984.4 2.5 M1722.25 328.46 C1805.52 232.67, 1888.79 136.88, 2005.66 2.43 M1722.25 328.46 C1807.26 230.66, 1892.28 132.86, 2005.66 2.43 M1743.51 328.39 C1842.53 214.48, 1941.56 100.56, 2026.92 2.36 M1743.51 328.39 C1845.92 210.58, 1948.33 92.77, 2026.92 2.36 M1764.77 328.33 C1854.28 225.35, 1943.8 122.37, 2048.18 2.29 M1764.77 328.33 C1852.33 227.59, 1939.9 126.85, 2048.18 2.29 M1786.03 328.26 C1854.67 249.29, 1923.31 170.33, 2069.44 2.22 M1786.03 328.26 C1859.27 244, 1932.51 159.74, 2069.44 2.22 M1807.29 328.19 C1871.08 254.8, 1934.87 181.42, 2088.08 5.17 M1807.29 328.19 C1878.96 245.74, 1950.63 163.29, 2088.08 5.17 M1828.55 328.12 C1933.34 207.57, 2038.13 87.02, 2100.81 14.91 M1828.55 328.12 C1899.15 246.89, 1969.76 165.67, 2100.81 14.91 M1849.81 328.05 C1930.03 235.76, 2010.26 143.47, 2108.29 30.69 M1849.81 328.05 C1909.08 259.86, 1968.35 191.68, 2108.29 30.69 M1871.07 327.98 C1929.3 260.99, 1987.54 194, 2108.56 54.78 M1871.07 327.98 C1943.95 244.13, 2016.84 160.28, 2108.56 54.78 M1891.67 328.67 C1966.21 242.92, 2040.75 157.17, 2108.83 78.86 M1891.67 328.67 C1957.11 253.39, 2022.55 178.11, 2108.83 78.86 M1912.93 328.6 C1959.1 275.49, 2005.26 222.38, 2108.44 103.69 M1912.93 328.6 C1966.44 267.05, 2019.94 205.49, 2108.44 103.69 M1934.19 328.53 C1986.37 268.5, 2038.55 208.48, 2108.7 127.78 M1934.19 328.53 C1972.8 284.12, 2011.4 239.7, 2108.7 127.78 M1955.45 328.46 C1988.47 290.47, 2021.49 252.49, 2108.31 152.61 M1955.45 328.46 C1995.48 282.41, 2035.51 236.36, 2108.31 152.61 M1976.71 328.39 C2009.16 291.06, 2041.62 253.73, 2108.58 176.69 M1976.71 328.39 C2018.72 280.07, 2060.72 231.75, 2108.58 176.69 M1997.97 328.32 C2041.04 278.77, 2084.11 229.22, 2108.85 200.78 M1997.97 328.32 C2031.61 289.62, 2065.25 250.92, 2108.85 200.78 M2019.23 328.25 C2041.39 302.76, 2063.55 277.27, 2108.46 225.61 M2019.23 328.25 C2037.3 307.47, 2055.37 286.68, 2108.46 225.61 M2040.49 328.18 C2054.31 312.29, 2068.12 296.4, 2108.72 249.69 M2040.49 328.18 C2058.22 307.79, 2075.96 287.39, 2108.72 249.69 M2061.75 328.11 C2074.09 313.92, 2086.42 299.73, 2108.33 274.53 M2061.75 328.11 C2073.96 314.07, 2086.17 300.03, 2108.33 274.53 M2085.64 325.03 C2090.27 319.7, 2094.9 314.37, 2104.01 303.89 M2085.64 325.03 C2091.56 318.21, 2097.49 311.39, 2104.01 303.89" stroke="#868e96" stroke-width="2" fill="none"></path><path d="M32 0 M32 0 C541.58 0, 1051.15 0, 2070.33 0 M32 0 C777.87 0, 1523.74 0, 2070.33 0 M2070.33 0 C2091.67 0, 2102.33 10.67, 2102.33 32 M2070.33 0 C2091.67 0, 2102.33 10.67, 2102.33 32 M2102.33 32 C2102.33 113.7, 2102.33 195.4, 2102.33 294.37 M2102.33 32 C2102.33 101.18, 2102.33 170.37, 2102.33 294.37 M2102.33 294.37 C2102.33 315.7, 2091.67 326.37, 2070.33 326.37 M2102.33 294.37 C2102.33 315.7, 2091.67 326.37, 2070.33 326.37 M2070.33 326.37 C1366.29 326.37, 662.24 326.37, 32 326.37 M2070.33 326.37 C1638.23 326.37, 1206.13 326.37, 32 326.37 M32 326.37 C10.67 326.37, 0 315.7, 0 294.37 M32 326.37 C10.67 326.37, 0 315.7, 0 294.37 M0 294.37 C0 210.86, 0 127.35, 0 32 M0 294.37 C0 207.78, 0 121.19, 0 32 M0 32 C0 10.67, 10.67 0, 32 0 M0 32 C0 10.67, 10.67 0, 32 0" stroke="#1e1e1e" stroke-width="4" fill="none"></path></g><g transform="translate(160.52493308572957 762.0467688682693) rotate(0 345.5 58.971079010931135)"><text x="345.5" y="0" font-family="Cascadia, Segoe UI Emoji" font-size="98.285131684885px" fill="#1e1e1e" text-anchor="middle" style="white-space: pre;" direction="ltr" dominant-baseline="text-before-edge">t_buffer_new</text></g><g transform="translate(160.8660713014906 171.97195140690746) rotate(0 234.53334045410156 60.051208331518865)"><text x="234.53334045410156" y="0" font-family="Cascadia, Segoe UI Emoji" font-size="100.08534721919722px" fill="#1e1e1e" text-anchor="middle" style="white-space: pre;" direction="ltr" dominant-baseline="text-before-edge">t_buffer</text></g><g stroke-linecap="round" transform="translate(1277.9191031529845 294.33199389140646) rotate(0 186.89460427947233 163.1840947813307)"><path d="M7.86 8.16 C7.86 8.16, 7.86 8.16, 7.86 8.16 M7.86 8.16 C7.86 8.16, 7.86 8.16, 7.86 8.16 M8.78 31.49 C16.2 22.95, 23.62 14.42, 34.37 2.05 M8.78 31.49 C14.45 24.97, 20.11 18.46, 34.37 2.05 M8.39 56.32 C24.75 37.51, 41.1 18.69, 55.63 1.98 M8.39 56.32 C22.78 39.77, 37.17 23.22, 55.63 1.98 M8.66 80.4 C25.4 61.14, 42.15 41.88, 76.89 1.91 M8.66 80.4 C30.04 55.8, 51.43 31.2, 76.89 1.91 M8.27 105.24 C28.94 81.46, 49.61 57.69, 98.15 1.85 M8.27 105.24 C37.28 71.86, 66.3 38.49, 98.15 1.85 M8.54 129.32 C34.71 99.22, 60.87 69.12, 119.41 1.78 M8.54 129.32 C52.24 79.05, 95.94 28.77, 119.41 1.78 M8.15 154.16 C42.43 114.72, 76.71 75.28, 140.67 1.71 M8.15 154.16 C55.79 99.36, 103.42 44.56, 140.67 1.71 M8.41 178.24 C41.71 139.94, 75 101.64, 161.28 2.39 M8.41 178.24 C55.14 124.49, 101.86 70.74, 161.28 2.39 M8.68 202.32 C64.93 137.61, 121.18 72.9, 182.54 2.32 M8.68 202.32 C71.1 130.52, 133.52 58.71, 182.54 2.32 M8.29 227.16 C75.16 150.23, 142.03 73.31, 203.8 2.26 M8.29 227.16 C80.56 144.02, 152.82 60.89, 203.8 2.26 M8.56 251.24 C86.71 161.33, 164.87 71.42, 225.06 2.19 M8.56 251.24 C72.56 177.62, 136.56 103.99, 225.06 2.19 M8.17 276.08 C68.97 206.12, 129.78 136.17, 246.32 2.12 M8.17 276.08 C76.65 197.3, 145.13 118.52, 246.32 2.12 M4.5 304.69 C71 228.18, 137.51 151.67, 267.58 2.05 M4.5 304.69 C76.31 222.08, 148.12 139.47, 267.58 2.05 M11.32 321.22 C122.22 193.65, 233.11 66.08, 288.84 1.98 M11.32 321.22 C78.07 244.43, 144.83 167.64, 288.84 1.98 M26.68 327.94 C119.08 221.65, 211.48 115.35, 310.1 1.91 M26.68 327.94 C90.33 254.73, 153.98 181.51, 310.1 1.91 M42.03 334.67 C132.33 230.8, 222.62 126.93, 331.36 1.84 M42.03 334.67 C154.69 205.07, 267.35 75.47, 331.36 1.84 M63.29 334.6 C136.35 250.56, 209.4 166.52, 351.96 2.53 M63.29 334.6 C124.96 263.67, 186.62 192.74, 351.96 2.53 M83.9 335.28 C176.09 229.23, 268.29 123.17, 367.32 9.25 M83.9 335.28 C190.07 213.15, 296.24 91.01, 367.32 9.25 M105.16 335.22 C199.74 226.41, 294.32 117.61, 374.14 25.79 M105.16 335.22 C194.7 232.21, 284.25 129.2, 374.14 25.79 M126.42 335.15 C194.94 256.32, 263.47 177.49, 382.94 40.06 M126.42 335.15 C181.93 271.29, 237.45 207.43, 382.94 40.06 M147.68 335.08 C214.74 257.94, 281.79 180.8, 383.2 64.14 M147.68 335.08 C195.96 279.54, 244.24 224, 383.2 64.14 M168.94 335.01 C246.09 246.26, 323.24 157.5, 382.82 88.97 M168.94 335.01 C214.85 282.2, 260.76 229.38, 382.82 88.97 M190.2 334.94 C259.76 254.92, 329.32 174.9, 383.08 113.06 M190.2 334.94 C244.61 272.35, 299.02 209.76, 383.08 113.06 M211.46 334.87 C267.04 270.93, 322.62 207, 382.69 137.89 M211.46 334.87 C254.08 285.84, 296.7 236.81, 382.69 137.89 M232.72 334.8 C267.74 294.52, 302.75 254.24, 382.96 161.97 M232.72 334.8 C284.72 274.98, 336.72 215.16, 382.96 161.97 M253.98 334.73 C289.2 294.22, 324.42 253.7, 383.22 186.06 M253.98 334.73 C289.97 293.34, 325.95 251.94, 383.22 186.06 M275.24 334.66 C296.86 309.8, 318.48 284.93, 382.83 210.89 M275.24 334.66 C297.69 308.84, 320.14 283.01, 382.83 210.89 M296.5 334.6 C315 313.32, 333.49 292.04, 383.1 234.97 M296.5 334.6 C317.47 310.47, 338.44 286.35, 383.1 234.97 M317.11 335.28 C337.34 312, 357.58 288.72, 382.71 259.81 M317.11 335.28 C330.95 319.35, 344.8 303.43, 382.71 259.81 M344.27 328.42 C354.67 316.46, 365.07 304.5, 373.79 294.46 M344.27 328.42 C354.86 316.24, 365.45 304.05, 373.79 294.46" stroke="#a5d8ff" stroke-width="2" fill="none"></path><path d="M32 0 M32 0 C108 0, 184 0, 341.79 0 M32 0 C132.43 0, 232.86 0, 341.79 0 M341.79 0 C363.12 0, 373.79 10.67, 373.79 32 M341.79 0 C363.12 0, 373.79 10.67, 373.79 32 M373.79 32 C373.79 107.75, 373.79 183.49, 373.79 294.37 M373.79 32 C373.79 129.45, 373.79 226.89, 373.79 294.37 M373.79 294.37 C373.79 315.7, 363.12 326.37, 341.79 326.37 M373.79 294.37 C373.79 315.7, 363.12 326.37, 341.79 326.37 M341.79 326.37 C274.83 326.37, 207.88 326.37, 32 326.37 M341.79 326.37 C228.02 326.37, 114.26 326.37, 32 326.37 M32 326.37 C10.67 326.37, 0 315.7, 0 294.37 M32 326.37 C10.67 326.37, 0 315.7, 0 294.37 M0 294.37 C0 235.68, 0 176.98, 0 32 M0 294.37 C0 189.55, 0 84.72, 0 32 M0 32 C0 10.67, 10.67 0, 32 0 M0 32 C0 10.67, 10.67 0, 32 0" stroke="#1e1e1e" stroke-width="4" fill="none"></path></g><g transform="translate(1310.192472442035 341.0698600480973) rotate(0 155.6666717529297 119.54500064181957)"><text x="155.6666717529297" y="0" font-family="Cascadia, Segoe UI Emoji" font-size="66.41388924545572px" fill="#1e1e1e" text-anchor="middle" style="white-space: pre;" direction="ltr" dominant-baseline="text-before-edge">T object</text><text x="155.6666717529297" y="79.69666709454687" font-family="Cascadia, Segoe UI Emoji" font-size="66.41388924545572px" fill="#1e1e1e" text-anchor="middle" style="white-space: pre;" direction="ltr" dominant-baseline="text-before-edge"></text><text x="155.6666717529297" y="159.39333418909374" font-family="Cascadia, Segoe UI Emoji" font-size="66.41388924545572px" fill="#1e1e1e" text-anchor="middle" style="white-space: pre;" direction="ltr" dominant-baseline="text-before-edge">#4</text></g><g stroke-linecap="round" transform="translate(900.2158793706658 295.1772883476515) rotate(0 186.89460427947233 163.1840947813307)"><path d="M7.86 8.16 C7.86 8.16, 7.86 8.16, 7.86 8.16 M7.86 8.16 C7.86 8.16, 7.86 8.16, 7.86 8.16 M8.78 31.49 C17.69 21.24, 26.59 11, 34.37 2.05 M8.78 31.49 C15.86 23.35, 22.93 15.22, 34.37 2.05 M8.39 56.32 C25.76 36.34, 43.13 16.37, 55.63 1.98 M8.39 56.32 C26.92 35.01, 45.45 13.7, 55.63 1.98 M8.66 80.4 C22.47 64.52, 36.28 48.63, 76.89 1.91 M8.66 80.4 C24.12 62.63, 39.57 44.85, 76.89 1.91 M8.27 105.24 C42.79 65.53, 77.3 25.83, 98.15 1.85 M8.27 105.24 C27.47 83.15, 46.67 61.07, 98.15 1.85 M8.54 129.32 C38.01 95.42, 67.47 61.52, 119.41 1.78 M8.54 129.32 C52.45 78.81, 96.36 28.29, 119.41 1.78 M8.15 154.16 C46.35 110.21, 84.55 66.27, 140.67 1.71 M8.15 154.16 C49.08 107.08, 90 59.99, 140.67 1.71 M8.41 178.24 C61.12 117.6, 113.84 56.97, 161.28 2.39 M8.41 178.24 C64.03 114.27, 119.64 50.29, 161.28 2.39 M8.68 202.32 C51.68 152.86, 94.67 103.4, 182.54 2.32 M8.68 202.32 C66.76 135.51, 124.83 68.71, 182.54 2.32 M8.29 227.16 C65.3 161.57, 122.32 95.99, 203.8 2.26 M8.29 227.16 C74.42 151.09, 140.55 75.02, 203.8 2.26 M8.56 251.24 C78.57 170.7, 148.58 90.16, 225.06 2.19 M8.56 251.24 C78.93 170.28, 149.3 89.33, 225.06 2.19 M8.17 276.08 C80.46 192.92, 152.75 109.75, 246.32 2.12 M8.17 276.08 C69.49 205.53, 130.82 134.98, 246.32 2.12 M4.5 304.69 C102.9 191.49, 201.3 78.29, 267.58 2.05 M4.5 304.69 C109.03 184.43, 213.57 64.17, 267.58 2.05 M11.32 321.22 C73.3 249.92, 135.28 178.63, 288.84 1.98 M11.32 321.22 C91.65 228.81, 171.98 136.4, 288.84 1.98 M26.68 327.94 C126.48 213.14, 226.28 98.33, 310.1 1.91 M26.68 327.94 C96.44 247.69, 166.21 167.43, 310.1 1.91 M42.03 334.67 C111.17 255.13, 180.31 175.6, 331.36 1.84 M42.03 334.67 C137.98 224.29, 233.93 113.91, 331.36 1.84 M63.29 334.6 C122.71 266.25, 182.12 197.9, 351.96 2.53 M63.29 334.6 C134.4 252.8, 205.51 171, 351.96 2.53 M83.9 335.28 C192.67 210.16, 301.44 85.04, 367.32 9.25 M83.9 335.28 C172.11 233.81, 260.33 132.33, 367.32 9.25 M105.16 335.22 C207 218.07, 308.83 100.92, 374.14 25.79 M105.16 335.22 C199.96 226.17, 294.75 117.11, 374.14 25.79 M126.42 335.15 C187.06 265.39, 247.7 195.63, 382.94 40.06 M126.42 335.15 C199.58 250.98, 272.74 166.82, 382.94 40.06 M147.68 335.08 C220.52 251.29, 293.35 167.5, 383.2 64.14 M147.68 335.08 C241.59 227.05, 335.49 119.02, 383.2 64.14 M168.94 335.01 C216.16 280.68, 263.39 226.36, 382.82 88.97 M168.94 335.01 C241.68 251.33, 314.43 167.65, 382.82 88.97 M190.2 334.94 C254.22 261.3, 318.23 187.66, 383.08 113.06 M190.2 334.94 C267.18 246.38, 344.17 157.82, 383.08 113.06 M211.46 334.87 C263.9 274.55, 316.33 214.23, 382.69 137.89 M211.46 334.87 C261.5 277.3, 311.55 219.73, 382.69 137.89 M232.72 334.8 C289.2 269.83, 345.68 204.86, 382.96 161.97 M232.72 334.8 C269.87 292.06, 307.03 249.32, 382.96 161.97 M253.98 334.73 C293.69 289.05, 333.4 243.37, 383.22 186.06 M253.98 334.73 C304.08 277.11, 354.17 219.48, 383.22 186.06 M275.24 334.66 C303.87 301.73, 332.51 268.79, 382.83 210.89 M275.24 334.66 C298.54 307.86, 321.84 281.06, 382.83 210.89 M296.5 334.6 C329.74 296.36, 362.97 258.13, 383.1 234.97 M296.5 334.6 C313.98 314.49, 331.45 294.39, 383.1 234.97 M317.11 335.28 C331.7 318.49, 346.3 301.7, 382.71 259.81 M317.11 335.28 C334.15 315.67, 351.2 296.06, 382.71 259.81 M344.27 328.42 C354.34 316.84, 364.4 305.26, 373.79 294.46 M344.27 328.42 C354.31 316.87, 364.36 305.31, 373.79 294.46" stroke="#a5d8ff" stroke-width="2" fill="none"></path><path d="M32 0 M32 0 C143.64 0, 255.28 0, 341.79 0 M32 0 C128.01 0, 224.02 0, 341.79 0 M341.79 0 C363.12 0, 373.79 10.67, 373.79 32 M341.79 0 C363.12 0, 373.79 10.67, 373.79 32 M373.79 32 C373.79 96.63, 373.79 161.26, 373.79 294.37 M373.79 32 C373.79 97.27, 373.79 162.54, 373.79 294.37 M373.79 294.37 C373.79 315.7, 363.12 326.37, 341.79 326.37 M373.79 294.37 C373.79 315.7, 363.12 326.37, 341.79 326.37 M341.79 326.37 C232.38 326.37, 122.96 326.37, 32 326.37 M341.79 326.37 C272.05 326.37, 202.31 326.37, 32 326.37 M32 326.37 C10.67 326.37, 0 315.7, 0 294.37 M32 326.37 C10.67 326.37, 0 315.7, 0 294.37 M0 294.37 C0 230.17, 0 165.98, 0 32 M0 294.37 C0 228.42, 0 162.48, 0 32 M0 32 C0 10.67, 10.67 0, 32 0 M0 32 C0 10.67, 10.67 0, 32 0" stroke="#1e1e1e" stroke-width="4" fill="none"></path></g><g transform="translate(932.4892486597164 341.9151545043569) rotate(0 155.6666717529297 119.54500064181957)"><text x="155.6666717529297" y="0" font-family="Cascadia, Segoe UI Emoji" font-size="66.41388924545572px" fill="#1e1e1e" text-anchor="middle" style="white-space: pre;" direction="ltr" dominant-baseline="text-before-edge">T object</text><text x="155.6666717529297" y="79.69666709454687" font-family="Cascadia, Segoe UI Emoji" font-size="66.41388924545572px" fill="#1e1e1e" text-anchor="middle" style="white-space: pre;" direction="ltr" dominant-baseline="text-before-edge"></text><text x="155.6666717529297" y="159.39333418909374" font-family="Cascadia, Segoe UI Emoji" font-size="66.41388924545572px" fill="#1e1e1e" text-anchor="middle" style="white-space: pre;" direction="ltr" dominant-baseline="text-before-edge">#3</text></g><g stroke-linecap="round" transform="translate(522.45605104887 296.656553646113) rotate(0 186.89460427947233 163.1840947813307)"><path d="M7.86 8.16 C7.86 8.16, 7.86 8.16, 7.86 8.16 M7.86 8.16 C7.86 8.16, 7.86 8.16, 7.86 8.16 M8.78 31.49 C16.62 22.47, 24.45 13.46, 34.37 2.05 M8.78 31.49 C16.08 23.09, 23.38 14.69, 34.37 2.05 M8.39 56.32 C24.42 37.88, 40.45 19.44, 55.63 1.98 M8.39 56.32 C18.84 44.3, 29.29 32.28, 55.63 1.98 M8.66 80.4 C25.39 61.16, 42.12 41.92, 76.89 1.91 M8.66 80.4 C34.92 50.2, 61.18 19.99, 76.89 1.91 M8.27 105.24 C37.6 71.5, 66.94 37.75, 98.15 1.85 M8.27 105.24 C40.21 68.5, 72.15 31.76, 98.15 1.85 M8.54 129.32 C33.59 100.51, 58.63 71.69, 119.41 1.78 M8.54 129.32 C41.93 90.91, 75.31 52.51, 119.41 1.78 M8.15 154.16 C60.2 94.28, 112.25 34.41, 140.67 1.71 M8.15 154.16 C43.19 113.84, 78.24 73.53, 140.67 1.71 M8.41 178.24 C46.23 134.73, 84.05 91.23, 161.28 2.39 M8.41 178.24 C61.24 117.47, 114.07 56.7, 161.28 2.39 M8.68 202.32 C51.73 152.8, 94.78 103.28, 182.54 2.32 M8.68 202.32 C76.03 124.84, 143.39 47.36, 182.54 2.32 M8.29 227.16 C57.93 170.05, 107.58 112.94, 203.8 2.26 M8.29 227.16 C78.59 146.29, 148.88 65.43, 203.8 2.26 M8.56 251.24 C94.15 152.77, 179.75 54.3, 225.06 2.19 M8.56 251.24 C61.15 190.74, 113.74 130.24, 225.06 2.19 M8.17 276.08 C64.14 211.69, 120.11 147.3, 246.32 2.12 M8.17 276.08 C59.13 217.45, 110.09 158.83, 246.32 2.12 M4.5 304.69 C66.51 233.34, 128.53 162, 267.58 2.05 M4.5 304.69 C91.12 205.04, 177.74 105.4, 267.58 2.05 M11.32 321.22 C101.69 217.27, 192.05 113.32, 288.84 1.98 M11.32 321.22 C97.23 222.4, 183.13 123.58, 288.84 1.98 M26.68 327.94 C129.78 209.34, 232.88 90.74, 310.1 1.91 M26.68 327.94 C90.29 254.77, 153.89 181.6, 310.1 1.91 M42.03 334.67 C130.53 232.86, 219.03 131.06, 331.36 1.84 M42.03 334.67 C122.05 242.62, 202.07 150.57, 331.36 1.84 M63.29 334.6 C141.18 245, 219.07 155.4, 351.96 2.53 M63.29 334.6 C145.89 239.58, 228.49 144.57, 351.96 2.53 M83.9 335.28 C169.3 237.04, 254.7 138.8, 367.32 9.25 M83.9 335.28 C161.87 245.59, 239.84 155.9, 367.32 9.25 M105.16 335.22 C169.6 261.09, 234.04 186.96, 374.14 25.79 M105.16 335.22 C199.77 226.38, 294.38 117.54, 374.14 25.79 M126.42 335.15 C198.96 251.7, 271.5 168.25, 382.94 40.06 M126.42 335.15 C202.06 248.13, 277.7 161.12, 382.94 40.06 M147.68 335.08 C207.5 266.27, 267.31 197.45, 383.2 64.14 M147.68 335.08 C203.81 270.51, 259.94 205.93, 383.2 64.14 M168.94 335.01 C247.31 244.86, 325.67 154.71, 382.82 88.97 M168.94 335.01 C223.54 272.2, 278.13 209.4, 382.82 88.97 M190.2 334.94 C246.01 270.74, 301.82 206.53, 383.08 113.06 M190.2 334.94 C237 281.1, 283.8 227.27, 383.08 113.06 M211.46 334.87 C265.16 273.09, 318.87 211.31, 382.69 137.89 M211.46 334.87 C263.76 274.71, 316.05 214.55, 382.69 137.89 M232.72 334.8 C265.37 297.25, 298.01 259.69, 382.96 161.97 M232.72 334.8 C268.94 293.13, 305.17 251.46, 382.96 161.97 M253.98 334.73 C283.86 300.36, 313.75 265.98, 383.22 186.06 M253.98 334.73 C295.86 286.55, 337.75 238.37, 383.22 186.06 M275.24 334.66 C308.03 296.95, 340.82 259.23, 382.83 210.89 M275.24 334.66 C317.19 286.41, 359.14 238.15, 382.83 210.89 M296.5 334.6 C319.99 307.57, 343.48 280.55, 383.1 234.97 M296.5 334.6 C315.53 312.71, 334.56 290.82, 383.1 234.97 M317.11 335.28 C337.7 311.59, 358.29 287.9, 382.71 259.81 M317.11 335.28 C331.85 318.32, 346.6 301.36, 382.71 259.81 M344.27 328.42 C354.05 317.17, 363.82 305.93, 373.79 294.46 M344.27 328.42 C351.08 320.59, 357.88 312.76, 373.79 294.46" stroke="#a5d8ff" stroke-width="2" fill="none"></path><path d="M32 0 M32 0 C94.68 0, 157.35 0, 341.79 0 M32 0 C143.91 0, 255.82 0, 341.79 0 M341.79 0 C363.12 0, 373.79 10.67, 373.79 32 M341.79 0 C363.12 0, 373.79 10.67, 373.79 32 M373.79 32 C373.79 102.05, 373.79 172.1, 373.79 294.37 M373.79 32 C373.79 101.13, 373.79 170.26, 373.79 294.37 M373.79 294.37 C373.79 315.7, 363.12 326.37, 341.79 326.37 M373.79 294.37 C373.79 315.7, 363.12 326.37, 341.79 326.37 M341.79 326.37 C266.65 326.37, 191.5 326.37, 32 326.37 M341.79 326.37 C272.2 326.37, 202.61 326.37, 32 326.37 M32 326.37 C10.67 326.37, 0 315.7, 0 294.37 M32 326.37 C10.67 326.37, 0 315.7, 0 294.37 M0 294.37 C0 208.18, 0 121.99, 0 32 M0 294.37 C0 215.8, 0 137.23, 0 32 M0 32 C0 10.67, 10.67 0, 32 0 M0 32 C0 10.67, 10.67 0, 32 0" stroke="#1e1e1e" stroke-width="4" fill="none"></path></g><g transform="translate(554.7294203379206 343.39441980281845) rotate(0 155.6666717529297 119.54500064181957)"><text x="155.6666717529297" y="0" font-family="Cascadia, Segoe UI Emoji" font-size="66.41388924545572px" fill="#1e1e1e" text-anchor="middle" style="white-space: pre;" direction="ltr" dominant-baseline="text-before-edge">T object</text><text x="155.6666717529297" y="79.69666709454687" font-family="Cascadia, Segoe UI Emoji" font-size="66.41388924545572px" fill="#1e1e1e" text-anchor="middle" style="white-space: pre;" direction="ltr" dominant-baseline="text-before-edge"></text><text x="155.6666717529297" y="159.39333418909374" font-family="Cascadia, Segoe UI Emoji" font-size="66.41388924545572px" fill="#1e1e1e" text-anchor="middle" style="white-space: pre;" direction="ltr" dominant-baseline="text-before-edge">#2</text></g><g stroke-linecap="round" transform="translate(144.75282726655132 297.5018481023726) rotate(0 186.89460427947233 163.1840947813307)"><path d="M7.86 8.16 C7.86 8.16, 7.86 8.16, 7.86 8.16 M7.86 8.16 C7.86 8.16, 7.86 8.16, 7.86 8.16 M8.78 31.49 C17.64 21.3, 26.5 11.1, 34.37 2.05 M8.78 31.49 C16.58 22.52, 24.37 13.55, 34.37 2.05 M8.39 56.32 C19.99 42.99, 31.58 29.65, 55.63 1.98 M8.39 56.32 C23.2 39.29, 38 22.26, 55.63 1.98 M8.66 80.4 C24.35 62.35, 40.04 44.31, 76.89 1.91 M8.66 80.4 C30.69 55.07, 52.71 29.73, 76.89 1.91 M8.27 105.24 C29.48 80.84, 50.7 56.43, 98.15 1.85 M8.27 105.24 C43.7 64.49, 79.13 23.73, 98.15 1.85 M8.54 129.32 C37.22 96.33, 65.9 63.33, 119.41 1.78 M8.54 129.32 C48.39 83.47, 88.25 37.62, 119.41 1.78 M8.15 154.16 C37.01 120.95, 65.88 87.75, 140.67 1.71 M8.15 154.16 C48.65 107.56, 89.16 60.96, 140.67 1.71 M8.41 178.24 C57.87 121.35, 107.33 64.45, 161.28 2.39 M8.41 178.24 C63.3 115.1, 118.18 51.97, 161.28 2.39 M8.68 202.32 C68.15 133.91, 127.61 65.51, 182.54 2.32 M8.68 202.32 C72.94 128.39, 137.21 54.47, 182.54 2.32 M8.29 227.16 C78.87 145.97, 149.45 64.78, 203.8 2.26 M8.29 227.16 C66.08 160.67, 123.88 94.19, 203.8 2.26 M8.56 251.24 C63.84 187.65, 119.12 124.06, 225.06 2.19 M8.56 251.24 C70.81 179.62, 133.07 108, 225.06 2.19 M8.17 276.08 C68.37 206.82, 128.58 137.56, 246.32 2.12 M8.17 276.08 C73.17 201.3, 138.18 126.51, 246.32 2.12 M4.5 304.69 C109.62 183.75, 214.75 62.82, 267.58 2.05 M4.5 304.69 C67.78 231.89, 131.06 159.1, 267.58 2.05 M11.32 321.22 C101.8 217.14, 192.28 113.06, 288.84 1.98 M11.32 321.22 C73.65 249.53, 135.97 177.83, 288.84 1.98 M26.68 327.94 C115.13 226.2, 203.58 124.45, 310.1 1.91 M26.68 327.94 C137.04 200.99, 247.4 74.04, 310.1 1.91 M42.03 334.67 C115.25 250.44, 188.47 166.21, 331.36 1.84 M42.03 334.67 C103.84 263.58, 165.64 192.48, 331.36 1.84 M63.29 334.6 C157.2 226.58, 251.1 118.55, 351.96 2.53 M63.29 334.6 C171.43 210.2, 279.57 85.8, 351.96 2.53 M83.9 335.28 C183.56 220.64, 283.21 106, 367.32 9.25 M83.9 335.28 C178.25 226.75, 272.59 118.22, 367.32 9.25 M105.16 335.22 C177.01 252.56, 248.87 169.9, 374.14 25.79 M105.16 335.22 C163.37 268.25, 221.58 201.29, 374.14 25.79 M126.42 335.15 C199.45 251.13, 272.49 167.12, 382.94 40.06 M126.42 335.15 C179 274.66, 231.58 214.17, 382.94 40.06 M147.68 335.08 C232.64 237.34, 317.6 139.6, 383.2 64.14 M147.68 335.08 C198.24 276.92, 248.79 218.76, 383.2 64.14 M168.94 335.01 C246.07 246.28, 323.2 157.55, 382.82 88.97 M168.94 335.01 C229.27 265.61, 289.6 196.2, 382.82 88.97 M190.2 334.94 C252.81 262.92, 315.41 190.9, 383.08 113.06 M190.2 334.94 C238.21 279.71, 286.22 224.48, 383.08 113.06 M211.46 334.87 C251.37 288.96, 291.28 243.05, 382.69 137.89 M211.46 334.87 C270.73 266.69, 329.99 198.52, 382.69 137.89 M232.72 334.8 C273.66 287.71, 314.6 240.61, 382.96 161.97 M232.72 334.8 C274.55 286.68, 316.38 238.56, 382.96 161.97 M253.98 334.73 C279.95 304.86, 305.92 274.99, 383.22 186.06 M253.98 334.73 C280.95 303.71, 307.92 272.68, 383.22 186.06 M275.24 334.66 C298.22 308.23, 321.2 281.8, 382.83 210.89 M275.24 334.66 C301.29 304.69, 327.35 274.72, 382.83 210.89 M296.5 334.6 C323.22 303.86, 349.93 273.13, 383.1 234.97 M296.5 334.6 C314.78 313.57, 333.05 292.55, 383.1 234.97 M317.11 335.28 C340.21 308.7, 363.32 282.12, 382.71 259.81 M317.11 335.28 C340.64 308.21, 364.17 281.14, 382.71 259.81 M344.27 328.42 C351.51 320.09, 358.76 311.76, 373.79 294.46 M344.27 328.42 C353.84 317.41, 363.41 306.4, 373.79 294.46" stroke="#a5d8ff" stroke-width="2" fill="none"></path><path d="M32 0 M32 0 C152.25 0, 272.5 0, 341.79 0 M32 0 C102.14 0, 172.28 0, 341.79 0 M341.79 0 C363.12 0, 373.79 10.67, 373.79 32 M341.79 0 C363.12 0, 373.79 10.67, 373.79 32 M373.79 32 C373.79 102.8, 373.79 173.59, 373.79 294.37 M373.79 32 C373.79 84.58, 373.79 137.17, 373.79 294.37 M373.79 294.37 C373.79 315.7, 363.12 326.37, 341.79 326.37 M373.79 294.37 C373.79 315.7, 363.12 326.37, 341.79 326.37 M341.79 326.37 C222.33 326.37, 102.87 326.37, 32 326.37 M341.79 326.37 C220.88 326.37, 99.96 326.37, 32 326.37 M32 326.37 C10.67 326.37, 0 315.7, 0 294.37 M32 326.37 C10.67 326.37, 0 315.7, 0 294.37 M0 294.37 C0 220.06, 0 145.75, 0 32 M0 294.37 C0 194.48, 0 94.59, 0 32 M0 32 C0 10.67, 10.67 0, 32 0 M0 32 C0 10.67, 10.67 0, 32 0" stroke="#1e1e1e" stroke-width="4" fill="none"></path></g><g transform="translate(177.02619655560193 344.239714259078) rotate(0 155.6666717529297 119.54500064181957)"><text x="155.6666717529297" y="0" font-family="Cascadia, Segoe UI Emoji" font-size="66.41388924545572px" fill="#1e1e1e" text-anchor="middle" style="white-space: pre;" direction="ltr" dominant-baseline="text-before-edge">T object</text><text x="155.6666717529297" y="79.69666709454687" font-family="Cascadia, Segoe UI Emoji" font-size="66.41388924545572px" fill="#1e1e1e" text-anchor="middle" style="white-space: pre;" direction="ltr" dominant-baseline="text-before-edge"></text><text x="155.6666717529297" y="159.39333418909374" font-family="Cascadia, Segoe UI Emoji" font-size="66.41388924545572px" fill="#1e1e1e" text-anchor="middle" style="white-space: pre;" direction="ltr" dominant-baseline="text-before-edge">#1</text></g><g transform="translate(745.5049865847759 981.9864582382434) rotate(0 424.6666564941406 66.89770524107007)"><text x="424.6666564941406" y="0" font-family="Cascadia, Segoe UI Emoji" font-size="111.49617540178372px" fill="#1e1e1e" text-anchor="middle" style="white-space: pre;" direction="ltr" dominant-baseline="text-before-edge">Memory buffer</text></g><g transform="translate(1822.8339372555292 24.047773309866898) rotate(0 265.5333251953125 77.67873022429012)"><text x="265.5333251953125" y="0" font-family="Cascadia, Segoe UI Emoji" font-size="129.4645503738171px" fill="#e03131" text-anchor="middle" style="white-space: pre;" direction="ltr" dominant-baseline="text-before-edge">Before </text></g></svg>