<svg version="1.1" xmlns="http://www.w3.org/2000/svg" viewBox="0 0 5015.991705766291 1458.4743920627443" width="15047.975117298873" height="4375.423176188233">
  <!-- svg-source:excalidraw -->
  
  <defs>
    <style class="style-fonts">
      @font-face {
        font-family: "Virgil";
        src: url("https://excalidraw.com/Virgil.woff2");
      }
      @font-face {
        font-family: "Cascadia";
        src: url("https://excalidraw.com/Cascadia.woff2");
      }
    </style>
    
  </defs>
  <g stroke-linecap="round" transform="translate(10 10.000000000003638) rotate(0 1179.3943268256335 719.2371960313703)"><path d="M32 0 M32 0 C914.84 0, 1797.69 0, 2326.79 0 M2326.79 0 C2348.12 0, 2358.79 10.67, 2358.79 32 M2358.79 32 C2358.79 486.51, 2358.79 941.03, 2358.79 1406.47 M2358.79 1406.47 C2358.79 1427.81, 2348.12 1438.47, 2326.79 1438.47 M2326.79 1438.47 C1677.11 1438.47, 1027.43 1438.47, 32 1438.47 M32 1438.47 C10.67 1438.47, 0 1427.81, 0 1406.47 M0 1406.47 C0 1085.71, 0 764.95, 0 32 M0 32 C0 10.67, 10.67 0, 32 0" stroke="#ced4da" stroke-width="4.5" fill="none" stroke-dasharray="1.5 10"></path></g><g stroke-linecap="round"><g transform="translate(1672.7526574918766 474.0239974395954) rotate(0 547.1616303141877 272.61409849576194)"><path d="M0 0 C101.18 22.56, 424.71 44.47, 607.1 135.34 C789.49 226.21, 1013.12 476.91, 1094.32 545.23" stroke="#1e1e1e" stroke-width="4.5" fill="none" stroke-dasharray="1.5 10"></path></g><g transform="translate(1672.7526574918766 474.0239974395954) rotate(0 547.1616303141877 272.61409849576194)"><path d="M1066.83 533.22 C1076.25 537.33, 1085.67 541.45, 1094.32 545.23" stroke="#1e1e1e" stroke-width="4.5" fill="none" stroke-dasharray="1.5 8"></path></g><g transform="translate(1672.7526574918766 474.0239974395954) rotate(0 547.1616303141877 272.61409849576194)"><path d="M1080.98 518.36 C1085.55 527.56, 1090.12 536.77, 1094.32 545.23" stroke="#1e1e1e" stroke-width="4.5" fill="none" stroke-dasharray="1.5 8"></path></g></g><mask></mask><g stroke-linecap="round" transform="translate(1952.223209940099 543.9961808234148) rotate(24.46039917164861 315.39277912084935 94.73775494504662)"><path d="M32 0 L598.79 0 L606.29 0.5 L612.79 2 L618.29 4.5 L622.79 8 L626.29 12.5 L628.79 18 L630.29 24.5 L630.79 157.48 L630.29 164.98 L628.79 171.48 L626.29 176.98 L622.79 181.48 L618.29 184.98 L612.79 187.48 L606.29 188.98 L598.79 189.48 L32 189.48 L24.5 188.98 L18 187.48 L12.5 184.98 L8 181.48 L4.5 176.98 L2 171.48 L0.5 164.98 L0 157.48 L0.5 24.5 L2 18 L4.5 12.5 L8 8 L12.5 4.5 L18 2 L24.5 0.5 L32 0" stroke="none" stroke-width="0" fill="#fff5f5"></path><path d="M32 0 M32 0 C211.76 0, 391.53 0, 598.79 0 M32 0 C154.95 0, 277.91 0, 598.79 0 M598.79 0 C620.12 0, 630.79 10.67, 630.79 32 M598.79 0 C620.12 0, 630.79 10.67, 630.79 32 M630.79 32 C630.79 66.28, 630.79 100.57, 630.79 157.48 M630.79 32 C630.79 73.99, 630.79 115.98, 630.79 157.48 M630.79 157.48 C630.79 178.81, 620.12 189.48, 598.79 189.48 M630.79 157.48 C630.79 178.81, 620.12 189.48, 598.79 189.48 M598.79 189.48 C397.92 189.48, 197.05 189.48, 32 189.48 M598.79 189.48 C398.03 189.48, 197.27 189.48, 32 189.48 M32 189.48 C10.67 189.48, 0 178.81, 0 157.48 M32 189.48 C10.67 189.48, 0 178.81, 0 157.48 M0 157.48 C0 113.41, 0 69.35, 0 32 M0 157.48 C0 132.08, 0 106.68, 0 32 M0 32 C0 10.67, 10.67 0, 32 0 M0 32 C0 10.67, 10.67 0, 32 0" stroke="#1e1e1e" stroke-width="4" fill="none"></path></g><g stroke-linecap="round" transform="translate(143.41771486198832 889.5288167281797) rotate(0 1051.165921084296 163.1840947813307)"><path d="M7.86 8.16 C7.86 8.16, 7.86 8.16, 7.86 8.16 M7.86 8.16 C7.86 8.16, 7.86 8.16, 7.86 8.16 M4.85 36.01 C12.03 27.75, 19.22 19.48, 34.37 2.05 M4.85 36.01 C13.29 26.3, 21.74 16.59, 34.37 2.05 M5.11 60.1 C15.73 47.88, 26.35 35.67, 55.63 1.98 M5.11 60.1 C20.26 42.68, 35.4 25.26, 55.63 1.98 M4.72 84.93 C22.52 64.46, 40.31 43.99, 76.89 1.91 M4.72 84.93 C29.48 56.45, 54.24 27.98, 76.89 1.91 M4.99 109.01 C28.71 81.73, 52.42 54.45, 98.15 1.85 M4.99 109.01 C36.06 73.27, 67.13 37.53, 98.15 1.85 M5.26 133.1 C43.07 89.6, 80.87 46.11, 119.41 1.78 M5.26 133.1 C48.08 83.83, 90.91 34.56, 119.41 1.78 M4.87 157.93 C46.41 110.14, 87.96 62.35, 140.67 1.71 M4.87 157.93 C34.85 123.44, 64.83 88.95, 140.67 1.71 M5.13 182.01 C48.55 132.07, 91.97 82.12, 161.28 2.39 M5.13 182.01 C57.36 121.94, 109.59 61.86, 161.28 2.39 M4.74 206.85 C67.75 134.37, 130.76 61.88, 182.54 2.32 M4.74 206.85 C67.72 134.41, 130.69 61.96, 182.54 2.32 M5.01 230.93 C81.87 142.52, 158.72 54.11, 203.8 2.26 M5.01 230.93 C75.43 149.92, 145.85 68.92, 203.8 2.26 M5.28 255.01 C73.16 176.92, 141.05 98.83, 225.06 2.19 M5.28 255.01 C72.91 177.21, 140.54 99.42, 225.06 2.19 M4.89 279.85 C71.33 203.42, 137.76 126.99, 246.32 2.12 M4.89 279.85 C89.16 182.91, 173.42 85.97, 246.32 2.12 M4.5 304.69 C108.94 184.53, 213.39 64.38, 267.58 2.05 M4.5 304.69 C66.71 233.12, 128.93 161.54, 267.58 2.05 M11.32 321.22 C89.23 231.6, 167.14 141.97, 288.84 1.98 M11.32 321.22 C70.89 252.69, 130.46 184.17, 288.84 1.98 M26.68 327.94 C130.18 208.88, 233.68 89.82, 310.1 1.91 M26.68 327.94 C105.17 237.65, 183.67 147.35, 310.1 1.91 M47.94 327.88 C121.36 243.41, 194.78 158.95, 331.36 1.84 M47.94 327.88 C112.6 253.49, 177.26 179.11, 331.36 1.84 M69.2 327.81 C148.14 237, 227.08 146.19, 352.62 1.77 M69.2 327.81 C167.48 214.74, 265.77 101.68, 352.62 1.77 M90.46 327.74 C199.22 202.62, 307.98 77.5, 373.22 2.46 M90.46 327.74 C160.53 247.14, 230.59 166.53, 373.22 2.46 M111.72 327.67 C202.46 223.28, 293.21 118.89, 394.48 2.39 M111.72 327.67 C209.25 215.48, 306.77 103.29, 394.48 2.39 M132.98 327.6 C232.16 213.5, 331.34 99.41, 415.74 2.32 M132.98 327.6 C221.53 225.73, 310.09 123.86, 415.74 2.32 M154.24 327.53 C265.93 199.04, 377.63 70.55, 437 2.25 M154.24 327.53 C253.63 213.2, 353.02 98.86, 437 2.25 M174.84 328.22 C279.54 207.77, 384.25 87.33, 458.26 2.18 M174.84 328.22 C244.3 248.31, 313.76 168.41, 458.26 2.18 M196.1 328.15 C287.42 223.11, 378.73 118.06, 479.52 2.11 M196.1 328.15 C260.72 253.82, 325.33 179.49, 479.52 2.11 M217.36 328.08 C322.62 206.99, 427.88 85.91, 500.78 2.04 M217.36 328.08 C286.96 248.02, 356.55 167.96, 500.78 2.04 M238.62 328.01 C307.37 248.92, 376.12 169.84, 522.04 1.98 M238.62 328.01 C300.13 257.25, 361.64 186.5, 522.04 1.98 M259.89 327.94 C318.32 260.72, 376.75 193.5, 543.3 1.91 M259.89 327.94 C344.32 230.81, 428.75 133.68, 543.3 1.91 M281.15 327.87 C342.1 257.75, 403.05 187.64, 564.56 1.84 M281.15 327.87 C378.23 216.18, 475.32 104.49, 564.56 1.84 M302.41 327.8 C370.84 249.07, 439.28 170.35, 585.17 2.52 M302.41 327.8 C406.09 208.53, 509.78 89.25, 585.17 2.52 M323.67 327.73 C385.11 257.05, 446.55 186.37, 606.43 2.45 M323.67 327.73 C382.98 259.5, 442.3 191.26, 606.43 2.45 M344.93 327.66 C448.41 208.62, 551.9 89.57, 627.69 2.38 M344.93 327.66 C457.38 198.3, 569.83 68.94, 627.69 2.38 M366.19 327.6 C463.92 215.16, 561.66 102.73, 648.95 2.32 M366.19 327.6 C424.18 260.88, 482.17 194.17, 648.95 2.32 M386.79 328.28 C495.56 203.15, 604.33 78.03, 670.21 2.25 M386.79 328.28 C476.91 224.61, 567.03 120.94, 670.21 2.25 M408.05 328.21 C469.06 258.02, 530.08 187.84, 691.47 2.18 M408.05 328.21 C491.99 231.65, 575.93 135.09, 691.47 2.18 M429.31 328.14 C491.65 256.43, 553.99 184.72, 712.73 2.11 M429.31 328.14 C496.15 251.25, 562.99 174.36, 712.73 2.11 M450.57 328.07 C552.62 210.68, 654.66 93.29, 733.99 2.04 M450.57 328.07 C516.31 252.45, 582.05 176.82, 733.99 2.04 M471.83 328.01 C561.89 224.41, 651.94 120.81, 755.25 1.97 M471.83 328.01 C540.09 249.49, 608.34 170.97, 755.25 1.97 M493.09 327.94 C559.02 252.09, 624.95 176.25, 776.51 1.9 M493.09 327.94 C590.19 216.23, 687.29 104.53, 776.51 1.9 M514.35 327.87 C581.98 250.07, 649.61 172.27, 797.11 2.59 M514.35 327.87 C571.96 261.59, 629.58 195.31, 797.11 2.59 M535.61 327.8 C593.4 261.32, 651.18 194.85, 818.37 2.52 M535.61 327.8 C631.63 217.35, 727.64 106.89, 818.37 2.52 M556.87 327.73 C631.81 241.53, 706.74 155.32, 839.63 2.45 M556.87 327.73 C663.37 205.21, 769.88 82.69, 839.63 2.45 M578.13 327.66 C681.46 208.8, 784.78 89.94, 860.89 2.38 M578.13 327.66 C667.34 225.04, 756.55 122.42, 860.89 2.38 M598.74 328.35 C710.62 199.64, 822.49 70.94, 882.15 2.31 M598.74 328.35 C710.07 200.27, 821.41 72.19, 882.15 2.31 M620 328.28 C712.01 222.43, 804.02 116.58, 903.41 2.24 M620 328.28 C717.58 216.02, 815.17 103.76, 903.41 2.24 M641.26 328.21 C739.51 215.18, 837.76 102.16, 924.67 2.17 M641.26 328.21 C716.89 241.2, 792.52 154.2, 924.67 2.17 M662.52 328.14 C721.96 259.76, 781.4 191.37, 945.93 2.1 M662.52 328.14 C742.22 236.45, 821.92 144.77, 945.93 2.1 M683.78 328.07 C785.17 211.43, 886.57 94.78, 967.19 2.04 M683.78 328.07 C795.59 199.45, 907.39 70.83, 967.19 2.04 M705.04 328 C780.72 240.94, 856.41 153.87, 988.45 1.97 M705.04 328 C807.81 209.77, 910.59 91.54, 988.45 1.97 M726.3 327.93 C834.82 203.09, 943.35 78.24, 1009.06 2.65 M726.3 327.93 C826.07 213.16, 925.83 98.39, 1009.06 2.65 M747.56 327.86 C821.56 242.74, 895.56 157.61, 1030.32 2.58 M747.56 327.86 C805.87 260.79, 864.17 193.71, 1030.32 2.58 M768.82 327.79 C853.45 230.44, 938.08 133.08, 1051.58 2.51 M768.82 327.79 C853.69 230.16, 938.56 132.53, 1051.58 2.51 M790.08 327.73 C868.58 237.42, 947.07 147.12, 1072.84 2.45 M790.08 327.73 C849.71 259.12, 909.35 190.52, 1072.84 2.45 M811.34 327.66 C895.47 230.88, 979.6 134.1, 1094.1 2.38 M811.34 327.66 C917.66 205.35, 1023.98 83.04, 1094.1 2.38 M831.94 328.34 C921.9 224.86, 1011.86 121.38, 1115.36 2.31 M831.94 328.34 C933.08 211.99, 1034.23 95.64, 1115.36 2.31 M853.2 328.27 C935.53 233.57, 1017.86 138.86, 1136.62 2.24 M853.2 328.27 C938.57 230.07, 1023.93 131.87, 1136.62 2.24 M874.46 328.2 C960.18 229.59, 1045.91 130.98, 1157.88 2.17 M874.46 328.2 C932.72 261.19, 990.97 194.18, 1157.88 2.17 M895.72 328.14 C983.28 227.41, 1070.83 126.69, 1179.14 2.1 M895.72 328.14 C1002.79 204.97, 1109.86 81.8, 1179.14 2.1 M916.98 328.07 C994.33 239.09, 1071.68 150.1, 1200.4 2.03 M916.98 328.07 C1001.89 230.39, 1086.8 132.71, 1200.4 2.03 M938.24 328 C1023.74 229.64, 1109.24 131.28, 1221 2.72 M938.24 328 C1019.97 233.98, 1101.7 139.96, 1221 2.72 M959.5 327.93 C1069.12 201.83, 1178.74 75.72, 1242.26 2.65 M959.5 327.93 C1062.13 209.87, 1164.76 91.8, 1242.26 2.65 M980.76 327.86 C1076.65 217.56, 1172.53 107.26, 1263.52 2.58 M980.76 327.86 C1065.46 230.43, 1150.16 132.99, 1263.52 2.58 M1002.02 327.79 C1093.74 222.28, 1185.45 116.78, 1284.78 2.51 M1002.02 327.79 C1087.08 229.95, 1172.13 132.1, 1284.78 2.51 M1023.28 327.72 C1081.56 260.69, 1139.83 193.65, 1306.04 2.44 M1023.28 327.72 C1095.41 244.75, 1167.54 161.78, 1306.04 2.44 M1043.89 328.41 C1123.06 237.33, 1202.23 146.25, 1327.3 2.37 M1043.89 328.41 C1157.13 198.14, 1270.37 67.87, 1327.3 2.37 M1065.15 328.34 C1124.42 260.16, 1183.68 191.98, 1348.57 2.3 M1065.15 328.34 C1173.62 203.56, 1282.08 78.78, 1348.57 2.3 M1086.41 328.27 C1190.65 208.35, 1294.89 88.44, 1369.83 2.23 M1086.41 328.27 C1179.05 221.69, 1271.7 115.11, 1369.83 2.23 M1107.67 328.2 C1213.3 206.68, 1318.93 85.17, 1391.09 2.17 M1107.67 328.2 C1190.07 233.41, 1272.47 138.62, 1391.09 2.17 M1128.93 328.13 C1192.3 255.23, 1255.66 182.34, 1412.35 2.1 M1128.93 328.13 C1222.95 219.97, 1316.97 111.82, 1412.35 2.1 M1150.19 328.06 C1218.24 249.78, 1286.29 171.5, 1433.61 2.03 M1150.19 328.06 C1254.68 207.85, 1359.18 87.64, 1433.61 2.03 M1171.45 327.99 C1284.37 198.09, 1397.29 68.19, 1454.21 2.71 M1171.45 327.99 C1240.52 248.54, 1309.59 169.08, 1454.21 2.71 M1192.71 327.92 C1270 239.02, 1347.28 150.11, 1475.47 2.64 M1192.71 327.92 C1302.25 201.91, 1411.8 75.89, 1475.47 2.64 M1213.97 327.85 C1317.59 208.65, 1421.22 89.44, 1496.73 2.58 M1213.97 327.85 C1291.99 238.11, 1370 148.36, 1496.73 2.58 M1235.23 327.79 C1306.81 245.45, 1378.38 163.11, 1517.99 2.51 M1235.23 327.79 C1319.75 230.56, 1404.27 133.33, 1517.99 2.51 M1255.83 328.47 C1345.14 225.74, 1434.44 123.01, 1539.25 2.44 M1255.83 328.47 C1318 256.96, 1380.17 185.44, 1539.25 2.44 M1277.09 328.4 C1356.18 237.42, 1435.27 146.45, 1560.51 2.37 M1277.09 328.4 C1344.12 251.29, 1411.15 174.19, 1560.51 2.37 M1298.35 328.33 C1398.71 212.88, 1499.07 97.43, 1581.77 2.3 M1298.35 328.33 C1368.78 247.32, 1439.21 166.3, 1581.77 2.3 M1319.61 328.26 C1424.28 207.86, 1528.95 87.45, 1603.03 2.23 M1319.61 328.26 C1408.82 225.65, 1498.02 123.03, 1603.03 2.23 M1340.87 328.2 C1429.06 226.75, 1517.24 125.31, 1624.29 2.16 M1340.87 328.2 C1431.15 224.35, 1521.43 120.5, 1624.29 2.16 M1362.13 328.13 C1436.09 243.05, 1510.05 157.97, 1645.55 2.09 M1362.13 328.13 C1427.16 253.33, 1492.18 178.52, 1645.55 2.09 M1383.39 328.06 C1477.43 219.88, 1571.47 111.7, 1666.16 2.78 M1383.39 328.06 C1486.85 209.05, 1590.3 90.03, 1666.16 2.78 M1404.65 327.99 C1463.96 259.77, 1523.26 191.55, 1687.42 2.71 M1404.65 327.99 C1477.5 244.19, 1550.34 160.4, 1687.42 2.71 M1425.91 327.92 C1506.09 235.68, 1586.27 143.45, 1708.68 2.64 M1425.91 327.92 C1513.07 227.66, 1600.22 127.41, 1708.68 2.64 M1447.17 327.85 C1557.49 200.94, 1667.81 74.04, 1729.94 2.57 M1447.17 327.85 C1520.01 244.06, 1592.85 160.27, 1729.94 2.57 M1467.78 328.54 C1566.4 215.08, 1665.02 101.63, 1751.2 2.5 M1467.78 328.54 C1537.07 248.83, 1606.35 169.13, 1751.2 2.5 M1489.04 328.47 C1572.78 232.13, 1656.52 135.8, 1772.46 2.43 M1489.04 328.47 C1565.25 240.79, 1641.47 153.12, 1772.46 2.43 M1510.3 328.4 C1575.05 253.91, 1639.8 179.42, 1793.72 2.36 M1510.3 328.4 C1582.52 245.32, 1654.74 162.24, 1793.72 2.36 M1531.56 328.33 C1627.27 218.22, 1722.99 108.12, 1814.98 2.29 M1531.56 328.33 C1620.1 226.48, 1708.63 124.63, 1814.98 2.29 M1552.82 328.26 C1651 215.32, 1749.17 102.38, 1836.24 2.23 M1552.82 328.26 C1609.7 262.83, 1666.57 197.4, 1836.24 2.23 M1574.08 328.19 C1644.27 247.45, 1714.45 166.71, 1857.5 2.16 M1574.08 328.19 C1684.63 201.02, 1795.18 73.84, 1857.5 2.16 M1595.34 328.12 C1663.75 249.42, 1732.16 170.73, 1878.1 2.84 M1595.34 328.12 C1687.16 222.49, 1778.99 116.86, 1878.1 2.84 M1616.6 328.05 C1694.29 238.68, 1771.98 149.31, 1899.36 2.77 M1616.6 328.05 C1697.26 235.27, 1777.91 142.49, 1899.36 2.77 M1637.86 327.98 C1743.6 206.34, 1849.34 84.7, 1920.62 2.7 M1637.86 327.98 C1708.81 246.36, 1779.76 164.75, 1920.62 2.7 M1659.12 327.92 C1768.64 201.93, 1878.16 75.94, 1941.88 2.64 M1659.12 327.92 C1761.61 210.01, 1864.1 92.11, 1941.88 2.64 M1679.72 328.6 C1770.44 224.24, 1861.16 119.88, 1963.14 2.57 M1679.72 328.6 C1788.67 203.28, 1897.61 77.95, 1963.14 2.57 M1700.98 328.53 C1778.18 239.73, 1855.37 150.93, 1984.4 2.5 M1700.98 328.53 C1805.15 208.7, 1909.32 88.87, 1984.4 2.5 M1722.25 328.46 C1829.01 205.64, 1935.78 82.82, 2005.66 2.43 M1722.25 328.46 C1810.56 226.87, 1898.87 125.28, 2005.66 2.43 M1743.51 328.39 C1838.63 218.97, 1933.75 109.54, 2026.92 2.36 M1743.51 328.39 C1807.99 254.21, 1872.48 180.03, 2026.92 2.36 M1764.77 328.33 C1866.51 211.28, 1968.25 94.24, 2048.18 2.29 M1764.77 328.33 C1821.5 263.06, 1878.24 197.79, 2048.18 2.29 M1786.03 328.26 C1871.51 229.92, 1957 131.57, 2069.44 2.22 M1786.03 328.26 C1857.08 246.52, 1928.14 164.78, 2069.44 2.22 M1807.29 328.19 C1863.67 263.33, 1920.05 198.47, 2088.08 5.17 M1807.29 328.19 C1919.35 199.27, 2031.41 70.36, 2088.08 5.17 M1828.55 328.12 C1886.71 261.21, 1944.87 194.3, 2100.81 14.91 M1828.55 328.12 C1917.48 225.81, 2006.42 123.5, 2100.81 14.91 M1849.81 328.05 C1941.5 222.56, 2033.2 117.08, 2108.29 30.69 M1849.81 328.05 C1911.46 257.13, 1973.11 186.21, 2108.29 30.69 M1871.07 327.98 C1926.56 264.15, 1982.05 200.31, 2108.56 54.78 M1871.07 327.98 C1948.52 238.88, 2025.98 149.77, 2108.56 54.78 M1891.67 328.67 C1976.85 230.68, 2062.03 132.69, 2108.83 78.86 M1891.67 328.67 C1941.58 271.25, 1991.5 213.83, 2108.83 78.86 M1912.93 328.6 C1960.33 274.07, 2007.73 219.55, 2108.44 103.69 M1912.93 328.6 C1971.83 260.85, 2030.72 193.1, 2108.44 103.69 M1934.19 328.53 C1969.7 287.68, 2005.2 246.84, 2108.7 127.78 M1934.19 328.53 C1980.57 275.17, 2026.96 221.81, 2108.7 127.78 M1955.45 328.46 C1992.06 286.34, 2028.68 244.22, 2108.31 152.61 M1955.45 328.46 C1999.05 278.3, 2042.66 228.14, 2108.31 152.61 M1976.71 328.39 C2029.09 268.13, 2081.47 207.88, 2108.58 176.69 M1976.71 328.39 C2005.75 294.98, 2034.8 261.57, 2108.58 176.69 M1997.97 328.32 C2036.02 284.56, 2074.06 240.79, 2108.85 200.78 M1997.97 328.32 C2030.43 290.99, 2062.88 253.65, 2108.85 200.78 M2019.23 328.25 C2046.11 297.34, 2072.98 266.42, 2108.46 225.61 M2019.23 328.25 C2050.32 292.49, 2081.4 256.73, 2108.46 225.61 M2040.49 328.18 C2067.12 297.55, 2093.75 266.91, 2108.72 249.69 M2040.49 328.18 C2062.29 303.11, 2084.08 278.04, 2108.72 249.69 M2061.75 328.11 C2078.6 308.73, 2095.46 289.34, 2108.33 274.53 M2061.75 328.11 C2075.11 312.75, 2088.46 297.39, 2108.33 274.53 M2085.64 325.03 C2091.82 317.91, 2098.01 310.79, 2104.01 303.89 M2085.64 325.03 C2091.93 317.79, 2098.22 310.55, 2104.01 303.89" stroke="#868e96" stroke-width="2" fill="none"></path><path d="M32 0 M32 0 C733.36 0, 1434.73 0, 2070.33 0 M32 0 C547.28 0, 1062.56 0, 2070.33 0 M2070.33 0 C2091.67 0, 2102.33 10.67, 2102.33 32 M2070.33 0 C2091.67 0, 2102.33 10.67, 2102.33 32 M2102.33 32 C2102.33 107.69, 2102.33 183.38, 2102.33 294.37 M2102.33 32 C2102.33 108.58, 2102.33 185.16, 2102.33 294.37 M2102.33 294.37 C2102.33 315.7, 2091.67 326.37, 2070.33 326.37 M2102.33 294.37 C2102.33 315.7, 2091.67 326.37, 2070.33 326.37 M2070.33 326.37 C1346.9 326.37, 623.48 326.37, 32 326.37 M2070.33 326.37 C1579.27 326.37, 1088.2 326.37, 32 326.37 M32 326.37 C10.67 326.37, 0 315.7, 0 294.37 M32 326.37 C10.67 326.37, 0 315.7, 0 294.37 M0 294.37 C0 220.09, 0 145.81, 0 32 M0 294.37 C0 218.28, 0 142.18, 0 32 M0 32 C0 10.67, 10.67 0, 32 0 M0 32 C0 10.67, 10.67 0, 32 0" stroke="#1e1e1e" stroke-width="4" fill="none"></path></g><g stroke-linecap="round" transform="translate(4312.959013947869 859.4767123036545) rotate(0 300.47914529370024 164.2806542026301)"><path d="M7.86 8.16 C7.86 8.16, 7.86 8.16, 7.86 8.16 M7.86 8.16 C7.86 8.16, 7.86 8.16, 7.86 8.16 M4.85 36.01 C12.67 27.02, 20.49 18.02, 34.37 2.05 M4.85 36.01 C15.22 24.08, 25.6 12.14, 34.37 2.05 M4.46 60.85 C21.61 41.12, 38.75 21.4, 55.63 1.98 M4.46 60.85 C19.14 43.96, 33.83 27.07, 55.63 1.98 M4.72 84.93 C26.38 60.02, 48.04 35.1, 76.89 1.91 M4.72 84.93 C22.25 64.77, 39.78 44.61, 76.89 1.91 M4.99 109.01 C25.52 85.4, 46.05 61.78, 98.15 1.85 M4.99 109.01 C37.35 71.79, 69.71 34.56, 98.15 1.85 M4.6 133.85 C40.59 92.45, 76.58 51.05, 119.41 1.78 M4.6 133.85 C45.07 87.3, 85.54 40.75, 119.41 1.78 M4.87 157.93 C44.54 112.29, 84.21 66.65, 140.67 1.71 M4.87 157.93 C45.14 111.6, 85.41 65.28, 140.67 1.71 M4.48 182.77 C51.73 128.41, 98.99 74.04, 161.28 2.39 M4.48 182.77 C61.98 116.62, 119.49 50.46, 161.28 2.39 M4.74 206.85 C50.29 154.45, 95.85 102.05, 182.54 2.32 M4.74 206.85 C69.03 132.9, 133.32 58.94, 182.54 2.32 M5.01 230.93 C80.35 144.27, 155.69 57.6, 203.8 2.26 M5.01 230.93 C75.25 150.13, 145.5 69.32, 203.8 2.26 M4.62 255.77 C78.92 170.29, 153.23 84.82, 225.06 2.19 M4.62 255.77 C81.94 166.82, 159.26 77.88, 225.06 2.19 M4.89 279.85 C96.68 174.26, 188.47 68.67, 246.32 2.12 M4.89 279.85 C92.1 179.52, 179.31 79.19, 246.32 2.12 M3.18 306.2 C76.69 221.64, 150.19 137.08, 267.58 2.05 M3.18 306.2 C70.24 229.06, 137.3 151.92, 267.58 2.05 M10.01 322.73 C81.84 240.1, 153.67 157.47, 288.84 1.98 M10.01 322.73 C71.51 251.99, 133 181.25, 288.84 1.98 M25.37 329.45 C122.46 217.76, 219.56 106.06, 310.1 1.91 M25.37 329.45 C93.98 250.52, 162.6 171.59, 310.1 1.91 M40.72 336.18 C122.87 241.68, 205.02 147.18, 331.36 1.84 M40.72 336.18 C140.33 221.59, 239.94 107.01, 331.36 1.84 M61.98 336.11 C151.17 233.51, 240.35 130.92, 352.62 1.77 M61.98 336.11 C138.97 247.55, 215.95 158.99, 352.62 1.77 M83.24 336.04 C154.57 253.98, 225.9 171.93, 373.88 1.7 M83.24 336.04 C176.37 228.91, 269.5 121.78, 373.88 1.7 M104.5 335.97 C184.26 244.22, 264.02 152.46, 394.48 2.39 M104.5 335.97 C179.5 249.7, 254.5 163.42, 394.48 2.39 M125.76 335.9 C199.66 250.89, 273.57 165.87, 415.74 2.32 M125.76 335.9 C220.76 226.62, 315.76 117.34, 415.74 2.32 M147.02 335.83 C223.54 247.81, 300.05 159.8, 437 2.25 M147.02 335.83 C244.68 223.49, 342.34 111.15, 437 2.25 M167.63 336.52 C266.02 223.33, 364.41 110.14, 458.26 2.18 M167.63 336.52 C260.46 229.73, 353.29 122.93, 458.26 2.18 M188.89 336.45 C250 266.14, 311.12 195.84, 479.52 2.11 M188.89 336.45 C303.72 204.35, 418.55 72.25, 479.52 2.11 M210.15 336.38 C280.74 255.17, 351.33 173.97, 500.78 2.04 M210.15 336.38 C277.66 258.72, 345.17 181.05, 500.78 2.04 M231.41 336.31 C338.97 212.58, 446.53 88.84, 522.04 1.98 M231.41 336.31 C321.71 232.43, 412.01 128.56, 522.04 1.98 M252.67 336.24 C320.4 258.33, 388.13 180.42, 543.3 1.91 M252.67 336.24 C364.25 207.89, 475.82 79.53, 543.3 1.91 M273.93 336.17 C366.29 229.92, 458.65 123.67, 564.56 1.84 M273.93 336.17 C373.28 221.89, 472.62 107.6, 564.56 1.84 M295.19 336.1 C379.92 238.63, 464.65 141.16, 584.51 3.28 M295.19 336.1 C374.23 245.18, 453.27 154.25, 584.51 3.28 M316.45 336.04 C413.79 224.06, 511.13 112.08, 597.24 13.02 M316.45 336.04 C408.57 230.07, 500.68 124.1, 597.24 13.02 M337.71 335.97 C423.43 237.36, 509.14 138.75, 601.44 32.57 M337.71 335.97 C438.01 220.58, 538.31 105.2, 601.44 32.57 M358.97 335.9 C424.19 260.87, 489.41 185.84, 601.71 56.65 M358.97 335.9 C429.41 254.87, 499.85 173.83, 601.71 56.65 M380.23 335.83 C457.8 246.59, 535.38 157.35, 601.32 81.49 M380.23 335.83 C461.31 242.56, 542.38 149.29, 601.32 81.49 M400.83 336.51 C443.92 286.94, 487.02 237.37, 601.59 105.57 M400.83 336.51 C447.06 283.34, 493.29 230.16, 601.59 105.57 M422.09 336.45 C477.72 272.46, 533.34 208.47, 601.2 130.41 M422.09 336.45 C471.36 279.78, 520.62 223.11, 601.2 130.41 M443.35 336.38 C480.36 293.81, 517.36 251.24, 601.46 154.49 M443.35 336.38 C495.78 276.07, 548.21 215.75, 601.46 154.49 M464.61 336.31 C500.67 294.83, 536.73 253.34, 601.73 178.57 M464.61 336.31 C509.76 284.37, 554.91 232.44, 601.73 178.57 M485.87 336.24 C519.95 297.03, 554.03 257.83, 601.34 203.41 M485.87 336.24 C527.29 288.59, 568.71 240.94, 601.34 203.41 M507.13 336.17 C543.58 294.24, 580.02 252.32, 601.61 227.49 M507.13 336.17 C538.74 299.82, 570.34 263.46, 601.61 227.49 M528.39 336.1 C549.15 312.23, 569.9 288.35, 601.22 252.33 M528.39 336.1 C547.14 314.53, 565.89 292.97, 601.22 252.33 M549.65 336.03 C569.11 313.65, 588.56 291.28, 601.48 276.41 M549.65 336.03 C564.02 319.5, 578.39 302.97, 601.48 276.41 M577.48 328.42 C582.83 322.26, 588.18 316.1, 603.06 298.98 M577.48 328.42 C586.55 317.97, 595.63 307.53, 603.06 298.98" stroke="#868e96" stroke-width="2" fill="none"></path><path d="M32 0 M32 0 C164.49 0, 296.99 0, 568.96 0 M32 0 C206.56 0, 381.13 0, 568.96 0 M568.96 0 C590.29 0, 600.96 10.67, 600.96 32 M568.96 0 C590.29 0, 600.96 10.67, 600.96 32 M600.96 32 C600.96 97.97, 600.96 163.94, 600.96 296.56 M600.96 32 C600.96 125.74, 600.96 219.48, 600.96 296.56 M600.96 296.56 C600.96 317.89, 590.29 328.56, 568.96 328.56 M600.96 296.56 C600.96 317.89, 590.29 328.56, 568.96 328.56 M568.96 328.56 C386.07 328.56, 203.19 328.56, 32 328.56 M568.96 328.56 C455.53 328.56, 342.09 328.56, 32 328.56 M32 328.56 C10.67 328.56, 0 317.89, 0 296.56 M32 328.56 C10.67 328.56, 0 317.89, 0 296.56 M0 296.56 C0 239.3, 0 182.03, 0 32 M0 296.56 C0 235.77, 0 174.98, 0 32 M0 32 C0 10.67, 10.67 0, 32 0 M0 32 C0 10.67, 10.67 0, 32 0" stroke="#1e1e1e" stroke-width="4" fill="none"></path></g><g stroke-linecap="round" transform="translate(2772.428904377046 290.6089116875519) rotate(0 754.7081336231955 164.2806542026301)"><path d="M7.86 8.16 C7.86 8.16, 7.86 8.16, 7.86 8.16 M7.86 8.16 C7.86 8.16, 7.86 8.16, 7.86 8.16 M4.85 36.01 C16.05 23.13, 27.25 10.24, 34.37 2.05 M4.85 36.01 C15.97 23.22, 27.09 10.42, 34.37 2.05 M5.11 60.1 C18.5 44.7, 31.88 29.31, 55.63 1.98 M5.11 60.1 C16.85 46.6, 28.58 33.1, 55.63 1.98 M4.72 84.93 C21.64 65.48, 38.55 46.03, 76.89 1.91 M4.72 84.93 C20.36 66.94, 36 48.95, 76.89 1.91 M4.99 109.01 C27.69 82.9, 50.39 56.79, 98.15 1.85 M4.99 109.01 C35.84 73.52, 66.7 38.03, 98.15 1.85 M4.6 133.85 C46.95 85.14, 89.29 36.42, 119.41 1.78 M4.6 133.85 C31.96 102.38, 59.32 70.9, 119.41 1.78 M4.87 157.93 C51.25 104.58, 97.62 51.23, 140.02 2.46 M4.87 157.93 C48.72 107.49, 92.57 57.04, 140.02 2.46 M5.13 182.01 C51.19 129.04, 97.24 76.06, 161.28 2.39 M5.13 182.01 C61.72 116.92, 118.3 51.83, 161.28 2.39 M4.74 206.85 C55.38 148.6, 106.02 90.35, 182.54 2.32 M4.74 206.85 C71.16 130.44, 137.58 54.04, 182.54 2.32 M5.01 230.93 C53.4 175.27, 101.78 119.61, 203.8 2.26 M5.01 230.93 C62.85 164.4, 120.69 97.86, 203.8 2.26 M5.28 255.01 C73.13 176.95, 140.99 98.9, 225.06 2.19 M5.28 255.01 C53.89 199.09, 102.51 143.16, 225.06 2.19 M4.89 279.85 C92.71 178.82, 180.53 77.79, 246.32 2.12 M4.89 279.85 C79.09 194.49, 153.29 109.13, 246.32 2.12 M3.18 306.2 C102.02 192.49, 200.87 78.79, 267.58 2.05 M3.18 306.2 C106.63 187.2, 210.07 68.2, 267.58 2.05 M10.01 322.73 C100.42 218.72, 190.84 114.72, 288.84 1.98 M10.01 322.73 C87 234.17, 163.98 145.61, 288.84 1.98 M25.37 329.45 C127.23 212.28, 229.08 95.1, 310.1 1.91 M25.37 329.45 C136.1 202.07, 246.84 74.68, 310.1 1.91 M46.63 329.39 C135.44 227.22, 224.25 125.06, 331.36 1.84 M46.63 329.39 C115.82 249.79, 185.02 170.19, 331.36 1.84 M67.89 329.32 C140.85 245.39, 213.8 161.46, 351.96 2.53 M67.89 329.32 C153.28 231.08, 238.67 132.85, 351.96 2.53 M89.15 329.25 C155.19 253.28, 221.23 177.31, 373.22 2.46 M89.15 329.25 C155.95 252.4, 222.75 175.55, 373.22 2.46 M110.41 329.18 C220.13 202.96, 329.85 76.74, 394.48 2.39 M110.41 329.18 C222.33 200.42, 334.26 71.67, 394.48 2.39 M131.67 329.11 C219.86 227.65, 308.06 126.2, 415.74 2.32 M131.67 329.11 C205.76 243.88, 279.84 158.65, 415.74 2.32 M152.93 329.04 C260.84 204.9, 368.75 80.76, 437 2.25 M152.93 329.04 C243.28 225.11, 333.62 121.18, 437 2.25 M174.19 328.97 C256.33 234.48, 338.46 140, 458.26 2.18 M174.19 328.97 C262.12 227.82, 350.04 126.67, 458.26 2.18 M195.45 328.9 C306.34 201.34, 417.23 73.78, 479.52 2.11 M195.45 328.9 C281.49 229.92, 367.53 130.94, 479.52 2.11 M216.71 328.83 C282.19 253.5, 347.68 178.17, 500.78 2.04 M216.71 328.83 C316.73 213.77, 416.76 98.7, 500.78 2.04 M237.31 329.52 C319.62 234.84, 401.92 140.15, 522.04 1.98 M237.31 329.52 C339.81 211.61, 442.3 93.71, 522.04 1.98 M258.57 329.45 C348.36 226.16, 438.16 122.86, 543.3 1.91 M258.57 329.45 C355.55 217.89, 452.54 106.32, 543.3 1.91 M279.83 329.38 C355.44 242.4, 431.05 155.43, 563.91 2.59 M279.83 329.38 C359.93 237.24, 440.03 145.09, 563.91 2.59 M301.09 329.31 C370.17 249.85, 439.25 170.38, 585.17 2.52 M301.09 329.31 C360.27 261.23, 419.46 193.15, 585.17 2.52 M322.35 329.24 C387.83 253.92, 453.32 178.59, 606.43 2.45 M322.35 329.24 C391.33 249.9, 460.3 170.55, 606.43 2.45 M343.61 329.17 C409.58 253.29, 475.55 177.4, 627.69 2.38 M343.61 329.17 C420.26 241, 496.91 152.82, 627.69 2.38 M364.87 329.11 C424.46 260.56, 484.05 192.01, 648.95 2.32 M364.87 329.11 C477.84 199.16, 590.8 69.21, 648.95 2.32 M386.13 329.04 C448.49 257.3, 510.85 185.57, 670.21 2.25 M386.13 329.04 C448.88 256.85, 511.63 184.67, 670.21 2.25 M407.39 328.97 C506.9 214.5, 606.41 100.03, 691.47 2.18 M407.39 328.97 C487.77 236.51, 568.15 144.04, 691.47 2.18 M428.65 328.9 C502.74 243.67, 576.83 158.44, 712.73 2.11 M428.65 328.9 C524.83 218.26, 621.01 107.62, 712.73 2.11 M449.26 329.58 C539.59 225.67, 629.91 121.76, 733.99 2.04 M449.26 329.58 C510.86 258.72, 572.46 187.86, 733.99 2.04 M470.52 329.51 C564.66 221.22, 658.8 112.92, 755.25 1.97 M470.52 329.51 C550.58 237.42, 630.64 145.32, 755.25 1.97 M491.78 329.45 C575.44 233.21, 659.1 136.97, 775.85 2.66 M491.78 329.45 C576.09 232.46, 660.4 135.47, 775.85 2.66 M513.04 329.38 C604.58 224.07, 696.12 118.77, 797.11 2.59 M513.04 329.38 C594.92 235.18, 676.81 140.98, 797.11 2.59 M534.3 329.31 C643.58 203.59, 752.87 77.88, 818.37 2.52 M534.3 329.31 C592.38 262.5, 650.46 195.68, 818.37 2.52 M555.56 329.24 C625.91 248.31, 696.25 167.39, 839.63 2.45 M555.56 329.24 C663.68 204.86, 771.8 80.48, 839.63 2.45 M576.82 329.17 C636.26 260.79, 695.7 192.42, 860.89 2.38 M576.82 329.17 C633.85 263.56, 690.88 197.96, 860.89 2.38 M598.08 329.1 C665.57 251.46, 733.07 173.82, 882.15 2.31 M598.08 329.1 C700.43 211.36, 802.77 93.63, 882.15 2.31 M619.34 329.03 C706.9 228.3, 794.46 127.57, 903.41 2.24 M619.34 329.03 C712.62 221.72, 805.91 114.41, 903.41 2.24 M640.6 328.96 C737.64 217.33, 834.69 105.69, 924.67 2.17 M640.6 328.96 C700.42 260.15, 760.24 191.33, 924.67 2.17 M661.2 329.65 C758.18 218.09, 855.16 106.53, 945.93 2.1 M661.2 329.65 C721.35 260.46, 781.5 191.26, 945.93 2.1 M682.46 329.58 C775.85 222.16, 869.23 114.73, 967.19 2.04 M682.46 329.58 C766.76 232.61, 851.06 135.63, 967.19 2.04 M703.72 329.51 C784.38 236.72, 865.04 143.93, 987.8 2.72 M703.72 329.51 C776.03 246.33, 848.34 163.15, 987.8 2.72 M724.98 329.44 C805.56 236.75, 886.14 144.05, 1009.06 2.65 M724.98 329.44 C827.97 210.97, 930.95 92.51, 1009.06 2.65 M746.24 329.37 C812.91 252.69, 879.57 176, 1030.32 2.58 M746.24 329.37 C815.75 249.42, 885.25 169.46, 1030.32 2.58 M767.51 329.3 C828.42 259.22, 889.34 189.15, 1051.58 2.51 M767.51 329.3 C863.24 219.18, 958.97 109.05, 1051.58 2.51 M788.77 329.23 C847.82 261.29, 906.88 193.35, 1072.84 2.45 M788.77 329.23 C888 215.08, 987.24 100.92, 1072.84 2.45 M810.03 329.17 C879.58 249.15, 949.14 169.14, 1094.1 2.38 M810.03 329.17 C903.15 222.04, 996.27 114.92, 1094.1 2.38 M831.29 329.1 C927.17 218.79, 1023.06 108.49, 1115.36 2.31 M831.29 329.1 C921.46 225.36, 1011.63 121.63, 1115.36 2.31 M852.55 329.03 C914.51 257.74, 976.48 186.46, 1136.62 2.24 M852.55 329.03 C916.32 255.66, 980.1 182.3, 1136.62 2.24 M873.15 329.71 C951.8 239.24, 1030.45 148.77, 1157.88 2.17 M873.15 329.71 C952.63 238.28, 1032.12 146.84, 1157.88 2.17 M894.41 329.64 C978.78 232.59, 1063.14 135.54, 1179.14 2.1 M894.41 329.64 C979.22 232.08, 1064.04 134.51, 1179.14 2.1 M915.67 329.58 C1027.97 200.39, 1140.27 71.2, 1199.74 2.79 M915.67 329.58 C1013.94 216.53, 1112.21 103.48, 1199.74 2.79 M936.93 329.51 C1039.23 211.82, 1141.53 94.14, 1221 2.72 M936.93 329.51 C1050.55 198.8, 1164.17 68.09, 1221 2.72 M958.19 329.44 C1067.55 203.63, 1176.92 77.82, 1242.26 2.65 M958.19 329.44 C1017.97 260.67, 1077.75 191.9, 1242.26 2.65 M979.45 329.37 C1038.85 261.04, 1098.25 192.7, 1263.52 2.58 M979.45 329.37 C1082.88 210.38, 1186.32 91.4, 1263.52 2.58 M1000.71 329.3 C1072.89 246.26, 1145.07 163.23, 1284.78 2.51 M1000.71 329.3 C1099.17 216.04, 1197.62 102.78, 1284.78 2.51 M1021.97 329.23 C1124.67 211.09, 1227.36 92.96, 1306.04 2.44 M1021.97 329.23 C1080.16 262.3, 1138.34 195.36, 1306.04 2.44 M1043.23 329.16 C1137.06 221.23, 1230.89 113.29, 1327.3 2.37 M1043.23 329.16 C1102.76 260.68, 1162.3 192.19, 1327.3 2.37 M1064.49 329.09 C1136.74 245.98, 1208.99 162.86, 1348.57 2.3 M1064.49 329.09 C1154.8 225.2, 1245.12 121.31, 1348.57 2.3 M1085.1 329.78 C1159.11 244.63, 1233.13 159.48, 1369.83 2.23 M1085.1 329.78 C1152.23 252.54, 1219.37 175.31, 1369.83 2.23 M1106.36 329.71 C1175.65 249.99, 1244.95 170.28, 1391.09 2.17 M1106.36 329.71 C1186.21 237.85, 1266.06 145.99, 1391.09 2.17 M1127.62 329.64 C1186.77 261.59, 1245.92 193.54, 1411.69 2.85 M1127.62 329.64 C1196.63 250.24, 1265.65 170.85, 1411.69 2.85 M1148.88 329.57 C1206.58 263.2, 1264.27 196.82, 1432.95 2.78 M1148.88 329.57 C1220.1 247.64, 1291.32 165.71, 1432.95 2.78 M1170.14 329.5 C1243.71 244.86, 1317.29 160.22, 1454.21 2.71 M1170.14 329.5 C1235.46 254.35, 1300.79 179.2, 1454.21 2.71 M1191.4 329.43 C1284.24 222.63, 1377.08 115.83, 1475.47 2.64 M1191.4 329.43 C1296.01 209.09, 1400.63 88.74, 1475.47 2.64 M1212.66 329.36 C1273.28 259.62, 1333.91 189.88, 1494.76 4.84 M1212.66 329.36 C1319.01 207.01, 1425.37 84.66, 1494.76 4.84 M1233.92 329.3 C1323.24 226.54, 1412.57 123.78, 1507.49 14.58 M1233.92 329.3 C1330.74 217.92, 1427.56 106.53, 1507.49 14.58 M1255.18 329.23 C1358.4 210.48, 1461.63 91.73, 1514.98 30.36 M1255.18 329.23 C1318.96 255.85, 1382.74 182.48, 1514.98 30.36 M1276.44 329.16 C1332.07 265.16, 1387.69 201.17, 1515.24 54.44 M1276.44 329.16 C1350.39 244.08, 1424.35 159.01, 1515.24 54.44 M1297.04 329.84 C1350.87 267.92, 1404.7 205.99, 1515.51 78.52 M1297.04 329.84 C1379.65 234.81, 1462.26 139.78, 1515.51 78.52 M1318.3 329.77 C1396.17 240.2, 1474.04 150.62, 1515.12 103.36 M1318.3 329.77 C1381.07 257.57, 1443.83 185.37, 1515.12 103.36 M1339.56 329.71 C1396 264.78, 1452.45 199.85, 1515.39 127.44 M1339.56 329.71 C1392.1 269.26, 1444.64 208.82, 1515.39 127.44 M1360.82 329.64 C1404.43 279.47, 1448.03 229.31, 1515 152.28 M1360.82 329.64 C1398.76 285.99, 1436.71 242.34, 1515 152.28 M1382.08 329.57 C1421.88 283.79, 1461.67 238.01, 1515.26 176.36 M1382.08 329.57 C1423.73 281.65, 1465.38 233.74, 1515.26 176.36 M1403.34 329.5 C1434.93 293.16, 1466.52 256.82, 1515.53 200.44 M1403.34 329.5 C1441.16 285.99, 1478.98 242.49, 1515.53 200.44 M1424.6 329.43 C1458.66 290.25, 1492.72 251.07, 1515.14 225.28 M1424.6 329.43 C1452.34 297.53, 1480.07 265.62, 1515.14 225.28 M1445.86 329.36 C1466.56 305.55, 1487.25 281.75, 1515.4 249.36 M1445.86 329.36 C1461.09 311.85, 1476.31 294.33, 1515.4 249.36 M1467.12 329.29 C1479.97 314.51, 1492.82 299.74, 1515.02 274.2 M1467.12 329.29 C1483.75 310.16, 1500.38 291.03, 1515.02 274.2 M1487.73 329.98 C1495.42 321.13, 1503.12 312.27, 1509.38 305.07 M1487.73 329.98 C1494.22 322.51, 1500.71 315.04, 1509.38 305.07" stroke="#868e96" stroke-width="2" fill="none"></path><path d="M32 0 M32 0 C333.92 0, 635.85 0, 1477.42 0 M32 0 C443.08 0, 854.16 0, 1477.42 0 M1477.42 0 C1498.75 0, 1509.42 10.67, 1509.42 32 M1477.42 0 C1498.75 0, 1509.42 10.67, 1509.42 32 M1509.42 32 C1509.42 93.38, 1509.42 154.76, 1509.42 296.56 M1509.42 32 C1509.42 116.34, 1509.42 200.68, 1509.42 296.56 M1509.42 296.56 C1509.42 317.89, 1498.75 328.56, 1477.42 328.56 M1509.42 296.56 C1509.42 317.89, 1498.75 328.56, 1477.42 328.56 M1477.42 328.56 C927.33 328.56, 377.25 328.56, 32 328.56 M1477.42 328.56 C1026.9 328.56, 576.39 328.56, 32 328.56 M32 328.56 C10.67 328.56, 0 317.89, 0 296.56 M32 328.56 C10.67 328.56, 0 317.89, 0 296.56 M0 296.56 C0 223.87, 0 151.18, 0 32 M0 296.56 C0 221.1, 0 145.63, 0 32 M0 32 C0 10.67, 10.67 0, 32 0 M0 32 C0 10.67, 10.67 0, 32 0" stroke="#1e1e1e" stroke-width="4" fill="none"></path></g><g transform="translate(168.89062970104533 750.8925067145174) rotate(0 345.5 58.971079010931135)"><text x="345.5" y="0" font-family="Cascadia, Segoe UI Emoji" font-size="98.285131684885px" fill="#1e1e1e" text-anchor="middle" style="white-space: pre;" direction="ltr" dominant-baseline="text-before-edge">t_buffer_new</text></g><g transform="translate(160.86607130148968 166.3948203300315) rotate(0 234.55172344739458 60.051208331518865)"><text x="234.55172344739466" y="0" font-family="Cascadia, Segoe UI Emoji" font-size="100.08534721919722px" fill="#1e1e1e" text-anchor="middle" style="white-space: pre;" direction="ltr" dominant-baseline="text-before-edge">t_buffer</text></g><g stroke-linecap="round" transform="translate(1277.9191031529836 294.3319938914028) rotate(0 186.89460427947233 163.1840947813307)"><path d="M7.86 8.16 C7.86 8.16, 7.86 8.16, 7.86 8.16 M7.86 8.16 C7.86 8.16, 7.86 8.16, 7.86 8.16 M8.78 31.49 C17.08 21.95, 25.37 12.41, 34.37 2.05 M8.78 31.49 C15.94 23.25, 23.1 15.02, 34.37 2.05 M8.39 56.32 C18.31 44.91, 28.23 33.51, 55.63 1.98 M8.39 56.32 C22.13 40.52, 35.87 24.72, 55.63 1.98 M8.66 80.4 C32.81 52.63, 56.95 24.85, 76.89 1.91 M8.66 80.4 C24.79 61.85, 40.93 43.29, 76.89 1.91 M8.27 105.24 C28.4 82.09, 48.52 58.93, 98.15 1.85 M8.27 105.24 C36.32 72.97, 64.37 40.71, 98.15 1.85 M8.54 129.32 C41.32 91.61, 74.1 53.9, 119.41 1.78 M8.54 129.32 C40.35 92.73, 72.16 56.13, 119.41 1.78 M8.15 154.16 C59.76 94.78, 111.38 35.41, 140.67 1.71 M8.15 154.16 C56.72 98.29, 105.28 42.42, 140.67 1.71 M8.41 178.24 C40.25 141.62, 72.09 104.99, 161.28 2.39 M8.41 178.24 C47.41 133.38, 86.41 88.51, 161.28 2.39 M8.68 202.32 C56.46 147.35, 104.25 92.38, 182.54 2.32 M8.68 202.32 C46.68 158.61, 84.68 114.9, 182.54 2.32 M8.29 227.16 C60.96 166.57, 113.63 105.98, 203.8 2.26 M8.29 227.16 C75.99 149.28, 143.69 71.4, 203.8 2.26 M8.56 251.24 C88.03 159.82, 167.49 68.4, 225.06 2.19 M8.56 251.24 C54.91 197.91, 101.27 144.59, 225.06 2.19 M8.17 276.08 C97.57 173.23, 186.97 70.39, 246.32 2.12 M8.17 276.08 C90.75 181.08, 173.33 86.08, 246.32 2.12 M4.5 304.69 C76.02 222.41, 147.55 140.13, 267.58 2.05 M4.5 304.69 C78.21 219.89, 151.93 135.09, 267.58 2.05 M11.32 321.22 C106.07 212.23, 200.81 103.24, 288.84 1.98 M11.32 321.22 C73.56 249.62, 135.8 178.03, 288.84 1.98 M26.68 327.94 C115.62 225.63, 204.56 123.32, 310.1 1.91 M26.68 327.94 C118.82 221.95, 210.97 115.95, 310.1 1.91 M42.03 334.67 C129.21 234.38, 216.39 134.09, 331.36 1.84 M42.03 334.67 C136.85 225.59, 231.67 116.52, 331.36 1.84 M63.29 334.6 C160.32 222.99, 257.34 111.37, 351.96 2.53 M63.29 334.6 C132.12 255.43, 200.94 176.26, 351.96 2.53 M83.9 335.28 C171.13 234.94, 258.35 134.6, 367.32 9.25 M83.9 335.28 C193.67 209.01, 303.44 82.74, 367.32 9.25 M105.16 335.22 C186.07 242.14, 266.98 149.06, 374.14 25.79 M105.16 335.22 C183.4 245.21, 261.64 155.2, 374.14 25.79 M126.42 335.15 C211.62 237.13, 296.82 139.12, 382.94 40.06 M126.42 335.15 C207.08 242.36, 287.74 149.57, 382.94 40.06 M147.68 335.08 C215.66 256.87, 283.65 178.67, 383.2 64.14 M147.68 335.08 C226.48 244.43, 305.29 153.77, 383.2 64.14 M168.94 335.01 C225.53 269.91, 282.12 204.82, 382.82 88.97 M168.94 335.01 C212.1 285.36, 255.25 235.72, 382.82 88.97 M190.2 334.94 C247.9 268.56, 305.6 202.19, 383.08 113.06 M190.2 334.94 C229.32 289.94, 268.44 244.94, 383.08 113.06 M211.46 334.87 C265.22 273.03, 318.98 211.18, 382.69 137.89 M211.46 334.87 C266.82 271.19, 322.17 207.51, 382.69 137.89 M232.72 334.8 C270.37 291.5, 308.01 248.19, 382.96 161.97 M232.72 334.8 C279.31 281.2, 325.91 227.6, 382.96 161.97 M253.98 334.73 C280.86 303.82, 307.73 272.9, 383.22 186.06 M253.98 334.73 C297.16 285.06, 340.35 235.38, 383.22 186.06 M275.24 334.66 C316.12 287.64, 357 240.61, 382.83 210.89 M275.24 334.66 C302.39 303.43, 329.54 272.2, 382.83 210.89 M296.5 334.6 C330.52 295.46, 364.55 256.32, 383.1 234.97 M296.5 334.6 C319.94 307.63, 343.39 280.66, 383.1 234.97 M317.11 335.28 C333.05 316.94, 348.99 298.6, 382.71 259.81 M317.11 335.28 C330.65 319.7, 344.2 304.12, 382.71 259.81 M344.27 328.42 C351.18 320.47, 358.08 312.53, 373.79 294.46 M344.27 328.42 C354.62 316.51, 364.98 304.6, 373.79 294.46" stroke="#a5d8ff" stroke-width="2" fill="none"></path><path d="M32 0 M32 0 C129.35 0, 226.71 0, 341.79 0 M32 0 C134.49 0, 236.98 0, 341.79 0 M341.79 0 C363.12 0, 373.79 10.67, 373.79 32 M341.79 0 C363.12 0, 373.79 10.67, 373.79 32 M373.79 32 C373.79 123.9, 373.79 215.81, 373.79 294.37 M373.79 32 C373.79 106.23, 373.79 180.47, 373.79 294.37 M373.79 294.37 C373.79 315.7, 363.12 326.37, 341.79 326.37 M373.79 294.37 C373.79 315.7, 363.12 326.37, 341.79 326.37 M341.79 326.37 C277.11 326.37, 212.44 326.37, 32 326.37 M341.79 326.37 C274.93 326.37, 208.06 326.37, 32 326.37 M32 326.37 C10.67 326.37, 0 315.7, 0 294.37 M32 326.37 C10.67 326.37, 0 315.7, 0 294.37 M0 294.37 C0 237.55, 0 180.73, 0 32 M0 294.37 C0 231.71, 0 169.05, 0 32 M0 32 C0 10.67, 10.67 0, 32 0 M0 32 C0 10.67, 10.67 0, 32 0" stroke="#1e1e1e" stroke-width="4" fill="none"></path></g><g transform="translate(3122.7176704478998 367.11779965830283) rotate(0 427.48333740234375 67.34724236687725)"><text x="427.48333740234375" y="0" font-family="Cascadia, Segoe UI Emoji" font-size="112.24540394479573px" fill="#1e1e1e" text-anchor="middle" style="white-space: pre;" direction="ltr" dominant-baseline="text-before-edge">Memory buffer</text></g><g transform="translate(1310.1924724420342 341.06986004810096) rotate(0 155.6666717529297 119.54500064181957)"><text x="155.6666717529297" y="0" font-family="Cascadia, Segoe UI Emoji" font-size="66.41388924545572px" fill="#1e1e1e" text-anchor="middle" style="white-space: pre;" direction="ltr" dominant-baseline="text-before-edge">T object</text><text x="155.6666717529297" y="79.69666709454687" font-family="Cascadia, Segoe UI Emoji" font-size="66.41388924545572px" fill="#1e1e1e" text-anchor="middle" style="white-space: pre;" direction="ltr" dominant-baseline="text-before-edge"></text><text x="155.6666717529297" y="159.39333418909374" font-family="Cascadia, Segoe UI Emoji" font-size="66.41388924545572px" fill="#1e1e1e" text-anchor="middle" style="white-space: pre;" direction="ltr" dominant-baseline="text-before-edge">#4</text></g><g stroke-linecap="round" transform="translate(900.2158793706649 295.1772883476551) rotate(0 186.89460427947233 163.1840947813307)"><path d="M7.86 8.16 C7.86 8.16, 7.86 8.16, 7.86 8.16 M7.86 8.16 C7.86 8.16, 7.86 8.16, 7.86 8.16 M8.78 31.49 C17.36 21.62, 25.93 11.76, 34.37 2.05 M8.78 31.49 C16.13 23.04, 23.47 14.59, 34.37 2.05 M8.39 56.32 C22.57 40.01, 36.75 23.7, 55.63 1.98 M8.39 56.32 C19.87 43.13, 31.34 29.93, 55.63 1.98 M8.66 80.4 C23.7 63.11, 38.73 45.81, 76.89 1.91 M8.66 80.4 C32.36 53.14, 56.06 25.88, 76.89 1.91 M8.27 105.24 C36.45 72.83, 64.62 40.42, 98.15 1.85 M8.27 105.24 C39.95 68.8, 71.63 32.35, 98.15 1.85 M8.54 129.32 C40.93 92.06, 73.32 54.8, 119.41 1.78 M8.54 129.32 C41.42 91.5, 74.3 53.68, 119.41 1.78 M8.15 154.16 C48.09 108.21, 88.03 62.27, 140.67 1.71 M8.15 154.16 C56.75 98.25, 105.35 42.34, 140.67 1.71 M8.41 178.24 C47.58 133.19, 86.74 88.13, 161.28 2.39 M8.41 178.24 C63.69 114.66, 118.96 51.07, 161.28 2.39 M8.68 202.32 C74.57 126.52, 140.46 50.73, 182.54 2.32 M8.68 202.32 C70.11 131.65, 131.55 60.98, 182.54 2.32 M8.29 227.16 C74.19 151.35, 140.09 75.54, 203.8 2.26 M8.29 227.16 C76.87 148.27, 145.44 69.39, 203.8 2.26 M8.56 251.24 C90.87 156.55, 173.18 61.86, 225.06 2.19 M8.56 251.24 C86.76 161.27, 164.97 71.3, 225.06 2.19 M8.17 276.08 C74.37 199.91, 140.58 123.75, 246.32 2.12 M8.17 276.08 C68.57 206.59, 128.97 137.11, 246.32 2.12 M4.5 304.69 C72.27 226.72, 140.04 148.76, 267.58 2.05 M4.5 304.69 C62.52 237.94, 120.54 171.19, 267.58 2.05 M11.32 321.22 C105.96 212.35, 200.6 103.49, 288.84 1.98 M11.32 321.22 C78.2 244.29, 145.08 167.36, 288.84 1.98 M26.68 327.94 C106.79 235.79, 186.89 143.64, 310.1 1.91 M26.68 327.94 C123.81 216.21, 220.95 104.47, 310.1 1.91 M42.03 334.67 C130.82 232.54, 219.6 130.4, 331.36 1.84 M42.03 334.67 C118.67 246.51, 195.31 158.35, 331.36 1.84 M63.29 334.6 C134.14 253.1, 204.99 171.6, 351.96 2.53 M63.29 334.6 C155.79 228.19, 248.29 121.79, 351.96 2.53 M83.9 335.28 C161.85 245.61, 239.81 155.93, 367.32 9.25 M83.9 335.28 C157.2 250.96, 230.5 166.64, 367.32 9.25 M105.16 335.22 C173.71 256.36, 242.26 177.5, 374.14 25.79 M105.16 335.22 C193.28 233.85, 281.4 132.47, 374.14 25.79 M126.42 335.15 C194.1 257.28, 261.79 179.42, 382.94 40.06 M126.42 335.15 C212.81 235.77, 299.2 136.39, 382.94 40.06 M147.68 335.08 C227.41 243.35, 307.15 151.63, 383.2 64.14 M147.68 335.08 C222.91 248.54, 298.14 161.99, 383.2 64.14 M168.94 335.01 C213.91 283.27, 258.89 231.53, 382.82 88.97 M168.94 335.01 C253.44 237.8, 337.95 140.59, 382.82 88.97 M190.2 334.94 C237.05 281.05, 283.9 227.15, 383.08 113.06 M190.2 334.94 C235 283.4, 279.81 231.86, 383.08 113.06 M211.46 334.87 C274.83 261.97, 338.2 189.07, 382.69 137.89 M211.46 334.87 C264.66 273.67, 317.86 212.47, 382.69 137.89 M232.72 334.8 C267.73 294.53, 302.74 254.25, 382.96 161.97 M232.72 334.8 C290.4 268.45, 348.08 202.1, 382.96 161.97 M253.98 334.73 C295.05 287.48, 336.13 240.23, 383.22 186.06 M253.98 334.73 C298.16 283.91, 342.34 233.09, 383.22 186.06 M275.24 334.66 C306.75 298.42, 338.26 262.17, 382.83 210.89 M275.24 334.66 C304.63 300.85, 334.03 267.04, 382.83 210.89 M296.5 334.6 C326.52 300.06, 356.54 265.53, 383.1 234.97 M296.5 334.6 C324.91 301.91, 353.32 269.23, 383.1 234.97 M317.11 335.28 C338.43 310.75, 359.75 286.22, 382.71 259.81 M317.11 335.28 C342.06 306.58, 367.01 277.88, 382.71 259.81 M344.27 328.42 C352.2 319.29, 360.13 310.17, 373.79 294.46 M344.27 328.42 C352.84 318.56, 361.4 308.71, 373.79 294.46" stroke="#a5d8ff" stroke-width="2" fill="none"></path><path d="M32 0 M32 0 C140.69 0, 249.39 0, 341.79 0 M32 0 C145.6 0, 259.21 0, 341.79 0 M341.79 0 C363.12 0, 373.79 10.67, 373.79 32 M341.79 0 C363.12 0, 373.79 10.67, 373.79 32 M373.79 32 C373.79 133.53, 373.79 235.07, 373.79 294.37 M373.79 32 C373.79 127.76, 373.79 223.52, 373.79 294.37 M373.79 294.37 C373.79 315.7, 363.12 326.37, 341.79 326.37 M373.79 294.37 C373.79 315.7, 363.12 326.37, 341.79 326.37 M341.79 326.37 C243.51 326.37, 145.24 326.37, 32 326.37 M341.79 326.37 C274.77 326.37, 207.75 326.37, 32 326.37 M32 326.37 C10.67 326.37, 0 315.7, 0 294.37 M32 326.37 C10.67 326.37, 0 315.7, 0 294.37 M0 294.37 C0 208.05, 0 121.73, 0 32 M0 294.37 C0 215.46, 0 136.55, 0 32 M0 32 C0 10.67, 10.67 0, 32 0 M0 32 C0 10.67, 10.67 0, 32 0" stroke="#1e1e1e" stroke-width="4" fill="none"></path></g><g transform="translate(932.4892486597155 341.91515450435327) rotate(0 155.6666717529297 119.54500064181957)"><text x="155.6666717529297" y="0" font-family="Cascadia, Segoe UI Emoji" font-size="66.41388924545572px" fill="#1e1e1e" text-anchor="middle" style="white-space: pre;" direction="ltr" dominant-baseline="text-before-edge">T object</text><text x="155.6666717529297" y="79.69666709454687" font-family="Cascadia, Segoe UI Emoji" font-size="66.41388924545572px" fill="#1e1e1e" text-anchor="middle" style="white-space: pre;" direction="ltr" dominant-baseline="text-before-edge"></text><text x="155.6666717529297" y="159.39333418909374" font-family="Cascadia, Segoe UI Emoji" font-size="66.41388924545572px" fill="#1e1e1e" text-anchor="middle" style="white-space: pre;" direction="ltr" dominant-baseline="text-before-edge">#3</text></g><g stroke-linecap="round" transform="translate(522.4560510488691 296.65655364611666) rotate(0 186.89460427947233 163.1840947813307)"><path d="M7.86 8.16 C7.86 8.16, 7.86 8.16, 7.86 8.16 M7.86 8.16 C7.86 8.16, 7.86 8.16, 7.86 8.16 M8.78 31.49 C14.7 24.69, 20.61 17.89, 34.37 2.05 M8.78 31.49 C15.79 23.43, 22.79 15.37, 34.37 2.05 M8.39 56.32 C21.74 40.97, 35.08 25.62, 55.63 1.98 M8.39 56.32 C21.12 41.69, 33.84 27.05, 55.63 1.98 M8.66 80.4 C30.65 55.11, 52.64 29.81, 76.89 1.91 M8.66 80.4 C35.55 49.48, 62.43 18.55, 76.89 1.91 M8.27 105.24 C28.23 82.28, 48.18 59.33, 98.15 1.85 M8.27 105.24 C33.75 75.93, 59.24 46.61, 98.15 1.85 M8.54 129.32 C38.83 94.47, 69.13 59.62, 119.41 1.78 M8.54 129.32 C45.64 86.64, 82.75 43.95, 119.41 1.78 M8.15 154.16 C51.2 104.63, 94.26 55.1, 140.67 1.71 M8.15 154.16 C56.95 98.02, 105.76 41.87, 140.67 1.71 M8.41 178.24 C57.46 121.82, 106.51 65.4, 161.28 2.39 M8.41 178.24 C52.96 127, 97.51 75.75, 161.28 2.39 M8.68 202.32 C49.96 154.83, 91.25 107.34, 182.54 2.32 M8.68 202.32 C71.27 130.32, 133.87 58.31, 182.54 2.32 M8.29 227.16 C51.48 177.47, 94.67 127.78, 203.8 2.26 M8.29 227.16 C55.48 172.88, 102.66 118.6, 203.8 2.26 M8.56 251.24 C78.9 170.32, 149.24 89.41, 225.06 2.19 M8.56 251.24 C68.41 182.39, 128.27 113.53, 225.06 2.19 M8.17 276.08 C67.22 208.15, 126.27 140.22, 246.32 2.12 M8.17 276.08 C89.8 182.17, 171.43 88.27, 246.32 2.12 M4.5 304.69 C75.81 222.65, 147.13 140.61, 267.58 2.05 M4.5 304.69 C87.76 208.9, 171.03 113.11, 267.58 2.05 M11.32 321.22 C121 195.06, 230.67 68.9, 288.84 1.98 M11.32 321.22 C104.35 214.2, 197.38 107.19, 288.84 1.98 M26.68 327.94 C105.65 237.1, 184.62 146.25, 310.1 1.91 M26.68 327.94 C100.46 243.07, 174.24 158.2, 310.1 1.91 M42.03 334.67 C150.44 209.97, 258.84 85.27, 331.36 1.84 M42.03 334.67 C140.26 221.67, 238.49 108.67, 331.36 1.84 M63.29 334.6 C140.94 245.28, 218.58 155.96, 351.96 2.53 M63.29 334.6 C141.05 245.16, 218.8 155.71, 351.96 2.53 M83.9 335.28 C145.44 264.49, 206.98 193.69, 367.32 9.25 M83.9 335.28 C156.93 251.27, 229.97 167.25, 367.32 9.25 M105.16 335.22 C181.07 247.89, 256.98 160.57, 374.14 25.79 M105.16 335.22 C182.16 246.64, 259.16 158.06, 374.14 25.79 M126.42 335.15 C196.22 254.85, 266.02 174.55, 382.94 40.06 M126.42 335.15 C222.12 225.06, 317.81 114.97, 382.94 40.06 M147.68 335.08 C212.97 259.96, 278.27 184.85, 383.2 64.14 M147.68 335.08 C203.02 271.42, 258.36 207.75, 383.2 64.14 M168.94 335.01 C213.39 283.87, 257.85 232.73, 382.82 88.97 M168.94 335.01 C243.83 248.86, 318.72 162.7, 382.82 88.97 M190.2 334.94 C254.18 261.34, 318.15 187.75, 383.08 113.06 M190.2 334.94 C232.76 285.98, 275.32 237.02, 383.08 113.06 M211.46 334.87 C247.65 293.24, 283.85 251.6, 382.69 137.89 M211.46 334.87 C251.67 288.62, 291.87 242.37, 382.69 137.89 M232.72 334.8 C269.07 292.98, 305.42 251.17, 382.96 161.97 M232.72 334.8 C282.26 277.81, 331.81 220.82, 382.96 161.97 M253.98 334.73 C304.18 276.98, 354.38 219.23, 383.22 186.06 M253.98 334.73 C286.81 296.96, 319.65 259.19, 383.22 186.06 M275.24 334.66 C310.01 294.66, 344.78 254.66, 382.83 210.89 M275.24 334.66 C299.98 306.2, 324.72 277.74, 382.83 210.89 M296.5 334.6 C327.98 298.38, 359.47 262.16, 383.1 234.97 M296.5 334.6 C315.22 313.06, 333.94 291.53, 383.1 234.97 M317.11 335.28 C330.83 319.49, 344.56 303.7, 382.71 259.81 M317.11 335.28 C341.39 307.34, 365.67 279.41, 382.71 259.81 M344.27 328.42 C352.53 318.91, 360.8 309.4, 373.79 294.46 M344.27 328.42 C353.44 317.87, 362.62 307.31, 373.79 294.46" stroke="#a5d8ff" stroke-width="2" fill="none"></path><path d="M32 0 M32 0 C110.31 0, 188.61 0, 341.79 0 M32 0 C149.89 0, 267.77 0, 341.79 0 M341.79 0 C363.12 0, 373.79 10.67, 373.79 32 M341.79 0 C363.12 0, 373.79 10.67, 373.79 32 M373.79 32 C373.79 89.71, 373.79 147.42, 373.79 294.37 M373.79 32 C373.79 93.88, 373.79 155.75, 373.79 294.37 M373.79 294.37 C373.79 315.7, 363.12 326.37, 341.79 326.37 M373.79 294.37 C373.79 315.7, 363.12 326.37, 341.79 326.37 M341.79 326.37 C262.24 326.37, 182.7 326.37, 32 326.37 M341.79 326.37 C263.03 326.37, 184.26 326.37, 32 326.37 M32 326.37 C10.67 326.37, 0 315.7, 0 294.37 M32 326.37 C10.67 326.37, 0 315.7, 0 294.37 M0 294.37 C0 216.93, 0 139.49, 0 32 M0 294.37 C0 200.25, 0 106.14, 0 32 M0 32 C0 10.67, 10.67 0, 32 0 M0 32 C0 10.67, 10.67 0, 32 0" stroke="#1e1e1e" stroke-width="4" fill="none"></path></g><g transform="translate(554.7294203379197 343.3944198028148) rotate(0 155.6666717529297 119.54500064181957)"><text x="155.6666717529297" y="0" font-family="Cascadia, Segoe UI Emoji" font-size="66.41388924545572px" fill="#1e1e1e" text-anchor="middle" style="white-space: pre;" direction="ltr" dominant-baseline="text-before-edge">T object</text><text x="155.6666717529297" y="79.69666709454687" font-family="Cascadia, Segoe UI Emoji" font-size="66.41388924545572px" fill="#1e1e1e" text-anchor="middle" style="white-space: pre;" direction="ltr" dominant-baseline="text-before-edge"></text><text x="155.6666717529297" y="159.39333418909374" font-family="Cascadia, Segoe UI Emoji" font-size="66.41388924545572px" fill="#1e1e1e" text-anchor="middle" style="white-space: pre;" direction="ltr" dominant-baseline="text-before-edge">#2</text></g><g stroke-linecap="round" transform="translate(144.7528272665504 297.50184810236897) rotate(0 186.89460427947233 163.1840947813307)"><path d="M7.86 8.16 C7.86 8.16, 7.86 8.16, 7.86 8.16 M7.86 8.16 C7.86 8.16, 7.86 8.16, 7.86 8.16 M8.78 31.49 C14.16 25.31, 19.53 19.13, 34.37 2.05 M8.78 31.49 C16.22 22.93, 23.67 14.37, 34.37 2.05 M8.39 56.32 C25.11 37.09, 41.83 17.86, 55.63 1.98 M8.39 56.32 C19.56 43.47, 30.73 30.63, 55.63 1.98 M8.66 80.4 C23.94 62.83, 39.22 45.25, 76.89 1.91 M8.66 80.4 C29.95 55.91, 51.25 31.41, 76.89 1.91 M8.27 105.24 C34.84 74.67, 61.42 44.1, 98.15 1.85 M8.27 105.24 C34.06 75.57, 59.85 45.91, 98.15 1.85 M8.54 129.32 C51.72 79.65, 94.9 29.97, 119.41 1.78 M8.54 129.32 C49.17 82.58, 89.8 35.84, 119.41 1.78 M8.15 154.16 C35.75 122.41, 63.35 90.65, 140.67 1.71 M8.15 154.16 C41.96 115.26, 75.77 76.37, 140.67 1.71 M8.41 178.24 C50.43 129.91, 92.44 81.58, 161.28 2.39 M8.41 178.24 C41.82 139.81, 75.23 101.37, 161.28 2.39 M8.68 202.32 C55.52 148.44, 102.35 94.56, 182.54 2.32 M8.68 202.32 C68.88 133.07, 129.08 63.81, 182.54 2.32 M8.29 227.16 C80.05 144.61, 151.82 62.05, 203.8 2.26 M8.29 227.16 C50.15 179, 92.01 130.85, 203.8 2.26 M8.56 251.24 C89.83 157.75, 171.1 64.25, 225.06 2.19 M8.56 251.24 C83.63 164.88, 158.7 78.52, 225.06 2.19 M8.17 276.08 C72.91 201.59, 137.66 127.11, 246.32 2.12 M8.17 276.08 C74.9 199.31, 141.63 122.55, 246.32 2.12 M4.5 304.69 C94.31 201.36, 184.13 98.04, 267.58 2.05 M4.5 304.69 C63.5 236.81, 122.5 168.94, 267.58 2.05 M11.32 321.22 C98.41 221.04, 185.49 120.86, 288.84 1.98 M11.32 321.22 C101.55 217.43, 191.77 113.64, 288.84 1.98 M26.68 327.94 C112.08 229.7, 197.48 131.46, 310.1 1.91 M26.68 327.94 C119.56 221.09, 212.45 114.24, 310.1 1.91 M42.03 334.67 C139.28 222.8, 236.52 110.93, 331.36 1.84 M42.03 334.67 C111.01 255.32, 179.99 175.97, 331.36 1.84 M63.29 334.6 C152.14 232.4, 240.98 130.19, 351.96 2.53 M63.29 334.6 C175.1 205.99, 286.9 77.37, 351.96 2.53 M83.9 335.28 C169.15 237.21, 254.41 139.14, 367.32 9.25 M83.9 335.28 C166.34 240.45, 248.78 145.61, 367.32 9.25 M105.16 335.22 C194.5 232.44, 283.84 129.66, 374.14 25.79 M105.16 335.22 C189.74 237.92, 274.31 140.63, 374.14 25.79 M126.42 335.15 C200.46 249.97, 274.51 164.79, 382.94 40.06 M126.42 335.15 C212.25 236.41, 298.07 137.68, 382.94 40.06 M147.68 335.08 C210 263.39, 272.31 191.71, 383.2 64.14 M147.68 335.08 C195.21 280.41, 242.73 225.73, 383.2 64.14 M168.94 335.01 C232.92 261.41, 296.9 187.81, 382.82 88.97 M168.94 335.01 C212.32 285.11, 255.7 235.21, 382.82 88.97 M190.2 334.94 C250.76 265.28, 311.32 195.61, 383.08 113.06 M190.2 334.94 C252.56 263.21, 314.91 191.47, 383.08 113.06 M211.46 334.87 C254.37 285.51, 297.27 236.15, 382.69 137.89 M211.46 334.87 C264.56 273.78, 317.67 212.69, 382.69 137.89 M232.72 334.8 C263.96 298.86, 295.2 262.93, 382.96 161.97 M232.72 334.8 C282.92 277.06, 333.11 219.31, 382.96 161.97 M253.98 334.73 C303.08 278.24, 352.19 221.76, 383.22 186.06 M253.98 334.73 C286.59 297.22, 319.21 259.7, 383.22 186.06 M275.24 334.66 C317.51 286.04, 359.78 237.41, 382.83 210.89 M275.24 334.66 C304.37 301.16, 333.49 267.65, 382.83 210.89 M296.5 334.6 C317.54 310.39, 338.59 286.18, 383.1 234.97 M296.5 334.6 C314.38 314.03, 332.26 293.46, 383.1 234.97 M317.11 335.28 C332.45 317.63, 347.8 299.97, 382.71 259.81 M317.11 335.28 C340.11 308.81, 363.12 282.34, 382.71 259.81 M344.27 328.42 C353.55 317.75, 362.82 307.07, 373.79 294.46 M344.27 328.42 C354.04 317.18, 363.8 305.95, 373.79 294.46" stroke="#a5d8ff" stroke-width="2" fill="none"></path><path d="M32 0 M32 0 C98.6 0, 165.19 0, 341.79 0 M32 0 C147.57 0, 263.15 0, 341.79 0 M341.79 0 C363.12 0, 373.79 10.67, 373.79 32 M341.79 0 C363.12 0, 373.79 10.67, 373.79 32 M373.79 32 C373.79 100.43, 373.79 168.86, 373.79 294.37 M373.79 32 C373.79 120.83, 373.79 209.66, 373.79 294.37 M373.79 294.37 C373.79 315.7, 363.12 326.37, 341.79 326.37 M373.79 294.37 C373.79 315.7, 363.12 326.37, 341.79 326.37 M341.79 326.37 C235.22 326.37, 128.66 326.37, 32 326.37 M341.79 326.37 C245.75 326.37, 149.71 326.37, 32 326.37 M32 326.37 C10.67 326.37, 0 315.7, 0 294.37 M32 326.37 C10.67 326.37, 0 315.7, 0 294.37 M0 294.37 C0 218.03, 0 141.69, 0 32 M0 294.37 C0 241.02, 0 187.67, 0 32 M0 32 C0 10.67, 10.67 0, 32 0 M0 32 C0 10.67, 10.67 0, 32 0" stroke="#1e1e1e" stroke-width="4" fill="none"></path></g><g transform="translate(177.02619655560102 344.2397142590744) rotate(0 155.6666717529297 119.54500064181957)"><text x="155.6666717529297" y="0" font-family="Cascadia, Segoe UI Emoji" font-size="66.41388924545572px" fill="#1e1e1e" text-anchor="middle" style="white-space: pre;" direction="ltr" dominant-baseline="text-before-edge">T object</text><text x="155.6666717529297" y="79.69666709454687" font-family="Cascadia, Segoe UI Emoji" font-size="66.41388924545572px" fill="#1e1e1e" text-anchor="middle" style="white-space: pre;" direction="ltr" dominant-baseline="text-before-edge"></text><text x="155.6666717529297" y="159.39333418909374" font-family="Cascadia, Segoe UI Emoji" font-size="66.41388924545572px" fill="#1e1e1e" text-anchor="middle" style="white-space: pre;" direction="ltr" dominant-baseline="text-before-edge">#1</text></g><g transform="translate(745.504986584775 981.9864582382397) rotate(0 424.6666564941406 66.89770524107007)"><text x="424.6666564941406" y="0" font-family="Cascadia, Segoe UI Emoji" font-size="111.49617540178372px" fill="#1e1e1e" text-anchor="middle" style="white-space: pre;" direction="ltr" dominant-baseline="text-before-edge">Memory buffer</text></g><g stroke-linecap="round" transform="translate(3932.0159412877792 859.8358161339238) rotate(0 188.15049284745714 164.2806542026301)"><path d="M7.86 8.16 C7.86 8.16, 7.86 8.16, 7.86 8.16 M7.86 8.16 C7.86 8.16, 7.86 8.16, 7.86 8.16 M8.78 31.49 C16.46 22.65, 24.14 13.82, 34.37 2.05 M8.78 31.49 C15 24.34, 21.21 17.19, 34.37 2.05 M8.39 56.32 C18.8 44.35, 29.21 32.37, 55.63 1.98 M8.39 56.32 C24.8 37.45, 41.21 18.57, 55.63 1.98 M8.66 80.4 C30.05 55.8, 51.44 31.19, 76.89 1.91 M8.66 80.4 C32.71 52.74, 56.76 25.07, 76.89 1.91 M8.27 105.24 C34.53 75.04, 60.79 44.83, 98.15 1.85 M8.27 105.24 C34.92 74.58, 61.58 43.92, 98.15 1.85 M8.54 129.32 C41.95 90.88, 75.37 52.44, 119.41 1.78 M8.54 129.32 C49.2 82.54, 89.86 35.77, 119.41 1.78 M8.15 154.16 C42.1 115.1, 76.05 76.04, 140.67 1.71 M8.15 154.16 C56.07 99.04, 103.98 43.91, 140.67 1.71 M8.41 178.24 C66.35 111.6, 124.28 44.95, 161.28 2.39 M8.41 178.24 C62.43 116.1, 116.45 53.96, 161.28 2.39 M8.68 202.32 C67.28 134.91, 125.88 67.49, 182.54 2.32 M8.68 202.32 C69.66 132.17, 130.64 62.02, 182.54 2.32 M8.29 227.16 C82.62 141.65, 156.95 56.15, 203.8 2.26 M8.29 227.16 C78.91 145.91, 149.54 64.67, 203.8 2.26 M8.56 251.24 C68.75 182, 128.93 112.76, 225.06 2.19 M8.56 251.24 C63.47 188.07, 118.38 124.91, 225.06 2.19 M8.17 276.08 C69.52 205.5, 130.87 134.93, 246.32 2.12 M8.17 276.08 C60.69 215.66, 113.21 155.23, 246.32 2.12 M3.18 306.2 C93.35 202.48, 183.51 98.76, 267.58 2.05 M3.18 306.2 C66.9 232.9, 130.61 159.61, 267.58 2.05 M10.01 322.73 C88.82 232.07, 167.63 141.41, 288.84 1.98 M10.01 322.73 C105.57 212.8, 201.13 102.87, 288.84 1.98 M25.37 329.45 C112.74 228.94, 200.11 128.43, 310.1 1.91 M25.37 329.45 C100.79 242.69, 176.21 155.93, 310.1 1.91 M40.72 336.18 C112.05 254.12, 183.38 172.06, 331.36 1.84 M40.72 336.18 C133.85 229.05, 226.98 121.91, 331.36 1.84 M61.98 336.11 C141.92 244.15, 221.86 152.19, 352.62 1.77 M61.98 336.11 C137.15 249.64, 212.32 163.17, 352.62 1.77 M83.24 336.04 C155.97 252.37, 228.7 168.71, 368.63 7.74 M83.24 336.04 C176.74 228.49, 270.23 120.94, 368.63 7.74 M104.5 335.97 C176.69 252.93, 248.87 169.89, 378.08 21.26 M104.5 335.97 C196.64 229.98, 288.77 123.99, 378.08 21.26 M125.76 335.9 C213.27 235.23, 300.78 134.57, 384.25 38.55 M125.76 335.9 C208.33 240.92, 290.89 145.94, 384.25 38.55 M147.02 335.83 C196.83 278.54, 246.63 221.25, 383.86 63.38 M147.02 335.83 C240.6 228.18, 334.18 120.54, 383.86 63.38 M167.63 336.52 C220.21 276.03, 272.8 215.53, 384.13 87.46 M167.63 336.52 C217.92 278.67, 268.21 220.81, 384.13 87.46 M188.89 336.45 C261.24 253.21, 333.6 169.98, 384.39 111.55 M188.89 336.45 C249.63 266.57, 310.37 196.7, 384.39 111.55 M210.15 336.38 C250.66 289.77, 291.18 243.17, 384 136.38 M210.15 336.38 C276.89 259.6, 343.64 182.82, 384 136.38 M231.41 336.31 C279.99 280.43, 328.57 224.54, 384.27 160.46 M231.41 336.31 C283.66 276.2, 335.91 216.09, 384.27 160.46 M252.67 336.24 C291.1 292.04, 329.52 247.83, 383.88 185.3 M252.67 336.24 C288.51 295.01, 324.36 253.77, 383.88 185.3 M273.93 336.17 C312.14 292.22, 350.34 248.27, 384.15 209.38 M273.93 336.17 C310.09 294.58, 346.24 252.98, 384.15 209.38 M295.19 336.1 C323.97 302.99, 352.76 269.88, 383.76 234.22 M295.19 336.1 C328.87 297.36, 362.56 258.61, 383.76 234.22 M316.45 336.04 C334.61 315.15, 352.76 294.26, 384.02 258.3 M316.45 336.04 C336.06 313.48, 355.67 290.92, 384.02 258.3 M337.71 335.97 C354.05 317.17, 370.4 298.36, 384.29 282.38 M337.71 335.97 C354.79 316.32, 371.87 296.67, 384.29 282.38" stroke="#a5d8ff" stroke-width="2" fill="none"></path><path d="M32 0 M32 0 C99.03 0, 166.07 0, 344.3 0 M32 0 C103.91 0, 175.82 0, 344.3 0 M344.3 0 C365.63 0, 376.3 10.67, 376.3 32 M344.3 0 C365.63 0, 376.3 10.67, 376.3 32 M376.3 32 C376.3 121.59, 376.3 211.18, 376.3 296.56 M376.3 32 C376.3 116.12, 376.3 200.24, 376.3 296.56 M376.3 296.56 C376.3 317.89, 365.63 328.56, 344.3 328.56 M376.3 296.56 C376.3 317.89, 365.63 328.56, 344.3 328.56 M344.3 328.56 C241.04 328.56, 137.79 328.56, 32 328.56 M344.3 328.56 C256.49 328.56, 168.68 328.56, 32 328.56 M32 328.56 C10.67 328.56, 0 317.89, 0 296.56 M32 328.56 C10.67 328.56, 0 317.89, 0 296.56 M0 296.56 C0 213.19, 0 129.83, 0 32 M0 296.56 C0 225.39, 0 154.22, 0 32 M0 32 C0 10.67, 10.67 0, 32 0 M0 32 C0 10.67, 10.67 0, 32 0" stroke="#1e1e1e" stroke-width="4" fill="none"></path></g><g transform="translate(3964.485558588948 906.8877499547198) rotate(0 156.73333740234375 120.34831543116161)"><text x="156.73333740234375" y="0" font-family="Cascadia, Segoe UI Emoji" font-size="66.86017523953424px" fill="#1e1e1e" text-anchor="middle" style="white-space: pre;" direction="ltr" dominant-baseline="text-before-edge">T object</text><text x="156.73333740234375" y="80.23221028744109" font-family="Cascadia, Segoe UI Emoji" font-size="66.86017523953424px" fill="#1e1e1e" text-anchor="middle" style="white-space: pre;" direction="ltr" dominant-baseline="text-before-edge"></text><text x="156.73333740234375" y="160.46442057488218" font-family="Cascadia, Segoe UI Emoji" font-size="66.86017523953424px" fill="#1e1e1e" text-anchor="middle" style="white-space: pre;" direction="ltr" dominant-baseline="text-before-edge">#4</text></g><g stroke-linecap="round" transform="translate(3551.77463909133 860.6867907736632) rotate(0 188.15049284745714 164.2806542026301)"><path d="M7.86 8.16 C7.86 8.16, 7.86 8.16, 7.86 8.16 M7.86 8.16 C7.86 8.16, 7.86 8.16, 7.86 8.16 M8.78 31.49 C16.01 23.17, 23.24 14.86, 34.37 2.05 M8.78 31.49 C15.68 23.56, 22.57 15.63, 34.37 2.05 M8.39 56.32 C23.62 38.81, 38.84 21.3, 55.63 1.98 M8.39 56.32 C27.01 34.91, 45.62 13.5, 55.63 1.98 M8.66 80.4 C23.81 62.98, 38.96 45.55, 76.89 1.91 M8.66 80.4 C28 58.15, 47.35 35.9, 76.89 1.91 M8.27 105.24 C32.83 76.99, 57.39 48.74, 98.15 1.85 M8.27 105.24 C38.35 70.64, 68.43 36.03, 98.15 1.85 M8.54 129.32 C44.56 87.88, 80.58 46.45, 119.41 1.78 M8.54 129.32 C49.37 82.35, 90.2 35.38, 119.41 1.78 M8.15 154.16 C50.67 105.24, 93.19 56.33, 140.67 1.71 M8.15 154.16 C46.77 109.73, 85.39 65.31, 140.67 1.71 M8.41 178.24 C44.71 136.48, 81.01 94.73, 161.28 2.39 M8.41 178.24 C63.45 114.93, 118.48 51.62, 161.28 2.39 M8.68 202.32 C47.09 158.14, 85.5 113.95, 182.54 2.32 M8.68 202.32 C50.64 154.05, 92.6 105.78, 182.54 2.32 M8.29 227.16 C71.81 154.09, 135.33 81.02, 203.8 2.26 M8.29 227.16 C62.34 164.98, 116.39 102.8, 203.8 2.26 M8.56 251.24 C62.24 189.49, 115.92 127.73, 225.06 2.19 M8.56 251.24 C82.77 165.87, 156.98 80.5, 225.06 2.19 M8.17 276.08 C72.72 201.81, 137.28 127.55, 246.32 2.12 M8.17 276.08 C83.54 189.37, 158.92 102.66, 246.32 2.12 M3.18 306.2 C107.67 186, 212.16 65.8, 267.58 2.05 M3.18 306.2 C91.82 204.24, 180.45 102.28, 267.58 2.05 M10.01 322.73 C87.7 233.36, 165.39 143.98, 288.84 1.98 M10.01 322.73 C82.6 239.23, 155.18 155.73, 288.84 1.98 M25.37 329.45 C132.05 206.73, 238.73 84.01, 310.1 1.91 M25.37 329.45 C122.04 218.25, 218.71 107.04, 310.1 1.91 M40.72 336.18 C118.89 246.25, 197.07 156.32, 331.36 1.84 M40.72 336.18 C119 246.12, 197.29 156.07, 331.36 1.84 M61.98 336.11 C125.09 263.51, 188.2 190.91, 352.62 1.77 M61.98 336.11 C136.88 249.95, 211.77 163.8, 352.62 1.77 M83.24 336.04 C163.78 243.39, 244.32 150.74, 368.63 7.74 M83.24 336.04 C164.94 242.06, 246.63 148.09, 368.63 7.74 M104.5 335.97 C178.95 250.33, 253.39 164.7, 378.08 21.26 M104.5 335.97 C206.56 218.56, 308.62 101.16, 378.08 21.26 M125.76 335.9 C197.42 253.47, 269.09 171.03, 384.25 38.55 M125.76 335.9 C186.5 266.03, 247.24 196.16, 384.25 38.55 M147.02 335.83 C196.25 279.2, 245.48 222.57, 383.86 63.38 M147.02 335.83 C229.96 240.43, 312.89 145.03, 383.86 63.38 M167.63 336.52 C239.44 253.91, 311.25 171.3, 384.13 87.46 M167.63 336.52 C215.4 281.56, 263.17 226.6, 384.13 87.46 M188.89 336.45 C230.21 288.91, 271.54 241.37, 384.39 111.55 M188.89 336.45 C234.79 283.64, 280.7 230.83, 384.39 111.55 M210.15 336.38 C252.21 287.99, 294.28 239.6, 384 136.38 M210.15 336.38 C267.48 270.43, 324.81 204.47, 384 136.38 M231.41 336.31 C290.78 268.01, 350.16 199.7, 384.27 160.46 M231.41 336.31 C270.24 291.64, 309.07 246.97, 384.27 160.46 M252.67 336.24 C295.07 287.46, 337.48 238.68, 383.88 185.3 M252.67 336.24 C282.84 301.53, 313.01 266.82, 383.88 185.3 M273.93 336.17 C314 290.08, 354.06 243.99, 384.15 209.38 M273.93 336.17 C297.75 308.77, 321.58 281.36, 384.15 209.38 M295.19 336.1 C313.72 314.79, 332.25 293.47, 383.76 234.22 M295.19 336.1 C327.97 298.39, 360.76 260.68, 383.76 234.22 M316.45 336.04 C335.37 314.27, 354.28 292.51, 384.02 258.3 M316.45 336.04 C337.45 311.88, 358.44 287.73, 384.02 258.3 M337.71 335.97 C349.48 322.42, 361.26 308.88, 384.29 282.38 M337.71 335.97 C355.43 315.58, 373.16 295.18, 384.29 282.38" stroke="#a5d8ff" stroke-width="2" fill="none"></path><path d="M32 0 M32 0 C156.83 0, 281.66 0, 344.3 0 M32 0 C128.36 0, 224.72 0, 344.3 0 M344.3 0 C365.63 0, 376.3 10.67, 376.3 32 M344.3 0 C365.63 0, 376.3 10.67, 376.3 32 M376.3 32 C376.3 127.26, 376.3 222.51, 376.3 296.56 M376.3 32 C376.3 93.37, 376.3 154.73, 376.3 296.56 M376.3 296.56 C376.3 317.89, 365.63 328.56, 344.3 328.56 M376.3 296.56 C376.3 317.89, 365.63 328.56, 344.3 328.56 M344.3 328.56 C243.09 328.56, 141.89 328.56, 32 328.56 M344.3 328.56 C276.14 328.56, 207.99 328.56, 32 328.56 M32 328.56 C10.67 328.56, 0 317.89, 0 296.56 M32 328.56 C10.67 328.56, 0 317.89, 0 296.56 M0 296.56 C0 194.5, 0 92.44, 0 32 M0 296.56 C0 208.06, 0 119.57, 0 32 M0 32 C0 10.67, 10.67 0, 32 0 M0 32 C0 10.67, 10.67 0, 32 0" stroke="#1e1e1e" stroke-width="4" fill="none"></path></g><g transform="translate(3584.244256392497 907.7387245944592) rotate(0 156.73333740234375 120.34831543116161)"><text x="156.73333740234375" y="0" font-family="Cascadia, Segoe UI Emoji" font-size="66.86017523953424px" fill="#1e1e1e" text-anchor="middle" style="white-space: pre;" direction="ltr" dominant-baseline="text-before-edge">T object</text><text x="156.73333740234375" y="80.23221028744109" font-family="Cascadia, Segoe UI Emoji" font-size="66.86017523953424px" fill="#1e1e1e" text-anchor="middle" style="white-space: pre;" direction="ltr" dominant-baseline="text-before-edge"></text><text x="156.73333740234375" y="160.46442057488218" font-family="Cascadia, Segoe UI Emoji" font-size="66.86017523953424px" fill="#1e1e1e" text-anchor="middle" style="white-space: pre;" direction="ltr" dominant-baseline="text-before-edge">#3</text></g><g stroke-linecap="round" transform="translate(3171.4763519859725 862.1759963932236) rotate(0 188.15049284745714 164.2806542026301)"><path d="M7.86 8.16 C7.86 8.16, 7.86 8.16, 7.86 8.16 M7.86 8.16 C7.86 8.16, 7.86 8.16, 7.86 8.16 M8.78 31.49 C17.84 21.07, 26.89 10.65, 34.37 2.05 M8.78 31.49 C14.83 24.53, 20.88 17.57, 34.37 2.05 M8.39 56.32 C18.97 44.15, 29.55 31.99, 55.63 1.98 M8.39 56.32 C23.14 39.36, 37.88 22.41, 55.63 1.98 M8.66 80.4 C28.83 57.2, 49 33.99, 76.89 1.91 M8.66 80.4 C28.24 57.88, 47.81 35.36, 76.89 1.91 M8.27 105.24 C43.28 64.97, 78.28 24.7, 98.15 1.85 M8.27 105.24 C41.21 67.35, 74.15 29.46, 98.15 1.85 M8.54 129.32 C31.63 102.76, 54.72 76.19, 119.41 1.78 M8.54 129.32 C36.83 96.78, 65.11 64.24, 119.41 1.78 M8.15 154.16 C44.57 112.26, 81 70.36, 140.67 1.71 M8.15 154.16 C37.11 120.84, 66.08 87.52, 140.67 1.71 M8.41 178.24 C49.59 130.87, 90.77 83.49, 161.28 2.39 M8.41 178.24 C61.35 117.35, 114.28 56.46, 161.28 2.39 M8.68 202.32 C72.5 128.91, 136.31 55.5, 182.54 2.32 M8.68 202.32 C45.91 159.5, 83.13 116.68, 182.54 2.32 M8.29 227.16 C81.68 142.73, 155.07 58.3, 203.8 2.26 M8.29 227.16 C76.08 149.17, 143.88 71.18, 203.8 2.26 M8.56 251.24 C67.42 183.53, 126.28 115.82, 225.06 2.19 M8.56 251.24 C69.22 181.45, 129.88 111.67, 225.06 2.19 M8.17 276.08 C89.47 182.54, 170.78 89.01, 246.32 2.12 M8.17 276.08 C61.58 214.64, 114.99 153.19, 246.32 2.12 M3.18 306.2 C86.15 210.75, 169.12 115.31, 267.58 2.05 M3.18 306.2 C89.14 207.31, 175.1 108.43, 267.58 2.05 M10.01 322.73 C94.03 226.08, 178.04 129.43, 288.84 1.98 M10.01 322.73 C101.39 217.61, 192.77 112.49, 288.84 1.98 M25.37 329.45 C121.07 219.36, 216.77 109.27, 310.1 1.91 M25.37 329.45 C93.25 251.36, 161.13 173.28, 310.1 1.91 M40.72 336.18 C130.17 233.28, 219.62 130.38, 331.36 1.84 M40.72 336.18 C153.29 206.69, 265.85 77.2, 331.36 1.84 M61.98 336.11 C149.41 235.54, 236.83 134.97, 352.62 1.77 M61.98 336.11 C146.52 238.86, 231.06 141.6, 352.62 1.77 M83.24 336.04 C178.03 227, 272.82 117.95, 368.63 7.74 M83.24 336.04 C172.98 232.81, 262.71 129.58, 368.63 7.74 M104.5 335.97 C183.47 245.13, 262.44 154.29, 378.08 21.26 M104.5 335.97 C196.04 230.67, 287.57 125.37, 378.08 21.26 M125.76 335.9 C194.15 257.23, 262.55 178.55, 384.25 38.55 M125.76 335.9 C177.92 275.9, 230.08 215.9, 384.25 38.55 M147.02 335.83 C217.87 254.33, 288.72 172.83, 383.86 63.38 M147.02 335.83 C195.06 280.57, 243.09 225.32, 383.86 63.38 M167.63 336.52 C235.6 258.32, 303.58 180.13, 384.13 87.46 M167.63 336.52 C237.62 256, 307.61 175.49, 384.13 87.46 M188.89 336.45 C237.88 280.09, 286.87 223.74, 384.39 111.55 M188.89 336.45 C249.52 266.7, 310.15 196.95, 384.39 111.55 M210.15 336.38 C246.3 294.79, 282.45 253.21, 384 136.38 M210.15 336.38 C268.24 269.56, 326.33 202.73, 384 136.38 M231.41 336.31 C289.49 269.5, 347.56 202.69, 384.27 160.46 M231.41 336.31 C269.98 291.94, 308.55 247.57, 384.27 160.46 M252.67 336.24 C304.22 276.94, 355.77 217.64, 383.88 185.3 M252.67 336.24 C288.19 295.38, 323.71 254.52, 383.88 185.3 M273.93 336.17 C300.71 305.36, 327.49 274.56, 384.15 209.38 M273.93 336.17 C296.69 310, 319.44 283.82, 384.15 209.38 M295.19 336.1 C315.91 312.27, 336.63 288.44, 383.76 234.22 M295.19 336.1 C326.25 300.37, 357.31 264.64, 383.76 234.22 M316.45 336.04 C337.68 311.61, 358.92 287.18, 384.02 258.3 M316.45 336.04 C338.8 310.32, 361.16 284.6, 384.02 258.3 M337.71 335.97 C347.72 324.45, 357.74 312.93, 384.29 282.38 M337.71 335.97 C355.09 315.98, 372.47 295.98, 384.29 282.38" stroke="#a5d8ff" stroke-width="2" fill="none"></path><path d="M32 0 M32 0 C152.86 0, 273.71 0, 344.3 0 M32 0 C145.99 0, 259.97 0, 344.3 0 M344.3 0 C365.63 0, 376.3 10.67, 376.3 32 M344.3 0 C365.63 0, 376.3 10.67, 376.3 32 M376.3 32 C376.3 115.93, 376.3 199.86, 376.3 296.56 M376.3 32 C376.3 89.24, 376.3 146.47, 376.3 296.56 M376.3 296.56 C376.3 317.89, 365.63 328.56, 344.3 328.56 M376.3 296.56 C376.3 317.89, 365.63 328.56, 344.3 328.56 M344.3 328.56 C241.55 328.56, 138.8 328.56, 32 328.56 M344.3 328.56 C250.37 328.56, 156.44 328.56, 32 328.56 M32 328.56 C10.67 328.56, 0 317.89, 0 296.56 M32 328.56 C10.67 328.56, 0 317.89, 0 296.56 M0 296.56 C0 234.16, 0 171.77, 0 32 M0 296.56 C0 229.54, 0 162.53, 0 32 M0 32 C0 10.67, 10.67 0, 32 0 M0 32 C0 10.67, 10.67 0, 32 0" stroke="#1e1e1e" stroke-width="4" fill="none"></path></g><g transform="translate(3203.9459692871415 909.2279302140196) rotate(0 156.73333740234375 120.34831543116161)"><text x="156.73333740234375" y="0" font-family="Cascadia, Segoe UI Emoji" font-size="66.86017523953424px" fill="#1e1e1e" text-anchor="middle" style="white-space: pre;" direction="ltr" dominant-baseline="text-before-edge">T object</text><text x="156.73333740234375" y="80.23221028744109" font-family="Cascadia, Segoe UI Emoji" font-size="66.86017523953424px" fill="#1e1e1e" text-anchor="middle" style="white-space: pre;" direction="ltr" dominant-baseline="text-before-edge"></text><text x="156.73333740234375" y="160.46442057488218" font-family="Cascadia, Segoe UI Emoji" font-size="66.86017523953424px" fill="#1e1e1e" text-anchor="middle" style="white-space: pre;" direction="ltr" dominant-baseline="text-before-edge">#2</text></g><g stroke-linecap="round" transform="translate(2791.235049789523 863.0269710329558) rotate(0 188.15049284745714 164.2806542026301)"><path d="M7.86 8.16 C7.86 8.16, 7.86 8.16, 7.86 8.16 M7.86 8.16 C7.86 8.16, 7.86 8.16, 7.86 8.16 M8.78 31.49 C15.3 23.99, 21.81 16.5, 34.37 2.05 M8.78 31.49 C17.32 21.67, 25.85 11.85, 34.37 2.05 M8.39 56.32 C24.04 38.33, 39.68 20.33, 55.63 1.98 M8.39 56.32 C26.12 35.94, 43.84 15.55, 55.63 1.98 M8.66 80.4 C29.53 56.39, 50.41 32.38, 76.89 1.91 M8.66 80.4 C23.72 63.08, 38.79 45.75, 76.89 1.91 M8.27 105.24 C33.26 76.49, 58.25 47.74, 98.15 1.85 M8.27 105.24 C38.33 70.66, 68.4 36.07, 98.15 1.85 M8.54 129.32 C47.83 84.12, 87.12 38.92, 119.41 1.78 M8.54 129.32 C47.81 84.14, 87.08 38.97, 119.41 1.78 M8.15 154.16 C59.39 95.22, 110.62 36.27, 140.67 1.71 M8.15 154.16 C55.09 100.15, 102.04 46.15, 140.67 1.71 M8.41 178.24 C55.63 123.92, 102.85 69.61, 161.28 2.39 M8.41 178.24 C55.45 124.13, 102.49 70.02, 161.28 2.39 M8.68 202.32 C56.52 147.28, 104.37 92.25, 182.54 2.32 M8.68 202.32 C69.36 132.51, 130.05 62.71, 182.54 2.32 M8.29 227.16 C85.91 137.87, 163.53 48.58, 203.8 2.26 M8.29 227.16 C54.53 173.97, 100.76 120.78, 203.8 2.26 M8.56 251.24 C69.34 181.32, 130.12 111.4, 225.06 2.19 M8.56 251.24 C55.03 197.78, 101.5 144.32, 225.06 2.19 M8.17 276.08 C95.13 176.03, 182.1 75.99, 246.32 2.12 M8.17 276.08 C74.12 200.2, 140.08 124.33, 246.32 2.12 M3.18 306.2 C71.68 227.4, 140.17 148.61, 267.58 2.05 M3.18 306.2 C63.5 236.81, 123.82 167.42, 267.58 2.05 M10.01 322.73 C87.67 233.39, 165.33 144.06, 288.84 1.98 M10.01 322.73 C106.7 211.5, 203.4 100.27, 288.84 1.98 M25.37 329.45 C134.89 203.47, 244.41 77.48, 310.1 1.91 M25.37 329.45 C95.92 248.29, 166.48 167.13, 310.1 1.91 M40.72 336.18 C133.99 228.88, 227.26 121.59, 331.36 1.84 M40.72 336.18 C140.96 220.86, 241.2 105.55, 331.36 1.84 M61.98 336.11 C163.93 218.84, 265.87 101.56, 352.62 1.77 M61.98 336.11 C153 231.4, 244.02 126.7, 352.62 1.77 M83.24 336.04 C195.97 206.36, 308.7 76.68, 368.63 7.74 M83.24 336.04 C183.55 220.64, 283.87 105.25, 368.63 7.74 M104.5 335.97 C205.57 219.71, 306.63 103.45, 378.08 21.26 M104.5 335.97 C171.55 258.84, 238.6 181.71, 378.08 21.26 M125.76 335.9 C209.04 240.1, 292.32 144.3, 384.25 38.55 M125.76 335.9 C184.69 268.11, 243.62 200.32, 384.25 38.55 M147.02 335.83 C234.98 234.65, 322.94 133.46, 383.86 63.38 M147.02 335.83 C205.18 268.93, 263.34 202.03, 383.86 63.38 M167.63 336.52 C220.14 276.11, 272.66 215.69, 384.13 87.46 M167.63 336.52 C214.61 282.47, 261.6 228.42, 384.13 87.46 M188.89 336.45 C229.2 290.08, 269.5 243.71, 384.39 111.55 M188.89 336.45 C247.13 269.45, 305.37 202.45, 384.39 111.55 M210.15 336.38 C247.54 293.37, 284.93 250.36, 384 136.38 M210.15 336.38 C269.71 267.87, 329.26 199.35, 384 136.38 M231.41 336.31 C268.41 293.75, 305.4 251.19, 384.27 160.46 M231.41 336.31 C287.46 271.83, 343.51 207.35, 384.27 160.46 M252.67 336.24 C281.18 303.44, 309.69 270.65, 383.88 185.3 M252.67 336.24 C280.19 304.58, 307.72 272.91, 383.88 185.3 M273.93 336.17 C314.27 289.77, 354.6 243.37, 384.15 209.38 M273.93 336.17 C317.76 285.75, 361.59 235.33, 384.15 209.38 M295.19 336.1 C325.8 300.89, 356.42 265.67, 383.76 234.22 M295.19 336.1 C313.35 315.21, 331.52 294.31, 383.76 234.22 M316.45 336.04 C342.38 306.2, 368.32 276.37, 384.02 258.3 M316.45 336.04 C337.94 311.32, 359.42 286.6, 384.02 258.3 M337.71 335.97 C347.74 324.43, 357.76 312.9, 384.29 282.38 M337.71 335.97 C351.5 320.1, 365.3 304.23, 384.29 282.38" stroke="#a5d8ff" stroke-width="2" fill="none"></path><path d="M32 0 M32 0 C100.69 0, 169.38 0, 344.3 0 M32 0 C105.65 0, 179.31 0, 344.3 0 M344.3 0 C365.63 0, 376.3 10.67, 376.3 32 M344.3 0 C365.63 0, 376.3 10.67, 376.3 32 M376.3 32 C376.3 99.93, 376.3 167.86, 376.3 296.56 M376.3 32 C376.3 99.26, 376.3 166.53, 376.3 296.56 M376.3 296.56 C376.3 317.89, 365.63 328.56, 344.3 328.56 M376.3 296.56 C376.3 317.89, 365.63 328.56, 344.3 328.56 M344.3 328.56 C252.12 328.56, 159.95 328.56, 32 328.56 M344.3 328.56 C232.27 328.56, 120.24 328.56, 32 328.56 M32 328.56 C10.67 328.56, 0 317.89, 0 296.56 M32 328.56 C10.67 328.56, 0 317.89, 0 296.56 M0 296.56 C0 238.84, 0 181.11, 0 32 M0 296.56 C0 243.04, 0 189.52, 0 32 M0 32 C0 10.67, 10.67 0, 32 0 M0 32 C0 10.67, 10.67 0, 32 0" stroke="#1e1e1e" stroke-width="4" fill="none"></path></g><g transform="translate(2823.704667090692 910.0789048537517) rotate(0 156.73333740234375 120.34831543116161)"><text x="156.73333740234375" y="0" font-family="Cascadia, Segoe UI Emoji" font-size="66.86017523953424px" fill="#1e1e1e" text-anchor="middle" style="white-space: pre;" direction="ltr" dominant-baseline="text-before-edge">T object</text><text x="156.73333740234375" y="80.23221028744109" font-family="Cascadia, Segoe UI Emoji" font-size="66.86017523953424px" fill="#1e1e1e" text-anchor="middle" style="white-space: pre;" direction="ltr" dominant-baseline="text-before-edge"></text><text x="156.73333740234375" y="160.46442057488218" font-family="Cascadia, Segoe UI Emoji" font-size="66.86017523953424px" fill="#1e1e1e" text-anchor="middle" style="white-space: pre;" direction="ltr" dominant-baseline="text-before-edge">#1</text></g><g transform="translate(2045.1029644030432 595.8599873147432) rotate(24.46039917164861 225.41590594892318 46.15987501852214)"><text x="225.41590594892318" y="0" font-family="Cascadia, Segoe UI Emoji" font-size="76.9331250308691px" fill="#1e1e1e" text-anchor="middle" style="white-space: pre;" direction="ltr" dominant-baseline="text-before-edge">Relocation</text></g><g transform="translate(2810.3199379888692 730.8050041680544) rotate(0 345.5 58.971079010931135)"><text x="345.5" y="0" font-family="Cascadia, Segoe UI Emoji" font-size="98.285131684885px" fill="#1e1e1e" text-anchor="middle" style="white-space: pre;" direction="ltr" dominant-baseline="text-before-edge">t_buffer_new</text></g><g transform="translate(2790.6947796533223 153.95483685717045) rotate(0 236.66716661332475 60.592815600071845)"><text x="236.66716661332475" y="0" font-family="Cascadia, Segoe UI Emoji" font-size="100.98802600011899px" fill="#1e1e1e" text-anchor="middle" style="white-space: pre;" direction="ltr" dominant-baseline="text-before-edge">t_buffer</text></g><g transform="translate(922.1272683396605 1253.805175761565) rotate(0 265.5333251953125 77.67873022429012)"><text x="265.5333251953125" y="0" font-family="Cascadia, Segoe UI Emoji" font-size="129.4645503738171px" fill="#868e96" text-anchor="middle" style="white-space: pre;" direction="ltr" dominant-baseline="text-before-edge">Before </text></g><g transform="translate(3665.3316070917117 1250.0827061138698) rotate(0 189.6666717529297 77.67873022429012)"><text x="189.6666717529297" y="0" font-family="Cascadia, Segoe UI Emoji" font-size="129.4645503738171px" fill="#868e96" text-anchor="middle" style="white-space: pre;" direction="ltr" dominant-baseline="text-before-edge">After</text></g><g stroke-linecap="round" transform="translate(2647.2030521150236 10) rotate(0 1179.3943268256335 719.2371960313703)"><path d="M32 0 M32 0 C610.3 0, 1188.6 0, 2326.79 0 M2326.79 0 C2348.12 0, 2358.79 10.67, 2358.79 32 M2358.79 32 C2358.79 449.03, 2358.79 866.07, 2358.79 1406.47 M2358.79 1406.47 C2358.79 1427.81, 2348.12 1438.47, 2326.79 1438.47 M2326.79 1438.47 C1635.59 1438.47, 944.38 1438.47, 32 1438.47 M32 1438.47 C10.67 1438.47, 0 1427.81, 0 1406.47 M0 1406.47 C0 908.35, 0 410.23, 0 32 M0 32 C0 10.67, 10.67 0, 32 0" stroke="#ced4da" stroke-width="4.5" fill="none" stroke-dasharray="1.5 10"></path></g></svg>