<svg version="1.1" xmlns="http://www.w3.org/2000/svg" viewBox="0 0 2378.788653651267 1332.988942832977" width="7136.365960953801" height="3998.966828498931">
  <!-- svg-source:excalidraw -->
  
  <defs>
    <style class="style-fonts">
      @font-face {
        font-family: "Virgil";
        src: url("https://excalidraw.com/Virgil.woff2");
      }
      @font-face {
        font-family: "Cascadia";
        src: url("https://excalidraw.com/Cascadia.woff2");
      }
    </style>
    
  </defs>
  <g stroke-linecap="round" transform="translate(1672.9673962944062 859.4767123036581) rotate(0 300.47914529370024 164.2806542026301)"><path d="M7.86 8.16 C7.86 8.16, 7.86 8.16, 7.86 8.16 M7.86 8.16 C7.86 8.16, 7.86 8.16, 7.86 8.16 M4.85 36.01 C12.75 26.93, 20.65 17.84, 34.37 2.05 M4.85 36.01 C12.77 26.9, 20.69 17.79, 34.37 2.05 M4.46 60.85 C22.27 40.37, 40.07 19.88, 55.63 1.98 M4.46 60.85 C18.6 44.58, 32.74 28.31, 55.63 1.98 M4.72 84.93 C31.26 54.41, 57.79 23.89, 76.89 1.91 M4.72 84.93 C33.03 52.37, 61.34 19.81, 76.89 1.91 M4.99 109.01 C23.85 87.32, 42.71 65.63, 98.15 1.85 M4.99 109.01 C26.09 84.74, 47.19 60.47, 98.15 1.85 M4.6 133.85 C48.69 83.13, 92.78 32.41, 119.41 1.78 M4.6 133.85 C29.13 105.64, 53.65 77.43, 119.41 1.78 M4.87 157.93 C40.96 116.41, 77.06 74.89, 140.67 1.71 M4.87 157.93 C58.65 96.06, 112.44 34.19, 140.67 1.71 M4.48 182.77 C49.68 130.77, 94.88 78.78, 161.28 2.39 M4.48 182.77 C52.9 127.06, 101.33 71.36, 161.28 2.39 M4.74 206.85 C66.05 136.32, 127.36 65.8, 182.54 2.32 M4.74 206.85 C69.43 132.44, 134.11 58.03, 182.54 2.32 M5.01 230.93 C54.17 174.38, 103.33 117.83, 203.8 2.26 M5.01 230.93 C71.41 154.54, 137.82 78.15, 203.8 2.26 M4.62 255.77 C68.9 181.82, 133.19 107.87, 225.06 2.19 M4.62 255.77 C79.18 170, 153.74 84.23, 225.06 2.19 M4.89 279.85 C82.96 190.04, 161.04 100.22, 246.32 2.12 M4.89 279.85 C83.36 189.57, 161.84 99.29, 246.32 2.12 M3.18 306.2 C83.44 213.87, 163.7 121.55, 267.58 2.05 M3.18 306.2 C71.27 227.88, 139.35 149.55, 267.58 2.05 M10.01 322.73 C114.3 202.76, 218.59 82.78, 288.84 1.98 M10.01 322.73 C120.81 195.28, 231.6 67.82, 288.84 1.98 M25.37 329.45 C88.96 256.3, 152.55 183.15, 310.1 1.91 M25.37 329.45 C107.79 234.64, 190.21 139.83, 310.1 1.91 M40.72 336.18 C143.06 218.45, 245.4 100.72, 331.36 1.84 M40.72 336.18 C112.26 253.88, 183.81 171.58, 331.36 1.84 M61.98 336.11 C131.43 256.21, 200.88 176.32, 352.62 1.77 M61.98 336.11 C158.37 225.23, 254.75 114.35, 352.62 1.77 M83.24 336.04 C143.06 267.23, 202.88 198.41, 373.88 1.7 M83.24 336.04 C154.83 253.68, 226.42 171.33, 373.88 1.7 M104.5 335.97 C215.79 207.95, 327.08 79.93, 394.48 2.39 M104.5 335.97 C194.76 232.14, 285.01 128.32, 394.48 2.39 M125.76 335.9 C235.55 209.61, 345.33 83.31, 415.74 2.32 M125.76 335.9 C227.96 218.34, 330.15 100.78, 415.74 2.32 M147.02 335.83 C215.58 256.97, 284.13 178.11, 437 2.25 M147.02 335.83 C229.73 240.69, 312.43 145.55, 437 2.25 M167.63 336.52 C257.51 233.12, 347.39 129.73, 458.26 2.18 M167.63 336.52 C283.51 203.21, 399.39 69.91, 458.26 2.18 M188.89 336.45 C253.06 262.63, 317.23 188.81, 479.52 2.11 M188.89 336.45 C287.74 222.73, 386.59 109.02, 479.52 2.11 M210.15 336.38 C306.61 225.42, 403.07 114.45, 500.78 2.04 M210.15 336.38 C326.15 202.94, 442.15 69.5, 500.78 2.04 M231.41 336.31 C320.41 233.93, 409.41 131.55, 522.04 1.98 M231.41 336.31 C316.35 238.6, 401.29 140.89, 522.04 1.98 M252.67 336.24 C361.93 210.55, 471.19 84.86, 543.3 1.91 M252.67 336.24 C324.54 253.56, 396.41 170.88, 543.3 1.91 M273.93 336.17 C363.23 233.45, 452.53 130.72, 564.56 1.84 M273.93 336.17 C386.58 206.58, 499.23 77, 564.56 1.84 M295.19 336.1 C372.18 247.53, 449.18 158.96, 584.51 3.28 M295.19 336.1 C357.84 264.04, 420.48 191.97, 584.51 3.28 M316.45 336.04 C424.21 212.07, 531.98 88.1, 597.24 13.02 M316.45 336.04 C373.11 270.85, 429.78 205.67, 597.24 13.02 M337.71 335.97 C396.38 268.47, 455.06 200.97, 601.44 32.57 M337.71 335.97 C406.24 257.13, 474.77 178.3, 601.44 32.57 M358.97 335.9 C441.75 240.67, 524.52 145.45, 601.71 56.65 M358.97 335.9 C441.55 240.9, 524.14 145.9, 601.71 56.65 M380.23 335.83 C459.9 244.17, 539.58 152.52, 601.32 81.49 M380.23 335.83 C448.75 257, 517.27 178.18, 601.32 81.49 M400.83 336.51 C466.97 260.44, 533.1 184.36, 601.59 105.57 M400.83 336.51 C468.66 258.49, 536.49 180.46, 601.59 105.57 M422.09 336.45 C492.03 255.99, 561.96 175.54, 601.2 130.41 M422.09 336.45 C490 258.33, 557.9 180.21, 601.2 130.41 M443.35 336.38 C497.88 273.65, 552.41 210.92, 601.46 154.49 M443.35 336.38 C500.19 270.99, 557.03 205.61, 601.46 154.49 M464.61 336.31 C508.32 286.03, 552.03 235.75, 601.73 178.57 M464.61 336.31 C500.2 295.37, 535.8 254.42, 601.73 178.57 M485.87 336.24 C523.81 292.6, 561.74 248.97, 601.34 203.41 M485.87 336.24 C520.45 296.46, 555.03 256.68, 601.34 203.41 M507.13 336.17 C539.87 298.51, 572.61 260.85, 601.61 227.49 M507.13 336.17 C528.2 311.94, 549.26 287.71, 601.61 227.49 M528.39 336.1 C547.82 313.75, 567.25 291.41, 601.22 252.33 M528.39 336.1 C548.92 312.48, 569.45 288.87, 601.22 252.33 M549.65 336.03 C568.85 313.95, 588.05 291.87, 601.48 276.41 M549.65 336.03 C566.28 316.91, 582.9 297.79, 601.48 276.41 M577.48 328.42 C584.93 319.84, 592.39 311.26, 603.06 298.98 M577.48 328.42 C586.7 317.8, 595.93 307.19, 603.06 298.98" stroke="#868e96" stroke-width="2" fill="none"></path><path d="M32 0 M32 0 C183.55 0, 335.09 0, 568.96 0 M32 0 C184.52 0, 337.05 0, 568.96 0 M568.96 0 C590.29 0, 600.96 10.67, 600.96 32 M568.96 0 C590.29 0, 600.96 10.67, 600.96 32 M600.96 32 C600.96 86.71, 600.96 141.42, 600.96 296.56 M600.96 32 C600.96 96.68, 600.96 161.35, 600.96 296.56 M600.96 296.56 C600.96 317.89, 590.29 328.56, 568.96 328.56 M600.96 296.56 C600.96 317.89, 590.29 328.56, 568.96 328.56 M568.96 328.56 C389.94 328.56, 210.92 328.56, 32 328.56 M568.96 328.56 C371.69 328.56, 174.43 328.56, 32 328.56 M32 328.56 C10.67 328.56, 0 317.89, 0 296.56 M32 328.56 C10.67 328.56, 0 317.89, 0 296.56 M0 296.56 C0 239.87, 0 183.19, 0 32 M0 296.56 C0 240.72, 0 184.88, 0 32 M0 32 C0 10.67, 10.67 0, 32 0 M0 32 C0 10.67, 10.67 0, 32 0" stroke="#1e1e1e" stroke-width="4" fill="none"></path></g><g stroke-linecap="round" transform="translate(132.43728672358338 290.6089116875519) rotate(0 754.7081336231955 164.2806542026301)"><path d="M7.86 8.16 C7.86 8.16, 7.86 8.16, 7.86 8.16 M7.86 8.16 C7.86 8.16, 7.86 8.16, 7.86 8.16 M4.85 36.01 C16.1 23.07, 27.35 10.13, 34.37 2.05 M4.85 36.01 C12.45 27.27, 20.05 18.53, 34.37 2.05 M5.11 60.1 C23.56 38.87, 42.01 17.65, 55.63 1.98 M5.11 60.1 C21.02 41.8, 36.93 23.5, 55.63 1.98 M4.72 84.93 C31.56 54.06, 58.4 23.19, 76.89 1.91 M4.72 84.93 C26.02 60.44, 47.31 35.95, 76.89 1.91 M4.99 109.01 C41.81 66.65, 78.64 24.29, 98.15 1.85 M4.99 109.01 C25.77 85.11, 46.55 61.21, 98.15 1.85 M4.6 133.85 C38.44 94.92, 72.28 55.99, 119.41 1.78 M4.6 133.85 C49.21 82.53, 93.82 31.21, 119.41 1.78 M4.87 157.93 C40.1 117.41, 75.32 76.88, 140.02 2.46 M4.87 157.93 C35.94 122.19, 67 86.45, 140.02 2.46 M5.13 182.01 C64.46 113.77, 123.79 45.52, 161.28 2.39 M5.13 182.01 C54.85 124.82, 104.57 67.62, 161.28 2.39 M4.74 206.85 C58.39 145.14, 112.04 83.42, 182.54 2.32 M4.74 206.85 C47.96 157.13, 91.18 107.41, 182.54 2.32 M5.01 230.93 C45.36 184.51, 85.72 138.09, 203.8 2.26 M5.01 230.93 C83.46 140.69, 161.9 50.45, 203.8 2.26 M5.28 255.01 C61.14 190.76, 116.99 126.5, 225.06 2.19 M5.28 255.01 C60.23 191.8, 115.19 128.58, 225.06 2.19 M4.89 279.85 C97.77 173, 190.65 66.15, 246.32 2.12 M4.89 279.85 C91.06 180.72, 177.23 81.6, 246.32 2.12 M3.18 306.2 C95.43 200.08, 187.68 93.96, 267.58 2.05 M3.18 306.2 C60.77 239.95, 118.36 173.7, 267.58 2.05 M10.01 322.73 C91.22 229.31, 172.43 135.89, 288.84 1.98 M10.01 322.73 C86.6 234.63, 163.19 146.52, 288.84 1.98 M25.37 329.45 C85.81 259.93, 146.25 190.4, 310.1 1.91 M25.37 329.45 C137.31 200.68, 249.26 71.9, 310.1 1.91 M46.63 329.39 C141.74 219.97, 236.85 110.56, 331.36 1.84 M46.63 329.39 C116.96 248.47, 187.3 167.56, 331.36 1.84 M67.89 329.32 C171.82 209.75, 275.75 90.19, 351.96 2.53 M67.89 329.32 C125.42 263.14, 182.94 196.96, 351.96 2.53 M89.15 329.25 C165.81 241.06, 242.47 152.87, 373.22 2.46 M89.15 329.25 C175.14 230.32, 261.14 131.39, 373.22 2.46 M110.41 329.18 C203.19 222.45, 295.97 115.71, 394.48 2.39 M110.41 329.18 C210.4 214.15, 310.4 99.12, 394.48 2.39 M131.67 329.11 C217.11 230.82, 302.55 132.53, 415.74 2.32 M131.67 329.11 C216.97 230.98, 302.26 132.86, 415.74 2.32 M152.93 329.04 C240.06 228.81, 327.19 128.57, 437 2.25 M152.93 329.04 C245.95 222.03, 338.97 115.03, 437 2.25 M174.19 328.97 C280.48 206.7, 386.77 84.42, 458.26 2.18 M174.19 328.97 C238.9 254.53, 303.61 180.08, 458.26 2.18 M195.45 328.9 C284.58 226.37, 373.71 123.83, 479.52 2.11 M195.45 328.9 C279.06 232.71, 362.68 136.52, 479.52 2.11 M216.71 328.83 C297.03 236.43, 377.35 144.03, 500.78 2.04 M216.71 328.83 C302.83 229.76, 388.96 130.68, 500.78 2.04 M237.31 329.52 C308.66 247.44, 380.01 165.37, 522.04 1.98 M237.31 329.52 C350.6 199.19, 463.9 68.87, 522.04 1.98 M258.57 329.45 C362.37 210.05, 466.16 90.65, 543.3 1.91 M258.57 329.45 C336.57 239.73, 414.56 150, 543.3 1.91 M279.83 329.38 C341.01 259.01, 402.18 188.64, 563.91 2.59 M279.83 329.38 C354.53 243.45, 429.23 157.51, 563.91 2.59 M301.09 329.31 C358.71 263.03, 416.34 196.74, 585.17 2.52 M301.09 329.31 C391.22 225.63, 481.35 121.95, 585.17 2.52 M322.35 329.24 C379.61 263.38, 436.86 197.52, 606.43 2.45 M322.35 329.24 C405.91 233.13, 489.46 137.01, 606.43 2.45 M343.61 329.17 C436.31 222.54, 529 115.91, 627.69 2.38 M343.61 329.17 C440.23 218.02, 536.85 106.88, 627.69 2.38 M364.87 329.11 C477.92 199.06, 590.97 69.01, 648.95 2.32 M364.87 329.11 C471.58 206.35, 578.28 83.6, 648.95 2.32 M386.13 329.04 C473.88 228.1, 561.62 127.16, 670.21 2.25 M386.13 329.04 C465.41 237.84, 544.69 146.64, 670.21 2.25 M407.39 328.97 C489.41 234.62, 571.42 140.28, 691.47 2.18 M407.39 328.97 C512.9 207.59, 618.41 86.22, 691.47 2.18 M428.65 328.9 C505.31 240.72, 581.96 152.54, 712.73 2.11 M428.65 328.9 C485.59 263.4, 542.52 197.91, 712.73 2.11 M449.26 329.58 C549.82 213.9, 650.39 98.21, 733.99 2.04 M449.26 329.58 C513.35 255.85, 577.45 182.12, 733.99 2.04 M470.52 329.51 C576.93 207.1, 683.35 84.69, 755.25 1.97 M470.52 329.51 C527.5 263.97, 584.48 198.42, 755.25 1.97 M491.78 329.45 C595.79 209.79, 699.81 90.13, 775.85 2.66 M491.78 329.45 C565.65 244.47, 639.52 159.49, 775.85 2.66 M513.04 329.38 C606.92 221.38, 700.8 113.39, 797.11 2.59 M513.04 329.38 C599.35 230.09, 685.66 130.8, 797.11 2.59 M534.3 329.31 C618.85 232.04, 703.41 134.77, 818.37 2.52 M534.3 329.31 C613.61 238.07, 692.92 146.83, 818.37 2.52 M555.56 329.24 C639.43 232.75, 723.3 136.27, 839.63 2.45 M555.56 329.24 C659.79 209.34, 764.02 89.43, 839.63 2.45 M576.82 329.17 C637.33 259.56, 697.85 189.94, 860.89 2.38 M576.82 329.17 C652.17 242.48, 727.53 155.8, 860.89 2.38 M598.08 329.1 C702.78 208.66, 807.48 88.21, 882.15 2.31 M598.08 329.1 C704.43 206.75, 810.79 84.41, 882.15 2.31 M619.34 329.03 C725.28 207.16, 831.23 85.28, 903.41 2.24 M619.34 329.03 C699.06 237.32, 778.78 145.61, 903.41 2.24 M640.6 328.96 C724.76 232.14, 808.93 135.32, 924.67 2.17 M640.6 328.96 C737.47 217.53, 834.33 106.1, 924.67 2.17 M661.2 329.65 C756.13 220.45, 851.06 111.24, 945.93 2.1 M661.2 329.65 C765.81 209.32, 870.41 88.98, 945.93 2.1 M682.46 329.58 C787.67 208.56, 892.87 87.53, 967.19 2.04 M682.46 329.58 C742.57 260.43, 802.68 191.28, 967.19 2.04 M703.72 329.51 C773.51 249.23, 843.3 168.95, 987.8 2.72 M703.72 329.51 C773.96 248.72, 844.19 167.93, 987.8 2.72 M724.98 329.44 C817.21 223.35, 909.44 117.25, 1009.06 2.65 M724.98 329.44 C826.93 212.17, 928.87 94.9, 1009.06 2.65 M746.24 329.37 C847.48 212.91, 948.72 96.45, 1030.32 2.58 M746.24 329.37 C809.21 256.94, 872.17 184.51, 1030.32 2.58 M767.51 329.3 C836.7 249.71, 905.89 170.12, 1051.58 2.51 M767.51 329.3 C849.33 235.18, 931.15 141.06, 1051.58 2.51 M788.77 329.23 C876.1 228.77, 963.43 128.3, 1072.84 2.45 M788.77 329.23 C865.96 240.44, 943.15 151.64, 1072.84 2.45 M810.03 329.17 C881.97 246.4, 953.92 163.64, 1094.1 2.38 M810.03 329.17 C904.36 220.65, 998.69 112.13, 1094.1 2.38 M831.29 329.1 C898.35 251.95, 965.41 174.81, 1115.36 2.31 M831.29 329.1 C933.08 212, 1034.87 94.9, 1115.36 2.31 M852.55 329.03 C916.79 255.12, 981.04 181.22, 1136.62 2.24 M852.55 329.03 C953.15 213.29, 1053.76 97.56, 1136.62 2.24 M873.15 329.71 C951.4 239.7, 1029.65 149.68, 1157.88 2.17 M873.15 329.71 C964.81 224.27, 1056.47 118.82, 1157.88 2.17 M894.41 329.64 C974.12 237.95, 1053.82 146.26, 1179.14 2.1 M894.41 329.64 C964.77 248.7, 1035.14 167.76, 1179.14 2.1 M915.67 329.58 C987.13 247.37, 1058.6 165.16, 1199.74 2.79 M915.67 329.58 C1024.39 204.51, 1133.11 79.44, 1199.74 2.79 M936.93 329.51 C1015.79 238.78, 1094.66 148.06, 1221 2.72 M936.93 329.51 C1003.27 253.2, 1069.6 176.88, 1221 2.72 M958.19 329.44 C1068.82 202.17, 1179.46 74.9, 1242.26 2.65 M958.19 329.44 C1026.53 250.82, 1094.87 172.2, 1242.26 2.65 M979.45 329.37 C1072.49 222.34, 1165.53 115.3, 1263.52 2.58 M979.45 329.37 C1083.29 209.91, 1187.14 90.45, 1263.52 2.58 M1000.71 329.3 C1059.51 261.66, 1118.3 194.02, 1284.78 2.51 M1000.71 329.3 C1107.26 206.73, 1213.81 84.16, 1284.78 2.51 M1021.97 329.23 C1102.45 236.65, 1182.93 144.07, 1306.04 2.44 M1021.97 329.23 C1085.93 255.66, 1149.89 182.08, 1306.04 2.44 M1043.23 329.16 C1105.14 257.95, 1167.04 186.73, 1327.3 2.37 M1043.23 329.16 C1141.37 216.27, 1239.51 103.37, 1327.3 2.37 M1064.49 329.09 C1133.77 249.39, 1203.05 169.7, 1348.57 2.3 M1064.49 329.09 C1128.09 255.93, 1191.69 182.77, 1348.57 2.3 M1085.1 329.78 C1150.98 253.98, 1216.87 178.19, 1369.83 2.23 M1085.1 329.78 C1167.86 234.57, 1250.63 139.35, 1369.83 2.23 M1106.36 329.71 C1178.55 246.66, 1250.74 163.61, 1391.09 2.17 M1106.36 329.71 C1192.64 230.45, 1278.93 131.18, 1391.09 2.17 M1127.62 329.64 C1199.16 247.34, 1270.69 165.05, 1411.69 2.85 M1127.62 329.64 C1192.77 254.69, 1257.93 179.73, 1411.69 2.85 M1148.88 329.57 C1206.22 263.6, 1263.56 197.64, 1432.95 2.78 M1148.88 329.57 C1215.24 253.22, 1281.61 176.88, 1432.95 2.78 M1170.14 329.5 C1277.79 205.67, 1385.43 81.83, 1454.21 2.71 M1170.14 329.5 C1272.35 211.92, 1374.56 94.33, 1454.21 2.71 M1191.4 329.43 C1283.36 223.64, 1375.32 117.86, 1475.47 2.64 M1191.4 329.43 C1281.24 226.08, 1371.08 122.73, 1475.47 2.64 M1212.66 329.36 C1299.48 229.48, 1386.31 129.6, 1494.76 4.84 M1212.66 329.36 C1314.23 212.52, 1415.8 95.68, 1494.76 4.84 M1233.92 329.3 C1315.8 235.1, 1397.69 140.9, 1507.49 14.58 M1233.92 329.3 C1310.88 240.76, 1387.84 152.23, 1507.49 14.58 M1255.18 329.23 C1314.59 260.87, 1374.01 192.52, 1514.98 30.36 M1255.18 329.23 C1329.93 243.23, 1404.69 157.24, 1514.98 30.36 M1276.44 329.16 C1361.01 231.86, 1445.59 134.57, 1515.24 54.44 M1276.44 329.16 C1369.29 222.34, 1462.14 115.53, 1515.24 54.44 M1297.04 329.84 C1368.56 247.57, 1440.08 165.29, 1515.51 78.52 M1297.04 329.84 C1358.27 259.4, 1419.5 188.97, 1515.51 78.52 M1318.3 329.77 C1388.98 248.47, 1459.65 167.17, 1515.12 103.36 M1318.3 329.77 C1382.95 255.4, 1447.6 181.03, 1515.12 103.36 M1339.56 329.71 C1389.63 272.1, 1439.7 214.5, 1515.39 127.44 M1339.56 329.71 C1384.35 278.18, 1429.14 226.66, 1515.39 127.44 M1360.82 329.64 C1411.74 271.07, 1462.65 212.5, 1515 152.28 M1360.82 329.64 C1410.11 272.93, 1459.4 216.23, 1515 152.28 M1382.08 329.57 C1432.32 271.78, 1482.56 213.98, 1515.26 176.36 M1382.08 329.57 C1409.76 297.72, 1437.44 265.88, 1515.26 176.36 M1403.34 329.5 C1440.26 287.03, 1477.17 244.57, 1515.53 200.44 M1403.34 329.5 C1427.08 302.19, 1450.82 274.88, 1515.53 200.44 M1424.6 329.43 C1458.67 290.24, 1492.74 251.05, 1515.14 225.28 M1424.6 329.43 C1453.22 296.51, 1481.83 263.59, 1515.14 225.28 M1445.86 329.36 C1471.06 300.38, 1496.25 271.39, 1515.4 249.36 M1445.86 329.36 C1472.5 298.72, 1499.13 268.08, 1515.4 249.36 M1467.12 329.29 C1479.04 315.58, 1490.96 301.87, 1515.02 274.2 M1467.12 329.29 C1478.4 316.32, 1489.68 303.34, 1515.02 274.2 M1487.73 329.98 C1493.83 322.95, 1499.94 315.93, 1509.38 305.07 M1487.73 329.98 C1492.97 323.94, 1498.22 317.91, 1509.38 305.07" stroke="#868e96" stroke-width="2" fill="none"></path><path d="M32 0 M32 0 C403.91 0, 775.81 0, 1477.42 0 M32 0 C323.98 0, 615.95 0, 1477.42 0 M1477.42 0 C1498.75 0, 1509.42 10.67, 1509.42 32 M1477.42 0 C1498.75 0, 1509.42 10.67, 1509.42 32 M1509.42 32 C1509.42 89.03, 1509.42 146.07, 1509.42 296.56 M1509.42 32 C1509.42 90.69, 1509.42 149.38, 1509.42 296.56 M1509.42 296.56 C1509.42 317.89, 1498.75 328.56, 1477.42 328.56 M1509.42 296.56 C1509.42 317.89, 1498.75 328.56, 1477.42 328.56 M1477.42 328.56 C904.9 328.56, 332.38 328.56, 32 328.56 M1477.42 328.56 C976.19 328.56, 474.97 328.56, 32 328.56 M32 328.56 C10.67 328.56, 0 317.89, 0 296.56 M32 328.56 C10.67 328.56, 0 317.89, 0 296.56 M0 296.56 C0 197.84, 0 99.12, 0 32 M0 296.56 C0 214.58, 0 132.6, 0 32 M0 32 C0 10.67, 10.67 0, 32 0 M0 32 C0 10.67, 10.67 0, 32 0" stroke="#1e1e1e" stroke-width="4" fill="none"></path></g><g transform="translate(482.72605279443724 367.1177996582992) rotate(0 427.48333740234375 67.34724236687725)"><text x="427.48333740234375" y="0" font-family="Cascadia, Segoe UI Emoji" font-size="112.24540394479573px" fill="#1e1e1e" text-anchor="middle" style="white-space: pre;" direction="ltr" dominant-baseline="text-before-edge">Memory buffer</text></g><g stroke-linecap="round" transform="translate(1292.0243236343167 859.8358161339274) rotate(0 188.15049284745714 164.2806542026301)"><path d="M7.86 8.16 C7.86 8.16, 7.86 8.16, 7.86 8.16 M7.86 8.16 C7.86 8.16, 7.86 8.16, 7.86 8.16 M8.78 31.49 C18.19 20.66, 27.6 9.84, 34.37 2.05 M8.78 31.49 C18.82 19.94, 28.86 8.4, 34.37 2.05 M8.39 56.32 C17.96 45.32, 27.52 34.32, 55.63 1.98 M8.39 56.32 C19.09 44.01, 29.79 31.71, 55.63 1.98 M8.66 80.4 C34.86 50.26, 61.06 20.12, 76.89 1.91 M8.66 80.4 C23.24 63.64, 37.81 46.87, 76.89 1.91 M8.27 105.24 C32.16 77.76, 56.05 50.28, 98.15 1.85 M8.27 105.24 C43.87 64.29, 79.47 23.34, 98.15 1.85 M8.54 129.32 C40.5 92.56, 72.46 55.79, 119.41 1.78 M8.54 129.32 C42.78 89.93, 77.02 50.54, 119.41 1.78 M8.15 154.16 C53.85 101.59, 99.54 49.02, 140.67 1.71 M8.15 154.16 C56.36 98.7, 104.57 43.23, 140.67 1.71 M8.41 178.24 C46.22 134.75, 84.02 91.26, 161.28 2.39 M8.41 178.24 C59.48 119.5, 110.54 60.76, 161.28 2.39 M8.68 202.32 C59.38 144, 110.08 85.68, 182.54 2.32 M8.68 202.32 C67.48 134.67, 126.29 67.03, 182.54 2.32 M8.29 227.16 C71.51 154.43, 134.74 81.7, 203.8 2.26 M8.29 227.16 C71.84 154.05, 135.39 80.95, 203.8 2.26 M8.56 251.24 C74.28 175.64, 140 100.04, 225.06 2.19 M8.56 251.24 C64.31 187.11, 120.06 122.97, 225.06 2.19 M8.17 276.08 C97.24 173.61, 186.32 71.13, 246.32 2.12 M8.17 276.08 C102.8 167.22, 197.43 58.36, 246.32 2.12 M3.18 306.2 C62.23 238.27, 121.28 170.34, 267.58 2.05 M3.18 306.2 C79.72 218.16, 156.25 130.12, 267.58 2.05 M10.01 322.73 C108.19 209.78, 206.38 96.84, 288.84 1.98 M10.01 322.73 C78.65 243.78, 147.28 164.82, 288.84 1.98 M25.37 329.45 C93.41 251.18, 161.45 172.91, 310.1 1.91 M25.37 329.45 C119.79 220.83, 214.22 112.2, 310.1 1.91 M40.72 336.18 C100.54 267.36, 160.36 198.55, 331.36 1.84 M40.72 336.18 C112.31 253.82, 183.9 171.47, 331.36 1.84 M61.98 336.11 C173.52 207.8, 285.06 79.49, 352.62 1.77 M61.98 336.11 C152.44 232.05, 242.9 127.98, 352.62 1.77 M83.24 336.04 C191.29 211.75, 299.34 87.45, 368.63 7.74 M83.24 336.04 C183.82 220.34, 284.4 104.64, 368.63 7.74 M104.5 335.97 C169.18 261.57, 233.85 187.17, 378.08 21.26 M104.5 335.97 C182.53 246.21, 260.56 156.45, 378.08 21.26 M125.76 335.9 C205.7 243.94, 285.64 151.98, 384.25 38.55 M125.76 335.9 C228.82 217.34, 331.89 98.78, 384.25 38.55 M147.02 335.83 C199.32 275.68, 251.61 215.52, 383.86 63.38 M147.02 335.83 C227.58 243.17, 308.13 150.5, 383.86 63.38 M167.63 336.52 C239.48 253.86, 311.34 171.2, 384.13 87.46 M167.63 336.52 C254.04 237.11, 340.45 137.71, 384.13 87.46 M188.89 336.45 C248.76 267.58, 308.63 198.71, 384.39 111.55 M188.89 336.45 C246.03 270.72, 303.16 204.99, 384.39 111.55 M210.15 336.38 C275.51 261.19, 340.87 186.01, 384 136.38 M210.15 336.38 C253.14 286.92, 296.13 237.46, 384 136.38 M231.41 336.31 C278.38 282.28, 325.34 228.25, 384.27 160.46 M231.41 336.31 C290.66 268.15, 349.91 199.99, 384.27 160.46 M252.67 336.24 C287.59 296.07, 322.5 255.91, 383.88 185.3 M252.67 336.24 C281.08 303.56, 309.49 270.87, 383.88 185.3 M273.93 336.17 C316.23 287.51, 358.53 238.85, 384.15 209.38 M273.93 336.17 C296.17 310.59, 318.41 285, 384.15 209.38 M295.19 336.1 C314.89 313.44, 334.6 290.77, 383.76 234.22 M295.19 336.1 C318.2 309.63, 341.22 283.16, 383.76 234.22 M316.45 336.04 C339.49 309.53, 362.53 283.02, 384.02 258.3 M316.45 336.04 C339.44 309.59, 362.43 283.14, 384.02 258.3 M337.71 335.97 C354.5 316.66, 371.28 297.35, 384.29 282.38 M337.71 335.97 C352.15 319.36, 366.58 302.75, 384.29 282.38" stroke="#a5d8ff" stroke-width="2" fill="none"></path><path d="M32 0 M32 0 C134.88 0, 237.76 0, 344.3 0 M32 0 C137.51 0, 243.03 0, 344.3 0 M344.3 0 C365.63 0, 376.3 10.67, 376.3 32 M344.3 0 C365.63 0, 376.3 10.67, 376.3 32 M376.3 32 C376.3 89.27, 376.3 146.53, 376.3 296.56 M376.3 32 C376.3 117.53, 376.3 203.05, 376.3 296.56 M376.3 296.56 C376.3 317.89, 365.63 328.56, 344.3 328.56 M376.3 296.56 C376.3 317.89, 365.63 328.56, 344.3 328.56 M344.3 328.56 C227.58 328.56, 110.87 328.56, 32 328.56 M344.3 328.56 C281.8 328.56, 219.31 328.56, 32 328.56 M32 328.56 C10.67 328.56, 0 317.89, 0 296.56 M32 328.56 C10.67 328.56, 0 317.89, 0 296.56 M0 296.56 C0 228.49, 0 160.43, 0 32 M0 296.56 C0 220.66, 0 144.75, 0 32 M0 32 C0 10.67, 10.67 0, 32 0 M0 32 C0 10.67, 10.67 0, 32 0" stroke="#1e1e1e" stroke-width="4" fill="none"></path></g><g transform="translate(1324.4939409354856 906.8877499547234) rotate(0 156.73333740234375 120.34831543116161)"><text x="156.73333740234375" y="0" font-family="Cascadia, Segoe UI Emoji" font-size="66.86017523953424px" fill="#1e1e1e" text-anchor="middle" style="white-space: pre;" direction="ltr" dominant-baseline="text-before-edge">T object</text><text x="156.73333740234375" y="80.23221028744109" font-family="Cascadia, Segoe UI Emoji" font-size="66.86017523953424px" fill="#1e1e1e" text-anchor="middle" style="white-space: pre;" direction="ltr" dominant-baseline="text-before-edge"></text><text x="156.73333740234375" y="160.46442057488218" font-family="Cascadia, Segoe UI Emoji" font-size="66.86017523953424px" fill="#1e1e1e" text-anchor="middle" style="white-space: pre;" direction="ltr" dominant-baseline="text-before-edge">#4</text></g><g stroke-linecap="round" transform="translate(911.7830214378673 860.6867907736596) rotate(0 188.15049284745714 164.2806542026301)"><path d="M7.86 8.16 C7.86 8.16, 7.86 8.16, 7.86 8.16 M7.86 8.16 C7.86 8.16, 7.86 8.16, 7.86 8.16 M8.78 31.49 C17.47 21.5, 26.15 11.51, 34.37 2.05 M8.78 31.49 C14.44 24.97, 20.1 18.46, 34.37 2.05 M8.39 56.32 C19.98 43, 31.56 29.68, 55.63 1.98 M8.39 56.32 C26.57 35.41, 44.75 14.49, 55.63 1.98 M8.66 80.4 C30.93 54.79, 53.2 29.17, 76.89 1.91 M8.66 80.4 C32.91 52.51, 57.15 24.62, 76.89 1.91 M8.27 105.24 C28.58 81.88, 48.88 58.52, 98.15 1.85 M8.27 105.24 C35.34 74.1, 62.4 42.97, 98.15 1.85 M8.54 129.32 C52.08 79.23, 95.63 29.13, 119.41 1.78 M8.54 129.32 C37.86 95.59, 67.18 61.87, 119.41 1.78 M8.15 154.16 C40.94 116.44, 73.72 78.72, 140.67 1.71 M8.15 154.16 C53.95 101.47, 99.75 48.78, 140.67 1.71 M8.41 178.24 C46.26 134.7, 84.12 91.15, 161.28 2.39 M8.41 178.24 C67.64 110.11, 126.86 41.99, 161.28 2.39 M8.68 202.32 C52.83 151.54, 96.97 100.75, 182.54 2.32 M8.68 202.32 C71.19 130.41, 133.7 58.5, 182.54 2.32 M8.29 227.16 C85.59 138.24, 162.88 49.32, 203.8 2.26 M8.29 227.16 C55.78 172.53, 103.27 117.89, 203.8 2.26 M8.56 251.24 C59.44 192.7, 110.33 134.17, 225.06 2.19 M8.56 251.24 C54.88 197.95, 101.21 144.65, 225.06 2.19 M8.17 276.08 C64.31 211.49, 120.45 146.91, 246.32 2.12 M8.17 276.08 C86.58 185.87, 164.99 95.67, 246.32 2.12 M3.18 306.2 C89.27 207.16, 175.36 108.13, 267.58 2.05 M3.18 306.2 C85.03 212.05, 166.87 117.9, 267.58 2.05 M10.01 322.73 C111.44 206.05, 212.87 89.37, 288.84 1.98 M10.01 322.73 C72.59 250.75, 135.16 178.76, 288.84 1.98 M25.37 329.45 C112.46 229.27, 199.55 129.08, 310.1 1.91 M25.37 329.45 C104.12 238.86, 182.86 148.28, 310.1 1.91 M40.72 336.18 C119.14 245.97, 197.56 155.76, 331.36 1.84 M40.72 336.18 C123.88 240.51, 207.04 144.85, 331.36 1.84 M61.98 336.11 C149.56 235.36, 237.13 134.62, 352.62 1.77 M61.98 336.11 C141.94 244.13, 221.89 152.15, 352.62 1.77 M83.24 336.04 C151.61 257.39, 219.98 178.74, 368.63 7.74 M83.24 336.04 C183.62 220.56, 284.01 105.09, 368.63 7.74 M104.5 335.97 C181.87 246.97, 259.23 157.97, 378.08 21.26 M104.5 335.97 C185.17 243.17, 265.84 150.37, 378.08 21.26 M125.76 335.9 C191.41 260.38, 257.06 184.86, 384.25 38.55 M125.76 335.9 C187.37 265.03, 248.97 194.17, 384.25 38.55 M147.02 335.83 C233.8 236, 320.58 136.18, 383.86 63.38 M147.02 335.83 C207.48 266.28, 267.94 196.73, 383.86 63.38 M167.63 336.52 C230.27 264.45, 292.92 192.39, 384.13 87.46 M167.63 336.52 C220.16 276.09, 272.69 215.66, 384.13 87.46 M188.89 336.45 C250.2 265.91, 311.52 195.37, 384.39 111.55 M188.89 336.45 C248.6 267.76, 308.31 199.07, 384.39 111.55 M210.15 336.38 C247.93 292.92, 285.71 249.46, 384 136.38 M210.15 336.38 C252.07 288.16, 293.98 239.94, 384 136.38 M231.41 336.31 C266.75 295.65, 302.1 254.99, 384.27 160.46 M231.41 336.31 C280.95 279.32, 330.48 222.34, 384.27 160.46 M252.67 336.24 C292.65 290.24, 332.64 244.25, 383.88 185.3 M252.67 336.24 C303.83 277.39, 354.98 218.54, 383.88 185.3 M273.93 336.17 C303.83 301.78, 333.72 267.39, 384.15 209.38 M273.93 336.17 C298.15 308.31, 322.36 280.46, 384.15 209.38 M295.19 336.1 C322.99 304.12, 350.79 272.14, 383.76 234.22 M295.19 336.1 C315.1 313.2, 335 290.3, 383.76 234.22 M316.45 336.04 C338.82 310.3, 361.2 284.56, 384.02 258.3 M316.45 336.04 C332.03 318.12, 347.6 300.2, 384.02 258.3 M337.71 335.97 C347.13 325.13, 356.56 314.28, 384.29 282.38 M337.71 335.97 C354.54 316.61, 371.36 297.25, 384.29 282.38" stroke="#a5d8ff" stroke-width="2" fill="none"></path><path d="M32 0 M32 0 C142.4 0, 252.8 0, 344.3 0 M32 0 C102.05 0, 172.11 0, 344.3 0 M344.3 0 C365.63 0, 376.3 10.67, 376.3 32 M344.3 0 C365.63 0, 376.3 10.67, 376.3 32 M376.3 32 C376.3 118.36, 376.3 204.71, 376.3 296.56 M376.3 32 C376.3 133.59, 376.3 235.19, 376.3 296.56 M376.3 296.56 C376.3 317.89, 365.63 328.56, 344.3 328.56 M376.3 296.56 C376.3 317.89, 365.63 328.56, 344.3 328.56 M344.3 328.56 C272.81 328.56, 201.32 328.56, 32 328.56 M344.3 328.56 C273.15 328.56, 201.99 328.56, 32 328.56 M32 328.56 C10.67 328.56, 0 317.89, 0 296.56 M32 328.56 C10.67 328.56, 0 317.89, 0 296.56 M0 296.56 C0 204.88, 0 113.21, 0 32 M0 296.56 C0 237.58, 0 178.59, 0 32 M0 32 C0 10.67, 10.67 0, 32 0 M0 32 C0 10.67, 10.67 0, 32 0" stroke="#1e1e1e" stroke-width="4" fill="none"></path></g><g transform="translate(944.2526387390344 907.7387245944556) rotate(0 156.73333740234375 120.34831543116161)"><text x="156.73333740234375" y="0" font-family="Cascadia, Segoe UI Emoji" font-size="66.86017523953424px" fill="#1e1e1e" text-anchor="middle" style="white-space: pre;" direction="ltr" dominant-baseline="text-before-edge">T object</text><text x="156.73333740234375" y="80.23221028744109" font-family="Cascadia, Segoe UI Emoji" font-size="66.86017523953424px" fill="#1e1e1e" text-anchor="middle" style="white-space: pre;" direction="ltr" dominant-baseline="text-before-edge"></text><text x="156.73333740234375" y="160.46442057488218" font-family="Cascadia, Segoe UI Emoji" font-size="66.86017523953424px" fill="#1e1e1e" text-anchor="middle" style="white-space: pre;" direction="ltr" dominant-baseline="text-before-edge">#3</text></g><g stroke-linecap="round" transform="translate(531.48473433251 862.1759963932273) rotate(0 188.15049284745714 164.2806542026301)"><path d="M7.86 8.16 C7.86 8.16, 7.86 8.16, 7.86 8.16 M7.86 8.16 C7.86 8.16, 7.86 8.16, 7.86 8.16 M8.78 31.49 C15.06 24.26, 21.34 17.04, 34.37 2.05 M8.78 31.49 C16.8 22.26, 24.82 13.04, 34.37 2.05 M8.39 56.32 C19.26 43.83, 30.12 31.33, 55.63 1.98 M8.39 56.32 C23.64 38.78, 38.89 21.24, 55.63 1.98 M8.66 80.4 C24.76 61.88, 40.87 43.35, 76.89 1.91 M8.66 80.4 C35.55 49.47, 62.45 18.53, 76.89 1.91 M8.27 105.24 C31.52 78.49, 54.77 51.75, 98.15 1.85 M8.27 105.24 C40.58 68.07, 72.89 30.91, 98.15 1.85 M8.54 129.32 C32.69 101.54, 56.84 73.76, 119.41 1.78 M8.54 129.32 C42.43 90.34, 76.32 51.35, 119.41 1.78 M8.15 154.16 C51.03 104.83, 93.9 55.51, 140.67 1.71 M8.15 154.16 C55.73 99.42, 103.31 44.69, 140.67 1.71 M8.41 178.24 C60.7 118.09, 112.98 57.95, 161.28 2.39 M8.41 178.24 C64.92 113.24, 121.42 48.24, 161.28 2.39 M8.68 202.32 C71.44 130.12, 134.2 57.92, 182.54 2.32 M8.68 202.32 C60.07 143.2, 111.47 84.08, 182.54 2.32 M8.29 227.16 C58.21 169.73, 108.13 112.31, 203.8 2.26 M8.29 227.16 C64.51 162.49, 120.73 97.81, 203.8 2.26 M8.56 251.24 C63.29 188.28, 118.02 125.32, 225.06 2.19 M8.56 251.24 C67.65 183.26, 126.75 115.27, 225.06 2.19 M8.17 276.08 C103.33 166.6, 198.5 57.13, 246.32 2.12 M8.17 276.08 C65.45 210.18, 122.73 144.28, 246.32 2.12 M3.18 306.2 C89.38 207.03, 175.58 107.87, 267.58 2.05 M3.18 306.2 C62.56 237.89, 121.94 169.59, 267.58 2.05 M10.01 322.73 C97.03 222.63, 184.04 122.53, 288.84 1.98 M10.01 322.73 C118.58 197.84, 227.15 72.94, 288.84 1.98 M25.37 329.45 C97.42 246.56, 169.48 163.67, 310.1 1.91 M25.37 329.45 C86.19 259.49, 147.01 189.52, 310.1 1.91 M40.72 336.18 C135.27 227.42, 229.81 118.66, 331.36 1.84 M40.72 336.18 C149.6 210.93, 258.47 85.68, 331.36 1.84 M61.98 336.11 C164.18 218.55, 266.37 100.99, 352.62 1.77 M61.98 336.11 C158.73 224.81, 255.48 113.51, 352.62 1.77 M83.24 336.04 C159.48 248.34, 235.71 160.64, 368.63 7.74 M83.24 336.04 C145 264.99, 206.76 193.95, 368.63 7.74 M104.5 335.97 C182.39 246.37, 260.28 156.77, 378.08 21.26 M104.5 335.97 C160.58 271.46, 216.66 206.95, 378.08 21.26 M125.76 335.9 C219.01 228.64, 312.25 121.37, 384.25 38.55 M125.76 335.9 C181.25 272.07, 236.73 208.25, 384.25 38.55 M147.02 335.83 C232.44 237.58, 317.85 139.32, 383.86 63.38 M147.02 335.83 C213.83 258.98, 280.64 182.12, 383.86 63.38 M167.63 336.52 C237.9 255.68, 308.17 174.84, 384.13 87.46 M167.63 336.52 C221.52 274.53, 275.4 212.54, 384.13 87.46 M188.89 336.45 C234.45 284.03, 280.02 231.62, 384.39 111.55 M188.89 336.45 C256.56 258.61, 324.22 180.76, 384.39 111.55 M210.15 336.38 C257.52 281.88, 304.9 227.38, 384 136.38 M210.15 336.38 C258.55 280.7, 306.96 225.01, 384 136.38 M231.41 336.31 C262.12 300.98, 292.84 265.65, 384.27 160.46 M231.41 336.31 C263.31 299.62, 295.2 262.92, 384.27 160.46 M252.67 336.24 C280.69 304.01, 308.71 271.77, 383.88 185.3 M252.67 336.24 C284.44 299.69, 316.22 263.14, 383.88 185.3 M273.93 336.17 C307.93 297.06, 341.93 257.95, 384.15 209.38 M273.93 336.17 C297.19 309.42, 320.45 282.66, 384.15 209.38 M295.19 336.1 C326.38 300.22, 357.58 264.33, 383.76 234.22 M295.19 336.1 C326.96 299.56, 358.73 263.01, 383.76 234.22 M316.45 336.04 C333.03 316.96, 349.6 297.89, 384.02 258.3 M316.45 336.04 C338.36 310.84, 360.26 285.64, 384.02 258.3 M337.71 335.97 C355.79 315.17, 373.87 294.37, 384.29 282.38 M337.71 335.97 C348.26 323.83, 358.8 311.7, 384.29 282.38" stroke="#a5d8ff" stroke-width="2" fill="none"></path><path d="M32 0 M32 0 C108.93 0, 185.86 0, 344.3 0 M32 0 C109.69 0, 187.38 0, 344.3 0 M344.3 0 C365.63 0, 376.3 10.67, 376.3 32 M344.3 0 C365.63 0, 376.3 10.67, 376.3 32 M376.3 32 C376.3 125.44, 376.3 218.88, 376.3 296.56 M376.3 32 C376.3 91.56, 376.3 151.11, 376.3 296.56 M376.3 296.56 C376.3 317.89, 365.63 328.56, 344.3 328.56 M376.3 296.56 C376.3 317.89, 365.63 328.56, 344.3 328.56 M344.3 328.56 C267.89 328.56, 191.48 328.56, 32 328.56 M344.3 328.56 C265.81 328.56, 187.31 328.56, 32 328.56 M32 328.56 C10.67 328.56, 0 317.89, 0 296.56 M32 328.56 C10.67 328.56, 0 317.89, 0 296.56 M0 296.56 C0 204.41, 0 112.26, 0 32 M0 296.56 C0 235.52, 0 174.47, 0 32 M0 32 C0 10.67, 10.67 0, 32 0 M0 32 C0 10.67, 10.67 0, 32 0" stroke="#1e1e1e" stroke-width="4" fill="none"></path></g><g transform="translate(563.9543516336789 909.2279302140232) rotate(0 156.73333740234375 120.34831543116161)"><text x="156.73333740234375" y="0" font-family="Cascadia, Segoe UI Emoji" font-size="66.86017523953424px" fill="#1e1e1e" text-anchor="middle" style="white-space: pre;" direction="ltr" dominant-baseline="text-before-edge">T object</text><text x="156.73333740234375" y="80.23221028744109" font-family="Cascadia, Segoe UI Emoji" font-size="66.86017523953424px" fill="#1e1e1e" text-anchor="middle" style="white-space: pre;" direction="ltr" dominant-baseline="text-before-edge"></text><text x="156.73333740234375" y="160.46442057488218" font-family="Cascadia, Segoe UI Emoji" font-size="66.86017523953424px" fill="#1e1e1e" text-anchor="middle" style="white-space: pre;" direction="ltr" dominant-baseline="text-before-edge">#2</text></g><g stroke-linecap="round" transform="translate(151.24343213606062 863.0269710329594) rotate(0 188.15049284745714 164.2806542026301)"><path d="M7.86 8.16 C7.86 8.16, 7.86 8.16, 7.86 8.16 M7.86 8.16 C7.86 8.16, 7.86 8.16, 7.86 8.16 M8.78 31.49 C18.59 20.21, 28.39 8.93, 34.37 2.05 M8.78 31.49 C15.7 23.53, 22.62 15.57, 34.37 2.05 M8.39 56.32 C26.12 35.93, 43.84 15.54, 55.63 1.98 M8.39 56.32 C26.49 35.5, 44.59 14.68, 55.63 1.98 M8.66 80.4 C31.01 54.7, 53.35 28.99, 76.89 1.91 M8.66 80.4 C31.81 53.77, 54.97 27.13, 76.89 1.91 M8.27 105.24 C30.72 79.42, 53.16 53.6, 98.15 1.85 M8.27 105.24 C41.69 66.8, 75.1 28.36, 98.15 1.85 M8.54 129.32 C52.35 78.93, 96.16 28.53, 119.41 1.78 M8.54 129.32 C47.3 84.73, 86.06 40.14, 119.41 1.78 M8.15 154.16 C38.1 119.7, 68.06 85.24, 140.67 1.71 M8.15 154.16 C56.21 98.87, 104.27 43.59, 140.67 1.71 M8.41 178.24 C51.14 129.09, 93.86 79.95, 161.28 2.39 M8.41 178.24 C39.85 142.08, 71.28 105.92, 161.28 2.39 M8.68 202.32 C66.54 135.76, 124.41 69.19, 182.54 2.32 M8.68 202.32 C71.74 129.78, 134.8 57.24, 182.54 2.32 M8.29 227.16 C60.96 166.57, 113.62 105.99, 203.8 2.26 M8.29 227.16 C65.32 161.55, 122.35 95.94, 203.8 2.26 M8.56 251.24 C61.39 190.46, 114.23 129.68, 225.06 2.19 M8.56 251.24 C53.71 199.29, 98.87 147.34, 225.06 2.19 M8.17 276.08 C91.26 180.49, 174.36 84.9, 246.32 2.12 M8.17 276.08 C96.7 174.23, 185.23 72.38, 246.32 2.12 M3.18 306.2 C103.37 190.94, 203.56 75.68, 267.58 2.05 M3.18 306.2 C73.65 225.13, 144.12 144.07, 267.58 2.05 M10.01 322.73 C92.97 227.3, 175.92 131.87, 288.84 1.98 M10.01 322.73 C90.7 229.91, 171.39 137.08, 288.84 1.98 M25.37 329.45 C82.91 263.25, 140.46 197.05, 310.1 1.91 M25.37 329.45 C120.04 220.54, 214.71 111.64, 310.1 1.91 M40.72 336.18 C154.04 205.82, 267.36 75.46, 331.36 1.84 M40.72 336.18 C118.6 246.59, 196.47 157.01, 331.36 1.84 M61.98 336.11 C155.98 227.98, 249.98 119.84, 352.62 1.77 M61.98 336.11 C158.53 225.05, 255.07 113.98, 352.62 1.77 M83.24 336.04 C167.75 238.82, 252.27 141.6, 368.63 7.74 M83.24 336.04 C143.29 266.96, 203.34 197.88, 368.63 7.74 M104.5 335.97 C213.41 210.69, 322.32 85.4, 378.08 21.26 M104.5 335.97 C164.94 266.44, 225.39 196.91, 378.08 21.26 M125.76 335.9 C224.39 222.45, 323.01 108.99, 384.25 38.55 M125.76 335.9 C229.03 217.11, 332.29 98.32, 384.25 38.55 M147.02 335.83 C200.69 274.09, 254.36 212.35, 383.86 63.38 M147.02 335.83 C214.23 258.52, 281.43 181.22, 383.86 63.38 M167.63 336.52 C212.41 285.01, 257.18 233.5, 384.13 87.46 M167.63 336.52 C253.7 237.5, 339.77 138.49, 384.13 87.46 M188.89 336.45 C238.71 279.14, 288.53 221.83, 384.39 111.55 M188.89 336.45 C234.91 283.51, 280.93 230.57, 384.39 111.55 M210.15 336.38 C249.78 290.79, 289.41 245.2, 384 136.38 M210.15 336.38 C270.42 267.05, 330.69 197.71, 384 136.38 M231.41 336.31 C273.27 288.15, 315.13 240, 384.27 160.46 M231.41 336.31 C280.36 280, 329.31 223.69, 384.27 160.46 M252.67 336.24 C291.53 291.53, 330.4 246.82, 383.88 185.3 M252.67 336.24 C287.91 295.7, 323.15 255.16, 383.88 185.3 M273.93 336.17 C309.22 295.58, 344.51 254.98, 384.15 209.38 M273.93 336.17 C297.34 309.24, 320.75 282.31, 384.15 209.38 M295.19 336.1 C326.91 299.61, 358.64 263.11, 383.76 234.22 M295.19 336.1 C327.49 298.94, 359.8 261.78, 383.76 234.22 M316.45 336.04 C341.82 306.84, 367.2 277.65, 384.02 258.3 M316.45 336.04 C337.78 311.5, 359.11 286.96, 384.02 258.3 M337.71 335.97 C354.29 316.9, 370.86 297.83, 384.29 282.38 M337.71 335.97 C352.44 319.02, 367.17 302.07, 384.29 282.38" stroke="#a5d8ff" stroke-width="2" fill="none"></path><path d="M32 0 M32 0 C115.38 0, 198.76 0, 344.3 0 M32 0 C114.28 0, 196.57 0, 344.3 0 M344.3 0 C365.63 0, 376.3 10.67, 376.3 32 M344.3 0 C365.63 0, 376.3 10.67, 376.3 32 M376.3 32 C376.3 96.17, 376.3 160.34, 376.3 296.56 M376.3 32 C376.3 91.43, 376.3 150.86, 376.3 296.56 M376.3 296.56 C376.3 317.89, 365.63 328.56, 344.3 328.56 M376.3 296.56 C376.3 317.89, 365.63 328.56, 344.3 328.56 M344.3 328.56 C241.71 328.56, 139.11 328.56, 32 328.56 M344.3 328.56 C250.78 328.56, 157.26 328.56, 32 328.56 M32 328.56 C10.67 328.56, 0 317.89, 0 296.56 M32 328.56 C10.67 328.56, 0 317.89, 0 296.56 M0 296.56 C0 241.84, 0 187.11, 0 32 M0 296.56 C0 213.25, 0 129.94, 0 32 M0 32 C0 10.67, 10.67 0, 32 0 M0 32 C0 10.67, 10.67 0, 32 0" stroke="#1e1e1e" stroke-width="4" fill="none"></path></g><g transform="translate(183.71304943722953 910.0789048537554) rotate(0 156.73333740234375 120.34831543116161)"><text x="156.73333740234375" y="0" font-family="Cascadia, Segoe UI Emoji" font-size="66.86017523953424px" fill="#1e1e1e" text-anchor="middle" style="white-space: pre;" direction="ltr" dominant-baseline="text-before-edge">T object</text><text x="156.73333740234375" y="80.23221028744109" font-family="Cascadia, Segoe UI Emoji" font-size="66.86017523953424px" fill="#1e1e1e" text-anchor="middle" style="white-space: pre;" direction="ltr" dominant-baseline="text-before-edge"></text><text x="156.73333740234375" y="160.46442057488218" font-family="Cascadia, Segoe UI Emoji" font-size="66.86017523953424px" fill="#1e1e1e" text-anchor="middle" style="white-space: pre;" direction="ltr" dominant-baseline="text-before-edge">#1</text></g><g transform="translate(170.32832033540672 730.8050041680544) rotate(0 345.5 58.971079010931135)"><text x="345.5" y="0" font-family="Cascadia, Segoe UI Emoji" font-size="98.285131684885px" fill="#1e1e1e" text-anchor="middle" style="white-space: pre;" direction="ltr" dominant-baseline="text-before-edge">t_buffer_new</text></g><g transform="translate(150.70365686025525 153.95483685717045) rotate(0 236.6666717529297 60.592815600071845)"><text x="236.6666717529297" y="0" font-family="Cascadia, Segoe UI Emoji" font-size="100.98802600011899px" fill="#1e1e1e" text-anchor="middle" style="white-space: pre;" direction="ltr" dominant-baseline="text-before-edge">t_buffer</text></g><g transform="translate(1898.560536135251 24.824133632151643) rotate(0 227.60000610351562 77.67873022429012)"><text x="227.60000610351562" y="0" font-family="Cascadia, Segoe UI Emoji" font-size="129.4645503738171px" fill="#e03131" text-anchor="middle" style="white-space: pre;" direction="ltr" dominant-baseline="text-before-edge">After </text></g><g stroke-linecap="round" transform="translate(10 10) rotate(0 1179.3943268256335 656.4944714164885)"><path d="M32 0 M32 0 C911.23 0, 1790.46 0, 2326.79 0 M2326.79 0 C2348.12 0, 2358.79 10.67, 2358.79 32 M2358.79 32 C2358.79 310.59, 2358.79 589.18, 2358.79 1280.99 M2358.79 1280.99 C2358.79 1302.32, 2348.12 1312.99, 2326.79 1312.99 M2326.79 1312.99 C1643.99 1312.99, 961.2 1312.99, 32 1312.99 M32 1312.99 C10.67 1312.99, 0 1302.32, 0 1280.99 M0 1280.99 C0 877.31, 0 473.63, 0 32 M0 32 C0 10.67, 10.67 0, 32 0" stroke="#868e96" stroke-width="4.5" fill="none" stroke-dasharray="1.5 10"></path></g></svg>