<svg version="1.1" xmlns="http://www.w3.org/2000/svg" viewBox="0 0 5018.78027130473 1344.1432049867326" width="15056.34081391419" height="4032.429614960198">
  <!-- svg-source:excalidraw -->
  
  <defs>
    <style class="style-fonts">
      @font-face {
        font-family: "Virgil";
        src: url("https://excalidraw.com/Virgil.woff2");
      }
      @font-face {
        font-family: "Cascadia";
        src: url("https://excalidraw.com/Cascadia.woff2");
      }
    </style>
    
  </defs>
  <g stroke-linecap="round" transform="translate(10 10) rotate(0 1179.3943268256335 662.0716024933663)"><path d="M32 0 M32 0 C554.95 0, 1077.9 0, 2326.79 0 M2326.79 0 C2348.12 0, 2358.79 10.67, 2358.79 32 M2358.79 32 C2358.79 374.09, 2358.79 716.18, 2358.79 1292.14 M2358.79 1292.14 C2358.79 1313.48, 2348.12 1324.14, 2326.79 1324.14 M2326.79 1324.14 C1712.74 1324.14, 1098.7 1324.14, 32 1324.14 M32 1324.14 C10.67 1324.14, 0 1313.48, 0 1292.14 M0 1292.14 C0 1036.6, 0 781.06, 0 32 M0 32 C0 10.67, 10.67 0, 32 0" stroke="#868e96" stroke-width="4.5" fill="none" stroke-dasharray="1.5 10"></path></g><g stroke-linecap="round" transform="translate(143.41771486198923 889.5288167281833) rotate(0 1051.165921084296 163.1840947813307)"><path d="M7.86 8.16 C7.86 8.16, 7.86 8.16, 7.86 8.16 M7.86 8.16 C7.86 8.16, 7.86 8.16, 7.86 8.16 M4.85 36.01 C12.05 27.73, 19.24 19.45, 34.37 2.05 M4.85 36.01 C14.7 24.68, 24.55 13.35, 34.37 2.05 M5.11 60.1 C23.5 38.95, 41.88 17.8, 55.63 1.98 M5.11 60.1 C16.11 47.45, 27.1 34.81, 55.63 1.98 M4.72 84.93 C27.76 58.43, 50.81 31.92, 76.89 1.91 M4.72 84.93 C27.79 58.4, 50.86 31.86, 76.89 1.91 M4.99 109.01 C40.68 67.95, 76.38 26.89, 98.15 1.85 M4.99 109.01 C30.17 80.05, 55.35 51.08, 98.15 1.85 M5.26 133.1 C48.09 83.82, 90.93 34.54, 119.41 1.78 M5.26 133.1 C49 82.78, 92.74 32.46, 119.41 1.78 M4.87 157.93 C49.34 106.77, 93.82 55.6, 140.67 1.71 M4.87 157.93 C50.95 104.92, 97.04 51.9, 140.67 1.71 M5.13 182.01 C44.13 137.16, 83.12 92.3, 161.28 2.39 M5.13 182.01 C63.18 115.24, 121.23 48.46, 161.28 2.39 M4.74 206.85 C74.99 126.04, 145.24 45.22, 182.54 2.32 M4.74 206.85 C66.9 135.35, 129.06 63.84, 182.54 2.32 M5.01 230.93 C49.94 179.24, 94.88 127.55, 203.8 2.26 M5.01 230.93 C77.1 148, 149.19 65.07, 203.8 2.26 M5.28 255.01 C66.7 184.35, 128.13 113.69, 225.06 2.19 M5.28 255.01 C50.47 203.02, 95.67 151.03, 225.06 2.19 M4.89 279.85 C85.24 187.41, 165.6 94.98, 246.32 2.12 M4.89 279.85 C92.46 179.11, 180.03 78.37, 246.32 2.12 M4.5 304.69 C75.37 223.16, 146.23 141.64, 267.58 2.05 M4.5 304.69 C81.24 216.4, 157.99 128.12, 267.58 2.05 M11.32 321.22 C79.05 243.31, 146.77 165.4, 288.84 1.98 M11.32 321.22 C69.21 254.63, 127.09 188.04, 288.84 1.98 M26.68 327.94 C125.57 214.18, 224.46 100.43, 310.1 1.91 M26.68 327.94 C132.04 206.74, 237.4 85.53, 310.1 1.91 M47.94 327.88 C155.34 204.33, 262.74 80.78, 331.36 1.84 M47.94 327.88 C123.48 240.98, 199.01 154.09, 331.36 1.84 M69.2 327.81 C153.52 230.81, 237.84 133.8, 352.62 1.77 M69.2 327.81 C151.22 233.45, 233.24 139.1, 352.62 1.77 M90.46 327.74 C147.61 262, 204.76 196.25, 373.22 2.46 M90.46 327.74 C184.48 219.58, 278.5 111.42, 373.22 2.46 M111.72 327.67 C221.97 200.84, 332.22 74.01, 394.48 2.39 M111.72 327.67 C187.49 240.51, 263.25 153.35, 394.48 2.39 M132.98 327.6 C224.43 222.4, 315.88 117.19, 415.74 2.32 M132.98 327.6 C226.91 219.55, 320.84 111.49, 415.74 2.32 M154.24 327.53 C237.97 231.21, 321.71 134.88, 437 2.25 M154.24 327.53 C213.74 259.09, 273.24 190.64, 437 2.25 M174.84 328.22 C287.67 198.43, 400.49 68.64, 458.26 2.18 M174.84 328.22 C237.46 256.19, 300.07 184.16, 458.26 2.18 M196.1 328.15 C304.24 203.75, 412.38 79.35, 479.52 2.11 M196.1 328.15 C309.33 197.9, 422.55 67.65, 479.52 2.11 M217.36 328.08 C281.59 254.2, 345.82 180.31, 500.78 2.04 M217.36 328.08 C297.79 235.57, 378.21 143.05, 500.78 2.04 M238.62 328.01 C297.24 260.58, 355.86 193.15, 522.04 1.98 M238.62 328.01 C351.3 198.39, 463.98 68.77, 522.04 1.98 M259.89 327.94 C332.11 244.86, 404.33 161.78, 543.3 1.91 M259.89 327.94 C326.6 251.2, 393.31 174.45, 543.3 1.91 M281.15 327.87 C345.75 253.55, 410.35 179.24, 564.56 1.84 M281.15 327.87 C379.4 214.84, 477.65 101.82, 564.56 1.84 M302.41 327.8 C379.84 238.72, 457.28 149.64, 585.17 2.52 M302.41 327.8 C392.95 223.64, 483.5 119.47, 585.17 2.52 M323.67 327.73 C407.42 231.39, 491.17 135.04, 606.43 2.45 M323.67 327.73 C399.61 240.37, 475.56 153, 606.43 2.45 M344.93 327.66 C435.46 223.52, 525.99 119.37, 627.69 2.38 M344.93 327.66 C404.98 258.58, 465.04 189.49, 627.69 2.38 M366.19 327.6 C467.47 211.08, 568.76 94.56, 648.95 2.32 M366.19 327.6 C469.32 208.95, 572.46 90.3, 648.95 2.32 M386.79 328.28 C493.22 205.85, 599.65 83.41, 670.21 2.25 M386.79 328.28 C476.25 225.37, 565.71 122.45, 670.21 2.25 M408.05 328.21 C508.91 212.19, 609.76 96.17, 691.47 2.18 M408.05 328.21 C497.69 225.09, 587.33 121.97, 691.47 2.18 M429.31 328.14 C504.98 241.09, 580.65 154.05, 712.73 2.11 M429.31 328.14 C503.99 242.24, 578.66 156.34, 712.73 2.11 M450.57 328.07 C543.08 221.65, 635.59 115.23, 733.99 2.04 M450.57 328.07 C559.41 202.87, 668.24 77.67, 733.99 2.04 M471.83 328.01 C575.83 208.36, 679.84 88.72, 755.25 1.97 M471.83 328.01 C533.91 256.59, 595.99 185.18, 755.25 1.97 M493.09 327.94 C578.8 229.34, 664.51 130.75, 776.51 1.9 M493.09 327.94 C580.5 227.38, 667.92 126.82, 776.51 1.9 M514.35 327.87 C597.24 232.52, 680.12 137.17, 797.11 2.59 M514.35 327.87 C620.43 205.83, 726.52 83.8, 797.11 2.59 M535.61 327.8 C595.47 258.94, 655.33 190.08, 818.37 2.52 M535.61 327.8 C594.91 259.58, 654.21 191.36, 818.37 2.52 M556.87 327.73 C615.83 259.91, 674.79 192.08, 839.63 2.45 M556.87 327.73 C628.81 244.98, 700.74 162.22, 839.63 2.45 M578.13 327.66 C684.86 204.89, 791.58 82.12, 860.89 2.38 M578.13 327.66 C659.5 234.05, 740.87 140.45, 860.89 2.38 M598.74 328.35 C689.83 223.55, 780.93 118.75, 882.15 2.31 M598.74 328.35 C657.96 260.21, 717.19 192.08, 882.15 2.31 M620 328.28 C681.82 257.16, 743.64 186.04, 903.41 2.24 M620 328.28 C711.3 223.25, 802.6 118.21, 903.41 2.24 M641.26 328.21 C750.52 202.51, 859.78 76.82, 924.67 2.17 M641.26 328.21 C732.17 223.62, 823.09 119.03, 924.67 2.17 M662.52 328.14 C761.02 214.82, 859.52 101.51, 945.93 2.1 M662.52 328.14 C767.98 206.82, 873.44 85.5, 945.93 2.1 M683.78 328.07 C797.07 197.74, 910.37 67.41, 967.19 2.04 M683.78 328.07 C769.21 229.79, 854.64 131.52, 967.19 2.04 M705.04 328 C782.93 238.4, 860.82 148.79, 988.45 1.97 M705.04 328 C783.42 237.83, 861.81 147.65, 988.45 1.97 M726.3 327.93 C813.49 227.63, 900.68 127.32, 1009.06 2.65 M726.3 327.93 C837.2 200.36, 948.09 72.78, 1009.06 2.65 M747.56 327.86 C833.62 228.86, 919.68 129.86, 1030.32 2.58 M747.56 327.86 C847.71 212.65, 947.86 97.44, 1030.32 2.58 M768.82 327.79 C853.91 229.9, 939.01 132.01, 1051.58 2.51 M768.82 327.79 C843.48 241.9, 918.15 156.01, 1051.58 2.51 M790.08 327.73 C856.78 250.99, 923.48 174.26, 1072.84 2.45 M790.08 327.73 C875.83 229.08, 961.59 130.43, 1072.84 2.45 M811.34 327.66 C899.66 226.05, 987.99 124.44, 1094.1 2.38 M811.34 327.66 C901.16 224.32, 990.99 120.99, 1094.1 2.38 M831.94 328.34 C906.9 242.12, 981.85 155.89, 1115.36 2.31 M831.94 328.34 C917.48 229.94, 1003.02 131.54, 1115.36 2.31 M853.2 328.27 C944.71 223.01, 1036.21 117.75, 1136.62 2.24 M853.2 328.27 C961.86 203.28, 1070.52 78.28, 1136.62 2.24 M874.46 328.2 C953.94 236.77, 1033.42 145.34, 1157.88 2.17 M874.46 328.2 C961.62 227.94, 1048.77 127.68, 1157.88 2.17 M895.72 328.14 C968.82 244.05, 1041.91 159.96, 1179.14 2.1 M895.72 328.14 C958.42 256.01, 1021.12 183.88, 1179.14 2.1 M916.98 328.07 C1021.69 207.61, 1126.41 87.15, 1200.4 2.03 M916.98 328.07 C1018.37 211.43, 1119.76 94.79, 1200.4 2.03 M938.24 328 C1019.78 234.2, 1101.31 140.41, 1221 2.72 M938.24 328 C1000.71 256.14, 1063.18 184.28, 1221 2.72 M959.5 327.93 C1047.88 226.27, 1136.25 124.61, 1242.26 2.65 M959.5 327.93 C1035.73 240.24, 1111.95 152.56, 1242.26 2.65 M980.76 327.86 C1074.16 220.41, 1167.56 112.97, 1263.52 2.58 M980.76 327.86 C1066.12 229.66, 1151.48 131.47, 1263.52 2.58 M1002.02 327.79 C1082.88 234.78, 1163.73 141.76, 1284.78 2.51 M1002.02 327.79 C1098.09 217.28, 1194.16 106.76, 1284.78 2.51 M1023.28 327.72 C1120.91 215.41, 1218.54 103.11, 1306.04 2.44 M1023.28 327.72 C1083.57 258.37, 1143.85 189.02, 1306.04 2.44 M1043.89 328.41 C1146.29 210.61, 1248.69 92.81, 1327.3 2.37 M1043.89 328.41 C1113.25 248.62, 1182.6 168.83, 1327.3 2.37 M1065.15 328.34 C1133.15 250.1, 1201.16 171.87, 1348.57 2.3 M1065.15 328.34 C1131.37 252.16, 1197.6 175.97, 1348.57 2.3 M1086.41 328.27 C1144.66 261.26, 1202.91 194.25, 1369.83 2.23 M1086.41 328.27 C1182.94 217.22, 1279.48 106.17, 1369.83 2.23 M1107.67 328.2 C1211.53 208.72, 1315.39 89.24, 1391.09 2.17 M1107.67 328.2 C1184.69 239.6, 1261.7 151, 1391.09 2.17 M1128.93 328.13 C1236.87 203.96, 1344.81 79.79, 1412.35 2.1 M1128.93 328.13 C1231.87 209.7, 1334.82 91.28, 1412.35 2.1 M1150.19 328.06 C1213.15 255.63, 1276.12 183.19, 1433.61 2.03 M1150.19 328.06 C1253.81 208.86, 1357.42 89.67, 1433.61 2.03 M1171.45 327.99 C1240.67 248.36, 1309.9 168.73, 1454.21 2.71 M1171.45 327.99 C1264.22 221.27, 1356.99 114.55, 1454.21 2.71 M1192.71 327.92 C1291.61 214.15, 1390.52 100.37, 1475.47 2.64 M1192.71 327.92 C1301.03 203.32, 1409.35 78.71, 1475.47 2.64 M1213.97 327.85 C1284.74 246.45, 1355.5 165.04, 1496.73 2.58 M1213.97 327.85 C1279.11 252.92, 1344.26 177.98, 1496.73 2.58 M1235.23 327.79 C1302.33 250.59, 1369.43 173.4, 1517.99 2.51 M1235.23 327.79 C1326.2 223.14, 1417.16 118.49, 1517.99 2.51 M1255.83 328.47 C1325.38 248.46, 1394.93 168.46, 1539.25 2.44 M1255.83 328.47 C1353.61 216, 1451.38 103.52, 1539.25 2.44 M1277.09 328.4 C1338.9 257.3, 1400.71 186.2, 1560.51 2.37 M1277.09 328.4 C1336.25 260.35, 1395.4 192.3, 1560.51 2.37 M1298.35 328.33 C1404.26 206.51, 1510.16 84.68, 1581.77 2.3 M1298.35 328.33 C1390.87 221.9, 1483.39 115.47, 1581.77 2.3 M1319.61 328.26 C1424.69 207.39, 1529.76 86.52, 1603.03 2.23 M1319.61 328.26 C1376.59 262.73, 1433.56 197.19, 1603.03 2.23 M1340.87 328.2 C1446.84 206.3, 1552.8 84.4, 1624.29 2.16 M1340.87 328.2 C1428.46 227.44, 1516.05 126.68, 1624.29 2.16 M1362.13 328.13 C1424.27 256.65, 1486.4 185.18, 1645.55 2.09 M1362.13 328.13 C1442.96 235.14, 1523.79 142.16, 1645.55 2.09 M1383.39 328.06 C1462.61 236.94, 1541.82 145.81, 1666.16 2.78 M1383.39 328.06 C1441.84 260.83, 1500.28 193.59, 1666.16 2.78 M1404.65 327.99 C1470.48 252.26, 1536.31 176.54, 1687.42 2.71 M1404.65 327.99 C1511.41 205.18, 1618.17 82.37, 1687.42 2.71 M1425.91 327.92 C1516.92 223.23, 1607.93 118.53, 1708.68 2.64 M1425.91 327.92 C1486.15 258.62, 1546.39 189.33, 1708.68 2.64 M1447.17 327.85 C1539.37 221.8, 1631.56 115.74, 1729.94 2.57 M1447.17 327.85 C1510.52 254.98, 1573.87 182.1, 1729.94 2.57 M1467.78 328.54 C1531.2 255.58, 1594.63 182.62, 1751.2 2.5 M1467.78 328.54 C1553.2 230.27, 1638.62 132.01, 1751.2 2.5 M1489.04 328.47 C1590.74 211.47, 1692.44 94.48, 1772.46 2.43 M1489.04 328.47 C1574.16 230.55, 1659.27 132.64, 1772.46 2.43 M1510.3 328.4 C1597.01 228.65, 1683.72 128.9, 1793.72 2.36 M1510.3 328.4 C1602.34 222.52, 1694.38 116.63, 1793.72 2.36 M1531.56 328.33 C1598.56 251.26, 1665.56 174.18, 1814.98 2.29 M1531.56 328.33 C1619.92 226.69, 1708.27 125.05, 1814.98 2.29 M1552.82 328.26 C1661.57 203.16, 1770.32 78.06, 1836.24 2.23 M1552.82 328.26 C1642.33 225.29, 1731.84 122.32, 1836.24 2.23 M1574.08 328.19 C1633.38 259.98, 1692.67 191.76, 1857.5 2.16 M1574.08 328.19 C1657.22 232.55, 1740.37 136.9, 1857.5 2.16 M1595.34 328.12 C1671.05 241.03, 1746.75 153.94, 1878.1 2.84 M1595.34 328.12 C1704.76 202.25, 1814.18 76.37, 1878.1 2.84 M1616.6 328.05 C1722.11 206.68, 1827.62 85.3, 1899.36 2.77 M1616.6 328.05 C1704.22 227.26, 1791.84 126.46, 1899.36 2.77 M1637.86 327.98 C1712.51 242.1, 1787.17 156.23, 1920.62 2.7 M1637.86 327.98 C1702.97 253.08, 1768.08 178.18, 1920.62 2.7 M1659.12 327.92 C1763.54 207.79, 1867.96 87.67, 1941.88 2.64 M1659.12 327.92 C1759.7 212.21, 1860.27 96.51, 1941.88 2.64 M1679.72 328.6 C1757.34 239.32, 1834.95 150.04, 1963.14 2.57 M1679.72 328.6 C1741.35 257.7, 1802.98 186.81, 1963.14 2.57 M1700.98 328.53 C1781.51 235.9, 1862.04 143.26, 1984.4 2.5 M1700.98 328.53 C1773.24 245.42, 1845.49 162.3, 1984.4 2.5 M1722.25 328.46 C1805.52 232.67, 1888.79 136.88, 2005.66 2.43 M1722.25 328.46 C1807.26 230.66, 1892.28 132.86, 2005.66 2.43 M1743.51 328.39 C1842.53 214.48, 1941.56 100.56, 2026.92 2.36 M1743.51 328.39 C1845.92 210.58, 1948.33 92.77, 2026.92 2.36 M1764.77 328.33 C1854.28 225.35, 1943.8 122.37, 2048.18 2.29 M1764.77 328.33 C1852.33 227.59, 1939.9 126.85, 2048.18 2.29 M1786.03 328.26 C1854.67 249.29, 1923.31 170.33, 2069.44 2.22 M1786.03 328.26 C1859.27 244, 1932.51 159.74, 2069.44 2.22 M1807.29 328.19 C1871.08 254.8, 1934.87 181.42, 2088.08 5.17 M1807.29 328.19 C1878.96 245.74, 1950.63 163.29, 2088.08 5.17 M1828.55 328.12 C1933.34 207.57, 2038.13 87.02, 2100.81 14.91 M1828.55 328.12 C1899.15 246.89, 1969.76 165.67, 2100.81 14.91 M1849.81 328.05 C1930.03 235.76, 2010.26 143.47, 2108.29 30.69 M1849.81 328.05 C1909.08 259.86, 1968.35 191.68, 2108.29 30.69 M1871.07 327.98 C1929.3 260.99, 1987.54 194, 2108.56 54.78 M1871.07 327.98 C1943.95 244.13, 2016.84 160.28, 2108.56 54.78 M1891.67 328.67 C1966.21 242.92, 2040.75 157.17, 2108.83 78.86 M1891.67 328.67 C1957.11 253.39, 2022.55 178.11, 2108.83 78.86 M1912.93 328.6 C1959.1 275.49, 2005.26 222.38, 2108.44 103.69 M1912.93 328.6 C1966.44 267.05, 2019.94 205.49, 2108.44 103.69 M1934.19 328.53 C1986.37 268.5, 2038.55 208.48, 2108.7 127.78 M1934.19 328.53 C1972.8 284.12, 2011.4 239.7, 2108.7 127.78 M1955.45 328.46 C1988.47 290.47, 2021.49 252.49, 2108.31 152.61 M1955.45 328.46 C1995.48 282.41, 2035.51 236.36, 2108.31 152.61 M1976.71 328.39 C2009.16 291.06, 2041.62 253.73, 2108.58 176.69 M1976.71 328.39 C2018.72 280.07, 2060.72 231.75, 2108.58 176.69 M1997.97 328.32 C2041.04 278.77, 2084.11 229.22, 2108.85 200.78 M1997.97 328.32 C2031.61 289.62, 2065.25 250.92, 2108.85 200.78 M2019.23 328.25 C2041.39 302.76, 2063.55 277.27, 2108.46 225.61 M2019.23 328.25 C2037.3 307.47, 2055.37 286.68, 2108.46 225.61 M2040.49 328.18 C2054.31 312.29, 2068.12 296.4, 2108.72 249.69 M2040.49 328.18 C2058.22 307.79, 2075.96 287.39, 2108.72 249.69 M2061.75 328.11 C2074.09 313.92, 2086.42 299.73, 2108.33 274.53 M2061.75 328.11 C2073.96 314.07, 2086.17 300.03, 2108.33 274.53 M2085.64 325.03 C2090.27 319.7, 2094.9 314.37, 2104.01 303.89 M2085.64 325.03 C2091.56 318.21, 2097.49 311.39, 2104.01 303.89" stroke="#868e96" stroke-width="2" fill="none"></path><path d="M32 0 M32 0 C541.58 0, 1051.15 0, 2070.33 0 M32 0 C777.87 0, 1523.74 0, 2070.33 0 M2070.33 0 C2091.67 0, 2102.33 10.67, 2102.33 32 M2070.33 0 C2091.67 0, 2102.33 10.67, 2102.33 32 M2102.33 32 C2102.33 113.7, 2102.33 195.4, 2102.33 294.37 M2102.33 32 C2102.33 101.18, 2102.33 170.37, 2102.33 294.37 M2102.33 294.37 C2102.33 315.7, 2091.67 326.37, 2070.33 326.37 M2102.33 294.37 C2102.33 315.7, 2091.67 326.37, 2070.33 326.37 M2070.33 326.37 C1366.29 326.37, 662.24 326.37, 32 326.37 M2070.33 326.37 C1638.23 326.37, 1206.13 326.37, 32 326.37 M32 326.37 C10.67 326.37, 0 315.7, 0 294.37 M32 326.37 C10.67 326.37, 0 315.7, 0 294.37 M0 294.37 C0 210.86, 0 127.35, 0 32 M0 294.37 C0 207.78, 0 121.19, 0 32 M0 32 C0 10.67, 10.67 0, 32 0 M0 32 C0 10.67, 10.67 0, 32 0" stroke="#1e1e1e" stroke-width="4" fill="none"></path></g><g stroke-linecap="round" transform="translate(4312.95901394787 859.4767123036581) rotate(0 300.47914529370024 164.2806542026301)"><path d="M7.86 8.16 C7.86 8.16, 7.86 8.16, 7.86 8.16 M7.86 8.16 C7.86 8.16, 7.86 8.16, 7.86 8.16 M4.85 36.01 C12.75 26.93, 20.65 17.84, 34.37 2.05 M4.85 36.01 C12.77 26.9, 20.69 17.79, 34.37 2.05 M4.46 60.85 C22.27 40.37, 40.07 19.88, 55.63 1.98 M4.46 60.85 C18.6 44.58, 32.74 28.31, 55.63 1.98 M4.72 84.93 C31.26 54.41, 57.79 23.89, 76.89 1.91 M4.72 84.93 C33.03 52.37, 61.34 19.81, 76.89 1.91 M4.99 109.01 C23.85 87.32, 42.71 65.63, 98.15 1.85 M4.99 109.01 C26.09 84.74, 47.19 60.47, 98.15 1.85 M4.6 133.85 C48.69 83.13, 92.78 32.41, 119.41 1.78 M4.6 133.85 C29.13 105.64, 53.65 77.43, 119.41 1.78 M4.87 157.93 C40.96 116.41, 77.06 74.89, 140.67 1.71 M4.87 157.93 C58.65 96.06, 112.44 34.19, 140.67 1.71 M4.48 182.77 C49.68 130.77, 94.88 78.78, 161.28 2.39 M4.48 182.77 C52.9 127.06, 101.33 71.36, 161.28 2.39 M4.74 206.85 C66.05 136.32, 127.36 65.8, 182.54 2.32 M4.74 206.85 C69.43 132.44, 134.11 58.03, 182.54 2.32 M5.01 230.93 C54.17 174.38, 103.33 117.83, 203.8 2.26 M5.01 230.93 C71.41 154.54, 137.82 78.15, 203.8 2.26 M4.62 255.77 C68.9 181.82, 133.19 107.87, 225.06 2.19 M4.62 255.77 C79.18 170, 153.74 84.23, 225.06 2.19 M4.89 279.85 C82.96 190.04, 161.04 100.22, 246.32 2.12 M4.89 279.85 C83.36 189.57, 161.84 99.29, 246.32 2.12 M3.18 306.2 C83.44 213.87, 163.7 121.55, 267.58 2.05 M3.18 306.2 C71.27 227.88, 139.35 149.55, 267.58 2.05 M10.01 322.73 C114.3 202.76, 218.59 82.78, 288.84 1.98 M10.01 322.73 C120.81 195.28, 231.6 67.82, 288.84 1.98 M25.37 329.45 C88.96 256.3, 152.55 183.15, 310.1 1.91 M25.37 329.45 C107.79 234.64, 190.21 139.83, 310.1 1.91 M40.72 336.18 C143.06 218.45, 245.4 100.72, 331.36 1.84 M40.72 336.18 C112.26 253.88, 183.81 171.58, 331.36 1.84 M61.98 336.11 C131.43 256.21, 200.88 176.32, 352.62 1.77 M61.98 336.11 C158.37 225.23, 254.75 114.35, 352.62 1.77 M83.24 336.04 C143.06 267.23, 202.88 198.41, 373.88 1.7 M83.24 336.04 C154.83 253.68, 226.42 171.33, 373.88 1.7 M104.5 335.97 C215.79 207.95, 327.08 79.93, 394.48 2.39 M104.5 335.97 C194.76 232.14, 285.01 128.32, 394.48 2.39 M125.76 335.9 C235.55 209.61, 345.33 83.31, 415.74 2.32 M125.76 335.9 C227.96 218.34, 330.15 100.78, 415.74 2.32 M147.02 335.83 C215.58 256.97, 284.13 178.11, 437 2.25 M147.02 335.83 C229.73 240.69, 312.43 145.55, 437 2.25 M167.63 336.52 C257.51 233.12, 347.39 129.73, 458.26 2.18 M167.63 336.52 C283.51 203.21, 399.39 69.91, 458.26 2.18 M188.89 336.45 C253.06 262.63, 317.23 188.81, 479.52 2.11 M188.89 336.45 C287.74 222.73, 386.59 109.02, 479.52 2.11 M210.15 336.38 C306.61 225.42, 403.07 114.45, 500.78 2.04 M210.15 336.38 C326.15 202.94, 442.15 69.5, 500.78 2.04 M231.41 336.31 C320.41 233.93, 409.41 131.55, 522.04 1.98 M231.41 336.31 C316.35 238.6, 401.29 140.89, 522.04 1.98 M252.67 336.24 C361.93 210.55, 471.19 84.86, 543.3 1.91 M252.67 336.24 C324.54 253.56, 396.41 170.88, 543.3 1.91 M273.93 336.17 C363.23 233.45, 452.53 130.72, 564.56 1.84 M273.93 336.17 C386.58 206.58, 499.23 77, 564.56 1.84 M295.19 336.1 C372.18 247.53, 449.18 158.96, 584.51 3.28 M295.19 336.1 C357.84 264.04, 420.48 191.97, 584.51 3.28 M316.45 336.04 C424.21 212.07, 531.98 88.1, 597.24 13.02 M316.45 336.04 C373.11 270.85, 429.78 205.67, 597.24 13.02 M337.71 335.97 C396.38 268.47, 455.06 200.97, 601.44 32.57 M337.71 335.97 C406.24 257.13, 474.77 178.3, 601.44 32.57 M358.97 335.9 C441.75 240.67, 524.52 145.45, 601.71 56.65 M358.97 335.9 C441.55 240.9, 524.14 145.9, 601.71 56.65 M380.23 335.83 C459.9 244.17, 539.58 152.52, 601.32 81.49 M380.23 335.83 C448.75 257, 517.27 178.18, 601.32 81.49 M400.83 336.51 C466.97 260.44, 533.1 184.36, 601.59 105.57 M400.83 336.51 C468.66 258.49, 536.49 180.46, 601.59 105.57 M422.09 336.45 C492.03 255.99, 561.96 175.54, 601.2 130.41 M422.09 336.45 C490 258.33, 557.9 180.21, 601.2 130.41 M443.35 336.38 C497.88 273.65, 552.41 210.92, 601.46 154.49 M443.35 336.38 C500.19 270.99, 557.03 205.61, 601.46 154.49 M464.61 336.31 C508.32 286.03, 552.03 235.75, 601.73 178.57 M464.61 336.31 C500.2 295.37, 535.8 254.42, 601.73 178.57 M485.87 336.24 C523.81 292.6, 561.74 248.97, 601.34 203.41 M485.87 336.24 C520.45 296.46, 555.03 256.68, 601.34 203.41 M507.13 336.17 C539.87 298.51, 572.61 260.85, 601.61 227.49 M507.13 336.17 C528.2 311.94, 549.26 287.71, 601.61 227.49 M528.39 336.1 C547.82 313.75, 567.25 291.41, 601.22 252.33 M528.39 336.1 C548.92 312.48, 569.45 288.87, 601.22 252.33 M549.65 336.03 C568.85 313.95, 588.05 291.87, 601.48 276.41 M549.65 336.03 C566.28 316.91, 582.9 297.79, 601.48 276.41 M577.48 328.42 C584.93 319.84, 592.39 311.26, 603.06 298.98 M577.48 328.42 C586.7 317.8, 595.93 307.19, 603.06 298.98" stroke="#868e96" stroke-width="2" fill="none"></path><path d="M32 0 M32 0 C183.55 0, 335.09 0, 568.96 0 M32 0 C184.52 0, 337.05 0, 568.96 0 M568.96 0 C590.29 0, 600.96 10.67, 600.96 32 M568.96 0 C590.29 0, 600.96 10.67, 600.96 32 M600.96 32 C600.96 86.71, 600.96 141.42, 600.96 296.56 M600.96 32 C600.96 96.68, 600.96 161.35, 600.96 296.56 M600.96 296.56 C600.96 317.89, 590.29 328.56, 568.96 328.56 M600.96 296.56 C600.96 317.89, 590.29 328.56, 568.96 328.56 M568.96 328.56 C389.94 328.56, 210.92 328.56, 32 328.56 M568.96 328.56 C371.69 328.56, 174.43 328.56, 32 328.56 M32 328.56 C10.67 328.56, 0 317.89, 0 296.56 M32 328.56 C10.67 328.56, 0 317.89, 0 296.56 M0 296.56 C0 239.87, 0 183.19, 0 32 M0 296.56 C0 240.72, 0 184.88, 0 32 M0 32 C0 10.67, 10.67 0, 32 0 M0 32 C0 10.67, 10.67 0, 32 0" stroke="#1e1e1e" stroke-width="4" fill="none"></path></g><g stroke-linecap="round" transform="translate(2772.428904377047 290.6089116875519) rotate(0 754.7081336231955 164.2806542026301)"><path d="M7.86 8.16 C7.86 8.16, 7.86 8.16, 7.86 8.16 M7.86 8.16 C7.86 8.16, 7.86 8.16, 7.86 8.16 M4.85 36.01 C16.1 23.07, 27.35 10.13, 34.37 2.05 M4.85 36.01 C12.45 27.27, 20.05 18.53, 34.37 2.05 M5.11 60.1 C23.56 38.87, 42.01 17.65, 55.63 1.98 M5.11 60.1 C21.02 41.8, 36.93 23.5, 55.63 1.98 M4.72 84.93 C31.56 54.06, 58.4 23.19, 76.89 1.91 M4.72 84.93 C26.02 60.44, 47.31 35.95, 76.89 1.91 M4.99 109.01 C41.81 66.65, 78.64 24.29, 98.15 1.85 M4.99 109.01 C25.77 85.11, 46.55 61.21, 98.15 1.85 M4.6 133.85 C38.44 94.92, 72.28 55.99, 119.41 1.78 M4.6 133.85 C49.21 82.53, 93.82 31.21, 119.41 1.78 M4.87 157.93 C40.1 117.41, 75.32 76.88, 140.02 2.46 M4.87 157.93 C35.94 122.19, 67 86.45, 140.02 2.46 M5.13 182.01 C64.46 113.77, 123.79 45.52, 161.28 2.39 M5.13 182.01 C54.85 124.82, 104.57 67.62, 161.28 2.39 M4.74 206.85 C58.39 145.14, 112.04 83.42, 182.54 2.32 M4.74 206.85 C47.96 157.13, 91.18 107.41, 182.54 2.32 M5.01 230.93 C45.36 184.51, 85.72 138.09, 203.8 2.26 M5.01 230.93 C83.46 140.69, 161.9 50.45, 203.8 2.26 M5.28 255.01 C61.14 190.76, 116.99 126.5, 225.06 2.19 M5.28 255.01 C60.23 191.8, 115.19 128.58, 225.06 2.19 M4.89 279.85 C97.77 173, 190.65 66.15, 246.32 2.12 M4.89 279.85 C91.06 180.72, 177.23 81.6, 246.32 2.12 M3.18 306.2 C95.43 200.08, 187.68 93.96, 267.58 2.05 M3.18 306.2 C60.77 239.95, 118.36 173.7, 267.58 2.05 M10.01 322.73 C91.22 229.31, 172.43 135.89, 288.84 1.98 M10.01 322.73 C86.6 234.63, 163.19 146.52, 288.84 1.98 M25.37 329.45 C85.81 259.93, 146.25 190.4, 310.1 1.91 M25.37 329.45 C137.31 200.68, 249.26 71.9, 310.1 1.91 M46.63 329.39 C141.74 219.97, 236.85 110.56, 331.36 1.84 M46.63 329.39 C116.96 248.47, 187.3 167.56, 331.36 1.84 M67.89 329.32 C171.82 209.75, 275.75 90.19, 351.96 2.53 M67.89 329.32 C125.42 263.14, 182.94 196.96, 351.96 2.53 M89.15 329.25 C165.81 241.06, 242.47 152.87, 373.22 2.46 M89.15 329.25 C175.14 230.32, 261.14 131.39, 373.22 2.46 M110.41 329.18 C203.19 222.45, 295.97 115.71, 394.48 2.39 M110.41 329.18 C210.4 214.15, 310.4 99.12, 394.48 2.39 M131.67 329.11 C217.11 230.82, 302.55 132.53, 415.74 2.32 M131.67 329.11 C216.97 230.98, 302.26 132.86, 415.74 2.32 M152.93 329.04 C240.06 228.81, 327.19 128.57, 437 2.25 M152.93 329.04 C245.95 222.03, 338.97 115.03, 437 2.25 M174.19 328.97 C280.48 206.7, 386.77 84.42, 458.26 2.18 M174.19 328.97 C238.9 254.53, 303.61 180.08, 458.26 2.18 M195.45 328.9 C284.58 226.37, 373.71 123.83, 479.52 2.11 M195.45 328.9 C279.06 232.71, 362.68 136.52, 479.52 2.11 M216.71 328.83 C297.03 236.43, 377.35 144.03, 500.78 2.04 M216.71 328.83 C302.83 229.76, 388.96 130.68, 500.78 2.04 M237.31 329.52 C308.66 247.44, 380.01 165.37, 522.04 1.98 M237.31 329.52 C350.6 199.19, 463.9 68.87, 522.04 1.98 M258.57 329.45 C362.37 210.05, 466.16 90.65, 543.3 1.91 M258.57 329.45 C336.57 239.73, 414.56 150, 543.3 1.91 M279.83 329.38 C341.01 259.01, 402.18 188.64, 563.91 2.59 M279.83 329.38 C354.53 243.45, 429.23 157.51, 563.91 2.59 M301.09 329.31 C358.71 263.03, 416.34 196.74, 585.17 2.52 M301.09 329.31 C391.22 225.63, 481.35 121.95, 585.17 2.52 M322.35 329.24 C379.61 263.38, 436.86 197.52, 606.43 2.45 M322.35 329.24 C405.91 233.13, 489.46 137.01, 606.43 2.45 M343.61 329.17 C436.31 222.54, 529 115.91, 627.69 2.38 M343.61 329.17 C440.23 218.02, 536.85 106.88, 627.69 2.38 M364.87 329.11 C477.92 199.06, 590.97 69.01, 648.95 2.32 M364.87 329.11 C471.58 206.35, 578.28 83.6, 648.95 2.32 M386.13 329.04 C473.88 228.1, 561.62 127.16, 670.21 2.25 M386.13 329.04 C465.41 237.84, 544.69 146.64, 670.21 2.25 M407.39 328.97 C489.41 234.62, 571.42 140.28, 691.47 2.18 M407.39 328.97 C512.9 207.59, 618.41 86.22, 691.47 2.18 M428.65 328.9 C505.31 240.72, 581.96 152.54, 712.73 2.11 M428.65 328.9 C485.59 263.4, 542.52 197.91, 712.73 2.11 M449.26 329.58 C549.82 213.9, 650.39 98.21, 733.99 2.04 M449.26 329.58 C513.35 255.85, 577.45 182.12, 733.99 2.04 M470.52 329.51 C576.93 207.1, 683.35 84.69, 755.25 1.97 M470.52 329.51 C527.5 263.97, 584.48 198.42, 755.25 1.97 M491.78 329.45 C595.79 209.79, 699.81 90.13, 775.85 2.66 M491.78 329.45 C565.65 244.47, 639.52 159.49, 775.85 2.66 M513.04 329.38 C606.92 221.38, 700.8 113.39, 797.11 2.59 M513.04 329.38 C599.35 230.09, 685.66 130.8, 797.11 2.59 M534.3 329.31 C618.85 232.04, 703.41 134.77, 818.37 2.52 M534.3 329.31 C613.61 238.07, 692.92 146.83, 818.37 2.52 M555.56 329.24 C639.43 232.75, 723.3 136.27, 839.63 2.45 M555.56 329.24 C659.79 209.34, 764.02 89.43, 839.63 2.45 M576.82 329.17 C637.33 259.56, 697.85 189.94, 860.89 2.38 M576.82 329.17 C652.17 242.48, 727.53 155.8, 860.89 2.38 M598.08 329.1 C702.78 208.66, 807.48 88.21, 882.15 2.31 M598.08 329.1 C704.43 206.75, 810.79 84.41, 882.15 2.31 M619.34 329.03 C725.28 207.16, 831.23 85.28, 903.41 2.24 M619.34 329.03 C699.06 237.32, 778.78 145.61, 903.41 2.24 M640.6 328.96 C724.76 232.14, 808.93 135.32, 924.67 2.17 M640.6 328.96 C737.47 217.53, 834.33 106.1, 924.67 2.17 M661.2 329.65 C756.13 220.45, 851.06 111.24, 945.93 2.1 M661.2 329.65 C765.81 209.32, 870.41 88.98, 945.93 2.1 M682.46 329.58 C787.67 208.56, 892.87 87.53, 967.19 2.04 M682.46 329.58 C742.57 260.43, 802.68 191.28, 967.19 2.04 M703.72 329.51 C773.51 249.23, 843.3 168.95, 987.8 2.72 M703.72 329.51 C773.96 248.72, 844.19 167.93, 987.8 2.72 M724.98 329.44 C817.21 223.35, 909.44 117.25, 1009.06 2.65 M724.98 329.44 C826.93 212.17, 928.87 94.9, 1009.06 2.65 M746.24 329.37 C847.48 212.91, 948.72 96.45, 1030.32 2.58 M746.24 329.37 C809.21 256.94, 872.17 184.51, 1030.32 2.58 M767.51 329.3 C836.7 249.71, 905.89 170.12, 1051.58 2.51 M767.51 329.3 C849.33 235.18, 931.15 141.06, 1051.58 2.51 M788.77 329.23 C876.1 228.77, 963.43 128.3, 1072.84 2.45 M788.77 329.23 C865.96 240.44, 943.15 151.64, 1072.84 2.45 M810.03 329.17 C881.97 246.4, 953.92 163.64, 1094.1 2.38 M810.03 329.17 C904.36 220.65, 998.69 112.13, 1094.1 2.38 M831.29 329.1 C898.35 251.95, 965.41 174.81, 1115.36 2.31 M831.29 329.1 C933.08 212, 1034.87 94.9, 1115.36 2.31 M852.55 329.03 C916.79 255.12, 981.04 181.22, 1136.62 2.24 M852.55 329.03 C953.15 213.29, 1053.76 97.56, 1136.62 2.24 M873.15 329.71 C951.4 239.7, 1029.65 149.68, 1157.88 2.17 M873.15 329.71 C964.81 224.27, 1056.47 118.82, 1157.88 2.17 M894.41 329.64 C974.12 237.95, 1053.82 146.26, 1179.14 2.1 M894.41 329.64 C964.77 248.7, 1035.14 167.76, 1179.14 2.1 M915.67 329.58 C987.13 247.37, 1058.6 165.16, 1199.74 2.79 M915.67 329.58 C1024.39 204.51, 1133.11 79.44, 1199.74 2.79 M936.93 329.51 C1015.79 238.78, 1094.66 148.06, 1221 2.72 M936.93 329.51 C1003.27 253.2, 1069.6 176.88, 1221 2.72 M958.19 329.44 C1068.82 202.17, 1179.46 74.9, 1242.26 2.65 M958.19 329.44 C1026.53 250.82, 1094.87 172.2, 1242.26 2.65 M979.45 329.37 C1072.49 222.34, 1165.53 115.3, 1263.52 2.58 M979.45 329.37 C1083.29 209.91, 1187.14 90.45, 1263.52 2.58 M1000.71 329.3 C1059.51 261.66, 1118.3 194.02, 1284.78 2.51 M1000.71 329.3 C1107.26 206.73, 1213.81 84.16, 1284.78 2.51 M1021.97 329.23 C1102.45 236.65, 1182.93 144.07, 1306.04 2.44 M1021.97 329.23 C1085.93 255.66, 1149.89 182.08, 1306.04 2.44 M1043.23 329.16 C1105.14 257.95, 1167.04 186.73, 1327.3 2.37 M1043.23 329.16 C1141.37 216.27, 1239.51 103.37, 1327.3 2.37 M1064.49 329.09 C1133.77 249.39, 1203.05 169.7, 1348.57 2.3 M1064.49 329.09 C1128.09 255.93, 1191.69 182.77, 1348.57 2.3 M1085.1 329.78 C1150.98 253.98, 1216.87 178.19, 1369.83 2.23 M1085.1 329.78 C1167.86 234.57, 1250.63 139.35, 1369.83 2.23 M1106.36 329.71 C1178.55 246.66, 1250.74 163.61, 1391.09 2.17 M1106.36 329.71 C1192.64 230.45, 1278.93 131.18, 1391.09 2.17 M1127.62 329.64 C1199.16 247.34, 1270.69 165.05, 1411.69 2.85 M1127.62 329.64 C1192.77 254.69, 1257.93 179.73, 1411.69 2.85 M1148.88 329.57 C1206.22 263.6, 1263.56 197.64, 1432.95 2.78 M1148.88 329.57 C1215.24 253.22, 1281.61 176.88, 1432.95 2.78 M1170.14 329.5 C1277.79 205.67, 1385.43 81.83, 1454.21 2.71 M1170.14 329.5 C1272.35 211.92, 1374.56 94.33, 1454.21 2.71 M1191.4 329.43 C1283.36 223.64, 1375.32 117.86, 1475.47 2.64 M1191.4 329.43 C1281.24 226.08, 1371.08 122.73, 1475.47 2.64 M1212.66 329.36 C1299.48 229.48, 1386.31 129.6, 1494.76 4.84 M1212.66 329.36 C1314.23 212.52, 1415.8 95.68, 1494.76 4.84 M1233.92 329.3 C1315.8 235.1, 1397.69 140.9, 1507.49 14.58 M1233.92 329.3 C1310.88 240.76, 1387.84 152.23, 1507.49 14.58 M1255.18 329.23 C1314.59 260.87, 1374.01 192.52, 1514.98 30.36 M1255.18 329.23 C1329.93 243.23, 1404.69 157.24, 1514.98 30.36 M1276.44 329.16 C1361.01 231.86, 1445.59 134.57, 1515.24 54.44 M1276.44 329.16 C1369.29 222.34, 1462.14 115.53, 1515.24 54.44 M1297.04 329.84 C1368.56 247.57, 1440.08 165.29, 1515.51 78.52 M1297.04 329.84 C1358.27 259.4, 1419.5 188.97, 1515.51 78.52 M1318.3 329.77 C1388.98 248.47, 1459.65 167.17, 1515.12 103.36 M1318.3 329.77 C1382.95 255.4, 1447.6 181.03, 1515.12 103.36 M1339.56 329.71 C1389.63 272.1, 1439.7 214.5, 1515.39 127.44 M1339.56 329.71 C1384.35 278.18, 1429.14 226.66, 1515.39 127.44 M1360.82 329.64 C1411.74 271.07, 1462.65 212.5, 1515 152.28 M1360.82 329.64 C1410.11 272.93, 1459.4 216.23, 1515 152.28 M1382.08 329.57 C1432.32 271.78, 1482.56 213.98, 1515.26 176.36 M1382.08 329.57 C1409.76 297.72, 1437.44 265.88, 1515.26 176.36 M1403.34 329.5 C1440.26 287.03, 1477.17 244.57, 1515.53 200.44 M1403.34 329.5 C1427.08 302.19, 1450.82 274.88, 1515.53 200.44 M1424.6 329.43 C1458.67 290.24, 1492.74 251.05, 1515.14 225.28 M1424.6 329.43 C1453.22 296.51, 1481.83 263.59, 1515.14 225.28 M1445.86 329.36 C1471.06 300.38, 1496.25 271.39, 1515.4 249.36 M1445.86 329.36 C1472.5 298.72, 1499.13 268.08, 1515.4 249.36 M1467.12 329.29 C1479.04 315.58, 1490.96 301.87, 1515.02 274.2 M1467.12 329.29 C1478.4 316.32, 1489.68 303.34, 1515.02 274.2 M1487.73 329.98 C1493.83 322.95, 1499.94 315.93, 1509.38 305.07 M1487.73 329.98 C1492.97 323.94, 1498.22 317.91, 1509.38 305.07" stroke="#868e96" stroke-width="2" fill="none"></path><path d="M32 0 M32 0 C403.91 0, 775.81 0, 1477.42 0 M32 0 C323.98 0, 615.95 0, 1477.42 0 M1477.42 0 C1498.75 0, 1509.42 10.67, 1509.42 32 M1477.42 0 C1498.75 0, 1509.42 10.67, 1509.42 32 M1509.42 32 C1509.42 89.03, 1509.42 146.07, 1509.42 296.56 M1509.42 32 C1509.42 90.69, 1509.42 149.38, 1509.42 296.56 M1509.42 296.56 C1509.42 317.89, 1498.75 328.56, 1477.42 328.56 M1509.42 296.56 C1509.42 317.89, 1498.75 328.56, 1477.42 328.56 M1477.42 328.56 C904.9 328.56, 332.38 328.56, 32 328.56 M1477.42 328.56 C976.19 328.56, 474.97 328.56, 32 328.56 M32 328.56 C10.67 328.56, 0 317.89, 0 296.56 M32 328.56 C10.67 328.56, 0 317.89, 0 296.56 M0 296.56 C0 197.84, 0 99.12, 0 32 M0 296.56 C0 214.58, 0 132.6, 0 32 M0 32 C0 10.67, 10.67 0, 32 0 M0 32 C0 10.67, 10.67 0, 32 0" stroke="#1e1e1e" stroke-width="4" fill="none"></path></g><g transform="translate(160.52493308572957 762.0467688682693) rotate(0 345.5 58.971079010931135)"><text x="345.5" y="0" font-family="Cascadia, Segoe UI Emoji" font-size="98.285131684885px" fill="#1e1e1e" text-anchor="middle" style="white-space: pre;" direction="ltr" dominant-baseline="text-before-edge">t_buffer_new</text></g><g transform="translate(160.8660713014906 171.97195140690746) rotate(0 234.53334045410156 60.051208331518865)"><text x="234.53334045410156" y="0" font-family="Cascadia, Segoe UI Emoji" font-size="100.08534721919722px" fill="#1e1e1e" text-anchor="middle" style="white-space: pre;" direction="ltr" dominant-baseline="text-before-edge">t_buffer</text></g><g stroke-linecap="round" transform="translate(1277.9191031529845 294.33199389140646) rotate(0 186.89460427947233 163.1840947813307)"><path d="M7.86 8.16 C7.86 8.16, 7.86 8.16, 7.86 8.16 M7.86 8.16 C7.86 8.16, 7.86 8.16, 7.86 8.16 M8.78 31.49 C16.2 22.95, 23.62 14.42, 34.37 2.05 M8.78 31.49 C14.45 24.97, 20.11 18.46, 34.37 2.05 M8.39 56.32 C24.75 37.51, 41.1 18.69, 55.63 1.98 M8.39 56.32 C22.78 39.77, 37.17 23.22, 55.63 1.98 M8.66 80.4 C25.4 61.14, 42.15 41.88, 76.89 1.91 M8.66 80.4 C30.04 55.8, 51.43 31.2, 76.89 1.91 M8.27 105.24 C28.94 81.46, 49.61 57.69, 98.15 1.85 M8.27 105.24 C37.28 71.86, 66.3 38.49, 98.15 1.85 M8.54 129.32 C34.71 99.22, 60.87 69.12, 119.41 1.78 M8.54 129.32 C52.24 79.05, 95.94 28.77, 119.41 1.78 M8.15 154.16 C42.43 114.72, 76.71 75.28, 140.67 1.71 M8.15 154.16 C55.79 99.36, 103.42 44.56, 140.67 1.71 M8.41 178.24 C41.71 139.94, 75 101.64, 161.28 2.39 M8.41 178.24 C55.14 124.49, 101.86 70.74, 161.28 2.39 M8.68 202.32 C64.93 137.61, 121.18 72.9, 182.54 2.32 M8.68 202.32 C71.1 130.52, 133.52 58.71, 182.54 2.32 M8.29 227.16 C75.16 150.23, 142.03 73.31, 203.8 2.26 M8.29 227.16 C80.56 144.02, 152.82 60.89, 203.8 2.26 M8.56 251.24 C86.71 161.33, 164.87 71.42, 225.06 2.19 M8.56 251.24 C72.56 177.62, 136.56 103.99, 225.06 2.19 M8.17 276.08 C68.97 206.12, 129.78 136.17, 246.32 2.12 M8.17 276.08 C76.65 197.3, 145.13 118.52, 246.32 2.12 M4.5 304.69 C71 228.18, 137.51 151.67, 267.58 2.05 M4.5 304.69 C76.31 222.08, 148.12 139.47, 267.58 2.05 M11.32 321.22 C122.22 193.65, 233.11 66.08, 288.84 1.98 M11.32 321.22 C78.07 244.43, 144.83 167.64, 288.84 1.98 M26.68 327.94 C119.08 221.65, 211.48 115.35, 310.1 1.91 M26.68 327.94 C90.33 254.73, 153.98 181.51, 310.1 1.91 M42.03 334.67 C132.33 230.8, 222.62 126.93, 331.36 1.84 M42.03 334.67 C154.69 205.07, 267.35 75.47, 331.36 1.84 M63.29 334.6 C136.35 250.56, 209.4 166.52, 351.96 2.53 M63.29 334.6 C124.96 263.67, 186.62 192.74, 351.96 2.53 M83.9 335.28 C176.09 229.23, 268.29 123.17, 367.32 9.25 M83.9 335.28 C190.07 213.15, 296.24 91.01, 367.32 9.25 M105.16 335.22 C199.74 226.41, 294.32 117.61, 374.14 25.79 M105.16 335.22 C194.7 232.21, 284.25 129.2, 374.14 25.79 M126.42 335.15 C194.94 256.32, 263.47 177.49, 382.94 40.06 M126.42 335.15 C181.93 271.29, 237.45 207.43, 382.94 40.06 M147.68 335.08 C214.74 257.94, 281.79 180.8, 383.2 64.14 M147.68 335.08 C195.96 279.54, 244.24 224, 383.2 64.14 M168.94 335.01 C246.09 246.26, 323.24 157.5, 382.82 88.97 M168.94 335.01 C214.85 282.2, 260.76 229.38, 382.82 88.97 M190.2 334.94 C259.76 254.92, 329.32 174.9, 383.08 113.06 M190.2 334.94 C244.61 272.35, 299.02 209.76, 383.08 113.06 M211.46 334.87 C267.04 270.93, 322.62 207, 382.69 137.89 M211.46 334.87 C254.08 285.84, 296.7 236.81, 382.69 137.89 M232.72 334.8 C267.74 294.52, 302.75 254.24, 382.96 161.97 M232.72 334.8 C284.72 274.98, 336.72 215.16, 382.96 161.97 M253.98 334.73 C289.2 294.22, 324.42 253.7, 383.22 186.06 M253.98 334.73 C289.97 293.34, 325.95 251.94, 383.22 186.06 M275.24 334.66 C296.86 309.8, 318.48 284.93, 382.83 210.89 M275.24 334.66 C297.69 308.84, 320.14 283.01, 382.83 210.89 M296.5 334.6 C315 313.32, 333.49 292.04, 383.1 234.97 M296.5 334.6 C317.47 310.47, 338.44 286.35, 383.1 234.97 M317.11 335.28 C337.34 312, 357.58 288.72, 382.71 259.81 M317.11 335.28 C330.95 319.35, 344.8 303.43, 382.71 259.81 M344.27 328.42 C354.67 316.46, 365.07 304.5, 373.79 294.46 M344.27 328.42 C354.86 316.24, 365.45 304.05, 373.79 294.46" stroke="#a5d8ff" stroke-width="2" fill="none"></path><path d="M32 0 M32 0 C108 0, 184 0, 341.79 0 M32 0 C132.43 0, 232.86 0, 341.79 0 M341.79 0 C363.12 0, 373.79 10.67, 373.79 32 M341.79 0 C363.12 0, 373.79 10.67, 373.79 32 M373.79 32 C373.79 107.75, 373.79 183.49, 373.79 294.37 M373.79 32 C373.79 129.45, 373.79 226.89, 373.79 294.37 M373.79 294.37 C373.79 315.7, 363.12 326.37, 341.79 326.37 M373.79 294.37 C373.79 315.7, 363.12 326.37, 341.79 326.37 M341.79 326.37 C274.83 326.37, 207.88 326.37, 32 326.37 M341.79 326.37 C228.02 326.37, 114.26 326.37, 32 326.37 M32 326.37 C10.67 326.37, 0 315.7, 0 294.37 M32 326.37 C10.67 326.37, 0 315.7, 0 294.37 M0 294.37 C0 235.68, 0 176.98, 0 32 M0 294.37 C0 189.55, 0 84.72, 0 32 M0 32 C0 10.67, 10.67 0, 32 0 M0 32 C0 10.67, 10.67 0, 32 0" stroke="#1e1e1e" stroke-width="4" fill="none"></path></g><g transform="translate(3122.7176704479007 367.1177996582992) rotate(0 427.48333740234375 67.34724236687725)"><text x="427.48333740234375" y="0" font-family="Cascadia, Segoe UI Emoji" font-size="112.24540394479573px" fill="#1e1e1e" text-anchor="middle" style="white-space: pre;" direction="ltr" dominant-baseline="text-before-edge">Memory buffer</text></g><g transform="translate(1310.192472442035 341.0698600480973) rotate(0 155.6666717529297 119.54500064181957)"><text x="155.6666717529297" y="0" font-family="Cascadia, Segoe UI Emoji" font-size="66.41388924545572px" fill="#1e1e1e" text-anchor="middle" style="white-space: pre;" direction="ltr" dominant-baseline="text-before-edge">T object</text><text x="155.6666717529297" y="79.69666709454687" font-family="Cascadia, Segoe UI Emoji" font-size="66.41388924545572px" fill="#1e1e1e" text-anchor="middle" style="white-space: pre;" direction="ltr" dominant-baseline="text-before-edge"></text><text x="155.6666717529297" y="159.39333418909374" font-family="Cascadia, Segoe UI Emoji" font-size="66.41388924545572px" fill="#1e1e1e" text-anchor="middle" style="white-space: pre;" direction="ltr" dominant-baseline="text-before-edge">#4</text></g><g stroke-linecap="round" transform="translate(900.2158793706658 295.1772883476515) rotate(0 186.89460427947233 163.1840947813307)"><path d="M7.86 8.16 C7.86 8.16, 7.86 8.16, 7.86 8.16 M7.86 8.16 C7.86 8.16, 7.86 8.16, 7.86 8.16 M8.78 31.49 C17.69 21.24, 26.59 11, 34.37 2.05 M8.78 31.49 C15.86 23.35, 22.93 15.22, 34.37 2.05 M8.39 56.32 C25.76 36.34, 43.13 16.37, 55.63 1.98 M8.39 56.32 C26.92 35.01, 45.45 13.7, 55.63 1.98 M8.66 80.4 C22.47 64.52, 36.28 48.63, 76.89 1.91 M8.66 80.4 C24.12 62.63, 39.57 44.85, 76.89 1.91 M8.27 105.24 C42.79 65.53, 77.3 25.83, 98.15 1.85 M8.27 105.24 C27.47 83.15, 46.67 61.07, 98.15 1.85 M8.54 129.32 C38.01 95.42, 67.47 61.52, 119.41 1.78 M8.54 129.32 C52.45 78.81, 96.36 28.29, 119.41 1.78 M8.15 154.16 C46.35 110.21, 84.55 66.27, 140.67 1.71 M8.15 154.16 C49.08 107.08, 90 59.99, 140.67 1.71 M8.41 178.24 C61.12 117.6, 113.84 56.97, 161.28 2.39 M8.41 178.24 C64.03 114.27, 119.64 50.29, 161.28 2.39 M8.68 202.32 C51.68 152.86, 94.67 103.4, 182.54 2.32 M8.68 202.32 C66.76 135.51, 124.83 68.71, 182.54 2.32 M8.29 227.16 C65.3 161.57, 122.32 95.99, 203.8 2.26 M8.29 227.16 C74.42 151.09, 140.55 75.02, 203.8 2.26 M8.56 251.24 C78.57 170.7, 148.58 90.16, 225.06 2.19 M8.56 251.24 C78.93 170.28, 149.3 89.33, 225.06 2.19 M8.17 276.08 C80.46 192.92, 152.75 109.75, 246.32 2.12 M8.17 276.08 C69.49 205.53, 130.82 134.98, 246.32 2.12 M4.5 304.69 C102.9 191.49, 201.3 78.29, 267.58 2.05 M4.5 304.69 C109.03 184.43, 213.57 64.17, 267.58 2.05 M11.32 321.22 C73.3 249.92, 135.28 178.63, 288.84 1.98 M11.32 321.22 C91.65 228.81, 171.98 136.4, 288.84 1.98 M26.68 327.94 C126.48 213.14, 226.28 98.33, 310.1 1.91 M26.68 327.94 C96.44 247.69, 166.21 167.43, 310.1 1.91 M42.03 334.67 C111.17 255.13, 180.31 175.6, 331.36 1.84 M42.03 334.67 C137.98 224.29, 233.93 113.91, 331.36 1.84 M63.29 334.6 C122.71 266.25, 182.12 197.9, 351.96 2.53 M63.29 334.6 C134.4 252.8, 205.51 171, 351.96 2.53 M83.9 335.28 C192.67 210.16, 301.44 85.04, 367.32 9.25 M83.9 335.28 C172.11 233.81, 260.33 132.33, 367.32 9.25 M105.16 335.22 C207 218.07, 308.83 100.92, 374.14 25.79 M105.16 335.22 C199.96 226.17, 294.75 117.11, 374.14 25.79 M126.42 335.15 C187.06 265.39, 247.7 195.63, 382.94 40.06 M126.42 335.15 C199.58 250.98, 272.74 166.82, 382.94 40.06 M147.68 335.08 C220.52 251.29, 293.35 167.5, 383.2 64.14 M147.68 335.08 C241.59 227.05, 335.49 119.02, 383.2 64.14 M168.94 335.01 C216.16 280.68, 263.39 226.36, 382.82 88.97 M168.94 335.01 C241.68 251.33, 314.43 167.65, 382.82 88.97 M190.2 334.94 C254.22 261.3, 318.23 187.66, 383.08 113.06 M190.2 334.94 C267.18 246.38, 344.17 157.82, 383.08 113.06 M211.46 334.87 C263.9 274.55, 316.33 214.23, 382.69 137.89 M211.46 334.87 C261.5 277.3, 311.55 219.73, 382.69 137.89 M232.72 334.8 C289.2 269.83, 345.68 204.86, 382.96 161.97 M232.72 334.8 C269.87 292.06, 307.03 249.32, 382.96 161.97 M253.98 334.73 C293.69 289.05, 333.4 243.37, 383.22 186.06 M253.98 334.73 C304.08 277.11, 354.17 219.48, 383.22 186.06 M275.24 334.66 C303.87 301.73, 332.51 268.79, 382.83 210.89 M275.24 334.66 C298.54 307.86, 321.84 281.06, 382.83 210.89 M296.5 334.6 C329.74 296.36, 362.97 258.13, 383.1 234.97 M296.5 334.6 C313.98 314.49, 331.45 294.39, 383.1 234.97 M317.11 335.28 C331.7 318.49, 346.3 301.7, 382.71 259.81 M317.11 335.28 C334.15 315.67, 351.2 296.06, 382.71 259.81 M344.27 328.42 C354.34 316.84, 364.4 305.26, 373.79 294.46 M344.27 328.42 C354.31 316.87, 364.36 305.31, 373.79 294.46" stroke="#a5d8ff" stroke-width="2" fill="none"></path><path d="M32 0 M32 0 C143.64 0, 255.28 0, 341.79 0 M32 0 C128.01 0, 224.02 0, 341.79 0 M341.79 0 C363.12 0, 373.79 10.67, 373.79 32 M341.79 0 C363.12 0, 373.79 10.67, 373.79 32 M373.79 32 C373.79 96.63, 373.79 161.26, 373.79 294.37 M373.79 32 C373.79 97.27, 373.79 162.54, 373.79 294.37 M373.79 294.37 C373.79 315.7, 363.12 326.37, 341.79 326.37 M373.79 294.37 C373.79 315.7, 363.12 326.37, 341.79 326.37 M341.79 326.37 C232.38 326.37, 122.96 326.37, 32 326.37 M341.79 326.37 C272.05 326.37, 202.31 326.37, 32 326.37 M32 326.37 C10.67 326.37, 0 315.7, 0 294.37 M32 326.37 C10.67 326.37, 0 315.7, 0 294.37 M0 294.37 C0 230.17, 0 165.98, 0 32 M0 294.37 C0 228.42, 0 162.48, 0 32 M0 32 C0 10.67, 10.67 0, 32 0 M0 32 C0 10.67, 10.67 0, 32 0" stroke="#1e1e1e" stroke-width="4" fill="none"></path></g><g transform="translate(932.4892486597164 341.9151545043569) rotate(0 155.6666717529297 119.54500064181957)"><text x="155.6666717529297" y="0" font-family="Cascadia, Segoe UI Emoji" font-size="66.41388924545572px" fill="#1e1e1e" text-anchor="middle" style="white-space: pre;" direction="ltr" dominant-baseline="text-before-edge">T object</text><text x="155.6666717529297" y="79.69666709454687" font-family="Cascadia, Segoe UI Emoji" font-size="66.41388924545572px" fill="#1e1e1e" text-anchor="middle" style="white-space: pre;" direction="ltr" dominant-baseline="text-before-edge"></text><text x="155.6666717529297" y="159.39333418909374" font-family="Cascadia, Segoe UI Emoji" font-size="66.41388924545572px" fill="#1e1e1e" text-anchor="middle" style="white-space: pre;" direction="ltr" dominant-baseline="text-before-edge">#3</text></g><g stroke-linecap="round" transform="translate(522.45605104887 296.656553646113) rotate(0 186.89460427947233 163.1840947813307)"><path d="M7.86 8.16 C7.86 8.16, 7.86 8.16, 7.86 8.16 M7.86 8.16 C7.86 8.16, 7.86 8.16, 7.86 8.16 M8.78 31.49 C16.62 22.47, 24.45 13.46, 34.37 2.05 M8.78 31.49 C16.08 23.09, 23.38 14.69, 34.37 2.05 M8.39 56.32 C24.42 37.88, 40.45 19.44, 55.63 1.98 M8.39 56.32 C18.84 44.3, 29.29 32.28, 55.63 1.98 M8.66 80.4 C25.39 61.16, 42.12 41.92, 76.89 1.91 M8.66 80.4 C34.92 50.2, 61.18 19.99, 76.89 1.91 M8.27 105.24 C37.6 71.5, 66.94 37.75, 98.15 1.85 M8.27 105.24 C40.21 68.5, 72.15 31.76, 98.15 1.85 M8.54 129.32 C33.59 100.51, 58.63 71.69, 119.41 1.78 M8.54 129.32 C41.93 90.91, 75.31 52.51, 119.41 1.78 M8.15 154.16 C60.2 94.28, 112.25 34.41, 140.67 1.71 M8.15 154.16 C43.19 113.84, 78.24 73.53, 140.67 1.71 M8.41 178.24 C46.23 134.73, 84.05 91.23, 161.28 2.39 M8.41 178.24 C61.24 117.47, 114.07 56.7, 161.28 2.39 M8.68 202.32 C51.73 152.8, 94.78 103.28, 182.54 2.32 M8.68 202.32 C76.03 124.84, 143.39 47.36, 182.54 2.32 M8.29 227.16 C57.93 170.05, 107.58 112.94, 203.8 2.26 M8.29 227.16 C78.59 146.29, 148.88 65.43, 203.8 2.26 M8.56 251.24 C94.15 152.77, 179.75 54.3, 225.06 2.19 M8.56 251.24 C61.15 190.74, 113.74 130.24, 225.06 2.19 M8.17 276.08 C64.14 211.69, 120.11 147.3, 246.32 2.12 M8.17 276.08 C59.13 217.45, 110.09 158.83, 246.32 2.12 M4.5 304.69 C66.51 233.34, 128.53 162, 267.58 2.05 M4.5 304.69 C91.12 205.04, 177.74 105.4, 267.58 2.05 M11.32 321.22 C101.69 217.27, 192.05 113.32, 288.84 1.98 M11.32 321.22 C97.23 222.4, 183.13 123.58, 288.84 1.98 M26.68 327.94 C129.78 209.34, 232.88 90.74, 310.1 1.91 M26.68 327.94 C90.29 254.77, 153.89 181.6, 310.1 1.91 M42.03 334.67 C130.53 232.86, 219.03 131.06, 331.36 1.84 M42.03 334.67 C122.05 242.62, 202.07 150.57, 331.36 1.84 M63.29 334.6 C141.18 245, 219.07 155.4, 351.96 2.53 M63.29 334.6 C145.89 239.58, 228.49 144.57, 351.96 2.53 M83.9 335.28 C169.3 237.04, 254.7 138.8, 367.32 9.25 M83.9 335.28 C161.87 245.59, 239.84 155.9, 367.32 9.25 M105.16 335.22 C169.6 261.09, 234.04 186.96, 374.14 25.79 M105.16 335.22 C199.77 226.38, 294.38 117.54, 374.14 25.79 M126.42 335.15 C198.96 251.7, 271.5 168.25, 382.94 40.06 M126.42 335.15 C202.06 248.13, 277.7 161.12, 382.94 40.06 M147.68 335.08 C207.5 266.27, 267.31 197.45, 383.2 64.14 M147.68 335.08 C203.81 270.51, 259.94 205.93, 383.2 64.14 M168.94 335.01 C247.31 244.86, 325.67 154.71, 382.82 88.97 M168.94 335.01 C223.54 272.2, 278.13 209.4, 382.82 88.97 M190.2 334.94 C246.01 270.74, 301.82 206.53, 383.08 113.06 M190.2 334.94 C237 281.1, 283.8 227.27, 383.08 113.06 M211.46 334.87 C265.16 273.09, 318.87 211.31, 382.69 137.89 M211.46 334.87 C263.76 274.71, 316.05 214.55, 382.69 137.89 M232.72 334.8 C265.37 297.25, 298.01 259.69, 382.96 161.97 M232.72 334.8 C268.94 293.13, 305.17 251.46, 382.96 161.97 M253.98 334.73 C283.86 300.36, 313.75 265.98, 383.22 186.06 M253.98 334.73 C295.86 286.55, 337.75 238.37, 383.22 186.06 M275.24 334.66 C308.03 296.95, 340.82 259.23, 382.83 210.89 M275.24 334.66 C317.19 286.41, 359.14 238.15, 382.83 210.89 M296.5 334.6 C319.99 307.57, 343.48 280.55, 383.1 234.97 M296.5 334.6 C315.53 312.71, 334.56 290.82, 383.1 234.97 M317.11 335.28 C337.7 311.59, 358.29 287.9, 382.71 259.81 M317.11 335.28 C331.85 318.32, 346.6 301.36, 382.71 259.81 M344.27 328.42 C354.05 317.17, 363.82 305.93, 373.79 294.46 M344.27 328.42 C351.08 320.59, 357.88 312.76, 373.79 294.46" stroke="#a5d8ff" stroke-width="2" fill="none"></path><path d="M32 0 M32 0 C94.68 0, 157.35 0, 341.79 0 M32 0 C143.91 0, 255.82 0, 341.79 0 M341.79 0 C363.12 0, 373.79 10.67, 373.79 32 M341.79 0 C363.12 0, 373.79 10.67, 373.79 32 M373.79 32 C373.79 102.05, 373.79 172.1, 373.79 294.37 M373.79 32 C373.79 101.13, 373.79 170.26, 373.79 294.37 M373.79 294.37 C373.79 315.7, 363.12 326.37, 341.79 326.37 M373.79 294.37 C373.79 315.7, 363.12 326.37, 341.79 326.37 M341.79 326.37 C266.65 326.37, 191.5 326.37, 32 326.37 M341.79 326.37 C272.2 326.37, 202.61 326.37, 32 326.37 M32 326.37 C10.67 326.37, 0 315.7, 0 294.37 M32 326.37 C10.67 326.37, 0 315.7, 0 294.37 M0 294.37 C0 208.18, 0 121.99, 0 32 M0 294.37 C0 215.8, 0 137.23, 0 32 M0 32 C0 10.67, 10.67 0, 32 0 M0 32 C0 10.67, 10.67 0, 32 0" stroke="#1e1e1e" stroke-width="4" fill="none"></path></g><g transform="translate(554.7294203379206 343.39441980281845) rotate(0 155.6666717529297 119.54500064181957)"><text x="155.6666717529297" y="0" font-family="Cascadia, Segoe UI Emoji" font-size="66.41388924545572px" fill="#1e1e1e" text-anchor="middle" style="white-space: pre;" direction="ltr" dominant-baseline="text-before-edge">T object</text><text x="155.6666717529297" y="79.69666709454687" font-family="Cascadia, Segoe UI Emoji" font-size="66.41388924545572px" fill="#1e1e1e" text-anchor="middle" style="white-space: pre;" direction="ltr" dominant-baseline="text-before-edge"></text><text x="155.6666717529297" y="159.39333418909374" font-family="Cascadia, Segoe UI Emoji" font-size="66.41388924545572px" fill="#1e1e1e" text-anchor="middle" style="white-space: pre;" direction="ltr" dominant-baseline="text-before-edge">#2</text></g><g stroke-linecap="round" transform="translate(144.75282726655132 297.5018481023726) rotate(0 186.89460427947233 163.1840947813307)"><path d="M7.86 8.16 C7.86 8.16, 7.86 8.16, 7.86 8.16 M7.86 8.16 C7.86 8.16, 7.86 8.16, 7.86 8.16 M8.78 31.49 C17.64 21.3, 26.5 11.1, 34.37 2.05 M8.78 31.49 C16.58 22.52, 24.37 13.55, 34.37 2.05 M8.39 56.32 C19.99 42.99, 31.58 29.65, 55.63 1.98 M8.39 56.32 C23.2 39.29, 38 22.26, 55.63 1.98 M8.66 80.4 C24.35 62.35, 40.04 44.31, 76.89 1.91 M8.66 80.4 C30.69 55.07, 52.71 29.73, 76.89 1.91 M8.27 105.24 C29.48 80.84, 50.7 56.43, 98.15 1.85 M8.27 105.24 C43.7 64.49, 79.13 23.73, 98.15 1.85 M8.54 129.32 C37.22 96.33, 65.9 63.33, 119.41 1.78 M8.54 129.32 C48.39 83.47, 88.25 37.62, 119.41 1.78 M8.15 154.16 C37.01 120.95, 65.88 87.75, 140.67 1.71 M8.15 154.16 C48.65 107.56, 89.16 60.96, 140.67 1.71 M8.41 178.24 C57.87 121.35, 107.33 64.45, 161.28 2.39 M8.41 178.24 C63.3 115.1, 118.18 51.97, 161.28 2.39 M8.68 202.32 C68.15 133.91, 127.61 65.51, 182.54 2.32 M8.68 202.32 C72.94 128.39, 137.21 54.47, 182.54 2.32 M8.29 227.16 C78.87 145.97, 149.45 64.78, 203.8 2.26 M8.29 227.16 C66.08 160.67, 123.88 94.19, 203.8 2.26 M8.56 251.24 C63.84 187.65, 119.12 124.06, 225.06 2.19 M8.56 251.24 C70.81 179.62, 133.07 108, 225.06 2.19 M8.17 276.08 C68.37 206.82, 128.58 137.56, 246.32 2.12 M8.17 276.08 C73.17 201.3, 138.18 126.51, 246.32 2.12 M4.5 304.69 C109.62 183.75, 214.75 62.82, 267.58 2.05 M4.5 304.69 C67.78 231.89, 131.06 159.1, 267.58 2.05 M11.32 321.22 C101.8 217.14, 192.28 113.06, 288.84 1.98 M11.32 321.22 C73.65 249.53, 135.97 177.83, 288.84 1.98 M26.68 327.94 C115.13 226.2, 203.58 124.45, 310.1 1.91 M26.68 327.94 C137.04 200.99, 247.4 74.04, 310.1 1.91 M42.03 334.67 C115.25 250.44, 188.47 166.21, 331.36 1.84 M42.03 334.67 C103.84 263.58, 165.64 192.48, 331.36 1.84 M63.29 334.6 C157.2 226.58, 251.1 118.55, 351.96 2.53 M63.29 334.6 C171.43 210.2, 279.57 85.8, 351.96 2.53 M83.9 335.28 C183.56 220.64, 283.21 106, 367.32 9.25 M83.9 335.28 C178.25 226.75, 272.59 118.22, 367.32 9.25 M105.16 335.22 C177.01 252.56, 248.87 169.9, 374.14 25.79 M105.16 335.22 C163.37 268.25, 221.58 201.29, 374.14 25.79 M126.42 335.15 C199.45 251.13, 272.49 167.12, 382.94 40.06 M126.42 335.15 C179 274.66, 231.58 214.17, 382.94 40.06 M147.68 335.08 C232.64 237.34, 317.6 139.6, 383.2 64.14 M147.68 335.08 C198.24 276.92, 248.79 218.76, 383.2 64.14 M168.94 335.01 C246.07 246.28, 323.2 157.55, 382.82 88.97 M168.94 335.01 C229.27 265.61, 289.6 196.2, 382.82 88.97 M190.2 334.94 C252.81 262.92, 315.41 190.9, 383.08 113.06 M190.2 334.94 C238.21 279.71, 286.22 224.48, 383.08 113.06 M211.46 334.87 C251.37 288.96, 291.28 243.05, 382.69 137.89 M211.46 334.87 C270.73 266.69, 329.99 198.52, 382.69 137.89 M232.72 334.8 C273.66 287.71, 314.6 240.61, 382.96 161.97 M232.72 334.8 C274.55 286.68, 316.38 238.56, 382.96 161.97 M253.98 334.73 C279.95 304.86, 305.92 274.99, 383.22 186.06 M253.98 334.73 C280.95 303.71, 307.92 272.68, 383.22 186.06 M275.24 334.66 C298.22 308.23, 321.2 281.8, 382.83 210.89 M275.24 334.66 C301.29 304.69, 327.35 274.72, 382.83 210.89 M296.5 334.6 C323.22 303.86, 349.93 273.13, 383.1 234.97 M296.5 334.6 C314.78 313.57, 333.05 292.55, 383.1 234.97 M317.11 335.28 C340.21 308.7, 363.32 282.12, 382.71 259.81 M317.11 335.28 C340.64 308.21, 364.17 281.14, 382.71 259.81 M344.27 328.42 C351.51 320.09, 358.76 311.76, 373.79 294.46 M344.27 328.42 C353.84 317.41, 363.41 306.4, 373.79 294.46" stroke="#a5d8ff" stroke-width="2" fill="none"></path><path d="M32 0 M32 0 C152.25 0, 272.5 0, 341.79 0 M32 0 C102.14 0, 172.28 0, 341.79 0 M341.79 0 C363.12 0, 373.79 10.67, 373.79 32 M341.79 0 C363.12 0, 373.79 10.67, 373.79 32 M373.79 32 C373.79 102.8, 373.79 173.59, 373.79 294.37 M373.79 32 C373.79 84.58, 373.79 137.17, 373.79 294.37 M373.79 294.37 C373.79 315.7, 363.12 326.37, 341.79 326.37 M373.79 294.37 C373.79 315.7, 363.12 326.37, 341.79 326.37 M341.79 326.37 C222.33 326.37, 102.87 326.37, 32 326.37 M341.79 326.37 C220.88 326.37, 99.96 326.37, 32 326.37 M32 326.37 C10.67 326.37, 0 315.7, 0 294.37 M32 326.37 C10.67 326.37, 0 315.7, 0 294.37 M0 294.37 C0 220.06, 0 145.75, 0 32 M0 294.37 C0 194.48, 0 94.59, 0 32 M0 32 C0 10.67, 10.67 0, 32 0 M0 32 C0 10.67, 10.67 0, 32 0" stroke="#1e1e1e" stroke-width="4" fill="none"></path></g><g transform="translate(177.02619655560193 344.239714259078) rotate(0 155.6666717529297 119.54500064181957)"><text x="155.6666717529297" y="0" font-family="Cascadia, Segoe UI Emoji" font-size="66.41388924545572px" fill="#1e1e1e" text-anchor="middle" style="white-space: pre;" direction="ltr" dominant-baseline="text-before-edge">T object</text><text x="155.6666717529297" y="79.69666709454687" font-family="Cascadia, Segoe UI Emoji" font-size="66.41388924545572px" fill="#1e1e1e" text-anchor="middle" style="white-space: pre;" direction="ltr" dominant-baseline="text-before-edge"></text><text x="155.6666717529297" y="159.39333418909374" font-family="Cascadia, Segoe UI Emoji" font-size="66.41388924545572px" fill="#1e1e1e" text-anchor="middle" style="white-space: pre;" direction="ltr" dominant-baseline="text-before-edge">#1</text></g><g transform="translate(745.5049865847759 981.9864582382434) rotate(0 424.6666564941406 66.89770524107007)"><text x="424.6666564941406" y="0" font-family="Cascadia, Segoe UI Emoji" font-size="111.49617540178372px" fill="#1e1e1e" text-anchor="middle" style="white-space: pre;" direction="ltr" dominant-baseline="text-before-edge">Memory buffer</text></g><g stroke-linecap="round" transform="translate(3932.01594128778 859.8358161339274) rotate(0 188.15049284745714 164.2806542026301)"><path d="M7.86 8.16 C7.86 8.16, 7.86 8.16, 7.86 8.16 M7.86 8.16 C7.86 8.16, 7.86 8.16, 7.86 8.16 M8.78 31.49 C18.19 20.66, 27.6 9.84, 34.37 2.05 M8.78 31.49 C18.82 19.94, 28.86 8.4, 34.37 2.05 M8.39 56.32 C17.96 45.32, 27.52 34.32, 55.63 1.98 M8.39 56.32 C19.09 44.01, 29.79 31.71, 55.63 1.98 M8.66 80.4 C34.86 50.26, 61.06 20.12, 76.89 1.91 M8.66 80.4 C23.24 63.64, 37.81 46.87, 76.89 1.91 M8.27 105.24 C32.16 77.76, 56.05 50.28, 98.15 1.85 M8.27 105.24 C43.87 64.29, 79.47 23.34, 98.15 1.85 M8.54 129.32 C40.5 92.56, 72.46 55.79, 119.41 1.78 M8.54 129.32 C42.78 89.93, 77.02 50.54, 119.41 1.78 M8.15 154.16 C53.85 101.59, 99.54 49.02, 140.67 1.71 M8.15 154.16 C56.36 98.7, 104.57 43.23, 140.67 1.71 M8.41 178.24 C46.22 134.75, 84.02 91.26, 161.28 2.39 M8.41 178.24 C59.48 119.5, 110.54 60.76, 161.28 2.39 M8.68 202.32 C59.38 144, 110.08 85.68, 182.54 2.32 M8.68 202.32 C67.48 134.67, 126.29 67.03, 182.54 2.32 M8.29 227.16 C71.51 154.43, 134.74 81.7, 203.8 2.26 M8.29 227.16 C71.84 154.05, 135.39 80.95, 203.8 2.26 M8.56 251.24 C74.28 175.64, 140 100.04, 225.06 2.19 M8.56 251.24 C64.31 187.11, 120.06 122.97, 225.06 2.19 M8.17 276.08 C97.24 173.61, 186.32 71.13, 246.32 2.12 M8.17 276.08 C102.8 167.22, 197.43 58.36, 246.32 2.12 M3.18 306.2 C62.23 238.27, 121.28 170.34, 267.58 2.05 M3.18 306.2 C79.72 218.16, 156.25 130.12, 267.58 2.05 M10.01 322.73 C108.19 209.78, 206.38 96.84, 288.84 1.98 M10.01 322.73 C78.65 243.78, 147.28 164.82, 288.84 1.98 M25.37 329.45 C93.41 251.18, 161.45 172.91, 310.1 1.91 M25.37 329.45 C119.79 220.83, 214.22 112.2, 310.1 1.91 M40.72 336.18 C100.54 267.36, 160.36 198.55, 331.36 1.84 M40.72 336.18 C112.31 253.82, 183.9 171.47, 331.36 1.84 M61.98 336.11 C173.52 207.8, 285.06 79.49, 352.62 1.77 M61.98 336.11 C152.44 232.05, 242.9 127.98, 352.62 1.77 M83.24 336.04 C191.29 211.75, 299.34 87.45, 368.63 7.74 M83.24 336.04 C183.82 220.34, 284.4 104.64, 368.63 7.74 M104.5 335.97 C169.18 261.57, 233.85 187.17, 378.08 21.26 M104.5 335.97 C182.53 246.21, 260.56 156.45, 378.08 21.26 M125.76 335.9 C205.7 243.94, 285.64 151.98, 384.25 38.55 M125.76 335.9 C228.82 217.34, 331.89 98.78, 384.25 38.55 M147.02 335.83 C199.32 275.68, 251.61 215.52, 383.86 63.38 M147.02 335.83 C227.58 243.17, 308.13 150.5, 383.86 63.38 M167.63 336.52 C239.48 253.86, 311.34 171.2, 384.13 87.46 M167.63 336.52 C254.04 237.11, 340.45 137.71, 384.13 87.46 M188.89 336.45 C248.76 267.58, 308.63 198.71, 384.39 111.55 M188.89 336.45 C246.03 270.72, 303.16 204.99, 384.39 111.55 M210.15 336.38 C275.51 261.19, 340.87 186.01, 384 136.38 M210.15 336.38 C253.14 286.92, 296.13 237.46, 384 136.38 M231.41 336.31 C278.38 282.28, 325.34 228.25, 384.27 160.46 M231.41 336.31 C290.66 268.15, 349.91 199.99, 384.27 160.46 M252.67 336.24 C287.59 296.07, 322.5 255.91, 383.88 185.3 M252.67 336.24 C281.08 303.56, 309.49 270.87, 383.88 185.3 M273.93 336.17 C316.23 287.51, 358.53 238.85, 384.15 209.38 M273.93 336.17 C296.17 310.59, 318.41 285, 384.15 209.38 M295.19 336.1 C314.89 313.44, 334.6 290.77, 383.76 234.22 M295.19 336.1 C318.2 309.63, 341.22 283.16, 383.76 234.22 M316.45 336.04 C339.49 309.53, 362.53 283.02, 384.02 258.3 M316.45 336.04 C339.44 309.59, 362.43 283.14, 384.02 258.3 M337.71 335.97 C354.5 316.66, 371.28 297.35, 384.29 282.38 M337.71 335.97 C352.15 319.36, 366.58 302.75, 384.29 282.38" stroke="#a5d8ff" stroke-width="2" fill="none"></path><path d="M32 0 M32 0 C134.88 0, 237.76 0, 344.3 0 M32 0 C137.51 0, 243.03 0, 344.3 0 M344.3 0 C365.63 0, 376.3 10.67, 376.3 32 M344.3 0 C365.63 0, 376.3 10.67, 376.3 32 M376.3 32 C376.3 89.27, 376.3 146.53, 376.3 296.56 M376.3 32 C376.3 117.53, 376.3 203.05, 376.3 296.56 M376.3 296.56 C376.3 317.89, 365.63 328.56, 344.3 328.56 M376.3 296.56 C376.3 317.89, 365.63 328.56, 344.3 328.56 M344.3 328.56 C227.58 328.56, 110.87 328.56, 32 328.56 M344.3 328.56 C281.8 328.56, 219.31 328.56, 32 328.56 M32 328.56 C10.67 328.56, 0 317.89, 0 296.56 M32 328.56 C10.67 328.56, 0 317.89, 0 296.56 M0 296.56 C0 228.49, 0 160.43, 0 32 M0 296.56 C0 220.66, 0 144.75, 0 32 M0 32 C0 10.67, 10.67 0, 32 0 M0 32 C0 10.67, 10.67 0, 32 0" stroke="#1e1e1e" stroke-width="4" fill="none"></path></g><g transform="translate(3964.485558588949 906.8877499547234) rotate(0 156.73333740234375 120.34831543116161)"><text x="156.73333740234375" y="0" font-family="Cascadia, Segoe UI Emoji" font-size="66.86017523953424px" fill="#1e1e1e" text-anchor="middle" style="white-space: pre;" direction="ltr" dominant-baseline="text-before-edge">T object</text><text x="156.73333740234375" y="80.23221028744109" font-family="Cascadia, Segoe UI Emoji" font-size="66.86017523953424px" fill="#1e1e1e" text-anchor="middle" style="white-space: pre;" direction="ltr" dominant-baseline="text-before-edge"></text><text x="156.73333740234375" y="160.46442057488218" font-family="Cascadia, Segoe UI Emoji" font-size="66.86017523953424px" fill="#1e1e1e" text-anchor="middle" style="white-space: pre;" direction="ltr" dominant-baseline="text-before-edge">#4</text></g><g stroke-linecap="round" transform="translate(3551.7746390913308 860.6867907736596) rotate(0 188.15049284745714 164.2806542026301)"><path d="M7.86 8.16 C7.86 8.16, 7.86 8.16, 7.86 8.16 M7.86 8.16 C7.86 8.16, 7.86 8.16, 7.86 8.16 M8.78 31.49 C17.47 21.5, 26.15 11.51, 34.37 2.05 M8.78 31.49 C14.44 24.97, 20.1 18.46, 34.37 2.05 M8.39 56.32 C19.98 43, 31.56 29.68, 55.63 1.98 M8.39 56.32 C26.57 35.41, 44.75 14.49, 55.63 1.98 M8.66 80.4 C30.93 54.79, 53.2 29.17, 76.89 1.91 M8.66 80.4 C32.91 52.51, 57.15 24.62, 76.89 1.91 M8.27 105.24 C28.58 81.88, 48.88 58.52, 98.15 1.85 M8.27 105.24 C35.34 74.1, 62.4 42.97, 98.15 1.85 M8.54 129.32 C52.08 79.23, 95.63 29.13, 119.41 1.78 M8.54 129.32 C37.86 95.59, 67.18 61.87, 119.41 1.78 M8.15 154.16 C40.94 116.44, 73.72 78.72, 140.67 1.71 M8.15 154.16 C53.95 101.47, 99.75 48.78, 140.67 1.71 M8.41 178.24 C46.26 134.7, 84.12 91.15, 161.28 2.39 M8.41 178.24 C67.64 110.11, 126.86 41.99, 161.28 2.39 M8.68 202.32 C52.83 151.54, 96.97 100.75, 182.54 2.32 M8.68 202.32 C71.19 130.41, 133.7 58.5, 182.54 2.32 M8.29 227.16 C85.59 138.24, 162.88 49.32, 203.8 2.26 M8.29 227.16 C55.78 172.53, 103.27 117.89, 203.8 2.26 M8.56 251.24 C59.44 192.7, 110.33 134.17, 225.06 2.19 M8.56 251.24 C54.88 197.95, 101.21 144.65, 225.06 2.19 M8.17 276.08 C64.31 211.49, 120.45 146.91, 246.32 2.12 M8.17 276.08 C86.58 185.87, 164.99 95.67, 246.32 2.12 M3.18 306.2 C89.27 207.16, 175.36 108.13, 267.58 2.05 M3.18 306.2 C85.03 212.05, 166.87 117.9, 267.58 2.05 M10.01 322.73 C111.44 206.05, 212.87 89.37, 288.84 1.98 M10.01 322.73 C72.59 250.75, 135.16 178.76, 288.84 1.98 M25.37 329.45 C112.46 229.27, 199.55 129.08, 310.1 1.91 M25.37 329.45 C104.12 238.86, 182.86 148.28, 310.1 1.91 M40.72 336.18 C119.14 245.97, 197.56 155.76, 331.36 1.84 M40.72 336.18 C123.88 240.51, 207.04 144.85, 331.36 1.84 M61.98 336.11 C149.56 235.36, 237.13 134.62, 352.62 1.77 M61.98 336.11 C141.94 244.13, 221.89 152.15, 352.62 1.77 M83.24 336.04 C151.61 257.39, 219.98 178.74, 368.63 7.74 M83.24 336.04 C183.62 220.56, 284.01 105.09, 368.63 7.74 M104.5 335.97 C181.87 246.97, 259.23 157.97, 378.08 21.26 M104.5 335.97 C185.17 243.17, 265.84 150.37, 378.08 21.26 M125.76 335.9 C191.41 260.38, 257.06 184.86, 384.25 38.55 M125.76 335.9 C187.37 265.03, 248.97 194.17, 384.25 38.55 M147.02 335.83 C233.8 236, 320.58 136.18, 383.86 63.38 M147.02 335.83 C207.48 266.28, 267.94 196.73, 383.86 63.38 M167.63 336.52 C230.27 264.45, 292.92 192.39, 384.13 87.46 M167.63 336.52 C220.16 276.09, 272.69 215.66, 384.13 87.46 M188.89 336.45 C250.2 265.91, 311.52 195.37, 384.39 111.55 M188.89 336.45 C248.6 267.76, 308.31 199.07, 384.39 111.55 M210.15 336.38 C247.93 292.92, 285.71 249.46, 384 136.38 M210.15 336.38 C252.07 288.16, 293.98 239.94, 384 136.38 M231.41 336.31 C266.75 295.65, 302.1 254.99, 384.27 160.46 M231.41 336.31 C280.95 279.32, 330.48 222.34, 384.27 160.46 M252.67 336.24 C292.65 290.24, 332.64 244.25, 383.88 185.3 M252.67 336.24 C303.83 277.39, 354.98 218.54, 383.88 185.3 M273.93 336.17 C303.83 301.78, 333.72 267.39, 384.15 209.38 M273.93 336.17 C298.15 308.31, 322.36 280.46, 384.15 209.38 M295.19 336.1 C322.99 304.12, 350.79 272.14, 383.76 234.22 M295.19 336.1 C315.1 313.2, 335 290.3, 383.76 234.22 M316.45 336.04 C338.82 310.3, 361.2 284.56, 384.02 258.3 M316.45 336.04 C332.03 318.12, 347.6 300.2, 384.02 258.3 M337.71 335.97 C347.13 325.13, 356.56 314.28, 384.29 282.38 M337.71 335.97 C354.54 316.61, 371.36 297.25, 384.29 282.38" stroke="#a5d8ff" stroke-width="2" fill="none"></path><path d="M32 0 M32 0 C142.4 0, 252.8 0, 344.3 0 M32 0 C102.05 0, 172.11 0, 344.3 0 M344.3 0 C365.63 0, 376.3 10.67, 376.3 32 M344.3 0 C365.63 0, 376.3 10.67, 376.3 32 M376.3 32 C376.3 118.36, 376.3 204.71, 376.3 296.56 M376.3 32 C376.3 133.59, 376.3 235.19, 376.3 296.56 M376.3 296.56 C376.3 317.89, 365.63 328.56, 344.3 328.56 M376.3 296.56 C376.3 317.89, 365.63 328.56, 344.3 328.56 M344.3 328.56 C272.81 328.56, 201.32 328.56, 32 328.56 M344.3 328.56 C273.15 328.56, 201.99 328.56, 32 328.56 M32 328.56 C10.67 328.56, 0 317.89, 0 296.56 M32 328.56 C10.67 328.56, 0 317.89, 0 296.56 M0 296.56 C0 204.88, 0 113.21, 0 32 M0 296.56 C0 237.58, 0 178.59, 0 32 M0 32 C0 10.67, 10.67 0, 32 0 M0 32 C0 10.67, 10.67 0, 32 0" stroke="#1e1e1e" stroke-width="4" fill="none"></path></g><g transform="translate(3584.244256392498 907.7387245944556) rotate(0 156.73333740234375 120.34831543116161)"><text x="156.73333740234375" y="0" font-family="Cascadia, Segoe UI Emoji" font-size="66.86017523953424px" fill="#1e1e1e" text-anchor="middle" style="white-space: pre;" direction="ltr" dominant-baseline="text-before-edge">T object</text><text x="156.73333740234375" y="80.23221028744109" font-family="Cascadia, Segoe UI Emoji" font-size="66.86017523953424px" fill="#1e1e1e" text-anchor="middle" style="white-space: pre;" direction="ltr" dominant-baseline="text-before-edge"></text><text x="156.73333740234375" y="160.46442057488218" font-family="Cascadia, Segoe UI Emoji" font-size="66.86017523953424px" fill="#1e1e1e" text-anchor="middle" style="white-space: pre;" direction="ltr" dominant-baseline="text-before-edge">#3</text></g><g stroke-linecap="round" transform="translate(3171.4763519859735 862.1759963932273) rotate(0 188.15049284745714 164.2806542026301)"><path d="M7.86 8.16 C7.86 8.16, 7.86 8.16, 7.86 8.16 M7.86 8.16 C7.86 8.16, 7.86 8.16, 7.86 8.16 M8.78 31.49 C15.06 24.26, 21.34 17.04, 34.37 2.05 M8.78 31.49 C16.8 22.26, 24.82 13.04, 34.37 2.05 M8.39 56.32 C19.26 43.83, 30.12 31.33, 55.63 1.98 M8.39 56.32 C23.64 38.78, 38.89 21.24, 55.63 1.98 M8.66 80.4 C24.76 61.88, 40.87 43.35, 76.89 1.91 M8.66 80.4 C35.55 49.47, 62.45 18.53, 76.89 1.91 M8.27 105.24 C31.52 78.49, 54.77 51.75, 98.15 1.85 M8.27 105.24 C40.58 68.07, 72.89 30.91, 98.15 1.85 M8.54 129.32 C32.69 101.54, 56.84 73.76, 119.41 1.78 M8.54 129.32 C42.43 90.34, 76.32 51.35, 119.41 1.78 M8.15 154.16 C51.03 104.83, 93.9 55.51, 140.67 1.71 M8.15 154.16 C55.73 99.42, 103.31 44.69, 140.67 1.71 M8.41 178.24 C60.7 118.09, 112.98 57.95, 161.28 2.39 M8.41 178.24 C64.92 113.24, 121.42 48.24, 161.28 2.39 M8.68 202.32 C71.44 130.12, 134.2 57.92, 182.54 2.32 M8.68 202.32 C60.07 143.2, 111.47 84.08, 182.54 2.32 M8.29 227.16 C58.21 169.73, 108.13 112.31, 203.8 2.26 M8.29 227.16 C64.51 162.49, 120.73 97.81, 203.8 2.26 M8.56 251.24 C63.29 188.28, 118.02 125.32, 225.06 2.19 M8.56 251.24 C67.65 183.26, 126.75 115.27, 225.06 2.19 M8.17 276.08 C103.33 166.6, 198.5 57.13, 246.32 2.12 M8.17 276.08 C65.45 210.18, 122.73 144.28, 246.32 2.12 M3.18 306.2 C89.38 207.03, 175.58 107.87, 267.58 2.05 M3.18 306.2 C62.56 237.89, 121.94 169.59, 267.58 2.05 M10.01 322.73 C97.03 222.63, 184.04 122.53, 288.84 1.98 M10.01 322.73 C118.58 197.84, 227.15 72.94, 288.84 1.98 M25.37 329.45 C97.42 246.56, 169.48 163.67, 310.1 1.91 M25.37 329.45 C86.19 259.49, 147.01 189.52, 310.1 1.91 M40.72 336.18 C135.27 227.42, 229.81 118.66, 331.36 1.84 M40.72 336.18 C149.6 210.93, 258.47 85.68, 331.36 1.84 M61.98 336.11 C164.18 218.55, 266.37 100.99, 352.62 1.77 M61.98 336.11 C158.73 224.81, 255.48 113.51, 352.62 1.77 M83.24 336.04 C159.48 248.34, 235.71 160.64, 368.63 7.74 M83.24 336.04 C145 264.99, 206.76 193.95, 368.63 7.74 M104.5 335.97 C182.39 246.37, 260.28 156.77, 378.08 21.26 M104.5 335.97 C160.58 271.46, 216.66 206.95, 378.08 21.26 M125.76 335.9 C219.01 228.64, 312.25 121.37, 384.25 38.55 M125.76 335.9 C181.25 272.07, 236.73 208.25, 384.25 38.55 M147.02 335.83 C232.44 237.58, 317.85 139.32, 383.86 63.38 M147.02 335.83 C213.83 258.98, 280.64 182.12, 383.86 63.38 M167.63 336.52 C237.9 255.68, 308.17 174.84, 384.13 87.46 M167.63 336.52 C221.52 274.53, 275.4 212.54, 384.13 87.46 M188.89 336.45 C234.45 284.03, 280.02 231.62, 384.39 111.55 M188.89 336.45 C256.56 258.61, 324.22 180.76, 384.39 111.55 M210.15 336.38 C257.52 281.88, 304.9 227.38, 384 136.38 M210.15 336.38 C258.55 280.7, 306.96 225.01, 384 136.38 M231.41 336.31 C262.12 300.98, 292.84 265.65, 384.27 160.46 M231.41 336.31 C263.31 299.62, 295.2 262.92, 384.27 160.46 M252.67 336.24 C280.69 304.01, 308.71 271.77, 383.88 185.3 M252.67 336.24 C284.44 299.69, 316.22 263.14, 383.88 185.3 M273.93 336.17 C307.93 297.06, 341.93 257.95, 384.15 209.38 M273.93 336.17 C297.19 309.42, 320.45 282.66, 384.15 209.38 M295.19 336.1 C326.38 300.22, 357.58 264.33, 383.76 234.22 M295.19 336.1 C326.96 299.56, 358.73 263.01, 383.76 234.22 M316.45 336.04 C333.03 316.96, 349.6 297.89, 384.02 258.3 M316.45 336.04 C338.36 310.84, 360.26 285.64, 384.02 258.3 M337.71 335.97 C355.79 315.17, 373.87 294.37, 384.29 282.38 M337.71 335.97 C348.26 323.83, 358.8 311.7, 384.29 282.38" stroke="#a5d8ff" stroke-width="2" fill="none"></path><path d="M32 0 M32 0 C108.93 0, 185.86 0, 344.3 0 M32 0 C109.69 0, 187.38 0, 344.3 0 M344.3 0 C365.63 0, 376.3 10.67, 376.3 32 M344.3 0 C365.63 0, 376.3 10.67, 376.3 32 M376.3 32 C376.3 125.44, 376.3 218.88, 376.3 296.56 M376.3 32 C376.3 91.56, 376.3 151.11, 376.3 296.56 M376.3 296.56 C376.3 317.89, 365.63 328.56, 344.3 328.56 M376.3 296.56 C376.3 317.89, 365.63 328.56, 344.3 328.56 M344.3 328.56 C267.89 328.56, 191.48 328.56, 32 328.56 M344.3 328.56 C265.81 328.56, 187.31 328.56, 32 328.56 M32 328.56 C10.67 328.56, 0 317.89, 0 296.56 M32 328.56 C10.67 328.56, 0 317.89, 0 296.56 M0 296.56 C0 204.41, 0 112.26, 0 32 M0 296.56 C0 235.52, 0 174.47, 0 32 M0 32 C0 10.67, 10.67 0, 32 0 M0 32 C0 10.67, 10.67 0, 32 0" stroke="#1e1e1e" stroke-width="4" fill="none"></path></g><g transform="translate(3203.9459692871424 909.2279302140232) rotate(0 156.73333740234375 120.34831543116161)"><text x="156.73333740234375" y="0" font-family="Cascadia, Segoe UI Emoji" font-size="66.86017523953424px" fill="#1e1e1e" text-anchor="middle" style="white-space: pre;" direction="ltr" dominant-baseline="text-before-edge">T object</text><text x="156.73333740234375" y="80.23221028744109" font-family="Cascadia, Segoe UI Emoji" font-size="66.86017523953424px" fill="#1e1e1e" text-anchor="middle" style="white-space: pre;" direction="ltr" dominant-baseline="text-before-edge"></text><text x="156.73333740234375" y="160.46442057488218" font-family="Cascadia, Segoe UI Emoji" font-size="66.86017523953424px" fill="#1e1e1e" text-anchor="middle" style="white-space: pre;" direction="ltr" dominant-baseline="text-before-edge">#2</text></g><g stroke-linecap="round" transform="translate(2791.235049789524 863.0269710329594) rotate(0 188.15049284745714 164.2806542026301)"><path d="M7.86 8.16 C7.86 8.16, 7.86 8.16, 7.86 8.16 M7.86 8.16 C7.86 8.16, 7.86 8.16, 7.86 8.16 M8.78 31.49 C18.59 20.21, 28.39 8.93, 34.37 2.05 M8.78 31.49 C15.7 23.53, 22.62 15.57, 34.37 2.05 M8.39 56.32 C26.12 35.93, 43.84 15.54, 55.63 1.98 M8.39 56.32 C26.49 35.5, 44.59 14.68, 55.63 1.98 M8.66 80.4 C31.01 54.7, 53.35 28.99, 76.89 1.91 M8.66 80.4 C31.81 53.77, 54.97 27.13, 76.89 1.91 M8.27 105.24 C30.72 79.42, 53.16 53.6, 98.15 1.85 M8.27 105.24 C41.69 66.8, 75.1 28.36, 98.15 1.85 M8.54 129.32 C52.35 78.93, 96.16 28.53, 119.41 1.78 M8.54 129.32 C47.3 84.73, 86.06 40.14, 119.41 1.78 M8.15 154.16 C38.1 119.7, 68.06 85.24, 140.67 1.71 M8.15 154.16 C56.21 98.87, 104.27 43.59, 140.67 1.71 M8.41 178.24 C51.14 129.09, 93.86 79.95, 161.28 2.39 M8.41 178.24 C39.85 142.08, 71.28 105.92, 161.28 2.39 M8.68 202.32 C66.54 135.76, 124.41 69.19, 182.54 2.32 M8.68 202.32 C71.74 129.78, 134.8 57.24, 182.54 2.32 M8.29 227.16 C60.96 166.57, 113.62 105.99, 203.8 2.26 M8.29 227.16 C65.32 161.55, 122.35 95.94, 203.8 2.26 M8.56 251.24 C61.39 190.46, 114.23 129.68, 225.06 2.19 M8.56 251.24 C53.71 199.29, 98.87 147.34, 225.06 2.19 M8.17 276.08 C91.26 180.49, 174.36 84.9, 246.32 2.12 M8.17 276.08 C96.7 174.23, 185.23 72.38, 246.32 2.12 M3.18 306.2 C103.37 190.94, 203.56 75.68, 267.58 2.05 M3.18 306.2 C73.65 225.13, 144.12 144.07, 267.58 2.05 M10.01 322.73 C92.97 227.3, 175.92 131.87, 288.84 1.98 M10.01 322.73 C90.7 229.91, 171.39 137.08, 288.84 1.98 M25.37 329.45 C82.91 263.25, 140.46 197.05, 310.1 1.91 M25.37 329.45 C120.04 220.54, 214.71 111.64, 310.1 1.91 M40.72 336.18 C154.04 205.82, 267.36 75.46, 331.36 1.84 M40.72 336.18 C118.6 246.59, 196.47 157.01, 331.36 1.84 M61.98 336.11 C155.98 227.98, 249.98 119.84, 352.62 1.77 M61.98 336.11 C158.53 225.05, 255.07 113.98, 352.62 1.77 M83.24 336.04 C167.75 238.82, 252.27 141.6, 368.63 7.74 M83.24 336.04 C143.29 266.96, 203.34 197.88, 368.63 7.74 M104.5 335.97 C213.41 210.69, 322.32 85.4, 378.08 21.26 M104.5 335.97 C164.94 266.44, 225.39 196.91, 378.08 21.26 M125.76 335.9 C224.39 222.45, 323.01 108.99, 384.25 38.55 M125.76 335.9 C229.03 217.11, 332.29 98.32, 384.25 38.55 M147.02 335.83 C200.69 274.09, 254.36 212.35, 383.86 63.38 M147.02 335.83 C214.23 258.52, 281.43 181.22, 383.86 63.38 M167.63 336.52 C212.41 285.01, 257.18 233.5, 384.13 87.46 M167.63 336.52 C253.7 237.5, 339.77 138.49, 384.13 87.46 M188.89 336.45 C238.71 279.14, 288.53 221.83, 384.39 111.55 M188.89 336.45 C234.91 283.51, 280.93 230.57, 384.39 111.55 M210.15 336.38 C249.78 290.79, 289.41 245.2, 384 136.38 M210.15 336.38 C270.42 267.05, 330.69 197.71, 384 136.38 M231.41 336.31 C273.27 288.15, 315.13 240, 384.27 160.46 M231.41 336.31 C280.36 280, 329.31 223.69, 384.27 160.46 M252.67 336.24 C291.53 291.53, 330.4 246.82, 383.88 185.3 M252.67 336.24 C287.91 295.7, 323.15 255.16, 383.88 185.3 M273.93 336.17 C309.22 295.58, 344.51 254.98, 384.15 209.38 M273.93 336.17 C297.34 309.24, 320.75 282.31, 384.15 209.38 M295.19 336.1 C326.91 299.61, 358.64 263.11, 383.76 234.22 M295.19 336.1 C327.49 298.94, 359.8 261.78, 383.76 234.22 M316.45 336.04 C341.82 306.84, 367.2 277.65, 384.02 258.3 M316.45 336.04 C337.78 311.5, 359.11 286.96, 384.02 258.3 M337.71 335.97 C354.29 316.9, 370.86 297.83, 384.29 282.38 M337.71 335.97 C352.44 319.02, 367.17 302.07, 384.29 282.38" stroke="#a5d8ff" stroke-width="2" fill="none"></path><path d="M32 0 M32 0 C115.38 0, 198.76 0, 344.3 0 M32 0 C114.28 0, 196.57 0, 344.3 0 M344.3 0 C365.63 0, 376.3 10.67, 376.3 32 M344.3 0 C365.63 0, 376.3 10.67, 376.3 32 M376.3 32 C376.3 96.17, 376.3 160.34, 376.3 296.56 M376.3 32 C376.3 91.43, 376.3 150.86, 376.3 296.56 M376.3 296.56 C376.3 317.89, 365.63 328.56, 344.3 328.56 M376.3 296.56 C376.3 317.89, 365.63 328.56, 344.3 328.56 M344.3 328.56 C241.71 328.56, 139.11 328.56, 32 328.56 M344.3 328.56 C250.78 328.56, 157.26 328.56, 32 328.56 M32 328.56 C10.67 328.56, 0 317.89, 0 296.56 M32 328.56 C10.67 328.56, 0 317.89, 0 296.56 M0 296.56 C0 241.84, 0 187.11, 0 32 M0 296.56 C0 213.25, 0 129.94, 0 32 M0 32 C0 10.67, 10.67 0, 32 0 M0 32 C0 10.67, 10.67 0, 32 0" stroke="#1e1e1e" stroke-width="4" fill="none"></path></g><g transform="translate(2823.704667090693 910.0789048537554) rotate(0 156.73333740234375 120.34831543116161)"><text x="156.73333740234375" y="0" font-family="Cascadia, Segoe UI Emoji" font-size="66.86017523953424px" fill="#1e1e1e" text-anchor="middle" style="white-space: pre;" direction="ltr" dominant-baseline="text-before-edge">T object</text><text x="156.73333740234375" y="80.23221028744109" font-family="Cascadia, Segoe UI Emoji" font-size="66.86017523953424px" fill="#1e1e1e" text-anchor="middle" style="white-space: pre;" direction="ltr" dominant-baseline="text-before-edge"></text><text x="156.73333740234375" y="160.46442057488218" font-family="Cascadia, Segoe UI Emoji" font-size="66.86017523953424px" fill="#1e1e1e" text-anchor="middle" style="white-space: pre;" direction="ltr" dominant-baseline="text-before-edge">#1</text></g><g transform="translate(2810.31993798887 730.8050041680544) rotate(0 345.5 58.971079010931135)"><text x="345.5" y="0" font-family="Cascadia, Segoe UI Emoji" font-size="98.285131684885px" fill="#1e1e1e" text-anchor="middle" style="white-space: pre;" direction="ltr" dominant-baseline="text-before-edge">t_buffer_new</text></g><g transform="translate(2790.6952745137187 153.95483685717045) rotate(0 236.6666717529297 60.592815600071845)"><text x="236.6666717529297" y="0" font-family="Cascadia, Segoe UI Emoji" font-size="100.98802600011899px" fill="#1e1e1e" text-anchor="middle" style="white-space: pre;" direction="ltr" dominant-baseline="text-before-edge">t_buffer</text></g><g transform="translate(1822.8339372555292 24.047773309866898) rotate(0 265.5333251953125 77.67873022429012)"><text x="265.5333251953125" y="0" font-family="Cascadia, Segoe UI Emoji" font-size="129.4645503738171px" fill="#e03131" text-anchor="middle" style="white-space: pre;" direction="ltr" dominant-baseline="text-before-edge">Before </text></g><g transform="translate(4538.552153788714 24.824133632151643) rotate(0 227.60000610351562 77.67873022429012)"><text x="227.60000610351562" y="0" font-family="Cascadia, Segoe UI Emoji" font-size="129.4645503738171px" fill="#e03131" text-anchor="middle" style="white-space: pre;" direction="ltr" dominant-baseline="text-before-edge">After </text></g><g stroke-linecap="round" transform="translate(2649.9916176534634 10) rotate(0 1179.3943268256335 656.4944714164885)"><path d="M32 0 M32 0 C911.23 0, 1790.46 0, 2326.79 0 M2326.79 0 C2348.12 0, 2358.79 10.67, 2358.79 32 M2358.79 32 C2358.79 310.59, 2358.79 589.18, 2358.79 1280.99 M2358.79 1280.99 C2358.79 1302.32, 2348.12 1312.99, 2326.79 1312.99 M2326.79 1312.99 C1643.99 1312.99, 961.2 1312.99, 32 1312.99 M32 1312.99 C10.67 1312.99, 0 1302.32, 0 1280.99 M0 1280.99 C0 877.31, 0 473.63, 0 32 M0 32 C0 10.67, 10.67 0, 32 0" stroke="#868e96" stroke-width="4.5" fill="none" stroke-dasharray="1.5 10"></path></g></svg>