<svg version="1.1" xmlns="http://www.w3.org/2000/svg" viewBox="0 0 2265 1202.5000000000005" width="6795" height="3607.5000000000014">
  <!-- svg-source:excalidraw -->
  
  <defs>
    <style class="style-fonts">
      @font-face {
        font-family: "Virgil";
        src: url("https://excalidraw.com/Virgil.woff2");
      }
      @font-face {
        font-family: "Cascadia";
        src: url("https://excalidraw.com/Cascadia.woff2");
      }
    </style>
    
  </defs>
  <g stroke-linecap="round" transform="translate(10 10) rotate(0 1122.5 591.2500000000002)"><path d="M0 0 C0 0, 0 0, 0 0 M0 0 C0 0, 0 0, 0 0 M0.27 24.08 C7.22 16.08, 14.18 8.08, 21.26 -0.07 M0.27 24.08 C8.58 14.52, 16.9 4.95, 21.26 -0.07 M-0.12 48.92 C14.95 31.58, 30.02 14.24, 42.52 -0.14 M-0.12 48.92 C16.89 29.34, 33.91 9.77, 42.52 -0.14 M0.14 73 C21.79 48.1, 43.44 23.2, 63.78 -0.21 M0.14 73 C24.08 45.46, 48.02 17.93, 63.78 -0.21 M-0.25 97.84 C17.57 77.34, 35.38 56.85, 85.04 -0.28 M-0.25 97.84 C18.24 76.57, 36.73 55.3, 85.04 -0.28 M0.02 121.92 C21.45 97.26, 42.89 72.6, 106.3 -0.34 M0.02 121.92 C26.22 91.78, 52.42 61.64, 106.3 -0.34 M0.29 146 C36.82 103.97, 73.36 61.94, 126.91 0.34 M0.29 146 C47.65 91.51, 95.01 37.03, 126.91 0.34 M-0.1 170.84 C39.99 124.71, 80.08 78.59, 148.17 0.27 M-0.1 170.84 C50.04 113.16, 100.18 55.48, 148.17 0.27 M0.16 194.92 C64.86 120.5, 129.55 46.07, 169.43 0.2 M0.16 194.92 C43.21 145.39, 86.26 95.87, 169.43 0.2 M-0.23 219.75 C75.41 132.75, 151.04 45.74, 190.69 0.13 M-0.23 219.75 C49.77 162.24, 99.76 104.73, 190.69 0.13 M0.04 243.84 C47.68 189.04, 95.31 134.24, 211.95 0.06 M0.04 243.84 C57.39 177.87, 114.73 111.9, 211.95 0.06 M0.3 267.92 C52.5 207.88, 104.69 147.84, 233.21 0 M0.3 267.92 C48.74 212.19, 97.18 156.47, 233.21 0 M-0.08 292.75 C100.88 176.61, 201.84 60.47, 254.47 -0.07 M-0.08 292.75 C93 185.68, 186.08 78.6, 254.47 -0.07 M0.18 316.84 C81.37 223.43, 162.57 130.03, 275.73 -0.14 M0.18 316.84 C68.14 238.66, 136.1 160.48, 275.73 -0.14 M-0.21 341.67 C66.16 265.33, 132.52 188.98, 296.99 -0.21 M-0.21 341.67 C92.49 235.03, 185.19 128.39, 296.99 -0.21 M0.06 365.75 C109.39 239.98, 218.73 114.2, 318.25 -0.28 M0.06 365.75 C72.47 282.45, 144.88 199.16, 318.25 -0.28 M0.32 389.84 C93.85 282.24, 187.38 174.65, 339.51 -0.35 M0.32 389.84 C72.06 307.32, 143.79 224.8, 339.51 -0.35 M-0.07 414.67 C72.71 330.95, 145.48 247.24, 360.11 0.34 M-0.07 414.67 C100.89 298.54, 201.84 182.41, 360.11 0.34 M0.2 438.75 C103.19 320.27, 206.19 201.79, 381.37 0.27 M0.2 438.75 C151.22 265.03, 302.24 91.3, 381.37 0.27 M-0.19 463.59 C119.19 326.26, 238.56 188.94, 402.63 0.2 M-0.19 463.59 C126.27 318.12, 252.72 172.65, 402.63 0.2 M0.08 487.67 C156.13 308.15, 312.18 128.63, 423.89 0.13 M0.08 487.67 C138.89 327.98, 277.71 168.29, 423.89 0.13 M-0.31 512.51 C154.81 334.06, 309.93 155.62, 445.15 0.06 M-0.31 512.51 C141.05 349.89, 282.41 187.27, 445.15 0.06 M-0.05 536.59 C128.99 388.15, 258.03 239.71, 466.41 -0.01 M-0.05 536.59 C138.35 377.38, 276.76 218.17, 466.41 -0.01 M0.22 560.67 C134.11 406.65, 268 252.63, 487.67 -0.08 M0.22 560.67 C126.49 415.42, 252.76 270.16, 487.67 -0.08 M-0.17 585.51 C176.82 381.91, 353.8 178.31, 508.93 -0.15 M-0.17 585.51 C165.07 395.42, 330.3 205.34, 508.93 -0.15 M0.1 609.59 C152.79 433.94, 305.48 258.29, 530.19 -0.22 M0.1 609.59 C205.38 373.44, 410.66 137.29, 530.19 -0.22 M-0.29 634.43 C153.49 457.52, 307.28 280.61, 551.45 -0.28 M-0.29 634.43 C144.09 468.33, 288.47 302.24, 551.45 -0.28 M-0.03 658.51 C226.76 397.62, 453.55 136.72, 572.71 -0.35 M-0.03 658.51 C188.92 441.15, 377.86 223.79, 572.71 -0.35 M0.24 682.59 C126.37 537.49, 252.51 392.39, 593.32 0.33 M0.24 682.59 C171.23 485.89, 342.22 289.19, 593.32 0.33 M-0.15 707.43 C185.14 494.28, 370.43 281.13, 614.58 0.26 M-0.15 707.43 C242.39 428.41, 484.93 149.4, 614.58 0.26 M0.12 731.51 C151.17 557.74, 302.22 383.97, 635.84 0.19 M0.12 731.51 C136.4 574.73, 272.68 417.96, 635.84 0.19 M-0.27 756.34 C198.67 527.49, 397.61 298.63, 657.1 0.13 M-0.27 756.34 C176.23 553.3, 352.73 350.26, 657.1 0.13 M-0.01 780.43 C194.65 556.5, 389.3 332.58, 678.36 0.06 M-0.01 780.43 C257.44 484.27, 514.88 188.11, 678.36 0.06 M0.26 804.51 C275.25 488.16, 550.25 171.82, 699.62 -0.01 M0.26 804.51 C223.15 548.1, 446.04 291.69, 699.62 -0.01 M-0.13 829.34 C172.5 630.76, 345.12 432.18, 720.88 -0.08 M-0.13 829.34 C254.4 536.54, 508.93 243.74, 720.88 -0.08 M0.14 853.43 C268.77 544.4, 537.4 235.37, 742.14 -0.15 M0.14 853.43 C216.68 604.32, 433.22 355.22, 742.14 -0.15 M-0.25 878.26 C167.05 685.8, 334.36 493.34, 763.4 -0.22 M-0.25 878.26 C178.37 672.78, 356.99 467.3, 763.4 -0.22 M0.01 902.34 C230.16 637.59, 460.31 372.83, 784.66 -0.29 M0.01 902.34 C168.1 708.98, 336.19 515.62, 784.66 -0.29 M0.28 926.43 C238.18 652.75, 476.08 379.07, 805.92 -0.36 M0.28 926.43 C282.94 601.25, 565.61 276.08, 805.92 -0.36 M-0.11 951.26 C220.24 697.78, 440.59 444.3, 826.52 0.33 M-0.11 951.26 C241.18 673.69, 482.47 396.12, 826.52 0.33 M0.15 975.34 C324.56 602.15, 648.98 228.96, 847.78 0.26 M0.15 975.34 C307.21 622.12, 614.26 268.9, 847.78 0.26 M-0.24 1000.18 C222.83 743.57, 445.9 486.97, 869.04 0.19 M-0.24 1000.18 C182.82 789.6, 365.87 579.03, 869.04 0.19 M0.03 1024.26 C303.94 674.66, 607.84 325.05, 890.3 0.12 M0.03 1024.26 C317.09 659.53, 634.15 294.79, 890.3 0.12 M0.3 1048.34 C213.17 803.47, 426.04 558.59, 911.56 0.05 M0.3 1048.34 C215.06 801.29, 429.82 554.23, 911.56 0.05 M-0.09 1073.18 C257.86 776.44, 515.81 479.7, 932.82 -0.02 M-0.09 1073.18 C326.69 697.26, 653.47 321.35, 932.82 -0.02 M0.17 1097.26 C251.03 808.68, 501.89 520.1, 954.08 -0.09 M0.17 1097.26 C298.06 754.59, 595.94 411.91, 954.08 -0.09 M-0.22 1122.1 C232.7 854.15, 465.63 586.21, 975.34 -0.15 M-0.22 1122.1 C382.3 682.06, 764.82 242.03, 975.34 -0.15 M0.05 1146.18 C204.86 910.57, 409.68 674.96, 996.6 -0.22 M0.05 1146.18 C363.95 727.56, 727.86 308.93, 996.6 -0.22 M0.32 1170.26 C330.05 790.95, 659.78 411.64, 1017.86 -0.29 M0.32 1170.26 C263.59 867.4, 526.86 564.54, 1017.86 -0.29 M6.49 1187.55 C230.88 929.41, 455.28 671.27, 1039.12 -0.36 M6.49 1187.55 C418.31 713.81, 830.13 240.06, 1039.12 -0.36 M27.09 1188.24 C412.89 744.42, 798.69 300.61, 1059.73 0.32 M27.09 1188.24 C395.73 764.17, 764.36 340.11, 1059.73 0.32 M48.35 1188.17 C306.22 891.52, 564.09 594.88, 1080.99 0.26 M48.35 1188.17 C458.67 716.15, 869 244.12, 1080.99 0.26 M69.61 1188.1 C352.54 862.62, 635.47 537.15, 1102.25 0.19 M69.61 1188.1 C300.26 922.77, 530.9 657.45, 1102.25 0.19 M90.87 1188.03 C451.75 772.89, 812.62 357.75, 1123.51 0.12 M90.87 1188.03 C322.86 921.16, 554.85 654.29, 1123.51 0.12 M112.13 1187.96 C377.57 882.61, 643.01 577.25, 1144.77 0.05 M112.13 1187.96 C343.48 921.83, 574.82 655.7, 1144.77 0.05 M133.39 1187.89 C503.67 761.94, 873.94 335.98, 1166.03 -0.02 M133.39 1187.89 C468.21 802.72, 803.04 417.55, 1166.03 -0.02 M154.65 1187.82 C567.67 712.7, 980.69 237.58, 1187.29 -0.09 M154.65 1187.82 C417.86 885.04, 681.07 582.25, 1187.29 -0.09 M175.91 1187.75 C397.27 933.12, 618.62 678.48, 1208.55 -0.16 M175.91 1187.75 C402.39 927.22, 628.88 666.68, 1208.55 -0.16 M197.17 1187.69 C533.01 801.35, 868.84 415.02, 1229.81 -0.23 M197.17 1187.69 C446.54 900.82, 695.91 613.95, 1229.81 -0.23 M218.43 1187.62 C476.04 891.27, 733.65 594.93, 1251.07 -0.3 M218.43 1187.62 C438.19 934.81, 657.95 682.01, 1251.07 -0.3 M239.69 1187.55 C550.11 830.45, 860.53 473.36, 1272.33 -0.37 M239.69 1187.55 C486.57 903.54, 733.46 619.54, 1272.33 -0.37 M260.3 1188.23 C561.67 841.54, 863.05 494.84, 1292.93 0.32 M260.3 1188.23 C556.97 846.95, 853.65 505.66, 1292.93 0.32 M281.56 1188.16 C631.87 785.17, 982.19 382.18, 1314.19 0.25 M281.56 1188.16 C625.01 793.07, 968.46 397.98, 1314.19 0.25 M302.82 1188.09 C679.5 754.77, 1056.19 321.44, 1335.45 0.18 M302.82 1188.09 C514.57 944.5, 726.33 700.9, 1335.45 0.18 M324.08 1188.03 C633.4 832.19, 942.73 476.35, 1356.72 0.11 M324.08 1188.03 C671.73 788.1, 1019.38 388.18, 1356.72 0.11 M345.34 1187.96 C744.8 728.43, 1144.25 268.91, 1377.98 0.04 M345.34 1187.96 C560.2 940.78, 775.07 693.61, 1377.98 0.04 M366.6 1187.89 C764.43 730.24, 1162.26 272.58, 1399.24 -0.03 M366.6 1187.89 C671.84 836.75, 977.08 485.61, 1399.24 -0.03 M387.86 1187.82 C668.63 864.83, 949.41 541.83, 1420.5 -0.09 M387.86 1187.82 C716.22 810.08, 1044.59 432.34, 1420.5 -0.09 M409.12 1187.75 C662.55 896.21, 915.98 604.68, 1441.76 -0.16 M409.12 1187.75 C805.02 732.32, 1200.91 276.9, 1441.76 -0.16 M430.38 1187.68 C667.04 915.43, 903.71 643.18, 1463.02 -0.23 M430.38 1187.68 C674.23 907.16, 918.08 626.65, 1463.02 -0.23 M451.64 1187.61 C734.99 861.65, 1018.34 535.7, 1484.28 -0.3 M451.64 1187.61 C662.01 945.61, 872.38 703.6, 1484.28 -0.3 M472.9 1187.54 C744.7 874.88, 1016.49 562.21, 1505.54 -0.37 M472.9 1187.54 C724.42 898.2, 975.94 608.86, 1505.54 -0.37 M493.5 1188.23 C815.54 817.77, 1137.57 447.31, 1526.14 0.32 M493.5 1188.23 C792.95 843.75, 1092.4 499.27, 1526.14 0.32 M514.76 1188.16 C797.49 862.92, 1080.22 537.68, 1547.4 0.25 M514.76 1188.16 C825.58 830.6, 1136.4 473.05, 1547.4 0.25 M536.02 1188.09 C890 780.89, 1243.98 373.69, 1568.66 0.18 M536.02 1188.09 C747.95 944.29, 959.88 700.5, 1568.66 0.18 M557.28 1188.02 C924.99 765.03, 1292.69 342.03, 1589.92 0.11 M557.28 1188.02 C917.48 773.66, 1277.68 359.3, 1589.92 0.11 M578.54 1187.95 C989.01 715.77, 1399.47 243.59, 1611.18 0.04 M578.54 1187.95 C828.66 900.23, 1078.77 612.5, 1611.18 0.04 M599.8 1187.88 C910.15 830.88, 1220.49 473.87, 1632.44 -0.03 M599.8 1187.88 C813.69 941.84, 1027.57 695.8, 1632.44 -0.03 M621.06 1187.81 C880.85 888.97, 1140.63 590.13, 1653.7 -0.1 M621.06 1187.81 C954.98 803.69, 1288.89 419.57, 1653.7 -0.1 M642.32 1187.75 C944.8 839.79, 1247.27 491.84, 1674.96 -0.17 M642.32 1187.75 C927.02 860.24, 1211.73 532.73, 1674.96 -0.17 M663.59 1187.68 C1000.18 800.47, 1336.77 413.27, 1696.22 -0.24 M663.59 1187.68 C974.2 830.35, 1284.82 473.03, 1696.22 -0.24 M684.85 1187.61 C906.13 933.04, 1127.42 678.48, 1717.48 -0.31 M684.85 1187.61 C926.5 909.61, 1168.16 631.62, 1717.48 -0.31 M706.11 1187.54 C1105.61 727.97, 1505.1 268.4, 1738.74 -0.37 M706.11 1187.54 C970.82 883.02, 1235.53 578.51, 1738.74 -0.37 M726.71 1188.22 C1078.92 783.05, 1431.13 377.89, 1759.35 0.31 M726.71 1188.22 C1079.08 782.87, 1431.44 377.52, 1759.35 0.31 M747.97 1188.16 C1001.87 896.07, 1255.78 603.99, 1780.61 0.24 M747.97 1188.16 C956.04 948.8, 1164.11 709.44, 1780.61 0.24 M769.23 1188.09 C1022.18 897.1, 1275.14 606.11, 1801.87 0.17 M769.23 1188.09 C1116.38 788.74, 1463.53 389.39, 1801.87 0.17 M790.49 1188.02 C1058.8 879.36, 1327.11 570.71, 1823.13 0.1 M790.49 1188.02 C1180.24 739.66, 1569.99 291.3, 1823.13 0.1 M811.75 1187.95 C1114.27 839.94, 1416.79 491.93, 1844.39 0.04 M811.75 1187.95 C1160.15 787.16, 1508.56 386.37, 1844.39 0.04 M833.01 1187.88 C1071.45 913.59, 1309.88 639.3, 1865.65 -0.03 M833.01 1187.88 C1199.64 766.13, 1566.26 344.37, 1865.65 -0.03 M854.27 1187.81 C1213.02 775.12, 1571.76 362.43, 1886.91 -0.1 M854.27 1187.81 C1208.56 780.25, 1562.84 372.69, 1886.91 -0.1 M875.53 1187.74 C1192.11 823.56, 1508.69 459.37, 1908.17 -0.17 M875.53 1187.74 C1221.33 789.95, 1567.12 392.15, 1908.17 -0.17 M896.79 1187.67 C1171.42 871.75, 1446.04 555.83, 1929.43 -0.24 M896.79 1187.67 C1238.78 794.26, 1580.76 400.86, 1929.43 -0.24 M918.05 1187.6 C1206.83 855.4, 1495.61 523.2, 1950.69 -0.31 M918.05 1187.6 C1173.29 893.98, 1428.53 600.36, 1950.69 -0.31 M939.31 1187.53 C1147.28 948.29, 1355.25 709.05, 1971.29 0.38 M939.31 1187.53 C1310.05 761.05, 1680.78 334.57, 1971.29 0.38 M959.92 1188.22 C1257.56 845.82, 1555.21 503.42, 1992.55 0.31 M959.92 1188.22 C1220.03 889, 1480.14 589.78, 1992.55 0.31 M981.18 1188.15 C1293.46 828.91, 1605.75 469.67, 2013.81 0.24 M981.18 1188.15 C1254.39 873.86, 1527.6 559.56, 2013.81 0.24 M1002.44 1188.08 C1328.5 812.98, 1654.57 437.89, 2035.07 0.17 M1002.44 1188.08 C1248.87 904.6, 1495.29 621.11, 2035.07 0.17 M1023.7 1188.01 C1242.81 935.95, 1461.93 683.88, 2056.33 0.1 M1023.7 1188.01 C1399.72 755.45, 1775.74 322.88, 2056.33 0.1 M1044.96 1187.94 C1345.41 842.32, 1645.86 496.69, 2077.59 0.03 M1044.96 1187.94 C1382.36 799.81, 1719.76 411.67, 2077.59 0.03 M1066.22 1187.88 C1448.04 748.64, 1829.85 309.41, 2098.85 -0.04 M1066.22 1187.88 C1432.38 766.66, 1798.54 345.44, 2098.85 -0.04 M1087.48 1187.81 C1488 727.05, 1888.53 266.3, 2120.11 -0.11 M1087.48 1187.81 C1464.58 754, 1841.68 320.19, 2120.11 -0.11 M1108.74 1187.74 C1428.12 820.32, 1747.51 452.91, 2141.37 -0.18 M1108.74 1187.74 C1327.93 935.59, 1547.12 683.44, 2141.37 -0.18 M1130 1187.67 C1466.49 800.58, 1802.98 413.49, 2162.63 -0.24 M1130 1187.67 C1370.25 911.29, 1610.51 634.9, 2162.63 -0.24 M1151.26 1187.6 C1523.35 759.55, 1895.45 331.5, 2183.89 -0.31 M1151.26 1187.6 C1454.02 839.31, 1756.79 491.01, 2183.89 -0.31 M1172.52 1187.53 C1450.74 867.47, 1728.96 547.42, 2204.5 0.37 M1172.52 1187.53 C1520.86 786.81, 1869.2 386.09, 2204.5 0.37 M1193.12 1188.22 C1552.18 775.17, 1911.24 362.12, 2225.76 0.3 M1193.12 1188.22 C1433.84 911.3, 1674.56 634.39, 2225.76 0.3 M1214.38 1188.15 C1553.98 797.48, 1893.58 406.81, 2246.36 0.99 M1214.38 1188.15 C1542.45 810.75, 1870.51 433.36, 2246.36 0.99 M1235.64 1188.08 C1530.21 849.22, 1824.78 510.35, 2245.97 25.83 M1235.64 1188.08 C1485.6 900.53, 1735.56 612.99, 2245.97 25.83 M1256.9 1188.01 C1513.72 892.57, 1770.55 597.13, 2246.24 49.91 M1256.9 1188.01 C1594.73 799.39, 1932.55 410.76, 2246.24 49.91 M1278.16 1187.94 C1575.76 845.59, 1873.36 503.25, 2246.51 73.99 M1278.16 1187.94 C1502.01 930.43, 1725.86 672.92, 2246.51 73.99 M1299.42 1187.87 C1641.89 793.91, 1984.35 399.95, 2246.12 98.83 M1299.42 1187.87 C1494.15 963.87, 1688.87 739.86, 2246.12 98.83 M1320.68 1187.8 C1603.75 862.17, 1886.82 536.53, 2246.38 122.91 M1320.68 1187.8 C1560.61 911.79, 1800.55 635.78, 2246.38 122.91 M1341.94 1187.73 C1686.81 791, 2031.68 394.28, 2245.99 147.74 M1341.94 1187.73 C1556.83 940.54, 1771.71 693.34, 2245.99 147.74 M1363.2 1187.66 C1621.96 890, 1880.72 592.33, 2246.26 171.83 M1363.2 1187.66 C1615.7 897.2, 1868.2 606.74, 2246.26 171.83 M1384.46 1187.6 C1565.5 979.34, 1746.53 771.08, 2246.52 195.91 M1384.46 1187.6 C1724.36 796.59, 2064.25 405.59, 2246.52 195.91 M1405.72 1187.53 C1632.99 926.09, 1860.26 664.65, 2246.13 220.74 M1405.72 1187.53 C1612.09 950.13, 1818.46 712.73, 2246.13 220.74 M1426.33 1188.21 C1741.14 826.06, 2055.95 463.91, 2246.4 244.82 M1426.33 1188.21 C1723.16 846.75, 2019.99 505.28, 2246.4 244.82 M1447.59 1188.14 C1714.81 880.74, 1982.03 573.33, 2246.01 269.66 M1447.59 1188.14 C1728.55 864.93, 2009.52 541.72, 2246.01 269.66 M1468.85 1188.07 C1768.14 843.78, 2067.43 499.49, 2246.28 293.74 M1468.85 1188.07 C1668.58 958.31, 1868.3 728.55, 2246.28 293.74 M1490.11 1188 C1775.92 859.22, 2061.73 530.43, 2246.54 317.82 M1490.11 1188 C1791.54 841.25, 2092.98 494.49, 2246.54 317.82 M1511.37 1187.94 C1761.53 900.16, 2011.68 612.39, 2246.15 342.66 M1511.37 1187.94 C1750.18 913.21, 1988.99 638.49, 2246.15 342.66 M1532.63 1187.87 C1809.01 869.93, 2085.39 551.99, 2246.42 366.74 M1532.63 1187.87 C1717.18 975.56, 1901.74 763.26, 2246.42 366.74 M1553.89 1187.8 C1777.31 930.78, 2000.73 673.77, 2246.03 391.58 M1553.89 1187.8 C1721.26 995.26, 1888.64 802.71, 2246.03 391.58 M1575.15 1187.73 C1806.97 921.05, 2038.8 654.36, 2246.3 415.66 M1575.15 1187.73 C1833.53 890.49, 2091.92 593.25, 2246.3 415.66 M1596.41 1187.66 C1758.82 1000.82, 1921.24 813.99, 2246.56 439.74 M1596.41 1187.66 C1734.63 1028.66, 1872.84 869.66, 2246.56 439.74 M1617.67 1187.59 C1825.35 948.68, 2033.03 709.77, 2246.17 464.58 M1617.67 1187.59 C1812.75 963.17, 2007.83 738.76, 2246.17 464.58 M1638.93 1187.52 C1872.58 918.74, 2106.22 649.96, 2246.44 488.66 M1638.93 1187.52 C1804.33 997.25, 1969.73 806.98, 2246.44 488.66 M1659.53 1188.21 C1785.95 1042.78, 1912.37 897.36, 2246.05 513.5 M1659.53 1188.21 C1863.08 954.06, 2066.62 719.9, 2246.05 513.5 M1680.79 1188.14 C1814.02 1034.87, 1947.26 881.61, 2246.32 537.58 M1680.79 1188.14 C1898.77 937.38, 2116.75 686.63, 2246.32 537.58 M1702.05 1188.07 C1903.14 956.74, 2104.23 725.41, 2246.58 561.66 M1702.05 1188.07 C1858.28 1008.35, 2014.51 828.63, 2246.58 561.66 M1723.31 1188 C1857.44 1033.71, 1991.57 879.41, 2246.19 586.5 M1723.31 1188 C1904.47 979.6, 2085.63 771.2, 2246.19 586.5 M1744.57 1187.93 C1923.04 982.63, 2101.51 777.33, 2246.46 610.58 M1744.57 1187.93 C1895.96 1013.78, 2047.35 839.63, 2246.46 610.58 M1765.83 1187.86 C1932.2 996.48, 2098.57 805.1, 2246.07 635.42 M1765.83 1187.86 C1899.97 1033.56, 2034.1 879.26, 2246.07 635.42 M1787.09 1187.79 C1894.39 1064.36, 2001.69 940.93, 2246.34 659.5 M1787.09 1187.79 C1898.5 1059.64, 2009.9 931.48, 2246.34 659.5 M1808.35 1187.72 C1961.37 1011.7, 2114.39 835.67, 2245.95 684.33 M1808.35 1187.72 C1956.12 1017.74, 2103.88 847.76, 2245.95 684.33 M1829.61 1187.66 C1937.08 1064.03, 2044.54 940.41, 2246.21 708.42 M1829.61 1187.66 C1971.58 1024.34, 2113.55 861.03, 2246.21 708.42 M1850.87 1187.59 C1991.69 1025.6, 2132.51 863.6, 2246.48 732.5 M1850.87 1187.59 C1931.95 1094.33, 2013.02 1001.06, 2246.48 732.5 M1872.13 1187.52 C2013.63 1024.75, 2155.12 861.98, 2246.09 757.33 M1872.13 1187.52 C1986.91 1055.48, 2101.69 923.45, 2246.09 757.33 M1892.74 1188.2 C1963.54 1106.75, 2034.35 1025.3, 2246.35 781.42 M1892.74 1188.2 C2032.11 1027.87, 2171.49 867.54, 2246.35 781.42 M1914 1188.13 C2026.87 1058.29, 2139.75 928.44, 2245.97 806.25 M1914 1188.13 C1990.83 1099.75, 2067.66 1011.37, 2245.97 806.25 M1935.26 1188.07 C2048.08 1058.28, 2160.9 928.49, 2246.23 830.33 M1935.26 1188.07 C2043.49 1063.56, 2151.73 939.05, 2246.23 830.33 M1956.52 1188 C2067.69 1060.12, 2178.85 932.23, 2246.5 854.41 M1956.52 1188 C2038.99 1093.12, 2121.47 998.25, 2246.5 854.41 M1977.78 1187.93 C2050.04 1104.8, 2122.3 1021.68, 2246.11 879.25 M1977.78 1187.93 C2068.77 1083.26, 2159.76 978.59, 2246.11 879.25 M1999.04 1187.86 C2084.16 1089.94, 2169.28 992.02, 2246.37 903.33 M1999.04 1187.86 C2052.37 1126.51, 2105.7 1065.16, 2246.37 903.33 M2020.3 1187.79 C2108.45 1086.38, 2196.61 984.97, 2245.98 928.17 M2020.3 1187.79 C2103.67 1091.88, 2187.04 995.98, 2245.98 928.17 M2041.56 1187.72 C2113.92 1104.48, 2186.27 1021.25, 2246.25 952.25 M2041.56 1187.72 C2093.66 1127.78, 2145.77 1067.84, 2246.25 952.25 M2062.82 1187.65 C2125.83 1115.17, 2188.83 1042.69, 2246.52 976.33 M2062.82 1187.65 C2112.56 1130.43, 2162.31 1073.21, 2246.52 976.33 M2084.08 1187.58 C2138.81 1124.62, 2193.55 1061.66, 2246.13 1001.17 M2084.08 1187.58 C2118.16 1148.37, 2152.25 1109.17, 2246.13 1001.17 M2105.34 1187.51 C2160.07 1124.56, 2214.8 1061.6, 2246.39 1025.25 M2105.34 1187.51 C2134.22 1154.29, 2163.1 1121.07, 2246.39 1025.25 M2125.95 1188.2 C2164.2 1144.19, 2202.46 1100.18, 2246 1050.09 M2125.95 1188.2 C2170.59 1136.85, 2215.23 1085.49, 2246 1050.09 M2147.21 1188.13 C2180.14 1150.24, 2213.08 1112.35, 2246.27 1074.17 M2147.21 1188.13 C2183.11 1146.82, 2219.02 1105.52, 2246.27 1074.17 M2168.47 1188.06 C2192.92 1159.93, 2217.37 1131.8, 2246.54 1098.25 M2168.47 1188.06 C2184.67 1169.42, 2200.87 1150.78, 2246.54 1098.25 M2189.73 1187.99 C2202.62 1173.15, 2215.52 1158.32, 2246.15 1123.09 M2189.73 1187.99 C2204.67 1170.81, 2219.61 1153.62, 2246.15 1123.09 M2210.99 1187.92 C2219.27 1178.4, 2227.55 1168.87, 2246.41 1147.17 M2210.99 1187.92 C2220.4 1177.09, 2229.81 1166.27, 2246.41 1147.17 M2232.25 1187.85 C2236.02 1183.51, 2239.79 1179.17, 2246.02 1172.01 M2232.25 1187.85 C2235.86 1183.7, 2239.47 1179.54, 2246.02 1172.01 M0.16 1182.64 C0.16 1182.64, 0.16 1182.64, 0.16 1182.64 M0.16 1182.64 C0.16 1182.64, 0.16 1182.64, 0.16 1182.64 M24.24 1182.37 C16.73 1175.84, 9.21 1169.31, 0.09 1161.38 M24.24 1182.37 C18.56 1177.43, 12.87 1172.49, 0.09 1161.38 M49.08 1182.76 C30.5 1166.62, 11.93 1150.47, 0.02 1140.12 M49.08 1182.76 C37.27 1172.5, 25.46 1162.23, 0.02 1140.12 M73.16 1182.5 C49.12 1161.6, 25.09 1140.71, -0.05 1118.86 M73.16 1182.5 C51.66 1163.8, 30.16 1145.11, -0.05 1118.86 M97.24 1182.23 C77.36 1164.95, 57.49 1147.67, -0.12 1097.6 M97.24 1182.23 C62.93 1152.4, 28.61 1122.57, -0.12 1097.6 M122.08 1182.62 C78.18 1144.46, 34.28 1106.3, -0.19 1076.34 M122.08 1182.62 C88.2 1153.17, 54.33 1123.72, -0.19 1076.34 M146.16 1182.35 C93.72 1136.77, 41.29 1091.19, -0.26 1055.08 M146.16 1182.35 C105.69 1147.18, 65.23 1112, -0.26 1055.08 M170.99 1182.74 C105.56 1125.86, 40.13 1068.98, -0.32 1033.82 M170.99 1182.74 C127.35 1144.8, 83.71 1106.86, -0.32 1033.82 M195.08 1182.48 C130.93 1126.72, 66.79 1070.96, 0.36 1013.21 M195.08 1182.48 C144.62 1138.61, 94.16 1094.75, 0.36 1013.21 M219.16 1182.21 C170.77 1140.14, 122.38 1098.08, 0.29 991.95 M219.16 1182.21 C169.75 1139.26, 120.34 1096.31, 0.29 991.95 M243.99 1182.6 C170.32 1118.56, 96.65 1054.51, 0.22 970.69 M243.99 1182.6 C188.63 1134.47, 133.27 1086.35, 0.22 970.69 M268.08 1182.33 C202.2 1125.07, 136.33 1067.81, 0.15 949.43 M268.08 1182.33 C209.47 1131.38, 150.85 1080.43, 0.15 949.43 M292.91 1182.72 C217.93 1117.54, 142.95 1052.36, 0.09 928.17 M292.91 1182.72 C209.08 1109.85, 125.24 1036.97, 0.09 928.17 M316.99 1182.46 C231.12 1107.8, 145.24 1033.15, 0.02 906.91 M316.99 1182.46 C192.7 1074.4, 68.4 966.35, 0.02 906.91 M341.08 1182.19 C250.42 1103.38, 159.76 1024.57, -0.05 885.65 M341.08 1182.19 C265.2 1116.23, 189.32 1050.27, -0.05 885.65 M365.91 1182.58 C272.12 1101.05, 178.32 1019.51, -0.12 864.39 M365.91 1182.58 C243.67 1076.32, 121.44 970.06, -0.12 864.39 M389.99 1182.31 C311.38 1113.98, 232.77 1045.64, -0.19 843.13 M389.99 1182.31 C311.6 1114.16, 233.2 1046.01, -0.19 843.13 M414.83 1182.7 C328.85 1107.96, 242.88 1033.22, -0.26 821.87 M414.83 1182.7 C264.59 1052.1, 114.34 921.49, -0.26 821.87 M438.91 1182.44 C338.49 1095.14, 238.07 1007.84, -0.33 800.61 M438.91 1182.44 C321.7 1080.54, 204.48 978.65, -0.33 800.61 M463.75 1182.83 C336.69 1072.38, 209.63 961.93, 0.36 780.01 M463.75 1182.83 C360.15 1092.77, 256.54 1002.71, 0.36 780.01 M487.83 1182.56 C337.66 1052.02, 187.49 921.48, 0.29 758.75 M487.83 1182.56 C368.38 1078.72, 248.92 974.88, 0.29 758.75 M511.91 1182.29 C382.27 1069.6, 252.63 956.91, 0.22 737.49 M511.91 1182.29 C309.31 1006.18, 106.71 830.06, 0.22 737.49 M536.75 1182.68 C378.08 1044.75, 219.41 906.82, 0.15 716.23 M536.75 1182.68 C408.04 1070.8, 279.33 958.91, 0.15 716.23 M560.83 1182.42 C400.54 1043.08, 240.25 903.74, 0.08 694.97 M560.83 1182.42 C344.45 994.32, 128.08 806.23, 0.08 694.97 M585.67 1182.81 C443.31 1059.06, 300.95 935.3, 0.01 673.71 M585.67 1182.81 C389.15 1011.98, 192.63 841.14, 0.01 673.71 M609.75 1182.54 C391.3 992.65, 172.85 802.75, -0.06 652.45 M609.75 1182.54 C469.58 1060.7, 329.42 938.85, -0.06 652.45 M633.83 1182.27 C445.64 1018.68, 257.44 855.08, -0.13 631.19 M633.83 1182.27 C446.22 1019.19, 258.61 856.1, -0.13 631.19 M658.67 1182.66 C525.35 1066.77, 392.02 950.88, -0.19 609.93 M658.67 1182.66 C399.02 956.96, 139.38 731.25, -0.19 609.93 M682.75 1182.4 C410.19 945.47, 137.63 708.54, -0.26 588.66 M682.75 1182.4 C502.06 1025.33, 321.38 868.26, -0.26 588.66 M707.58 1182.79 C427.68 939.47, 147.78 696.16, -0.33 567.4 M707.58 1182.79 C513.31 1013.91, 319.04 845.03, -0.33 567.4 M731.67 1182.52 C448.66 936.5, 165.64 690.49, 0.35 546.8 M731.67 1182.52 C538.18 1014.32, 344.68 846.12, 0.35 546.8 M755.75 1182.26 C559.46 1011.62, 363.17 840.99, 0.28 525.54 M755.75 1182.26 C531.79 987.57, 307.83 792.89, 0.28 525.54 M780.58 1182.65 C551.69 983.67, 322.8 784.7, 0.22 504.28 M780.58 1182.65 C547.28 979.84, 313.98 777.03, 0.22 504.28 M804.67 1182.38 C512.25 928.19, 219.84 674, 0.15 483.02 M804.67 1182.38 C631.37 1031.74, 458.08 881.09, 0.15 483.02 M829.5 1182.77 C625.48 1005.42, 421.46 828.06, 0.08 461.76 M829.5 1182.77 C621.91 1002.31, 414.32 821.86, 0.08 461.76 M853.58 1182.5 C666.3 1019.7, 479.02 856.9, 0.01 440.5 M853.58 1182.5 C669.03 1022.07, 484.47 861.63, 0.01 440.5 M877.67 1182.24 C554.45 901.26, 231.22 620.29, -0.06 419.24 M877.67 1182.24 C543.42 891.68, 209.16 601.12, -0.06 419.24 M902.5 1182.63 C554.01 879.69, 205.52 576.75, -0.13 397.98 M902.5 1182.63 C709.77 1015.09, 517.04 847.55, -0.13 397.98 M926.58 1182.36 C668.29 957.83, 409.99 733.29, -0.2 376.72 M926.58 1182.36 C711.08 995.02, 495.57 807.69, -0.2 376.72 M951.42 1182.75 C601.93 878.95, 252.45 575.14, -0.27 355.46 M951.42 1182.75 C616.78 891.85, 282.14 600.95, -0.27 355.46 M975.5 1182.48 C593.72 850.6, 211.94 518.72, -0.34 334.2 M975.5 1182.48 C656.32 905.02, 337.14 627.56, -0.34 334.2 M999.58 1182.22 C687.94 911.3, 376.29 640.39, 0.35 313.59 M999.58 1182.22 C695.29 917.69, 390.99 653.17, 0.35 313.59 M1024.42 1182.61 C804.18 991.15, 583.94 799.7, 0.28 292.33 M1024.42 1182.61 C752.18 945.95, 479.94 709.3, 0.28 292.33 M1048.5 1182.34 C718.9 895.82, 389.29 609.3, 0.21 271.07 M1048.5 1182.34 C654.43 839.78, 260.35 497.21, 0.21 271.07 M1073.34 1182.73 C800.04 945.15, 526.74 707.57, 0.14 249.81 M1073.34 1182.73 C826.75 968.37, 580.16 754.01, 0.14 249.81 M1097.42 1182.46 C752.3 882.45, 407.18 582.44, 0.07 228.55 M1097.42 1182.46 C659.39 801.69, 221.36 420.92, 0.07 228.55 M1121.5 1182.2 C773.95 880.08, 426.4 577.95, 0 207.29 M1121.5 1182.2 C807.88 909.57, 494.25 636.93, 0 207.29 M1146.34 1182.59 C691.08 786.83, 235.81 391.08, -0.07 186.03 M1146.34 1182.59 C874.25 946.06, 602.16 709.54, -0.07 186.03 M1170.42 1182.32 C730.4 799.82, 290.38 417.31, -0.13 164.77 M1170.42 1182.32 C870.92 921.97, 571.42 661.62, -0.13 164.77 M1195.26 1182.71 C845.5 878.67, 495.74 574.63, -0.2 143.51 M1195.26 1182.71 C856.72 888.43, 518.19 594.15, -0.2 143.51 M1219.34 1182.44 C800.85 818.65, 382.35 454.86, -0.27 122.25 M1219.34 1182.44 C879.67 887.18, 540.01 591.91, -0.27 122.25 M1243.42 1182.18 C899.57 883.27, 555.72 584.37, -0.34 100.99 M1243.42 1182.18 C796.75 793.89, 350.08 405.61, -0.34 100.99 M1268.26 1182.57 C891.24 854.83, 514.22 527.09, 0.34 80.39 M1268.26 1182.57 C954.64 909.94, 641.02 637.32, 0.34 80.39 M1292.34 1182.3 C943.85 879.36, 595.36 576.43, 0.28 59.13 M1292.34 1182.3 C1011.56 938.23, 730.79 694.15, 0.28 59.13 M1317.17 1182.69 C1027.91 931.24, 738.65 679.79, 0.21 37.87 M1317.17 1182.69 C866.94 791.31, 416.7 399.92, 0.21 37.87 M1341.26 1182.43 C887.19 787.71, 433.13 393, 0.14 16.61 M1341.26 1182.43 C1020.02 903.18, 698.78 623.93, 0.14 16.61 M1366.09 1182.81 C975.53 843.3, 584.96 503.79, 2.33 -2.68 M1366.09 1182.81 C928.01 802, 489.93 421.18, 2.33 -2.68 M1390.17 1182.55 C852.07 714.78, 313.97 247.02, 26.41 -2.95 M1390.17 1182.55 C930.19 782.69, 470.21 382.83, 26.41 -2.95 M1414.26 1182.28 C910.9 744.72, 407.54 307.16, 51.25 -2.56 M1414.26 1182.28 C1108.59 916.57, 802.93 650.86, 51.25 -2.56 M1439.09 1182.67 C1037.35 833.44, 635.61 484.21, 75.33 -2.83 M1439.09 1182.67 C1095.73 884.19, 752.36 585.7, 75.33 -2.83 M1463.17 1182.41 C1006.03 785.02, 548.89 387.63, 100.17 -2.44 M1463.17 1182.41 C1095.86 863.1, 728.54 543.8, 100.17 -2.44 M1488.01 1182.8 C1023.27 778.81, 558.54 374.82, 124.25 -2.7 M1488.01 1182.8 C1141.79 881.83, 795.57 580.87, 124.25 -2.7 M1512.09 1182.53 C1038.88 771.17, 565.66 359.81, 148.33 -2.97 M1512.09 1182.53 C1027.76 761.51, 543.43 340.49, 148.33 -2.97 M1536.17 1182.26 C1017.37 731.27, 498.56 280.28, 173.17 -2.58 M1536.17 1182.26 C1203.43 893.01, 870.68 603.76, 173.17 -2.58 M1561.01 1182.65 C1067.68 753.8, 574.34 324.95, 197.25 -2.85 M1561.01 1182.65 C1071.25 756.91, 581.49 331.17, 197.25 -2.85 M1585.09 1182.39 C1166.71 818.69, 748.32 454.99, 222.09 -2.46 M1585.09 1182.39 C1240.53 882.87, 895.97 583.35, 222.09 -2.46 M1609.93 1182.78 C1292.71 907.02, 975.49 631.27, 246.17 -2.72 M1609.93 1182.78 C1283.96 899.41, 957.99 616.05, 246.17 -2.72 M1634.01 1182.51 C1145.98 758.27, 657.95 334.04, 270.25 -2.99 M1634.01 1182.51 C1170.59 779.67, 707.17 376.82, 270.25 -2.99 M1658.09 1182.24 C1374.81 935.99, 1091.53 689.74, 295.09 -2.6 M1658.09 1182.24 C1205.4 788.73, 752.72 395.21, 295.09 -2.6 M1682.93 1182.63 C1387.33 925.68, 1091.74 668.72, 319.17 -2.87 M1682.93 1182.63 C1280.89 833.15, 878.86 483.67, 319.17 -2.87 M1707.01 1182.37 C1392.13 908.65, 1077.26 634.93, 344.01 -2.48 M1707.01 1182.37 C1358.91 879.77, 1010.81 577.17, 344.01 -2.48 M1731.85 1182.76 C1305.84 812.43, 879.83 442.11, 368.09 -2.74 M1731.85 1182.76 C1272.16 783.16, 812.47 383.56, 368.09 -2.74 M1755.93 1182.49 C1427.21 896.74, 1098.49 610.98, 392.17 -3.01 M1755.93 1182.49 C1475.7 938.89, 1195.47 695.29, 392.17 -3.01 M1780.01 1182.22 C1345.5 804.51, 910.99 426.8, 417.01 -2.62 M1780.01 1182.22 C1486.11 926.74, 1192.2 671.25, 417.01 -2.62 M1804.85 1182.61 C1433.75 860.03, 1062.66 537.44, 441.09 -2.88 M1804.85 1182.61 C1451.99 875.88, 1099.12 569.14, 441.09 -2.88 M1828.93 1182.35 C1480.9 879.81, 1132.88 577.28, 465.92 -2.49 M1828.93 1182.35 C1407.55 816.05, 986.16 449.74, 465.92 -2.49 M1853.77 1182.74 C1371.34 763.37, 888.92 344.01, 490 -2.76 M1853.77 1182.74 C1483.92 861.24, 1114.08 539.74, 490 -2.76 M1877.85 1182.47 C1350.77 724.29, 823.7 266.11, 514.84 -2.37 M1877.85 1182.47 C1433.47 796.18, 989.09 409.89, 514.84 -2.37 M1901.93 1182.21 C1614.64 932.47, 1327.36 682.74, 538.92 -2.64 M1901.93 1182.21 C1385.95 733.67, 869.97 285.13, 538.92 -2.64 M1926.76 1182.59 C1486.46 799.84, 1046.15 417.09, 563 -2.9 M1926.76 1182.59 C1648.14 940.39, 1369.52 698.19, 563 -2.9 M1950.85 1182.33 C1455.62 751.84, 960.39 321.34, 587.84 -2.51 M1950.85 1182.33 C1547.06 831.32, 1143.27 480.31, 587.84 -2.51 M1975.68 1182.72 C1540.47 804.4, 1105.27 426.08, 611.92 -2.78 M1975.68 1182.72 C1686.93 931.71, 1398.17 680.69, 611.92 -2.78 M1999.76 1182.45 C1690.52 913.63, 1381.28 644.81, 636.76 -2.39 M1999.76 1182.45 C1700.8 922.56, 1401.83 662.67, 636.76 -2.39 M2023.85 1182.19 C1511.23 736.58, 998.62 290.97, 660.84 -2.66 M2023.85 1182.19 C1688.88 891, 1353.91 599.82, 660.84 -2.66 M2048.68 1182.58 C1759.31 931.03, 1469.94 679.48, 684.92 -2.92 M2048.68 1182.58 C1608.68 800.09, 1168.69 417.61, 684.92 -2.92 M2072.76 1182.31 C1609.77 779.83, 1146.77 377.35, 709.76 -2.53 M2072.76 1182.31 C1618.21 787.17, 1163.65 392.03, 709.76 -2.53 M2097.6 1182.7 C1790.31 915.58, 1483.02 648.45, 733.84 -2.8 M2097.6 1182.7 C1742.22 873.77, 1386.85 564.85, 733.84 -2.8 M2121.68 1182.43 C1847.51 944.1, 1573.34 705.76, 758.68 -2.41 M2121.68 1182.43 C1669.49 789.35, 1217.3 396.27, 758.68 -2.41 M2146.52 1182.82 C1645.08 746.93, 1143.64 311.03, 782.76 -2.68 M2146.52 1182.82 C1781.92 865.88, 1417.31 548.93, 782.76 -2.68 M2170.6 1182.56 C1629.15 711.88, 1087.69 241.2, 806.84 -2.94 M2170.6 1182.56 C1860.96 913.39, 1551.32 644.22, 806.84 -2.94 M2194.68 1182.29 C1873.04 902.69, 1551.39 623.09, 831.68 -2.55 M2194.68 1182.29 C1844.7 878.05, 1494.71 573.81, 831.68 -2.55 M2219.52 1182.68 C1797.87 816.15, 1376.22 449.61, 855.76 -2.82 M2219.52 1182.68 C1898.28 903.43, 1577.05 624.19, 855.76 -2.82 M2243.6 1182.41 C1940.71 919.12, 1637.82 655.82, 880.6 -2.43 M2243.6 1182.41 C1804.19 800.44, 1364.77 418.46, 880.6 -2.43 M2254.85 1170.99 C1762.34 742.86, 1269.82 314.72, 904.68 -2.7 M2254.85 1170.99 C1845.56 815.2, 1436.27 459.41, 904.68 -2.7 M2254.78 1149.73 C1971.36 903.36, 1687.94 656.99, 928.76 -2.96 M2254.78 1149.73 C1939.98 876.08, 1625.17 602.42, 928.76 -2.96 M2254.71 1128.47 C1817.14 748.09, 1379.56 367.71, 953.6 -2.57 M2254.71 1128.47 C1987.49 896.18, 1720.28 663.89, 953.6 -2.57 M2254.65 1107.21 C1880.28 781.78, 1505.91 456.35, 977.68 -2.84 M2254.65 1107.21 C1801.66 713.44, 1348.68 319.67, 977.68 -2.84 M2254.58 1085.95 C1952.12 823.03, 1649.66 560.11, 1002.51 -2.45 M2254.58 1085.95 C1944.68 816.56, 1634.78 547.17, 1002.51 -2.45 M2255.26 1065.35 C1962.26 810.65, 1669.26 555.95, 1026.6 -2.71 M2255.26 1065.35 C1878.1 737.49, 1500.94 409.63, 1026.6 -2.71 M2255.19 1044.09 C1961.69 788.95, 1668.19 533.81, 1050.68 -2.98 M2255.19 1044.09 C1816.18 662.46, 1377.16 280.83, 1050.68 -2.98 M2255.12 1022.83 C1992.18 794.25, 1729.23 565.67, 1075.51 -2.59 M2255.12 1022.83 C1893.71 708.66, 1532.29 394.48, 1075.51 -2.59 M2255.06 1001.57 C1849.45 648.98, 1443.85 296.4, 1099.59 -2.86 M2255.06 1001.57 C1999.82 779.69, 1744.57 557.81, 1099.59 -2.86 M2254.99 980.31 C1898.78 670.67, 1542.58 361.03, 1124.43 -2.47 M2254.99 980.31 C1978.05 739.57, 1701.12 498.84, 1124.43 -2.47 M2254.92 959.05 C1903.75 653.79, 1552.59 348.52, 1148.51 -2.73 M2254.92 959.05 C1910.72 659.85, 1566.53 360.64, 1148.51 -2.73 M2254.85 937.79 C1844.85 581.39, 1434.86 224.98, 1172.59 -3 M2254.85 937.79 C1828.08 566.81, 1401.31 195.82, 1172.59 -3 M2254.78 916.53 C1893.38 602.37, 1531.97 288.2, 1197.43 -2.61 M2254.78 916.53 C1980.87 678.42, 1706.96 440.32, 1197.43 -2.61 M2254.71 895.27 C1868.9 559.89, 1483.09 224.51, 1221.51 -2.88 M2254.71 895.27 C1938.7 620.56, 1622.69 345.86, 1221.51 -2.88 M2254.64 874.01 C1882.97 550.92, 1511.3 227.83, 1246.35 -2.49 M2254.64 874.01 C1933.53 594.87, 1612.43 315.74, 1246.35 -2.49 M2254.57 852.75 C2005.27 636.03, 1755.97 419.32, 1270.43 -2.75 M2254.57 852.75 C1948.93 587.06, 1643.29 321.37, 1270.43 -2.75 M2255.26 832.14 C1883.25 508.76, 1511.25 185.38, 1295.27 -2.36 M2255.26 832.14 C1993.46 604.57, 1731.66 376.99, 1295.27 -2.36 M2255.19 810.88 C2004.02 592.55, 1752.86 374.22, 1319.35 -2.63 M2255.19 810.88 C2050.08 632.58, 1844.97 454.28, 1319.35 -2.63 M2255.12 789.62 C1951.1 525.34, 1647.08 261.06, 1343.43 -2.9 M2255.12 789.62 C1949.85 524.25, 1644.58 258.89, 1343.43 -2.9 M2255.05 768.36 C2021.16 565.05, 1787.27 361.73, 1368.27 -2.51 M2255.05 768.36 C2058.11 597.17, 1861.17 425.97, 1368.27 -2.51 M2254.98 747.1 C1921.32 457.06, 1587.67 167.01, 1392.35 -2.77 M2254.98 747.1 C2041.38 561.42, 1827.78 375.74, 1392.35 -2.77 M2254.91 725.84 C1936.69 449.21, 1618.46 172.58, 1417.19 -2.38 M2254.91 725.84 C1928.71 442.28, 1602.51 158.72, 1417.19 -2.38 M2254.84 704.58 C2032.67 511.45, 1810.49 318.31, 1441.27 -2.65 M2254.84 704.58 C1942.87 433.39, 1630.89 162.19, 1441.27 -2.65 M2254.78 683.32 C1976.5 441.42, 1698.22 199.51, 1465.35 -2.92 M2254.78 683.32 C1962 428.82, 1669.23 174.31, 1465.35 -2.92 M2254.71 662.06 C1976.97 420.63, 1699.24 179.2, 1490.19 -2.53 M2254.71 662.06 C2067.77 499.56, 1880.84 337.07, 1490.19 -2.53 M2254.64 640.8 C2097.13 503.88, 1939.62 366.96, 1514.27 -2.79 M2254.64 640.8 C2035.49 450.3, 1816.34 259.8, 1514.27 -2.79 M2254.57 619.54 C1987.27 387.18, 1719.97 154.83, 1539.1 -2.4 M2254.57 619.54 C1995.16 394.05, 1735.76 168.55, 1539.1 -2.4 M2255.25 598.94 C1987.44 366.13, 1719.63 133.32, 1563.19 -2.67 M2255.25 598.94 C2065.68 434.14, 1876.11 269.35, 1563.19 -2.67 M2255.18 577.68 C2077.79 423.47, 1900.39 269.26, 1587.27 -2.94 M2255.18 577.68 C1988.6 345.94, 1722.01 114.19, 1587.27 -2.94 M2255.12 556.42 C1999.9 334.56, 1744.69 112.71, 1612.1 -2.55 M2255.12 556.42 C2066.4 392.37, 1877.68 228.31, 1612.1 -2.55 M2255.05 535.16 C2040.83 348.94, 1826.62 162.73, 1636.19 -2.81 M2255.05 535.16 C2103.18 403.14, 1951.31 271.12, 1636.19 -2.81 M2254.98 513.9 C2041.43 328.26, 1827.88 142.62, 1661.02 -2.42 M2254.98 513.9 C2062.99 347.01, 1871 180.11, 1661.02 -2.42 M2254.91 492.64 C2045.57 310.66, 1836.22 128.68, 1685.1 -2.69 M2254.91 492.64 C2071.3 333.03, 1887.69 173.42, 1685.1 -2.69 M2254.84 471.38 C2098.12 335.14, 1941.4 198.91, 1709.18 -2.95 M2254.84 471.38 C2139.51 371.12, 2024.17 270.86, 1709.18 -2.95 M2254.77 450.12 C2136.64 347.43, 2018.51 244.74, 1734.02 -2.56 M2254.77 450.12 C2108.86 323.27, 1962.94 196.43, 1734.02 -2.56 M2254.7 428.86 C2062.23 261.54, 1869.76 94.23, 1758.1 -2.83 M2254.7 428.86 C2063.12 262.31, 1871.53 95.77, 1758.1 -2.83 M2254.63 407.6 C2128.55 298, 2002.47 188.4, 1782.94 -2.44 M2254.63 407.6 C2113.34 284.77, 1972.04 161.94, 1782.94 -2.44 M2254.56 386.34 C2091.85 244.89, 1929.13 103.44, 1807.02 -2.71 M2254.56 386.34 C2096.09 248.57, 1937.61 110.81, 1807.02 -2.71 M2255.25 365.73 C2095.41 226.79, 1935.58 87.84, 1831.1 -2.97 M2255.25 365.73 C2089.74 221.86, 1924.23 77.98, 1831.1 -2.97 M2255.18 344.47 C2130.03 235.68, 2004.88 126.88, 1855.94 -2.58 M2255.18 344.47 C2173.9 273.81, 2092.61 203.15, 1855.94 -2.58 M2255.11 323.21 C2146.74 229, 2038.37 134.8, 1880.02 -2.85 M2255.11 323.21 C2145.65 228.06, 2036.19 132.91, 1880.02 -2.85 M2255.04 301.95 C2174.2 231.68, 2093.36 161.4, 1904.86 -2.46 M2255.04 301.95 C2149.56 210.26, 2044.08 118.56, 1904.86 -2.46 M2254.97 280.69 C2162.94 200.69, 2070.91 120.69, 1928.94 -2.73 M2254.97 280.69 C2133.14 174.78, 2011.31 68.87, 1928.94 -2.73 M2254.9 259.43 C2162.95 179.49, 2070.99 99.55, 1953.02 -2.99 M2254.9 259.43 C2136.07 156.13, 2017.24 52.84, 1953.02 -2.99 M2254.84 238.17 C2177.02 170.53, 2099.21 102.89, 1977.86 -2.6 M2254.84 238.17 C2162.1 157.56, 2069.37 76.95, 1977.86 -2.6 M2254.77 216.91 C2199.41 168.79, 2144.05 120.67, 2001.94 -2.87 M2254.77 216.91 C2177.1 149.4, 2099.44 81.89, 2001.94 -2.87 M2254.7 195.65 C2173.95 125.46, 2093.21 55.27, 2026.78 -2.48 M2254.7 195.65 C2185.44 135.45, 2116.19 75.25, 2026.78 -2.48 M2254.63 174.39 C2203 129.51, 2151.37 84.62, 2050.86 -2.75 M2254.63 174.39 C2204.12 130.48, 2153.6 86.57, 2050.86 -2.75 M2255.31 153.79 C2216.35 119.91, 2177.38 86.04, 2075.69 -2.36 M2255.31 153.79 C2194.38 100.82, 2133.45 47.85, 2075.69 -2.36 M2255.25 132.53 C2195.74 80.8, 2136.24 29.07, 2099.78 -2.62 M2255.25 132.53 C2208.37 91.78, 2161.5 51.04, 2099.78 -2.62 M2255.18 111.27 C2211.98 73.72, 2168.78 36.17, 2123.86 -2.89 M2255.18 111.27 C2211.98 73.71, 2168.78 36.16, 2123.86 -2.89 M2255.11 90.01 C2214.97 55.12, 2174.84 20.23, 2148.69 -2.5 M2255.11 90.01 C2219.63 59.17, 2184.16 28.33, 2148.69 -2.5 M2255.04 68.74 C2222.5 40.46, 2189.96 12.17, 2172.78 -2.77 M2255.04 68.74 C2231.12 47.95, 2207.19 27.15, 2172.78 -2.77 M2254.97 47.48 C2237.64 32.42, 2220.32 17.36, 2197.61 -2.38 M2254.97 47.48 C2238.41 33.09, 2221.86 18.7, 2197.61 -2.38 M2254.9 26.22 C2246.02 18.5, 2237.14 10.78, 2221.69 -2.64 M2254.9 26.22 C2245.86 18.37, 2236.82 10.51, 2221.69 -2.64" stroke="#f8f9fa" stroke-width="2" fill="none"></path><path d="M0 0 C709.1 0, 1418.21 0, 2245 0 M0 0 C661.96 0, 1323.93 0, 2245 0 M2245 0 C2245 390.48, 2245 780.97, 2245 1182.5 M2245 0 C2245 450.54, 2245 901.07, 2245 1182.5 M2245 1182.5 C1608.9 1182.5, 972.8 1182.5, 0 1182.5 M2245 1182.5 C1353.22 1182.5, 461.45 1182.5, 0 1182.5 M0 1182.5 C0 927.11, 0 671.72, 0 0 M0 1182.5 C0 762.85, 0 343.2, 0 0" stroke="#1e1e1e" stroke-width="4" fill="none"></path></g><g transform="translate(279.9499998092638 104.50000000000091) rotate(0 10.550000190734863 21.59999999999991)"><text x="10.550000190734863" y="0" font-family="Cascadia, Segoe UI Emoji" font-size="36px" fill="#1e1e1e" text-anchor="middle" style="white-space: pre;" direction="ltr" dominant-baseline="text-before-edge">1</text></g><g transform="translate(542.6166664759303 113.8333333333344) rotate(0 10.550000190734863 21.59999999999991)"><text x="10.550000190734863" y="0" font-family="Cascadia, Segoe UI Emoji" font-size="36px" fill="#1e1e1e" text-anchor="middle" style="white-space: pre;" direction="ltr" dominant-baseline="text-before-edge">2</text></g><g transform="translate(819.7833331425973 119.33333333333394) rotate(0 10.550000190734863 21.59999999999991)"><text x="10.550000190734863" y="0" font-family="Cascadia, Segoe UI Emoji" font-size="36px" fill="#1e1e1e" text-anchor="middle" style="white-space: pre;" direction="ltr" dominant-baseline="text-before-edge">3</text></g><g transform="translate(1086.4499998092638 109.33333333333394) rotate(0 10.550000190734863 21.59999999999991)"><text x="10.550000190734863" y="0" font-family="Cascadia, Segoe UI Emoji" font-size="36px" fill="#1e1e1e" text-anchor="middle" style="white-space: pre;" direction="ltr" dominant-baseline="text-before-edge">4</text></g><g transform="translate(1360.783333142597 117.16666666666788) rotate(0 10.550000190734863 21.59999999999991)"><text x="10.550000190734863" y="0" font-family="Cascadia, Segoe UI Emoji" font-size="36px" fill="#1e1e1e" text-anchor="middle" style="white-space: pre;" direction="ltr" dominant-baseline="text-before-edge">5</text></g><g transform="translate(1620.4499998092638 124.3333333333344) rotate(0 10.550000190734863 21.59999999999991)"><text x="10.550000190734863" y="0" font-family="Cascadia, Segoe UI Emoji" font-size="36px" fill="#1e1e1e" text-anchor="middle" style="white-space: pre;" direction="ltr" dominant-baseline="text-before-edge">6</text></g><g stroke-linecap="round" transform="translate(153.49999999999864 184.00000000000045) rotate(0 134 117)"><path d="M7.86 8.16 C7.86 8.16, 7.86 8.16, 7.86 8.16 M7.86 8.16 C7.86 8.16, 7.86 8.16, 7.86 8.16 M8.78 31.49 C15.89 23.32, 22.99 15.15, 34.37 2.05 M8.78 31.49 C19.02 19.72, 29.25 7.95, 34.37 2.05 M8.39 56.32 C26.43 35.58, 44.46 14.83, 55.63 1.98 M8.39 56.32 C19.02 44.09, 29.65 31.87, 55.63 1.98 M8.66 80.4 C27.45 58.79, 46.24 37.17, 76.89 1.91 M8.66 80.4 C24.05 62.7, 39.44 45, 76.89 1.91 M8.27 105.24 C33.68 76.01, 59.08 46.79, 98.15 1.85 M8.27 105.24 C39.91 68.84, 71.55 32.45, 98.15 1.85 M8.54 129.32 C52.3 78.98, 96.05 28.65, 119.41 1.78 M8.54 129.32 C52.08 79.23, 95.63 29.13, 119.41 1.78 M8.15 154.16 C59.17 95.46, 110.19 36.77, 140.67 1.71 M8.15 154.16 C35.76 122.4, 63.36 90.64, 140.67 1.71 M8.41 178.24 C42.87 138.6, 77.33 98.96, 161.28 2.39 M8.41 178.24 C49.04 131.5, 89.67 84.76, 161.28 2.39 M1.46 210.62 C37.93 168.67, 74.4 126.71, 182.54 2.32 M1.46 210.62 C50.93 153.72, 100.39 96.83, 182.54 2.32 M8.95 226.4 C72.84 152.9, 136.73 79.4, 203.8 2.26 M8.95 226.4 C70.07 156.09, 131.2 85.77, 203.8 2.26 M22.33 235.39 C76.02 173.63, 129.7 111.88, 225.06 2.19 M22.33 235.39 C79.17 170.01, 136.01 104.62, 225.06 2.19 M39 240.61 C107.76 161.51, 176.52 82.41, 245.66 2.87 M39 240.61 C82.44 190.64, 125.87 140.67, 245.66 2.87 M60.26 240.54 C106.28 187.6, 152.29 134.67, 261.67 8.84 M60.26 240.54 C124.41 166.74, 188.57 92.94, 261.67 8.84 M81.52 240.47 C126.54 188.68, 171.56 136.89, 268.5 25.38 M81.52 240.47 C143.9 168.71, 206.28 96.96, 268.5 25.38 M102.78 240.4 C166.64 166.94, 230.5 93.48, 277.29 39.65 M102.78 240.4 C160.51 173.99, 218.25 107.57, 277.29 39.65 M124.04 240.33 C173.46 183.48, 222.88 126.63, 276.9 64.48 M124.04 240.33 C164.87 193.36, 205.69 146.4, 276.9 64.48 M145.3 240.26 C181.04 199.14, 216.79 158.03, 277.17 88.56 M145.3 240.26 C173.68 207.61, 202.06 174.97, 277.17 88.56 M166.56 240.19 C191 212.07, 215.45 183.96, 276.78 113.4 M166.56 240.19 C199.45 202.36, 232.33 164.53, 276.78 113.4 M187.82 240.12 C219.77 203.37, 251.71 166.63, 277.05 137.48 M187.82 240.12 C216.76 206.83, 245.7 173.55, 277.05 137.48 M209.08 240.05 C226.01 220.58, 242.93 201.11, 277.31 161.56 M209.08 240.05 C230.91 214.94, 252.74 189.83, 277.31 161.56 M230.34 239.98 C247.18 220.62, 264.01 201.26, 276.92 186.4 M230.34 239.98 C247.36 220.4, 264.39 200.82, 276.92 186.4" stroke="#a5d8ff" stroke-width="2" fill="none"></path><path d="M32 0 M32 0 C90 0, 148.01 0, 236 0 M32 0 C99.09 0, 166.18 0, 236 0 M236 0 C257.33 0, 268 10.67, 268 32 M236 0 C257.33 0, 268 10.67, 268 32 M268 32 C268 94.78, 268 157.55, 268 202 M268 32 C268 89.77, 268 147.54, 268 202 M268 202 C268 223.33, 257.33 234, 236 234 M268 202 C268 223.33, 257.33 234, 236 234 M236 234 C170.1 234, 104.2 234, 32 234 M236 234 C168.61 234, 101.21 234, 32 234 M32 234 C10.67 234, 0 223.33, 0 202 M32 234 C10.67 234, 0 223.33, 0 202 M0 202 C0 159.98, 0 117.96, 0 32 M0 202 C0 162.56, 0 123.12, 0 32 M0 32 C0 10.67, 10.67 0, 32 0 M0 32 C0 10.67, 10.67 0, 32 0" stroke="#1e1e1e" stroke-width="4" fill="none"></path></g><g transform="translate(203.09999847411973 279.40000000000055) rotate(0 84.4000015258789 21.59999999999991)"><text x="84.4000015258789" y="0" font-family="Cascadia, Segoe UI Emoji" font-size="36px" fill="#1e1e1e" text-anchor="middle" style="white-space: pre;" direction="ltr" dominant-baseline="text-before-edge">T object</text></g><g stroke-linecap="round" transform="translate(135.33333333333212 710.0000000000005) rotate(0 1008.6666666666666 117)"><path d="M7.86 8.16 C7.86 8.16, 7.86 8.16, 7.86 8.16 M7.86 8.16 C7.86 8.16, 7.86 8.16, 7.86 8.16 M4.85 36.01 C14.27 25.18, 23.69 14.34, 34.37 2.05 M4.85 36.01 C12.58 27.12, 20.31 18.23, 34.37 2.05 M5.11 60.1 C22.61 39.97, 40.11 19.84, 55.63 1.98 M5.11 60.1 C23.75 38.66, 42.38 17.23, 55.63 1.98 M4.72 84.93 C28.12 58.02, 51.51 31.12, 76.89 1.91 M4.72 84.93 C21.13 66.06, 37.54 47.19, 76.89 1.91 M4.99 109.01 C31.25 78.81, 57.51 48.6, 98.15 1.85 M4.99 109.01 C28.12 82.41, 51.25 55.8, 98.15 1.85 M5.26 133.1 C43.46 89.14, 81.67 45.19, 119.41 1.78 M5.26 133.1 C46.53 85.61, 87.81 38.13, 119.41 1.78 M4.87 157.93 C59.05 95.6, 113.23 33.27, 140.67 1.71 M4.87 157.93 C38.91 118.77, 72.96 79.6, 140.67 1.71 M5.13 182.01 C37.61 144.66, 70.08 107.3, 161.28 2.39 M5.13 182.01 C49.91 130.51, 94.68 79, 161.28 2.39 M1.46 210.62 C42.65 163.24, 83.84 115.86, 182.54 2.32 M1.46 210.62 C67.22 134.98, 132.97 59.35, 182.54 2.32 M8.95 226.4 C61.83 165.56, 114.72 104.72, 203.8 2.26 M8.95 226.4 C53.7 174.92, 98.46 123.44, 203.8 2.26 M22.33 235.39 C66.43 184.67, 110.52 133.94, 225.06 2.19 M22.33 235.39 C88.67 159.08, 155.01 82.76, 225.06 2.19 M36.38 243.62 C83.16 189.81, 129.94 136, 246.32 2.12 M36.38 243.62 C103.96 165.88, 171.53 88.14, 246.32 2.12 M57.64 243.56 C107.92 185.72, 158.19 127.88, 267.58 2.05 M57.64 243.56 C128.89 161.59, 200.15 79.62, 267.58 2.05 M78.9 243.49 C127.24 187.88, 175.58 132.27, 288.84 1.98 M78.9 243.49 C141.79 171.13, 204.69 98.78, 288.84 1.98 M100.16 243.42 C159.82 174.79, 219.48 106.16, 310.1 1.91 M100.16 243.42 C173.77 158.73, 247.39 74.04, 310.1 1.91 M120.76 244.1 C169.65 187.86, 218.54 131.62, 331.36 1.84 M120.76 244.1 C163.65 194.77, 206.54 145.43, 331.36 1.84 M142.02 244.03 C218.39 156.18, 294.76 68.33, 352.62 1.77 M142.02 244.03 C219.26 155.19, 296.49 66.34, 352.62 1.77 M163.28 243.97 C213.08 186.68, 262.88 129.4, 373.22 2.46 M163.28 243.97 C221.99 176.42, 280.71 108.88, 373.22 2.46 M184.54 243.9 C227.83 194.09, 271.13 144.29, 394.48 2.39 M184.54 243.9 C257.62 159.83, 330.69 75.77, 394.48 2.39 M205.8 243.83 C252.92 189.63, 300.04 135.42, 415.74 2.32 M205.8 243.83 C264.15 176.71, 322.49 109.59, 415.74 2.32 M227.06 243.76 C304.03 155.22, 381 66.68, 437 2.25 M227.06 243.76 C292.1 168.95, 357.13 94.13, 437 2.25 M248.32 243.69 C299.38 184.96, 350.43 126.22, 458.26 2.18 M248.32 243.69 C322.5 158.36, 396.68 73.03, 458.26 2.18 M269.58 243.62 C335.89 167.34, 402.2 91.06, 479.52 2.11 M269.58 243.62 C316.11 190.09, 362.64 136.56, 479.52 2.11 M290.84 243.55 C356.58 167.93, 422.32 92.3, 500.78 2.04 M290.84 243.55 C367.59 155.26, 444.34 66.97, 500.78 2.04 M312.1 243.48 C384.78 159.87, 457.46 76.27, 522.04 1.98 M312.1 243.48 C376.8 169.06, 441.49 94.64, 522.04 1.98 M332.71 244.17 C400.99 165.62, 469.27 87.07, 543.3 1.91 M332.71 244.17 C412.52 152.36, 492.33 60.55, 543.3 1.91 M353.97 244.1 C410.89 178.62, 467.81 113.14, 564.56 1.84 M353.97 244.1 C427.36 159.67, 500.76 75.24, 564.56 1.84 M375.23 244.03 C445.93 162.7, 516.63 81.37, 585.17 2.52 M375.23 244.03 C451.34 156.47, 527.45 68.91, 585.17 2.52 M396.49 243.96 C463.89 166.42, 531.3 88.88, 606.43 2.45 M396.49 243.96 C475.54 153.02, 554.59 62.08, 606.43 2.45 M417.75 243.89 C476.8 175.96, 535.86 108.02, 627.69 2.38 M417.75 243.89 C478.63 173.85, 539.51 103.82, 627.69 2.38 M439.01 243.82 C491.87 183.02, 544.73 122.21, 648.95 2.32 M439.01 243.82 C518.96 151.85, 598.91 59.88, 648.95 2.32 M460.27 243.75 C514.59 181.26, 568.92 118.77, 670.21 2.25 M460.27 243.75 C510.6 185.86, 560.92 127.96, 670.21 2.25 M481.53 243.68 C531.07 186.69, 580.61 129.7, 691.47 2.18 M481.53 243.68 C524.48 194.28, 567.43 144.87, 691.47 2.18 M502.79 243.62 C553.25 185.57, 603.71 127.52, 712.73 2.11 M502.79 243.62 C564.68 172.42, 626.57 101.22, 712.73 2.11 M524.05 243.55 C601.21 154.78, 678.38 66.01, 733.99 2.04 M524.05 243.55 C575.64 184.2, 627.23 124.85, 733.99 2.04 M544.65 244.23 C622.07 155.17, 699.49 66.11, 755.25 1.97 M544.65 244.23 C595.83 185.36, 647.01 126.49, 755.25 1.97 M565.91 244.16 C641.87 156.79, 717.82 69.41, 776.51 1.9 M565.91 244.16 C641.08 157.7, 716.24 71.23, 776.51 1.9 M587.17 244.09 C640.16 183.14, 693.15 122.18, 797.11 2.59 M587.17 244.09 C645.28 177.25, 703.39 110.4, 797.11 2.59 M608.43 244.03 C660.88 183.69, 713.33 123.36, 818.37 2.52 M608.43 244.03 C680.95 160.61, 753.46 77.19, 818.37 2.52 M629.69 243.96 C687.81 177.1, 745.93 110.25, 839.63 2.45 M629.69 243.96 C691.27 173.12, 752.84 102.29, 839.63 2.45 M650.95 243.89 C711.8 173.89, 772.65 103.9, 860.89 2.38 M650.95 243.89 C708.31 177.91, 765.66 111.93, 860.89 2.38 M672.21 243.82 C733.81 172.97, 795.4 102.11, 882.15 2.31 M672.21 243.82 C755 148.58, 837.79 53.34, 882.15 2.31 M693.47 243.75 C747.18 181.97, 800.88 120.19, 903.41 2.24 M693.47 243.75 C768.41 157.54, 843.35 71.34, 903.41 2.24 M714.73 243.68 C782.93 165.23, 851.13 86.78, 924.67 2.17 M714.73 243.68 C795.87 150.34, 877.01 57.01, 924.67 2.17 M735.99 243.61 C808.05 160.73, 880.1 77.84, 945.93 2.1 M735.99 243.61 C792.27 178.87, 848.55 114.14, 945.93 2.1 M756.6 244.3 C812.26 180.27, 867.92 116.24, 967.19 2.04 M756.6 244.3 C815.75 176.25, 874.9 108.2, 967.19 2.04 M777.86 244.23 C834.25 179.36, 890.63 114.5, 988.45 1.97 M777.86 244.23 C826.83 187.89, 875.81 131.55, 988.45 1.97 M799.12 244.16 C877.88 153.56, 956.63 62.96, 1009.06 2.65 M799.12 244.16 C881.72 149.14, 964.32 54.11, 1009.06 2.65 M820.38 244.09 C897.12 155.81, 973.85 67.54, 1030.32 2.58 M820.38 244.09 C889.9 164.11, 959.43 84.13, 1030.32 2.58 M841.64 244.02 C923.75 149.57, 1005.86 55.11, 1051.58 2.51 M841.64 244.02 C893.03 184.9, 944.42 125.79, 1051.58 2.51 M862.9 243.95 C924.39 173.22, 985.87 102.49, 1072.84 2.45 M862.9 243.95 C946.74 147.51, 1030.57 51.07, 1072.84 2.45 M884.16 243.88 C929.55 191.67, 974.94 139.45, 1094.1 2.38 M884.16 243.88 C938.77 181.06, 993.39 118.23, 1094.1 2.38 M905.42 243.81 C973.97 164.96, 1042.51 86.11, 1115.36 2.31 M905.42 243.81 C974.11 164.8, 1042.79 85.79, 1115.36 2.31 M926.68 243.75 C973.88 189.45, 1021.07 135.16, 1136.62 2.24 M926.68 243.75 C983.25 178.67, 1039.82 113.59, 1136.62 2.24 M947.94 243.68 C1003.24 180.06, 1058.54 116.45, 1157.88 2.17 M947.94 243.68 C1023.41 156.86, 1098.87 70.05, 1157.88 2.17 M969.2 243.61 C1045.1 156.3, 1121 68.98, 1179.14 2.1 M969.2 243.61 C1012.74 193.52, 1056.29 143.42, 1179.14 2.1 M989.8 244.29 C1057.38 166.55, 1124.96 88.82, 1200.4 2.03 M989.8 244.29 C1073.14 148.43, 1156.47 52.56, 1200.4 2.03 M1011.07 244.22 C1061.73 185.94, 1112.4 127.65, 1221 2.72 M1011.07 244.22 C1055.85 192.71, 1100.63 141.19, 1221 2.72 M1032.33 244.16 C1081.99 187.02, 1131.66 129.89, 1242.26 2.65 M1032.33 244.16 C1093.22 174.1, 1154.12 104.04, 1242.26 2.65 M1053.59 244.09 C1105.98 183.82, 1158.37 123.54, 1263.52 2.58 M1053.59 244.09 C1123.11 164.1, 1192.64 84.12, 1263.52 2.58 M1074.85 244.02 C1152.18 155.05, 1229.52 66.08, 1284.78 2.51 M1074.85 244.02 C1148.63 159.14, 1222.41 74.27, 1284.78 2.51 M1096.11 243.95 C1146.86 185.57, 1197.61 127.18, 1306.04 2.44 M1096.11 243.95 C1140.14 193.3, 1184.17 142.65, 1306.04 2.44 M1117.37 243.88 C1200.21 148.58, 1283.05 53.29, 1327.3 2.37 M1117.37 243.88 C1168.45 185.11, 1219.54 126.35, 1327.3 2.37 M1138.63 243.81 C1189.81 184.93, 1240.99 126.05, 1348.57 2.3 M1138.63 243.81 C1181.11 194.94, 1223.59 146.08, 1348.57 2.3 M1159.89 243.74 C1204.76 192.12, 1249.63 140.5, 1369.83 2.23 M1159.89 243.74 C1219.51 175.15, 1279.13 106.56, 1369.83 2.23 M1181.15 243.67 C1255.03 158.68, 1328.92 73.68, 1391.09 2.17 M1181.15 243.67 C1237.22 179.16, 1293.3 114.66, 1391.09 2.17 M1201.75 244.36 C1253.28 185.08, 1304.81 125.8, 1412.35 2.1 M1201.75 244.36 C1274.69 160.45, 1347.64 76.53, 1412.35 2.1 M1223.01 244.29 C1271.86 188.09, 1320.72 131.89, 1432.95 2.78 M1223.01 244.29 C1279.02 179.86, 1335.03 115.42, 1432.95 2.78 M1244.27 244.22 C1312.85 165.33, 1381.43 86.44, 1454.21 2.71 M1244.27 244.22 C1319.44 157.75, 1394.61 71.28, 1454.21 2.71 M1265.53 244.15 C1312.33 190.31, 1359.13 136.48, 1475.47 2.64 M1265.53 244.15 C1321.97 179.22, 1378.42 114.29, 1475.47 2.64 M1286.79 244.08 C1332.79 191.17, 1378.79 138.25, 1496.73 2.58 M1286.79 244.08 C1329.06 195.46, 1371.33 146.83, 1496.73 2.58 M1308.05 244.01 C1356.29 188.53, 1404.52 133.04, 1517.99 2.51 M1308.05 244.01 C1359.58 184.74, 1411.1 125.46, 1517.99 2.51 M1329.31 243.94 C1392.69 171.04, 1456.06 98.13, 1539.25 2.44 M1329.31 243.94 C1374.08 192.45, 1418.84 140.95, 1539.25 2.44 M1350.57 243.88 C1399 188.17, 1447.42 132.46, 1560.51 2.37 M1350.57 243.88 C1428.96 153.71, 1507.34 63.53, 1560.51 2.37 M1371.83 243.81 C1429.58 177.38, 1487.33 110.94, 1581.77 2.3 M1371.83 243.81 C1431.75 174.88, 1491.66 105.96, 1581.77 2.3 M1393.09 243.74 C1471.49 153.55, 1549.89 63.36, 1603.03 2.23 M1393.09 243.74 C1463.25 163.03, 1533.4 82.33, 1603.03 2.23 M1413.7 244.42 C1468.27 181.65, 1522.84 118.87, 1624.29 2.16 M1413.7 244.42 C1490.39 156.19, 1567.09 67.96, 1624.29 2.16 M1434.96 244.35 C1493.11 177.45, 1551.27 110.55, 1645.55 2.09 M1434.96 244.35 C1480.03 192.5, 1525.11 140.65, 1645.55 2.09 M1456.22 244.28 C1518.1 173.09, 1579.99 101.9, 1666.16 2.78 M1456.22 244.28 C1529.84 159.59, 1603.46 74.9, 1666.16 2.78 M1477.48 244.22 C1546.17 165.19, 1614.87 86.17, 1687.42 2.71 M1477.48 244.22 C1520.28 194.98, 1563.08 145.74, 1687.42 2.71 M1498.74 244.15 C1549.78 185.43, 1600.82 126.71, 1708.68 2.64 M1498.74 244.15 C1540.85 195.71, 1582.96 147.26, 1708.68 2.64 M1520 244.08 C1600.9 151.01, 1681.8 57.95, 1729.94 2.57 M1520 244.08 C1582.83 171.8, 1645.65 99.53, 1729.94 2.57 M1541.26 244.01 C1601.2 175.06, 1661.13 106.11, 1751.2 2.5 M1541.26 244.01 C1588.35 189.83, 1635.45 135.65, 1751.2 2.5 M1562.52 243.94 C1621.21 176.42, 1679.91 108.9, 1772.46 2.43 M1562.52 243.94 C1604.61 195.52, 1646.69 147.11, 1772.46 2.43 M1583.78 243.87 C1630.72 189.87, 1677.66 135.87, 1793.72 2.36 M1583.78 243.87 C1665.03 150.4, 1746.29 56.92, 1793.72 2.36 M1605.04 243.8 C1669.96 169.12, 1734.88 94.43, 1814.98 2.29 M1605.04 243.8 C1649.64 192.49, 1694.24 141.18, 1814.98 2.29 M1625.64 244.49 C1705.55 152.57, 1785.45 60.64, 1836.24 2.23 M1625.64 244.49 C1669.56 193.97, 1713.47 143.45, 1836.24 2.23 M1646.9 244.42 C1719.35 161.08, 1791.79 77.74, 1857.5 2.16 M1646.9 244.42 C1719.53 160.87, 1792.15 77.33, 1857.5 2.16 M1668.16 244.35 C1730.16 173.03, 1792.15 101.72, 1878.1 2.84 M1668.16 244.35 C1723.43 180.77, 1778.69 117.2, 1878.1 2.84 M1689.42 244.28 C1757.4 166.08, 1825.38 87.88, 1899.36 2.77 M1689.42 244.28 C1733.93 193.08, 1778.44 141.88, 1899.36 2.77 M1710.68 244.21 C1759.77 187.75, 1808.85 131.28, 1920.62 2.7 M1710.68 244.21 C1769.55 176.5, 1828.41 108.78, 1920.62 2.7 M1731.94 244.14 C1807.3 157.45, 1882.66 70.77, 1941.88 2.64 M1731.94 244.14 C1801.84 163.74, 1871.73 83.34, 1941.88 2.64 M1753.2 244.07 C1811.55 176.96, 1869.89 109.84, 1963.14 2.57 M1753.2 244.07 C1804.39 185.19, 1855.57 126.31, 1963.14 2.57 M1774.46 244 C1822.75 188.45, 1871.04 132.9, 1984.4 2.5 M1774.46 244 C1823.02 188.14, 1871.58 132.28, 1984.4 2.5 M1795.72 243.94 C1843.58 188.88, 1891.44 133.82, 2003.04 5.45 M1795.72 243.94 C1856.27 174.28, 1916.83 104.62, 2003.04 5.45 M1816.98 243.87 C1874.22 178.03, 1931.45 112.19, 2015.77 15.19 M1816.98 243.87 C1883.69 167.13, 1950.39 90.4, 2015.77 15.19 M1837.59 244.55 C1896.5 176.78, 1955.41 109.01, 2023.91 30.22 M1837.59 244.55 C1878.28 197.74, 1918.97 150.93, 2023.91 30.22 M1858.85 244.48 C1917.12 177.45, 1975.38 110.42, 2023.52 55.05 M1858.85 244.48 C1904.75 191.68, 1950.66 138.87, 2023.52 55.05 M1880.11 244.41 C1920.02 198.5, 1959.93 152.59, 2023.79 79.13 M1880.11 244.41 C1933.37 183.14, 1986.64 121.86, 2023.79 79.13 M1901.37 244.35 C1928.14 213.55, 1954.9 182.76, 2023.4 103.97 M1901.37 244.35 C1950.02 188.38, 1998.67 132.41, 2023.4 103.97 M1922.63 244.28 C1950.9 211.75, 1979.18 179.22, 2023.66 128.05 M1922.63 244.28 C1958.16 203.4, 1993.69 162.53, 2023.66 128.05 M1943.89 244.21 C1971.6 212.32, 1999.32 180.44, 2023.93 152.13 M1943.89 244.21 C1962.92 222.31, 1981.95 200.42, 2023.93 152.13 M1965.15 244.14 C1977.23 230.24, 1989.31 216.35, 2023.54 176.97 M1965.15 244.14 C1983.75 222.74, 2002.34 201.35, 2023.54 176.97 M1994.28 235.01 C2005.11 222.56, 2015.94 210.1, 2023.8 201.05 M1994.28 235.01 C2001.46 226.75, 2008.64 218.5, 2023.8 201.05" stroke="#868e96" stroke-width="2" fill="none"></path><path d="M32 0 M32 0 C742.3 0, 1452.59 0, 1985.33 0 M32 0 C585.29 0, 1138.57 0, 1985.33 0 M1985.33 0 C2006.67 0, 2017.33 10.67, 2017.33 32 M1985.33 0 C2006.67 0, 2017.33 10.67, 2017.33 32 M2017.33 32 C2017.33 98.07, 2017.33 164.13, 2017.33 202 M2017.33 32 C2017.33 85.22, 2017.33 138.45, 2017.33 202 M2017.33 202 C2017.33 223.33, 2006.67 234, 1985.33 234 M2017.33 202 C2017.33 223.33, 2006.67 234, 1985.33 234 M1985.33 234 C1288.55 234, 591.77 234, 32 234 M1985.33 234 C1370.61 234, 755.89 234, 32 234 M32 234 C10.67 234, 0 223.33, 0 202 M32 234 C10.67 234, 0 223.33, 0 202 M0 202 C0 163.07, 0 124.15, 0 32 M0 202 C0 153.78, 0 105.56, 0 32 M0 32 C0 10.67, 10.67 0, 32 0 M0 32 C0 10.67, 10.67 0, 32 0" stroke="#1e1e1e" stroke-width="4" fill="none"></path></g><g transform="translate(171.37279093706456 1001.5666666666671) rotate(0 207.10000610351562 35.34999999999991)"><text x="207.10000610351562" y="0" font-family="Cascadia, Segoe UI Emoji" font-size="58.91666666666621px" fill="#1e1e1e" text-anchor="middle" style="white-space: pre;" direction="ltr" dominant-baseline="text-before-edge">t_buffer_new</text></g><g stroke-linecap="round" transform="translate(423.66666666666197 183.66666666666742) rotate(0 134 117)"><path d="M7.86 8.16 C7.86 8.16, 7.86 8.16, 7.86 8.16 M7.86 8.16 C7.86 8.16, 7.86 8.16, 7.86 8.16 M8.78 31.49 C16.68 22.41, 24.57 13.33, 34.37 2.05 M8.78 31.49 C14.03 25.46, 19.27 19.42, 34.37 2.05 M8.39 56.32 C21.97 40.7, 35.55 25.08, 55.63 1.98 M8.39 56.32 C20.4 42.51, 32.41 28.69, 55.63 1.98 M8.66 80.4 C25.77 60.73, 42.87 41.05, 76.89 1.91 M8.66 80.4 C29.85 56.03, 51.03 31.66, 76.89 1.91 M8.27 105.24 C43.93 64.22, 79.59 23.19, 98.15 1.85 M8.27 105.24 C41.95 66.5, 75.63 27.76, 98.15 1.85 M8.54 129.32 C44.16 88.35, 79.78 47.37, 119.41 1.78 M8.54 129.32 C44.11 88.4, 79.69 47.47, 119.41 1.78 M8.15 154.16 C54.72 100.58, 101.3 47, 140.67 1.71 M8.15 154.16 C36.22 121.86, 64.3 89.56, 140.67 1.71 M8.41 178.24 C66.58 111.33, 124.74 44.42, 161.28 2.39 M8.41 178.24 C56.56 122.86, 104.7 67.47, 161.28 2.39 M1.46 210.62 C38.01 168.58, 74.56 126.54, 182.54 2.32 M1.46 210.62 C40.83 165.34, 80.2 120.05, 182.54 2.32 M8.95 226.4 C75.89 149.4, 142.83 72.39, 203.8 2.26 M8.95 226.4 C56.13 172.13, 103.31 117.85, 203.8 2.26 M22.33 235.39 C63.45 188.09, 104.56 140.8, 225.06 2.19 M22.33 235.39 C95.99 150.66, 169.64 65.93, 225.06 2.19 M39 240.61 C96.91 173.99, 154.81 107.38, 245.66 2.87 M39 240.61 C84.89 187.81, 130.79 135.02, 245.66 2.87 M60.26 240.54 C123.52 167.77, 186.77 95, 261.67 8.84 M60.26 240.54 C108.99 184.48, 157.72 128.42, 261.67 8.84 M81.52 240.47 C140.41 172.73, 199.29 104.99, 268.5 25.38 M81.52 240.47 C127.28 187.83, 173.03 135.2, 268.5 25.38 M102.78 240.4 C155.12 180.19, 207.45 119.99, 277.29 39.65 M102.78 240.4 C166.63 166.95, 230.48 93.5, 277.29 39.65 M124.04 240.33 C174.02 182.84, 223.99 125.35, 276.9 64.48 M124.04 240.33 C165.37 192.79, 206.69 145.25, 276.9 64.48 M145.3 240.26 C175.55 205.47, 205.79 170.68, 277.17 88.56 M145.3 240.26 C180.65 199.6, 216 158.94, 277.17 88.56 M166.56 240.19 C194.12 208.48, 221.69 176.78, 276.78 113.4 M166.56 240.19 C202.89 198.41, 239.21 156.62, 276.78 113.4 M187.82 240.12 C221.38 201.52, 254.94 162.91, 277.05 137.48 M187.82 240.12 C205.82 219.42, 223.82 198.71, 277.05 137.48 M209.08 240.05 C234.52 210.79, 259.97 181.52, 277.31 161.56 M209.08 240.05 C224.32 222.53, 239.55 205.01, 277.31 161.56 M230.34 239.98 C245.18 222.91, 260.02 205.84, 276.92 186.4 M230.34 239.98 C241.54 227.1, 252.74 214.22, 276.92 186.4" stroke="#a5d8ff" stroke-width="2" fill="none"></path><path d="M32 0 M32 0 C80.67 0, 129.35 0, 236 0 M32 0 C77.42 0, 122.84 0, 236 0 M236 0 C257.33 0, 268 10.67, 268 32 M236 0 C257.33 0, 268 10.67, 268 32 M268 32 C268 78.27, 268 124.54, 268 202 M268 32 C268 78.91, 268 125.82, 268 202 M268 202 C268 223.33, 257.33 234, 236 234 M268 202 C268 223.33, 257.33 234, 236 234 M236 234 C172.58 234, 109.15 234, 32 234 M236 234 C167.08 234, 98.15 234, 32 234 M32 234 C10.67 234, 0 223.33, 0 202 M32 234 C10.67 234, 0 223.33, 0 202 M0 202 C0 143.38, 0 84.77, 0 32 M0 202 C0 149.94, 0 97.88, 0 32 M0 32 C0 10.67, 10.67 0, 32 0 M0 32 C0 10.67, 10.67 0, 32 0" stroke="#1e1e1e" stroke-width="4" fill="none"></path></g><g transform="translate(473.26666514078306 279.0666666666675) rotate(0 84.4000015258789 21.59999999999991)"><text x="84.4000015258789" y="0" font-family="Cascadia, Segoe UI Emoji" font-size="36px" fill="#1e1e1e" text-anchor="middle" style="white-space: pre;" direction="ltr" dominant-baseline="text-before-edge">T object</text></g><g stroke-linecap="round" transform="translate(693.5833333333312 183.83333333333348) rotate(0 134 117)"><path d="M7.86 8.16 C7.86 8.16, 7.86 8.16, 7.86 8.16 M7.86 8.16 C7.86 8.16, 7.86 8.16, 7.86 8.16 M8.78 31.49 C15.89 23.31, 23 15.13, 34.37 2.05 M8.78 31.49 C16.01 23.17, 23.24 14.85, 34.37 2.05 M8.39 56.32 C23.65 38.77, 38.91 21.22, 55.63 1.98 M8.39 56.32 C27.08 34.83, 45.77 13.33, 55.63 1.98 M8.66 80.4 C27.87 58.3, 47.08 36.21, 76.89 1.91 M8.66 80.4 C25.39 61.16, 42.12 41.92, 76.89 1.91 M8.27 105.24 C33.48 76.24, 58.7 47.23, 98.15 1.85 M8.27 105.24 C32.92 76.89, 57.56 48.53, 98.15 1.85 M8.54 129.32 C50.48 81.07, 92.43 32.82, 119.41 1.78 M8.54 129.32 C43.39 89.23, 78.24 49.14, 119.41 1.78 M8.15 154.16 C61.07 93.27, 114 32.39, 140.67 1.71 M8.15 154.16 C34.85 123.45, 61.54 92.73, 140.67 1.71 M8.41 178.24 C49.44 131.04, 90.47 83.85, 161.28 2.39 M8.41 178.24 C53 126.95, 97.59 75.66, 161.28 2.39 M1.46 210.62 C45.77 159.65, 90.08 108.68, 182.54 2.32 M1.46 210.62 C51.55 153, 101.64 95.38, 182.54 2.32 M8.95 226.4 C58.97 168.86, 109 111.31, 203.8 2.26 M8.95 226.4 C67.26 159.33, 125.57 92.25, 203.8 2.26 M22.33 235.39 C90.51 156.96, 158.69 78.54, 225.06 2.19 M22.33 235.39 C97.22 149.25, 172.1 63.1, 225.06 2.19 M39 240.61 C111.95 156.68, 184.91 72.76, 245.66 2.87 M39 240.61 C96.74 174.19, 154.47 107.77, 245.66 2.87 M60.26 240.54 C110.34 182.93, 160.42 125.32, 261.67 8.84 M60.26 240.54 C104.51 189.63, 148.76 138.73, 261.67 8.84 M81.52 240.47 C150.99 160.56, 220.45 80.64, 268.5 25.38 M81.52 240.47 C136.61 177.09, 191.71 113.71, 268.5 25.38 M102.78 240.4 C157.04 177.98, 211.29 115.57, 277.29 39.65 M102.78 240.4 C161.74 172.57, 220.7 104.75, 277.29 39.65 M124.04 240.33 C159.4 199.65, 194.76 158.98, 276.9 64.48 M124.04 240.33 C158.9 200.23, 193.75 160.14, 276.9 64.48 M145.3 240.26 C185.78 193.7, 226.25 147.14, 277.17 88.56 M145.3 240.26 C185.45 194.08, 225.59 147.9, 277.17 88.56 M166.56 240.19 C194.79 207.73, 223.01 175.26, 276.78 113.4 M166.56 240.19 C197.72 204.35, 228.88 168.5, 276.78 113.4 M187.82 240.12 C221.31 201.6, 254.8 163.08, 277.05 137.48 M187.82 240.12 C211.94 212.38, 236.06 184.63, 277.05 137.48 M209.08 240.05 C227.79 218.53, 246.5 197.01, 277.31 161.56 M209.08 240.05 C228.34 217.9, 247.61 195.74, 277.31 161.56 M230.34 239.98 C244.75 223.41, 259.15 206.84, 276.92 186.4 M230.34 239.98 C242.3 226.23, 254.26 212.47, 276.92 186.4" stroke="#a5d8ff" stroke-width="2" fill="none"></path><path d="M32 0 M32 0 C97.03 0, 162.05 0, 236 0 M32 0 C107.62 0, 183.23 0, 236 0 M236 0 C257.33 0, 268 10.67, 268 32 M236 0 C257.33 0, 268 10.67, 268 32 M268 32 C268 93.17, 268 154.33, 268 202 M268 32 C268 68.74, 268 105.47, 268 202 M268 202 C268 223.33, 257.33 234, 236 234 M268 202 C268 223.33, 257.33 234, 236 234 M236 234 C172.87 234, 109.75 234, 32 234 M236 234 C155.82 234, 75.64 234, 32 234 M32 234 C10.67 234, 0 223.33, 0 202 M32 234 C10.67 234, 0 223.33, 0 202 M0 202 C0 139.34, 0 76.68, 0 32 M0 202 C0 144.17, 0 86.35, 0 32 M0 32 C0 10.67, 10.67 0, 32 0 M0 32 C0 10.67, 10.67 0, 32 0" stroke="#1e1e1e" stroke-width="4" fill="none"></path></g><g transform="translate(743.1833318074523 279.2333333333336) rotate(0 84.4000015258789 21.59999999999991)"><text x="84.4000015258789" y="0" font-family="Cascadia, Segoe UI Emoji" font-size="36px" fill="#1e1e1e" text-anchor="middle" style="white-space: pre;" direction="ltr" dominant-baseline="text-before-edge">T object</text></g><g transform="translate(154.4916636149046 478.27330214261065) rotate(0 128.13333129882812 32.79668226202875)"><text x="128.13333129882812" y="0" font-family="Cascadia, Segoe UI Emoji" font-size="54.66113710338106px" fill="#1e1e1e" text-anchor="middle" style="white-space: pre;" direction="ltr" dominant-baseline="text-before-edge">t_buffer</text></g><g stroke-linecap="round" transform="translate(963.7499999999945 183.50000000000136) rotate(0 134 117)"><path d="M7.86 8.16 C7.86 8.16, 7.86 8.16, 7.86 8.16 M7.86 8.16 C7.86 8.16, 7.86 8.16, 7.86 8.16 M8.78 31.49 C14.08 25.4, 19.37 19.3, 34.37 2.05 M8.78 31.49 C16.2 22.95, 23.62 14.42, 34.37 2.05 M8.39 56.32 C20.29 42.64, 32.18 28.96, 55.63 1.98 M8.39 56.32 C25.75 36.35, 43.11 16.39, 55.63 1.98 M8.66 80.4 C26.93 59.38, 45.21 38.36, 76.89 1.91 M8.66 80.4 C33.22 52.15, 57.79 23.89, 76.89 1.91 M8.27 105.24 C40.17 68.54, 72.07 31.85, 98.15 1.85 M8.27 105.24 C37.21 71.95, 66.14 38.67, 98.15 1.85 M8.54 129.32 C33.55 100.55, 58.56 71.77, 119.41 1.78 M8.54 129.32 C43.48 89.13, 78.42 48.93, 119.41 1.78 M8.15 154.16 C39.91 117.62, 71.66 81.09, 140.67 1.71 M8.15 154.16 C37.92 119.91, 67.7 85.65, 140.67 1.71 M8.41 178.24 C60.13 118.74, 111.85 59.25, 161.28 2.39 M8.41 178.24 C50.35 130, 92.28 81.77, 161.28 2.39 M1.46 210.62 C51.96 152.53, 102.46 94.44, 182.54 2.32 M1.46 210.62 C45.33 160.17, 89.19 109.71, 182.54 2.32 M8.95 226.4 C80.81 143.74, 152.67 61.07, 203.8 2.26 M8.95 226.4 C82.34 141.98, 155.73 57.55, 203.8 2.26 M22.33 235.39 C83.2 165.37, 144.07 95.35, 225.06 2.19 M22.33 235.39 C65.2 186.08, 108.06 136.78, 225.06 2.19 M39 240.61 C97.79 172.98, 156.58 105.35, 245.66 2.87 M39 240.61 C97.22 173.64, 155.43 106.67, 245.66 2.87 M60.26 240.54 C117.88 174.26, 175.49 107.98, 261.67 8.84 M60.26 240.54 C128.63 161.89, 196.99 83.24, 261.67 8.84 M81.52 240.47 C148.36 163.58, 215.2 86.69, 268.5 25.38 M81.52 240.47 C131.86 182.56, 182.2 124.66, 268.5 25.38 M102.78 240.4 C150.47 185.54, 198.16 130.68, 277.29 39.65 M102.78 240.4 C155.78 179.43, 208.78 118.46, 277.29 39.65 M124.04 240.33 C164.49 193.8, 204.94 147.27, 276.9 64.48 M124.04 240.33 C175.92 180.65, 227.79 120.98, 276.9 64.48 M145.3 240.26 C178.74 201.8, 212.17 163.33, 277.17 88.56 M145.3 240.26 C191.72 186.86, 238.14 133.46, 277.17 88.56 M166.56 240.19 C209.27 191.07, 251.97 141.94, 276.78 113.4 M166.56 240.19 C201.01 200.56, 235.46 160.94, 276.78 113.4 M187.82 240.12 C212.21 212.07, 236.59 184.02, 277.05 137.48 M187.82 240.12 C205.89 219.34, 223.95 198.56, 277.05 137.48 M209.08 240.05 C230.38 215.55, 251.68 191.05, 277.31 161.56 M209.08 240.05 C231.57 214.19, 254.05 188.32, 277.31 161.56 M230.34 239.98 C245.88 222.11, 261.42 204.24, 276.92 186.4 M230.34 239.98 C246.34 221.58, 262.34 203.18, 276.92 186.4" stroke="#a5d8ff" stroke-width="2" fill="none"></path><path d="M32 0 M32 0 C99.25 0, 166.51 0, 236 0 M32 0 C103.68 0, 175.36 0, 236 0 M236 0 C257.33 0, 268 10.67, 268 32 M236 0 C257.33 0, 268 10.67, 268 32 M268 32 C268 90.83, 268 149.66, 268 202 M268 32 C268 80.65, 268 129.3, 268 202 M268 202 C268 223.33, 257.33 234, 236 234 M268 202 C268 223.33, 257.33 234, 236 234 M236 234 C192.61 234, 149.22 234, 32 234 M236 234 C176.18 234, 116.36 234, 32 234 M32 234 C10.67 234, 0 223.33, 0 202 M32 234 C10.67 234, 0 223.33, 0 202 M0 202 C0 141.27, 0 80.54, 0 32 M0 202 C0 149.94, 0 97.89, 0 32 M0 32 C0 10.67, 10.67 0, 32 0 M0 32 C0 10.67, 10.67 0, 32 0" stroke="#1e1e1e" stroke-width="4" fill="none"></path></g><g transform="translate(1013.3499984741156 278.90000000000146) rotate(0 84.4000015258789 21.59999999999991)"><text x="84.4000015258789" y="0" font-family="Cascadia, Segoe UI Emoji" font-size="36px" fill="#1e1e1e" text-anchor="middle" style="white-space: pre;" direction="ltr" dominant-baseline="text-before-edge">T object</text></g><g stroke-linecap="round" transform="translate(1233.5416666666642 183.91666666666742) rotate(0 134 117)"><path d="M7.86 8.16 C7.86 8.16, 7.86 8.16, 7.86 8.16 M7.86 8.16 C7.86 8.16, 7.86 8.16, 7.86 8.16 M8.78 31.49 C15.74 23.48, 22.7 15.48, 34.37 2.05 M8.78 31.49 C15.08 24.24, 21.37 17, 34.37 2.05 M8.39 56.32 C18.42 44.79, 28.45 33.25, 55.63 1.98 M8.39 56.32 C19.94 43.05, 31.48 29.77, 55.63 1.98 M8.66 80.4 C29.37 56.58, 50.08 32.76, 76.89 1.91 M8.66 80.4 C24.59 62.07, 40.53 43.74, 76.89 1.91 M8.27 105.24 C39.54 69.26, 70.82 33.29, 98.15 1.85 M8.27 105.24 C36.08 73.25, 63.9 41.25, 98.15 1.85 M8.54 129.32 C52.12 79.19, 95.7 29.06, 119.41 1.78 M8.54 129.32 C50.39 81.17, 92.24 33.03, 119.41 1.78 M8.15 154.16 C54.12 101.28, 100.09 48.39, 140.67 1.71 M8.15 154.16 C46.21 110.38, 84.27 66.6, 140.67 1.71 M8.41 178.24 C53.32 126.58, 98.23 74.92, 161.28 2.39 M8.41 178.24 C49.14 131.39, 89.87 84.54, 161.28 2.39 M1.46 210.62 C57.59 146.05, 113.72 81.48, 182.54 2.32 M1.46 210.62 C47.81 157.31, 94.16 103.99, 182.54 2.32 M8.95 226.4 C82.84 141.39, 156.74 56.38, 203.8 2.26 M8.95 226.4 C75.9 149.38, 142.85 72.36, 203.8 2.26 M22.33 235.39 C64.6 186.77, 106.86 138.15, 225.06 2.19 M22.33 235.39 C82.91 165.7, 143.49 96.02, 225.06 2.19 M39 240.61 C109.96 158.98, 180.91 77.36, 245.66 2.87 M39 240.61 C81.77 191.41, 124.53 142.21, 245.66 2.87 M60.26 240.54 C137.58 151.59, 214.9 62.64, 261.67 8.84 M60.26 240.54 C101.26 193.37, 142.26 146.2, 261.67 8.84 M81.52 240.47 C137.66 175.89, 193.79 111.32, 268.5 25.38 M81.52 240.47 C139.3 174, 197.08 107.53, 268.5 25.38 M102.78 240.4 C146.07 190.6, 189.36 140.8, 277.29 39.65 M102.78 240.4 C166.07 167.6, 229.35 94.79, 277.29 39.65 M124.04 240.33 C167.52 190.32, 210.99 140.31, 276.9 64.48 M124.04 240.33 C163.36 195.1, 202.67 149.88, 276.9 64.48 M145.3 240.26 C195.82 182.14, 246.35 124.02, 277.17 88.56 M145.3 240.26 C181.33 198.82, 217.35 157.38, 277.17 88.56 M166.56 240.19 C205.21 195.73, 243.86 151.27, 276.78 113.4 M166.56 240.19 C201.1 200.46, 235.65 160.72, 276.78 113.4 M187.82 240.12 C209.38 215.33, 230.93 190.53, 277.05 137.48 M187.82 240.12 C208.97 215.79, 230.12 191.46, 277.05 137.48 M209.08 240.05 C227.79 218.53, 246.5 197.01, 277.31 161.56 M209.08 240.05 C229.16 216.95, 249.25 193.85, 277.31 161.56 M230.34 239.98 C241.81 226.79, 253.28 213.6, 276.92 186.4 M230.34 239.98 C242.49 226.01, 254.63 212.04, 276.92 186.4" stroke="#a5d8ff" stroke-width="2" fill="none"></path><path d="M32 0 M32 0 C83.07 0, 134.14 0, 236 0 M32 0 C87.35 0, 142.71 0, 236 0 M236 0 C257.33 0, 268 10.67, 268 32 M236 0 C257.33 0, 268 10.67, 268 32 M268 32 C268 69.8, 268 107.6, 268 202 M268 32 C268 85.11, 268 138.22, 268 202 M268 202 C268 223.33, 257.33 234, 236 234 M268 202 C268 223.33, 257.33 234, 236 234 M236 234 C193.54 234, 151.09 234, 32 234 M236 234 C165.45 234, 94.91 234, 32 234 M32 234 C10.67 234, 0 223.33, 0 202 M32 234 C10.67 234, 0 223.33, 0 202 M0 202 C0 141.37, 0 80.75, 0 32 M0 202 C0 155.6, 0 109.2, 0 32 M0 32 C0 10.67, 10.67 0, 32 0 M0 32 C0 10.67, 10.67 0, 32 0" stroke="#1e1e1e" stroke-width="4" fill="none"></path></g><g transform="translate(1283.1416651407853 279.3166666666675) rotate(0 84.4000015258789 21.59999999999991)"><text x="84.4000015258789" y="0" font-family="Cascadia, Segoe UI Emoji" font-size="36px" fill="#1e1e1e" text-anchor="middle" style="white-space: pre;" direction="ltr" dominant-baseline="text-before-edge">T object</text></g><g stroke-linecap="round" transform="translate(1503.7083333333285 183.58333333333348) rotate(0 134 117)"><path d="M7.86 8.16 C7.86 8.16, 7.86 8.16, 7.86 8.16 M7.86 8.16 C7.86 8.16, 7.86 8.16, 7.86 8.16 M8.78 31.49 C17.23 21.77, 25.68 12.05, 34.37 2.05 M8.78 31.49 C16.54 22.57, 24.29 13.65, 34.37 2.05 M8.39 56.32 C21.5 41.24, 34.61 26.17, 55.63 1.98 M8.39 56.32 C19.22 43.87, 30.04 31.42, 55.63 1.98 M8.66 80.4 C27.46 58.78, 46.25 37.16, 76.89 1.91 M8.66 80.4 C23.1 63.8, 37.53 47.19, 76.89 1.91 M8.27 105.24 C37.54 71.57, 66.81 37.9, 98.15 1.85 M8.27 105.24 C27.39 83.25, 46.51 61.26, 98.15 1.85 M8.54 129.32 C41.05 91.92, 73.56 54.52, 119.41 1.78 M8.54 129.32 C40.23 92.86, 71.93 56.4, 119.41 1.78 M8.15 154.16 C50.92 104.96, 93.69 55.75, 140.67 1.71 M8.15 154.16 C49.18 106.96, 90.21 59.75, 140.67 1.71 M8.41 178.24 C62.5 116.02, 116.6 53.79, 161.28 2.39 M8.41 178.24 C42.39 139.16, 76.36 100.07, 161.28 2.39 M1.46 210.62 C62.45 140.47, 123.44 70.31, 182.54 2.32 M1.46 210.62 C65.94 136.45, 130.42 62.28, 182.54 2.32 M8.95 226.4 C76.78 148.37, 144.61 70.34, 203.8 2.26 M8.95 226.4 C61.91 165.48, 114.87 104.55, 203.8 2.26 M22.33 235.39 C64.14 187.29, 105.95 139.2, 225.06 2.19 M22.33 235.39 C81.73 167.07, 141.12 98.74, 225.06 2.19 M39 240.61 C119 148.58, 199 56.55, 245.66 2.87 M39 240.61 C109.32 159.71, 179.64 78.82, 245.66 2.87 M60.26 240.54 C108.56 184.98, 156.85 129.42, 261.67 8.84 M60.26 240.54 C113.82 178.93, 167.37 117.32, 261.67 8.84 M81.52 240.47 C138.02 175.48, 194.51 110.49, 268.5 25.38 M81.52 240.47 C135.38 178.51, 189.23 116.56, 268.5 25.38 M102.78 240.4 C158 176.87, 213.23 113.35, 277.29 39.65 M102.78 240.4 C159.52 175.13, 216.25 109.87, 277.29 39.65 M124.04 240.33 C176.77 179.67, 229.5 119.01, 276.9 64.48 M124.04 240.33 C159.24 199.84, 194.43 159.36, 276.9 64.48 M145.3 240.26 C196.15 181.77, 246.99 123.28, 277.17 88.56 M145.3 240.26 C188.23 190.88, 231.16 141.49, 277.17 88.56 M166.56 240.19 C198.25 203.74, 229.94 167.29, 276.78 113.4 M166.56 240.19 C192.65 210.19, 218.73 180.18, 276.78 113.4 M187.82 240.12 C220.55 202.47, 253.28 164.82, 277.05 137.48 M187.82 240.12 C208.07 216.83, 228.31 193.55, 277.05 137.48 M209.08 240.05 C231.06 214.77, 253.04 189.49, 277.31 161.56 M209.08 240.05 C224.9 221.86, 240.71 203.67, 277.31 161.56 M230.34 239.98 C242 226.58, 253.65 213.18, 276.92 186.4 M230.34 239.98 C248.67 218.9, 267 197.82, 276.92 186.4" stroke="#a5d8ff" stroke-width="2" fill="none"></path><path d="M32 0 M32 0 C105.73 0, 179.47 0, 236 0 M32 0 C92.14 0, 152.29 0, 236 0 M236 0 C257.33 0, 268 10.67, 268 32 M236 0 C257.33 0, 268 10.67, 268 32 M268 32 C268 68.39, 268 104.78, 268 202 M268 32 C268 67.35, 268 102.7, 268 202 M268 202 C268 223.33, 257.33 234, 236 234 M268 202 C268 223.33, 257.33 234, 236 234 M236 234 C187.14 234, 138.27 234, 32 234 M236 234 C157.24 234, 78.48 234, 32 234 M32 234 C10.67 234, 0 223.33, 0 202 M32 234 C10.67 234, 0 223.33, 0 202 M0 202 C0 164.7, 0 127.41, 0 32 M0 202 C0 163.55, 0 125.11, 0 32 M0 32 C0 10.67, 10.67 0, 32 0 M0 32 C0 10.67, 10.67 0, 32 0" stroke="#1e1e1e" stroke-width="4" fill="none"></path></g><g transform="translate(1553.3083318074496 278.9833333333336) rotate(0 84.4000015258789 21.59999999999991)"><text x="84.4000015258789" y="0" font-family="Cascadia, Segoe UI Emoji" font-size="36px" fill="#1e1e1e" text-anchor="middle" style="white-space: pre;" direction="ltr" dominant-baseline="text-before-edge">T object</text></g></svg>