<?xml version="1.0" encoding="UTF-8" standalone="no"?>
<!DOCTYPE svg PUBLIC "-//W3C//DTD SVG 1.1//EN" "http://www.w3.org/Graphics/SVG/1.1/DTD/svg11.dtd">
<svg xmlns="http://www.w3.org/2000/svg" version="1.1" viewBox="0.00 0.00 200.00 115.00">
<g stroke-width="2.00" fill="none" stroke-linecap="butt">
<path stroke="#c8a864" vector-effect="non-scaling-stroke" d="
  M 18.07 80.38
  C 15.76 84.15 14.12 87.54 12.18 91.51
  Q 12.13 91.62 12.25 91.66
  Q 12.39 91.72 12.55 91.75
  Q 12.98 91.81 13.18 91.43
  Q 16.15 85.93 21.83 83.34
  A 0.84 0.84 0.0 0 0 21.90 81.85
  L 18.92 80.16
  Q 18.39 79.86 18.07 80.38"
/>
<path stroke="#52557b" vector-effect="non-scaling-stroke" d="
  M 9.24 92.35
  L 8.74 90.76
  Q 8.51 90.00 7.91 90.52
  L 5.42 92.64
  A 0.64 0.63 -36.1 0 0 5.29 93.44
  Q 8.81 99.27 14.72 102.48
  Q 16.04 103.21 15.05 102.07
  Q 13.62 100.41 11.93 99.19"
/>
<path stroke="#a35b57" vector-effect="non-scaling-stroke" d="
  M 11.93 99.19
  Q 12.17 97.66 11.53 93.92
  Q 10.81 89.71 14.35 84.51
  A 0.46 0.45 17.9 0 0 13.98 83.80
  L 10.55 83.73
  Q 9.87 83.71 9.82 84.39
  L 9.24 92.35"
/>
<path stroke="#621b3a" vector-effect="non-scaling-stroke" d="
  M 11.93 99.19
  Q 9.81 95.95 9.24 92.35"
/>
</g>
<path fill="#10155e" d="
  M 47.49 42.00
  L 34.77 42.00
  Q 34.20 42.00 34.09 42.55
  Q 32.59 49.99 31.40 57.31
  C 31.12 59.02 31.64 60.64 31.83 62.39
  Q 31.90 63.00 31.29 63.00
  L 10.74 63.00
  A 0.42 0.42 0.0 0 1 10.41 62.33
  C 11.91 60.37 12.85 58.29 13.36 55.70
  Q 18.32 30.62 19.89 21.93
  Q 20.41 19.04 19.48 15.66
  Q 19.29 15.00 19.98 15.00
  L 40.42 15.00
  A 0.36 0.35 -70.5 0 1 40.69 15.58
  C 37.35 19.70 36.66 28.26 35.78 33.45
  Q 35.69 34.00 36.25 34.00
  L 49.01 34.00
  Q 49.62 34.00 49.75 33.40
  C 50.71 29.10 53.56 19.47 51.31 15.78
  A 0.51 0.51 0.0 0 1 51.75 15.00
  L 72.76 15.00
  A 0.46 0.45 18.0 0 1 73.13 15.72
  Q 70.88 18.76 70.13 22.68
  Q 66.91 39.35 63.75 56.03
  C 63.30 58.38 63.52 60.00 64.15 62.23
  Q 64.37 63.00 63.57 63.00
  L 42.74 63.00
  A 0.43 0.42 21.0 0 1 42.42 62.29
  C 46.01 58.34 47.15 47.83 47.96 42.54
  Q 48.04 42.00 47.49 42.00
  Z"
/>
<path fill="#10155e" d="
  M 121.42 15.04
  C 128.70 15.15 130.92 18.92 129.81 25.68
  C 128.26 35.20 128.03 45.64 115.30 45.87
  Q 104.88 46.05 94.44 45.99
  Q 93.91 45.99 93.81 46.51
  C 92.87 51.51 90.81 57.56 92.43 62.43
  Q 92.62 63.00 92.01 63.00
  L 71.28 63.00
  Q 70.63 63.00 70.94 62.43
  Q 73.38 57.94 73.67 56.44
  Q 77.09 38.71 80.47 20.99
  Q 80.79 19.32 79.86 15.64
  Q 79.71 15.06 80.32 15.06
  Q 109.52 14.86 121.42 15.04
  Z
  M 109.76 23.02
  L 98.88 22.99
  Q 98.31 22.99 98.20 23.55
  L 95.52 37.49
  Q 95.43 37.97 95.92 37.98
  Q 100.70 38.06 105.51 37.94
  C 110.95 37.81 111.05 29.34 111.62 25.16
  A 1.89 1.89 0.0 0 0 109.76 23.02
  Z"
/>
<path fill="#10155e" d="
  M 146.75 40.42
  Q 141.93 31.79 137.26 23.09
  Q 135.01 18.89 131.84 15.56
  A 0.33 0.33 0.0 0 1 132.07 15.00
  L 156.80 15.00
  Q 157.49 15.00 157.49 15.68
  C 157.53 20.64 160.04 24.48 162.50 28.55
  A 0.45 0.45 0.0 0 0 163.17 28.66
  C 167.29 25.14 174.05 20.45 176.24 15.50
  Q 176.47 15.00 177.01 15.00
  L 189.78 15.00
  A 0.38 0.37 -61.4 0 1 189.98 15.69
  C 181.58 21.22 174.08 28.48 166.48 35.00
  Q 166.05 35.36 166.31 35.86
  C 170.73 44.37 175.26 55.21 181.41 62.44
  A 0.34 0.34 0.0 0 1 181.15 63.00
  L 156.52 63.00
  A 0.44 0.44 0.0 0 1 156.12 62.39
  C 157.71 58.53 152.61 51.41 150.69 48.01
  A 0.56 0.56 0.0 0 0 149.85 47.85
  C 145.24 51.67 137.67 57.24 134.86 62.51
  A 0.93 0.92 13.8 0 1 134.04 63.00
  L 122.24 63.00
  A 0.45 0.44 29.7 0 1 122.01 62.17
  Q 123.24 61.46 124.46 60.45
  Q 135.76 51.07 146.62 41.19
  Q 146.99 40.85 146.75 40.42
  Z"
/>
<path fill="#939598" d="
  M 27.29 91.02
  A 13.37 13.37 0.0 0 1 13.92 104.39
  A 13.37 13.37 0.0 0 1 0.55 91.02
  A 13.37 13.37 0.0 0 1 13.92 77.65
  A 13.37 13.37 0.0 0 1 27.29 91.02
  Z
  M 18.07 80.38
  C 15.76 84.15 14.12 87.54 12.18 91.51
  Q 12.13 91.62 12.25 91.66
  Q 12.39 91.72 12.55 91.75
  Q 12.98 91.81 13.18 91.43
  Q 16.15 85.93 21.83 83.34
  A 0.84 0.84 0.0 0 0 21.90 81.85
  L 18.92 80.16
  Q 18.39 79.86 18.07 80.38
  Z
  M 9.24 92.35
  L 8.74 90.76
  Q 8.51 90.00 7.91 90.52
  L 5.42 92.64
  A 0.64 0.63 -36.1 0 0 5.29 93.44
  Q 8.81 99.27 14.72 102.48
  Q 16.04 103.21 15.05 102.07
  Q 13.62 100.41 11.93 99.19
  Q 12.17 97.66 11.53 93.92
  Q 10.81 89.71 14.35 84.51
  A 0.46 0.45 17.9 0 0 13.98 83.80
  L 10.55 83.73
  Q 9.87 83.71 9.82 84.39
  L 9.24 92.35
  Z"
/>
<path fill="#fdba30" d="
  M 12.18 91.51
  C 14.12 87.54 15.76 84.15 18.07 80.38
  Q 18.39 79.86 18.92 80.16
  L 21.90 81.85
  A 0.84 0.84 0.0 0 1 21.83 83.34
  Q 16.15 85.93 13.18 91.43
  Q 12.98 91.81 12.55 91.75
  Q 12.39 91.72 12.25 91.66
  Q 12.13 91.62 12.18 91.51
  Z"
/>
<rect fill="#10155e" x="69.25" y="82.52" width="4.00" height="21.74" rx="0.70"/>
<rect fill="#10155e" x="76.50" y="82.53" width="3.76" height="21.74" rx="0.44"/>
<path fill="#10155e" d="
  M 38.19 86.28
  A 1.33 1.33 0.0 0 0 38.41 88.91
  C 48.86 89.42 43.91 104.19 32.74 97.84
  Q 32.31 97.59 32.56 97.16
  L 33.92 94.81
  Q 34.25 94.24 34.76 94.66
  Q 36.52 96.07 38.78 95.73
  A 1.34 1.34 0.0 0 0 39.11 93.17
  C 36.29 91.94 32.55 91.85 33.19 87.50
  C 33.99 82.05 38.79 81.96 43.00 83.70
  Q 43.47 83.89 43.27 84.37
  L 42.24 86.69
  A 0.60 0.60 0.0 0 1 41.34 86.93
  Q 39.96 85.89 38.19 86.28
  Z"
/>
<path fill="#10155e" d="
  M 129.47 93.55
  Q 127.47 93.99 126.99 92.21
  A 1.53 1.52 -8.0 0 1 128.45 90.28
  L 134.47 90.23
  A 1.01 1.00 4.0 0 1 135.47 91.37
  C 133.47 106.30 114.09 99.06 119.55 87.46
  C 122.16 81.92 129.61 81.26 133.86 85.70
  A 1.21 1.21 0.0 0 1 133.77 87.46
  Q 131.11 89.70 129.40 87.09
  Q 129.10 86.62 128.55 86.48
  C 120.42 84.38 121.73 100.36 130.19 95.39
  A 1.00 1.00 0.0 0 0 129.47 93.55
  Z"
/>
<path fill="#10155e" d="
  M 168.7751 90.5757
  A 8.86 8.51 -4.3 0 1 160.5781 99.7260
  A 8.86 8.51 -4.3 0 1 151.1049 91.9043
  A 8.86 8.51 -4.3 0 1 159.3019 82.7540
  A 8.86 8.51 -4.3 0 1 168.7751 90.5757
  Z
  M 164.43 91.21
  A 4.48 4.48 0.0 0 0 159.95 86.73
  A 4.48 4.48 0.0 0 0 155.47 91.21
  A 4.48 4.48 0.0 0 0 159.95 95.69
  A 4.48 4.48 0.0 0 0 164.43 91.21
  Z"
/>
<path fill="#10155e" d="
  M 52.50 86.99
  L 52.50 98.48
  A 0.48 0.48 0.0 0 1 52.02 98.96
  L 49.11 98.97
  Q 48.30 98.98 48.28 98.17
  Q 48.15 92.70 48.37 87.24
  A 0.70 0.70 0.0 0 0 47.68 86.52
  L 45.33 86.49
  A 0.58 0.58 0.0 0 1 44.76 85.83
  L 45.06 83.55
  Q 45.13 82.99 45.69 83.05
  Q 50.10 83.50 54.67 83.11
  A 1.65 1.65 0.0 0 1 55.26 86.35
  Q 54.40 86.59 53.05 86.49
  Q 52.50 86.45 52.50 86.99
  Z"
/>
<path fill="#10155e" d="
  M 62.16 89.25
  L 65.62 89.25
  Q 66.25 89.25 66.25 89.87
  L 66.25 92.12
  Q 66.25 92.75 65.62 92.75
  L 62.52 92.75
  A 0.78 0.76 19.2 0 0 61.92 93.03
  Q 61.07 94.06 61.84 95.13
  Q 62.11 95.50 62.56 95.50
  L 66.00 95.50
  Q 66.50 95.50 66.50 96.00
  L 66.50 98.38
  Q 66.50 99.00 65.87 99.00
  L 58.12 99.00
  Q 57.50 99.00 57.50 98.37
  L 57.50 83.56
  Q 57.50 83.11 57.94 83.12
  L 65.87 83.24
  A 0.64 0.63 0.5 0 1 66.50 83.87
  L 66.50 85.87
  Q 66.50 86.50 65.87 86.50
  L 62.16 86.50
  A 0.64 0.64 0.0 0 0 61.52 87.15
  L 61.52 88.60
  A 0.65 0.64 -90.0 0 0 62.16 89.25
  Z"
/>
<path fill="#10155e" d="
  M 93.08 83.20
  A 0.55 0.54 -10.0 0 1 93.59 83.55
  L 99.07 98.21
  A 0.42 0.41 68.9 0 1 98.84 98.74
  Q 95.16 100.24 94.14 96.79
  A 0.76 0.75 -8.2 0 0 93.41 96.25
  L 88.55 96.25
  A 0.68 0.67 6.4 0 0 87.89 96.77
  Q 87.12 100.33 83.19 98.73
  Q 82.82 98.58 82.96 98.21
  L 88.58 83.62
  Q 88.78 83.10 89.34 83.11
  L 93.08 83.20
  Z
  M 90.33 90.18
  L 89.48 92.36
  Q 89.12 93.28 90.11 93.17
  L 92.03 92.94
  Q 92.71 92.86 92.51 92.21
  L 91.47 88.84
  A 0.45 0.44 55.3 0 0 90.69 88.69
  Q 90.45 88.99 90.46 89.40
  A 1.91 1.82 -36.9 0 1 90.33 90.18
  Z"
/>
<path fill="#10155e" d="
  M 104.66 93.77
  L 104.79 98.37
  A 0.64 0.63 0.0 0 1 104.13 99.02
  L 101.32 98.95
  Q 100.78 98.93 100.78 98.39
  L 100.69 83.80
  Q 100.69 83.07 101.41 83.10
  C 105.23 83.24 114.86 82.13 111.95 89.83
  C 111.46 91.14 110.62 91.55 109.61 92.50
  Q 109.19 92.90 109.56 93.36
  L 113.36 98.12
  A 0.43 0.42 62.1 0 1 113.16 98.79
  C 108.29 100.34 107.33 96.78 105.45 93.55
  A 0.42 0.42 0.0 0 0 104.66 93.77
  Z
  M 104.77 86.92
  L 104.77 89.54
  A 0.69 0.69 0.0 0 0 105.46 90.23
  L 106.19 90.23
  A 1.82 1.77 0.1 0 0 108.01 88.46
  L 108.01 88.00
  A 1.82 1.77 0.1 0 0 106.19 86.23
  L 105.46 86.23
  A 0.69 0.69 0.0 0 0 104.77 86.92
  Z"
/>
<path fill="#10155e" d="
  M 141.50 94.54
  L 141.50 98.50
  Q 141.50 99.18 140.82 99.20
  L 138.11 99.27
  Q 137.43 99.29 137.45 98.60
  Q 137.66 91.30 137.32 84.01
  A 0.53 0.53 0.0 0 1 137.77 83.46
  C 142.49 82.71 150.86 82.70 148.88 89.76
  C 148.47 91.22 147.63 91.76 146.45 92.63
  A 0.57 0.57 0.0 0 0 146.34 93.44
  L 150.20 98.48
  A 0.43 0.42 -19.6 0 1 149.87 99.16
  L 146.30 99.29
  A 1.16 1.14 -16.9 0 1 145.29 98.76
  L 142.47 94.26
  A 0.53 0.53 0.0 0 0 141.50 94.54
  Z
  M 141.52 86.96
  L 141.52 89.76
  A 0.69 0.69 0.0 0 0 142.21 90.45
  L 142.39 90.45
  A 2.37 1.99 -0.0 0 0 144.76 88.46
  L 144.76 88.26
  A 2.37 1.99 0.0 0 0 142.39 86.27
  L 142.21 86.27
  A 0.69 0.69 0.0 0 0 141.52 86.96
  Z"
/>
<path fill="#10155e" d="
  M 175.59 94.87
  C 177.20 97.33 180.57 95.67 180.52 93.00
  Q 180.43 88.47 180.54 83.83
  Q 180.55 83.31 181.07 83.30
  L 184.12 83.23
  A 0.51 0.51 0.0 0 1 184.64 83.71
  C 184.90 87.89 185.66 96.85 181.87 98.70
  C 178.86 100.17 174.21 100.05 171.97 97.15
  C 169.90 94.46 170.75 87.35 170.68 83.89
  A 0.62 0.62 0.0 0 1 171.30 83.25
  L 174.20 83.25
  Q 174.89 83.25 174.85 83.94
  C 174.75 85.94 174.06 92.53 175.59 94.87
  Z"
/>
<path fill="#10155e" d="
  M 191.55 94.48
  L 191.47 98.59
  Q 191.46 99.06 191.00 99.10
  L 188.18 99.31
  Q 187.52 99.37 187.49 98.70
  Q 187.21 91.28 187.41 83.87
  Q 187.42 83.40 187.88 83.36
  C 191.65 83.01 198.15 82.42 199.38 86.83
  C 200.72 91.63 197.01 94.64 192.25 93.89
  A 0.61 0.60 -85.1 0 0 191.55 94.48
  Z
  M 191.50 87.25
  L 191.50 89.93
  A 0.78 0.78 0.0 0 0 192.28 90.71
  L 192.49 90.71
  A 2.77 1.95 -0.1 0 0 195.26 88.76
  L 195.26 88.42
  A 2.77 1.95 -0.1 0 0 192.49 86.47
  L 192.28 86.47
  A 0.78 0.78 0.0 0 0 191.50 87.25
  Z"
/>
<path fill="#b32016" d="
  M 11.93 99.19
  Q 9.81 95.95 9.24 92.35
  L 9.82 84.39
  Q 9.87 83.71 10.55 83.73
  L 13.98 83.80
  A 0.46 0.45 17.9 0 1 14.35 84.51
  Q 10.81 89.71 11.53 93.92
  Q 12.17 97.66 11.93 99.19
  Z"
/>
<path fill="#10155e" d="
  M 9.24 92.35
  Q 9.81 95.95 11.93 99.19
  Q 13.62 100.41 15.05 102.07
  Q 16.04 103.21 14.72 102.48
  Q 8.81 99.27 5.29 93.44
  A 0.64 0.63 -36.1 0 1 5.42 92.64
  L 7.91 90.52
  Q 8.51 90.00 8.74 90.76
  L 9.24 92.35
  Z"
/>
</svg>
