<svg version="1.1" xmlns="http://www.w3.org/2000/svg" viewBox="0 0 2059.666666666667 411.83333333333576" width="6179.000000000001" height="1235.5000000000073">
  <!-- svg-source:excalidraw -->
  
  <defs>
    <style class="style-fonts">
      @font-face {
        font-family: "Virgil";
        src: url("https://excalidraw.com/Virgil.woff2");
      }
      @font-face {
        font-family: "Cascadia";
        src: url("https://excalidraw.com/Cascadia.woff2");
      }
    </style>
    
  </defs>
  <g stroke-linecap="round" transform="translate(10 10) rotate(0 289 195.5)"><path d="M7.86 8.16 C7.86 8.16, 7.86 8.16, 7.86 8.16 M7.86 8.16 C7.86 8.16, 7.86 8.16, 7.86 8.16 M4.85 36.01 C11.84 27.97, 18.83 19.93, 34.37 2.05 M4.85 36.01 C15.69 23.55, 26.53 11.08, 34.37 2.05 M4.46 60.85 C23.71 38.71, 42.96 16.56, 55.63 1.98 M4.46 60.85 C24.6 37.68, 44.75 14.5, 55.63 1.98 M4.72 84.93 C33.37 51.97, 62.02 19.02, 76.89 1.91 M4.72 84.93 C21.98 65.08, 39.23 45.23, 76.89 1.91 M4.99 109.01 C33.81 75.86, 62.63 42.71, 98.15 1.85 M4.99 109.01 C38.38 70.61, 71.76 32.2, 98.15 1.85 M4.6 133.85 C43.54 89.06, 82.47 44.27, 119.41 1.78 M4.6 133.85 C46.05 86.17, 87.49 38.49, 119.41 1.78 M4.87 157.93 C40.53 116.91, 76.19 75.88, 140.67 1.71 M4.87 157.93 C49.2 106.94, 93.52 55.94, 140.67 1.71 M4.48 182.77 C42.22 139.35, 79.96 95.93, 161.28 2.39 M4.48 182.77 C38.93 143.14, 73.38 103.51, 161.28 2.39 M4.74 206.85 C67.57 134.57, 130.4 62.29, 182.54 2.32 M4.74 206.85 C41.6 164.45, 78.45 122.06, 182.54 2.32 M5.01 230.93 C51.54 177.41, 98.06 123.89, 203.8 2.26 M5.01 230.93 C59.16 168.64, 113.3 106.35, 203.8 2.26 M4.62 255.77 C49.56 204.07, 94.5 152.38, 225.06 2.19 M4.62 255.77 C77.54 171.88, 150.46 87.99, 225.06 2.19 M4.89 279.85 C78.8 194.82, 152.72 109.79, 246.32 2.12 M4.89 279.85 C64.39 211.39, 123.9 142.94, 246.32 2.12 M4.5 304.69 C67.86 231.8, 131.22 158.91, 267.58 2.05 M4.5 304.69 C95.81 199.64, 187.13 94.59, 267.58 2.05 M4.76 328.77 C118.02 198.48, 231.28 68.19, 288.84 1.98 M4.76 328.77 C72.88 250.41, 140.99 172.06, 288.84 1.98 M5.03 352.85 C125.79 213.93, 246.54 75.02, 310.1 1.91 M5.03 352.85 C104.67 238.23, 204.3 123.61, 310.1 1.91 M5.95 376.18 C106.18 260.87, 206.42 145.57, 331.36 1.84 M5.95 376.18 C77.66 293.69, 149.36 211.2, 331.36 1.84 M16.06 388.94 C85.08 309.54, 154.09 230.15, 352.62 1.77 M16.06 388.94 C103.59 288.25, 191.11 187.56, 352.62 1.77 M34.04 392.64 C164.94 242.05, 295.85 91.47, 373.88 1.7 M34.04 392.64 C145.04 264.95, 256.05 137.25, 373.88 1.7 M55.3 392.57 C160.25 271.84, 265.2 151.11, 394.48 2.39 M55.3 392.57 C176.91 252.68, 298.51 112.79, 394.48 2.39 M76.56 392.5 C156.59 300.44, 236.62 208.38, 415.74 2.32 M76.56 392.5 C201.15 249.18, 325.74 105.85, 415.74 2.32 M97.82 392.44 C218.05 254.12, 338.29 115.81, 437 2.25 M97.82 392.44 C217.68 254.55, 337.55 116.66, 437 2.25 M119.08 392.37 C193.94 306.25, 268.79 220.14, 458.26 2.18 M119.08 392.37 C228.11 266.94, 337.15 141.51, 458.26 2.18 M139.68 393.05 C238.41 279.48, 337.14 165.9, 479.52 2.11 M139.68 393.05 C274.37 238.12, 409.05 83.18, 479.52 2.11 M160.94 392.98 C281.44 254.37, 401.93 115.76, 500.78 2.04 M160.94 392.98 C241.95 299.8, 322.96 206.61, 500.78 2.04 M182.2 392.91 C274.8 286.39, 367.41 179.86, 522.04 1.98 M182.2 392.91 C304.31 252.45, 426.42 111.98, 522.04 1.98 M203.46 392.85 C273.93 311.78, 344.4 230.72, 543.3 1.91 M203.46 392.85 C318.23 260.82, 433 128.8, 543.3 1.91 M224.72 392.78 C346.37 252.84, 468.01 112.91, 562.59 4.1 M224.72 392.78 C337.8 262.7, 450.88 132.62, 562.59 4.1 M245.98 392.71 C313.02 315.59, 380.05 238.48, 575.33 13.84 M245.98 392.71 C347.9 275.47, 449.81 158.23, 575.33 13.84 M267.24 392.64 C335.16 314.52, 403.07 236.39, 579.53 33.4 M267.24 392.64 C371.87 272.28, 476.5 151.92, 579.53 33.4 M288.5 392.57 C382.39 284.57, 476.27 176.57, 579.79 57.48 M288.5 392.57 C350.8 320.91, 413.1 249.24, 579.79 57.48 M309.76 392.5 C367.42 326.17, 425.08 259.84, 579.41 82.32 M309.76 392.5 C415.83 270.49, 521.89 148.48, 579.41 82.32 M331.03 392.43 C429.86 278.73, 528.7 165.03, 579.67 106.4 M331.03 392.43 C425.9 283.29, 520.77 174.16, 579.67 106.4 M352.29 392.36 C425.57 308.06, 498.85 223.76, 579.28 131.23 M352.29 392.36 C411.95 323.73, 471.61 255.1, 579.28 131.23 M372.89 393.05 C417.88 341.29, 462.87 289.54, 579.55 155.31 M372.89 393.05 C437.66 318.54, 502.43 244.03, 579.55 155.31 M394.15 392.98 C435.52 345.38, 476.9 297.79, 579.81 179.4 M394.15 392.98 C453.01 325.26, 511.88 257.55, 579.81 179.4 M415.41 392.91 C452.5 350.24, 489.59 307.58, 579.42 204.23 M415.41 392.91 C477.84 321.09, 540.27 249.27, 579.42 204.23 M436.67 392.84 C493.45 327.53, 550.22 262.22, 579.69 228.31 M436.67 392.84 C472.41 351.73, 508.15 310.62, 579.69 228.31 M457.93 392.77 C484.72 361.96, 511.5 331.14, 579.3 253.15 M457.93 392.77 C497.35 347.42, 536.77 302.07, 579.3 253.15 M479.19 392.7 C502.57 365.8, 525.96 338.9, 579.57 277.23 M479.19 392.7 C516.88 349.34, 554.58 305.98, 579.57 277.23 M500.45 392.63 C520.62 369.43, 540.78 346.24, 579.83 301.31 M500.45 392.63 C528.85 359.97, 557.24 327.3, 579.83 301.31 M521.71 392.57 C540.38 371.09, 559.04 349.62, 579.44 326.15 M521.71 392.57 C540.67 370.75, 559.63 348.94, 579.44 326.15 M542.97 392.5 C555.22 378.4, 567.47 364.31, 579.71 350.23 M542.97 392.5 C552.58 381.44, 562.19 370.39, 579.71 350.23" stroke="#ced4da" stroke-width="2" fill="none"></path><path d="M32 0 M32 0 C219.65 0, 407.31 0, 546 0 M32 0 C218.82 0, 405.64 0, 546 0 M546 0 C567.33 0, 578 10.67, 578 32 M546 0 C567.33 0, 578 10.67, 578 32 M578 32 C578 143.53, 578 255.05, 578 359 M578 32 C578 107.45, 578 182.9, 578 359 M578 359 C578 380.33, 567.33 391, 546 391 M578 359 C578 380.33, 567.33 391, 546 391 M546 391 C403 391, 259.99 391, 32 391 M546 391 C441.85 391, 337.7 391, 32 391 M32 391 C10.67 391, 0 380.33, 0 359 M32 391 C10.67 391, 0 380.33, 0 359 M0 359 C0 237.8, 0 116.6, 0 32 M0 359 C0 233.44, 0 107.88, 0 32 M0 32 C0 10.67, 10.67 0, 32 0 M0 32 C0 10.67, 10.67 0, 32 0" stroke="#868e96" stroke-width="4" fill="none"></path></g><g transform="translate(182.9499969482422 15) rotate(0 116.05000305175781 43.19999999999982)"><text x="116.05000305175781" y="0" font-family="Cascadia, Segoe UI Emoji" font-size="36px" fill="#868e96" text-anchor="middle" style="white-space: pre;" direction="ltr" dominant-baseline="text-before-edge"></text><text x="116.05000305175781" y="43.199999999999996" font-family="Cascadia, Segoe UI Emoji" font-size="36px" fill="#868e96" text-anchor="middle" style="white-space: pre;" direction="ltr" dominant-baseline="text-before-edge">std::string</text></g><g mask="url(#mask-hZZWZDZe8YiNwuuK4XI5W)" stroke-linecap="round"><g transform="translate(599.3571428571386 215.92995484874518) rotate(0 433.2678571428571 -14.941297636143645)"><path d="M0 0 C11.8 -8.57, 37.11 -55.25, 70.82 -51.44 C104.53 -47.63, 152.49 25.2, 202.25 22.84 C252.01 20.49, 316.06 -67.69, 369.39 -65.55 C422.73 -63.41, 475.58 35.02, 522.25 35.7 C568.92 36.39, 610.58 -54.78, 649.39 -61.44 C688.2 -68.11, 718.92 -13.31, 755.11 -4.3 C791.3 4.71, 847.96 -6.86, 866.54 -7.38 M0 0 C11.8 -8.57, 37.11 -55.25, 70.82 -51.44 C104.53 -47.63, 152.49 25.2, 202.25 22.84 C252.01 20.49, 316.06 -67.69, 369.39 -65.55 C422.73 -63.41, 475.58 35.02, 522.25 35.7 C568.92 36.39, 610.58 -54.78, 649.39 -61.44 C688.2 -68.11, 718.92 -13.31, 755.11 -4.3 C791.3 4.71, 847.96 -6.86, 866.54 -7.38" stroke="#1e1e1e" stroke-width="4" fill="none"></path></g><g transform="translate(599.3571428571386 215.92995484874518) rotate(0 433.2678571428571 -14.941297636143645)"><path d="M839.53 5.69 C847.5 1.84, 855.48 -2.02, 866.54 -7.38 M839.53 5.69 C847.94 1.62, 856.36 -2.45, 866.54 -7.38" stroke="#1e1e1e" stroke-width="4" fill="none"></path></g><g transform="translate(599.3571428571386 215.92995484874518) rotate(0 433.2678571428571 -14.941297636143645)"><path d="M837.45 -14.72 C846.04 -12.55, 854.62 -10.38, 866.54 -7.38 M837.45 -14.72 C846.51 -12.43, 855.57 -10.14, 866.54 -7.38" stroke="#1e1e1e" stroke-width="4" fill="none"></path></g></g><mask id="mask-hZZWZDZe8YiNwuuK4XI5W"><rect x="0" y="0" fill="#fff" width="1565.8928571428528" height="417.1799548487452"></rect><rect x="983.9229296160179" y="179.51063707211324" fill="#000" width="126.5999984741211" height="43.199999999999996" opacity="1"></rect></mask><g transform="translate(983.9229296160179 179.51063707211324) rotate(0 48.7020703839778 21.478020140488297)"><text x="63.29999923706055" y="0" font-family="Cascadia, Segoe UI Emoji" font-size="36px" fill="#1e1e1e" text-anchor="middle" style="white-space: pre;" direction="ltr" dominant-baseline="text-before-edge">MEMCPY</text></g><g stroke-linecap="round" transform="translate(38.333333333333485 282.4166666666679) rotate(0 57 44.5)"><path d="M5.27 5.9 C5.27 5.9, 5.27 5.9, 5.27 5.9 M5.27 5.9 C5.27 5.9, 5.27 5.9, 5.27 5.9 M9.47 25.46 C16.08 17.85, 22.69 10.25, 27.84 4.32 M9.47 25.46 C16.03 17.91, 22.59 10.37, 27.84 4.32 M9.74 49.54 C24.39 32.68, 39.04 15.82, 49.1 4.26 M9.74 49.54 C19.8 37.96, 29.86 26.38, 49.1 4.26 M4.75 79.66 C27.42 53.58, 50.1 27.5, 69.7 4.94 M4.75 79.66 C22.63 59.09, 40.52 38.52, 69.7 4.94 M16.17 90.91 C44.62 58.18, 73.07 25.45, 93.59 1.85 M16.17 90.91 C41.63 61.62, 67.09 32.33, 93.59 1.85 M31.53 97.63 C52.84 73.12, 74.15 48.6, 110.26 7.07 M31.53 97.63 C57.79 67.42, 84.05 37.21, 110.26 7.07 M52.79 97.56 C65.65 82.77, 78.52 67.97, 116.43 24.36 M52.79 97.56 C73.58 73.65, 94.37 49.73, 116.43 24.36 M74.05 97.49 C84.12 85.91, 94.19 74.32, 116.04 49.19 M74.05 97.49 C85.85 83.91, 97.66 70.33, 116.04 49.19 M102.53 89.12 C106 85.13, 109.48 81.13, 113.02 77.05 M102.53 89.12 C104.85 86.45, 107.17 83.78, 113.02 77.05" stroke="#ced4da" stroke-width="2" fill="none"></path><path d="M22.25 0 M22.25 0 C44.94 0, 67.63 0, 91.75 0 M22.25 0 C38.77 0, 55.3 0, 91.75 0 M91.75 0 C106.58 0, 114 7.42, 114 22.25 M91.75 0 C106.58 0, 114 7.42, 114 22.25 M114 22.25 C114 36.82, 114 51.39, 114 66.75 M114 22.25 C114 35.01, 114 47.76, 114 66.75 M114 66.75 C114 81.58, 106.58 89, 91.75 89 M114 66.75 C114 81.58, 106.58 89, 91.75 89 M91.75 89 C75.32 89, 58.89 89, 22.25 89 M91.75 89 C74.34 89, 56.92 89, 22.25 89 M22.25 89 C7.42 89, 0 81.58, 0 66.75 M22.25 89 C7.42 89, 0 81.58, 0 66.75 M0 66.75 C0 57.82, 0 48.89, 0 22.25 M0 66.75 C0 53.2, 0 39.65, 0 22.25 M0 22.25 C0 7.42, 7.42 0, 22.25 0 M0 22.25 C0 7.42, 7.42 0, 22.25 0" stroke="#868e96" stroke-width="4" fill="none"></path></g><g transform="translate(63.68333371480321 305.3166666666675) rotate(0 31.649999618530273 21.600000000000364)"><text x="31.649999618530273" y="0" font-family="Cascadia, Segoe UI Emoji" font-size="36px" fill="#868e96" text-anchor="middle" style="white-space: pre;" direction="ltr" dominant-baseline="text-before-edge">ptr</text></g><g stroke-linecap="round" transform="translate(167.16666666666606 278.9166666666715) rotate(0 196 48.5)"><path d="M5.8 6.37 C5.8 6.37, 5.8 6.37, 5.8 6.37 M5.8 6.37 C5.8 6.37, 5.8 6.37, 5.8 6.37 M6.72 29.69 C14.47 20.78, 22.22 11.87, 29.03 4.03 M6.72 29.69 C12 23.62, 17.29 17.54, 29.03 4.03 M6.33 54.53 C19.23 39.69, 32.13 24.85, 50.29 3.96 M6.33 54.53 C21.29 37.32, 36.25 20.12, 50.29 3.96 M2.01 83.89 C28.5 53.42, 54.99 22.94, 71.55 3.89 M2.01 83.89 C26.73 55.45, 51.46 27, 71.55 3.89 M12.77 95.9 C35.22 70.07, 57.68 44.23, 92.81 3.83 M12.77 95.9 C35.32 69.96, 57.87 44.02, 92.81 3.83 M26.81 104.13 C60.97 64.84, 95.13 25.55, 113.41 4.51 M26.81 104.13 C53.37 73.58, 79.92 43.04, 113.41 4.51 M48.07 104.06 C73.25 75.1, 98.43 46.14, 134.67 4.44 M48.07 104.06 C67.35 81.89, 86.62 59.72, 134.67 4.44 M69.33 104 C89.94 80.29, 110.54 56.59, 155.93 4.37 M69.33 104 C98.93 69.95, 128.52 35.91, 155.93 4.37 M90.59 103.93 C111.3 80.11, 132 56.29, 177.19 4.3 M90.59 103.93 C117.62 72.83, 144.65 41.74, 177.19 4.3 M111.85 103.86 C143.58 67.36, 175.31 30.86, 198.45 4.24 M111.85 103.86 C132.02 80.66, 152.18 57.47, 198.45 4.24 M133.11 103.79 C167.35 64.4, 201.6 25.01, 219.71 4.17 M133.11 103.79 C156.5 76.89, 179.88 49.99, 219.71 4.17 M154.37 103.72 C183.77 69.9, 213.17 36.08, 240.97 4.1 M154.37 103.72 C186.61 66.64, 218.84 29.55, 240.97 4.1 M174.98 104.4 C199.77 75.88, 224.57 47.35, 262.23 4.03 M174.98 104.4 C199.95 75.67, 224.93 46.94, 262.23 4.03 M196.24 104.34 C224.09 72.3, 251.93 40.26, 282.84 4.71 M196.24 104.34 C219.84 77.18, 243.45 50.03, 282.84 4.71 M217.5 104.27 C250.81 65.95, 284.11 27.63, 304.1 4.65 M217.5 104.27 C245.31 72.28, 273.12 40.29, 304.1 4.65 M238.76 104.2 C271.81 66.18, 304.86 28.16, 325.36 4.58 M238.76 104.2 C261.86 77.62, 284.97 51.04, 325.36 4.58 M260.02 104.13 C279.98 81.16, 299.95 58.19, 346.62 4.51 M260.02 104.13 C277.79 83.69, 295.56 63.25, 346.62 4.51 M281.28 104.06 C315.35 64.87, 349.41 25.68, 367.88 4.44 M281.28 104.06 C299.3 83.33, 317.33 62.59, 367.88 4.44 M302.54 103.99 C328.82 73.76, 355.1 43.52, 387.17 6.63 M302.54 103.99 C331.26 70.95, 359.98 37.91, 387.17 6.63 M323.8 103.92 C346.89 77.36, 369.98 50.79, 392.68 24.68 M323.8 103.92 C349.3 74.59, 374.79 45.26, 392.68 24.68 M344.4 104.61 C362.02 84.34, 379.63 64.08, 392.29 49.51 M344.4 104.61 C363.31 82.85, 382.22 61.1, 392.29 49.51 M370.26 99.26 C378.96 89.24, 387.66 79.23, 392.56 73.6 M370.26 99.26 C377.99 90.36, 385.72 81.46, 392.56 73.6" stroke="#ced4da" stroke-width="2" fill="none"></path><path d="M24.25 0 M24.25 0 C127.41 0, 230.56 0, 367.75 0 M24.25 0 C97.49 0, 170.73 0, 367.75 0 M367.75 0 C383.92 0, 392 8.08, 392 24.25 M367.75 0 C383.92 0, 392 8.08, 392 24.25 M392 24.25 C392 36.43, 392 48.61, 392 72.75 M392 24.25 C392 40.27, 392 56.29, 392 72.75 M392 72.75 C392 88.92, 383.92 97, 367.75 97 M392 72.75 C392 88.92, 383.92 97, 367.75 97 M367.75 97 C274.92 97, 182.09 97, 24.25 97 M367.75 97 C274.23 97, 180.72 97, 24.25 97 M24.25 97 C8.08 97, 0 88.92, 0 72.75 M24.25 97 C8.08 97, 0 88.92, 0 72.75 M0 72.75 C0 58.02, 0 43.29, 0 24.25 M0 72.75 C0 56.55, 0 40.35, 0 24.25 M0 24.25 C0 8.08, 8.08 0, 24.25 0 M0 24.25 C0 8.08, 8.08 0, 24.25 0" stroke="#868e96" stroke-width="4" fill="none"></path></g><g transform="translate(215.46666971842387 305.81666666667115) rotate(0 147.6999969482422 21.600000000000364)"><text x="147.6999969482422" y="0" font-family="Cascadia, Segoe UI Emoji" font-size="36px" fill="#868e96" text-anchor="middle" style="white-space: pre;" direction="ltr" dominant-baseline="text-before-edge">buffer for sso</text></g><g stroke-linecap="round" transform="translate(1471.666666666667 10.833333333335759) rotate(0 289 195.5)"><path d="M7.86 8.16 C7.86 8.16, 7.86 8.16, 7.86 8.16 M7.86 8.16 C7.86 8.16, 7.86 8.16, 7.86 8.16 M4.85 36.01 C11.08 28.84, 17.32 21.67, 34.37 2.05 M4.85 36.01 C15.3 23.99, 25.75 11.97, 34.37 2.05 M4.46 60.85 C19.42 43.63, 34.39 26.42, 55.63 1.98 M4.46 60.85 C18.75 44.41, 33.04 27.98, 55.63 1.98 M4.72 84.93 C23.33 63.53, 41.93 42.13, 76.89 1.91 M4.72 84.93 C32.72 52.72, 60.72 20.51, 76.89 1.91 M4.99 109.01 C34.68 74.86, 64.37 40.7, 98.15 1.85 M4.99 109.01 C30.14 80.08, 55.3 51.14, 98.15 1.85 M4.6 133.85 C36.25 97.44, 67.9 61.03, 119.41 1.78 M4.6 133.85 C36.85 96.75, 69.11 59.64, 119.41 1.78 M4.87 157.93 C50.14 105.85, 95.42 53.76, 140.67 1.71 M4.87 157.93 C42.45 114.7, 80.03 71.47, 140.67 1.71 M4.48 182.77 C38.45 143.69, 72.42 104.61, 161.28 2.39 M4.48 182.77 C43.36 138.03, 82.25 93.3, 161.28 2.39 M4.74 206.85 C73.34 127.93, 141.94 49.02, 182.54 2.32 M4.74 206.85 C49.97 154.82, 95.2 102.79, 182.54 2.32 M5.01 230.93 C75.12 150.28, 145.23 69.63, 203.8 2.26 M5.01 230.93 C56.49 171.71, 107.98 112.48, 203.8 2.26 M4.62 255.77 C69.81 180.78, 135 105.78, 225.06 2.19 M4.62 255.77 C62.52 189.17, 120.41 122.57, 225.06 2.19 M4.89 279.85 C95.69 175.4, 186.49 70.94, 246.32 2.12 M4.89 279.85 C86.58 185.87, 168.28 91.89, 246.32 2.12 M4.5 304.69 C97.37 197.85, 190.24 91.01, 267.58 2.05 M4.5 304.69 C100.73 193.98, 196.96 83.28, 267.58 2.05 M4.76 328.77 C89.85 230.89, 174.93 133.01, 288.84 1.98 M4.76 328.77 C80.14 242.05, 155.52 155.34, 288.84 1.98 M5.03 352.85 C71.53 276.35, 138.03 199.85, 310.1 1.91 M5.03 352.85 C106.57 236.04, 208.12 119.22, 310.1 1.91 M5.95 376.18 C121.75 242.97, 237.55 109.75, 331.36 1.84 M5.95 376.18 C95.04 273.7, 184.12 171.22, 331.36 1.84 M16.06 388.94 C90.51 303.29, 164.96 217.64, 352.62 1.77 M16.06 388.94 C129.67 258.25, 243.27 127.56, 352.62 1.77 M34.04 392.64 C135.44 275.99, 236.85 159.34, 373.88 1.7 M34.04 392.64 C153.72 254.97, 273.39 117.3, 373.88 1.7 M55.3 392.57 C144.71 289.71, 234.13 186.85, 394.48 2.39 M55.3 392.57 C142.9 291.8, 230.51 191.02, 394.48 2.39 M76.56 392.5 C178.54 275.19, 280.52 157.88, 415.74 2.32 M76.56 392.5 C193.17 258.36, 309.77 124.22, 415.74 2.32 M97.82 392.44 C205.14 268.98, 312.46 145.52, 437 2.25 M97.82 392.44 C226.07 244.9, 354.31 97.37, 437 2.25 M119.08 392.37 C206.09 292.27, 293.11 192.17, 458.26 2.18 M119.08 392.37 C202.71 296.16, 286.34 199.95, 458.26 2.18 M139.68 393.05 C248.81 267.52, 357.94 141.98, 479.52 2.11 M139.68 393.05 C236.47 281.71, 333.26 170.37, 479.52 2.11 M160.94 392.98 C256.17 283.43, 351.4 173.89, 500.78 2.04 M160.94 392.98 C267.35 270.58, 373.76 148.17, 500.78 2.04 M182.2 392.91 C280.61 279.71, 379.02 166.5, 522.04 1.98 M182.2 392.91 C308.23 247.94, 434.25 102.97, 522.04 1.98 M203.46 392.85 C273.54 312.24, 343.61 231.63, 543.3 1.91 M203.46 392.85 C322.65 255.74, 441.84 118.62, 543.3 1.91 M224.72 392.78 C293.63 313.51, 362.54 234.24, 562.59 4.1 M224.72 392.78 C337.35 263.22, 449.97 133.66, 562.59 4.1 M245.98 392.71 C341.25 283.12, 436.52 173.52, 575.33 13.84 M245.98 392.71 C318.89 308.83, 391.8 224.96, 575.33 13.84 M267.24 392.64 C366.14 278.87, 465.04 165.1, 579.53 33.4 M267.24 392.64 C352.85 294.16, 438.46 195.68, 579.53 33.4 M288.5 392.57 C377.22 290.51, 465.94 188.46, 579.79 57.48 M288.5 392.57 C388.06 278.05, 487.61 163.52, 579.79 57.48 M309.76 392.5 C377.34 314.77, 444.91 237.04, 579.41 82.32 M309.76 392.5 C417.56 268.5, 525.35 144.5, 579.41 82.32 M331.03 392.43 C392.57 321.63, 454.12 250.83, 579.67 106.4 M331.03 392.43 C426.32 282.81, 521.61 173.19, 579.67 106.4 M352.29 392.36 C420.1 314.35, 487.91 236.34, 579.28 131.23 M352.29 392.36 C425.24 308.43, 498.2 224.5, 579.28 131.23 M372.89 393.05 C421.23 337.44, 469.56 281.84, 579.55 155.31 M372.89 393.05 C449.74 304.65, 526.58 216.24, 579.55 155.31 M394.15 392.98 C454.4 323.66, 514.66 254.35, 579.81 179.4 M394.15 392.98 C460.06 317.16, 525.96 241.34, 579.81 179.4 M415.41 392.91 C480.97 317.49, 546.53 242.07, 579.42 204.23 M415.41 392.91 C479.1 319.64, 542.8 246.37, 579.42 204.23 M436.67 392.84 C474.1 349.79, 511.52 306.73, 579.69 228.31 M436.67 392.84 C468.29 356.47, 499.9 320.1, 579.69 228.31 M457.93 392.77 C482.37 364.65, 506.82 336.53, 579.3 253.15 M457.93 392.77 C490.47 355.33, 523.02 317.9, 579.3 253.15 M479.19 392.7 C500.69 367.97, 522.2 343.23, 579.57 277.23 M479.19 392.7 C513.81 352.88, 548.43 313.05, 579.57 277.23 M500.45 392.63 C525.5 363.81, 550.56 334.99, 579.83 301.31 M500.45 392.63 C524.37 365.12, 548.29 337.6, 579.83 301.31 M521.71 392.57 C542.29 368.89, 562.88 345.21, 579.44 326.15 M521.71 392.57 C542.29 368.89, 562.87 345.22, 579.44 326.15 M542.97 392.5 C555.44 378.16, 567.9 363.82, 579.71 350.23 M542.97 392.5 C555.2 378.43, 567.42 364.37, 579.71 350.23" stroke="#ced4da" stroke-width="2" fill="none"></path><path d="M32 0 M32 0 C151.86 0, 271.71 0, 546 0 M32 0 C232.68 0, 433.35 0, 546 0 M546 0 C567.33 0, 578 10.67, 578 32 M546 0 C567.33 0, 578 10.67, 578 32 M578 32 C578 108.78, 578 185.57, 578 359 M578 32 C578 160.86, 578 289.71, 578 359 M578 359 C578 380.33, 567.33 391, 546 391 M578 359 C578 380.33, 567.33 391, 546 391 M546 391 C379.34 391, 212.69 391, 32 391 M546 391 C421.69 391, 297.37 391, 32 391 M32 391 C10.67 391, 0 380.33, 0 359 M32 391 C10.67 391, 0 380.33, 0 359 M0 359 C0 238.96, 0 118.91, 0 32 M0 359 C0 268.65, 0 178.3, 0 32 M0 32 C0 10.67, 10.67 0, 32 0 M0 32 C0 10.67, 10.67 0, 32 0" stroke="#1e1e1e" stroke-width="4" fill="none"></path></g><g transform="translate(1644.6166636149092 15.833333333335759) rotate(0 116.05000305175781 43.19999999999982)"><text x="116.05000305175781" y="0" font-family="Cascadia, Segoe UI Emoji" font-size="36px" fill="#1e1e1e" text-anchor="middle" style="white-space: pre;" direction="ltr" dominant-baseline="text-before-edge"></text><text x="116.05000305175781" y="43.199999999999996" font-family="Cascadia, Segoe UI Emoji" font-size="36px" fill="#1e1e1e" text-anchor="middle" style="white-space: pre;" direction="ltr" dominant-baseline="text-before-edge">std::string</text></g><g stroke-linecap="round" transform="translate(1500 299.5000000000018) rotate(0 57 44.5)"><path d="M5.27 5.9 C5.27 5.9, 5.27 5.9, 5.27 5.9 M5.27 5.9 C5.27 5.9, 5.27 5.9, 5.27 5.9 M9.47 25.46 C16.2 17.71, 22.93 9.97, 27.84 4.32 M9.47 25.46 C13.91 20.35, 18.35 15.24, 27.84 4.32 M9.74 49.54 C23.08 34.18, 36.43 18.82, 49.1 4.26 M9.74 49.54 C24.15 32.95, 38.57 16.36, 49.1 4.26 M4.75 79.66 C26.63 54.49, 48.5 29.33, 69.7 4.94 M4.75 79.66 C27 54.07, 49.24 28.48, 69.7 4.94 M16.17 90.91 C45.79 56.84, 75.41 22.76, 93.59 1.85 M16.17 90.91 C32.75 71.83, 49.34 52.76, 93.59 1.85 M31.53 97.63 C55.71 69.82, 79.89 42, 110.26 7.07 M31.53 97.63 C52.97 72.96, 74.42 48.29, 110.26 7.07 M52.79 97.56 C75.97 70.9, 99.14 44.24, 116.43 24.36 M52.79 97.56 C77.59 69.04, 102.39 40.51, 116.43 24.36 M74.05 97.49 C88.59 80.77, 103.13 64.04, 116.04 49.19 M74.05 97.49 C84.73 85.2, 95.42 72.91, 116.04 49.19 M102.53 89.12 C104.63 86.7, 106.73 84.28, 113.02 77.05 M102.53 89.12 C105.73 85.43, 108.94 81.74, 113.02 77.05" stroke="#ced4da" stroke-width="2" fill="none"></path><path d="M22.25 0 M22.25 0 C46.12 0, 70 0, 91.75 0 M22.25 0 C47.71 0, 73.17 0, 91.75 0 M91.75 0 C106.58 0, 114 7.42, 114 22.25 M91.75 0 C106.58 0, 114 7.42, 114 22.25 M114 22.25 C114 31.25, 114 40.25, 114 66.75 M114 22.25 C114 38.29, 114 54.34, 114 66.75 M114 66.75 C114 81.58, 106.58 89, 91.75 89 M114 66.75 C114 81.58, 106.58 89, 91.75 89 M91.75 89 C67.75 89, 43.75 89, 22.25 89 M91.75 89 C69.04 89, 46.33 89, 22.25 89 M22.25 89 C7.42 89, 0 81.58, 0 66.75 M22.25 89 C7.42 89, 0 81.58, 0 66.75 M0 66.75 C0 57.05, 0 47.35, 0 22.25 M0 66.75 C0 51.94, 0 37.13, 0 22.25 M0 22.25 C0 7.42, 7.42 0, 22.25 0 M0 22.25 C0 7.42, 7.42 0, 22.25 0" stroke="#1e1e1e" stroke-width="4" fill="none"></path></g><g transform="translate(1525.3500003814697 322.4000000000033) rotate(0 31.649999618530273 21.600000000000364)"><text x="31.649999618530273" y="0" font-family="Cascadia, Segoe UI Emoji" font-size="36px" fill="#1e1e1e" text-anchor="middle" style="white-space: pre;" direction="ltr" dominant-baseline="text-before-edge">ptr</text></g><g stroke-linecap="round" transform="translate(1628.833333333333 296.00000000000546) rotate(0 196 48.5)"><path d="M5.8 6.37 C5.8 6.37, 5.8 6.37, 5.8 6.37 M5.8 6.37 C5.8 6.37, 5.8 6.37, 5.8 6.37 M6.72 29.69 C14.2 21.09, 21.68 12.48, 29.03 4.03 M6.72 29.69 C11.73 23.94, 16.73 18.18, 29.03 4.03 M6.33 54.53 C21.15 37.49, 35.96 20.45, 50.29 3.96 M6.33 54.53 C15.41 44.09, 24.48 33.65, 50.29 3.96 M2.01 83.89 C17.89 65.62, 33.78 47.34, 71.55 3.89 M2.01 83.89 C23.1 59.63, 44.2 35.36, 71.55 3.89 M12.77 95.9 C37.33 67.65, 61.89 39.4, 92.81 3.83 M12.77 95.9 C40.81 63.64, 68.86 31.37, 92.81 3.83 M26.81 104.13 C52.4 74.69, 77.99 45.26, 113.41 4.51 M26.81 104.13 C53.79 73.1, 80.76 42.07, 113.41 4.51 M48.07 104.06 C79.23 68.22, 110.38 32.38, 134.67 4.44 M48.07 104.06 C66.54 82.82, 85.01 61.57, 134.67 4.44 M69.33 104 C88.6 81.83, 107.86 59.67, 155.93 4.37 M69.33 104 C102.2 66.18, 135.07 28.37, 155.93 4.37 M90.59 103.93 C123.46 66.12, 156.33 28.31, 177.19 4.3 M90.59 103.93 C122.26 67.49, 153.93 31.06, 177.19 4.3 M111.85 103.86 C130.53 82.37, 149.21 60.88, 198.45 4.24 M111.85 103.86 C145.88 64.71, 179.91 25.56, 198.45 4.24 M133.11 103.79 C152.18 81.86, 171.24 59.92, 219.71 4.17 M133.11 103.79 C157.61 75.6, 182.11 47.42, 219.71 4.17 M154.37 103.72 C180.52 73.64, 206.67 43.55, 240.97 4.1 M154.37 103.72 C179.64 74.65, 204.91 45.58, 240.97 4.1 M174.98 104.4 C192.95 83.73, 210.92 63.06, 262.23 4.03 M174.98 104.4 C196.35 79.82, 217.71 55.24, 262.23 4.03 M196.24 104.34 C216 81.6, 235.76 58.87, 282.84 4.71 M196.24 104.34 C228.36 67.39, 260.47 30.44, 282.84 4.71 M217.5 104.27 C237.56 81.19, 257.62 58.11, 304.1 4.65 M217.5 104.27 C237.96 80.73, 258.42 57.19, 304.1 4.65 M238.76 104.2 C270.09 68.16, 301.41 32.12, 325.36 4.58 M238.76 104.2 C271.64 66.37, 304.52 28.55, 325.36 4.58 M260.02 104.13 C282.72 78.01, 305.42 51.9, 346.62 4.51 M260.02 104.13 C281.35 79.58, 302.69 55.04, 346.62 4.51 M281.28 104.06 C315.07 65.19, 348.86 26.31, 367.88 4.44 M281.28 104.06 C300.54 81.9, 319.8 59.74, 367.88 4.44 M302.54 103.99 C322.24 81.33, 341.93 58.67, 387.17 6.63 M302.54 103.99 C333.79 68.04, 365.04 32.09, 387.17 6.63 M323.8 103.92 C339.06 86.37, 354.32 68.81, 392.68 24.68 M323.8 103.92 C341.57 83.48, 359.33 63.05, 392.68 24.68 M344.4 104.61 C361.12 85.38, 377.83 66.15, 392.29 49.51 M344.4 104.61 C358.94 87.88, 373.48 71.16, 392.29 49.51 M370.26 99.26 C376.59 91.97, 382.92 84.68, 392.56 73.6 M370.26 99.26 C379.17 89, 388.09 78.74, 392.56 73.6" stroke="#ced4da" stroke-width="2" fill="none"></path><path d="M24.25 0 M24.25 0 C157.16 0, 290.06 0, 367.75 0 M24.25 0 C111.06 0, 197.88 0, 367.75 0 M367.75 0 C383.92 0, 392 8.08, 392 24.25 M367.75 0 C383.92 0, 392 8.08, 392 24.25 M392 24.25 C392 38.24, 392 52.23, 392 72.75 M392 24.25 C392 43.43, 392 62.61, 392 72.75 M392 72.75 C392 88.92, 383.92 97, 367.75 97 M392 72.75 C392 88.92, 383.92 97, 367.75 97 M367.75 97 C284.08 97, 200.4 97, 24.25 97 M367.75 97 C244.63 97, 121.51 97, 24.25 97 M24.25 97 C8.08 97, 0 88.92, 0 72.75 M24.25 97 C8.08 97, 0 88.92, 0 72.75 M0 72.75 C0 58.2, 0 43.66, 0 24.25 M0 72.75 C0 53.86, 0 34.96, 0 24.25 M0 24.25 C0 8.08, 8.08 0, 24.25 0 M0 24.25 C0 8.08, 8.08 0, 24.25 0" stroke="#1e1e1e" stroke-width="4" fill="none"></path></g><g transform="translate(1677.1333363850908 322.9000000000069) rotate(0 147.6999969482422 21.600000000000364)"><text x="147.6999969482422" y="0" font-family="Cascadia, Segoe UI Emoji" font-size="36px" fill="#1e1e1e" text-anchor="middle" style="white-space: pre;" direction="ltr" dominant-baseline="text-before-edge">buffer for sso</text></g><g stroke-linecap="round"><g transform="translate(1489.8333333333335 340.0833333333321) rotate(0 -461.4583333333335 -17.321515126890517)"><path d="M0 0 C-79.31 -5.76, -322.01 -33.19, -475.83 -34.58 C-629.65 -35.97, -848.4 -12.71, -922.92 -8.33 M0 0 C-79.31 -5.76, -322.01 -33.19, -475.83 -34.58 C-629.65 -35.97, -848.4 -12.71, -922.92 -8.33" stroke="#fa5252" stroke-width="4" fill="none"></path></g><g transform="translate(1489.8333333333335 340.0833333333321) rotate(0 -461.4583333333335 -17.321515126890517)"><path d="M-895.61 -20.76 C-902.16 -17.78, -908.71 -14.8, -922.92 -8.33 M-895.61 -20.76 C-901.92 -17.89, -908.23 -15.02, -922.92 -8.33" stroke="#fa5252" stroke-width="4" fill="none"></path></g><g transform="translate(1489.8333333333335 340.0833333333321) rotate(0 -461.4583333333335 -17.321515126890517)"><path d="M-894.01 -0.31 C-900.94 -2.23, -907.87 -4.16, -922.92 -8.33 M-894.01 -0.31 C-900.69 -2.16, -907.37 -4.01, -922.92 -8.33" stroke="#fa5252" stroke-width="4" fill="none"></path></g></g><mask></mask><g stroke-linecap="round"><g transform="translate(91.41666666666652 269.39285714285506) rotate(0 140 -42.989713610502804)"><path d="M0 0 C8.33 -11.46, 25.83 -54.58, 50 -68.75 C74.17 -82.92, 112.71 -83.96, 145 -85 C177.29 -86.04, 221.25 -88.96, 243.75 -75 C266.25 -61.04, 273.96 -13.54, 280 -1.25 M0 0 C8.33 -11.46, 25.83 -54.58, 50 -68.75 C74.17 -82.92, 112.71 -83.96, 145 -85 C177.29 -86.04, 221.25 -88.96, 243.75 -75 C266.25 -61.04, 273.96 -13.54, 280 -1.25" stroke="#868e96" stroke-width="4" fill="none"></path></g><g transform="translate(91.41666666666652 269.39285714285506) rotate(0 140 -42.989713610502804)"><path d="M261.35 -24.75 C265.15 -19.96, 268.95 -15.17, 280 -1.25 M261.35 -24.75 C267.01 -17.61, 272.68 -10.47, 280 -1.25" stroke="#868e96" stroke-width="4" fill="none"></path></g><g transform="translate(91.41666666666652 269.39285714285506) rotate(0 140 -42.989713610502804)"><path d="M280.81 -31.24 C280.65 -25.13, 280.48 -19.02, 280 -1.25 M280.81 -31.24 C280.57 -22.13, 280.32 -13.02, 280 -1.25" stroke="#868e96" stroke-width="4" fill="none"></path></g></g><mask></mask></svg>