<svg version="1.1" xmlns="http://www.w3.org/2000/svg" viewBox="0 0 2265 1202.5000000000005" width="6795" height="3607.5000000000014">
  <!-- svg-source:excalidraw -->
  
  <defs>
    <style class="style-fonts">
      @font-face {
        font-family: "Virgil";
        src: url("https://excalidraw.com/Virgil.woff2");
      }
      @font-face {
        font-family: "Cascadia";
        src: url("https://excalidraw.com/Cascadia.woff2");
      }
    </style>
    
  </defs>
  <g stroke-linecap="round" transform="translate(10 10) rotate(0 1122.5 591.2500000000002)"><path d="M0 0 C0 0, 0 0, 0 0 M0 0 C0 0, 0 0, 0 0 M0.27 24.08 C5.9 17.6, 11.54 11.11, 21.26 -0.07 M0.27 24.08 C5.24 18.37, 10.2 12.65, 21.26 -0.07 M-0.12 48.92 C8.5 39, 17.11 29.09, 42.52 -0.14 M-0.12 48.92 C12.12 34.83, 24.37 20.75, 42.52 -0.14 M0.14 73 C18.44 51.95, 36.74 30.9, 63.78 -0.21 M0.14 73 C17.83 52.65, 35.52 32.3, 63.78 -0.21 M-0.25 97.84 C30.8 62.12, 61.85 26.4, 85.04 -0.28 M-0.25 97.84 C25.88 67.78, 52.01 37.73, 85.04 -0.28 M0.02 121.92 C38.44 77.72, 76.86 33.52, 106.3 -0.34 M0.02 121.92 C30.83 86.48, 61.63 51.04, 106.3 -0.34 M0.29 146 C25.99 116.43, 51.69 86.86, 126.91 0.34 M0.29 146 C27.35 114.86, 54.42 83.72, 126.91 0.34 M-0.1 170.84 C30.78 135.31, 61.66 99.78, 148.17 0.27 M-0.1 170.84 C41.05 123.49, 82.21 76.15, 148.17 0.27 M0.16 194.92 C67.34 117.64, 134.51 40.37, 169.43 0.2 M0.16 194.92 C58.06 128.31, 115.96 61.71, 169.43 0.2 M-0.23 219.75 C55.32 155.85, 110.88 91.94, 190.69 0.13 M-0.23 219.75 C52.48 159.12, 105.18 98.49, 190.69 0.13 M0.04 243.84 C46.43 190.47, 92.82 137.1, 211.95 0.06 M0.04 243.84 C43.15 194.24, 86.27 144.64, 211.95 0.06 M0.3 267.92 C74.37 182.72, 148.43 97.52, 233.21 0 M0.3 267.92 C58.52 200.95, 116.73 133.99, 233.21 0 M-0.08 292.75 C60.44 223.13, 120.96 153.51, 254.47 -0.07 M-0.08 292.75 C99.18 178.56, 198.44 64.38, 254.47 -0.07 M0.18 316.84 C94.71 208.09, 189.25 99.34, 275.73 -0.14 M0.18 316.84 C108.62 192.1, 217.05 67.35, 275.73 -0.14 M-0.21 341.67 C64.36 267.39, 128.94 193.11, 296.99 -0.21 M-0.21 341.67 C80.98 248.27, 162.18 154.87, 296.99 -0.21 M0.06 365.75 C84.46 268.66, 168.87 171.56, 318.25 -0.28 M0.06 365.75 C73.5 281.27, 146.95 196.78, 318.25 -0.28 M0.32 389.84 C73.81 305.3, 147.3 220.76, 339.51 -0.35 M0.32 389.84 C103.61 271.02, 206.9 152.2, 339.51 -0.35 M-0.07 414.67 C118.4 278.39, 236.87 142.11, 360.11 0.34 M-0.07 414.67 C113.57 283.95, 227.21 153.22, 360.11 0.34 M0.2 438.75 C110.91 311.4, 221.62 184.05, 381.37 0.27 M0.2 438.75 C120.26 300.65, 240.31 162.54, 381.37 0.27 M-0.19 463.59 C89.93 359.92, 180.05 256.25, 402.63 0.2 M-0.19 463.59 C133.13 310.23, 266.44 156.87, 402.63 0.2 M0.08 487.67 C164.7 298.29, 329.33 108.91, 423.89 0.13 M0.08 487.67 C91.3 382.73, 182.53 277.79, 423.89 0.13 M-0.31 512.51 C171.03 315.4, 342.38 118.29, 445.15 0.06 M-0.31 512.51 C173.52 312.54, 347.36 112.56, 445.15 0.06 M-0.05 536.59 C119.27 399.33, 238.6 262.06, 466.41 -0.01 M-0.05 536.59 C137.92 377.88, 275.88 219.17, 466.41 -0.01 M0.22 560.67 C142.55 396.94, 284.88 233.2, 487.67 -0.08 M0.22 560.67 C164.04 372.21, 327.87 183.75, 487.67 -0.08 M-0.17 585.51 C169.35 390.5, 338.87 195.48, 508.93 -0.15 M-0.17 585.51 C166.12 394.22, 332.4 202.93, 508.93 -0.15 M0.1 609.59 C196.96 383.12, 393.83 156.65, 530.19 -0.22 M0.1 609.59 C127.82 462.66, 255.55 315.72, 530.19 -0.22 M-0.29 634.43 C140.81 472.1, 281.92 309.78, 551.45 -0.28 M-0.29 634.43 C141.83 470.93, 283.96 307.43, 551.45 -0.28 M-0.03 658.51 C168.2 464.99, 336.42 271.46, 572.71 -0.35 M-0.03 658.51 C175.78 456.27, 351.58 254.03, 572.71 -0.35 M0.24 682.59 C210.88 440.28, 421.52 197.96, 593.32 0.33 M0.24 682.59 C188.93 465.53, 377.61 248.47, 593.32 0.33 M-0.15 707.43 C169.06 512.77, 338.27 318.12, 614.58 0.26 M-0.15 707.43 C224.78 448.67, 449.71 189.92, 614.58 0.26 M0.12 731.51 C227.48 469.96, 454.84 208.41, 635.84 0.19 M0.12 731.51 C201.92 499.36, 403.72 267.22, 635.84 0.19 M-0.27 756.34 C247.91 470.84, 496.09 185.34, 657.1 0.13 M-0.27 756.34 C249.07 469.51, 498.41 182.67, 657.1 0.13 M-0.01 780.43 C193.24 558.12, 386.49 335.81, 678.36 0.06 M-0.01 780.43 C233.56 511.74, 467.12 243.06, 678.36 0.06 M0.26 804.51 C145.32 637.63, 290.38 470.76, 699.62 -0.01 M0.26 804.51 C236.88 532.31, 473.5 260.11, 699.62 -0.01 M-0.13 829.34 C255.02 535.82, 510.18 242.3, 720.88 -0.08 M-0.13 829.34 C192.58 607.65, 385.3 385.96, 720.88 -0.08 M0.14 853.43 C161.21 668.13, 322.28 482.84, 742.14 -0.15 M0.14 853.43 C270.13 542.83, 540.13 232.23, 742.14 -0.15 M-0.25 878.26 C211.28 634.92, 422.81 391.58, 763.4 -0.22 M-0.25 878.26 C178.89 672.18, 358.03 466.1, 763.4 -0.22 M0.01 902.34 C160.07 718.21, 320.14 534.08, 784.66 -0.29 M0.01 902.34 C162.03 715.96, 324.05 529.58, 784.66 -0.29 M0.28 926.43 C291.8 591.06, 583.33 255.7, 805.92 -0.36 M0.28 926.43 C301.69 579.69, 603.1 232.95, 805.92 -0.36 M-0.11 951.26 C174.28 750.65, 348.68 550.03, 826.52 0.33 M-0.11 951.26 C286.25 621.84, 572.61 292.42, 826.52 0.33 M0.15 975.34 C179.36 769.2, 358.56 563.05, 847.78 0.26 M0.15 975.34 C248.93 689.16, 497.7 402.98, 847.78 0.26 M-0.24 1000.18 C196.32 774.07, 392.87 547.96, 869.04 0.19 M-0.24 1000.18 C254.99 706.58, 510.21 412.98, 869.04 0.19 M0.03 1024.26 C199.4 794.92, 398.76 565.58, 890.3 0.12 M0.03 1024.26 C338.3 635.12, 676.58 245.98, 890.3 0.12 M0.3 1048.34 C258.05 751.84, 515.79 455.33, 911.56 0.05 M0.3 1048.34 C262.44 746.79, 524.58 445.23, 911.56 0.05 M-0.09 1073.18 C273.26 758.73, 546.6 444.28, 932.82 -0.02 M-0.09 1073.18 C280.26 750.67, 560.61 428.16, 932.82 -0.02 M0.17 1097.26 C343.49 702.32, 686.81 307.37, 954.08 -0.09 M0.17 1097.26 C379.75 660.6, 759.34 223.95, 954.08 -0.09 M-0.22 1122.1 C299.78 777, 599.77 431.89, 975.34 -0.15 M-0.22 1122.1 C294.2 783.42, 588.61 444.73, 975.34 -0.15 M0.05 1146.18 C280.42 823.65, 560.8 501.11, 996.6 -0.22 M0.05 1146.18 C222.65 890.11, 445.24 634.05, 996.6 -0.22 M0.32 1170.26 C256.39 875.69, 512.45 581.11, 1017.86 -0.29 M0.32 1170.26 C315.89 807.23, 631.47 444.2, 1017.86 -0.29 M6.49 1187.55 C230.07 930.35, 453.65 673.15, 1039.12 -0.36 M6.49 1187.55 C411.99 721.07, 817.49 254.6, 1039.12 -0.36 M27.09 1188.24 C342 825.98, 656.91 463.72, 1059.73 0.32 M27.09 1188.24 C266.24 913.13, 505.38 638.03, 1059.73 0.32 M48.35 1188.17 C440.85 736.65, 833.34 285.14, 1080.99 0.26 M48.35 1188.17 C321.23 874.25, 594.11 560.34, 1080.99 0.26 M69.61 1188.1 C423.02 781.54, 776.44 374.99, 1102.25 0.19 M69.61 1188.1 C329.69 888.92, 589.76 589.74, 1102.25 0.19 M90.87 1188.03 C433.77 793.57, 776.67 399.11, 1123.51 0.12 M90.87 1188.03 C324.39 919.4, 557.91 650.76, 1123.51 0.12 M112.13 1187.96 C353.42 910.39, 594.7 632.83, 1144.77 0.05 M112.13 1187.96 C459.46 788.41, 806.79 388.85, 1144.77 0.05 M133.39 1187.89 C420.18 857.98, 706.97 528.07, 1166.03 -0.02 M133.39 1187.89 C542.4 717.38, 951.41 246.87, 1166.03 -0.02 M154.65 1187.82 C510.56 778.4, 866.46 368.98, 1187.29 -0.09 M154.65 1187.82 C495.59 795.62, 836.53 403.41, 1187.29 -0.09 M175.91 1187.75 C555.6 750.97, 935.29 314.19, 1208.55 -0.16 M175.91 1187.75 C507.93 805.81, 839.95 423.87, 1208.55 -0.16 M197.17 1187.69 C440.88 907.33, 684.59 626.98, 1229.81 -0.23 M197.17 1187.69 C463.67 881.11, 730.17 574.54, 1229.81 -0.23 M218.43 1187.62 C629.29 714.98, 1040.15 242.33, 1251.07 -0.3 M218.43 1187.62 C507.14 855.49, 795.86 523.37, 1251.07 -0.3 M239.69 1187.55 C615.34 755.41, 990.99 323.27, 1272.33 -0.37 M239.69 1187.55 C471.58 920.8, 703.46 654.05, 1272.33 -0.37 M260.3 1188.23 C579.92 820.55, 899.54 452.86, 1292.93 0.32 M260.3 1188.23 C649.69 740.29, 1039.07 292.35, 1292.93 0.32 M281.56 1188.16 C673.31 737.5, 1065.06 286.84, 1314.19 0.25 M281.56 1188.16 C605.55 815.45, 929.54 442.74, 1314.19 0.25 M302.82 1188.09 C601.43 844.58, 900.04 501.06, 1335.45 0.18 M302.82 1188.09 C561.5 890.51, 820.19 592.93, 1335.45 0.18 M324.08 1188.03 C561.06 915.41, 798.03 642.8, 1356.72 0.11 M324.08 1188.03 C623.04 844.1, 922.01 500.18, 1356.72 0.11 M345.34 1187.96 C622.8 868.77, 900.27 549.58, 1377.98 0.04 M345.34 1187.96 C723.34 753.12, 1101.34 318.28, 1377.98 0.04 M366.6 1187.89 C631.1 883.61, 895.61 579.33, 1399.24 -0.03 M366.6 1187.89 C671.61 837.01, 976.63 486.13, 1399.24 -0.03 M387.86 1187.82 C620.47 920.23, 853.08 652.64, 1420.5 -0.09 M387.86 1187.82 C717.88 808.17, 1047.9 428.52, 1420.5 -0.09 M409.12 1187.75 C715.47 835.33, 1021.83 482.91, 1441.76 -0.16 M409.12 1187.75 C775.24 766.58, 1141.35 345.41, 1441.76 -0.16 M430.38 1187.68 C720.91 853.47, 1011.44 519.25, 1463.02 -0.23 M430.38 1187.68 C778.05 787.73, 1125.72 387.78, 1463.02 -0.23 M451.64 1187.61 C847.87 731.8, 1244.1 275.99, 1484.28 -0.3 M451.64 1187.61 C730.38 866.95, 1009.13 546.3, 1484.28 -0.3 M472.9 1187.54 C684.34 944.31, 895.78 701.07, 1505.54 -0.37 M472.9 1187.54 C857.64 744.95, 1242.38 302.36, 1505.54 -0.37 M493.5 1188.23 C746.72 896.94, 999.93 605.65, 1526.14 0.32 M493.5 1188.23 C828.21 803.19, 1162.93 418.15, 1526.14 0.32 M514.76 1188.16 C833.44 821.56, 1152.12 454.97, 1547.4 0.25 M514.76 1188.16 C733.9 936.07, 953.04 683.98, 1547.4 0.25 M536.02 1188.09 C747.14 945.23, 958.25 702.37, 1568.66 0.18 M536.02 1188.09 C927.83 737.37, 1319.63 286.65, 1568.66 0.18 M557.28 1188.02 C920.06 770.7, 1282.83 353.38, 1589.92 0.11 M557.28 1188.02 C939.58 748.24, 1321.87 308.46, 1589.92 0.11 M578.54 1187.95 C867.67 855.35, 1156.79 522.76, 1611.18 0.04 M578.54 1187.95 C968.64 739.2, 1358.74 290.44, 1611.18 0.04 M599.8 1187.88 C844.13 906.82, 1088.45 625.76, 1632.44 -0.03 M599.8 1187.88 C1003.45 723.55, 1407.09 259.21, 1632.44 -0.03 M621.06 1187.81 C916.12 848.39, 1211.18 508.97, 1653.7 -0.1 M621.06 1187.81 C869.76 901.73, 1118.45 615.64, 1653.7 -0.1 M642.32 1187.75 C966.09 815.29, 1289.86 442.84, 1674.96 -0.17 M642.32 1187.75 C1001.92 774.08, 1361.52 360.41, 1674.96 -0.17 M663.59 1187.68 C1005.27 794.62, 1346.95 401.56, 1696.22 -0.24 M663.59 1187.68 C1045.61 748.21, 1427.63 308.74, 1696.22 -0.24 M684.85 1187.61 C970.34 859.18, 1255.83 530.76, 1717.48 -0.31 M684.85 1187.61 C1042.08 776.66, 1399.31 365.71, 1717.48 -0.31 M706.11 1187.54 C1036.51 807.46, 1366.91 427.38, 1738.74 -0.37 M706.11 1187.54 C1063.56 776.34, 1421.01 365.14, 1738.74 -0.37 M726.71 1188.22 C1000.44 873.33, 1274.17 558.44, 1759.35 0.31 M726.71 1188.22 C951.19 929.99, 1175.67 671.76, 1759.35 0.31 M747.97 1188.16 C1009 887.87, 1270.04 587.58, 1780.61 0.24 M747.97 1188.16 C985.64 914.74, 1223.32 641.33, 1780.61 0.24 M769.23 1188.09 C1145.47 755.27, 1521.71 322.46, 1801.87 0.17 M769.23 1188.09 C1002.22 920.07, 1235.2 652.05, 1801.87 0.17 M790.49 1188.02 C1125.58 802.54, 1460.68 417.05, 1823.13 0.1 M790.49 1188.02 C1061.43 876.33, 1332.38 564.65, 1823.13 0.1 M811.75 1187.95 C1126.26 826.14, 1440.77 464.34, 1844.39 0.04 M811.75 1187.95 C1187.02 756.25, 1562.28 324.56, 1844.39 0.04 M833.01 1187.88 C1065.94 919.92, 1298.88 651.96, 1865.65 -0.03 M833.01 1187.88 C1207.76 756.78, 1582.5 325.69, 1865.65 -0.03 M854.27 1187.81 C1227.43 758.54, 1600.58 329.28, 1886.91 -0.1 M854.27 1187.81 C1115.71 887.06, 1377.14 586.32, 1886.91 -0.1 M875.53 1187.74 C1125.17 900.56, 1374.82 613.38, 1908.17 -0.17 M875.53 1187.74 C1114.59 912.73, 1353.65 637.73, 1908.17 -0.17 M896.79 1187.67 C1160.78 883.99, 1424.76 580.31, 1929.43 -0.24 M896.79 1187.67 C1151.9 894.21, 1407 600.74, 1929.43 -0.24 M918.05 1187.6 C1283.74 766.93, 1649.42 346.26, 1950.69 -0.31 M918.05 1187.6 C1173.79 893.41, 1429.54 599.21, 1950.69 -0.31 M939.31 1187.53 C1201.07 886.42, 1462.83 585.3, 1971.29 0.38 M939.31 1187.53 C1276.6 799.53, 1613.88 411.53, 1971.29 0.38 M959.92 1188.22 C1310.07 785.41, 1660.23 382.61, 1992.55 0.31 M959.92 1188.22 C1342.53 748.07, 1725.14 307.93, 1992.55 0.31 M981.18 1188.15 C1256.81 871.07, 1532.45 553.98, 2013.81 0.24 M981.18 1188.15 C1191.87 945.77, 1402.57 703.39, 2013.81 0.24 M1002.44 1188.08 C1279.53 869.32, 1556.63 550.56, 2035.07 0.17 M1002.44 1188.08 C1249.16 904.25, 1495.89 620.43, 2035.07 0.17 M1023.7 1188.01 C1387.53 769.47, 1751.37 350.92, 2056.33 0.1 M1023.7 1188.01 C1250.72 926.86, 1477.74 665.7, 2056.33 0.1 M1044.96 1187.94 C1260.67 939.8, 1476.38 691.65, 2077.59 0.03 M1044.96 1187.94 C1325.23 865.52, 1605.51 543.1, 2077.59 0.03 M1066.22 1187.88 C1285.19 935.97, 1504.17 684.07, 2098.85 -0.04 M1066.22 1187.88 C1319.35 896.68, 1572.48 605.49, 2098.85 -0.04 M1087.48 1187.81 C1421.1 804.01, 1754.73 420.22, 2120.11 -0.11 M1087.48 1187.81 C1465.63 752.79, 1843.78 317.77, 2120.11 -0.11 M1108.74 1187.74 C1411.88 839.01, 1715.02 490.28, 2141.37 -0.18 M1108.74 1187.74 C1501.61 735.79, 1894.48 283.85, 2141.37 -0.18 M1130 1187.67 C1510.57 749.87, 1891.15 312.07, 2162.63 -0.24 M1130 1187.67 C1337.75 948.67, 1545.51 709.68, 2162.63 -0.24 M1151.26 1187.6 C1450.37 843.51, 1749.49 499.41, 2183.89 -0.31 M1151.26 1187.6 C1415.68 883.42, 1680.1 579.23, 2183.89 -0.31 M1172.52 1187.53 C1583.5 714.75, 1994.48 241.98, 2204.5 0.37 M1172.52 1187.53 C1517.17 791.06, 1861.82 394.58, 2204.5 0.37 M1193.12 1188.22 C1439.36 904.95, 1685.61 621.68, 2225.76 0.3 M1193.12 1188.22 C1535.85 793.95, 1878.58 399.68, 2225.76 0.3 M1214.38 1188.15 C1483.15 878.97, 1751.91 569.79, 2246.36 0.99 M1214.38 1188.15 C1525.86 829.83, 1837.34 471.52, 2246.36 0.99 M1235.64 1188.08 C1461.33 928.45, 1687.02 668.83, 2245.97 25.83 M1235.64 1188.08 C1637.33 725.99, 2039.02 263.9, 2245.97 25.83 M1256.9 1188.01 C1552.42 848.05, 1847.94 508.09, 2246.24 49.91 M1256.9 1188.01 C1575.2 821.85, 1893.49 455.7, 2246.24 49.91 M1278.16 1187.94 C1542.67 883.66, 1807.18 579.37, 2246.51 73.99 M1278.16 1187.94 C1541.96 884.47, 1805.76 581.01, 2246.51 73.99 M1299.42 1187.87 C1537.93 913.49, 1776.45 639.12, 2246.12 98.83 M1299.42 1187.87 C1668.94 762.79, 2038.45 337.71, 2246.12 98.83 M1320.68 1187.8 C1563.07 908.97, 1805.46 630.13, 2246.38 122.91 M1320.68 1187.8 C1603.41 862.56, 1886.14 537.31, 2246.38 122.91 M1341.94 1187.73 C1662.29 819.21, 1982.64 450.69, 2245.99 147.74 M1341.94 1187.73 C1689.06 788.42, 2036.18 389.1, 2245.99 147.74 M1363.2 1187.66 C1547.58 975.56, 1731.95 763.46, 2246.26 171.83 M1363.2 1187.66 C1606.28 908.03, 1849.36 628.41, 2246.26 171.83 M1384.46 1187.6 C1587.43 954.1, 1790.4 720.61, 2246.52 195.91 M1384.46 1187.6 C1693.66 831.91, 2002.85 476.22, 2246.52 195.91 M1405.72 1187.53 C1723.97 821.42, 2042.22 455.32, 2246.13 220.74 M1405.72 1187.53 C1649.72 906.84, 1893.72 626.15, 2246.13 220.74 M1426.33 1188.21 C1606.8 980.61, 1787.26 773, 2246.4 244.82 M1426.33 1188.21 C1631.48 952.21, 1836.64 716.2, 2246.4 244.82 M1447.59 1188.14 C1752.18 837.75, 2056.78 487.35, 2246.01 269.66 M1447.59 1188.14 C1678.08 923, 1908.56 657.85, 2246.01 269.66 M1468.85 1188.07 C1646.36 983.87, 1823.88 779.66, 2246.28 293.74 M1468.85 1188.07 C1759.5 853.72, 2050.15 519.37, 2246.28 293.74 M1490.11 1188 C1696.26 950.85, 1902.41 713.7, 2246.54 317.82 M1490.11 1188 C1745.82 893.84, 2001.54 599.67, 2246.54 317.82 M1511.37 1187.94 C1713.97 954.87, 1916.56 721.81, 2246.15 342.66 M1511.37 1187.94 C1750.05 913.36, 1988.74 638.78, 2246.15 342.66 M1532.63 1187.87 C1712.79 980.62, 1892.95 773.37, 2246.42 366.74 M1532.63 1187.87 C1772.39 912.06, 2012.15 636.24, 2246.42 366.74 M1553.89 1187.8 C1812.05 890.82, 2070.21 593.83, 2246.03 391.58 M1553.89 1187.8 C1746.22 966.54, 1938.56 745.28, 2246.03 391.58 M1575.15 1187.73 C1821.47 904.36, 2067.8 621, 2246.3 415.66 M1575.15 1187.73 C1782.75 948.91, 1990.35 710.09, 2246.3 415.66 M1596.41 1187.66 C1743.48 1018.47, 1890.56 849.28, 2246.56 439.74 M1596.41 1187.66 C1783.31 972.66, 1970.2 757.66, 2246.56 439.74 M1617.67 1187.59 C1748.17 1037.47, 1878.67 887.34, 2246.17 464.58 M1617.67 1187.59 C1815.75 959.73, 2013.83 731.87, 2246.17 464.58 M1638.93 1187.52 C1843.53 952.15, 2048.14 716.78, 2246.44 488.66 M1638.93 1187.52 C1874.48 916.55, 2110.04 645.57, 2246.44 488.66 M1659.53 1188.21 C1783.16 1045.99, 1906.79 903.77, 2246.05 513.5 M1659.53 1188.21 C1858.89 958.88, 2058.24 729.55, 2246.05 513.5 M1680.79 1188.14 C1851.26 992.04, 2021.72 795.95, 2246.32 537.58 M1680.79 1188.14 C1846.23 997.82, 2011.67 807.51, 2246.32 537.58 M1702.05 1188.07 C1897.18 963.6, 2092.31 739.14, 2246.58 561.66 M1702.05 1188.07 C1919.71 937.69, 2137.36 687.3, 2246.58 561.66 M1723.31 1188 C1886.52 1000.26, 2049.72 812.51, 2246.19 586.5 M1723.31 1188 C1877.78 1010.31, 2032.24 832.62, 2246.19 586.5 M1744.57 1187.93 C1883.83 1027.74, 2023.08 867.54, 2246.46 610.58 M1744.57 1187.93 C1865.27 1049.08, 1985.97 910.23, 2246.46 610.58 M1765.83 1187.86 C1888.88 1046.31, 2011.93 904.76, 2246.07 635.42 M1765.83 1187.86 C1943.31 983.7, 2120.78 779.54, 2246.07 635.42 M1787.09 1187.79 C1943.53 1007.83, 2099.97 827.87, 2246.34 659.5 M1787.09 1187.79 C1896.3 1062.17, 2005.51 936.54, 2246.34 659.5 M1808.35 1187.72 C1903.04 1078.8, 1997.72 969.88, 2245.95 684.33 M1808.35 1187.72 C1925.58 1052.87, 2042.81 918.02, 2245.95 684.33 M1829.61 1187.66 C1981.96 1012.41, 2134.3 837.16, 2246.21 708.42 M1829.61 1187.66 C1953.29 1045.38, 2076.97 903.11, 2246.21 708.42 M1850.87 1187.59 C1997.45 1018.97, 2144.03 850.35, 2246.48 732.5 M1850.87 1187.59 C1939.1 1086.1, 2027.32 984.61, 2246.48 732.5 M1872.13 1187.52 C1990.18 1051.72, 2108.23 915.92, 2246.09 757.33 M1872.13 1187.52 C2004.01 1035.81, 2135.89 884.1, 2246.09 757.33 M1892.74 1188.2 C1995.97 1069.45, 2099.19 950.71, 2246.35 781.42 M1892.74 1188.2 C1980.15 1087.65, 2067.55 987.1, 2246.35 781.42 M1914 1188.13 C2046.48 1035.74, 2178.95 883.34, 2245.97 806.25 M1914 1188.13 C2003.56 1085.11, 2093.11 982.09, 2245.97 806.25 M1935.26 1188.07 C2012.74 1098.93, 2090.23 1009.8, 2246.23 830.33 M1935.26 1188.07 C2007.52 1104.94, 2079.79 1021.81, 2246.23 830.33 M1956.52 1188 C2063.69 1064.71, 2170.86 941.43, 2246.5 854.41 M1956.52 1188 C2055.85 1073.73, 2155.18 959.47, 2246.5 854.41 M1977.78 1187.93 C2059.93 1093.43, 2142.07 998.93, 2246.11 879.25 M1977.78 1187.93 C2044.93 1110.68, 2112.09 1033.43, 2246.11 879.25 M1999.04 1187.86 C2055 1123.48, 2110.96 1059.1, 2246.37 903.33 M1999.04 1187.86 C2096.72 1075.49, 2194.4 963.12, 2246.37 903.33 M2020.3 1187.79 C2070.42 1130.14, 2120.53 1072.49, 2245.98 928.17 M2020.3 1187.79 C2077.21 1122.32, 2134.12 1056.85, 2245.98 928.17 M2041.56 1187.72 C2105.73 1113.91, 2169.89 1040.09, 2246.25 952.25 M2041.56 1187.72 C2099.01 1121.63, 2156.46 1055.54, 2246.25 952.25 M2062.82 1187.65 C2127.38 1113.39, 2191.93 1039.13, 2246.52 976.33 M2062.82 1187.65 C2130.63 1109.65, 2198.44 1031.64, 2246.52 976.33 M2084.08 1187.58 C2119.88 1146.4, 2155.67 1105.23, 2246.13 1001.17 M2084.08 1187.58 C2146.16 1116.17, 2208.24 1044.75, 2246.13 1001.17 M2105.34 1187.51 C2153.87 1131.68, 2202.41 1075.85, 2246.39 1025.25 M2105.34 1187.51 C2135.23 1153.13, 2165.11 1118.76, 2246.39 1025.25 M2125.95 1188.2 C2159.98 1149.04, 2194.02 1109.89, 2246 1050.09 M2125.95 1188.2 C2163.8 1144.65, 2201.66 1101.1, 2246 1050.09 M2147.21 1188.13 C2171.49 1160.19, 2195.78 1132.25, 2246.27 1074.17 M2147.21 1188.13 C2183.94 1145.87, 2220.67 1103.62, 2246.27 1074.17 M2168.47 1188.06 C2190.45 1162.77, 2212.44 1137.48, 2246.54 1098.25 M2168.47 1188.06 C2185.64 1168.3, 2202.82 1148.54, 2246.54 1098.25 M2189.73 1187.99 C2212.02 1162.35, 2234.31 1136.7, 2246.15 1123.09 M2189.73 1187.99 C2207.55 1167.48, 2225.38 1146.98, 2246.15 1123.09 M2210.99 1187.92 C2223.06 1174.03, 2235.13 1160.15, 2246.41 1147.17 M2210.99 1187.92 C2220.54 1176.93, 2230.09 1165.94, 2246.41 1147.17 M2232.25 1187.85 C2236.79 1182.63, 2241.33 1177.4, 2246.02 1172.01 M2232.25 1187.85 C2236.34 1183.14, 2240.44 1178.43, 2246.02 1172.01 M0.16 1182.64 C0.16 1182.64, 0.16 1182.64, 0.16 1182.64 M0.16 1182.64 C0.16 1182.64, 0.16 1182.64, 0.16 1182.64 M24.24 1182.37 C17.48 1176.49, 10.71 1170.61, 0.09 1161.38 M24.24 1182.37 C18.35 1177.25, 12.46 1172.13, 0.09 1161.38 M49.08 1182.76 C35.76 1171.18, 22.44 1159.61, 0.02 1140.12 M49.08 1182.76 C37.2 1172.44, 25.33 1162.12, 0.02 1140.12 M73.16 1182.5 C53.21 1165.15, 33.26 1147.81, -0.05 1118.86 M73.16 1182.5 C53.73 1165.61, 34.3 1148.72, -0.05 1118.86 M97.24 1182.23 C75.75 1163.55, 54.25 1144.86, -0.12 1097.6 M97.24 1182.23 C62.38 1151.92, 27.52 1121.62, -0.12 1097.6 M122.08 1182.62 C94.11 1158.31, 66.14 1133.99, -0.19 1076.34 M122.08 1182.62 C79.24 1145.38, 36.41 1108.15, -0.19 1076.34 M146.16 1182.35 C89.54 1133.13, 32.92 1083.92, -0.26 1055.08 M146.16 1182.35 C116.05 1156.18, 85.94 1130, -0.26 1055.08 M170.99 1182.74 C125.45 1143.15, 79.9 1103.56, -0.32 1033.82 M170.99 1182.74 C125.19 1142.93, 79.39 1103.11, -0.32 1033.82 M195.08 1182.48 C132.48 1128.06, 69.88 1073.64, 0.36 1013.21 M195.08 1182.48 C155.03 1147.66, 114.98 1112.85, 0.36 1013.21 M219.16 1182.21 C132.46 1106.85, 45.77 1031.48, 0.29 991.95 M219.16 1182.21 C161.24 1131.87, 103.33 1081.52, 0.29 991.95 M243.99 1182.6 C165.36 1114.24, 86.72 1045.88, 0.22 970.69 M243.99 1182.6 C193.12 1138.37, 142.24 1094.14, 0.22 970.69 M268.08 1182.33 C207.21 1129.42, 146.34 1076.51, 0.15 949.43 M268.08 1182.33 C168.93 1096.15, 69.79 1009.97, 0.15 949.43 M292.91 1182.72 C195.46 1098.01, 98 1013.29, 0.09 928.17 M292.91 1182.72 C177.24 1082.17, 61.57 981.62, 0.09 928.17 M316.99 1182.46 C233.94 1110.26, 150.88 1038.06, 0.02 906.91 M316.99 1182.46 C224.68 1102.21, 132.36 1021.96, 0.02 906.91 M341.08 1182.19 C259.12 1110.94, 177.16 1039.7, -0.05 885.65 M341.08 1182.19 C213.33 1071.14, 85.58 960.09, -0.05 885.65 M365.91 1182.58 C219.91 1055.66, 73.9 928.74, -0.12 864.39 M365.91 1182.58 C250.44 1082.2, 134.96 981.81, -0.12 864.39 M389.99 1182.31 C242.36 1053.98, 94.73 925.64, -0.19 843.13 M389.99 1182.31 C278.09 1085.04, 166.19 987.76, -0.19 843.13 M414.83 1182.7 C318.8 1099.22, 222.76 1015.74, -0.26 821.87 M414.83 1182.7 C327.77 1107.02, 240.71 1031.35, -0.26 821.87 M438.91 1182.44 C339.7 1096.2, 240.5 1009.96, -0.33 800.61 M438.91 1182.44 C306.6 1067.42, 174.29 952.41, -0.33 800.61 M463.75 1182.83 C302.34 1042.51, 140.92 902.2, 0.36 780.01 M463.75 1182.83 C315.16 1053.66, 166.57 924.5, 0.36 780.01 M487.83 1182.56 C338.26 1052.54, 188.68 922.51, 0.29 758.75 M487.83 1182.56 C333.39 1048.31, 178.94 914.05, 0.29 758.75 M511.91 1182.29 C392.18 1078.21, 272.44 974.12, 0.22 737.49 M511.91 1182.29 C371.41 1060.16, 230.91 938.02, 0.22 737.49 M536.75 1182.68 C380.85 1047.17, 224.96 911.65, 0.15 716.23 M536.75 1182.68 C396.08 1060.4, 255.41 938.12, 0.15 716.23 M560.83 1182.42 C354.53 1003.09, 148.24 823.76, 0.08 694.97 M560.83 1182.42 C405.19 1047.13, 249.56 911.83, 0.08 694.97 M585.67 1182.81 C414.82 1034.29, 243.97 885.77, 0.01 673.71 M585.67 1182.81 C353.92 981.35, 122.17 779.9, 0.01 673.71 M609.75 1182.54 C411.66 1010.35, 213.57 838.15, -0.06 652.45 M609.75 1182.54 C478.47 1068.42, 347.2 954.31, -0.06 652.45 M633.83 1182.27 C399.03 978.16, 164.22 774.05, -0.13 631.19 M633.83 1182.27 C503.54 1069.02, 373.25 955.76, -0.13 631.19 M658.67 1182.66 C477.5 1025.18, 296.34 867.69, -0.19 609.93 M658.67 1182.66 C425.98 980.39, 193.29 778.12, -0.19 609.93 M682.75 1182.4 C524.43 1044.78, 366.12 907.16, -0.26 588.66 M682.75 1182.4 C471.48 998.74, 260.21 815.09, -0.26 588.66 M707.58 1182.79 C506.72 1008.18, 305.85 833.57, -0.33 567.4 M707.58 1182.79 C540.3 1037.37, 373.01 891.95, -0.33 567.4 M731.67 1182.52 C492.85 974.92, 254.03 767.32, 0.35 546.8 M731.67 1182.52 C472.37 957.12, 213.07 731.72, 0.35 546.8 M755.75 1182.26 C595.64 1043.08, 435.53 903.9, 0.28 525.54 M755.75 1182.26 C461.5 926.47, 167.26 670.69, 0.28 525.54 M780.58 1182.65 C506.97 944.8, 233.36 706.95, 0.22 504.28 M780.58 1182.65 C532.15 966.68, 283.71 750.71, 0.22 504.28 M804.67 1182.38 C631.2 1031.59, 457.74 880.8, 0.15 483.02 M804.67 1182.38 C629.95 1030.5, 455.22 878.61, 0.15 483.02 M829.5 1182.77 C543.18 933.87, 256.86 684.98, 0.08 461.76 M829.5 1182.77 C657.37 1033.14, 485.24 883.5, 0.08 461.76 M853.58 1182.5 C643.46 999.84, 433.34 817.19, 0.01 440.5 M853.58 1182.5 C594.51 957.29, 335.43 732.08, 0.01 440.5 M877.67 1182.24 C529.34 879.44, 181.01 576.64, -0.06 419.24 M877.67 1182.24 C562.94 908.65, 248.21 635.06, -0.06 419.24 M902.5 1182.63 C586.3 907.75, 270.09 632.88, -0.13 397.98 M902.5 1182.63 C620.55 937.53, 338.61 692.44, -0.13 397.98 M926.58 1182.36 C613.86 910.51, 301.13 638.66, -0.2 376.72 M926.58 1182.36 C613.64 910.32, 300.7 638.28, -0.2 376.72 M951.42 1182.75 C599.24 876.6, 247.05 570.45, -0.27 355.46 M951.42 1182.75 C678.06 945.12, 404.7 707.49, -0.27 355.46 M975.5 1182.48 C737.28 975.4, 499.06 768.32, -0.34 334.2 M975.5 1182.48 C740.63 978.31, 505.75 774.13, -0.34 334.2 M999.58 1182.22 C757.03 971.37, 514.47 760.52, 0.35 313.59 M999.58 1182.22 C648.49 877.01, 297.39 571.81, 0.35 313.59 M1024.42 1182.61 C676.84 880.46, 329.25 578.3, 0.28 292.33 M1024.42 1182.61 C621.72 832.54, 219.02 482.48, 0.28 292.33 M1048.5 1182.34 C732.97 908.06, 417.44 633.77, 0.21 271.07 M1048.5 1182.34 C830.83 993.12, 613.15 803.9, 0.21 271.07 M1073.34 1182.73 C760.98 911.2, 448.63 639.68, 0.14 249.81 M1073.34 1182.73 C804.54 949.07, 535.74 715.4, 0.14 249.81 M1097.42 1182.46 C688.36 826.87, 279.3 471.28, 0.07 228.55 M1097.42 1182.46 C835.51 954.79, 573.6 727.11, 0.07 228.55 M1121.5 1182.2 C771.36 877.83, 421.23 573.46, 0 207.29 M1121.5 1182.2 C787.97 892.26, 454.43 602.32, 0 207.29 M1146.34 1182.59 C823.8 902.21, 501.26 621.83, -0.07 186.03 M1146.34 1182.59 C909.34 976.57, 672.34 770.54, -0.07 186.03 M1170.42 1182.32 C864.58 916.46, 558.74 650.59, -0.13 164.77 M1170.42 1182.32 C762.32 827.57, 354.23 472.81, -0.13 164.77 M1195.26 1182.71 C782.47 823.88, 369.69 465.05, -0.2 143.51 M1195.26 1182.71 C772.32 815.05, 349.38 447.4, -0.2 143.51 M1219.34 1182.44 C802.22 819.85, 385.1 457.25, -0.27 122.25 M1219.34 1182.44 C916.29 919, 613.23 655.56, -0.27 122.25 M1243.42 1182.18 C897.03 881.06, 550.63 579.95, -0.34 100.99 M1243.42 1182.18 C868.43 856.21, 493.45 530.24, -0.34 100.99 M1268.26 1182.57 C1010.31 958.34, 752.37 734.11, 0.34 80.39 M1268.26 1182.57 C797.93 773.72, 327.61 364.88, 0.34 80.39 M1292.34 1182.3 C917.4 856.37, 542.46 530.45, 0.28 59.13 M1292.34 1182.3 C838.58 787.85, 384.81 393.4, 0.28 59.13 M1317.17 1182.69 C1001.19 908.01, 685.2 633.32, 0.21 37.87 M1317.17 1182.69 C896.14 816.69, 475.1 450.69, 0.21 37.87 M1341.26 1182.43 C825.13 733.76, 309 285.09, 0.14 16.61 M1341.26 1182.43 C826.38 734.85, 311.51 287.28, 0.14 16.61 M1366.09 1182.81 C969.01 837.64, 571.93 492.46, 2.33 -2.68 M1366.09 1182.81 C1054.98 912.37, 743.86 641.92, 2.33 -2.68 M1390.17 1182.55 C1032.42 871.56, 674.66 560.56, 26.41 -2.95 M1390.17 1182.55 C898.7 755.32, 407.23 328.09, 26.41 -2.95 M1414.26 1182.28 C947.95 776.93, 481.64 371.57, 51.25 -2.56 M1414.26 1182.28 C1060.84 875.06, 707.42 567.84, 51.25 -2.56 M1439.09 1182.67 C1142.11 924.51, 845.13 666.35, 75.33 -2.83 M1439.09 1182.67 C1137.71 920.69, 836.33 658.7, 75.33 -2.83 M1463.17 1182.41 C1159.1 918.08, 855.03 653.75, 100.17 -2.44 M1463.17 1182.41 C1046.18 819.91, 629.18 457.42, 100.17 -2.44 M1488.01 1182.8 C1158.51 896.37, 829.01 609.93, 124.25 -2.7 M1488.01 1182.8 C961.81 725.38, 435.61 267.96, 124.25 -2.7 M1512.09 1182.53 C1089.75 815.39, 667.41 448.26, 148.33 -2.97 M1512.09 1182.53 C1115.91 838.13, 719.73 493.74, 148.33 -2.97 M1536.17 1182.26 C1100.51 803.55, 664.85 424.83, 173.17 -2.58 M1536.17 1182.26 C1188.99 880.46, 841.81 578.66, 173.17 -2.58 M1561.01 1182.65 C1257.11 918.47, 953.21 654.3, 197.25 -2.85 M1561.01 1182.65 C1199.46 868.36, 837.9 554.06, 197.25 -2.85 M1585.09 1182.39 C1131.33 787.94, 677.57 393.49, 222.09 -2.46 M1585.09 1182.39 C1166.54 818.55, 748 454.71, 222.09 -2.46 M1609.93 1182.78 C1161.55 793.01, 713.17 403.24, 246.17 -2.72 M1609.93 1182.78 C1185.01 813.4, 760.09 444.02, 246.17 -2.72 M1634.01 1182.51 C1146 758.29, 658 334.08, 270.25 -2.99 M1634.01 1182.51 C1358.42 942.94, 1082.83 703.38, 270.25 -2.99 M1658.09 1182.24 C1332.26 899, 1006.42 615.75, 295.09 -2.6 M1658.09 1182.24 C1329.07 896.23, 1000.04 610.21, 295.09 -2.6 M1682.93 1182.63 C1183.63 748.6, 684.34 314.57, 319.17 -2.87 M1682.93 1182.63 C1303.02 852.39, 923.12 522.14, 319.17 -2.87 M1707.01 1182.37 C1283.76 814.44, 860.51 446.51, 344.01 -2.48 M1707.01 1182.37 C1303.9 831.94, 900.78 481.52, 344.01 -2.48 M1731.85 1182.76 C1288.95 797.75, 846.05 412.75, 368.09 -2.74 M1731.85 1182.76 C1383.98 880.36, 1036.12 577.97, 368.09 -2.74 M1755.93 1182.49 C1284.93 773.06, 813.93 363.63, 392.17 -3.01 M1755.93 1182.49 C1421.09 891.42, 1086.25 600.35, 392.17 -3.01 M1780.01 1182.22 C1376.42 831.39, 972.83 480.55, 417.01 -2.62 M1780.01 1182.22 C1330.47 791.44, 880.92 400.66, 417.01 -2.62 M1804.85 1182.61 C1407.91 837.56, 1010.97 492.51, 441.09 -2.88 M1804.85 1182.61 C1407.62 837.31, 1010.39 492, 441.09 -2.88 M1828.93 1182.35 C1368.53 782.13, 908.12 381.9, 465.92 -2.49 M1828.93 1182.35 C1446.33 849.76, 1063.74 517.18, 465.92 -2.49 M1853.77 1182.74 C1389.53 779.19, 925.3 375.63, 490 -2.76 M1853.77 1182.74 C1358.38 752.11, 863 321.48, 490 -2.76 M1877.85 1182.47 C1601.48 942.23, 1325.12 701.99, 514.84 -2.37 M1877.85 1182.47 C1379.93 749.64, 882 316.8, 514.84 -2.37 M1901.93 1182.21 C1586.37 907.9, 1270.82 633.59, 538.92 -2.64 M1901.93 1182.21 C1600.18 919.9, 1298.44 657.6, 538.92 -2.64 M1926.76 1182.59 C1600.43 898.91, 1274.09 615.23, 563 -2.9 M1926.76 1182.59 C1625.46 920.68, 1324.16 658.76, 563 -2.9 M1950.85 1182.33 C1476.78 770.23, 1002.72 358.14, 587.84 -2.51 M1950.85 1182.33 C1466.57 761.35, 982.29 340.37, 587.84 -2.51 M1975.68 1182.72 C1578.87 837.78, 1182.07 492.84, 611.92 -2.78 M1975.68 1182.72 C1478.54 750.56, 981.39 318.39, 611.92 -2.78 M1999.76 1182.45 C1702.6 924.13, 1405.44 665.81, 636.76 -2.39 M1999.76 1182.45 C1612.24 845.58, 1224.71 508.71, 636.76 -2.39 M2023.85 1182.19 C1483.18 712.2, 942.52 242.2, 660.84 -2.66 M2023.85 1182.19 C1624.78 835.29, 1225.72 488.39, 660.84 -2.66 M2048.68 1182.58 C1753.84 926.27, 1458.99 669.96, 684.92 -2.92 M2048.68 1182.58 C1697.61 877.39, 1346.53 572.21, 684.92 -2.92 M2072.76 1182.31 C1676.67 837.99, 1280.57 493.66, 709.76 -2.53 M2072.76 1182.31 C1552.1 729.7, 1031.43 277.09, 709.76 -2.53 M2097.6 1182.7 C1740.69 872.44, 1383.78 562.18, 733.84 -2.8 M2097.6 1182.7 C1615.75 763.83, 1133.89 344.96, 733.84 -2.8 M2121.68 1182.43 C1709.65 824.26, 1297.63 466.09, 758.68 -2.41 M2121.68 1182.43 C1592.53 722.44, 1063.37 262.45, 758.68 -2.41 M2146.52 1182.82 C1711.18 804.39, 1275.84 425.95, 782.76 -2.68 M2146.52 1182.82 C1627.77 731.88, 1109.03 280.95, 782.76 -2.68 M2170.6 1182.56 C1820.71 878.4, 1470.82 574.25, 806.84 -2.94 M2170.6 1182.56 C1697.13 770.97, 1223.65 359.39, 806.84 -2.94 M2194.68 1182.29 C1787.53 828.35, 1380.37 474.42, 831.68 -2.55 M2194.68 1182.29 C1681.31 736.02, 1167.93 289.75, 831.68 -2.55 M2219.52 1182.68 C1710.08 739.83, 1200.65 296.99, 855.76 -2.82 M2219.52 1182.68 C1845.48 857.54, 1471.45 532.39, 855.76 -2.82 M2243.6 1182.41 C1759.05 761.2, 1274.5 339.99, 880.6 -2.43 M2243.6 1182.41 C1821.23 815.25, 1398.85 448.08, 880.6 -2.43 M2254.85 1170.99 C1757.02 738.23, 1259.19 305.47, 904.68 -2.7 M2254.85 1170.99 C1897.63 860.46, 1540.4 549.93, 904.68 -2.7 M2254.78 1149.73 C1737.4 699.98, 1220.01 250.22, 928.76 -2.96 M2254.78 1149.73 C1754.17 714.56, 1253.57 279.39, 928.76 -2.96 M2254.71 1128.47 C1795.65 729.41, 1336.58 330.35, 953.6 -2.57 M2254.71 1128.47 C1743.51 684.09, 1232.31 239.71, 953.6 -2.57 M2254.65 1107.21 C1809.4 720.17, 1364.15 333.12, 977.68 -2.84 M2254.65 1107.21 C1863.01 766.77, 1471.37 426.32, 977.68 -2.84 M2254.58 1085.95 C1838.95 724.65, 1423.32 363.35, 1002.51 -2.45 M2254.58 1085.95 C1987.04 853.38, 1719.5 620.81, 1002.51 -2.45 M2255.26 1065.35 C1859.36 721.19, 1463.45 377.04, 1026.6 -2.71 M2255.26 1065.35 C1942.93 793.85, 1630.6 522.34, 1026.6 -2.71 M2255.19 1044.09 C1884.81 722.12, 1514.42 400.15, 1050.68 -2.98 M2255.19 1044.09 C1940.7 770.7, 1626.21 497.32, 1050.68 -2.98 M2255.12 1022.83 C1963.32 769.17, 1671.52 515.51, 1075.51 -2.59 M2255.12 1022.83 C1893.52 708.49, 1531.91 394.15, 1075.51 -2.59 M2255.06 1001.57 C1820.42 623.75, 1385.79 245.93, 1099.59 -2.86 M2255.06 1001.57 C1851.82 651.04, 1448.59 300.52, 1099.59 -2.86 M2254.99 980.31 C2022.11 777.87, 1789.23 575.44, 1124.43 -2.47 M2254.99 980.31 C1825.47 606.93, 1395.95 233.56, 1124.43 -2.47 M2254.92 959.05 C2000.5 737.89, 1746.08 516.73, 1148.51 -2.73 M2254.92 959.05 C1955.23 698.53, 1655.54 438.02, 1148.51 -2.73 M2254.85 937.79 C1902.87 631.82, 1550.89 325.84, 1172.59 -3 M2254.85 937.79 C1908.33 636.56, 1561.8 335.33, 1172.59 -3 M2254.78 916.53 C1983.88 681.04, 1712.98 445.55, 1197.43 -2.61 M2254.78 916.53 C1937.61 640.81, 1620.43 365.1, 1197.43 -2.61 M2254.71 895.27 C1967.9 645.95, 1681.09 396.63, 1221.51 -2.88 M2254.71 895.27 C2045.06 713.02, 1835.41 530.77, 1221.51 -2.88 M2254.64 874.01 C2015.11 665.78, 1775.57 457.56, 1246.35 -2.49 M2254.64 874.01 C1963.04 620.53, 1671.45 367.04, 1246.35 -2.49 M2254.57 852.75 C1879.74 526.91, 1504.9 201.07, 1270.43 -2.75 M2254.57 852.75 C2024.92 653.11, 1795.27 453.48, 1270.43 -2.75 M2255.26 832.14 C2013.35 621.86, 1771.45 411.58, 1295.27 -2.36 M2255.26 832.14 C1898.96 522.42, 1542.67 212.7, 1295.27 -2.36 M2255.19 810.88 C1976.13 568.3, 1697.08 325.73, 1319.35 -2.63 M2255.19 810.88 C2024.56 610.4, 1793.93 409.92, 1319.35 -2.63 M2255.12 789.62 C1915.31 494.23, 1575.49 198.83, 1343.43 -2.9 M2255.12 789.62 C2019.83 585.08, 1784.53 380.55, 1343.43 -2.9 M2255.05 768.36 C1955.37 507.85, 1655.68 247.34, 1368.27 -2.51 M2255.05 768.36 C2071.67 608.95, 1888.29 449.54, 1368.27 -2.51 M2254.98 747.1 C1937.21 470.87, 1619.43 194.63, 1392.35 -2.77 M2254.98 747.1 C1959.97 490.65, 1664.95 234.2, 1392.35 -2.77 M2254.91 725.84 C1958.45 468.13, 1661.98 210.41, 1417.19 -2.38 M2254.91 725.84 C1996.28 501.02, 1737.65 276.19, 1417.19 -2.38 M2254.84 704.58 C2089.83 561.14, 1924.82 417.7, 1441.27 -2.65 M2254.84 704.58 C1933.87 425.57, 1612.9 146.55, 1441.27 -2.65 M2254.78 683.32 C2061.31 515.14, 1867.84 346.96, 1465.35 -2.92 M2254.78 683.32 C2036.7 493.75, 1818.63 304.18, 1465.35 -2.92 M2254.71 662.06 C1998.39 439.25, 1742.07 216.43, 1490.19 -2.53 M2254.71 662.06 C2050.57 484.61, 1846.44 307.16, 1490.19 -2.53 M2254.64 640.8 C2065.21 476.14, 1875.79 311.48, 1514.27 -2.79 M2254.64 640.8 C2059.9 471.52, 1865.16 302.24, 1514.27 -2.79 M2254.57 619.54 C2097 482.57, 1939.44 345.6, 1539.1 -2.4 M2254.57 619.54 C1975.19 376.68, 1695.8 133.81, 1539.1 -2.4 M2255.25 598.94 C2064.32 432.96, 1873.38 266.98, 1563.19 -2.67 M2255.25 598.94 C2011.33 386.9, 1767.41 174.86, 1563.19 -2.67 M2255.18 577.68 C2116.57 457.18, 1977.95 336.68, 1587.27 -2.94 M2255.18 577.68 C2071.05 417.61, 1886.92 257.55, 1587.27 -2.94 M2255.12 556.42 C2036.37 366.27, 1817.63 176.12, 1612.1 -2.55 M2255.12 556.42 C2089.49 412.44, 1923.87 268.47, 1612.1 -2.55 M2255.05 535.16 C2105.08 404.79, 1955.11 274.43, 1636.19 -2.81 M2255.05 535.16 C2123.23 420.57, 1991.42 305.99, 1636.19 -2.81 M2254.98 513.9 C2059.55 344.01, 1864.12 174.13, 1661.02 -2.42 M2254.98 513.9 C2123.62 399.71, 1992.27 285.52, 1661.02 -2.42 M2254.91 492.64 C2046.89 311.81, 1838.88 130.99, 1685.1 -2.69 M2254.91 492.64 C2042.65 308.12, 1830.39 123.61, 1685.1 -2.69 M2254.84 471.38 C2108.59 344.24, 1962.33 217.1, 1709.18 -2.95 M2254.84 471.38 C2082.62 321.67, 1910.4 171.96, 1709.18 -2.95 M2254.77 450.12 C2144.63 354.37, 2034.49 258.63, 1734.02 -2.56 M2254.77 450.12 C2096.45 312.49, 1938.14 174.87, 1734.02 -2.56 M2254.7 428.86 C2141.42 330.38, 2028.13 231.9, 1758.1 -2.83 M2254.7 428.86 C2084.32 280.75, 1913.94 132.63, 1758.1 -2.83 M2254.63 407.6 C2107.12 279.36, 1959.6 151.13, 1782.94 -2.44 M2254.63 407.6 C2142.85 310.42, 2031.07 213.25, 1782.94 -2.44 M2254.56 386.34 C2153.63 298.6, 2052.7 210.85, 1807.02 -2.71 M2254.56 386.34 C2104.46 255.85, 1954.35 125.37, 1807.02 -2.71 M2255.25 365.73 C2087.65 220.04, 1920.05 74.35, 1831.1 -2.97 M2255.25 365.73 C2093.84 225.42, 1932.43 85.1, 1831.1 -2.97 M2255.18 344.47 C2126.7 232.79, 1998.23 121.1, 1855.94 -2.58 M2255.18 344.47 C2153.76 256.31, 2052.35 168.15, 1855.94 -2.58 M2255.11 323.21 C2149.92 231.77, 2044.73 140.33, 1880.02 -2.85 M2255.11 323.21 C2171.25 250.31, 2087.38 177.4, 1880.02 -2.85 M2255.04 301.95 C2141.65 203.38, 2028.26 104.81, 1904.86 -2.46 M2255.04 301.95 C2153.43 213.62, 2051.83 125.3, 1904.86 -2.46 M2254.97 280.69 C2129.25 171.4, 2003.52 62.1, 1928.94 -2.73 M2254.97 280.69 C2178.48 214.2, 2102 147.71, 1928.94 -2.73 M2254.9 259.43 C2169.26 184.98, 2083.61 110.53, 1953.02 -2.99 M2254.9 259.43 C2144.82 163.73, 2034.73 68.03, 1953.02 -2.99 M2254.84 238.17 C2193.06 184.47, 2131.28 130.76, 1977.86 -2.6 M2254.84 238.17 C2154.62 151.05, 2054.4 63.94, 1977.86 -2.6 M2254.77 216.91 C2153.89 129.22, 2053.02 41.53, 2001.94 -2.87 M2254.77 216.91 C2197.09 166.77, 2139.41 116.63, 2001.94 -2.87 M2254.7 195.65 C2186.24 136.14, 2117.79 76.64, 2026.78 -2.48 M2254.7 195.65 C2178.77 129.64, 2102.83 63.64, 2026.78 -2.48 M2254.63 174.39 C2190.96 119.04, 2127.29 63.69, 2050.86 -2.75 M2254.63 174.39 C2181.11 110.48, 2107.59 46.57, 2050.86 -2.75 M2255.31 153.79 C2215.72 119.36, 2176.12 84.94, 2075.69 -2.36 M2255.31 153.79 C2191.34 98.17, 2127.36 42.56, 2075.69 -2.36 M2255.25 132.53 C2222.25 103.84, 2189.26 75.16, 2099.78 -2.62 M2255.25 132.53 C2212.87 95.69, 2170.49 58.85, 2099.78 -2.62 M2255.18 111.27 C2205.06 67.7, 2154.94 24.13, 2123.86 -2.89 M2255.18 111.27 C2226.52 86.36, 2197.87 61.45, 2123.86 -2.89 M2255.11 90.01 C2219.81 59.32, 2184.51 28.64, 2148.69 -2.5 M2255.11 90.01 C2233.49 71.22, 2211.88 52.43, 2148.69 -2.5 M2255.04 68.74 C2232.21 48.9, 2209.38 29.05, 2172.78 -2.77 M2255.04 68.74 C2223.27 41.13, 2191.51 13.52, 2172.78 -2.77 M2254.97 47.48 C2240.65 35.04, 2226.33 22.59, 2197.61 -2.38 M2254.97 47.48 C2242.25 36.43, 2229.54 25.38, 2197.61 -2.38 M2254.9 26.22 C2241.72 14.77, 2228.54 3.31, 2221.69 -2.64 M2254.9 26.22 C2244.72 17.37, 2234.53 8.52, 2221.69 -2.64" stroke="#f8f9fa" stroke-width="2" fill="none"></path><path d="M0 0 C512.52 0, 1025.03 0, 2245 0 M0 0 C512.84 0, 1025.69 0, 2245 0 M2245 0 C2245 296.64, 2245 593.28, 2245 1182.5 M2245 0 C2245 465.08, 2245 930.16, 2245 1182.5 M2245 1182.5 C1405.59 1182.5, 566.18 1182.5, 0 1182.5 M2245 1182.5 C1612.88 1182.5, 980.77 1182.5, 0 1182.5 M0 1182.5 C0 908.14, 0 633.78, 0 0 M0 1182.5 C0 839.08, 0 495.65, 0 0" stroke="#1e1e1e" stroke-width="4" fill="none"></path></g><g stroke-linecap="round"><g transform="translate(222.16666666666606 448.25000000000136) rotate(0 2 156.5)"><path d="M0 0 C0.67 52.17, 3.33 260.83, 4 313 M0 0 C0.67 52.17, 3.33 260.83, 4 313" stroke="#1e1e1e" stroke-width="4" fill="none"></path></g><g transform="translate(222.16666666666606 448.25000000000136) rotate(0 2 156.5)"><path d="M4 313 L-2.51 299.49 L10.17 299.33 L4 313" stroke="none" stroke-width="0" fill="#1e1e1e" fill-rule="evenodd"></path><path d="M4 313 C1.98 308.8, -0.05 304.6, -2.51 299.49 M4 313 C1.6 308.02, -0.8 303.04, -2.51 299.49 M-2.51 299.49 C2.35 299.43, 7.21 299.36, 10.17 299.33 M-2.51 299.49 C0.94 299.44, 4.4 299.4, 10.17 299.33 M10.17 299.33 C8.56 302.88, 6.96 306.43, 4 313 M10.17 299.33 C8.36 303.32, 6.56 307.31, 4 313 M4 313 C4 313, 4 313, 4 313 M4 313 C4 313, 4 313, 4 313" stroke="#1e1e1e" stroke-width="4" fill="none"></path></g></g><mask></mask><g stroke-linecap="round" transform="translate(1714.4999999999986 778.75) rotate(0 231.5 117.00000000000023)"><path d="M7.86 8.16 C7.86 8.16, 7.86 8.16, 7.86 8.16 M7.86 8.16 C7.86 8.16, 7.86 8.16, 7.86 8.16 M8.78 31.49 C18.24 20.61, 27.69 9.73, 34.37 2.05 M8.78 31.49 C17.05 21.97, 25.32 12.46, 34.37 2.05 M8.39 56.32 C21.86 40.83, 35.32 25.35, 55.63 1.98 M8.39 56.32 C26.85 35.09, 45.31 13.85, 55.63 1.98 M8.66 80.4 C30.6 55.16, 52.55 29.92, 76.89 1.91 M8.66 80.4 C30.31 55.5, 51.96 30.6, 76.89 1.91 M8.27 105.24 C43.56 64.65, 78.84 24.06, 98.15 1.85 M8.27 105.24 C36.37 72.92, 64.46 40.6, 98.15 1.85 M8.54 129.32 C31.42 103, 54.3 76.68, 119.41 1.78 M8.54 129.32 C35.83 97.93, 63.12 66.53, 119.41 1.78 M8.15 154.16 C45.52 111.17, 82.88 68.18, 140.67 1.71 M8.15 154.16 C58.71 95.99, 109.28 37.82, 140.67 1.71 M8.41 178.24 C48.87 131.7, 89.32 85.16, 161.28 2.39 M8.41 178.24 C40.64 141.17, 72.86 104.1, 161.28 2.39 M1.46 210.62 C63.32 139.47, 125.17 68.32, 182.54 2.32 M1.46 210.62 C71.83 129.67, 142.21 48.72, 182.54 2.32 M8.95 226.4 C78.6 146.28, 148.25 66.15, 203.8 2.26 M8.95 226.4 C80.46 144.14, 151.97 61.88, 203.8 2.26 M22.33 235.39 C68.99 181.72, 115.64 128.05, 225.06 2.19 M22.33 235.39 C89.11 158.58, 155.88 81.76, 225.06 2.19 M39 240.61 C94.19 177.12, 149.38 113.63, 246.32 2.12 M39 240.61 C85.69 186.9, 132.37 133.2, 246.32 2.12 M60.26 240.54 C138.35 150.71, 216.44 60.88, 267.58 2.05 M60.26 240.54 C123.3 168.02, 186.34 95.5, 267.58 2.05 M81.52 240.47 C162.9 146.85, 244.28 53.23, 288.84 1.98 M81.52 240.47 C154.17 156.89, 226.83 73.31, 288.84 1.98 M102.78 240.4 C160.93 173.5, 219.09 106.61, 310.1 1.91 M102.78 240.4 C147.91 188.49, 193.04 136.57, 310.1 1.91 M124.04 240.33 C177.63 178.69, 231.21 117.04, 331.36 1.84 M124.04 240.33 C178.48 177.7, 232.92 115.08, 331.36 1.84 M145.3 240.26 C189.11 189.87, 232.91 139.48, 352.62 1.77 M145.3 240.26 C203.31 173.53, 261.32 106.8, 352.62 1.77 M166.56 240.19 C209.34 190.99, 252.11 141.78, 373.88 1.7 M166.56 240.19 C236.24 160.03, 305.93 79.87, 373.88 1.7 M187.82 240.12 C251.69 166.66, 315.55 93.19, 394.48 2.39 M187.82 240.12 C250.82 167.66, 313.81 95.19, 394.48 2.39 M209.08 240.05 C270.81 169.04, 332.54 98.04, 415.74 2.32 M209.08 240.05 C271.12 168.69, 333.15 97.33, 415.74 2.32 M230.34 239.98 C289.4 172.05, 348.46 104.11, 438.31 0.74 M230.34 239.98 C274.38 189.33, 318.41 138.68, 438.31 0.74 M250.95 240.67 C295.25 189.71, 339.55 138.75, 453.67 7.47 M250.95 240.67 C319.6 161.69, 388.25 82.72, 453.67 7.47 M272.21 240.6 C332.88 170.81, 393.55 101.01, 463.78 20.23 M272.21 240.6 C334.32 169.15, 396.43 97.7, 463.78 20.23 M293.47 240.53 C358.6 165.6, 423.74 90.67, 469.95 37.52 M293.47 240.53 C362.31 161.34, 431.15 82.14, 469.95 37.52 M314.73 240.46 C370.18 176.67, 425.63 112.89, 469.56 62.35 M314.73 240.46 C356.64 192.25, 398.56 144.03, 469.56 62.35 M335.99 240.39 C386.03 182.83, 436.07 125.26, 469.82 86.43 M335.99 240.39 C369.14 202.26, 402.3 164.12, 469.82 86.43 M357.25 240.33 C382.99 210.71, 408.74 181.09, 469.43 111.27 M357.25 240.33 C389.14 203.64, 421.03 166.95, 469.43 111.27 M378.51 240.26 C412.88 200.72, 447.24 161.19, 469.7 135.35 M378.51 240.26 C402.17 213.04, 425.83 185.82, 469.7 135.35 M399.77 240.19 C422.39 214.16, 445.02 188.13, 469.97 159.43 M399.77 240.19 C421.02 215.74, 442.26 191.3, 469.97 159.43 M421.03 240.12 C437.64 221.01, 454.25 201.9, 469.58 184.27 M421.03 240.12 C432.1 227.39, 443.16 214.66, 469.58 184.27 M450.82 230.24 C454.15 226.41, 457.47 222.58, 461.97 217.41 M450.82 230.24 C453.81 226.79, 456.8 223.35, 461.97 217.41" stroke="#1e1e1e" stroke-width="2" fill="none"></path><path d="M32 0 M32 0 C173.35 0, 314.71 0, 431 0 M32 0 C155.88 0, 279.76 0, 431 0 M431 0 C452.33 0, 463 10.67, 463 32 M431 0 C452.33 0, 463 10.67, 463 32 M463 32 C463 79.42, 463 126.84, 463 202 M463 32 C463 97.2, 463 162.4, 463 202 M463 202 C463 223.33, 452.33 234, 431 234 M463 202 C463 223.33, 452.33 234, 431 234 M431 234 C304.85 234, 178.7 234, 32 234 M431 234 C306.61 234, 182.22 234, 32 234 M32 234 C10.67 234, 0 223.33, 0 202 M32 234 C10.67 234, 0 223.33, 0 202 M0 202 C0 159.72, 0 117.45, 0 32 M0 202 C0 138.74, 0 75.48, 0 32 M0 32 C0 10.67, 10.67 0, 32 0 M0 32 C0 10.67, 10.67 0, 32 0" stroke="#1e1e1e" stroke-width="4" fill="none"></path></g><g transform="translate(224.84583314260044 117) rotate(0 10.550000190734863 21.59999999999991)"><text x="10.550000190734863" y="0" font-family="Cascadia, Segoe UI Emoji" font-size="36px" fill="#1e1e1e" text-anchor="middle" style="white-space: pre;" direction="ltr" dominant-baseline="text-before-edge">1</text></g><g transform="translate(487.5124998092665 126.33333333333394) rotate(0 10.550000190734863 21.59999999999991)"><text x="10.550000190734863" y="0" font-family="Cascadia, Segoe UI Emoji" font-size="36px" fill="#1e1e1e" text-anchor="middle" style="white-space: pre;" direction="ltr" dominant-baseline="text-before-edge">2</text></g><g transform="translate(764.6791664759335 131.83333333333394) rotate(0 10.550000190734863 21.59999999999991)"><text x="10.550000190734863" y="0" font-family="Cascadia, Segoe UI Emoji" font-size="36px" fill="#1e1e1e" text-anchor="middle" style="white-space: pre;" direction="ltr" dominant-baseline="text-before-edge">3</text></g><g transform="translate(1031.3458331426004 121.83333333333394) rotate(0 10.550000190734863 21.59999999999991)"><text x="10.550000190734863" y="0" font-family="Cascadia, Segoe UI Emoji" font-size="36px" fill="#1e1e1e" text-anchor="middle" style="white-space: pre;" direction="ltr" dominant-baseline="text-before-edge">4</text></g><g transform="translate(1305.6791664759335 129.66666666666788) rotate(0 10.550000190734863 21.59999999999991)"><text x="10.550000190734863" y="0" font-family="Cascadia, Segoe UI Emoji" font-size="36px" fill="#1e1e1e" text-anchor="middle" style="white-space: pre;" direction="ltr" dominant-baseline="text-before-edge">5</text></g><g transform="translate(1565.3458331426 136.83333333333394) rotate(0 10.550000190734863 21.59999999999991)"><text x="10.550000190734863" y="0" font-family="Cascadia, Segoe UI Emoji" font-size="36px" fill="#1e1e1e" text-anchor="middle" style="white-space: pre;" direction="ltr" dominant-baseline="text-before-edge">6</text></g><g stroke-linecap="round" transform="translate(98.3958333333353 196.5) rotate(0 134 117)"><path d="M7.86 8.16 C7.86 8.16, 7.86 8.16, 7.86 8.16 M7.86 8.16 C7.86 8.16, 7.86 8.16, 7.86 8.16 M8.78 31.49 C18.19 20.66, 27.6 9.84, 34.37 2.05 M8.78 31.49 C17.76 21.16, 26.74 10.84, 34.37 2.05 M8.39 56.32 C24.02 38.35, 39.65 20.37, 55.63 1.98 M8.39 56.32 C21.64 41.08, 34.89 25.84, 55.63 1.98 M8.66 80.4 C25.48 61.05, 42.3 41.7, 76.89 1.91 M8.66 80.4 C24.58 62.1, 40.49 43.79, 76.89 1.91 M8.27 105.24 C33.34 76.4, 58.41 47.56, 98.15 1.85 M8.27 105.24 C27.06 83.63, 45.85 62.01, 98.15 1.85 M8.54 129.32 C36.88 96.72, 65.22 64.12, 119.41 1.78 M8.54 129.32 C41.65 91.23, 74.76 53.14, 119.41 1.78 M8.15 154.16 C45.75 110.9, 83.35 67.65, 140.67 1.71 M8.15 154.16 C37.06 120.9, 65.97 87.65, 140.67 1.71 M8.41 178.24 C48.98 131.57, 89.55 84.91, 161.28 2.39 M8.41 178.24 C60.89 117.87, 113.37 57.5, 161.28 2.39 M1.46 210.62 C58.2 145.36, 114.94 80.09, 182.54 2.32 M1.46 210.62 C45.64 159.8, 89.82 108.98, 182.54 2.32 M8.95 226.4 C60.9 166.64, 112.85 106.88, 203.8 2.26 M8.95 226.4 C70.97 155.05, 133 83.69, 203.8 2.26 M22.33 235.39 C84.4 164, 146.46 92.6, 225.06 2.19 M22.33 235.39 C88.71 159.03, 155.09 82.67, 225.06 2.19 M39 240.61 C94.87 176.33, 150.75 112.06, 245.66 2.87 M39 240.61 C86.42 186.06, 133.83 131.51, 245.66 2.87 M60.26 240.54 C114.81 177.78, 169.37 115.02, 261.67 8.84 M60.26 240.54 C123.52 167.76, 186.79 94.99, 261.67 8.84 M81.52 240.47 C120.41 195.73, 159.3 150.99, 268.5 25.38 M81.52 240.47 C125.84 189.48, 170.17 138.49, 268.5 25.38 M102.78 240.4 C170.23 162.81, 237.68 85.21, 277.29 39.65 M102.78 240.4 C164.6 169.29, 226.42 98.17, 277.29 39.65 M124.04 240.33 C159.38 199.68, 194.72 159.02, 276.9 64.48 M124.04 240.33 C178.5 177.68, 232.96 115.03, 276.9 64.48 M145.3 240.26 C185.18 194.38, 225.07 148.5, 277.17 88.56 M145.3 240.26 C172.04 209.5, 198.79 178.73, 277.17 88.56 M166.56 240.19 C189.92 213.32, 213.28 186.44, 276.78 113.4 M166.56 240.19 C205.9 194.94, 245.24 149.69, 276.78 113.4 M187.82 240.12 C209.09 215.66, 230.35 191.2, 277.05 137.48 M187.82 240.12 C216.32 207.34, 244.83 174.55, 277.05 137.48 M209.08 240.05 C225.64 221.01, 242.19 201.97, 277.31 161.56 M209.08 240.05 C227.06 219.38, 245.03 198.7, 277.31 161.56 M230.34 239.98 C243.57 224.76, 256.81 209.54, 276.92 186.4 M230.34 239.98 C247.51 220.24, 264.67 200.49, 276.92 186.4" stroke="#ff8787" stroke-width="2" fill="none"></path><path d="M32 0 M32 0 C100.49 0, 168.98 0, 236 0 M32 0 C84.03 0, 136.06 0, 236 0 M236 0 C257.33 0, 268 10.67, 268 32 M236 0 C257.33 0, 268 10.67, 268 32 M268 32 C268 88.71, 268 145.42, 268 202 M268 32 C268 97.23, 268 162.45, 268 202 M268 202 C268 223.33, 257.33 234, 236 234 M268 202 C268 223.33, 257.33 234, 236 234 M236 234 C155.04 234, 74.08 234, 32 234 M236 234 C174.08 234, 112.16 234, 32 234 M32 234 C10.67 234, 0 223.33, 0 202 M32 234 C10.67 234, 0 223.33, 0 202 M0 202 C0 147.67, 0 93.34, 0 32 M0 202 C0 134.18, 0 66.36, 0 32 M0 32 C0 10.67, 10.67 0, 32 0 M0 32 C0 10.67, 10.67 0, 32 0" stroke="#1e1e1e" stroke-width="4" fill="none"></path></g><g transform="translate(116.34583028157749 270.3000000000002) rotate(0 116.05000305175781 43.200000000000045)"><text x="116.05000305175781" y="0" font-family="Cascadia, Segoe UI Emoji" font-size="36px" fill="#1e1e1e" text-anchor="middle" style="white-space: pre;" direction="ltr" dominant-baseline="text-before-edge">Moved-from</text><text x="116.05000305175781" y="43.199999999999996" font-family="Cascadia, Segoe UI Emoji" font-size="36px" fill="#1e1e1e" text-anchor="middle" style="white-space: pre;" direction="ltr" dominant-baseline="text-before-edge">&amp; Destroyed</text></g><g stroke-linecap="round" transform="translate(368.56249999999864 196.16666666666697) rotate(0 134 117)"><path d="M7.86 8.16 C7.86 8.16, 7.86 8.16, 7.86 8.16 M7.86 8.16 C7.86 8.16, 7.86 8.16, 7.86 8.16 M8.78 31.49 C15.3 23.99, 21.82 16.49, 34.37 2.05 M8.78 31.49 C17.06 21.96, 25.34 12.44, 34.37 2.05 M8.39 56.32 C23.29 39.19, 38.18 22.06, 55.63 1.98 M8.39 56.32 C19.55 43.49, 30.71 30.65, 55.63 1.98 M8.66 80.4 C25.88 60.6, 43.1 40.79, 76.89 1.91 M8.66 80.4 C31.34 54.32, 54.01 28.23, 76.89 1.91 M8.27 105.24 C34.45 75.12, 60.63 45, 98.15 1.85 M8.27 105.24 C27.68 82.91, 47.09 60.58, 98.15 1.85 M8.54 129.32 C46.25 85.94, 83.96 42.56, 119.41 1.78 M8.54 129.32 C37.71 95.76, 66.88 62.2, 119.41 1.78 M8.15 154.16 C35.3 122.92, 62.46 91.68, 140.67 1.71 M8.15 154.16 C55.41 99.79, 102.66 45.43, 140.67 1.71 M8.41 178.24 C55.13 124.5, 101.85 70.76, 161.28 2.39 M8.41 178.24 C57.33 121.97, 106.24 65.7, 161.28 2.39 M1.46 210.62 C54.24 149.91, 107.02 89.2, 182.54 2.32 M1.46 210.62 C47.13 158.09, 92.79 105.56, 182.54 2.32 M8.95 226.4 C78.46 146.43, 147.98 66.46, 203.8 2.26 M8.95 226.4 C79.44 145.31, 149.94 64.21, 203.8 2.26 M22.33 235.39 C74.33 175.57, 126.33 115.75, 225.06 2.19 M22.33 235.39 C83.44 165.1, 144.55 94.8, 225.06 2.19 M39 240.61 C84.85 187.86, 130.7 135.12, 245.66 2.87 M39 240.61 C80.77 192.56, 122.54 144.5, 245.66 2.87 M60.26 240.54 C135.98 153.43, 211.7 66.32, 261.67 8.84 M60.26 240.54 C102.1 192.41, 143.93 144.29, 261.67 8.84 M81.52 240.47 C128.16 186.82, 174.79 133.17, 268.5 25.38 M81.52 240.47 C139.33 173.97, 197.14 107.46, 268.5 25.38 M102.78 240.4 C171.89 160.9, 241 81.39, 277.29 39.65 M102.78 240.4 C151.49 184.37, 200.19 128.34, 277.29 39.65 M124.04 240.33 C171.17 186.11, 218.3 131.9, 276.9 64.48 M124.04 240.33 C170.8 186.54, 217.57 132.74, 276.9 64.48 M145.3 240.26 C176.06 204.88, 206.82 169.5, 277.17 88.56 M145.3 240.26 C188.61 190.45, 231.91 140.63, 277.17 88.56 M166.56 240.19 C198.28 203.71, 229.99 167.22, 276.78 113.4 M166.56 240.19 C196.31 205.97, 226.06 171.74, 276.78 113.4 M187.82 240.12 C212.31 211.95, 236.8 183.78, 277.05 137.48 M187.82 240.12 C221.1 201.84, 254.38 163.55, 277.05 137.48 M209.08 240.05 C236.18 208.88, 263.29 177.7, 277.31 161.56 M209.08 240.05 C225.02 221.73, 240.95 203.4, 277.31 161.56 M230.34 239.98 C243.24 225.15, 256.13 210.32, 276.92 186.4 M230.34 239.98 C245.95 222.03, 261.56 204.07, 276.92 186.4" stroke="#ff8787" stroke-width="2" fill="none"></path><path d="M32 0 M32 0 C86.37 0, 140.74 0, 236 0 M32 0 C89.87 0, 147.74 0, 236 0 M236 0 C257.33 0, 268 10.67, 268 32 M236 0 C257.33 0, 268 10.67, 268 32 M268 32 C268 93.61, 268 155.22, 268 202 M268 32 C268 82.66, 268 133.33, 268 202 M268 202 C268 223.33, 257.33 234, 236 234 M268 202 C268 223.33, 257.33 234, 236 234 M236 234 C180.47 234, 124.94 234, 32 234 M236 234 C183.87 234, 131.74 234, 32 234 M32 234 C10.67 234, 0 223.33, 0 202 M32 234 C10.67 234, 0 223.33, 0 202 M0 202 C0 145.03, 0 88.07, 0 32 M0 202 C0 146.98, 0 91.95, 0 32 M0 32 C0 10.67, 10.67 0, 32 0 M0 32 C0 10.67, 10.67 0, 32 0" stroke="#1e1e1e" stroke-width="4" fill="none"></path></g><g transform="translate(386.5124969482408 269.96666666666715) rotate(0 116.05000305175781 43.200000000000045)"><text x="116.05000305175781" y="0" font-family="Cascadia, Segoe UI Emoji" font-size="36px" fill="#1e1e1e" text-anchor="middle" style="white-space: pre;" direction="ltr" dominant-baseline="text-before-edge">Moved-from</text><text x="116.05000305175781" y="43.199999999999996" font-family="Cascadia, Segoe UI Emoji" font-size="36px" fill="#1e1e1e" text-anchor="middle" style="white-space: pre;" direction="ltr" dominant-baseline="text-before-edge">&amp; Destroyed</text></g><g stroke-linecap="round" transform="translate(638.4791666666674 196.33333333333303) rotate(0 134 117)"><path d="M7.86 8.16 C7.86 8.16, 7.86 8.16, 7.86 8.16 M7.86 8.16 C7.86 8.16, 7.86 8.16, 7.86 8.16 M8.78 31.49 C18.38 20.44, 27.98 9.4, 34.37 2.05 M8.78 31.49 C15.92 23.28, 23.06 15.06, 34.37 2.05 M8.39 56.32 C23.99 38.38, 39.59 20.43, 55.63 1.98 M8.39 56.32 C18.96 44.17, 29.52 32.02, 55.63 1.98 M8.66 80.4 C29.77 56.12, 50.88 31.84, 76.89 1.91 M8.66 80.4 C22.79 64.15, 36.91 47.9, 76.89 1.91 M8.27 105.24 C31.82 78.15, 55.36 51.07, 98.15 1.85 M8.27 105.24 C41.95 66.5, 75.63 27.75, 98.15 1.85 M8.54 129.32 C35.02 98.86, 61.5 68.4, 119.41 1.78 M8.54 129.32 C44.65 87.78, 80.77 46.23, 119.41 1.78 M8.15 154.16 C35.66 122.51, 63.17 90.87, 140.67 1.71 M8.15 154.16 C40.86 116.53, 73.57 78.9, 140.67 1.71 M8.41 178.24 C64.72 113.46, 121.04 48.68, 161.28 2.39 M8.41 178.24 C61.45 117.23, 114.49 56.21, 161.28 2.39 M1.46 210.62 C68.38 133.65, 135.29 56.68, 182.54 2.32 M1.46 210.62 C72.39 129.03, 143.33 47.43, 182.54 2.32 M8.95 226.4 C52.42 176.39, 95.9 126.38, 203.8 2.26 M8.95 226.4 C74.71 150.75, 140.47 75.11, 203.8 2.26 M22.33 235.39 C87.33 160.62, 152.32 85.86, 225.06 2.19 M22.33 235.39 C76.26 173.36, 130.18 111.33, 225.06 2.19 M39 240.61 C111.02 157.76, 183.04 74.91, 245.66 2.87 M39 240.61 C84.18 188.63, 129.37 136.65, 245.66 2.87 M60.26 240.54 C121.47 170.12, 182.68 99.71, 261.67 8.84 M60.26 240.54 C126.89 163.89, 193.53 87.23, 261.67 8.84 M81.52 240.47 C120.83 195.25, 160.14 150.03, 268.5 25.38 M81.52 240.47 C131.34 183.16, 181.16 125.85, 268.5 25.38 M102.78 240.4 C160.86 173.59, 218.94 106.78, 277.29 39.65 M102.78 240.4 C164.23 169.71, 225.68 99.03, 277.29 39.65 M124.04 240.33 C169.05 188.56, 214.05 136.78, 276.9 64.48 M124.04 240.33 C156.4 203.11, 188.75 165.89, 276.9 64.48 M145.3 240.26 C183.68 196.11, 222.06 151.96, 277.17 88.56 M145.3 240.26 C184.92 194.69, 224.53 149.11, 277.17 88.56 M166.56 240.19 C189.42 213.89, 212.28 187.6, 276.78 113.4 M166.56 240.19 C204 197.12, 241.44 154.05, 276.78 113.4 M187.82 240.12 C208.58 216.24, 229.34 192.37, 277.05 137.48 M187.82 240.12 C210.22 214.36, 232.62 188.59, 277.05 137.48 M209.08 240.05 C234.73 210.55, 260.38 181.05, 277.31 161.56 M209.08 240.05 C235.74 209.39, 262.4 178.72, 277.31 161.56 M230.34 239.98 C243.48 224.88, 256.61 209.77, 276.92 186.4 M230.34 239.98 C243.57 224.77, 256.79 209.56, 276.92 186.4" stroke="#ff8787" stroke-width="2" fill="none"></path><path d="M32 0 M32 0 C102.76 0, 173.52 0, 236 0 M32 0 C84.92 0, 137.84 0, 236 0 M236 0 C257.33 0, 268 10.67, 268 32 M236 0 C257.33 0, 268 10.67, 268 32 M268 32 C268 72.7, 268 113.4, 268 202 M268 32 C268 98.62, 268 165.24, 268 202 M268 202 C268 223.33, 257.33 234, 236 234 M268 202 C268 223.33, 257.33 234, 236 234 M236 234 C178.1 234, 120.19 234, 32 234 M236 234 C175.04 234, 114.08 234, 32 234 M32 234 C10.67 234, 0 223.33, 0 202 M32 234 C10.67 234, 0 223.33, 0 202 M0 202 C0 154.92, 0 107.84, 0 32 M0 202 C0 164.92, 0 127.83, 0 32 M0 32 C0 10.67, 10.67 0, 32 0 M0 32 C0 10.67, 10.67 0, 32 0" stroke="#1e1e1e" stroke-width="4" fill="none"></path></g><g transform="translate(656.4291636149096 270.1333333333332) rotate(0 116.05000305175781 43.200000000000045)"><text x="116.05000305175781" y="0" font-family="Cascadia, Segoe UI Emoji" font-size="36px" fill="#1e1e1e" text-anchor="middle" style="white-space: pre;" direction="ltr" dominant-baseline="text-before-edge">Moved-from</text><text x="116.05000305175781" y="43.199999999999996" font-family="Cascadia, Segoe UI Emoji" font-size="36px" fill="#1e1e1e" text-anchor="middle" style="white-space: pre;" direction="ltr" dominant-baseline="text-before-edge">&amp; Destroyed</text></g><g stroke-linecap="round" transform="translate(908.6458333333308 196.0000000000009) rotate(0 134 117)"><path d="M7.86 8.16 C7.86 8.16, 7.86 8.16, 7.86 8.16 M7.86 8.16 C7.86 8.16, 7.86 8.16, 7.86 8.16 M8.78 31.49 C15.53 23.73, 22.27 15.97, 34.37 2.05 M8.78 31.49 C16.15 23.02, 23.51 14.55, 34.37 2.05 M8.39 56.32 C23.45 39.01, 38.5 21.69, 55.63 1.98 M8.39 56.32 C25.75 36.36, 43.1 16.4, 55.63 1.98 M8.66 80.4 C25.32 61.24, 41.98 42.07, 76.89 1.91 M8.66 80.4 C33.27 52.09, 57.89 23.77, 76.89 1.91 M8.27 105.24 C42.08 66.35, 75.89 27.45, 98.15 1.85 M8.27 105.24 C34.58 74.97, 60.9 44.7, 98.15 1.85 M8.54 129.32 C49.63 82.06, 90.71 34.79, 119.41 1.78 M8.54 129.32 C44.31 88.17, 80.09 47.01, 119.41 1.78 M8.15 154.16 C37.19 120.75, 66.22 87.35, 140.67 1.71 M8.15 154.16 C45.11 111.63, 82.08 69.11, 140.67 1.71 M8.41 178.24 C64.16 114.11, 119.91 49.98, 161.28 2.39 M8.41 178.24 C53.26 126.65, 98.1 75.06, 161.28 2.39 M1.46 210.62 C58.89 144.56, 116.32 78.5, 182.54 2.32 M1.46 210.62 C62.23 140.73, 122.99 70.83, 182.54 2.32 M8.95 226.4 C80.81 143.73, 152.68 61.05, 203.8 2.26 M8.95 226.4 C57.14 170.97, 105.32 115.53, 203.8 2.26 M22.33 235.39 C64.95 186.36, 107.58 137.33, 225.06 2.19 M22.33 235.39 C78.47 170.81, 134.62 106.23, 225.06 2.19 M39 240.61 C89.76 182.21, 140.53 123.81, 245.66 2.87 M39 240.61 C103.82 166.03, 168.65 91.46, 245.66 2.87 M60.26 240.54 C102.29 192.19, 144.32 143.84, 261.67 8.84 M60.26 240.54 C104.99 189.08, 149.72 137.63, 261.67 8.84 M81.52 240.47 C133.51 180.67, 185.49 120.87, 268.5 25.38 M81.52 240.47 C133.19 181.03, 184.85 121.6, 268.5 25.38 M102.78 240.4 C153.92 181.57, 205.05 122.75, 277.29 39.65 M102.78 240.4 C154.21 181.24, 205.63 122.08, 277.29 39.65 M124.04 240.33 C165.2 192.98, 206.36 145.64, 276.9 64.48 M124.04 240.33 C165.9 192.18, 207.75 144.04, 276.9 64.48 M145.3 240.26 C173.55 207.77, 201.79 175.28, 277.17 88.56 M145.3 240.26 C187.92 191.24, 230.53 142.22, 277.17 88.56 M166.56 240.19 C193.33 209.4, 220.1 178.61, 276.78 113.4 M166.56 240.19 C199.56 202.24, 232.55 164.28, 276.78 113.4 M187.82 240.12 C222.92 199.74, 258.03 159.36, 277.05 137.48 M187.82 240.12 C218.21 205.17, 248.6 170.21, 277.05 137.48 M209.08 240.05 C232.47 213.15, 255.85 186.25, 277.31 161.56 M209.08 240.05 C229.61 216.44, 250.14 192.82, 277.31 161.56 M230.34 239.98 C240.69 228.08, 251.04 216.17, 276.92 186.4 M230.34 239.98 C243.6 224.73, 256.87 209.47, 276.92 186.4" stroke="#ff8787" stroke-width="2" fill="none"></path><path d="M32 0 M32 0 C99.95 0, 167.9 0, 236 0 M32 0 C89.33 0, 146.67 0, 236 0 M236 0 C257.33 0, 268 10.67, 268 32 M236 0 C257.33 0, 268 10.67, 268 32 M268 32 C268 94.93, 268 157.86, 268 202 M268 32 C268 87.65, 268 143.29, 268 202 M268 202 C268 223.33, 257.33 234, 236 234 M268 202 C268 223.33, 257.33 234, 236 234 M236 234 C162.24 234, 88.48 234, 32 234 M236 234 C157.73 234, 79.46 234, 32 234 M32 234 C10.67 234, 0 223.33, 0 202 M32 234 C10.67 234, 0 223.33, 0 202 M0 202 C0 155.4, 0 108.79, 0 32 M0 202 C0 160.19, 0 118.37, 0 32 M0 32 C0 10.67, 10.67 0, 32 0 M0 32 C0 10.67, 10.67 0, 32 0" stroke="#1e1e1e" stroke-width="4" fill="none"></path></g><g transform="translate(926.595830281573 269.8000000000011) rotate(0 116.05000305175781 43.200000000000045)"><text x="116.05000305175781" y="0" font-family="Cascadia, Segoe UI Emoji" font-size="36px" fill="#1e1e1e" text-anchor="middle" style="white-space: pre;" direction="ltr" dominant-baseline="text-before-edge">Moved-from</text><text x="116.05000305175781" y="43.199999999999996" font-family="Cascadia, Segoe UI Emoji" font-size="36px" fill="#1e1e1e" text-anchor="middle" style="white-space: pre;" direction="ltr" dominant-baseline="text-before-edge">&amp; Destroyed</text></g><g stroke-linecap="round" transform="translate(1178.4375000000007 196.41666666666697) rotate(0 134 117)"><path d="M7.86 8.16 C7.86 8.16, 7.86 8.16, 7.86 8.16 M7.86 8.16 C7.86 8.16, 7.86 8.16, 7.86 8.16 M8.78 31.49 C14.53 24.87, 20.28 18.26, 34.37 2.05 M8.78 31.49 C17.11 21.91, 25.43 12.34, 34.37 2.05 M8.39 56.32 C19.92 43.07, 31.44 29.81, 55.63 1.98 M8.39 56.32 C20.04 42.93, 31.68 29.54, 55.63 1.98 M8.66 80.4 C32.8 52.63, 56.95 24.86, 76.89 1.91 M8.66 80.4 C29.24 56.73, 49.82 33.06, 76.89 1.91 M8.27 105.24 C38.78 70.14, 69.29 35.05, 98.15 1.85 M8.27 105.24 C38.11 70.91, 67.96 36.58, 98.15 1.85 M8.54 129.32 C44.52 87.93, 80.5 46.54, 119.41 1.78 M8.54 129.32 C52.33 78.95, 96.12 28.57, 119.41 1.78 M8.15 154.16 C59.47 95.12, 110.79 36.08, 140.67 1.71 M8.15 154.16 C47.62 108.75, 87.09 63.34, 140.67 1.71 M8.41 178.24 C50.59 129.73, 92.76 81.21, 161.28 2.39 M8.41 178.24 C44.02 137.28, 79.62 96.32, 161.28 2.39 M1.46 210.62 C42.07 163.92, 82.67 117.21, 182.54 2.32 M1.46 210.62 C57.84 145.77, 114.22 80.91, 182.54 2.32 M8.95 226.4 C61.06 166.46, 113.17 106.51, 203.8 2.26 M8.95 226.4 C86.46 137.23, 163.98 48.06, 203.8 2.26 M22.33 235.39 C74.54 175.34, 126.74 115.29, 225.06 2.19 M22.33 235.39 C71.94 178.32, 121.55 121.26, 225.06 2.19 M39 240.61 C117.32 150.51, 195.64 60.41, 245.66 2.87 M39 240.61 C106.5 162.96, 174 85.31, 245.66 2.87 M60.26 240.54 C133.69 156.07, 207.11 71.61, 261.67 8.84 M60.26 240.54 C135.73 153.72, 211.2 66.9, 261.67 8.84 M81.52 240.47 C120.91 195.16, 160.3 149.85, 268.5 25.38 M81.52 240.47 C120.98 195.08, 160.43 149.69, 268.5 25.38 M102.78 240.4 C171.39 161.48, 240 82.55, 277.29 39.65 M102.78 240.4 C152.15 183.61, 201.52 126.81, 277.29 39.65 M124.04 240.33 C182.57 173, 241.09 105.68, 276.9 64.48 M124.04 240.33 C169.5 188.04, 214.95 135.75, 276.9 64.48 M145.3 240.26 C179.77 200.61, 214.23 160.97, 277.17 88.56 M145.3 240.26 C192.18 186.34, 239.05 132.41, 277.17 88.56 M166.56 240.19 C192.62 210.22, 218.67 180.25, 276.78 113.4 M166.56 240.19 C209.18 191.16, 251.81 142.13, 276.78 113.4 M187.82 240.12 C210.81 213.68, 233.79 187.24, 277.05 137.48 M187.82 240.12 C213.1 211.04, 238.38 181.96, 277.05 137.48 M209.08 240.05 C231.75 213.98, 254.42 187.9, 277.31 161.56 M209.08 240.05 C231.92 213.78, 254.77 187.5, 277.31 161.56 M230.34 239.98 C246.21 221.73, 262.08 203.48, 276.92 186.4 M230.34 239.98 C247.21 220.58, 264.07 201.19, 276.92 186.4" stroke="#ff8787" stroke-width="2" fill="none"></path><path d="M32 0 M32 0 C103.78 0, 175.55 0, 236 0 M32 0 C103.81 0, 175.62 0, 236 0 M236 0 C257.33 0, 268 10.67, 268 32 M236 0 C257.33 0, 268 10.67, 268 32 M268 32 C268 96.7, 268 161.39, 268 202 M268 32 C268 69.58, 268 107.17, 268 202 M268 202 C268 223.33, 257.33 234, 236 234 M268 202 C268 223.33, 257.33 234, 236 234 M236 234 C173.69 234, 111.39 234, 32 234 M236 234 C181.92 234, 127.85 234, 32 234 M32 234 C10.67 234, 0 223.33, 0 202 M32 234 C10.67 234, 0 223.33, 0 202 M0 202 C0 138.09, 0 74.17, 0 32 M0 202 C0 146.68, 0 91.36, 0 32 M0 32 C0 10.67, 10.67 0, 32 0 M0 32 C0 10.67, 10.67 0, 32 0" stroke="#1e1e1e" stroke-width="4" fill="none"></path></g><g transform="translate(1196.3874969482429 270.21666666666715) rotate(0 116.05000305175781 43.200000000000045)"><text x="116.05000305175781" y="0" font-family="Cascadia, Segoe UI Emoji" font-size="36px" fill="#1e1e1e" text-anchor="middle" style="white-space: pre;" direction="ltr" dominant-baseline="text-before-edge">Moved-from</text><text x="116.05000305175781" y="43.199999999999996" font-family="Cascadia, Segoe UI Emoji" font-size="36px" fill="#1e1e1e" text-anchor="middle" style="white-space: pre;" direction="ltr" dominant-baseline="text-before-edge">&amp; Destroyed</text></g><g stroke-linecap="round" transform="translate(1448.604166666665 196.08333333333303) rotate(0 134.0000000000001 117)"><path d="M7.86 8.16 C7.86 8.16, 7.86 8.16, 7.86 8.16 M7.86 8.16 C7.86 8.16, 7.86 8.16, 7.86 8.16 M8.78 31.49 C14.76 24.61, 20.74 17.74, 34.37 2.05 M8.78 31.49 C18.29 20.55, 27.79 9.62, 34.37 2.05 M8.39 56.32 C26.8 35.15, 45.21 13.97, 55.63 1.98 M8.39 56.32 C27.05 34.86, 45.7 13.4, 55.63 1.98 M8.66 80.4 C29.51 56.42, 50.35 32.44, 76.89 1.91 M8.66 80.4 C25.2 61.38, 41.74 42.35, 76.89 1.91 M8.27 105.24 C33.22 76.54, 58.18 47.83, 98.15 1.85 M8.27 105.24 C36.07 73.26, 63.87 41.28, 98.15 1.85 M8.54 129.32 C48.46 83.4, 88.38 37.47, 119.41 1.78 M8.54 129.32 C40.49 92.57, 72.43 55.82, 119.41 1.78 M8.15 154.16 C58.51 96.22, 108.88 38.28, 140.67 1.71 M8.15 154.16 C48.31 107.96, 88.47 61.75, 140.67 1.71 M8.41 178.24 C47.18 133.65, 85.94 89.06, 161.28 2.39 M8.41 178.24 C61.01 117.74, 113.6 57.24, 161.28 2.39 M1.46 210.62 C37.86 168.75, 74.26 126.88, 182.54 2.32 M1.46 210.62 C37.94 168.66, 74.42 126.69, 182.54 2.32 M8.95 226.4 C60.14 167.51, 111.34 108.61, 203.8 2.26 M8.95 226.4 C67.45 159.1, 125.96 91.8, 203.8 2.26 M22.33 235.39 C86.16 161.97, 149.98 88.55, 225.06 2.19 M22.33 235.39 C69.87 180.71, 117.4 126.03, 225.06 2.19 M39 240.61 C118.48 149.18, 197.95 57.76, 245.66 2.87 M39 240.61 C80.65 192.69, 122.31 144.77, 245.66 2.87 M60.26 240.54 C113.87 178.87, 167.47 117.2, 261.67 8.84 M60.26 240.54 C128.08 162.52, 195.9 84.5, 261.67 8.84 M81.52 240.47 C125.71 189.63, 169.9 138.8, 268.5 25.38 M81.52 240.47 C146.48 165.74, 211.44 91.01, 268.5 25.38 M102.78 240.4 C149.89 186.2, 197 132.01, 277.29 39.65 M102.78 240.4 C145.98 190.7, 189.19 141, 277.29 39.65 M124.04 240.33 C178.41 177.78, 232.78 115.24, 276.9 64.48 M124.04 240.33 C183.97 171.39, 243.9 102.45, 276.9 64.48 M145.3 240.26 C186.38 193, 227.46 145.75, 277.17 88.56 M145.3 240.26 C173.12 208.25, 200.95 176.25, 277.17 88.56 M166.56 240.19 C199.69 202.09, 232.81 163.98, 276.78 113.4 M166.56 240.19 C193.48 209.22, 220.41 178.25, 276.78 113.4 M187.82 240.12 C209.81 214.83, 231.8 189.54, 277.05 137.48 M187.82 240.12 C212.42 211.82, 237.02 183.52, 277.05 137.48 M209.08 240.05 C232.91 212.65, 256.73 185.24, 277.31 161.56 M209.08 240.05 C234.17 211.2, 259.25 182.34, 277.31 161.56 M230.34 239.98 C244.34 223.88, 258.34 207.77, 276.92 186.4 M230.34 239.98 C248.75 218.81, 267.15 197.64, 276.92 186.4" stroke="#ff8787" stroke-width="2" fill="none"></path><path d="M32 0 M32 0 C72.82 0, 113.63 0, 236 0 M32 0 C89.21 0, 146.42 0, 236 0 M236 0 C257.33 0, 268 10.67, 268 32 M236 0 C257.33 0, 268 10.67, 268 32 M268 32 C268 68.84, 268 105.68, 268 202 M268 32 C268 90.57, 268 149.15, 268 202 M268 202 C268 223.33, 257.33 234, 236 234 M268 202 C268 223.33, 257.33 234, 236 234 M236 234 C177.69 234, 119.39 234, 32 234 M236 234 C194.64 234, 153.28 234, 32 234 M32 234 C10.67 234, 0 223.33, 0 202 M32 234 C10.67 234, 0 223.33, 0 202 M0 202 C0 159.15, 0 116.31, 0 32 M0 202 C0 162.99, 0 123.98, 0 32 M0 32 C0 10.67, 10.67 0, 32 0 M0 32 C0 10.67, 10.67 0, 32 0" stroke="#1e1e1e" stroke-width="4" fill="none"></path></g><g transform="translate(1466.554163614907 269.8833333333332) rotate(0 116.05000305175793 43.200000000000045)"><text x="116.05000305175781" y="0" font-family="Cascadia, Segoe UI Emoji" font-size="36px" fill="#1e1e1e" text-anchor="middle" style="white-space: pre;" direction="ltr" dominant-baseline="text-before-edge">Moved-from</text><text x="116.05000305175781" y="43.199999999999996" font-family="Cascadia, Segoe UI Emoji" font-size="36px" fill="#1e1e1e" text-anchor="middle" style="white-space: pre;" direction="ltr" dominant-baseline="text-before-edge">&amp; Destroyed</text></g><g stroke-linecap="round" transform="translate(95.89583333333508 774.5) rotate(0 134 117.00000000000023)"><path d="M7.86 8.16 C7.86 8.16, 7.86 8.16, 7.86 8.16 M7.86 8.16 C7.86 8.16, 7.86 8.16, 7.86 8.16 M8.78 31.49 C18.99 19.75, 29.19 8.01, 34.37 2.05 M8.78 31.49 C17.56 21.39, 26.35 11.28, 34.37 2.05 M8.39 56.32 C24.62 37.66, 40.84 19, 55.63 1.98 M8.39 56.32 C19.42 43.64, 30.44 30.96, 55.63 1.98 M8.66 80.4 C30.88 54.85, 53.09 29.29, 76.89 1.91 M8.66 80.4 C34.04 51.21, 59.42 22.01, 76.89 1.91 M8.27 105.24 C31.83 78.14, 55.39 51.04, 98.15 1.85 M8.27 105.24 C35.34 74.1, 62.42 42.95, 98.15 1.85 M8.54 129.32 C52.66 78.56, 96.79 27.8, 119.41 1.78 M8.54 129.32 C31.27 103.17, 54.01 77.02, 119.41 1.78 M8.15 154.16 C40.11 117.39, 72.07 80.63, 140.67 1.71 M8.15 154.16 C37.98 119.84, 67.8 85.53, 140.67 1.71 M8.41 178.24 C69.05 108.49, 129.69 38.73, 161.28 2.39 M8.41 178.24 C50.61 129.7, 92.8 81.17, 161.28 2.39 M1.46 210.62 C55.99 147.89, 110.52 85.16, 182.54 2.32 M1.46 210.62 C66.89 135.36, 132.32 60.09, 182.54 2.32 M8.95 226.4 C59.04 168.77, 109.14 111.14, 203.8 2.26 M8.95 226.4 C84.73 139.22, 160.52 52.04, 203.8 2.26 M22.33 235.39 C96.81 149.72, 171.28 64.05, 225.06 2.19 M22.33 235.39 C80.45 168.53, 138.58 101.67, 225.06 2.19 M39 240.61 C115.34 152.79, 191.68 64.97, 245.66 2.87 M39 240.61 C84.09 188.74, 129.17 136.88, 245.66 2.87 M60.26 240.54 C134.73 154.87, 209.19 69.21, 261.67 8.84 M60.26 240.54 C120.31 171.46, 180.36 102.38, 261.67 8.84 M81.52 240.47 C133.56 180.6, 185.6 120.74, 268.5 25.38 M81.52 240.47 C120.47 195.66, 159.43 150.85, 268.5 25.38 M102.78 240.4 C162.62 171.56, 222.46 102.72, 277.29 39.65 M102.78 240.4 C157.4 177.57, 212.01 114.74, 277.29 39.65 M124.04 240.33 C182.65 172.91, 241.25 105.49, 276.9 64.48 M124.04 240.33 C165.99 192.07, 207.94 143.82, 276.9 64.48 M145.3 240.26 C188.32 190.77, 231.34 141.29, 277.17 88.56 M145.3 240.26 C193.94 184.31, 242.57 128.37, 277.17 88.56 M166.56 240.19 C192.88 209.92, 219.2 179.64, 276.78 113.4 M166.56 240.19 C199.81 201.94, 233.07 163.69, 276.78 113.4 M187.82 240.12 C211.35 213.06, 234.88 185.99, 277.05 137.48 M187.82 240.12 C216.7 206.91, 245.57 173.69, 277.05 137.48 M209.08 240.05 C226.37 220.17, 243.65 200.29, 277.31 161.56 M209.08 240.05 C225.85 220.76, 242.62 201.48, 277.31 161.56 M230.34 239.98 C244.5 223.69, 258.67 207.4, 276.92 186.4 M230.34 239.98 C246.91 220.93, 263.47 201.88, 276.92 186.4" stroke="#b2f2bb" stroke-width="2" fill="none"></path><path d="M32 0 M32 0 C111.68 0, 191.37 0, 236 0 M32 0 C79.43 0, 126.86 0, 236 0 M236 0 C257.33 0, 268 10.67, 268 32 M236 0 C257.33 0, 268 10.67, 268 32 M268 32 C268 95.12, 268 158.23, 268 202 M268 32 C268 75.18, 268 118.37, 268 202 M268 202 C268 223.33, 257.33 234, 236 234 M268 202 C268 223.33, 257.33 234, 236 234 M236 234 C194.06 234, 152.13 234, 32 234 M236 234 C175.76 234, 115.51 234, 32 234 M32 234 C10.67 234, 0 223.33, 0 202 M32 234 C10.67 234, 0 223.33, 0 202 M0 202 C0 144.73, 0 87.46, 0 32 M0 202 C0 151.38, 0 100.76, 0 32 M0 32 C0 10.67, 10.67 0, 32 0 M0 32 C0 10.67, 10.67 0, 32 0" stroke="#1e1e1e" stroke-width="4" fill="none"></path></g><g transform="translate(113.84583028157726 848.3000000000002) rotate(0 116.05000305175781 43.200000000000045)"><text x="116.05000305175781" y="0" font-family="Cascadia, Segoe UI Emoji" font-size="36px" fill="#1e1e1e" text-anchor="middle" style="white-space: pre;" direction="ltr" dominant-baseline="text-before-edge">Move-</text><text x="116.05000305175781" y="43.199999999999996" font-family="Cascadia, Segoe UI Emoji" font-size="36px" fill="#1e1e1e" text-anchor="middle" style="white-space: pre;" direction="ltr" dominant-baseline="text-before-edge">constructed</text></g><g stroke-linecap="round" transform="translate(366.0624999999984 774.166666666667) rotate(0 134 116.99999999999977)"><path d="M7.86 8.16 C7.86 8.16, 7.86 8.16, 7.86 8.16 M7.86 8.16 C7.86 8.16, 7.86 8.16, 7.86 8.16 M8.78 31.49 C16.96 22.08, 25.13 12.68, 34.37 2.05 M8.78 31.49 C15.21 24.1, 21.63 16.71, 34.37 2.05 M8.39 56.32 C26.88 35.05, 45.37 13.79, 55.63 1.98 M8.39 56.32 C18.02 45.25, 27.65 34.17, 55.63 1.98 M8.66 80.4 C23.76 63.03, 38.87 45.65, 76.89 1.91 M8.66 80.4 C26.92 59.4, 45.19 38.39, 76.89 1.91 M8.27 105.24 C31.21 78.85, 54.15 52.46, 98.15 1.85 M8.27 105.24 C38.83 70.09, 69.38 34.94, 98.15 1.85 M8.54 129.32 C47.17 84.88, 85.8 40.44, 119.41 1.78 M8.54 129.32 C50.54 81.01, 92.54 32.69, 119.41 1.78 M8.15 154.16 C47.97 108.35, 87.78 62.55, 140.67 1.71 M8.15 154.16 C50.36 105.6, 92.57 57.04, 140.67 1.71 M8.41 178.24 C52.63 127.38, 96.84 76.52, 161.28 2.39 M8.41 178.24 C52.03 128.06, 95.66 77.88, 161.28 2.39 M1.46 210.62 C38.67 167.83, 75.87 125.03, 182.54 2.32 M1.46 210.62 C58.15 145.41, 114.84 80.2, 182.54 2.32 M8.95 226.4 C64.87 162.07, 120.79 97.74, 203.8 2.26 M8.95 226.4 C78.81 146.03, 148.68 65.66, 203.8 2.26 M22.33 235.39 C73.69 176.32, 125.04 117.24, 225.06 2.19 M22.33 235.39 C66.42 184.67, 110.51 133.95, 225.06 2.19 M39 240.61 C109.2 159.85, 179.4 79.09, 245.66 2.87 M39 240.61 C109.25 159.79, 179.5 78.98, 245.66 2.87 M60.26 240.54 C106.95 186.83, 153.63 133.13, 261.67 8.84 M60.26 240.54 C129.94 160.38, 199.62 80.22, 261.67 8.84 M81.52 240.47 C137.59 175.96, 193.67 111.46, 268.5 25.38 M81.52 240.47 C126.64 188.57, 171.76 136.66, 268.5 25.38 M102.78 240.4 C160.95 173.48, 219.13 106.56, 277.29 39.65 M102.78 240.4 C160.89 173.56, 218.99 106.71, 277.29 39.65 M124.04 240.33 C181.35 174.4, 238.66 108.48, 276.9 64.48 M124.04 240.33 C161.47 197.28, 198.89 154.22, 276.9 64.48 M145.3 240.26 C178.94 201.56, 212.59 162.86, 277.17 88.56 M145.3 240.26 C176.07 204.87, 206.84 169.47, 277.17 88.56 M166.56 240.19 C191.55 211.45, 216.54 182.7, 276.78 113.4 M166.56 240.19 C188.94 214.45, 211.31 188.72, 276.78 113.4 M187.82 240.12 C214.5 209.44, 241.17 178.75, 277.05 137.48 M187.82 240.12 C207.64 217.32, 227.47 194.52, 277.05 137.48 M209.08 240.05 C227.64 218.7, 246.2 197.35, 277.31 161.56 M209.08 240.05 C232.18 213.48, 255.28 186.91, 277.31 161.56 M230.34 239.98 C242.98 225.44, 255.62 210.9, 276.92 186.4 M230.34 239.98 C244.08 224.18, 257.82 208.38, 276.92 186.4" stroke="#b2f2bb" stroke-width="2" fill="none"></path><path d="M32 0 M32 0 C109.95 0, 187.91 0, 236 0 M32 0 C102.3 0, 172.6 0, 236 0 M236 0 C257.33 0, 268 10.67, 268 32 M236 0 C257.33 0, 268 10.67, 268 32 M268 32 C268 67.21, 268 102.42, 268 202 M268 32 C268 71.33, 268 110.67, 268 202 M268 202 C268 223.33, 257.33 234, 236 234 M268 202 C268 223.33, 257.33 234, 236 234 M236 234 C189.25 234, 142.51 234, 32 234 M236 234 C154.67 234, 73.33 234, 32 234 M32 234 C10.67 234, 0 223.33, 0 202 M32 234 C10.67 234, 0 223.33, 0 202 M0 202 C0 151.07, 0 100.14, 0 32 M0 202 C0 167.68, 0 133.36, 0 32 M0 32 C0 10.67, 10.67 0, 32 0 M0 32 C0 10.67, 10.67 0, 32 0" stroke="#1e1e1e" stroke-width="4" fill="none"></path></g><g transform="translate(384.0124969482406 847.9666666666672) rotate(0 116.05000305175781 43.200000000000045)"><text x="116.05000305175781" y="0" font-family="Cascadia, Segoe UI Emoji" font-size="36px" fill="#1e1e1e" text-anchor="middle" style="white-space: pre;" direction="ltr" dominant-baseline="text-before-edge">Move-</text><text x="116.05000305175781" y="43.199999999999996" font-family="Cascadia, Segoe UI Emoji" font-size="36px" fill="#1e1e1e" text-anchor="middle" style="white-space: pre;" direction="ltr" dominant-baseline="text-before-edge">constructed</text></g><g stroke-linecap="round" transform="translate(635.9791666666672 774.333333333333) rotate(0 134 116.99999999999977)"><path d="M7.86 8.16 C7.86 8.16, 7.86 8.16, 7.86 8.16 M7.86 8.16 C7.86 8.16, 7.86 8.16, 7.86 8.16 M8.78 31.49 C18.31 20.53, 27.83 9.57, 34.37 2.05 M8.78 31.49 C18.06 20.81, 27.34 10.14, 34.37 2.05 M8.39 56.32 C18.44 44.77, 28.48 33.22, 55.63 1.98 M8.39 56.32 C24.06 38.31, 39.72 20.29, 55.63 1.98 M8.66 80.4 C34.35 50.86, 60.03 21.31, 76.89 1.91 M8.66 80.4 C23.02 63.88, 37.39 47.36, 76.89 1.91 M8.27 105.24 C42.08 66.35, 75.89 27.45, 98.15 1.85 M8.27 105.24 C36.55 72.71, 64.83 40.18, 98.15 1.85 M8.54 129.32 C32.39 101.89, 56.24 74.45, 119.41 1.78 M8.54 129.32 C34.99 98.9, 61.44 68.47, 119.41 1.78 M8.15 154.16 C50.8 105.1, 93.45 56.03, 140.67 1.71 M8.15 154.16 C57.43 97.47, 106.71 40.78, 140.67 1.71 M8.41 178.24 C67.21 110.61, 126 42.98, 161.28 2.39 M8.41 178.24 C56.54 122.88, 104.66 67.52, 161.28 2.39 M1.46 210.62 C53.21 151.1, 104.95 91.57, 182.54 2.32 M1.46 210.62 C72.8 128.56, 144.13 46.5, 182.54 2.32 M8.95 226.4 C74.42 151.08, 139.89 75.77, 203.8 2.26 M8.95 226.4 C63.06 164.16, 117.17 101.91, 203.8 2.26 M22.33 235.39 C64.68 186.68, 107.03 137.96, 225.06 2.19 M22.33 235.39 C81.53 167.29, 140.73 99.19, 225.06 2.19 M39 240.61 C116.51 151.44, 194.03 62.27, 245.66 2.87 M39 240.61 C87.76 184.51, 136.53 128.42, 245.66 2.87 M60.26 240.54 C107.95 185.67, 155.65 130.81, 261.67 8.84 M60.26 240.54 C120.16 171.63, 180.06 102.73, 261.67 8.84 M81.52 240.47 C149.24 162.56, 216.97 84.66, 268.5 25.38 M81.52 240.47 C131.74 182.7, 181.96 124.93, 268.5 25.38 M102.78 240.4 C141.13 196.29, 179.47 152.18, 277.29 39.65 M102.78 240.4 C148.46 187.85, 194.15 135.29, 277.29 39.65 M124.04 240.33 C156.52 202.96, 189.01 165.6, 276.9 64.48 M124.04 240.33 C173.71 183.19, 223.38 126.06, 276.9 64.48 M145.3 240.26 C173.34 208, 201.39 175.74, 277.17 88.56 M145.3 240.26 C192.4 186.08, 239.5 131.9, 277.17 88.56 M166.56 240.19 C210.18 190.01, 253.81 139.83, 276.78 113.4 M166.56 240.19 C202.34 199.03, 238.12 157.87, 276.78 113.4 M187.82 240.12 C221.3 201.61, 254.78 163.1, 277.05 137.48 M187.82 240.12 C221.36 201.54, 254.9 162.96, 277.05 137.48 M209.08 240.05 C225.22 221.49, 241.36 202.92, 277.31 161.56 M209.08 240.05 C226.66 219.83, 244.24 199.61, 277.31 161.56 M230.34 239.98 C243 225.42, 255.66 210.86, 276.92 186.4 M230.34 239.98 C241.08 227.63, 251.82 215.28, 276.92 186.4" stroke="#b2f2bb" stroke-width="2" fill="none"></path><path d="M32 0 M32 0 C75.64 0, 119.27 0, 236 0 M32 0 C90 0, 148 0, 236 0 M236 0 C257.33 0, 268 10.67, 268 32 M236 0 C257.33 0, 268 10.67, 268 32 M268 32 C268 81.14, 268 130.29, 268 202 M268 32 C268 79.18, 268 126.36, 268 202 M268 202 C268 223.33, 257.33 234, 236 234 M268 202 C268 223.33, 257.33 234, 236 234 M236 234 C167.87 234, 99.74 234, 32 234 M236 234 C192.33 234, 148.65 234, 32 234 M32 234 C10.67 234, 0 223.33, 0 202 M32 234 C10.67 234, 0 223.33, 0 202 M0 202 C0 151.77, 0 101.54, 0 32 M0 202 C0 138.14, 0 74.28, 0 32 M0 32 C0 10.67, 10.67 0, 32 0 M0 32 C0 10.67, 10.67 0, 32 0" stroke="#1e1e1e" stroke-width="4" fill="none"></path></g><g transform="translate(653.9291636149094 848.1333333333332) rotate(0 116.05000305175781 43.200000000000045)"><text x="116.05000305175781" y="0" font-family="Cascadia, Segoe UI Emoji" font-size="36px" fill="#1e1e1e" text-anchor="middle" style="white-space: pre;" direction="ltr" dominant-baseline="text-before-edge">Move-</text><text x="116.05000305175781" y="43.199999999999996" font-family="Cascadia, Segoe UI Emoji" font-size="36px" fill="#1e1e1e" text-anchor="middle" style="white-space: pre;" direction="ltr" dominant-baseline="text-before-edge">constructed</text></g><g stroke-linecap="round" transform="translate(906.1458333333305 774.0000000000009) rotate(0 134 116.99999999999977)"><path d="M7.86 8.16 C7.86 8.16, 7.86 8.16, 7.86 8.16 M7.86 8.16 C7.86 8.16, 7.86 8.16, 7.86 8.16 M8.78 31.49 C14.37 25.06, 19.96 18.63, 34.37 2.05 M8.78 31.49 C18.52 20.29, 28.25 9.1, 34.37 2.05 M8.39 56.32 C18.89 44.25, 29.39 32.17, 55.63 1.98 M8.39 56.32 C22.69 39.88, 36.99 23.43, 55.63 1.98 M8.66 80.4 C28.1 58.04, 47.54 35.68, 76.89 1.91 M8.66 80.4 C32.21 53.31, 55.77 26.22, 76.89 1.91 M8.27 105.24 C37.29 71.85, 66.32 38.47, 98.15 1.85 M8.27 105.24 C35.55 73.86, 62.82 42.49, 98.15 1.85 M8.54 129.32 C33.47 100.64, 58.4 71.96, 119.41 1.78 M8.54 129.32 C38.59 94.74, 68.65 60.17, 119.41 1.78 M8.15 154.16 C59.31 95.31, 110.47 36.46, 140.67 1.71 M8.15 154.16 C55.26 99.97, 102.36 45.78, 140.67 1.71 M8.41 178.24 C60.77 118.01, 113.12 57.78, 161.28 2.39 M8.41 178.24 C53.26 126.65, 98.1 75.07, 161.28 2.39 M1.46 210.62 C56.81 146.95, 112.16 83.28, 182.54 2.32 M1.46 210.62 C67.84 134.27, 134.21 57.91, 182.54 2.32 M8.95 226.4 C86.23 137.5, 163.52 48.59, 203.8 2.26 M8.95 226.4 C51.34 177.64, 93.73 128.88, 203.8 2.26 M22.33 235.39 C99.47 146.65, 176.61 57.91, 225.06 2.19 M22.33 235.39 C96.33 150.27, 170.33 65.14, 225.06 2.19 M39 240.61 C101.18 169.08, 163.35 97.56, 245.66 2.87 M39 240.61 C84.38 188.4, 129.76 136.2, 245.66 2.87 M60.26 240.54 C103.36 190.96, 146.45 141.38, 261.67 8.84 M60.26 240.54 C140.7 148, 221.15 55.46, 261.67 8.84 M81.52 240.47 C123.29 192.42, 165.05 144.38, 268.5 25.38 M81.52 240.47 C146.16 166.11, 210.8 91.76, 268.5 25.38 M102.78 240.4 C140.15 197.42, 177.51 154.44, 277.29 39.65 M102.78 240.4 C144.41 192.51, 186.04 144.62, 277.29 39.65 M124.04 240.33 C167.93 189.84, 211.82 139.35, 276.9 64.48 M124.04 240.33 C156.51 202.98, 188.97 165.64, 276.9 64.48 M145.3 240.26 C184.03 195.71, 222.76 151.16, 277.17 88.56 M145.3 240.26 C181.13 199.05, 216.95 157.84, 277.17 88.56 M166.56 240.19 C196.29 205.99, 226.02 171.8, 276.78 113.4 M166.56 240.19 C200.34 201.33, 234.13 162.47, 276.78 113.4 M187.82 240.12 C220.85 202.13, 253.88 164.13, 277.05 137.48 M187.82 240.12 C206.4 218.75, 224.98 197.37, 277.05 137.48 M209.08 240.05 C229.79 216.24, 250.49 192.42, 277.31 161.56 M209.08 240.05 C228.54 217.67, 248 195.28, 277.31 161.56 M230.34 239.98 C242.72 225.75, 255.1 211.51, 276.92 186.4 M230.34 239.98 C247.96 219.72, 265.57 199.46, 276.92 186.4" stroke="#b2f2bb" stroke-width="2" fill="none"></path><path d="M32 0 M32 0 C108.56 0, 185.12 0, 236 0 M32 0 C88.29 0, 144.58 0, 236 0 M236 0 C257.33 0, 268 10.67, 268 32 M236 0 C257.33 0, 268 10.67, 268 32 M268 32 C268 94.86, 268 157.73, 268 202 M268 32 C268 89.98, 268 147.96, 268 202 M268 202 C268 223.33, 257.33 234, 236 234 M268 202 C268 223.33, 257.33 234, 236 234 M236 234 C182.76 234, 129.52 234, 32 234 M236 234 C177 234, 118 234, 32 234 M32 234 C10.67 234, 0 223.33, 0 202 M32 234 C10.67 234, 0 223.33, 0 202 M0 202 C0 137.61, 0 73.22, 0 32 M0 202 C0 161.04, 0 120.07, 0 32 M0 32 C0 10.67, 10.67 0, 32 0 M0 32 C0 10.67, 10.67 0, 32 0" stroke="#1e1e1e" stroke-width="4" fill="none"></path></g><g transform="translate(924.0958302815727 847.8000000000011) rotate(0 116.05000305175781 43.200000000000045)"><text x="116.05000305175781" y="0" font-family="Cascadia, Segoe UI Emoji" font-size="36px" fill="#1e1e1e" text-anchor="middle" style="white-space: pre;" direction="ltr" dominant-baseline="text-before-edge">Move-</text><text x="116.05000305175781" y="43.199999999999996" font-family="Cascadia, Segoe UI Emoji" font-size="36px" fill="#1e1e1e" text-anchor="middle" style="white-space: pre;" direction="ltr" dominant-baseline="text-before-edge">constructed</text></g><g stroke-linecap="round" transform="translate(1175.9375000000005 774.416666666667) rotate(0 134 116.99999999999977)"><path d="M7.86 8.16 C7.86 8.16, 7.86 8.16, 7.86 8.16 M7.86 8.16 C7.86 8.16, 7.86 8.16, 7.86 8.16 M8.78 31.49 C14.51 24.9, 20.24 18.31, 34.37 2.05 M8.78 31.49 C14.59 24.81, 20.4 18.13, 34.37 2.05 M8.39 56.32 C22.1 40.56, 35.8 24.79, 55.63 1.98 M8.39 56.32 C21.31 41.47, 34.22 26.62, 55.63 1.98 M8.66 80.4 C25.41 61.13, 42.16 41.86, 76.89 1.91 M8.66 80.4 C31.63 53.99, 54.59 27.57, 76.89 1.91 M8.27 105.24 C39.56 69.25, 70.84 33.26, 98.15 1.85 M8.27 105.24 C40.17 68.54, 72.08 31.84, 98.15 1.85 M8.54 129.32 C42.83 89.87, 77.13 50.42, 119.41 1.78 M8.54 129.32 C51.06 80.4, 93.59 31.48, 119.41 1.78 M8.15 154.16 C38.44 119.31, 68.73 84.47, 140.67 1.71 M8.15 154.16 C49.24 106.89, 90.33 59.62, 140.67 1.71 M8.41 178.24 C43.16 138.27, 77.9 98.31, 161.28 2.39 M8.41 178.24 C49.73 130.71, 91.04 83.18, 161.28 2.39 M1.46 210.62 C70.9 130.75, 140.34 50.87, 182.54 2.32 M1.46 210.62 C67.34 134.85, 133.21 59.07, 182.54 2.32 M8.95 226.4 C80.27 144.35, 151.6 62.3, 203.8 2.26 M8.95 226.4 C61.47 165.98, 114 105.56, 203.8 2.26 M22.33 235.39 C97.2 149.27, 172.06 63.15, 225.06 2.19 M22.33 235.39 C95.64 151.06, 168.94 66.74, 225.06 2.19 M39 240.61 C110.72 158.1, 182.44 75.6, 245.66 2.87 M39 240.61 C106.07 163.46, 173.13 86.31, 245.66 2.87 M60.26 240.54 C130.2 160.09, 200.13 79.63, 261.67 8.84 M60.26 240.54 C114.49 178.16, 168.71 115.78, 261.67 8.84 M81.52 240.47 C146.26 166, 211 91.53, 268.5 25.38 M81.52 240.47 C146.69 165.5, 211.85 90.54, 268.5 25.38 M102.78 240.4 C169.65 163.47, 236.52 86.55, 277.29 39.65 M102.78 240.4 C150.37 185.65, 197.97 130.9, 277.29 39.65 M124.04 240.33 C184.33 170.98, 244.62 101.62, 276.9 64.48 M124.04 240.33 C173.77 183.13, 223.49 125.93, 276.9 64.48 M145.3 240.26 C191.16 187.51, 237.01 134.76, 277.17 88.56 M145.3 240.26 C182.02 198.02, 218.74 155.78, 277.17 88.56 M166.56 240.19 C197.09 205.08, 227.61 169.96, 276.78 113.4 M166.56 240.19 C189.58 213.71, 212.6 187.23, 276.78 113.4 M187.82 240.12 C207.11 217.94, 226.39 195.75, 277.05 137.48 M187.82 240.12 C206.84 218.25, 225.85 196.37, 277.05 137.48 M209.08 240.05 C225.05 221.68, 241.02 203.32, 277.31 161.56 M209.08 240.05 C224.34 222.51, 239.59 204.96, 277.31 161.56 M230.34 239.98 C247.5 220.25, 264.66 200.51, 276.92 186.4 M230.34 239.98 C245.42 222.64, 260.5 205.29, 276.92 186.4" stroke="#b2f2bb" stroke-width="2" fill="none"></path><path d="M32 0 M32 0 C85.12 0, 138.24 0, 236 0 M32 0 C106.27 0, 180.53 0, 236 0 M236 0 C257.33 0, 268 10.67, 268 32 M236 0 C257.33 0, 268 10.67, 268 32 M268 32 C268 75.62, 268 119.25, 268 202 M268 32 C268 72.92, 268 113.85, 268 202 M268 202 C268 223.33, 257.33 234, 236 234 M268 202 C268 223.33, 257.33 234, 236 234 M236 234 C163.42 234, 90.84 234, 32 234 M236 234 C176.41 234, 116.81 234, 32 234 M32 234 C10.67 234, 0 223.33, 0 202 M32 234 C10.67 234, 0 223.33, 0 202 M0 202 C0 141.08, 0 80.16, 0 32 M0 202 C0 135.68, 0 69.36, 0 32 M0 32 C0 10.67, 10.67 0, 32 0 M0 32 C0 10.67, 10.67 0, 32 0" stroke="#1e1e1e" stroke-width="4" fill="none"></path></g><g transform="translate(1193.8874969482426 848.2166666666672) rotate(0 116.05000305175781 43.200000000000045)"><text x="116.05000305175781" y="0" font-family="Cascadia, Segoe UI Emoji" font-size="36px" fill="#1e1e1e" text-anchor="middle" style="white-space: pre;" direction="ltr" dominant-baseline="text-before-edge">Move-</text><text x="116.05000305175781" y="43.199999999999996" font-family="Cascadia, Segoe UI Emoji" font-size="36px" fill="#1e1e1e" text-anchor="middle" style="white-space: pre;" direction="ltr" dominant-baseline="text-before-edge">constructed</text></g><g stroke-linecap="round" transform="translate(1446.1041666666647 774.083333333333) rotate(0 134 116.99999999999977)"><path d="M7.86 8.16 C7.86 8.16, 7.86 8.16, 7.86 8.16 M7.86 8.16 C7.86 8.16, 7.86 8.16, 7.86 8.16 M8.78 31.49 C17.97 20.91, 27.16 10.34, 34.37 2.05 M8.78 31.49 C17.62 21.32, 26.46 11.15, 34.37 2.05 M8.39 56.32 C19.77 43.24, 31.14 30.15, 55.63 1.98 M8.39 56.32 C25.89 36.2, 43.38 16.08, 55.63 1.98 M8.66 80.4 C26.52 59.86, 44.37 39.33, 76.89 1.91 M8.66 80.4 C27.08 59.22, 45.5 38.03, 76.89 1.91 M8.27 105.24 C40.54 68.12, 72.81 31, 98.15 1.85 M8.27 105.24 C43.14 65.13, 78 25.03, 98.15 1.85 M8.54 129.32 C31.23 103.21, 53.93 77.11, 119.41 1.78 M8.54 129.32 C31.08 103.39, 53.62 77.46, 119.41 1.78 M8.15 154.16 C53.15 102.39, 98.15 50.62, 140.67 1.71 M8.15 154.16 C40.83 116.56, 73.52 78.96, 140.67 1.71 M8.41 178.24 C40.21 141.66, 72.01 105.08, 161.28 2.39 M8.41 178.24 C56.59 122.82, 104.77 67.39, 161.28 2.39 M1.46 210.62 C54.36 149.77, 107.26 88.92, 182.54 2.32 M1.46 210.62 C71.87 129.63, 142.28 48.64, 182.54 2.32 M8.95 226.4 C76.4 148.81, 143.85 71.22, 203.8 2.26 M8.95 226.4 C56.79 171.36, 104.64 116.32, 203.8 2.26 M22.33 235.39 C89.43 158.2, 156.53 81.02, 225.06 2.19 M22.33 235.39 C98.79 147.44, 175.24 59.49, 225.06 2.19 M39 240.61 C90.31 181.58, 141.63 122.55, 245.66 2.87 M39 240.61 C81.3 191.94, 123.61 143.28, 245.66 2.87 M60.26 240.54 C115.68 176.78, 171.1 113.03, 261.67 8.84 M60.26 240.54 C139.71 149.14, 219.15 57.75, 261.67 8.84 M81.52 240.47 C155.99 154.8, 230.46 69.14, 268.5 25.38 M81.52 240.47 C132.6 181.7, 183.69 122.94, 268.5 25.38 M102.78 240.4 C163.58 170.46, 224.37 100.52, 277.29 39.65 M102.78 240.4 C162.82 171.33, 222.86 102.26, 277.29 39.65 M124.04 240.33 C159.91 199.07, 195.78 157.81, 276.9 64.48 M124.04 240.33 C170.2 187.23, 216.36 134.13, 276.9 64.48 M145.3 240.26 C182.1 197.93, 218.89 155.61, 277.17 88.56 M145.3 240.26 C191.39 187.25, 237.47 134.23, 277.17 88.56 M166.56 240.19 C194.19 208.41, 221.81 176.63, 276.78 113.4 M166.56 240.19 C189.95 213.28, 213.34 186.38, 276.78 113.4 M187.82 240.12 C205.68 219.58, 223.55 199.03, 277.05 137.48 M187.82 240.12 C210.54 213.99, 233.26 187.85, 277.05 137.48 M209.08 240.05 C229.16 216.96, 249.23 193.87, 277.31 161.56 M209.08 240.05 C229.24 216.86, 249.4 193.67, 277.31 161.56 M230.34 239.98 C246.63 221.25, 262.91 202.52, 276.92 186.4 M230.34 239.98 C245.42 222.64, 260.49 205.3, 276.92 186.4" stroke="#b2f2bb" stroke-width="2" fill="none"></path><path d="M32 0 M32 0 C86.66 0, 141.32 0, 236 0 M32 0 C95.97 0, 159.94 0, 236 0 M236 0 C257.33 0, 268 10.67, 268 32 M236 0 C257.33 0, 268 10.67, 268 32 M268 32 C268 84.96, 268 137.93, 268 202 M268 32 C268 94.17, 268 156.34, 268 202 M268 202 C268 223.33, 257.33 234, 236 234 M268 202 C268 223.33, 257.33 234, 236 234 M236 234 C181.18 234, 126.36 234, 32 234 M236 234 C172.52 234, 109.05 234, 32 234 M32 234 C10.67 234, 0 223.33, 0 202 M32 234 C10.67 234, 0 223.33, 0 202 M0 202 C0 151.36, 0 100.72, 0 32 M0 202 C0 153.43, 0 104.86, 0 32 M0 32 C0 10.67, 10.67 0, 32 0 M0 32 C0 10.67, 10.67 0, 32 0" stroke="#1e1e1e" stroke-width="4" fill="none"></path></g><g transform="translate(1464.0541636149069 847.8833333333332) rotate(0 116.05000305175781 43.200000000000045)"><text x="116.05000305175781" y="0" font-family="Cascadia, Segoe UI Emoji" font-size="36px" fill="#1e1e1e" text-anchor="middle" style="white-space: pre;" direction="ltr" dominant-baseline="text-before-edge">Move-</text><text x="116.05000305175781" y="43.199999999999996" font-family="Cascadia, Segoe UI Emoji" font-size="36px" fill="#1e1e1e" text-anchor="middle" style="white-space: pre;" direction="ltr" dominant-baseline="text-before-edge">constructed</text></g><g stroke-linecap="round"><g transform="translate(495.5 449.75000000000045) rotate(0 2 156.5)"><path d="M0 0 C0.67 52.17, 3.33 260.83, 4 313 M0 0 C0.67 52.17, 3.33 260.83, 4 313" stroke="#1e1e1e" stroke-width="4" fill="none"></path></g><g transform="translate(495.5 449.75000000000045) rotate(0 2 156.5)"><path d="M4 313 L-2.51 299.49 L10.17 299.33 L4 313" stroke="none" stroke-width="0" fill="#1e1e1e" fill-rule="evenodd"></path><path d="M4 313 C2.07 308.99, 0.14 304.98, -2.51 299.49 M4 313 C1.67 308.16, -0.67 303.32, -2.51 299.49 M-2.51 299.49 C0.89 299.44, 4.3 299.4, 10.17 299.33 M-2.51 299.49 C0.98 299.44, 4.46 299.4, 10.17 299.33 M10.17 299.33 C8.12 303.86, 6.08 308.39, 4 313 M10.17 299.33 C8.2 303.68, 6.24 308.03, 4 313 M4 313 C4 313, 4 313, 4 313 M4 313 C4 313, 4 313, 4 313" stroke="#1e1e1e" stroke-width="4" fill="none"></path></g></g><mask></mask><g stroke-linecap="round"><g transform="translate(760.5 454.75000000000045) rotate(0 2 156.5)"><path d="M0 0 C0.67 52.17, 3.33 260.83, 4 313 M0 0 C0.67 52.17, 3.33 260.83, 4 313" stroke="#1e1e1e" stroke-width="4" fill="none"></path></g><g transform="translate(760.5 454.75000000000045) rotate(0 2 156.5)"><path d="M4 313 L-2.51 299.49 L10.17 299.33 L4 313" stroke="none" stroke-width="0" fill="#1e1e1e" fill-rule="evenodd"></path><path d="M4 313 C2.17 309.21, 0.35 305.42, -2.51 299.49 M4 313 C2.2 309.26, 0.39 305.52, -2.51 299.49 M-2.51 299.49 C0.19 299.45, 2.9 299.42, 10.17 299.33 M-2.51 299.49 C0.79 299.45, 4.09 299.4, 10.17 299.33 M10.17 299.33 C8.05 304.02, 5.93 308.72, 4 313 M10.17 299.33 C7.91 304.33, 5.65 309.34, 4 313 M4 313 C4 313, 4 313, 4 313 M4 313 C4 313, 4 313, 4 313" stroke="#1e1e1e" stroke-width="4" fill="none"></path></g></g><mask></mask><g stroke-linecap="round"><g transform="translate(1023 449.75000000000045) rotate(0 2 156.5)"><path d="M0 0 C0.67 52.17, 3.33 260.83, 4 313 M0 0 C0.67 52.17, 3.33 260.83, 4 313" stroke="#1e1e1e" stroke-width="4" fill="none"></path></g><g transform="translate(1023 449.75000000000045) rotate(0 2 156.5)"><path d="M4 313 L-2.51 299.49 L10.17 299.33 L4 313" stroke="none" stroke-width="0" fill="#1e1e1e" fill-rule="evenodd"></path><path d="M4 313 C1.81 308.45, -0.39 303.9, -2.51 299.49 M4 313 C1.92 308.68, -0.16 304.36, -2.51 299.49 M-2.51 299.49 C1.87 299.43, 6.25 299.38, 10.17 299.33 M-2.51 299.49 C0.86 299.44, 4.24 299.4, 10.17 299.33 M10.17 299.33 C8.74 302.49, 7.31 305.65, 4 313 M10.17 299.33 C7.85 304.47, 5.53 309.61, 4 313 M4 313 C4 313, 4 313, 4 313 M4 313 C4 313, 4 313, 4 313" stroke="#1e1e1e" stroke-width="4" fill="none"></path></g></g><mask></mask><g stroke-linecap="round"><g transform="translate(1305.5 449.75000000000045) rotate(0 2 156.5)"><path d="M0 0 C0.67 52.17, 3.33 260.83, 4 313 M0 0 C0.67 52.17, 3.33 260.83, 4 313" stroke="#1e1e1e" stroke-width="4" fill="none"></path></g><g transform="translate(1305.5 449.75000000000045) rotate(0 2 156.5)"><path d="M4 313 L-2.51 299.49 L10.17 299.33 L4 313" stroke="none" stroke-width="0" fill="#1e1e1e" fill-rule="evenodd"></path><path d="M4 313 C2.67 310.23, 1.33 307.47, -2.51 299.49 M4 313 C2.49 309.86, 0.98 306.73, -2.51 299.49 M-2.51 299.49 C1.06 299.44, 4.64 299.4, 10.17 299.33 M-2.51 299.49 C1.09 299.44, 4.7 299.4, 10.17 299.33 M10.17 299.33 C7.91 304.32, 5.66 309.31, 4 313 M10.17 299.33 C8.02 304.09, 5.87 308.85, 4 313 M4 313 C4 313, 4 313, 4 313 M4 313 C4 313, 4 313, 4 313" stroke="#1e1e1e" stroke-width="4" fill="none"></path></g></g><mask></mask><g stroke-linecap="round"><g transform="translate(1565.5 449.75000000000045) rotate(0 2 156.5)"><path d="M0 0 C0.67 52.17, 3.33 260.83, 4 313 M0 0 C0.67 52.17, 3.33 260.83, 4 313" stroke="#1e1e1e" stroke-width="4" fill="none"></path></g><g transform="translate(1565.5 449.75000000000045) rotate(0 2 156.5)"><path d="M4 313 L-2.51 299.49 L10.17 299.33 L4 313" stroke="none" stroke-width="0" fill="#1e1e1e" fill-rule="evenodd"></path><path d="M4 313 C1.73 308.29, -0.54 303.58, -2.51 299.49 M4 313 C1.83 308.5, -0.34 304, -2.51 299.49 M-2.51 299.49 C2.38 299.43, 7.27 299.36, 10.17 299.33 M-2.51 299.49 C2.53 299.42, 7.58 299.36, 10.17 299.33 M10.17 299.33 C8.02 304.08, 5.88 308.84, 4 313 M10.17 299.33 C8.17 303.75, 6.18 308.17, 4 313 M4 313 C4 313, 4 313, 4 313 M4 313 C4 313, 4 313, 4 313" stroke="#1e1e1e" stroke-width="4" fill="none"></path></g></g><mask></mask><g transform="translate(1744.3833312988281 109.09312815294425) rotate(0 126.86666870117188 32.476777054542026)"><text x="126.86666870117188" y="0" font-family="Cascadia, Segoe UI Emoji" font-size="54.12796175757016px" fill="#1e1e1e" text-anchor="middle" style="white-space: pre;" direction="ltr" dominant-baseline="text-before-edge">t_buffer</text></g><g transform="translate(160.39999389648438 1035.900000000001) rotate(0 207.10000610351562 35.34999999999991)"><text x="207.10000610351562" y="0" font-family="Cascadia, Segoe UI Emoji" font-size="58.91666666666621px" fill="#1e1e1e" text-anchor="middle" style="white-space: pre;" direction="ltr" dominant-baseline="text-before-edge">t_buffer_new</text></g></svg>