<svg version="1.1" xmlns="http://www.w3.org/2000/svg" viewBox="0 0 1978.2966224512493 1052.5424029525166" width="5934.889867353748" height="3157.6272088575497">
  <!-- svg-source:excalidraw -->
  
  <defs>
    <style class="style-fonts">
      @font-face {
        font-family: "Virgil";
        src: url("https://excalidraw.com/Virgil.woff2");
      }
      @font-face {
        font-family: "Cascadia";
        src: url("https://excalidraw.com/Cascadia.woff2");
      }
    </style>
    
  </defs>
  <g stroke-linecap="round"><g transform="translate(198.76756071748537 482.0221253079253) rotate(0 0.05278335804325707 51.23804097777611)"><path d="M0 0 C0.02 17.08, 0.09 85.4, 0.11 102.48 M0 0 C0.02 17.08, 0.09 85.4, 0.11 102.48" stroke="#1e1e1e" stroke-width="4" fill="none"></path></g><g transform="translate(198.76756071748537 482.0221253079253) rotate(0 0.05278335804325707 51.23804097777611)"><path d="M0.11 102.48 L-6.25 88.89 L6.43 88.87 L0.11 102.48" stroke="none" stroke-width="0" fill="#1e1e1e" fill-rule="evenodd"></path><path d="M0.11 102.48 C-1.42 99.21, -2.95 95.95, -6.25 88.89 M0.11 102.48 C-1.39 99.28, -2.89 96.08, -6.25 88.89 M-6.25 88.89 C-2.62 88.88, 1.01 88.88, 6.43 88.87 M-6.25 88.89 C-3 88.88, 0.25 88.88, 6.43 88.87 M6.43 88.87 C4.28 93.5, 2.13 98.12, 0.11 102.48 M6.43 88.87 C3.94 94.23, 1.45 99.59, 0.11 102.48 M0.11 102.48 C0.11 102.48, 0.11 102.48, 0.11 102.48 M0.11 102.48 C0.11 102.48, 0.11 102.48, 0.11 102.48" stroke="#1e1e1e" stroke-width="4" fill="none"></path></g></g><mask></mask><g stroke-linecap="round" transform="translate(1432.7966224512493 597.9245541784621) rotate(0 267.75 155.75)"><path d="M7.86 8.16 C7.86 8.16, 7.86 8.16, 7.86 8.16 M7.86 8.16 C7.86 8.16, 7.86 8.16, 7.86 8.16 M4.85 36.01 C13.59 25.96, 22.32 15.91, 34.37 2.05 M4.85 36.01 C15.71 23.51, 26.58 11.01, 34.37 2.05 M4.46 60.85 C18.66 44.52, 32.85 28.18, 55.63 1.98 M4.46 60.85 C20.66 42.21, 36.87 23.57, 55.63 1.98 M4.72 84.93 C29.24 56.73, 53.76 28.52, 76.89 1.91 M4.72 84.93 C22.57 64.4, 40.41 43.88, 76.89 1.91 M4.99 109.01 C36.56 72.7, 68.12 36.39, 98.15 1.85 M4.99 109.01 C29.31 81.04, 53.63 53.06, 98.15 1.85 M4.6 133.85 C33.37 100.75, 62.15 67.65, 119.41 1.78 M4.6 133.85 C41.41 91.5, 78.23 49.15, 119.41 1.78 M4.87 157.93 C46.76 109.74, 88.64 61.56, 140.67 1.71 M4.87 157.93 C47.29 109.13, 89.71 60.33, 140.67 1.71 M4.48 182.77 C57.88 121.33, 111.28 59.9, 161.28 2.39 M4.48 182.77 C52.92 127.04, 101.37 71.31, 161.28 2.39 M4.74 206.85 C59.45 143.91, 114.16 80.98, 182.54 2.32 M4.74 206.85 C45.99 159.4, 87.23 111.96, 182.54 2.32 M5.01 230.93 C52.8 175.95, 100.6 120.97, 203.8 2.26 M5.01 230.93 C67.49 159.06, 129.97 87.19, 203.8 2.26 M4.62 255.77 C87.67 160.23, 170.72 64.69, 225.06 2.19 M4.62 255.77 C84.55 163.82, 164.48 71.87, 225.06 2.19 M2.92 282.11 C75.85 198.21, 148.79 114.31, 246.32 2.12 M2.92 282.11 C56.45 220.53, 109.99 158.94, 246.32 2.12 M7.12 301.67 C78.61 219.43, 150.1 137.19, 267.58 2.05 M7.12 301.67 C66.55 233.3, 125.98 164.94, 267.58 2.05 M19.85 311.41 C123.82 191.81, 227.78 72.21, 288.84 1.98 M19.85 311.41 C97.98 221.53, 176.11 131.66, 288.84 1.98 M37.18 315.87 C113.18 228.44, 189.19 141, 310.1 1.91 M37.18 315.87 C128.29 211.06, 219.4 106.25, 310.1 1.91 M58.44 315.8 C137.05 225.37, 215.65 134.94, 331.36 1.84 M58.44 315.8 C159.86 199.12, 261.29 82.44, 331.36 1.84 M79.7 315.73 C184.82 194.8, 289.95 73.86, 352.62 1.77 M79.7 315.73 C179.6 200.81, 279.49 85.89, 352.62 1.77 M100.96 315.66 C185.55 218.35, 270.15 121.03, 373.88 1.7 M100.96 315.66 C180.25 224.45, 259.54 133.23, 373.88 1.7 M122.22 315.59 C206.54 218.59, 290.87 121.58, 394.48 2.39 M122.22 315.59 C229.07 192.68, 335.91 69.76, 394.48 2.39 M142.82 316.28 C218.37 229.37, 293.92 142.46, 415.74 2.32 M142.82 316.28 C212.53 236.08, 282.25 155.89, 415.74 2.32 M164.08 316.21 C242.13 226.43, 320.18 136.64, 437 2.25 M164.08 316.21 C235.58 233.96, 307.09 151.7, 437 2.25 M185.34 316.14 C275.91 211.95, 366.48 107.76, 458.26 2.18 M185.34 316.14 C255.18 235.8, 325.03 155.45, 458.26 2.18 M206.6 316.07 C279.35 232.38, 352.11 148.69, 479.52 2.11 M206.6 316.07 C262.51 251.76, 318.41 187.45, 479.52 2.11 M227.86 316 C319.86 210.17, 411.87 104.33, 500.78 2.04 M227.86 316 C299.57 233.51, 371.28 151.02, 500.78 2.04 M249.12 315.93 C336.61 215.29, 424.1 114.64, 520.07 4.24 M249.12 315.93 C312.1 243.49, 375.08 171.04, 520.07 4.24 M270.38 315.87 C342.11 233.36, 413.83 150.85, 532.81 13.98 M270.38 315.87 C330.22 247.03, 390.05 178.2, 532.81 13.98 M291.64 315.8 C351.78 246.61, 411.93 177.43, 537.01 33.53 M291.64 315.8 C374.44 220.55, 457.24 125.3, 537.01 33.53 M312.9 315.73 C366.75 253.78, 420.6 191.84, 537.27 57.62 M312.9 315.73 C376.85 242.17, 440.79 168.61, 537.27 57.62 M334.16 315.66 C403.51 235.88, 472.86 156.11, 536.88 82.45 M334.16 315.66 C393.72 247.15, 453.28 178.63, 536.88 82.45 M355.42 315.59 C401.84 262.2, 448.25 208.8, 537.15 106.53 M355.42 315.59 C418.71 242.79, 481.99 169.99, 537.15 106.53 M376.03 316.28 C414.99 271.45, 453.96 226.62, 537.42 130.62 M376.03 316.28 C417.45 268.63, 458.87 220.98, 537.42 130.62 M397.29 316.21 C433.14 274.96, 468.99 233.72, 537.03 155.45 M397.29 316.21 C441.1 265.8, 484.92 215.39, 537.03 155.45 M418.55 316.14 C452.94 276.58, 487.32 237.02, 537.29 179.53 M418.55 316.14 C461.59 266.63, 504.62 217.12, 537.29 179.53 M439.81 316.07 C468.86 282.64, 497.92 249.22, 536.9 204.37 M439.81 316.07 C464.86 287.25, 489.91 258.43, 536.9 204.37 M461.07 316 C487.83 285.21, 514.59 254.43, 537.17 228.45 M461.07 316 C486.09 287.21, 511.12 258.42, 537.17 228.45 M482.33 315.93 C502.05 293.24, 521.78 270.55, 537.44 252.53 M482.33 315.93 C495.55 300.72, 508.77 285.52, 537.44 252.53 M505.56 313.6 C512.22 305.93, 518.88 298.27, 537.05 277.37 M505.56 313.6 C513.58 304.37, 521.6 295.14, 537.05 277.37" stroke="#1e1e1e" stroke-width="2" fill="none"></path><path d="M32 0 M32 0 C185.66 0, 339.32 0, 503.5 0 M32 0 C172.84 0, 313.68 0, 503.5 0 M503.5 0 C524.83 0, 535.5 10.67, 535.5 32 M503.5 0 C524.83 0, 535.5 10.67, 535.5 32 M535.5 32 C535.5 111.33, 535.5 190.66, 535.5 279.5 M535.5 32 C535.5 91.45, 535.5 150.89, 535.5 279.5 M535.5 279.5 C535.5 300.83, 524.83 311.5, 503.5 311.5 M535.5 279.5 C535.5 300.83, 524.83 311.5, 503.5 311.5 M503.5 311.5 C337.66 311.5, 171.82 311.5, 32 311.5 M503.5 311.5 C372.24 311.5, 240.97 311.5, 32 311.5 M32 311.5 C10.67 311.5, 0 300.83, 0 279.5 M32 311.5 C10.67 311.5, 0 300.83, 0 279.5 M0 279.5 C0 218.71, 0 157.93, 0 32 M0 279.5 C0 221.11, 0 162.72, 0 32 M0 32 C0 10.67, 10.67 0, 32 0 M0 32 C0 10.67, 10.67 0, 32 0" stroke="#1e1e1e" stroke-width="4" fill="none"></path></g><g stroke-linecap="round" transform="translate(15.533006592647553 10.660767985191342) rotate(0 177.08582003238507 154.61970853573985)"><path d="M7.86 8.16 C7.86 8.16, 7.86 8.16, 7.86 8.16 M7.86 8.16 C7.86 8.16, 7.86 8.16, 7.86 8.16 M8.78 31.49 C17.83 21.08, 26.88 10.67, 34.37 2.05 M8.78 31.49 C18.87 19.89, 28.95 8.29, 34.37 2.05 M8.39 56.32 C18.46 44.74, 28.53 33.16, 55.63 1.98 M8.39 56.32 C24.41 37.9, 40.43 19.47, 55.63 1.98 M8.66 80.4 C24.85 61.78, 41.03 43.16, 76.89 1.91 M8.66 80.4 C35.39 49.66, 62.12 18.91, 76.89 1.91 M8.27 105.24 C36.42 72.86, 64.57 40.47, 98.15 1.85 M8.27 105.24 C37.2 71.96, 66.14 38.67, 98.15 1.85 M8.54 129.32 C36.05 97.67, 63.57 66.02, 119.41 1.78 M8.54 129.32 C48.56 83.29, 88.57 37.25, 119.41 1.78 M8.15 154.16 C48.8 107.4, 89.44 60.64, 140.67 1.71 M8.15 154.16 C43.13 113.92, 78.11 73.68, 140.67 1.71 M8.41 178.24 C61.67 116.98, 114.92 55.72, 161.28 2.39 M8.41 178.24 C65.34 112.75, 122.28 47.26, 161.28 2.39 M8.02 203.08 C71.73 129.8, 135.43 56.51, 182.54 2.32 M8.02 203.08 C56.31 147.53, 104.59 91.99, 182.54 2.32 M8.29 227.16 C51.02 178, 93.76 128.84, 203.8 2.26 M8.29 227.16 C62.7 164.57, 117.11 101.98, 203.8 2.26 M8.56 251.24 C90.45 157.03, 172.35 62.82, 225.06 2.19 M8.56 251.24 C63.28 188.29, 118 125.34, 225.06 2.19 M0.29 285.13 C63.85 212.02, 127.4 138.91, 246.32 2.12 M0.29 285.13 C77.01 196.88, 153.72 108.64, 246.32 2.12 M8.43 300.16 C100.52 194.23, 192.61 88.29, 267.58 2.05 M8.43 300.16 C77.39 220.83, 146.35 141.5, 267.58 2.05 M21.16 309.9 C124.45 191.08, 227.74 72.26, 288.84 1.98 M21.16 309.9 C98.13 221.36, 175.1 132.82, 288.84 1.98 M38.49 314.36 C99.3 244.41, 160.1 174.46, 310.1 1.91 M38.49 314.36 C139.5 198.16, 240.51 81.96, 310.1 1.91 M59.75 314.29 C124.46 239.85, 189.16 165.42, 331.36 1.84 M59.75 314.29 C114.42 251.4, 169.08 188.52, 331.36 1.84 M80.35 314.98 C141.68 244.42, 203.01 173.87, 346.71 8.56 M80.35 314.98 C135.38 251.68, 190.4 188.38, 346.71 8.56 M101.61 314.91 C195.36 207.06, 289.11 99.21, 354.2 24.34 M101.61 314.91 C159.72 248.06, 217.83 181.21, 354.2 24.34 M122.87 314.84 C204.2 221.29, 285.52 127.73, 362.33 39.37 M122.87 314.84 C215.74 208.01, 308.6 101.18, 362.33 39.37 M144.13 314.77 C200.75 249.63, 257.38 184.5, 362.6 63.45 M144.13 314.77 C216.71 231.28, 289.29 147.79, 362.6 63.45 M165.39 314.7 C211.81 261.3, 258.23 207.9, 362.21 88.29 M165.39 314.7 C227.3 243.49, 289.2 172.28, 362.21 88.29 M186.65 314.63 C238.61 254.86, 290.58 195.08, 362.48 112.37 M186.65 314.63 C230.13 264.62, 273.61 214.6, 362.48 112.37 M207.91 314.56 C257.7 257.29, 307.49 200.01, 362.74 136.45 M207.91 314.56 C264.72 249.22, 321.52 183.87, 362.74 136.45 M229.17 314.49 C281.41 254.4, 333.65 194.31, 362.35 161.29 M229.17 314.49 C268.6 269.14, 308.03 223.78, 362.35 161.29 M250.43 314.42 C286.13 273.36, 321.83 232.29, 362.62 185.37 M250.43 314.42 C284.8 274.89, 319.17 235.36, 362.62 185.37 M271.69 314.36 C306.1 274.77, 340.51 235.19, 362.23 210.21 M271.69 314.36 C306.15 274.72, 340.61 235.08, 362.23 210.21 M292.95 314.29 C311.44 293.02, 329.93 271.75, 362.5 234.29 M292.95 314.29 C312.12 292.24, 331.28 270.2, 362.5 234.29 M313.56 314.97 C323.82 303.17, 334.08 291.37, 362.76 258.37 M313.56 314.97 C332.46 293.23, 351.37 271.48, 362.76 258.37" stroke="#ff8787" stroke-width="2" fill="none"></path><path d="M32 0 M32 0 C125.85 0, 219.71 0, 322.17 0 M32 0 C147.61 0, 263.22 0, 322.17 0 M322.17 0 C343.5 0, 354.17 10.67, 354.17 32 M322.17 0 C343.5 0, 354.17 10.67, 354.17 32 M354.17 32 C354.17 112.26, 354.17 192.53, 354.17 277.24 M354.17 32 C354.17 102.62, 354.17 173.25, 354.17 277.24 M354.17 277.24 C354.17 298.57, 343.5 309.24, 322.17 309.24 M354.17 277.24 C354.17 298.57, 343.5 309.24, 322.17 309.24 M322.17 309.24 C228.54 309.24, 134.91 309.24, 32 309.24 M322.17 309.24 C209.84 309.24, 97.51 309.24, 32 309.24 M32 309.24 C10.67 309.24, 0 298.57, 0 277.24 M32 309.24 C10.67 309.24, 0 298.57, 0 277.24 M0 277.24 C0 189.46, 0 101.68, 0 32 M0 277.24 C0 218.41, 0 159.59, 0 32 M0 32 C0 10.67, 10.67 0, 32 0 M0 32 C0 10.67, 10.67 0, 32 0" stroke="#1e1e1e" stroke-width="4" fill="none"></path></g><g transform="translate(39.260489222688875 108.19012260004092) rotate(0 153.35833740234375 57.09035392088845)"><text x="153.35833740234375" y="0" font-family="Cascadia, Segoe UI Emoji" font-size="47.575294934073604px" fill="#1e1e1e" text-anchor="middle" style="white-space: pre;" direction="ltr" dominant-baseline="text-before-edge">Moved-from</text><text x="153.35833740234375" y="57.090353920888326" font-family="Cascadia, Segoe UI Emoji" font-size="47.575294934073604px" fill="#1e1e1e" text-anchor="middle" style="white-space: pre;" direction="ltr" dominant-baseline="text-before-edge">&amp; Destroyed</text></g><g stroke-linecap="round" transform="translate(372.56797459326026 10.220255995060143) rotate(0 177.08582003238507 154.61970853573985)"><path d="M7.86 8.16 C7.86 8.16, 7.86 8.16, 7.86 8.16 M7.86 8.16 C7.86 8.16, 7.86 8.16, 7.86 8.16 M8.78 31.49 C15.16 24.15, 21.54 16.82, 34.37 2.05 M8.78 31.49 C16.23 22.92, 23.67 14.36, 34.37 2.05 M8.39 56.32 C19.62 43.41, 30.85 30.49, 55.63 1.98 M8.39 56.32 C18.56 44.63, 28.72 32.94, 55.63 1.98 M8.66 80.4 C32.36 53.14, 56.07 25.87, 76.89 1.91 M8.66 80.4 C31.11 54.57, 53.57 28.75, 76.89 1.91 M8.27 105.24 C32.48 77.39, 56.69 49.54, 98.15 1.85 M8.27 105.24 C38.49 70.48, 68.71 35.71, 98.15 1.85 M8.54 129.32 C46.2 85.99, 83.87 42.66, 119.41 1.78 M8.54 129.32 C39.2 94.05, 69.85 58.78, 119.41 1.78 M8.15 154.16 C44.85 111.94, 81.55 69.72, 140.67 1.71 M8.15 154.16 C59.66 94.9, 111.17 35.65, 140.67 1.71 M8.41 178.24 C57.25 122.06, 106.08 65.89, 161.28 2.39 M8.41 178.24 C65.4 112.68, 122.39 47.13, 161.28 2.39 M8.02 203.08 C71.39 130.18, 134.75 57.29, 182.54 2.32 M8.02 203.08 C52.13 152.34, 96.24 101.6, 182.54 2.32 M8.29 227.16 C66.67 160, 125.05 92.84, 203.8 2.26 M8.29 227.16 C54.97 173.46, 101.64 119.77, 203.8 2.26 M8.56 251.24 C84.16 164.27, 159.76 77.3, 225.06 2.19 M8.56 251.24 C92.95 154.15, 177.35 57.06, 225.06 2.19 M0.29 285.13 C51.46 226.28, 102.62 167.42, 246.32 2.12 M0.29 285.13 C68.29 206.91, 136.28 128.69, 246.32 2.12 M8.43 300.16 C105.72 188.25, 203 76.34, 267.58 2.05 M8.43 300.16 C71.3 227.84, 134.17 155.52, 267.58 2.05 M21.16 309.9 C100.66 218.45, 180.16 127, 288.84 1.98 M21.16 309.9 C93.17 227.07, 165.18 144.23, 288.84 1.98 M38.49 314.36 C120.13 220.44, 201.77 126.53, 310.1 1.91 M38.49 314.36 C102.31 240.94, 166.14 167.52, 310.1 1.91 M59.75 314.29 C150.46 209.94, 241.17 105.59, 331.36 1.84 M59.75 314.29 C163.29 195.18, 266.82 76.08, 331.36 1.84 M80.35 314.98 C160.89 222.33, 241.43 129.67, 346.71 8.56 M80.35 314.98 C179.48 200.94, 278.62 86.9, 346.71 8.56 M101.61 314.91 C153.63 255.07, 205.64 195.24, 354.2 24.34 M101.61 314.91 C192.22 210.67, 282.84 106.43, 354.2 24.34 M122.87 314.84 C189.24 238.49, 255.62 162.13, 362.33 39.37 M122.87 314.84 C180.48 248.57, 238.09 182.29, 362.33 39.37 M144.13 314.77 C213.74 234.7, 283.34 154.63, 362.6 63.45 M144.13 314.77 C215.94 232.17, 287.75 149.56, 362.6 63.45 M165.39 314.7 C212.65 260.34, 259.91 205.97, 362.21 88.29 M165.39 314.7 C206.31 267.63, 247.22 220.57, 362.21 88.29 M186.65 314.63 C256.37 234.43, 326.09 154.23, 362.48 112.37 M186.65 314.63 C256.86 233.86, 327.08 153.09, 362.48 112.37 M207.91 314.56 C258.24 256.66, 308.57 198.77, 362.74 136.45 M207.91 314.56 C242.44 274.84, 276.97 235.12, 362.74 136.45 M229.17 314.49 C266.85 271.15, 304.54 227.8, 362.35 161.29 M229.17 314.49 C263.83 274.63, 298.49 234.76, 362.35 161.29 M250.43 314.42 C293.59 264.78, 336.75 215.13, 362.62 185.37 M250.43 314.42 C274.68 286.53, 298.93 258.64, 362.62 185.37 M271.69 314.36 C302.46 278.96, 333.23 243.56, 362.23 210.21 M271.69 314.36 C306.3 274.55, 340.9 234.75, 362.23 210.21 M292.95 314.29 C320.1 283.06, 347.25 251.83, 362.5 234.29 M292.95 314.29 C313.73 290.39, 334.5 266.5, 362.5 234.29 M313.56 314.97 C325.76 300.93, 337.97 286.89, 362.76 258.37 M313.56 314.97 C324.25 302.68, 334.94 290.38, 362.76 258.37" stroke="#ff8787" stroke-width="2" fill="none"></path><path d="M32 0 M32 0 C99.39 0, 166.77 0, 322.17 0 M32 0 C137.43 0, 242.85 0, 322.17 0 M322.17 0 C343.5 0, 354.17 10.67, 354.17 32 M322.17 0 C343.5 0, 354.17 10.67, 354.17 32 M354.17 32 C354.17 108.65, 354.17 185.3, 354.17 277.24 M354.17 32 C354.17 108.75, 354.17 185.49, 354.17 277.24 M354.17 277.24 C354.17 298.57, 343.5 309.24, 322.17 309.24 M354.17 277.24 C354.17 298.57, 343.5 309.24, 322.17 309.24 M322.17 309.24 C242.22 309.24, 162.27 309.24, 32 309.24 M322.17 309.24 C259.34 309.24, 196.51 309.24, 32 309.24 M32 309.24 C10.67 309.24, 0 298.57, 0 277.24 M32 309.24 C10.67 309.24, 0 298.57, 0 277.24 M0 277.24 C0 224.74, 0 172.25, 0 32 M0 277.24 C0 213.2, 0 149.17, 0 32 M0 32 C0 10.67, 10.67 0, 32 0 M0 32 C0 10.67, 10.67 0, 32 0" stroke="#1e1e1e" stroke-width="4" fill="none"></path></g><g transform="translate(396.2954572233016 107.74961060990972) rotate(0 153.35833740234375 57.09035392088845)"><text x="153.35833740234375" y="0" font-family="Cascadia, Segoe UI Emoji" font-size="47.575294934073604px" fill="#1e1e1e" text-anchor="middle" style="white-space: pre;" direction="ltr" dominant-baseline="text-before-edge">Moved-from</text><text x="153.35833740234375" y="57.090353920888326" font-family="Cascadia, Segoe UI Emoji" font-size="47.575294934073604px" fill="#1e1e1e" text-anchor="middle" style="white-space: pre;" direction="ltr" dominant-baseline="text-before-edge">&amp; Destroyed</text></g><g stroke-linecap="round" transform="translate(729.2725586012825 10.440511990127561) rotate(0 177.08582003238507 154.61970853573985)"><path d="M7.86 8.16 C7.86 8.16, 7.86 8.16, 7.86 8.16 M7.86 8.16 C7.86 8.16, 7.86 8.16, 7.86 8.16 M8.78 31.49 C15.86 23.35, 22.93 15.22, 34.37 2.05 M8.78 31.49 C15.64 23.6, 22.5 15.71, 34.37 2.05 M8.39 56.32 C19.16 43.93, 29.93 31.55, 55.63 1.98 M8.39 56.32 C18.01 45.26, 27.63 34.19, 55.63 1.98 M8.66 80.4 C26.54 59.84, 44.41 39.27, 76.89 1.91 M8.66 80.4 C31.27 54.39, 53.89 28.38, 76.89 1.91 M8.27 105.24 C28.36 82.13, 48.45 59.02, 98.15 1.85 M8.27 105.24 C38.69 70.25, 69.11 35.26, 98.15 1.85 M8.54 129.32 C44.84 87.56, 81.15 45.79, 119.41 1.78 M8.54 129.32 C44.37 88.1, 80.21 46.88, 119.41 1.78 M8.15 154.16 C47.4 109, 86.66 63.84, 140.67 1.71 M8.15 154.16 C42.35 114.82, 76.54 75.48, 140.67 1.71 M8.41 178.24 C53.84 125.98, 99.27 73.72, 161.28 2.39 M8.41 178.24 C46.88 133.99, 85.35 89.74, 161.28 2.39 M8.02 203.08 C56.89 146.86, 105.76 90.64, 182.54 2.32 M8.02 203.08 C44.92 160.63, 81.82 118.18, 182.54 2.32 M8.29 227.16 C69.77 156.43, 131.26 85.7, 203.8 2.26 M8.29 227.16 C68.17 158.28, 128.04 89.4, 203.8 2.26 M8.56 251.24 C79.48 169.65, 150.4 88.07, 225.06 2.19 M8.56 251.24 C58.08 194.27, 107.61 137.3, 225.06 2.19 M0.29 285.13 C59.67 216.83, 119.05 148.52, 246.32 2.12 M0.29 285.13 C63.74 212.15, 127.18 139.16, 246.32 2.12 M8.43 300.16 C88.83 207.67, 169.22 115.19, 267.58 2.05 M8.43 300.16 C91.73 204.34, 175.03 108.51, 267.58 2.05 M21.16 309.9 C90.38 230.28, 159.59 150.66, 288.84 1.98 M21.16 309.9 C90.37 230.29, 159.57 150.68, 288.84 1.98 M38.49 314.36 C97.74 246.2, 156.98 178.05, 310.1 1.91 M38.49 314.36 C115.12 226.2, 191.76 138.04, 310.1 1.91 M59.75 314.29 C131.9 231.3, 204.04 148.3, 331.36 1.84 M59.75 314.29 C125.35 238.82, 190.96 163.35, 331.36 1.84 M80.35 314.98 C176.29 204.62, 272.22 94.26, 346.71 8.56 M80.35 314.98 C156.22 227.7, 232.09 140.42, 346.71 8.56 M101.61 314.91 C172.54 233.32, 243.46 151.73, 354.2 24.34 M101.61 314.91 C182.8 221.51, 264 128.11, 354.2 24.34 M122.87 314.84 C210.03 214.57, 297.19 114.31, 362.33 39.37 M122.87 314.84 C191.04 236.43, 259.2 158.01, 362.33 39.37 M144.13 314.77 C196.8 254.18, 249.47 193.59, 362.6 63.45 M144.13 314.77 C230.22 215.74, 316.3 116.71, 362.6 63.45 M165.39 314.7 C239.39 229.58, 313.38 144.46, 362.21 88.29 M165.39 314.7 C208.31 265.33, 251.22 215.97, 362.21 88.29 M186.65 314.63 C222.22 273.72, 257.78 232.81, 362.48 112.37 M186.65 314.63 C245.8 246.59, 304.94 178.56, 362.48 112.37 M207.91 314.56 C248.36 268.04, 288.8 221.51, 362.74 136.45 M207.91 314.56 C239.29 278.47, 270.67 242.37, 362.74 136.45 M229.17 314.49 C274.3 262.58, 319.43 210.67, 362.35 161.29 M229.17 314.49 C256.71 282.82, 284.25 251.14, 362.35 161.29 M250.43 314.42 C273.28 288.14, 296.13 261.86, 362.62 185.37 M250.43 314.42 C288.29 270.87, 326.15 227.32, 362.62 185.37 M271.69 314.36 C302.84 278.52, 333.99 242.69, 362.23 210.21 M271.69 314.36 C293.85 288.86, 316.01 263.37, 362.23 210.21 M292.95 314.29 C314.23 289.81, 335.5 265.34, 362.5 234.29 M292.95 314.29 C314 290.08, 335.04 265.87, 362.5 234.29 M313.56 314.97 C324.87 301.96, 336.19 288.94, 362.76 258.37 M313.56 314.97 C326.9 299.62, 340.24 284.28, 362.76 258.37" stroke="#ff8787" stroke-width="2" fill="none"></path><path d="M32 0 M32 0 C144.99 0, 257.98 0, 322.17 0 M32 0 C136.31 0, 240.63 0, 322.17 0 M322.17 0 C343.5 0, 354.17 10.67, 354.17 32 M322.17 0 C343.5 0, 354.17 10.67, 354.17 32 M354.17 32 C354.17 102.51, 354.17 173.02, 354.17 277.24 M354.17 32 C354.17 112.58, 354.17 193.16, 354.17 277.24 M354.17 277.24 C354.17 298.57, 343.5 309.24, 322.17 309.24 M354.17 277.24 C354.17 298.57, 343.5 309.24, 322.17 309.24 M322.17 309.24 C220.13 309.24, 118.09 309.24, 32 309.24 M322.17 309.24 C226.75 309.24, 131.33 309.24, 32 309.24 M32 309.24 C10.67 309.24, 0 298.57, 0 277.24 M32 309.24 C10.67 309.24, 0 298.57, 0 277.24 M0 277.24 C0 211.22, 0 145.21, 0 32 M0 277.24 C0 218.3, 0 159.37, 0 32 M0 32 C0 10.67, 10.67 0, 32 0 M0 32 C0 10.67, 10.67 0, 32 0" stroke="#1e1e1e" stroke-width="4" fill="none"></path></g><g transform="translate(753.0000412313238 107.96986660497714) rotate(0 153.35833740234375 57.09035392088845)"><text x="153.35833740234375" y="0" font-family="Cascadia, Segoe UI Emoji" font-size="47.575294934073604px" fill="#1e1e1e" text-anchor="middle" style="white-space: pre;" direction="ltr" dominant-baseline="text-before-edge">Moved-from</text><text x="153.35833740234375" y="57.090353920888326" font-family="Cascadia, Segoe UI Emoji" font-size="47.575294934073604px" fill="#1e1e1e" text-anchor="middle" style="white-space: pre;" direction="ltr" dominant-baseline="text-before-edge">&amp; Destroyed</text></g><g stroke-linecap="round" transform="translate(1086.3075266018955 10) rotate(0 177.08582003238507 154.61970853573985)"><path d="M7.86 8.16 C7.86 8.16, 7.86 8.16, 7.86 8.16 M7.86 8.16 C7.86 8.16, 7.86 8.16, 7.86 8.16 M8.78 31.49 C13.99 25.5, 19.2 19.51, 34.37 2.05 M8.78 31.49 C14.83 24.53, 20.88 17.57, 34.37 2.05 M8.39 56.32 C23.41 39.04, 38.43 21.77, 55.63 1.98 M8.39 56.32 C17.85 45.45, 27.3 34.57, 55.63 1.98 M8.66 80.4 C34.64 50.52, 60.62 20.63, 76.89 1.91 M8.66 80.4 C34.5 50.68, 60.34 20.95, 76.89 1.91 M8.27 105.24 C38.92 69.99, 69.56 34.74, 98.15 1.85 M8.27 105.24 C34.6 74.96, 60.92 44.68, 98.15 1.85 M8.54 129.32 C35.4 98.42, 62.26 67.52, 119.41 1.78 M8.54 129.32 C47.31 84.72, 86.09 40.11, 119.41 1.78 M8.15 154.16 C56.01 99.1, 103.87 44.05, 140.67 1.71 M8.15 154.16 C48.59 107.64, 89.03 61.12, 140.67 1.71 M8.41 178.24 C60.96 117.8, 113.5 57.35, 161.28 2.39 M8.41 178.24 C58.31 120.84, 108.21 63.44, 161.28 2.39 M8.02 203.08 C68 134.08, 127.98 65.08, 182.54 2.32 M8.02 203.08 C52.45 151.97, 96.88 100.86, 182.54 2.32 M8.29 227.16 C78.6 146.28, 148.9 65.4, 203.8 2.26 M8.29 227.16 C60.51 167.09, 112.73 107.02, 203.8 2.26 M8.56 251.24 C89.2 158.47, 169.84 65.7, 225.06 2.19 M8.56 251.24 C82.2 166.53, 155.84 81.81, 225.06 2.19 M0.29 285.13 C69.97 204.97, 139.66 124.82, 246.32 2.12 M0.29 285.13 C76.88 197.03, 153.47 108.93, 246.32 2.12 M8.43 300.16 C73.26 225.58, 138.09 151, 267.58 2.05 M8.43 300.16 C97.05 198.21, 185.67 96.27, 267.58 2.05 M21.16 309.9 C81.81 240.13, 142.46 170.37, 288.84 1.98 M21.16 309.9 C122.84 192.94, 224.52 75.97, 288.84 1.98 M38.49 314.36 C119.46 221.21, 200.43 128.07, 310.1 1.91 M38.49 314.36 C98.65 245.15, 158.81 175.94, 310.1 1.91 M59.75 314.29 C119.61 245.42, 179.48 176.56, 331.36 1.84 M59.75 314.29 C161.54 197.19, 263.34 80.09, 331.36 1.84 M80.35 314.98 C175.3 205.75, 270.25 96.52, 346.71 8.56 M80.35 314.98 C165.96 216.49, 251.58 118.01, 346.71 8.56 M101.61 314.91 C155.73 252.66, 209.84 190.4, 354.2 24.34 M101.61 314.91 C197.45 204.67, 293.28 94.42, 354.2 24.34 M122.87 314.84 C214.85 209.03, 306.83 103.22, 362.33 39.37 M122.87 314.84 C210.43 214.12, 297.98 113.4, 362.33 39.37 M144.13 314.77 C204.51 245.32, 264.88 175.86, 362.6 63.45 M144.13 314.77 C200.56 249.86, 256.98 184.95, 362.6 63.45 M165.39 314.7 C216.31 256.13, 267.22 197.56, 362.21 88.29 M165.39 314.7 C216.44 255.98, 267.48 197.27, 362.21 88.29 M186.65 314.63 C255.88 234.99, 325.11 155.35, 362.48 112.37 M186.65 314.63 C231.87 262.62, 277.09 210.6, 362.48 112.37 M207.91 314.56 C266.22 247.49, 324.52 180.42, 362.74 136.45 M207.91 314.56 C252.65 263.1, 297.39 211.63, 362.74 136.45 M229.17 314.49 C265.42 272.8, 301.67 231.1, 362.35 161.29 M229.17 314.49 C256.23 283.37, 283.29 252.24, 362.35 161.29 M250.43 314.42 C278.81 281.79, 307.18 249.15, 362.62 185.37 M250.43 314.42 C286.57 272.85, 322.71 231.28, 362.62 185.37 M271.69 314.36 C302.13 279.35, 332.56 244.34, 362.23 210.21 M271.69 314.36 C299.27 282.64, 326.84 250.92, 362.23 210.21 M292.95 314.29 C315.32 288.56, 337.68 262.83, 362.5 234.29 M292.95 314.29 C307.41 297.66, 321.86 281.03, 362.5 234.29 M313.56 314.97 C329.74 296.35, 345.93 277.74, 362.76 258.37 M313.56 314.97 C330.82 295.11, 348.09 275.25, 362.76 258.37" stroke="#ff8787" stroke-width="2" fill="none"></path><path d="M32 0 M32 0 C129.28 0, 226.56 0, 322.17 0 M32 0 C141.18 0, 250.35 0, 322.17 0 M322.17 0 C343.5 0, 354.17 10.67, 354.17 32 M322.17 0 C343.5 0, 354.17 10.67, 354.17 32 M354.17 32 C354.17 104.51, 354.17 177.03, 354.17 277.24 M354.17 32 C354.17 123.01, 354.17 214.01, 354.17 277.24 M354.17 277.24 C354.17 298.57, 343.5 309.24, 322.17 309.24 M354.17 277.24 C354.17 298.57, 343.5 309.24, 322.17 309.24 M322.17 309.24 C206.79 309.24, 91.4 309.24, 32 309.24 M322.17 309.24 C233.04 309.24, 143.9 309.24, 32 309.24 M32 309.24 C10.67 309.24, 0 298.57, 0 277.24 M32 309.24 C10.67 309.24, 0 298.57, 0 277.24 M0 277.24 C0 210.28, 0 143.32, 0 32 M0 277.24 C0 226.36, 0 175.49, 0 32 M0 32 C0 10.67, 10.67 0, 32 0 M0 32 C0 10.67, 10.67 0, 32 0" stroke="#1e1e1e" stroke-width="4" fill="none"></path></g><g transform="translate(1110.0350092319368 107.52935461484958) rotate(0 153.35833740234375 57.09035392088845)"><text x="153.35833740234375" y="0" font-family="Cascadia, Segoe UI Emoji" font-size="47.575294934073604px" fill="#1e1e1e" text-anchor="middle" style="white-space: pre;" direction="ltr" dominant-baseline="text-before-edge">Moved-from</text><text x="153.35833740234375" y="57.090353920888326" font-family="Cascadia, Segoe UI Emoji" font-size="47.575294934073604px" fill="#1e1e1e" text-anchor="middle" style="white-space: pre;" direction="ltr" dominant-baseline="text-before-edge">&amp; Destroyed</text></g><g stroke-linecap="round"><g transform="translate(538.1553583786522 345.3397524866996) rotate(0 0.6193941755356036 120.57037936618144)"><path d="M0 0 C0.21 40.19, 1.03 200.95, 1.24 241.14 M0 0 C0.21 40.19, 1.03 200.95, 1.24 241.14" stroke="#1e1e1e" stroke-width="4" fill="none"></path></g><g transform="translate(538.1553583786522 345.3397524866996) rotate(0 0.6193941755356036 120.57037936618144)"><path d="M1.24 241.14 L-5.17 227.58 L7.51 227.51 L1.24 241.14" stroke="none" stroke-width="0" fill="#1e1e1e" fill-rule="evenodd"></path><path d="M1.24 241.14 C-0.86 236.7, -2.96 232.26, -5.17 227.58 M1.24 241.14 C-0.76 236.9, -2.77 232.67, -5.17 227.58 M-5.17 227.58 C-2.02 227.56, 1.12 227.55, 7.51 227.51 M-5.17 227.58 C-1.66 227.56, 1.84 227.54, 7.51 227.51 M7.51 227.51 C5.65 231.55, 3.79 235.59, 1.24 241.14 M7.51 227.51 C5.6 231.67, 3.68 235.83, 1.24 241.14 M1.24 241.14 C1.24 241.14, 1.24 241.14, 1.24 241.14 M1.24 241.14 C1.24 241.14, 1.24 241.14, 1.24 241.14" stroke="#1e1e1e" stroke-width="4" fill="none"></path></g></g><mask></mask><g stroke-linecap="round"><g transform="translate(891.1199286763685 338.5383414295611) rotate(0 1.0043226627144577 126.77492482072739)"><path d="M0 0 C0.33 42.26, 1.67 211.29, 2.01 253.55 M0 0 C0.33 42.26, 1.67 211.29, 2.01 253.55" stroke="#1e1e1e" stroke-width="4" fill="none"></path></g><g transform="translate(891.1199286763685 338.5383414295611) rotate(0 1.0043226627144577 126.77492482072739)"><path d="M2.01 253.55 L-4.44 240.01 L8.24 239.91 L2.01 253.55" stroke="none" stroke-width="0" fill="#1e1e1e" fill-rule="evenodd"></path><path d="M2.01 253.55 C0.32 250, -1.37 246.45, -4.44 240.01 M2.01 253.55 C-0.43 248.42, -2.87 243.29, -4.44 240.01 M-4.44 240.01 C-0.56 239.98, 3.32 239.94, 8.24 239.91 M-4.44 240.01 C-1.62 239.98, 1.2 239.96, 8.24 239.91 M8.24 239.91 C6.74 243.19, 5.24 246.47, 2.01 253.55 M8.24 239.91 C5.92 244.99, 3.6 250.07, 2.01 253.55 M2.01 253.55 C2.01 253.55, 2.01 253.55, 2.01 253.55 M2.01 253.55 C2.01 253.55, 2.01 253.55, 2.01 253.55" stroke="#1e1e1e" stroke-width="4" fill="none"></path></g></g><mask></mask><g stroke-linecap="round"><g transform="translate(1255.7211057888903 334.4306615776113) rotate(0 0.9664399229036462 127.34310663890756)"><path d="M0 0 C0.32 42.45, 1.61 212.24, 1.93 254.69 M0 0 C0.32 42.45, 1.61 212.24, 1.93 254.69" stroke="#1e1e1e" stroke-width="4" fill="none"></path></g><g transform="translate(1255.7211057888903 334.4306615776113) rotate(0 0.9664399229036462 127.34310663890756)"><path d="M1.93 254.69 L-4.51 241.14 L8.17 241.04 L1.93 254.69" stroke="none" stroke-width="0" fill="#1e1e1e" fill-rule="evenodd"></path><path d="M1.93 254.69 C-0.05 250.51, -2.04 246.33, -4.51 241.14 M1.93 254.69 C-0.14 250.33, -2.21 245.97, -4.51 241.14 M-4.51 241.14 C-0.2 241.11, 4.1 241.07, 8.17 241.04 M-4.51 241.14 C-0.41 241.11, 3.69 241.08, 8.17 241.04 M8.17 241.04 C5.92 245.97, 3.66 250.9, 1.93 254.69 M8.17 241.04 C6.02 245.74, 3.87 250.44, 1.93 254.69 M1.93 254.69 C1.93 254.69, 1.93 254.69, 1.93 254.69 M1.93 254.69 C1.93 254.69, 1.93 254.69, 1.93 254.69" stroke="#1e1e1e" stroke-width="4" fill="none"></path></g></g><mask></mask><g transform="translate(30 924.6002449306543) rotate(0 345.5 58.971079010931135)"><text x="345.5" y="0" font-family="Cascadia, Segoe UI Emoji" font-size="98.285131684885px" fill="#868e96" text-anchor="middle" style="white-space: pre;" direction="ltr" dominant-baseline="text-before-edge">t_buffer_new</text></g><g transform="translate(10 347.95354893273907) rotate(0 227 58.11777500885364)"><text x="227" y="0" font-family="Cascadia, Segoe UI Emoji" font-size="96.86295834809025px" fill="#868e96" text-anchor="middle" style="white-space: pre;" direction="ltr" dominant-baseline="text-before-edge">t_buffer</text></g><g stroke-linecap="round"><g transform="translate(195.5 331.4979759426278) rotate(0 0 20)"><path d="M0 0 C0 6.67, 0 33.33, 0 40 M0 0 C0 6.67, 0 33.33, 0 40" stroke="#1e1e1e" stroke-width="4" fill="none"></path></g></g><mask></mask><g stroke-linecap="round" transform="translate(1080.044216359826 600.0556453637146) rotate(0 175.74836111837976 153.45192724515255)"><path d="M7.86 8.16 C7.86 8.16, 7.86 8.16, 7.86 8.16 M7.86 8.16 C7.86 8.16, 7.86 8.16, 7.86 8.16 M8.78 31.49 C14.92 24.43, 21.05 17.37, 34.37 2.05 M8.78 31.49 C14.9 24.45, 21.02 17.41, 34.37 2.05 M8.39 56.32 C23.12 39.38, 37.84 22.44, 55.63 1.98 M8.39 56.32 C23.02 39.49, 37.65 22.66, 55.63 1.98 M8.66 80.4 C30.29 55.52, 51.92 30.64, 76.89 1.91 M8.66 80.4 C26.68 59.67, 44.71 38.94, 76.89 1.91 M8.27 105.24 C29.32 81.03, 50.37 56.81, 98.15 1.85 M8.27 105.24 C36.9 72.31, 65.52 39.38, 98.15 1.85 M8.54 129.32 C40.34 92.74, 72.14 56.15, 119.41 1.78 M8.54 129.32 C33.5 100.61, 58.45 71.9, 119.41 1.78 M8.15 154.16 C45.39 111.32, 82.62 68.48, 140.67 1.71 M8.15 154.16 C52.57 103.05, 97 51.94, 140.67 1.71 M8.41 178.24 C60.77 118.01, 113.14 57.77, 161.28 2.39 M8.41 178.24 C48.38 132.26, 88.35 86.29, 161.28 2.39 M8.02 203.08 C52.49 151.92, 96.96 100.77, 182.54 2.32 M8.02 203.08 C67.38 134.79, 126.74 66.51, 182.54 2.32 M8.29 227.16 C85.73 138.08, 163.16 49, 203.8 2.26 M8.29 227.16 C65.77 161.03, 123.25 94.91, 203.8 2.26 M8.56 251.24 C68.53 182.24, 128.51 113.25, 225.06 2.19 M8.56 251.24 C72.34 177.86, 136.13 104.49, 225.06 2.19 M1.61 283.62 C69.7 205.29, 137.79 126.96, 246.32 2.12 M1.61 283.62 C56.63 220.33, 111.65 157.04, 246.32 2.12 M9.09 299.4 C109.32 184.1, 209.56 68.79, 267.58 2.05 M9.09 299.4 C97.33 197.9, 185.57 96.39, 267.58 2.05 M22.48 308.39 C112.65 204.66, 202.83 100.92, 288.84 1.98 M22.48 308.39 C112.3 205.06, 202.12 101.73, 288.84 1.98 M39.14 313.61 C132.88 205.78, 226.61 97.95, 310.1 1.91 M39.14 313.61 C94.5 249.93, 149.85 186.25, 310.1 1.91 M60.4 313.54 C126.53 237.47, 192.65 161.4, 330.04 3.35 M60.4 313.54 C140.14 221.81, 219.89 130.07, 330.04 3.35 M81.66 313.47 C142.1 243.94, 202.54 174.42, 345.4 10.07 M81.66 313.47 C184.14 195.58, 286.62 77.69, 345.4 10.07 M102.92 313.4 C199.24 202.6, 295.55 91.8, 352.88 25.85 M102.92 313.4 C189.45 213.87, 275.97 114.33, 352.88 25.85 M124.18 313.33 C179.56 249.63, 234.93 185.93, 361.02 40.88 M124.18 313.33 C214.33 209.63, 304.48 105.92, 361.02 40.88 M145.45 313.26 C202.55 247.57, 259.66 181.87, 361.29 64.96 M145.45 313.26 C213.55 234.92, 281.65 156.57, 361.29 64.96 M166.71 313.19 C220.3 251.54, 273.89 189.89, 361.55 89.04 M166.71 313.19 C215.06 257.57, 263.41 201.94, 361.55 89.04 M187.97 313.12 C241.23 251.85, 294.49 190.58, 361.17 113.88 M187.97 313.12 C224.71 270.85, 261.46 228.58, 361.17 113.88 M209.23 313.05 C268.09 245.34, 326.95 177.63, 361.43 137.96 M209.23 313.05 C245.76 271.02, 282.3 228.99, 361.43 137.96 M230.49 312.98 C264.09 274.33, 297.69 235.67, 361.04 162.8 M230.49 312.98 C259.94 279.1, 289.4 245.21, 361.04 162.8 M251.09 313.67 C286.53 272.9, 321.97 232.14, 361.31 186.88 M251.09 313.67 C293.69 264.66, 336.29 215.65, 361.31 186.88 M272.35 313.6 C305.92 274.99, 339.48 236.38, 361.57 210.96 M272.35 313.6 C301.5 280.07, 330.65 246.53, 361.57 210.96 M293.61 313.53 C317.32 286.26, 341.02 258.99, 361.18 235.8 M293.61 313.53 C313.81 290.29, 334.02 267.05, 361.18 235.8 M320.12 307.43 C330.23 295.79, 340.35 284.15, 361.45 259.88 M320.12 307.43 C331.17 294.71, 342.23 281.99, 361.45 259.88" stroke="#a5d8ff" stroke-width="2" fill="none"></path><path d="M32 0 M32 0 C108.11 0, 184.21 0, 319.5 0 M32 0 C138.4 0, 244.81 0, 319.5 0 M319.5 0 C340.83 0, 351.5 10.67, 351.5 32 M319.5 0 C340.83 0, 351.5 10.67, 351.5 32 M351.5 32 C351.5 122.91, 351.5 213.82, 351.5 274.9 M351.5 32 C351.5 111.15, 351.5 190.29, 351.5 274.9 M351.5 274.9 C351.5 296.24, 340.83 306.9, 319.5 306.9 M351.5 274.9 C351.5 296.24, 340.83 306.9, 319.5 306.9 M319.5 306.9 C229.52 306.9, 139.54 306.9, 32 306.9 M319.5 306.9 C248.97 306.9, 178.45 306.9, 32 306.9 M32 306.9 C10.67 306.9, 0 296.24, 0 274.9 M32 306.9 C10.67 306.9, 0 296.24, 0 274.9 M0 274.9 C0 223.6, 0 172.3, 0 32 M0 274.9 C0 207.37, 0 139.83, 0 32 M0 32 C0 10.67, 10.67 0, 32 0 M0 32 C0 10.67, 10.67 0, 32 0" stroke="#1e1e1e" stroke-width="4" fill="none"></path></g><g transform="translate(1110.3735657038537 644.006102953852) rotate(0 146.40209953321028 112.41543341336182)"><text x="146.40209953321022" y="0" font-family="Cascadia, Segoe UI Emoji" font-size="62.45301856297864px" fill="#1e1e1e" text-anchor="middle" style="white-space: pre;" direction="ltr" dominant-baseline="text-before-edge">T object</text><text x="146.40209953321022" y="74.94362227557437" font-family="Cascadia, Segoe UI Emoji" font-size="62.45301856297864px" fill="#1e1e1e" text-anchor="middle" style="white-space: pre;" direction="ltr" dominant-baseline="text-before-edge"></text><text x="146.40209953321022" y="149.88724455114874" font-family="Cascadia, Segoe UI Emoji" font-size="62.45301856297864px" fill="#1e1e1e" text-anchor="middle" style="white-space: pre;" direction="ltr" dominant-baseline="text-before-edge">#4</text></g><g stroke-linecap="round" transform="translate(724.8669076045185 600.8505271417125) rotate(0 175.74836111837976 153.45192724515255)"><path d="M7.86 8.16 C7.86 8.16, 7.86 8.16, 7.86 8.16 M7.86 8.16 C7.86 8.16, 7.86 8.16, 7.86 8.16 M8.78 31.49 C16.11 23.05, 23.44 14.62, 34.37 2.05 M8.78 31.49 C13.96 25.53, 19.14 19.57, 34.37 2.05 M8.39 56.32 C23.32 39.15, 38.26 21.97, 55.63 1.98 M8.39 56.32 C26.22 35.81, 44.05 15.3, 55.63 1.98 M8.66 80.4 C26.76 59.59, 44.85 38.77, 76.89 1.91 M8.66 80.4 C23.24 63.63, 37.83 46.85, 76.89 1.91 M8.27 105.24 C32.22 77.69, 56.17 50.14, 98.15 1.85 M8.27 105.24 C36.22 73.09, 64.16 40.95, 98.15 1.85 M8.54 129.32 C33.18 100.98, 57.82 72.63, 119.41 1.78 M8.54 129.32 C39.58 93.61, 70.62 57.9, 119.41 1.78 M8.15 154.16 C53.53 101.95, 98.92 49.73, 140.67 1.71 M8.15 154.16 C35.41 122.79, 62.68 91.43, 140.67 1.71 M8.41 178.24 C51.52 128.65, 94.63 79.06, 161.28 2.39 M8.41 178.24 C55.71 123.83, 103.01 69.43, 161.28 2.39 M8.02 203.08 C56.54 147.26, 105.06 91.45, 182.54 2.32 M8.02 203.08 C44.83 160.74, 81.64 118.39, 182.54 2.32 M8.29 227.16 C64.55 162.44, 120.8 97.73, 203.8 2.26 M8.29 227.16 C84.85 139.09, 161.41 51.02, 203.8 2.26 M8.56 251.24 C79.08 170.11, 149.6 88.98, 225.06 2.19 M8.56 251.24 C64.1 187.34, 119.65 123.44, 225.06 2.19 M1.61 283.62 C50.92 226.9, 100.23 170.17, 246.32 2.12 M1.61 283.62 C98.84 171.77, 196.07 59.92, 246.32 2.12 M9.09 299.4 C75.52 222.98, 141.95 146.56, 267.58 2.05 M9.09 299.4 C74.79 223.83, 140.48 148.25, 267.58 2.05 M22.48 308.39 C103.47 215.22, 184.45 122.06, 288.84 1.98 M22.48 308.39 C123.34 192.36, 224.21 76.32, 288.84 1.98 M39.14 313.61 C137.22 200.79, 235.29 87.97, 310.1 1.91 M39.14 313.61 C119.44 221.23, 199.74 128.86, 310.1 1.91 M60.4 313.54 C166.88 191.05, 273.36 68.56, 330.04 3.35 M60.4 313.54 C159.89 199.1, 259.37 84.66, 330.04 3.35 M81.66 313.47 C147.46 237.78, 213.25 162.09, 345.4 10.07 M81.66 313.47 C149.46 235.48, 217.26 157.49, 345.4 10.07 M102.92 313.4 C200.97 200.61, 299.02 87.82, 352.88 25.85 M102.92 313.4 C198.57 203.37, 294.22 93.34, 352.88 25.85 M124.18 313.33 C182.73 245.98, 241.28 178.63, 361.02 40.88 M124.18 313.33 C216.9 206.67, 309.62 100.01, 361.02 40.88 M145.45 313.26 C217.36 230.53, 289.28 147.8, 361.29 64.96 M145.45 313.26 C191.99 259.72, 238.53 206.18, 361.29 64.96 M166.71 313.19 C205.97 268.02, 245.24 222.85, 361.55 89.04 M166.71 313.19 C232.18 237.87, 297.65 162.56, 361.55 89.04 M187.97 313.12 C252.65 238.72, 317.32 164.31, 361.17 113.88 M187.97 313.12 C230.38 264.33, 272.8 215.53, 361.17 113.88 M209.23 313.05 C251.48 264.45, 293.73 215.85, 361.43 137.96 M209.23 313.05 C256.16 259.06, 303.09 205.07, 361.43 137.96 M230.49 312.98 C281.08 254.78, 331.67 196.58, 361.04 162.8 M230.49 312.98 C260.36 278.62, 290.23 244.26, 361.04 162.8 M251.09 313.67 C290.69 268.12, 330.28 222.57, 361.31 186.88 M251.09 313.67 C284.97 274.69, 318.86 235.71, 361.31 186.88 M272.35 313.6 C305.25 275.76, 338.14 237.91, 361.57 210.96 M272.35 313.6 C299.73 282.11, 327.11 250.61, 361.57 210.96 M293.61 313.53 C310.45 294.16, 327.29 274.79, 361.18 235.8 M293.61 313.53 C314.79 289.17, 335.97 264.81, 361.18 235.8 M320.12 307.43 C329.58 296.54, 339.05 285.65, 361.45 259.88 M320.12 307.43 C336.65 288.41, 353.17 269.4, 361.45 259.88" stroke="#a5d8ff" stroke-width="2" fill="none"></path><path d="M32 0 M32 0 C109.27 0, 186.54 0, 319.5 0 M32 0 C114.72 0, 197.44 0, 319.5 0 M319.5 0 C340.83 0, 351.5 10.67, 351.5 32 M319.5 0 C340.83 0, 351.5 10.67, 351.5 32 M351.5 32 C351.5 107.92, 351.5 183.84, 351.5 274.9 M351.5 32 C351.5 100.99, 351.5 169.98, 351.5 274.9 M351.5 274.9 C351.5 296.24, 340.83 306.9, 319.5 306.9 M351.5 274.9 C351.5 296.24, 340.83 306.9, 319.5 306.9 M319.5 306.9 C235.03 306.9, 150.55 306.9, 32 306.9 M319.5 306.9 C234.32 306.9, 149.15 306.9, 32 306.9 M32 306.9 C10.67 306.9, 0 296.24, 0 274.9 M32 306.9 C10.67 306.9, 0 296.24, 0 274.9 M0 274.9 C0 192.93, 0 110.97, 0 32 M0 274.9 C0 185.76, 0 96.62, 0 32 M0 32 C0 10.67, 10.67 0, 32 0 M0 32 C0 10.67, 10.67 0, 32 0" stroke="#1e1e1e" stroke-width="4" fill="none"></path></g><g transform="translate(755.1962569485445 644.8009847318499) rotate(0 146.40209953321028 112.41543341336182)"><text x="146.40209953321022" y="0" font-family="Cascadia, Segoe UI Emoji" font-size="62.45301856297864px" fill="#1e1e1e" text-anchor="middle" style="white-space: pre;" direction="ltr" dominant-baseline="text-before-edge">T object</text><text x="146.40209953321022" y="74.94362227557437" font-family="Cascadia, Segoe UI Emoji" font-size="62.45301856297864px" fill="#1e1e1e" text-anchor="middle" style="white-space: pre;" direction="ltr" dominant-baseline="text-before-edge"></text><text x="146.40209953321022" y="149.88724455114874" font-family="Cascadia, Segoe UI Emoji" font-size="62.45301856297864px" fill="#1e1e1e" text-anchor="middle" style="white-space: pre;" direction="ltr" dominant-baseline="text-before-edge">#3</text></g><g stroke-linecap="round" transform="translate(369.6363701587229 599.2415702532344) rotate(0 175.74836111837988 153.45192724515255)"><path d="M7.86 8.16 C7.86 8.16, 7.86 8.16, 7.86 8.16 M7.86 8.16 C7.86 8.16, 7.86 8.16, 7.86 8.16 M8.78 31.49 C16.63 22.46, 24.47 13.44, 34.37 2.05 M8.78 31.49 C16.68 22.4, 24.58 13.32, 34.37 2.05 M8.39 56.32 C19.9 43.09, 31.41 29.85, 55.63 1.98 M8.39 56.32 C20.43 42.48, 32.46 28.63, 55.63 1.98 M8.66 80.4 C35.34 49.71, 62.03 19.01, 76.89 1.91 M8.66 80.4 C26.39 60.01, 44.12 39.61, 76.89 1.91 M8.27 105.24 C42.92 65.38, 77.57 25.52, 98.15 1.85 M8.27 105.24 C40.37 68.32, 72.47 31.39, 98.15 1.85 M8.54 129.32 C48.25 83.63, 87.97 37.94, 119.41 1.78 M8.54 129.32 C38.05 95.37, 67.57 61.41, 119.41 1.78 M8.15 154.16 C44.33 112.53, 80.52 70.91, 140.67 1.71 M8.15 154.16 C42.01 115.2, 75.88 76.24, 140.67 1.71 M8.41 178.24 C48.73 131.86, 89.04 85.49, 161.28 2.39 M8.41 178.24 C39.73 142.22, 71.04 106.19, 161.28 2.39 M8.02 203.08 C72.84 128.52, 137.65 53.96, 182.54 2.32 M8.02 203.08 C54.74 149.33, 101.46 95.59, 182.54 2.32 M8.29 227.16 C63.45 163.71, 118.61 100.25, 203.8 2.26 M8.29 227.16 C73.6 152.03, 138.9 76.91, 203.8 2.26 M8.56 251.24 C65.8 185.38, 123.05 119.53, 225.06 2.19 M8.56 251.24 C71.89 178.38, 135.23 105.52, 225.06 2.19 M1.61 283.62 C76.66 197.29, 151.71 110.95, 246.32 2.12 M1.61 283.62 C73.38 201.06, 145.16 118.49, 246.32 2.12 M9.09 299.4 C74.95 223.64, 140.8 147.88, 267.58 2.05 M9.09 299.4 C63.43 236.89, 117.77 174.39, 267.58 2.05 M22.48 308.39 C115.55 201.32, 208.62 94.25, 288.84 1.98 M22.48 308.39 C103.31 215.4, 184.15 122.41, 288.84 1.98 M39.14 313.61 C137.73 200.2, 236.31 86.8, 310.1 1.91 M39.14 313.61 C115.6 225.66, 192.05 137.71, 310.1 1.91 M60.4 313.54 C152.38 207.73, 244.35 101.93, 330.04 3.35 M60.4 313.54 C159.26 199.82, 258.11 86.1, 330.04 3.35 M81.66 313.47 C169.15 212.82, 256.64 112.18, 345.4 10.07 M81.66 313.47 C174.25 206.96, 266.83 100.46, 345.4 10.07 M102.92 313.4 C185.71 218.16, 268.5 122.93, 352.88 25.85 M102.92 313.4 C169.41 236.92, 235.89 160.43, 352.88 25.85 M124.18 313.33 C175.66 254.11, 227.14 194.89, 361.02 40.88 M124.18 313.33 C181.21 247.73, 238.24 182.12, 361.02 40.88 M145.45 313.26 C207.61 241.75, 269.77 170.24, 361.29 64.96 M145.45 313.26 C224.48 222.34, 303.51 131.43, 361.29 64.96 M166.71 313.19 C244.32 223.9, 321.94 134.61, 361.55 89.04 M166.71 313.19 C236.19 233.26, 305.67 153.33, 361.55 89.04 M187.97 313.12 C239.67 253.64, 291.38 194.16, 361.17 113.88 M187.97 313.12 C224.85 270.7, 261.73 228.27, 361.17 113.88 M209.23 313.05 C265.71 248.08, 322.19 183.1, 361.43 137.96 M209.23 313.05 C252.58 263.18, 295.94 213.3, 361.43 137.96 M230.49 312.98 C278.6 257.64, 326.71 202.29, 361.04 162.8 M230.49 312.98 C274.01 262.92, 317.53 212.85, 361.04 162.8 M251.09 313.67 C289.75 269.2, 328.4 224.73, 361.31 186.88 M251.09 313.67 C294.44 263.81, 337.78 213.94, 361.31 186.88 M272.35 313.6 C292.2 290.76, 312.06 267.92, 361.57 210.96 M272.35 313.6 C293.38 289.4, 314.42 265.21, 361.57 210.96 M293.61 313.53 C311.93 292.45, 330.25 271.38, 361.18 235.8 M293.61 313.53 C309.2 295.59, 324.8 277.65, 361.18 235.8 M320.12 307.43 C332.67 292.98, 345.23 278.54, 361.45 259.88 M320.12 307.43 C328.78 297.46, 337.45 287.49, 361.45 259.88" stroke="#a5d8ff" stroke-width="2" fill="none"></path><path d="M32 0 M32 0 C142.68 0, 253.35 0, 319.5 0 M32 0 C126.16 0, 220.31 0, 319.5 0 M319.5 0 C340.83 0, 351.5 10.67, 351.5 32 M319.5 0 C340.83 0, 351.5 10.67, 351.5 32 M351.5 32 C351.5 118.83, 351.5 205.66, 351.5 274.9 M351.5 32 C351.5 85.6, 351.5 139.2, 351.5 274.9 M351.5 274.9 C351.5 296.24, 340.83 306.9, 319.5 306.9 M351.5 274.9 C351.5 296.24, 340.83 306.9, 319.5 306.9 M319.5 306.9 C242.46 306.9, 165.43 306.9, 32 306.9 M319.5 306.9 C257.74 306.9, 195.98 306.9, 32 306.9 M32 306.9 C10.67 306.9, 0 296.24, 0 274.9 M32 306.9 C10.67 306.9, 0 296.24, 0 274.9 M0 274.9 C0 181.18, 0 87.45, 0 32 M0 274.9 C0 203.15, 0 131.39, 0 32 M0 32 C0 10.67, 10.67 0, 32 0 M0 32 C0 10.67, 10.67 0, 32 0" stroke="#1e1e1e" stroke-width="4" fill="none"></path></g><g transform="translate(399.9657195027503 643.1920278433718) rotate(0 146.40209953321028 112.41543341336182)"><text x="146.40209953321022" y="0" font-family="Cascadia, Segoe UI Emoji" font-size="62.45301856297864px" fill="#1e1e1e" text-anchor="middle" style="white-space: pre;" direction="ltr" dominant-baseline="text-before-edge">T object</text><text x="146.40209953321022" y="74.94362227557437" font-family="Cascadia, Segoe UI Emoji" font-size="62.45301856297864px" fill="#1e1e1e" text-anchor="middle" style="white-space: pre;" direction="ltr" dominant-baseline="text-before-edge"></text><text x="146.40209953321022" y="149.88724455114874" font-family="Cascadia, Segoe UI Emoji" font-size="62.45301856297864px" fill="#1e1e1e" text-anchor="middle" style="white-space: pre;" direction="ltr" dominant-baseline="text-before-edge">#2</text></g><g stroke-linecap="round" transform="translate(14.45906140341458 600.0364520312469) rotate(0 175.74836111837988 153.45192724515255)"><path d="M7.86 8.16 C7.86 8.16, 7.86 8.16, 7.86 8.16 M7.86 8.16 C7.86 8.16, 7.86 8.16, 7.86 8.16 M8.78 31.49 C16.14 23.03, 23.49 14.57, 34.37 2.05 M8.78 31.49 C17.75 21.18, 26.71 10.87, 34.37 2.05 M8.39 56.32 C20.07 42.89, 31.74 29.47, 55.63 1.98 M8.39 56.32 C23.44 39.02, 38.48 21.71, 55.63 1.98 M8.66 80.4 C30.02 55.84, 51.37 31.27, 76.89 1.91 M8.66 80.4 C26.65 59.71, 44.65 39.01, 76.89 1.91 M8.27 105.24 C42.01 66.43, 75.75 27.62, 98.15 1.85 M8.27 105.24 C35.48 73.94, 62.69 42.63, 98.15 1.85 M8.54 129.32 C46.73 85.39, 84.92 41.45, 119.41 1.78 M8.54 129.32 C43.34 89.29, 78.13 49.26, 119.41 1.78 M8.15 154.16 C46.32 110.25, 84.49 66.34, 140.67 1.71 M8.15 154.16 C61.02 93.33, 113.9 32.5, 140.67 1.71 M8.41 178.24 C64.77 113.41, 121.13 48.58, 161.28 2.39 M8.41 178.24 C61.39 117.3, 114.36 56.36, 161.28 2.39 M8.02 203.08 C74.6 126.49, 141.17 49.91, 182.54 2.32 M8.02 203.08 C59.27 144.13, 110.52 85.17, 182.54 2.32 M8.29 227.16 C65.27 161.61, 122.24 96.07, 203.8 2.26 M8.29 227.16 C84.31 139.71, 160.33 52.26, 203.8 2.26 M8.56 251.24 C88.86 158.86, 169.16 66.48, 225.06 2.19 M8.56 251.24 C63.63 187.88, 118.71 124.53, 225.06 2.19 M1.61 283.62 C84.13 188.69, 166.66 93.75, 246.32 2.12 M1.61 283.62 C62.54 213.53, 123.47 143.44, 246.32 2.12 M9.09 299.4 C84.1 213.12, 159.1 126.83, 267.58 2.05 M9.09 299.4 C94.42 201.24, 179.76 103.07, 267.58 2.05 M22.48 308.39 C88.9 231.98, 155.32 155.57, 288.84 1.98 M22.48 308.39 C106.81 211.38, 191.14 114.36, 288.84 1.98 M39.14 313.61 C118.24 222.62, 197.34 131.63, 310.1 1.91 M39.14 313.61 C134.27 204.18, 229.39 94.75, 310.1 1.91 M60.4 313.54 C138.55 223.64, 216.7 133.74, 330.04 3.35 M60.4 313.54 C158.14 201.1, 255.88 88.67, 330.04 3.35 M81.66 313.47 C146.94 238.37, 212.22 163.28, 345.4 10.07 M81.66 313.47 C168.33 213.77, 255 114.07, 345.4 10.07 M102.92 313.4 C162.75 244.57, 222.58 175.75, 352.88 25.85 M102.92 313.4 C187.56 216.03, 272.2 118.66, 352.88 25.85 M124.18 313.33 C206.4 218.76, 288.61 124.18, 361.02 40.88 M124.18 313.33 C184.68 243.73, 245.18 174.14, 361.02 40.88 M145.45 313.26 C231.24 214.56, 317.04 115.87, 361.29 64.96 M145.45 313.26 C227.11 219.31, 308.78 125.37, 361.29 64.96 M166.71 313.19 C225.08 246.04, 283.46 178.88, 361.55 89.04 M166.71 313.19 C226.23 244.72, 285.75 176.24, 361.55 89.04 M187.97 313.12 C254.21 236.91, 320.46 160.71, 361.17 113.88 M187.97 313.12 C256.6 234.17, 325.23 155.22, 361.17 113.88 M209.23 313.05 C259.85 254.82, 310.48 196.58, 361.43 137.96 M209.23 313.05 C244.83 272.1, 280.43 231.14, 361.43 137.96 M230.49 312.98 C273.75 263.22, 317.01 213.45, 361.04 162.8 M230.49 312.98 C268.1 269.72, 305.71 226.45, 361.04 162.8 M251.09 313.67 C294.35 263.9, 337.62 214.13, 361.31 186.88 M251.09 313.67 C292.66 265.85, 334.23 218.03, 361.31 186.88 M272.35 313.6 C299.1 282.82, 325.86 252.05, 361.57 210.96 M272.35 313.6 C301.88 279.64, 331.4 245.67, 361.57 210.96 M293.61 313.53 C316.89 286.75, 340.17 259.97, 361.18 235.8 M293.61 313.53 C310.7 293.87, 327.79 274.21, 361.18 235.8 M320.12 307.43 C330.97 294.94, 341.82 282.46, 361.45 259.88 M320.12 307.43 C335.95 289.21, 351.78 271, 361.45 259.88" stroke="#a5d8ff" stroke-width="2" fill="none"></path><path d="M32 0 M32 0 C139.06 0, 246.12 0, 319.5 0 M32 0 C135.51 0, 239.03 0, 319.5 0 M319.5 0 C340.83 0, 351.5 10.67, 351.5 32 M319.5 0 C340.83 0, 351.5 10.67, 351.5 32 M351.5 32 C351.5 122.16, 351.5 212.33, 351.5 274.9 M351.5 32 C351.5 93.51, 351.5 155.03, 351.5 274.9 M351.5 274.9 C351.5 296.24, 340.83 306.9, 319.5 306.9 M351.5 274.9 C351.5 296.24, 340.83 306.9, 319.5 306.9 M319.5 306.9 C233.05 306.9, 146.6 306.9, 32 306.9 M319.5 306.9 C243.23 306.9, 166.96 306.9, 32 306.9 M32 306.9 C10.67 306.9, 0 296.24, 0 274.9 M32 306.9 C10.67 306.9, 0 296.24, 0 274.9 M0 274.9 C0 195.99, 0 117.09, 0 32 M0 274.9 C0 183.92, 0 92.93, 0 32 M0 32 C0 10.67, 10.67 0, 32 0 M0 32 C0 10.67, 10.67 0, 32 0" stroke="#1e1e1e" stroke-width="4" fill="none"></path></g><g transform="translate(44.78841074744241 643.9869096213843) rotate(0 146.40209953321028 112.41543341336182)"><text x="146.40209953321022" y="0" font-family="Cascadia, Segoe UI Emoji" font-size="62.45301856297864px" fill="#1e1e1e" text-anchor="middle" style="white-space: pre;" direction="ltr" dominant-baseline="text-before-edge">T object</text><text x="146.40209953321022" y="74.94362227557437" font-family="Cascadia, Segoe UI Emoji" font-size="62.45301856297864px" fill="#1e1e1e" text-anchor="middle" style="white-space: pre;" direction="ltr" dominant-baseline="text-before-edge"></text><text x="146.40209953321022" y="149.88724455114874" font-family="Cascadia, Segoe UI Emoji" font-size="62.45301856297864px" fill="#1e1e1e" text-anchor="middle" style="white-space: pre;" direction="ltr" dominant-baseline="text-before-edge">#1</text></g></svg>