<svg version="1.1" xmlns="http://www.w3.org/2000/svg" viewBox="0 0 2265 1202.5" width="6795" height="3607.5">
  <!-- svg-source:excalidraw -->
  
  <defs>
    <style class="style-fonts">
      @font-face {
        font-family: "Virgil";
        src: url("https://excalidraw.com/Virgil.woff2");
      }
      @font-face {
        font-family: "Cascadia";
        src: url("https://excalidraw.com/Cascadia.woff2");
      }
    </style>
    
  </defs>
  <g stroke-linecap="round" transform="translate(10 10) rotate(0 1122.5 591.25)"><path d="M0 0 C0 0, 0 0, 0 0 M0 0 C0 0, 0 0, 0 0 M0.27 24.08 C8.41 14.71, 16.56 5.34, 21.26 -0.07 M0.27 24.08 C4.69 19, 9.11 13.91, 21.26 -0.07 M-0.12 48.92 C12.79 34.06, 25.7 19.21, 42.52 -0.14 M-0.12 48.92 C15.88 30.5, 31.89 12.09, 42.52 -0.14 M0.14 73 C19.49 50.74, 38.84 28.49, 63.78 -0.21 M0.14 73 C14.94 55.98, 29.73 38.96, 63.78 -0.21 M-0.25 97.84 C25.42 68.31, 51.08 38.79, 85.04 -0.28 M-0.25 97.84 C32.65 59.99, 65.54 22.15, 85.04 -0.28 M0.02 121.92 C22.85 95.65, 45.69 69.38, 106.3 -0.34 M0.02 121.92 C41.22 74.53, 82.41 27.13, 106.3 -0.34 M0.29 146 C48.73 90.27, 97.18 34.53, 126.91 0.34 M0.29 146 C36.55 104.28, 72.82 62.56, 126.91 0.34 M-0.1 170.84 C38.36 126.59, 76.82 82.35, 148.17 0.27 M-0.1 170.84 C40.33 124.32, 80.77 77.8, 148.17 0.27 M0.16 194.92 C37.74 151.69, 75.31 108.47, 169.43 0.2 M0.16 194.92 C38.51 150.81, 76.86 106.69, 169.43 0.2 M-0.23 219.75 C51.68 160.05, 103.58 100.34, 190.69 0.13 M-0.23 219.75 C69.29 139.79, 138.8 59.82, 190.69 0.13 M0.04 243.84 C50.55 185.73, 101.07 127.62, 211.95 0.06 M0.04 243.84 C81.58 150.04, 163.11 56.24, 211.95 0.06 M0.3 267.92 C65.93 192.42, 131.56 116.93, 233.21 0 M0.3 267.92 C74.33 182.76, 148.35 97.61, 233.21 0 M-0.08 292.75 C75.38 205.95, 150.84 119.14, 254.47 -0.07 M-0.08 292.75 C68.51 213.85, 137.1 134.94, 254.47 -0.07 M0.18 316.84 C59.13 249.02, 118.09 181.2, 275.73 -0.14 M0.18 316.84 C74.46 231.38, 148.75 145.93, 275.73 -0.14 M-0.21 341.67 C61.07 271.18, 122.35 200.68, 296.99 -0.21 M-0.21 341.67 C64.79 266.91, 129.78 192.14, 296.99 -0.21 M0.06 365.75 C123.69 223.54, 247.31 81.32, 318.25 -0.28 M0.06 365.75 C106.58 243.21, 213.1 120.67, 318.25 -0.28 M0.32 389.84 C75.93 302.86, 151.54 215.88, 339.51 -0.35 M0.32 389.84 C102.15 272.7, 203.97 155.57, 339.51 -0.35 M-0.07 414.67 C79.53 323.11, 159.12 231.55, 360.11 0.34 M-0.07 414.67 C111.05 286.84, 222.17 159.02, 360.11 0.34 M0.2 438.75 C132.55 286.5, 264.9 134.26, 381.37 0.27 M0.2 438.75 C80.79 346.05, 161.37 253.35, 381.37 0.27 M-0.19 463.59 C129.54 314.35, 259.27 165.11, 402.63 0.2 M-0.19 463.59 C147.07 294.19, 294.32 124.79, 402.63 0.2 M0.08 487.67 C95.44 377.96, 190.81 268.26, 423.89 0.13 M0.08 487.67 C160.9 302.66, 321.73 117.65, 423.89 0.13 M-0.31 512.51 C176.91 308.64, 354.13 104.76, 445.15 0.06 M-0.31 512.51 C160.23 327.82, 320.78 143.14, 445.15 0.06 M-0.05 536.59 C115.43 403.74, 230.92 270.9, 466.41 -0.01 M-0.05 536.59 C121.79 396.44, 243.62 256.29, 466.41 -0.01 M0.22 560.67 C170.69 364.56, 341.17 168.46, 487.67 -0.08 M0.22 560.67 C159.7 377.21, 319.18 193.75, 487.67 -0.08 M-0.17 585.51 C127.82 438.27, 255.81 291.03, 508.93 -0.15 M-0.17 585.51 C123.57 443.17, 247.3 300.82, 508.93 -0.15 M0.1 609.59 C198.57 381.27, 397.05 152.95, 530.19 -0.22 M0.1 609.59 C201.39 378.03, 402.68 146.47, 530.19 -0.22 M-0.29 634.43 C120.2 495.81, 240.7 357.2, 551.45 -0.28 M-0.29 634.43 C187.99 417.83, 376.27 201.24, 551.45 -0.28 M-0.03 658.51 C151.13 484.62, 302.29 310.73, 572.71 -0.35 M-0.03 658.51 C121.17 519.09, 242.36 379.67, 572.71 -0.35 M0.24 682.59 C223.06 426.27, 445.87 169.95, 593.32 0.33 M0.24 682.59 C179.15 476.78, 358.05 270.97, 593.32 0.33 M-0.15 707.43 C187.7 491.33, 375.56 275.23, 614.58 0.26 M-0.15 707.43 C243.29 427.39, 486.72 147.35, 614.58 0.26 M0.12 731.51 C188.17 515.18, 376.22 298.85, 635.84 0.19 M0.12 731.51 C190.73 512.23, 381.35 292.95, 635.84 0.19 M-0.27 756.34 C250.87 467.44, 502.01 178.53, 657.1 0.13 M-0.27 756.34 C187.63 540.18, 375.54 324.02, 657.1 0.13 M-0.01 780.43 C268.98 470.99, 537.98 161.55, 678.36 0.06 M-0.01 780.43 C163.51 592.32, 327.03 404.22, 678.36 0.06 M0.26 804.51 C189.95 586.29, 379.65 368.07, 699.62 -0.01 M0.26 804.51 C219.66 552.12, 439.05 299.73, 699.62 -0.01 M-0.13 829.34 C173.61 629.48, 347.34 429.62, 720.88 -0.08 M-0.13 829.34 C187.48 613.52, 375.1 397.69, 720.88 -0.08 M0.14 853.43 C257.2 557.7, 514.27 261.98, 742.14 -0.15 M0.14 853.43 C216.72 604.28, 433.3 355.13, 742.14 -0.15 M-0.25 878.26 C181.14 669.59, 362.54 460.92, 763.4 -0.22 M-0.25 878.26 C169.24 683.28, 338.74 488.29, 763.4 -0.22 M0.01 902.34 C216.77 652.99, 433.54 403.63, 784.66 -0.29 M0.01 902.34 C245.09 620.41, 490.17 338.48, 784.66 -0.29 M0.28 926.43 C274.18 611.34, 548.08 296.25, 805.92 -0.36 M0.28 926.43 C178 721.98, 355.72 517.54, 805.92 -0.36 M-0.11 951.26 C268.17 642.64, 536.44 334.03, 826.52 0.33 M-0.11 951.26 C203.84 716.64, 407.8 482.01, 826.52 0.33 M0.15 975.34 C294.58 636.65, 589 297.96, 847.78 0.26 M0.15 975.34 C237.6 702.2, 475.04 429.05, 847.78 0.26 M-0.24 1000.18 C217.53 749.67, 435.3 499.15, 869.04 0.19 M-0.24 1000.18 C213.95 753.79, 428.13 507.4, 869.04 0.19 M0.03 1024.26 C181.64 815.34, 363.26 606.42, 890.3 0.12 M0.03 1024.26 C226.37 763.88, 452.72 503.51, 890.3 0.12 M0.3 1048.34 C190.47 829.57, 380.65 610.8, 911.56 0.05 M0.3 1048.34 C221.15 794.28, 442.01 540.21, 911.56 0.05 M-0.09 1073.18 C279.41 751.65, 558.91 430.12, 932.82 -0.02 M-0.09 1073.18 C304.32 722.99, 608.74 372.8, 932.82 -0.02 M0.17 1097.26 C237.61 824.12, 475.04 550.99, 954.08 -0.09 M0.17 1097.26 C234.22 828.03, 468.26 558.79, 954.08 -0.09 M-0.22 1122.1 C359.91 707.83, 720.03 293.55, 975.34 -0.15 M-0.22 1122.1 C301.61 774.89, 603.43 427.68, 975.34 -0.15 M0.05 1146.18 C215.6 898.22, 431.15 650.26, 996.6 -0.22 M0.05 1146.18 C244.97 864.43, 489.9 582.67, 996.6 -0.22 M0.32 1170.26 C400.14 710.32, 799.95 250.38, 1017.86 -0.29 M0.32 1170.26 C352.62 764.98, 704.93 359.7, 1017.86 -0.29 M6.49 1187.55 C266 889.02, 525.51 590.49, 1039.12 -0.36 M6.49 1187.55 C330.44 814.89, 654.39 442.23, 1039.12 -0.36 M27.09 1188.24 C333.32 835.96, 639.55 483.68, 1059.73 0.32 M27.09 1188.24 C243.2 939.64, 459.3 691.04, 1059.73 0.32 M48.35 1188.17 C347.53 844.01, 646.7 499.85, 1080.99 0.26 M48.35 1188.17 C357.06 833.04, 665.77 477.91, 1080.99 0.26 M69.61 1188.1 C328.76 889.99, 587.9 591.88, 1102.25 0.19 M69.61 1188.1 C276.8 949.75, 483.99 711.41, 1102.25 0.19 M90.87 1188.03 C465.31 757.29, 839.75 326.54, 1123.51 0.12 M90.87 1188.03 C432.64 794.87, 774.41 401.71, 1123.51 0.12 M112.13 1187.96 C496.64 745.63, 881.16 303.3, 1144.77 0.05 M112.13 1187.96 C372.51 888.43, 632.89 588.9, 1144.77 0.05 M133.39 1187.89 C439.42 835.85, 745.45 483.8, 1166.03 -0.02 M133.39 1187.89 C462.7 809.07, 792.01 430.24, 1166.03 -0.02 M154.65 1187.82 C384.23 923.73, 613.8 659.63, 1187.29 -0.09 M154.65 1187.82 C387.29 920.2, 619.94 652.58, 1187.29 -0.09 M175.91 1187.75 C395.53 935.11, 615.15 682.47, 1208.55 -0.16 M175.91 1187.75 C435.73 888.87, 695.55 589.99, 1208.55 -0.16 M197.17 1187.69 C514.91 822.17, 832.65 456.66, 1229.81 -0.23 M197.17 1187.69 C415.32 936.74, 633.46 685.79, 1229.81 -0.23 M218.43 1187.62 C454.48 916.08, 690.53 644.53, 1251.07 -0.3 M218.43 1187.62 C525.75 834.09, 833.07 480.56, 1251.07 -0.3 M239.69 1187.55 C632.77 735.36, 1025.85 283.17, 1272.33 -0.37 M239.69 1187.55 C478.14 913.25, 716.58 638.95, 1272.33 -0.37 M260.3 1188.23 C628.34 764.85, 996.38 341.46, 1292.93 0.32 M260.3 1188.23 C575.38 825.77, 890.46 463.32, 1292.93 0.32 M281.56 1188.16 C631.3 785.83, 981.05 383.49, 1314.19 0.25 M281.56 1188.16 C627.31 790.42, 973.06 392.68, 1314.19 0.25 M302.82 1188.09 C513.26 946.01, 723.71 703.92, 1335.45 0.18 M302.82 1188.09 C614.74 829.27, 926.65 470.45, 1335.45 0.18 M324.08 1188.03 C659.27 802.43, 994.46 416.84, 1356.72 0.11 M324.08 1188.03 C637.22 827.8, 950.36 467.57, 1356.72 0.11 M345.34 1187.96 C627.96 862.84, 910.58 537.72, 1377.98 0.04 M345.34 1187.96 C754.27 717.53, 1163.21 247.11, 1377.98 0.04 M366.6 1187.89 C600.47 918.85, 834.35 649.8, 1399.24 -0.03 M366.6 1187.89 C724 776.74, 1081.4 365.6, 1399.24 -0.03 M387.86 1187.82 C660.85 873.78, 933.83 559.75, 1420.5 -0.09 M387.86 1187.82 C671.06 862.03, 954.27 536.24, 1420.5 -0.09 M409.12 1187.75 C799.22 738.99, 1189.32 290.23, 1441.76 -0.16 M409.12 1187.75 C618.78 946.56, 828.44 705.37, 1441.76 -0.16 M430.38 1187.68 C811.82 748.88, 1193.27 310.08, 1463.02 -0.23 M430.38 1187.68 C744.05 826.84, 1057.73 466, 1463.02 -0.23 M451.64 1187.61 C717.24 882.08, 982.83 576.54, 1484.28 -0.3 M451.64 1187.61 C702.93 898.54, 954.21 609.47, 1484.28 -0.3 M472.9 1187.54 C862.89 738.91, 1252.89 290.27, 1505.54 -0.37 M472.9 1187.54 C711.63 912.92, 950.36 638.29, 1505.54 -0.37 M493.5 1188.23 C895.01 726.35, 1296.52 264.46, 1526.14 0.32 M493.5 1188.23 C871.48 753.42, 1249.46 318.6, 1526.14 0.32 M514.76 1188.16 C900.35 744.59, 1285.93 301.03, 1547.4 0.25 M514.76 1188.16 C806.86 852.14, 1098.96 516.12, 1547.4 0.25 M536.02 1188.09 C785.9 900.64, 1035.78 613.18, 1568.66 0.18 M536.02 1188.09 C845.59 831.98, 1155.15 475.87, 1568.66 0.18 M557.28 1188.02 C801.09 907.56, 1044.9 627.09, 1589.92 0.11 M557.28 1188.02 C830.77 873.42, 1104.25 558.81, 1589.92 0.11 M578.54 1187.95 C920.72 794.32, 1262.91 400.69, 1611.18 0.04 M578.54 1187.95 C891.4 828.05, 1204.25 468.16, 1611.18 0.04 M599.8 1187.88 C951.52 783.28, 1303.24 378.68, 1632.44 -0.03 M599.8 1187.88 C871.2 875.68, 1142.6 563.47, 1632.44 -0.03 M621.06 1187.81 C948.36 811.3, 1275.66 434.78, 1653.7 -0.1 M621.06 1187.81 C893.32 874.62, 1165.58 561.42, 1653.7 -0.1 M642.32 1187.75 C907.75 882.4, 1173.18 577.06, 1674.96 -0.17 M642.32 1187.75 C995.7 781.23, 1349.08 374.71, 1674.96 -0.17 M663.59 1187.68 C977.56 826.49, 1291.53 465.31, 1696.22 -0.24 M663.59 1187.68 C1076.21 713, 1488.84 238.33, 1696.22 -0.24 M684.85 1187.61 C943.91 889.59, 1202.97 591.57, 1717.48 -0.31 M684.85 1187.61 C941.05 892.88, 1197.26 598.14, 1717.48 -0.31 M706.11 1187.54 C1060.56 779.78, 1415.02 372.03, 1738.74 -0.37 M706.11 1187.54 C1076 762.02, 1445.9 336.5, 1738.74 -0.37 M726.71 1188.22 C1122.08 733.41, 1517.44 278.59, 1759.35 0.31 M726.71 1188.22 C1041.97 825.56, 1357.22 462.9, 1759.35 0.31 M747.97 1188.16 C1089.25 795.55, 1430.54 402.95, 1780.61 0.24 M747.97 1188.16 C1074.94 812.02, 1401.91 435.88, 1780.61 0.24 M769.23 1188.09 C985.16 939.68, 1201.09 691.28, 1801.87 0.17 M769.23 1188.09 C1097.85 810.06, 1426.47 432.02, 1801.87 0.17 M790.49 1188.02 C1107.52 823.31, 1424.55 458.61, 1823.13 0.1 M790.49 1188.02 C1081.37 853.4, 1372.25 518.78, 1823.13 0.1 M811.75 1187.95 C1101.9 854.17, 1392.04 520.4, 1844.39 0.04 M811.75 1187.95 C1091.68 865.93, 1371.6 543.91, 1844.39 0.04 M833.01 1187.88 C1204.08 761.01, 1575.16 334.14, 1865.65 -0.03 M833.01 1187.88 C1235.59 724.77, 1638.16 261.66, 1865.65 -0.03 M854.27 1187.81 C1107.45 896.56, 1360.63 605.31, 1886.91 -0.1 M854.27 1187.81 C1089.38 917.35, 1324.49 646.89, 1886.91 -0.1 M875.53 1187.74 C1205.31 808.37, 1535.1 429, 1908.17 -0.17 M875.53 1187.74 C1089.62 941.45, 1303.72 695.17, 1908.17 -0.17 M896.79 1187.67 C1251.75 779.34, 1606.7 371.02, 1929.43 -0.24 M896.79 1187.67 C1135.91 912.6, 1375.02 637.53, 1929.43 -0.24 M918.05 1187.6 C1190.9 873.72, 1463.76 559.84, 1950.69 -0.31 M918.05 1187.6 C1155.54 914.41, 1393.03 641.21, 1950.69 -0.31 M939.31 1187.53 C1263.33 814.8, 1587.34 442.06, 1971.29 0.38 M939.31 1187.53 C1151.84 943.05, 1364.36 698.57, 1971.29 0.38 M959.92 1188.22 C1183.41 931.11, 1406.91 674.01, 1992.55 0.31 M959.92 1188.22 C1355.8 732.8, 1751.69 277.38, 1992.55 0.31 M981.18 1188.15 C1279.13 845.4, 1577.08 502.64, 2013.81 0.24 M981.18 1188.15 C1243.18 886.75, 1505.19 585.35, 2013.81 0.24 M1002.44 1188.08 C1254.17 898.5, 1505.9 608.91, 2035.07 0.17 M1002.44 1188.08 C1335.73 804.67, 1669.03 421.25, 2035.07 0.17 M1023.7 1188.01 C1328.71 837.14, 1633.72 486.26, 2056.33 0.1 M1023.7 1188.01 C1392.87 763.33, 1762.05 338.64, 2056.33 0.1 M1044.96 1187.94 C1416.05 761.05, 1787.14 334.15, 2077.59 0.03 M1044.96 1187.94 C1388.9 792.28, 1732.85 396.61, 2077.59 0.03 M1066.22 1187.88 C1435.65 762.89, 1805.08 337.91, 2098.85 -0.04 M1066.22 1187.88 C1354.91 855.77, 1643.6 523.67, 2098.85 -0.04 M1087.48 1187.81 C1316.33 924.54, 1545.19 661.27, 2120.11 -0.11 M1087.48 1187.81 C1323.89 915.84, 1560.3 643.88, 2120.11 -0.11 M1108.74 1187.74 C1515.86 719.39, 1922.99 251.04, 2141.37 -0.18 M1108.74 1187.74 C1379.16 876.65, 1649.58 565.56, 2141.37 -0.18 M1130 1187.67 C1371.93 909.36, 1613.86 631.04, 2162.63 -0.24 M1130 1187.67 C1392.98 885.14, 1655.96 582.62, 2162.63 -0.24 M1151.26 1187.6 C1480.44 808.92, 1809.63 430.23, 2183.89 -0.31 M1151.26 1187.6 C1487.99 800.24, 1824.71 412.88, 2183.89 -0.31 M1172.52 1187.53 C1426.8 895.01, 1681.08 602.49, 2204.5 0.37 M1172.52 1187.53 C1569.06 731.36, 1965.61 275.18, 2204.5 0.37 M1193.12 1188.22 C1544.75 783.71, 1896.39 379.2, 2225.76 0.3 M1193.12 1188.22 C1578.85 744.49, 1964.58 300.75, 2225.76 0.3 M1214.38 1188.15 C1474.78 888.59, 1735.18 589.03, 2246.36 0.99 M1214.38 1188.15 C1442.86 925.32, 1671.33 662.49, 2246.36 0.99 M1235.64 1188.08 C1502.36 881.25, 1769.08 574.42, 2245.97 25.83 M1235.64 1188.08 C1523.85 856.53, 1812.07 524.98, 2245.97 25.83 M1256.9 1188.01 C1545.54 855.97, 1834.17 523.94, 2246.24 49.91 M1256.9 1188.01 C1553.16 847.2, 1849.42 506.39, 2246.24 49.91 M1278.16 1187.94 C1654.88 754.58, 2031.59 321.22, 2246.51 73.99 M1278.16 1187.94 C1493.12 940.66, 1708.08 693.38, 2246.51 73.99 M1299.42 1187.87 C1630.41 807.11, 1961.41 426.34, 2246.12 98.83 M1299.42 1187.87 C1660.58 772.41, 2021.74 356.94, 2246.12 98.83 M1320.68 1187.8 C1515.8 963.35, 1710.91 738.89, 2246.38 122.91 M1320.68 1187.8 C1620.7 842.67, 1920.72 497.54, 2246.38 122.91 M1341.94 1187.73 C1573.64 921.2, 1805.33 654.67, 2245.99 147.74 M1341.94 1187.73 C1667.64 813.06, 1993.35 438.38, 2245.99 147.74 M1363.2 1187.66 C1645.5 862.92, 1927.79 538.18, 2246.26 171.83 M1363.2 1187.66 C1550.15 972.6, 1737.1 757.55, 2246.26 171.83 M1384.46 1187.6 C1718.36 803.5, 2052.25 419.4, 2246.52 195.91 M1384.46 1187.6 C1693.27 832.36, 2002.07 477.12, 2246.52 195.91 M1405.72 1187.53 C1659.12 896.03, 1912.51 604.53, 2246.13 220.74 M1405.72 1187.53 C1644.89 912.4, 1884.06 637.27, 2246.13 220.74 M1426.33 1188.21 C1724.55 845.15, 2022.77 502.08, 2246.4 244.82 M1426.33 1188.21 C1612.86 973.64, 1799.38 759.06, 2246.4 244.82 M1447.59 1188.14 C1637.09 970.14, 1826.6 752.14, 2246.01 269.66 M1447.59 1188.14 C1625 984.06, 1802.4 779.97, 2246.01 269.66 M1468.85 1188.07 C1742.14 873.69, 2015.42 559.31, 2246.28 293.74 M1468.85 1188.07 C1663.05 964.67, 1857.24 741.27, 2246.28 293.74 M1490.11 1188 C1644.11 1010.85, 1798.1 833.7, 2246.54 317.82 M1490.11 1188 C1704.71 941.13, 1919.32 694.26, 2246.54 317.82 M1511.37 1187.94 C1777.72 881.54, 2044.07 575.13, 2246.15 342.66 M1511.37 1187.94 C1685.32 987.82, 1859.28 787.71, 2246.15 342.66 M1532.63 1187.87 C1798.1 882.48, 2063.57 577.08, 2246.42 366.74 M1532.63 1187.87 C1681.06 1017.11, 1829.49 846.36, 2246.42 366.74 M1553.89 1187.8 C1798.49 906.42, 2043.08 625.04, 2246.03 391.58 M1553.89 1187.8 C1712.72 1005.08, 1871.55 822.37, 2246.03 391.58 M1575.15 1187.73 C1782.78 948.87, 1990.42 710.02, 2246.3 415.66 M1575.15 1187.73 C1785.53 945.72, 1995.9 703.7, 2246.3 415.66 M1596.41 1187.66 C1808.63 943.53, 2020.85 699.4, 2246.56 439.74 M1596.41 1187.66 C1855.74 889.33, 2115.08 591, 2246.56 439.74 M1617.67 1187.59 C1792.57 986.4, 1967.46 785.2, 2246.17 464.58 M1617.67 1187.59 C1868.1 899.5, 2118.53 611.42, 2246.17 464.58 M1638.93 1187.52 C1778.07 1027.45, 1917.22 867.39, 2246.44 488.66 M1638.93 1187.52 C1848.83 946.06, 2058.73 704.6, 2246.44 488.66 M1659.53 1188.21 C1856.76 961.33, 2053.98 734.45, 2246.05 513.5 M1659.53 1188.21 C1800.79 1025.71, 1942.04 863.22, 2246.05 513.5 M1680.79 1188.14 C1824.48 1022.85, 1968.16 857.56, 2246.32 537.58 M1680.79 1188.14 C1906.78 928.17, 2132.77 668.2, 2246.32 537.58 M1702.05 1188.07 C1830.72 1040.05, 1959.39 892.03, 2246.58 561.66 M1702.05 1188.07 C1864.43 1001.27, 2026.82 814.47, 2246.58 561.66 M1723.31 1188 C1900.89 983.72, 2078.47 779.45, 2246.19 586.5 M1723.31 1188 C1891.22 994.85, 2059.13 801.69, 2246.19 586.5 M1744.57 1187.93 C1908.51 999.35, 2072.45 810.76, 2246.46 610.58 M1744.57 1187.93 C1848.88 1067.94, 1953.19 947.95, 2246.46 610.58 M1765.83 1187.86 C1895.06 1039.21, 2024.29 890.55, 2246.07 635.42 M1765.83 1187.86 C1957.77 967.07, 2149.71 746.27, 2246.07 635.42 M1787.09 1187.79 C1902.3 1055.26, 2017.51 922.73, 2246.34 659.5 M1787.09 1187.79 C1918.76 1036.34, 2050.42 884.88, 2246.34 659.5 M1808.35 1187.72 C1970.8 1000.85, 2133.25 813.97, 2245.95 684.33 M1808.35 1187.72 C1963.51 1009.24, 2118.66 830.75, 2245.95 684.33 M1829.61 1187.66 C1932.88 1068.86, 2036.15 950.07, 2246.21 708.42 M1829.61 1187.66 C1926.03 1076.74, 2022.45 965.83, 2246.21 708.42 M1850.87 1187.59 C1937.95 1087.42, 2025.02 987.26, 2246.48 732.5 M1850.87 1187.59 C1943.77 1080.73, 2036.66 973.87, 2246.48 732.5 M1872.13 1187.52 C1966.33 1079.16, 2060.52 970.81, 2246.09 757.33 M1872.13 1187.52 C1953.81 1093.56, 2035.49 999.6, 2246.09 757.33 M1892.74 1188.2 C2011.22 1051.91, 2129.69 915.62, 2246.35 781.42 M1892.74 1188.2 C2005.57 1058.4, 2118.4 928.61, 2246.35 781.42 M1914 1188.13 C2044.25 1038.29, 2174.51 888.45, 2245.97 806.25 M1914 1188.13 C1981.6 1110.37, 2049.2 1032.6, 2245.97 806.25 M1935.26 1188.07 C2022.56 1087.64, 2109.86 987.21, 2246.23 830.33 M1935.26 1188.07 C2002.36 1110.88, 2069.45 1033.7, 2246.23 830.33 M1956.52 1188 C2041.83 1089.86, 2127.14 991.72, 2246.5 854.41 M1956.52 1188 C2021.14 1113.66, 2085.76 1039.32, 2246.5 854.41 M1977.78 1187.93 C2076.3 1074.59, 2174.82 961.25, 2246.11 879.25 M1977.78 1187.93 C2075.16 1075.91, 2172.54 963.88, 2246.11 879.25 M1999.04 1187.86 C2092.41 1080.45, 2185.78 973.04, 2246.37 903.33 M1999.04 1187.86 C2071.12 1104.94, 2143.21 1022.02, 2246.37 903.33 M2020.3 1187.79 C2099.21 1097.02, 2178.11 1006.25, 2245.98 928.17 M2020.3 1187.79 C2094.39 1102.56, 2168.47 1017.33, 2245.98 928.17 M2041.56 1187.72 C2114.78 1103.49, 2188.01 1019.25, 2246.25 952.25 M2041.56 1187.72 C2103.89 1116.02, 2166.22 1044.32, 2246.25 952.25 M2062.82 1187.65 C2123.21 1118.18, 2183.6 1048.71, 2246.52 976.33 M2062.82 1187.65 C2119.64 1122.29, 2176.45 1056.93, 2246.52 976.33 M2084.08 1187.58 C2140.09 1123.15, 2196.1 1058.72, 2246.13 1001.17 M2084.08 1187.58 C2138.66 1124.79, 2193.24 1062.01, 2246.13 1001.17 M2105.34 1187.51 C2140.66 1146.88, 2175.99 1106.24, 2246.39 1025.25 M2105.34 1187.51 C2138.22 1149.69, 2171.1 1111.87, 2246.39 1025.25 M2125.95 1188.2 C2167.64 1140.23, 2209.34 1092.26, 2246 1050.09 M2125.95 1188.2 C2167.11 1140.85, 2208.27 1093.49, 2246 1050.09 M2147.21 1188.13 C2167.6 1164.66, 2188 1141.2, 2246.27 1074.17 M2147.21 1188.13 C2172.61 1158.9, 2198.02 1129.67, 2246.27 1074.17 M2168.47 1188.06 C2196.9 1155.35, 2225.33 1122.65, 2246.54 1098.25 M2168.47 1188.06 C2188.51 1165, 2208.56 1141.94, 2246.54 1098.25 M2189.73 1187.99 C2208.44 1166.46, 2227.16 1144.93, 2246.15 1123.09 M2189.73 1187.99 C2204.73 1170.73, 2219.74 1153.47, 2246.15 1123.09 M2210.99 1187.92 C2221.36 1175.99, 2231.74 1164.05, 2246.41 1147.17 M2210.99 1187.92 C2221.35 1176.01, 2231.71 1164.09, 2246.41 1147.17 M2232.25 1187.85 C2236.51 1182.94, 2240.78 1178.03, 2246.02 1172.01 M2232.25 1187.85 C2237.45 1181.87, 2242.65 1175.88, 2246.02 1172.01 M0.16 1182.64 C0.16 1182.64, 0.16 1182.64, 0.16 1182.64 M0.16 1182.64 C0.16 1182.64, 0.16 1182.64, 0.16 1182.64 M24.24 1182.37 C17.79 1176.76, 11.33 1171.15, 0.09 1161.38 M24.24 1182.37 C18.5 1177.38, 12.76 1172.4, 0.09 1161.38 M49.08 1182.76 C31.94 1167.87, 14.8 1152.97, 0.02 1140.12 M49.08 1182.76 C30.3 1166.44, 11.53 1150.12, 0.02 1140.12 M73.16 1182.5 C52.92 1164.9, 32.67 1147.3, -0.05 1118.86 M73.16 1182.5 C49.64 1162.05, 26.13 1141.61, -0.05 1118.86 M97.24 1182.23 C73.19 1161.33, 49.15 1140.42, -0.12 1097.6 M97.24 1182.23 C61.86 1151.47, 26.48 1120.72, -0.12 1097.6 M122.08 1182.62 C90.84 1155.47, 59.61 1128.31, -0.19 1076.34 M122.08 1182.62 C93.49 1157.77, 64.91 1132.93, -0.19 1076.34 M146.16 1182.35 C88.11 1131.89, 30.06 1081.43, -0.26 1055.08 M146.16 1182.35 C99.58 1141.87, 53.01 1101.38, -0.26 1055.08 M170.99 1182.74 C125.21 1142.95, 79.43 1103.15, -0.32 1033.82 M170.99 1182.74 C134.98 1151.43, 98.96 1120.12, -0.32 1033.82 M195.08 1182.48 C142.31 1136.6, 89.54 1090.73, 0.36 1013.21 M195.08 1182.48 C125.16 1121.7, 55.25 1060.93, 0.36 1013.21 M219.16 1182.21 C170.97 1140.32, 122.78 1098.43, 0.29 991.95 M219.16 1182.21 C172.05 1141.26, 124.95 1100.31, 0.29 991.95 M243.99 1182.6 C185.68 1131.91, 127.37 1081.21, 0.22 970.69 M243.99 1182.6 C176.18 1123.65, 108.36 1064.69, 0.22 970.69 M268.08 1182.33 C169.47 1096.61, 70.86 1010.9, 0.15 949.43 M268.08 1182.33 C202.96 1125.73, 137.85 1069.13, 0.15 949.43 M292.91 1182.72 C215.32 1115.27, 137.73 1047.82, 0.09 928.17 M292.91 1182.72 C220.51 1119.79, 148.12 1056.85, 0.09 928.17 M316.99 1182.46 C250.46 1124.62, 183.92 1066.78, 0.02 906.91 M316.99 1182.46 C247.99 1122.48, 178.99 1062.49, 0.02 906.91 M341.08 1182.19 C270.3 1120.67, 199.52 1059.14, -0.05 885.65 M341.08 1182.19 C232.77 1088.04, 124.47 993.9, -0.05 885.65 M365.91 1182.58 C223.12 1058.45, 80.32 934.32, -0.12 864.39 M365.91 1182.58 C258.72 1089.4, 151.53 996.22, -0.12 864.39 M389.99 1182.31 C264.65 1073.35, 139.3 964.39, -0.19 843.13 M389.99 1182.31 C265.15 1073.79, 140.3 965.26, -0.19 843.13 M414.83 1182.7 C249.48 1038.97, 84.13 895.23, -0.26 821.87 M414.83 1182.7 C268.76 1055.73, 122.69 928.75, -0.26 821.87 M438.91 1182.44 C282.49 1046.47, 126.08 910.49, -0.33 800.61 M438.91 1182.44 C278.41 1042.91, 117.9 903.39, -0.33 800.61 M463.75 1182.83 C338.83 1074.24, 213.92 965.65, 0.36 780.01 M463.75 1182.83 C321.07 1058.8, 178.39 934.77, 0.36 780.01 M487.83 1182.56 C362.43 1073.55, 237.03 964.54, 0.29 758.75 M487.83 1182.56 C320.01 1036.67, 152.18 890.78, 0.29 758.75 M511.91 1182.29 C366.54 1055.92, 221.17 929.56, 0.22 737.49 M511.91 1182.29 C407.73 1091.73, 303.54 1001.16, 0.22 737.49 M536.75 1182.68 C394.55 1059.07, 252.35 935.46, 0.15 716.23 M536.75 1182.68 C415.21 1077.03, 293.67 971.38, 0.15 716.23 M560.83 1182.42 C410.81 1052.01, 260.79 921.59, 0.08 694.97 M560.83 1182.42 C386.18 1030.6, 211.54 878.78, 0.08 694.97 M585.67 1182.81 C459.6 1073.22, 333.53 963.63, 0.01 673.71 M585.67 1182.81 C373.65 998.51, 161.64 814.21, 0.01 673.71 M609.75 1182.54 C432.41 1028.38, 255.07 874.23, -0.06 652.45 M609.75 1182.54 C467.32 1058.73, 324.9 934.92, -0.06 652.45 M633.83 1182.27 C482.29 1050.54, 330.74 918.8, -0.13 631.19 M633.83 1182.27 C392.78 972.74, 151.74 763.2, -0.13 631.19 M658.67 1182.66 C414.79 970.67, 170.91 758.67, -0.19 609.93 M658.67 1182.66 C525.75 1067.12, 392.83 951.58, -0.19 609.93 M682.75 1182.4 C503.28 1026.39, 323.81 870.38, -0.26 588.66 M682.75 1182.4 C484.47 1010.03, 286.18 837.67, -0.26 588.66 M707.58 1182.79 C447.7 956.88, 187.82 730.96, -0.33 567.4 M707.58 1182.79 C440.35 950.49, 173.12 718.18, -0.33 567.4 M731.67 1182.52 C506.34 986.65, 281.01 790.77, 0.35 546.8 M731.67 1182.52 C452.97 940.25, 174.27 697.99, 0.35 546.8 M755.75 1182.26 C537.77 992.77, 319.78 803.28, 0.28 525.54 M755.75 1182.26 C489.82 951.09, 223.9 719.92, 0.28 525.54 M780.58 1182.65 C474.59 916.65, 168.6 650.65, 0.22 504.28 M780.58 1182.65 C530 964.82, 279.42 746.99, 0.22 504.28 M804.67 1182.38 C493.62 911.99, 182.57 641.6, 0.15 483.02 M804.67 1182.38 C606.64 1010.23, 408.6 838.09, 0.15 483.02 M829.5 1182.77 C641.15 1019.03, 452.79 855.3, 0.08 461.76 M829.5 1182.77 C615.03 996.33, 400.55 809.89, 0.08 461.76 M853.58 1182.5 C632.64 990.44, 411.7 798.37, 0.01 440.5 M853.58 1182.5 C673.92 1026.32, 494.25 870.14, 0.01 440.5 M877.67 1182.24 C596.19 937.55, 314.71 692.87, -0.06 419.24 M877.67 1182.24 C595.55 937, 313.44 691.76, -0.06 419.24 M902.5 1182.63 C588.39 909.57, 274.27 636.52, -0.13 397.98 M902.5 1182.63 C608.9 927.4, 315.3 672.18, -0.13 397.98 M926.58 1182.36 C670.92 960.12, 415.26 737.87, -0.2 376.72 M926.58 1182.36 C632.61 926.81, 338.64 671.27, -0.2 376.72 M951.42 1182.75 C720.93 982.38, 490.43 782.02, -0.27 355.46 M951.42 1182.75 C665.5 934.2, 379.58 685.66, -0.27 355.46 M975.5 1182.48 C691.66 935.74, 407.81 689, -0.34 334.2 M975.5 1182.48 C747.93 984.66, 520.35 786.83, -0.34 334.2 M999.58 1182.22 C625.01 856.61, 250.45 531, 0.35 313.59 M999.58 1182.22 C624.27 855.96, 248.96 529.71, 0.35 313.59 M1024.42 1182.61 C758.85 951.75, 493.29 720.9, 0.28 292.33 M1024.42 1182.61 C679.88 883.1, 335.34 583.6, 0.28 292.33 M1048.5 1182.34 C708.1 886.43, 367.7 590.53, 0.21 271.07 M1048.5 1182.34 C817.79 981.79, 587.08 781.23, 0.21 271.07 M1073.34 1182.73 C783.52 930.8, 493.7 678.86, 0.14 249.81 M1073.34 1182.73 C779.83 927.59, 486.33 672.45, 0.14 249.81 M1097.42 1182.46 C750.84 881.19, 404.26 579.91, 0.07 228.55 M1097.42 1182.46 C841.87 960.32, 586.32 738.17, 0.07 228.55 M1121.5 1182.2 C776.85 882.6, 432.21 583, 0 207.29 M1121.5 1182.2 C705.71 820.75, 289.91 459.31, 0 207.29 M1146.34 1182.59 C782.29 866.13, 418.24 549.66, -0.07 186.03 M1146.34 1182.59 C868.13 940.74, 589.92 698.9, -0.07 186.03 M1170.42 1182.32 C760.02 825.57, 349.62 468.81, -0.13 164.77 M1170.42 1182.32 C779.17 842.21, 387.93 502.11, -0.13 164.77 M1195.26 1182.71 C783.35 824.64, 371.44 466.57, -0.2 143.51 M1195.26 1182.71 C946.77 966.71, 698.29 750.71, -0.2 143.51 M1219.34 1182.44 C884.24 891.15, 549.15 599.86, -0.27 122.25 M1219.34 1182.44 C792.87 811.72, 366.4 441, -0.27 122.25 M1243.42 1182.18 C799.6 796.37, 355.78 410.57, -0.34 100.99 M1243.42 1182.18 C849.81 840.02, 456.2 497.86, -0.34 100.99 M1268.26 1182.57 C824.6 796.9, 380.94 411.24, 0.34 80.39 M1268.26 1182.57 C783.33 761.03, 298.4 339.48, 0.34 80.39 M1292.34 1182.3 C827.62 778.32, 362.89 374.35, 0.28 59.13 M1292.34 1182.3 C922.47 860.78, 552.6 539.26, 0.28 59.13 M1317.17 1182.69 C867.4 791.71, 417.62 400.72, 0.21 37.87 M1317.17 1182.69 C951.46 864.78, 585.75 546.87, 0.21 37.87 M1341.26 1182.43 C933.97 828.38, 526.68 474.33, 0.14 16.61 M1341.26 1182.43 C986.29 873.85, 631.31 565.28, 0.14 16.61 M1366.09 1182.81 C1079.21 933.43, 792.33 684.05, 2.33 -2.68 M1366.09 1182.81 C1011.32 874.41, 656.54 566.01, 2.33 -2.68 M1390.17 1182.55 C865.39 726.36, 340.61 270.17, 26.41 -2.95 M1390.17 1182.55 C941.7 792.7, 493.23 402.85, 26.41 -2.95 M1414.26 1182.28 C1124.62 930.5, 834.98 678.72, 51.25 -2.56 M1414.26 1182.28 C1094.92 904.69, 775.58 627.09, 51.25 -2.56 M1439.09 1182.67 C969.61 774.56, 500.13 366.44, 75.33 -2.83 M1439.09 1182.67 C913.27 725.58, 387.44 268.48, 75.33 -2.83 M1463.17 1182.41 C918.88 709.26, 374.58 236.11, 100.17 -2.44 M1463.17 1182.41 C1075.7 845.58, 688.22 508.75, 100.17 -2.44 M1488.01 1182.8 C985.35 745.84, 482.68 308.88, 124.25 -2.7 M1488.01 1182.8 C1117.95 861.11, 747.89 539.42, 124.25 -2.7 M1512.09 1182.53 C1079.01 806.05, 645.92 429.58, 148.33 -2.97 M1512.09 1182.53 C1002.1 739.2, 492.11 295.87, 148.33 -2.97 M1536.17 1182.26 C1005.06 720.58, 473.95 258.89, 173.17 -2.58 M1536.17 1182.26 C1192.18 883.24, 848.19 584.21, 173.17 -2.58 M1561.01 1182.65 C1139.32 816.08, 717.62 449.51, 197.25 -2.85 M1561.01 1182.65 C1224.35 890, 887.7 597.35, 197.25 -2.85 M1585.09 1182.39 C1060.81 726.64, 536.53 270.88, 222.09 -2.46 M1585.09 1182.39 C1142.77 797.88, 700.45 413.38, 222.09 -2.46 M1609.93 1182.78 C1321.35 931.92, 1032.77 681.06, 246.17 -2.72 M1609.93 1182.78 C1165.08 796.07, 720.22 409.37, 246.17 -2.72 M1634.01 1182.51 C1257.56 855.26, 881.1 528.01, 270.25 -2.99 M1634.01 1182.51 C1206.69 811.05, 779.37 439.58, 270.25 -2.99 M1658.09 1182.24 C1307.28 877.29, 956.46 572.33, 295.09 -2.6 M1658.09 1182.24 C1365.22 927.65, 1072.34 673.06, 295.09 -2.6 M1682.93 1182.63 C1367.04 908.03, 1051.15 633.44, 319.17 -2.87 M1682.93 1182.63 C1172.76 739.15, 662.6 295.67, 319.17 -2.87 M1707.01 1182.37 C1196.57 738.64, 686.12 294.92, 344.01 -2.48 M1707.01 1182.37 C1167.96 713.77, 628.9 245.18, 344.01 -2.48 M1731.85 1182.76 C1234.72 750.61, 737.58 318.46, 368.09 -2.74 M1731.85 1182.76 C1334.04 836.95, 936.23 491.14, 368.09 -2.74 M1755.93 1182.49 C1365.59 843.17, 975.25 503.86, 392.17 -3.01 M1755.93 1182.49 C1305.45 790.9, 854.97 399.3, 392.17 -3.01 M1780.01 1182.22 C1462.21 905.97, 1144.41 629.71, 417.01 -2.62 M1780.01 1182.22 C1260.97 731.03, 741.94 279.84, 417.01 -2.62 M1804.85 1182.61 C1516.91 932.32, 1228.98 682.02, 441.09 -2.88 M1804.85 1182.61 C1312.07 754.25, 819.3 325.89, 441.09 -2.88 M1828.93 1182.35 C1363.79 778.01, 898.66 373.68, 465.92 -2.49 M1828.93 1182.35 C1303.21 725.35, 777.5 268.35, 465.92 -2.49 M1853.77 1182.74 C1358.56 752.26, 863.36 321.79, 490 -2.76 M1853.77 1182.74 C1567.12 933.56, 1280.48 684.39, 490 -2.76 M1877.85 1182.47 C1553.63 900.63, 1229.41 618.79, 514.84 -2.37 M1877.85 1182.47 C1359.35 731.75, 840.86 281.03, 514.84 -2.37 M1901.93 1182.21 C1559.29 884.35, 1216.65 586.5, 538.92 -2.64 M1901.93 1182.21 C1522.71 852.56, 1143.5 522.91, 538.92 -2.64 M1926.76 1182.59 C1630.34 924.92, 1333.92 667.24, 563 -2.9 M1926.76 1182.59 C1560.47 864.18, 1194.18 545.77, 563 -2.9 M1950.85 1182.33 C1432.29 731.56, 913.74 280.78, 587.84 -2.51 M1950.85 1182.33 C1478.61 771.82, 1006.38 361.32, 587.84 -2.51 M1975.68 1182.72 C1676.48 922.63, 1377.28 662.53, 611.92 -2.78 M1975.68 1182.72 C1588.87 846.47, 1202.06 510.21, 611.92 -2.78 M1999.76 1182.45 C1522.52 767.59, 1045.28 352.73, 636.76 -2.39 M1999.76 1182.45 C1624.07 855.86, 1248.37 529.27, 636.76 -2.39 M2023.85 1182.19 C1575.47 792.41, 1127.09 402.64, 660.84 -2.66 M2023.85 1182.19 C1630.48 840.23, 1237.11 498.28, 660.84 -2.66 M2048.68 1182.58 C1563.73 761.01, 1078.78 339.45, 684.92 -2.92 M2048.68 1182.58 C1631.17 819.64, 1213.65 456.7, 684.92 -2.92 M2072.76 1182.31 C1696.08 854.86, 1319.39 527.41, 709.76 -2.53 M2072.76 1182.31 C1696.24 855.01, 1319.72 527.7, 709.76 -2.53 M2097.6 1182.7 C1705.82 842.13, 1314.03 501.55, 733.84 -2.8 M2097.6 1182.7 C1609.26 758.19, 1120.91 333.68, 733.84 -2.8 M2121.68 1182.43 C1662.07 782.89, 1202.45 383.35, 758.68 -2.41 M2121.68 1182.43 C1755.05 863.73, 1388.42 545.02, 758.68 -2.41 M2146.52 1182.82 C1831.55 909.03, 1516.58 635.23, 782.76 -2.68 M2146.52 1182.82 C1694.8 790.15, 1243.08 397.47, 782.76 -2.68 M2170.6 1182.56 C1853.64 907.03, 1536.68 631.5, 806.84 -2.94 M2170.6 1182.56 C1871.99 922.98, 1573.38 663.4, 806.84 -2.94 M2194.68 1182.29 C1693.51 746.63, 1192.34 310.97, 831.68 -2.55 M2194.68 1182.29 C1915.2 939.34, 1635.71 696.38, 831.68 -2.55 M2219.52 1182.68 C1908.27 912.12, 1597.03 641.56, 855.76 -2.82 M2219.52 1182.68 C1799.51 817.57, 1379.5 452.46, 855.76 -2.82 M2243.6 1182.41 C1870.28 857.89, 1496.96 533.37, 880.6 -2.43 M2243.6 1182.41 C1781.95 781.1, 1320.29 379.79, 880.6 -2.43 M2254.85 1170.99 C1935.97 893.79, 1617.08 616.59, 904.68 -2.7 M2254.85 1170.99 C1920.63 880.46, 1586.41 589.93, 904.68 -2.7 M2254.78 1149.73 C1961.39 894.69, 1667.99 639.64, 928.76 -2.96 M2254.78 1149.73 C1762.79 722.05, 1270.8 294.37, 928.76 -2.96 M2254.71 1128.47 C1847.28 774.29, 1439.84 420.11, 953.6 -2.57 M2254.71 1128.47 C1761.82 700.01, 1268.92 271.54, 953.6 -2.57 M2254.65 1107.21 C1901.17 799.95, 1547.7 492.68, 977.68 -2.84 M2254.65 1107.21 C1845.3 751.38, 1435.96 395.54, 977.68 -2.84 M2254.58 1085.95 C1802.22 692.72, 1349.86 299.49, 1002.51 -2.45 M2254.58 1085.95 C1787.92 680.29, 1321.26 274.63, 1002.51 -2.45 M2255.26 1065.35 C2006.02 848.68, 1756.77 632.02, 1026.6 -2.71 M2255.26 1065.35 C1904.47 760.41, 1553.67 455.47, 1026.6 -2.71 M2255.19 1044.09 C1980.44 805.25, 1705.69 566.41, 1050.68 -2.98 M2255.19 1044.09 C1857.99 698.8, 1460.78 353.52, 1050.68 -2.98 M2255.12 1022.83 C1833.93 656.69, 1412.73 290.54, 1075.51 -2.59 M2255.12 1022.83 C1849.59 670.3, 1444.06 317.78, 1075.51 -2.59 M2255.06 1001.57 C2016.59 794.28, 1778.13 586.99, 1099.59 -2.86 M2255.06 1001.57 C1931.26 720.1, 1607.47 438.63, 1099.59 -2.86 M2254.99 980.31 C1811.38 594.69, 1367.78 209.07, 1124.43 -2.47 M2254.99 980.31 C1968.97 731.68, 1682.96 483.06, 1124.43 -2.47 M2254.92 959.05 C1885.12 637.59, 1515.33 316.14, 1148.51 -2.73 M2254.92 959.05 C1940.65 685.86, 1626.39 412.67, 1148.51 -2.73 M2254.85 937.79 C1868.42 601.87, 1481.99 265.95, 1172.59 -3 M2254.85 937.79 C1875.65 608.15, 1496.45 278.52, 1172.59 -3 M2254.78 916.53 C1942.78 645.31, 1630.78 374.09, 1197.43 -2.61 M2254.78 916.53 C1904.98 612.45, 1555.18 308.37, 1197.43 -2.61 M2254.71 895.27 C1846.91 540.77, 1439.12 186.28, 1221.51 -2.88 M2254.71 895.27 C1993.37 668.09, 1732.03 440.9, 1221.51 -2.88 M2254.64 874.01 C1934.35 595.58, 1614.06 317.16, 1246.35 -2.49 M2254.64 874.01 C2012.75 663.74, 1770.87 453.47, 1246.35 -2.49 M2254.57 852.75 C2014.27 643.86, 1773.97 434.97, 1270.43 -2.75 M2254.57 852.75 C1902.91 547.05, 1551.24 241.35, 1270.43 -2.75 M2255.26 832.14 C1990.28 601.8, 1725.3 371.46, 1295.27 -2.36 M2255.26 832.14 C1909.42 531.51, 1563.58 230.88, 1295.27 -2.36 M2255.19 810.88 C1937.29 534.54, 1619.39 258.19, 1319.35 -2.63 M2255.19 810.88 C1937.11 534.38, 1619.03 257.88, 1319.35 -2.63 M2255.12 789.62 C1900 480.92, 1544.87 172.21, 1343.43 -2.9 M2255.12 789.62 C2008.44 575.19, 1761.76 360.75, 1343.43 -2.9 M2255.05 768.36 C1979.45 528.79, 1703.86 289.22, 1368.27 -2.51 M2255.05 768.36 C2027.47 570.53, 1799.89 372.69, 1368.27 -2.51 M2254.98 747.1 C1976.49 505.01, 1698 262.92, 1392.35 -2.77 M2254.98 747.1 C2014.1 537.7, 1773.21 328.31, 1392.35 -2.77 M2254.91 725.84 C2018.45 520.29, 1781.99 314.74, 1417.19 -2.38 M2254.91 725.84 C2051.09 548.66, 1847.27 371.49, 1417.19 -2.38 M2254.84 704.58 C2022.2 502.35, 1789.55 300.11, 1441.27 -2.65 M2254.84 704.58 C1990.99 475.21, 1727.13 245.85, 1441.27 -2.65 M2254.78 683.32 C1959.31 426.48, 1663.85 169.64, 1465.35 -2.92 M2254.78 683.32 C2084.82 535.59, 1914.87 387.85, 1465.35 -2.92 M2254.71 662.06 C1999.23 439.98, 1743.75 217.89, 1490.19 -2.53 M2254.71 662.06 C2045.57 480.27, 1836.44 298.47, 1490.19 -2.53 M2254.64 640.8 C2104.88 510.62, 1955.11 380.43, 1514.27 -2.79 M2254.64 640.8 C1982.42 404.17, 1710.2 167.53, 1514.27 -2.79 M2254.57 619.54 C2062.76 452.8, 1870.95 286.07, 1539.1 -2.4 M2254.57 619.54 C2094.04 480, 1933.52 340.46, 1539.1 -2.4 M2255.25 598.94 C1994.32 372.11, 1733.38 145.28, 1563.19 -2.67 M2255.25 598.94 C2064.75 433.34, 1874.25 267.73, 1563.19 -2.67 M2255.18 577.68 C2032.34 383.96, 1809.5 190.25, 1587.27 -2.94 M2255.18 577.68 C2119 459.29, 1982.81 340.9, 1587.27 -2.94 M2255.12 556.42 C2123.54 442.04, 1991.96 327.66, 1612.1 -2.55 M2255.12 556.42 C2002.72 337.02, 1750.33 117.62, 1612.1 -2.55 M2255.05 535.16 C2055.74 361.9, 1856.43 188.64, 1636.19 -2.81 M2255.05 535.16 C2088.6 390.46, 1922.15 245.77, 1636.19 -2.81 M2254.98 513.9 C2025.45 314.37, 1795.92 114.84, 1661.02 -2.42 M2254.98 513.9 C2044.97 331.34, 1834.96 148.78, 1661.02 -2.42 M2254.91 492.64 C2101.13 358.95, 1947.34 225.27, 1685.1 -2.69 M2254.91 492.64 C2137.5 390.58, 2020.09 288.52, 1685.1 -2.69 M2254.84 471.38 C2080.67 319.97, 1906.5 168.57, 1709.18 -2.95 M2254.84 471.38 C2106.26 342.22, 1957.68 213.06, 1709.18 -2.95 M2254.77 450.12 C2067.83 287.61, 1880.88 125.1, 1734.02 -2.56 M2254.77 450.12 C2134.3 345.39, 2013.82 240.66, 1734.02 -2.56 M2254.7 428.86 C2058.6 258.39, 1862.5 87.92, 1758.1 -2.83 M2254.7 428.86 C2134.42 324.3, 2014.14 219.74, 1758.1 -2.83 M2254.63 407.6 C2152.49 318.81, 2050.35 230.01, 1782.94 -2.44 M2254.63 407.6 C2117.5 288.38, 1980.36 169.17, 1782.94 -2.44 M2254.56 386.34 C2119.92 269.29, 1985.28 152.25, 1807.02 -2.71 M2254.56 386.34 C2148.71 294.32, 2042.86 202.3, 1807.02 -2.71 M2255.25 365.73 C2164.05 286.45, 2072.85 207.17, 1831.1 -2.97 M2255.25 365.73 C2102.66 233.08, 1950.06 100.44, 1831.1 -2.97 M2255.18 344.47 C2127.53 233.51, 1999.88 122.54, 1855.94 -2.58 M2255.18 344.47 C2172.08 272.23, 2088.98 200, 1855.94 -2.58 M2255.11 323.21 C2115.49 201.84, 1975.87 80.47, 1880.02 -2.85 M2255.11 323.21 C2126.2 211.15, 1997.28 99.08, 1880.02 -2.85 M2255.04 301.95 C2174.68 232.09, 2094.31 162.23, 1904.86 -2.46 M2255.04 301.95 C2118.58 183.33, 1982.13 64.71, 1904.86 -2.46 M2254.97 280.69 C2173.04 209.47, 2091.11 138.25, 1928.94 -2.73 M2254.97 280.69 C2131.91 173.71, 2008.85 66.73, 1928.94 -2.73 M2254.9 259.43 C2193.51 206.06, 2132.11 152.68, 1953.02 -2.99 M2254.9 259.43 C2136.15 156.2, 2017.39 52.96, 1953.02 -2.99 M2254.84 238.17 C2182.65 175.42, 2110.47 112.68, 1977.86 -2.6 M2254.84 238.17 C2164.63 159.76, 2074.42 81.34, 1977.86 -2.6 M2254.77 216.91 C2176.39 148.78, 2098.02 80.65, 2001.94 -2.87 M2254.77 216.91 C2176.07 148.5, 2097.38 80.09, 2001.94 -2.87 M2254.7 195.65 C2174.03 125.53, 2093.36 55.4, 2026.78 -2.48 M2254.7 195.65 C2190.27 139.65, 2125.85 83.64, 2026.78 -2.48 M2254.63 174.39 C2211.18 136.62, 2167.73 98.85, 2050.86 -2.75 M2254.63 174.39 C2210.83 136.32, 2167.04 98.25, 2050.86 -2.75 M2255.31 153.79 C2195.99 102.21, 2136.66 50.64, 2075.69 -2.36 M2255.31 153.79 C2206.38 111.25, 2157.45 68.71, 2075.69 -2.36 M2255.25 132.53 C2212.92 95.73, 2170.59 58.94, 2099.78 -2.62 M2255.25 132.53 C2215.48 97.96, 2175.72 63.4, 2099.78 -2.62 M2255.18 111.27 C2211.31 73.13, 2167.44 35, 2123.86 -2.89 M2255.18 111.27 C2209.39 71.47, 2163.61 31.67, 2123.86 -2.89 M2255.11 90.01 C2229.4 67.66, 2203.69 45.31, 2148.69 -2.5 M2255.11 90.01 C2216.29 56.26, 2177.48 22.52, 2148.69 -2.5 M2255.04 68.74 C2225.84 43.37, 2196.65 17.99, 2172.78 -2.77 M2255.04 68.74 C2230.8 47.67, 2206.56 26.6, 2172.78 -2.77 M2254.97 47.48 C2233.68 28.98, 2212.4 10.48, 2197.61 -2.38 M2254.97 47.48 C2234.74 29.9, 2214.51 12.32, 2197.61 -2.38 M2254.9 26.22 C2244.01 16.76, 2233.13 7.3, 2221.69 -2.64 M2254.9 26.22 C2244.15 16.88, 2233.41 7.54, 2221.69 -2.64" stroke="#f8f9fa" stroke-width="2" fill="none"></path><path d="M0 0 C784.29 0, 1568.59 0, 2245 0 M0 0 C768.31 0, 1536.63 0, 2245 0 M2245 0 C2245 309.23, 2245 618.45, 2245 1182.5 M2245 0 C2245 447.68, 2245 895.36, 2245 1182.5 M2245 1182.5 C1374.4 1182.5, 503.81 1182.5, 0 1182.5 M2245 1182.5 C1395.41 1182.5, 545.83 1182.5, 0 1182.5 M0 1182.5 C0 800.23, 0 417.95, 0 0 M0 1182.5 C0 821.75, 0 460.99, 0 0" stroke="#1e1e1e" stroke-width="4" fill="none"></path></g><g transform="translate(400.42619028545505 105.45238095237983) rotate(0 10.550000190734863 21.59999999999991)"><text x="10.550000190734863" y="0" font-family="Cascadia, Segoe UI Emoji" font-size="36px" fill="#1e1e1e" text-anchor="middle" style="white-space: pre;" direction="ltr" dominant-baseline="text-before-edge">1</text></g><g transform="translate(663.092856952122 114.78571428571377) rotate(0 10.550000190734863 21.59999999999991)"><text x="10.550000190734863" y="0" font-family="Cascadia, Segoe UI Emoji" font-size="36px" fill="#1e1e1e" text-anchor="middle" style="white-space: pre;" direction="ltr" dominant-baseline="text-before-edge">2</text></g><g transform="translate(940.2595236187881 120.28571428571377) rotate(0 10.550000190734863 21.59999999999991)"><text x="10.550000190734863" y="0" font-family="Cascadia, Segoe UI Emoji" font-size="36px" fill="#1e1e1e" text-anchor="middle" style="white-space: pre;" direction="ltr" dominant-baseline="text-before-edge">3</text></g><g transform="translate(1206.926190285455 110.28571428571377) rotate(0 10.550000190734863 21.59999999999991)"><text x="10.550000190734863" y="0" font-family="Cascadia, Segoe UI Emoji" font-size="36px" fill="#1e1e1e" text-anchor="middle" style="white-space: pre;" direction="ltr" dominant-baseline="text-before-edge">4</text></g><g transform="translate(1481.259523618788 118.1190476190477) rotate(0 10.550000190734863 21.59999999999991)"><text x="10.550000190734863" y="0" font-family="Cascadia, Segoe UI Emoji" font-size="36px" fill="#1e1e1e" text-anchor="middle" style="white-space: pre;" direction="ltr" dominant-baseline="text-before-edge">5</text></g><g transform="translate(1740.926190285455 125.28571428571377) rotate(0 10.550000190734863 21.59999999999991)"><text x="10.550000190734863" y="0" font-family="Cascadia, Segoe UI Emoji" font-size="36px" fill="#1e1e1e" text-anchor="middle" style="white-space: pre;" direction="ltr" dominant-baseline="text-before-edge">6</text></g><g stroke-linecap="round" transform="translate(273.9761904761899 184.95238095237983) rotate(0 134 117)"><path d="M7.86 8.16 C7.86 8.16, 7.86 8.16, 7.86 8.16 M7.86 8.16 C7.86 8.16, 7.86 8.16, 7.86 8.16 M8.78 31.49 C14.19 25.27, 19.59 19.05, 34.37 2.05 M8.78 31.49 C17.64 21.3, 26.49 11.12, 34.37 2.05 M8.39 56.32 C22.3 40.32, 36.21 24.33, 55.63 1.98 M8.39 56.32 C23.72 38.69, 39.05 21.05, 55.63 1.98 M8.66 80.4 C24.98 61.63, 41.31 42.85, 76.89 1.91 M8.66 80.4 C34.14 51.09, 59.62 21.79, 76.89 1.91 M8.27 105.24 C43.97 64.17, 79.67 23.11, 98.15 1.85 M8.27 105.24 C35.69 73.7, 63.11 42.15, 98.15 1.85 M8.54 129.32 C51.05 80.42, 93.57 31.51, 119.41 1.78 M8.54 129.32 C33.24 100.9, 57.95 72.48, 119.41 1.78 M8.15 154.16 C46.92 109.55, 85.7 64.94, 140.67 1.71 M8.15 154.16 C41.97 115.25, 75.79 76.34, 140.67 1.71 M8.41 178.24 C41.17 140.56, 73.93 102.88, 161.28 2.39 M8.41 178.24 C68.12 109.56, 127.82 40.88, 161.28 2.39 M1.46 210.62 C46.51 158.81, 91.55 106.99, 182.54 2.32 M1.46 210.62 C39.7 166.64, 77.93 122.66, 182.54 2.32 M8.95 226.4 C52.31 176.52, 95.66 126.65, 203.8 2.26 M8.95 226.4 C72.8 152.95, 136.66 79.49, 203.8 2.26 M22.33 235.39 C83.97 164.49, 145.6 93.59, 225.06 2.19 M22.33 235.39 C85.94 162.22, 149.55 89.04, 225.06 2.19 M39 240.61 C104.97 164.72, 170.94 88.83, 245.66 2.87 M39 240.61 C109.27 159.77, 179.54 78.94, 245.66 2.87 M60.26 240.54 C134.21 155.47, 208.16 70.4, 261.67 8.84 M60.26 240.54 C122.43 169.02, 184.6 97.5, 261.67 8.84 M81.52 240.47 C144.29 168.26, 207.07 96.04, 268.5 25.38 M81.52 240.47 C135.35 178.55, 189.18 116.63, 268.5 25.38 M102.78 240.4 C158.13 176.73, 213.48 113.06, 277.29 39.65 M102.78 240.4 C145.73 190.99, 188.67 141.59, 277.29 39.65 M124.04 240.33 C173.53 183.4, 223.02 126.47, 276.9 64.48 M124.04 240.33 C167.82 189.96, 211.61 139.6, 276.9 64.48 M145.3 240.26 C185.31 194.24, 225.31 148.22, 277.17 88.56 M145.3 240.26 C195.55 182.46, 245.79 124.66, 277.17 88.56 M166.56 240.19 C194.7 207.83, 222.83 175.46, 276.78 113.4 M166.56 240.19 C189.21 214.14, 211.85 188.1, 276.78 113.4 M187.82 240.12 C209.72 214.93, 231.63 189.73, 277.05 137.48 M187.82 240.12 C212.19 212.09, 236.55 184.07, 277.05 137.48 M209.08 240.05 C231.09 214.73, 253.11 189.41, 277.31 161.56 M209.08 240.05 C234.29 211.06, 259.49 182.06, 277.31 161.56 M230.34 239.98 C245.87 222.12, 261.4 204.25, 276.92 186.4 M230.34 239.98 C243.69 224.63, 257.04 209.27, 276.92 186.4" stroke="#a5d8ff" stroke-width="2" fill="none"></path><path d="M32 0 M32 0 C80.63 0, 129.26 0, 236 0 M32 0 C84.54 0, 137.08 0, 236 0 M236 0 C257.33 0, 268 10.67, 268 32 M236 0 C257.33 0, 268 10.67, 268 32 M268 32 C268 79.9, 268 127.8, 268 202 M268 32 C268 72.81, 268 113.62, 268 202 M268 202 C268 223.33, 257.33 234, 236 234 M268 202 C268 223.33, 257.33 234, 236 234 M236 234 C175.52 234, 115.05 234, 32 234 M236 234 C171.91 234, 107.83 234, 32 234 M32 234 C10.67 234, 0 223.33, 0 202 M32 234 C10.67 234, 0 223.33, 0 202 M0 202 C0 165.63, 0 129.26, 0 32 M0 202 C0 146.46, 0 90.91, 0 32 M0 32 C0 10.67, 10.67 0, 32 0 M0 32 C0 10.67, 10.67 0, 32 0" stroke="#1e1e1e" stroke-width="4" fill="none"></path></g><g transform="translate(323.576188950311 280.35238095237946) rotate(0 84.4000015258789 21.59999999999991)"><text x="84.4000015258789" y="0" font-family="Cascadia, Segoe UI Emoji" font-size="36px" fill="#1e1e1e" text-anchor="middle" style="white-space: pre;" direction="ltr" dominant-baseline="text-before-edge">T object</text></g><g stroke-linecap="round" transform="translate(235.33333333333258 896.9999999999991) rotate(0 171 98.5)"><path d="M7.86 8.16 C7.86 8.16, 7.86 8.16, 7.86 8.16 M7.86 8.16 C7.86 8.16, 7.86 8.16, 7.86 8.16 M8.78 31.49 C14.84 24.52, 20.9 17.55, 34.37 2.05 M8.78 31.49 C14.74 24.63, 20.71 17.77, 34.37 2.05 M8.39 56.32 C25.79 36.32, 43.18 16.31, 55.63 1.98 M8.39 56.32 C19.32 43.76, 30.24 31.19, 55.63 1.98 M8.66 80.4 C29.82 56.06, 50.98 31.72, 76.89 1.91 M8.66 80.4 C24.71 61.94, 40.76 43.48, 76.89 1.91 M8.27 105.24 C33.03 76.76, 57.78 48.29, 98.15 1.85 M8.27 105.24 C31.76 78.22, 55.26 51.19, 98.15 1.85 M8.54 129.32 C48.4 83.46, 88.27 37.6, 119.41 1.78 M8.54 129.32 C41.62 91.26, 74.71 53.2, 119.41 1.78 M8.15 154.16 C55.35 99.85, 102.56 45.55, 140.67 1.71 M8.15 154.16 C40.15 117.34, 72.16 80.52, 140.67 1.71 M5.13 182.01 C47.71 133.03, 90.3 84.05, 161.28 2.39 M5.13 182.01 C56.16 123.32, 107.18 64.62, 161.28 2.39 M15.24 194.78 C73.1 128.22, 130.96 61.66, 182.54 2.32 M15.24 194.78 C59.68 143.65, 104.12 92.53, 182.54 2.32 M33.22 198.48 C94.19 128.34, 155.16 58.2, 203.8 2.26 M33.22 198.48 C80.84 143.7, 128.46 88.92, 203.8 2.26 M54.48 198.41 C97.11 149.37, 139.74 100.33, 225.06 2.19 M54.48 198.41 C94.13 152.79, 133.79 107.18, 225.06 2.19 M75.74 198.34 C117.03 150.85, 158.31 103.36, 246.32 2.12 M75.74 198.34 C121.64 145.54, 167.55 92.73, 246.32 2.12 M97 198.27 C138.68 150.32, 180.36 102.38, 267.58 2.05 M97 198.27 C155.92 130.49, 214.84 62.72, 267.58 2.05 M118.26 198.2 C182.23 124.61, 246.2 51.02, 288.84 1.98 M118.26 198.2 C163.44 146.23, 208.62 94.25, 288.84 1.98 M139.52 198.13 C203.79 124.2, 268.06 50.27, 310.75 1.16 M139.52 198.13 C175.91 156.27, 212.31 114.4, 310.75 1.16 M160.78 198.07 C215.2 135.46, 269.63 72.85, 328.08 5.61 M160.78 198.07 C225.92 123.13, 291.06 48.2, 328.08 5.61 M182.04 198 C223.23 150.62, 264.41 103.24, 340.81 15.36 M182.04 198 C237.07 134.69, 292.1 71.39, 340.81 15.36 M203.3 197.93 C243.27 151.95, 283.24 105.96, 345.01 34.91 M203.3 197.93 C234.51 162.03, 265.71 126.14, 345.01 34.91 M223.91 198.61 C270.44 145.08, 316.97 91.55, 345.28 58.99 M223.91 198.61 C256.08 161.6, 288.25 124.59, 345.28 58.99 M245.17 198.54 C280.55 157.84, 315.93 117.15, 344.89 83.83 M245.17 198.54 C274.05 165.31, 302.94 132.09, 344.89 83.83 M266.43 198.48 C282.52 179.96, 298.62 161.44, 345.15 107.91 M266.43 198.48 C297.14 163.14, 327.85 127.81, 345.15 107.91 M287.69 198.41 C303.46 180.26, 319.24 162.11, 345.42 131.99 M287.69 198.41 C309.9 172.85, 332.11 147.3, 345.42 131.99 M310.26 196.83 C318.96 186.82, 327.65 176.82, 345.03 156.83 M310.26 196.83 C322.38 182.89, 334.5 168.95, 345.03 156.83" stroke="#ced4da" stroke-width="2" fill="none"></path><path d="M32 0 M32 0 C111.97 0, 191.94 0, 310 0 M32 0 C100.72 0, 169.43 0, 310 0 M310 0 C331.33 0, 342 10.67, 342 32 M310 0 C331.33 0, 342 10.67, 342 32 M342 32 C342 73.88, 342 115.75, 342 165 M342 32 C342 83.25, 342 134.51, 342 165 M342 165 C342 186.33, 331.33 197, 310 197 M342 165 C342 186.33, 331.33 197, 310 197 M310 197 C252.72 197, 195.44 197, 32 197 M310 197 C240.13 197, 170.26 197, 32 197 M32 197 C10.67 197, 0 186.33, 0 165 M32 197 C10.67 197, 0 186.33, 0 165 M0 165 C0 137.91, 0 110.81, 0 32 M0 165 C0 137.6, 0 110.19, 0 32 M0 32 C0 10.67, 10.67 0, 32 0 M0 32 C0 10.67, 10.67 0, 32 0" stroke="#868e96" stroke-width="4" fill="none"></path></g><g transform="translate(258.6333363850904 973.8999999999987) rotate(0 147.6999969482422 21.59999999999991)"><text x="147.6999969482422" y="0" font-family="Cascadia, Segoe UI Emoji" font-size="36px" fill="#868e96" text-anchor="middle" style="white-space: pre;" direction="ltr" dominant-baseline="text-before-edge">std::vector&lt;T&gt;</text></g><g stroke-linecap="round" transform="translate(544.1428571428532 184.6190476190459) rotate(0 134 117)"><path d="M7.86 8.16 C7.86 8.16, 7.86 8.16, 7.86 8.16 M7.86 8.16 C7.86 8.16, 7.86 8.16, 7.86 8.16 M8.78 31.49 C17.91 20.99, 27.03 10.49, 34.37 2.05 M8.78 31.49 C15.61 23.64, 22.43 15.79, 34.37 2.05 M8.39 56.32 C21.78 40.93, 35.16 25.53, 55.63 1.98 M8.39 56.32 C26.52 35.47, 44.64 14.62, 55.63 1.98 M8.66 80.4 C35.48 49.55, 62.31 18.69, 76.89 1.91 M8.66 80.4 C31.63 53.98, 54.6 27.56, 76.89 1.91 M8.27 105.24 C28.3 82.2, 48.34 59.15, 98.15 1.85 M8.27 105.24 C33.76 75.92, 59.25 46.59, 98.15 1.85 M8.54 129.32 C31.92 102.43, 55.29 75.53, 119.41 1.78 M8.54 129.32 C34.72 99.2, 60.91 69.08, 119.41 1.78 M8.15 154.16 C49.52 106.56, 90.9 58.96, 140.67 1.71 M8.15 154.16 C60.31 94.15, 112.47 34.15, 140.67 1.71 M8.41 178.24 C56.5 122.92, 104.59 67.6, 161.28 2.39 M8.41 178.24 C66.1 111.88, 123.79 45.52, 161.28 2.39 M1.46 210.62 C47.42 157.75, 93.39 104.88, 182.54 2.32 M1.46 210.62 C67.65 134.49, 133.83 58.36, 182.54 2.32 M8.95 226.4 C73.14 152.55, 137.34 78.7, 203.8 2.26 M8.95 226.4 C72.64 153.13, 136.34 79.85, 203.8 2.26 M22.33 235.39 C87.31 160.65, 152.28 85.91, 225.06 2.19 M22.33 235.39 C94.46 152.41, 166.59 69.44, 225.06 2.19 M39 240.61 C101.19 169.07, 163.37 97.53, 245.66 2.87 M39 240.61 C102.26 167.83, 165.52 95.06, 245.66 2.87 M60.26 240.54 C111.69 181.38, 163.11 122.22, 261.67 8.84 M60.26 240.54 C125.87 165.06, 191.48 89.59, 261.67 8.84 M81.52 240.47 C155.31 155.58, 229.11 70.69, 268.5 25.38 M81.52 240.47 C135.94 177.86, 190.36 115.26, 268.5 25.38 M102.78 240.4 C167.65 165.78, 232.52 91.15, 277.29 39.65 M102.78 240.4 C162.32 171.9, 221.86 103.41, 277.29 39.65 M124.04 240.33 C184.7 170.56, 245.35 100.78, 276.9 64.48 M124.04 240.33 C171.81 185.38, 219.57 130.44, 276.9 64.48 M145.3 240.26 C178.71 201.83, 212.12 163.39, 277.17 88.56 M145.3 240.26 C181.27 198.89, 217.23 157.52, 277.17 88.56 M166.56 240.19 C190.11 213.1, 213.66 186.01, 276.78 113.4 M166.56 240.19 C205.77 195.08, 244.99 149.98, 276.78 113.4 M187.82 240.12 C210.51 214.02, 233.2 187.92, 277.05 137.48 M187.82 240.12 C214.2 209.78, 240.58 179.43, 277.05 137.48 M209.08 240.05 C234.46 210.86, 259.84 181.66, 277.31 161.56 M209.08 240.05 C226.9 219.56, 244.71 199.07, 277.31 161.56 M230.34 239.98 C248.92 218.61, 267.5 197.24, 276.92 186.4 M230.34 239.98 C248.5 219.09, 266.66 198.2, 276.92 186.4" stroke="#a5d8ff" stroke-width="2" fill="none"></path><path d="M32 0 M32 0 C97.01 0, 162.02 0, 236 0 M32 0 C77.53 0, 123.06 0, 236 0 M236 0 C257.33 0, 268 10.67, 268 32 M236 0 C257.33 0, 268 10.67, 268 32 M268 32 C268 91.86, 268 151.72, 268 202 M268 32 C268 98.17, 268 164.33, 268 202 M268 202 C268 223.33, 257.33 234, 236 234 M268 202 C268 223.33, 257.33 234, 236 234 M236 234 C176.18 234, 116.35 234, 32 234 M236 234 C158.46 234, 80.92 234, 32 234 M32 234 C10.67 234, 0 223.33, 0 202 M32 234 C10.67 234, 0 223.33, 0 202 M0 202 C0 155.01, 0 108.01, 0 32 M0 202 C0 151.64, 0 101.27, 0 32 M0 32 C0 10.67, 10.67 0, 32 0 M0 32 C0 10.67, 10.67 0, 32 0" stroke="#1e1e1e" stroke-width="4" fill="none"></path></g><g transform="translate(593.7428556169743 280.0190476190455) rotate(0 84.4000015258789 21.59999999999991)"><text x="84.4000015258789" y="0" font-family="Cascadia, Segoe UI Emoji" font-size="36px" fill="#1e1e1e" text-anchor="middle" style="white-space: pre;" direction="ltr" dominant-baseline="text-before-edge">T object</text></g><g stroke-linecap="round" transform="translate(814.059523809523 184.78571428571377) rotate(0 134 117)"><path d="M7.86 8.16 C7.86 8.16, 7.86 8.16, 7.86 8.16 M7.86 8.16 C7.86 8.16, 7.86 8.16, 7.86 8.16 M8.78 31.49 C14.04 25.44, 19.29 19.4, 34.37 2.05 M8.78 31.49 C14.36 25.07, 19.93 18.66, 34.37 2.05 M8.39 56.32 C21.76 40.95, 35.12 25.57, 55.63 1.98 M8.39 56.32 C18.14 45.11, 27.9 33.89, 55.63 1.98 M8.66 80.4 C23.32 63.54, 37.99 46.67, 76.89 1.91 M8.66 80.4 C27.84 58.34, 47.02 36.28, 76.89 1.91 M8.27 105.24 C37.46 71.66, 66.66 38.08, 98.15 1.85 M8.27 105.24 C33.36 76.38, 58.45 47.52, 98.15 1.85 M8.54 129.32 C36.93 96.66, 65.33 63.99, 119.41 1.78 M8.54 129.32 C49.82 81.83, 91.11 34.33, 119.41 1.78 M8.15 154.16 C59.57 95, 110.99 35.85, 140.67 1.71 M8.15 154.16 C34.88 123.41, 61.61 92.66, 140.67 1.71 M8.41 178.24 C62.06 116.52, 115.72 54.8, 161.28 2.39 M8.41 178.24 C56.02 123.47, 103.63 68.71, 161.28 2.39 M1.46 210.62 C45.34 160.15, 89.21 109.69, 182.54 2.32 M1.46 210.62 C52.84 151.52, 104.21 92.42, 182.54 2.32 M8.95 226.4 C75.55 149.79, 142.15 73.17, 203.8 2.26 M8.95 226.4 C81.59 142.83, 154.24 59.27, 203.8 2.26 M22.33 235.39 C88.73 159.01, 155.13 82.62, 225.06 2.19 M22.33 235.39 C70.9 179.52, 119.47 123.65, 225.06 2.19 M39 240.61 C119.86 147.59, 200.71 54.58, 245.66 2.87 M39 240.61 C118.71 148.91, 198.42 57.22, 245.66 2.87 M60.26 240.54 C111.43 181.67, 162.61 122.8, 261.67 8.84 M60.26 240.54 C118.32 173.75, 176.37 106.97, 261.67 8.84 M81.52 240.47 C134.29 179.77, 187.05 119.07, 268.5 25.38 M81.52 240.47 C125.26 190.15, 169 139.84, 268.5 25.38 M102.78 240.4 C155.56 179.68, 208.35 118.96, 277.29 39.65 M102.78 240.4 C147.01 189.52, 191.24 138.63, 277.29 39.65 M124.04 240.33 C172.64 184.42, 221.24 128.52, 276.9 64.48 M124.04 240.33 C178.47 177.72, 232.89 115.12, 276.9 64.48 M145.3 240.26 C187.98 191.17, 230.65 142.08, 277.17 88.56 M145.3 240.26 C180.06 200.27, 214.82 160.29, 277.17 88.56 M166.56 240.19 C191.03 212.05, 215.5 183.9, 276.78 113.4 M166.56 240.19 C193.6 209.09, 220.63 177.99, 276.78 113.4 M187.82 240.12 C209.12 215.62, 230.42 191.11, 277.05 137.48 M187.82 240.12 C210.28 214.28, 232.75 188.44, 277.05 137.48 M209.08 240.05 C225.34 221.35, 241.6 202.65, 277.31 161.56 M209.08 240.05 C232.93 212.62, 256.79 185.18, 277.31 161.56 M230.34 239.98 C246.15 221.8, 261.96 203.61, 276.92 186.4 M230.34 239.98 C242.25 226.28, 254.16 212.58, 276.92 186.4" stroke="#a5d8ff" stroke-width="2" fill="none"></path><path d="M32 0 M32 0 C79.11 0, 126.22 0, 236 0 M32 0 C107.8 0, 183.6 0, 236 0 M236 0 C257.33 0, 268 10.67, 268 32 M236 0 C257.33 0, 268 10.67, 268 32 M268 32 C268 79.86, 268 127.72, 268 202 M268 32 C268 68.76, 268 105.52, 268 202 M268 202 C268 223.33, 257.33 234, 236 234 M268 202 C268 223.33, 257.33 234, 236 234 M236 234 C181.47 234, 126.95 234, 32 234 M236 234 C175.54 234, 115.08 234, 32 234 M32 234 C10.67 234, 0 223.33, 0 202 M32 234 C10.67 234, 0 223.33, 0 202 M0 202 C0 152.26, 0 102.52, 0 32 M0 202 C0 156.04, 0 110.08, 0 32 M0 32 C0 10.67, 10.67 0, 32 0 M0 32 C0 10.67, 10.67 0, 32 0" stroke="#1e1e1e" stroke-width="4" fill="none"></path></g><g transform="translate(863.659522283644 280.1857142857134) rotate(0 84.4000015258789 21.59999999999991)"><text x="84.4000015258789" y="0" font-family="Cascadia, Segoe UI Emoji" font-size="36px" fill="#1e1e1e" text-anchor="middle" style="white-space: pre;" direction="ltr" dominant-baseline="text-before-edge">T object</text></g><g stroke-linecap="round" transform="translate(1084.2261904761854 184.45238095238165) rotate(0 134 117)"><path d="M7.86 8.16 C7.86 8.16, 7.86 8.16, 7.86 8.16 M7.86 8.16 C7.86 8.16, 7.86 8.16, 7.86 8.16 M8.78 31.49 C18.2 20.65, 27.63 9.81, 34.37 2.05 M8.78 31.49 C14.7 24.68, 20.62 17.87, 34.37 2.05 M8.39 56.32 C23.04 39.47, 37.69 22.62, 55.63 1.98 M8.39 56.32 C19.5 43.54, 30.61 30.76, 55.63 1.98 M8.66 80.4 C27.45 58.79, 46.24 37.17, 76.89 1.91 M8.66 80.4 C26.49 59.89, 44.33 39.37, 76.89 1.91 M8.27 105.24 C40.59 68.06, 72.91 30.88, 98.15 1.85 M8.27 105.24 C35.09 74.39, 61.91 43.53, 98.15 1.85 M8.54 129.32 C48.03 83.89, 87.53 38.46, 119.41 1.78 M8.54 129.32 C35.31 98.52, 62.09 67.72, 119.41 1.78 M8.15 154.16 C44.29 112.58, 80.43 71.01, 140.67 1.71 M8.15 154.16 C51.45 104.34, 94.76 54.52, 140.67 1.71 M8.41 178.24 C61.28 117.42, 114.15 56.61, 161.28 2.39 M8.41 178.24 C49.02 131.53, 89.62 84.82, 161.28 2.39 M1.46 210.62 C66.19 136.17, 130.91 61.71, 182.54 2.32 M1.46 210.62 C52.01 152.48, 102.56 94.33, 182.54 2.32 M8.95 226.4 C57.64 170.38, 106.34 114.36, 203.8 2.26 M8.95 226.4 C54.24 174.3, 99.54 122.19, 203.8 2.26 M22.33 235.39 C71.4 178.95, 120.46 122.51, 225.06 2.19 M22.33 235.39 C76.89 172.63, 131.44 109.87, 225.06 2.19 M39 240.61 C89.5 182.51, 140 124.42, 245.66 2.87 M39 240.61 C110.38 158.49, 181.77 76.37, 245.66 2.87 M60.26 240.54 C135.8 153.64, 211.33 66.75, 261.67 8.84 M60.26 240.54 C113.61 179.17, 166.96 117.8, 261.67 8.84 M81.52 240.47 C151.7 159.74, 221.88 79, 268.5 25.38 M81.52 240.47 C121.26 194.75, 161 149.04, 268.5 25.38 M102.78 240.4 C159.55 175.09, 216.32 109.78, 277.29 39.65 M102.78 240.4 C170.73 162.23, 238.68 84.07, 277.29 39.65 M124.04 240.33 C163.7 194.71, 203.35 149.1, 276.9 64.48 M124.04 240.33 C177.03 179.38, 230.01 118.43, 276.9 64.48 M145.3 240.26 C182.5 197.47, 219.69 154.68, 277.17 88.56 M145.3 240.26 C174.34 206.86, 203.38 173.45, 277.17 88.56 M166.56 240.19 C208.82 191.58, 251.08 142.97, 276.78 113.4 M166.56 240.19 C195.78 206.58, 225 172.97, 276.78 113.4 M187.82 240.12 C219.48 203.71, 251.13 167.29, 277.05 137.48 M187.82 240.12 C213.67 210.39, 239.51 180.66, 277.05 137.48 M209.08 240.05 C223.03 224, 236.99 207.95, 277.31 161.56 M209.08 240.05 C235.7 209.43, 262.32 178.81, 277.31 161.56 M230.34 239.98 C243.07 225.34, 255.8 210.7, 276.92 186.4 M230.34 239.98 C248.27 219.37, 266.19 198.75, 276.92 186.4" stroke="#a5d8ff" stroke-width="2" fill="none"></path><path d="M32 0 M32 0 C83.02 0, 134.04 0, 236 0 M32 0 C103.1 0, 174.2 0, 236 0 M236 0 C257.33 0, 268 10.67, 268 32 M236 0 C257.33 0, 268 10.67, 268 32 M268 32 C268 97.36, 268 162.72, 268 202 M268 32 C268 94.65, 268 157.29, 268 202 M268 202 C268 223.33, 257.33 234, 236 234 M268 202 C268 223.33, 257.33 234, 236 234 M236 234 C168.68 234, 101.36 234, 32 234 M236 234 C183.21 234, 130.42 234, 32 234 M32 234 C10.67 234, 0 223.33, 0 202 M32 234 C10.67 234, 0 223.33, 0 202 M0 202 C0 149.77, 0 97.54, 0 32 M0 202 C0 154.6, 0 107.2, 0 32 M0 32 C0 10.67, 10.67 0, 32 0 M0 32 C0 10.67, 10.67 0, 32 0" stroke="#1e1e1e" stroke-width="4" fill="none"></path></g><g transform="translate(1133.8261889503065 279.8523809523813) rotate(0 84.4000015258789 21.59999999999991)"><text x="84.4000015258789" y="0" font-family="Cascadia, Segoe UI Emoji" font-size="36px" fill="#1e1e1e" text-anchor="middle" style="white-space: pre;" direction="ltr" dominant-baseline="text-before-edge">T object</text></g><g stroke-linecap="round" transform="translate(1354.017857142855 184.8690476190459) rotate(0 134 117)"><path d="M7.86 8.16 C7.86 8.16, 7.86 8.16, 7.86 8.16 M7.86 8.16 C7.86 8.16, 7.86 8.16, 7.86 8.16 M8.78 31.49 C16.03 23.15, 23.28 14.81, 34.37 2.05 M8.78 31.49 C18.6 20.19, 28.42 8.9, 34.37 2.05 M8.39 56.32 C26.96 34.96, 45.53 13.6, 55.63 1.98 M8.39 56.32 C24.29 38.03, 40.2 19.74, 55.63 1.98 M8.66 80.4 C23.87 62.91, 39.07 45.42, 76.89 1.91 M8.66 80.4 C28.01 58.14, 47.36 35.88, 76.89 1.91 M8.27 105.24 C27.22 83.44, 46.17 61.64, 98.15 1.85 M8.27 105.24 C29.5 80.82, 50.73 56.4, 98.15 1.85 M8.54 129.32 C43.15 89.5, 77.77 49.68, 119.41 1.78 M8.54 129.32 C52.18 79.12, 95.82 28.92, 119.41 1.78 M8.15 154.16 C49.84 106.2, 91.53 58.24, 140.67 1.71 M8.15 154.16 C58.16 96.63, 108.17 39.09, 140.67 1.71 M8.41 178.24 C47.21 133.61, 86.01 88.97, 161.28 2.39 M8.41 178.24 C64.28 113.97, 120.16 49.7, 161.28 2.39 M1.46 210.62 C61.12 142, 120.78 73.37, 182.54 2.32 M1.46 210.62 C60.66 142.53, 119.85 74.44, 182.54 2.32 M8.95 226.4 C71.4 154.56, 133.85 82.72, 203.8 2.26 M8.95 226.4 C78.28 146.65, 147.61 66.9, 203.8 2.26 M22.33 235.39 C83.34 165.22, 144.34 95.04, 225.06 2.19 M22.33 235.39 C84.39 164, 146.44 92.62, 225.06 2.19 M39 240.61 C91.77 179.9, 144.53 119.2, 245.66 2.87 M39 240.61 C106.32 163.17, 173.64 85.73, 245.66 2.87 M60.26 240.54 C139.75 149.09, 219.24 57.65, 261.67 8.84 M60.26 240.54 C118.88 173.1, 177.5 105.67, 261.67 8.84 M81.52 240.47 C151.02 160.52, 220.52 80.56, 268.5 25.38 M81.52 240.47 C145.32 167.08, 209.11 93.69, 268.5 25.38 M102.78 240.4 C172.03 160.74, 241.27 81.09, 277.29 39.65 M102.78 240.4 C157.31 177.67, 211.84 114.94, 277.29 39.65 M124.04 240.33 C162.77 195.78, 201.5 151.22, 276.9 64.48 M124.04 240.33 C165.73 192.37, 207.42 144.41, 276.9 64.48 M145.3 240.26 C173.48 207.85, 201.65 175.44, 277.17 88.56 M145.3 240.26 C192.22 186.29, 239.13 132.32, 277.17 88.56 M166.56 240.19 C194.59 207.95, 222.62 175.7, 276.78 113.4 M166.56 240.19 C199.15 202.71, 231.73 165.22, 276.78 113.4 M187.82 240.12 C221.01 201.94, 254.2 163.77, 277.05 137.48 M187.82 240.12 C211.12 213.33, 234.41 186.53, 277.05 137.48 M209.08 240.05 C236.3 208.74, 263.52 177.43, 277.31 161.56 M209.08 240.05 C235.68 209.45, 262.28 178.85, 277.31 161.56 M230.34 239.98 C245.19 222.91, 260.03 205.83, 276.92 186.4 M230.34 239.98 C240.74 228.03, 251.14 216.07, 276.92 186.4" stroke="#a5d8ff" stroke-width="2" fill="none"></path><path d="M32 0 M32 0 C89.48 0, 146.97 0, 236 0 M32 0 C80.97 0, 129.94 0, 236 0 M236 0 C257.33 0, 268 10.67, 268 32 M236 0 C257.33 0, 268 10.67, 268 32 M268 32 C268 82.4, 268 132.79, 268 202 M268 32 C268 85.4, 268 138.81, 268 202 M268 202 C268 223.33, 257.33 234, 236 234 M268 202 C268 223.33, 257.33 234, 236 234 M236 234 C192.35 234, 148.71 234, 32 234 M236 234 C169.35 234, 102.7 234, 32 234 M32 234 C10.67 234, 0 223.33, 0 202 M32 234 C10.67 234, 0 223.33, 0 202 M0 202 C0 166.95, 0 131.89, 0 32 M0 202 C0 165.61, 0 129.22, 0 32 M0 32 C0 10.67, 10.67 0, 32 0 M0 32 C0 10.67, 10.67 0, 32 0" stroke="#1e1e1e" stroke-width="4" fill="none"></path></g><g transform="translate(1403.6178556169762 280.2690476190455) rotate(0 84.4000015258789 21.59999999999991)"><text x="84.4000015258789" y="0" font-family="Cascadia, Segoe UI Emoji" font-size="36px" fill="#1e1e1e" text-anchor="middle" style="white-space: pre;" direction="ltr" dominant-baseline="text-before-edge">T object</text></g><g stroke-linecap="round" transform="translate(1624.1845238095193 184.53571428571377) rotate(0 134 117)"><path d="M7.86 8.16 C7.86 8.16, 7.86 8.16, 7.86 8.16 M7.86 8.16 C7.86 8.16, 7.86 8.16, 7.86 8.16 M8.78 31.49 C16.02 23.16, 23.26 14.83, 34.37 2.05 M8.78 31.49 C14.07 25.41, 19.35 19.33, 34.37 2.05 M8.39 56.32 C18.55 44.64, 28.7 32.97, 55.63 1.98 M8.39 56.32 C21.67 41.05, 34.95 25.77, 55.63 1.98 M8.66 80.4 C30.82 54.91, 52.98 29.42, 76.89 1.91 M8.66 80.4 C27.71 58.49, 46.75 36.58, 76.89 1.91 M8.27 105.24 C31.29 78.76, 54.31 52.28, 98.15 1.85 M8.27 105.24 C41.74 66.74, 75.21 28.24, 98.15 1.85 M8.54 129.32 C51.56 79.83, 94.58 30.34, 119.41 1.78 M8.54 129.32 C30.9 103.6, 53.26 77.87, 119.41 1.78 M8.15 154.16 C54.66 100.65, 101.17 47.14, 140.67 1.71 M8.15 154.16 C49.42 106.68, 90.69 59.2, 140.67 1.71 M8.41 178.24 C45.45 135.63, 82.49 93.03, 161.28 2.39 M8.41 178.24 C51.78 128.35, 95.16 78.45, 161.28 2.39 M1.46 210.62 C63.36 139.42, 125.25 68.22, 182.54 2.32 M1.46 210.62 C68.97 132.96, 136.48 55.3, 182.54 2.32 M8.95 226.4 C72.77 152.99, 136.59 79.57, 203.8 2.26 M8.95 226.4 C55.63 172.7, 102.31 119, 203.8 2.26 M22.33 235.39 C101.65 144.15, 180.96 52.91, 225.06 2.19 M22.33 235.39 C100.52 145.44, 178.71 55.5, 225.06 2.19 M39 240.61 C91.51 180.2, 144.01 119.8, 245.66 2.87 M39 240.61 C98.57 172.08, 158.14 103.55, 245.66 2.87 M60.26 240.54 C117.1 175.15, 173.94 109.77, 261.67 8.84 M60.26 240.54 C107.37 186.34, 154.49 132.14, 261.67 8.84 M81.52 240.47 C138.07 175.41, 194.63 110.36, 268.5 25.38 M81.52 240.47 C128.91 185.95, 176.3 131.43, 268.5 25.38 M102.78 240.4 C158.26 176.57, 213.75 112.75, 277.29 39.65 M102.78 240.4 C164.91 168.92, 227.04 97.45, 277.29 39.65 M124.04 240.33 C173.51 183.42, 222.98 126.52, 276.9 64.48 M124.04 240.33 C164.34 193.98, 204.63 147.62, 276.9 64.48 M145.3 240.26 C174.58 206.59, 203.85 172.91, 277.17 88.56 M145.3 240.26 C177.65 203.05, 209.99 165.85, 277.17 88.56 M166.56 240.19 C192.88 209.92, 219.19 179.65, 276.78 113.4 M166.56 240.19 C194.31 208.27, 222.06 176.35, 276.78 113.4 M187.82 240.12 C209.08 215.67, 230.34 191.21, 277.05 137.48 M187.82 240.12 C219.01 204.24, 250.2 168.36, 277.05 137.48 M209.08 240.05 C232.24 213.42, 255.39 186.78, 277.31 161.56 M209.08 240.05 C226.53 219.99, 243.97 199.92, 277.31 161.56 M230.34 239.98 C241.1 227.61, 251.86 215.24, 276.92 186.4 M230.34 239.98 C247.65 220.07, 264.96 200.17, 276.92 186.4" stroke="#a5d8ff" stroke-width="2" fill="none"></path><path d="M32 0 M32 0 C111.02 0, 190.05 0, 236 0 M32 0 C96.84 0, 161.68 0, 236 0 M236 0 C257.33 0, 268 10.67, 268 32 M236 0 C257.33 0, 268 10.67, 268 32 M268 32 C268 73.86, 268 115.72, 268 202 M268 32 C268 77.81, 268 123.62, 268 202 M268 202 C268 223.33, 257.33 234, 236 234 M268 202 C268 223.33, 257.33 234, 236 234 M236 234 C169.39 234, 102.77 234, 32 234 M236 234 C181 234, 126.01 234, 32 234 M32 234 C10.67 234, 0 223.33, 0 202 M32 234 C10.67 234, 0 223.33, 0 202 M0 202 C0 157.11, 0 112.21, 0 32 M0 202 C0 164.82, 0 127.64, 0 32 M0 32 C0 10.67, 10.67 0, 32 0 M0 32 C0 10.67, 10.67 0, 32 0" stroke="#1e1e1e" stroke-width="4" fill="none"></path></g><g transform="translate(1673.7845222836404 279.9357142857134) rotate(0 84.4000015258789 21.59999999999991)"><text x="84.4000015258789" y="0" font-family="Cascadia, Segoe UI Emoji" font-size="36px" fill="#1e1e1e" text-anchor="middle" style="white-space: pre;" direction="ltr" dominant-baseline="text-before-edge">T object</text></g><g stroke-linecap="round"><g transform="translate(401.0736583651146 876.4880952380954) rotate(0 3.8424790682709045 -216.428571428572)"><path d="M0 0 C1.77 -99.68, 3.54 -199.37, 7.68 -432.86 M0 0 C1.84 -103.51, 3.68 -207.02, 7.68 -432.86" stroke="#868e96" stroke-width="4" fill="none"></path></g><g transform="translate(401.0736583651146 876.4880952380954) rotate(0 3.8424790682709045 -216.428571428572)"><path d="M17.44 -404.49 C15.2 -411.02, 12.95 -417.55, 7.68 -432.86 M17.44 -404.49 C15.11 -411.27, 12.78 -418.06, 7.68 -432.86" stroke="#868e96" stroke-width="4" fill="none"></path></g><g transform="translate(401.0736583651146 876.4880952380954) rotate(0 3.8424790682709045 -216.428571428572)"><path d="M-3.07 -404.85 C-0.6 -411.3, 1.88 -417.75, 7.68 -432.86 M-3.07 -404.85 C-0.5 -411.55, 2.07 -418.25, 7.68 -432.86" stroke="#868e96" stroke-width="4" fill="none"></path></g></g><mask></mask><g mask="url(#mask-r6GWx728vlX80GCPk0oa0)" stroke-linecap="round"><g transform="translate(598.6904761904716 999.3452380952376) rotate(0 452.1428571428571 -14.56368177150216)"><path d="M0 0 C18.1 -8.81, 68.57 -56.43, 108.57 -52.86 C148.57 -49.29, 190.24 21.9, 240 21.43 C289.76 20.95, 353.81 -57.86, 407.14 -55.71 C460.48 -53.57, 513.33 35.48, 560 34.29 C606.67 33.1, 648.33 -56.19, 687.14 -62.86 C725.95 -69.52, 756.67 -15.48, 792.86 -5.71 C829.05 4.05, 885.71 -4.52, 904.29 -4.29 M0 0 C18.1 -8.81, 68.57 -56.43, 108.57 -52.86 C148.57 -49.29, 190.24 21.9, 240 21.43 C289.76 20.95, 353.81 -57.86, 407.14 -55.71 C460.48 -53.57, 513.33 35.48, 560 34.29 C606.67 33.1, 648.33 -56.19, 687.14 -62.86 C725.95 -69.52, 756.67 -15.48, 792.86 -5.71 C829.05 4.05, 885.71 -4.52, 904.29 -4.29" stroke="#1e1e1e" stroke-width="4" fill="none"></path></g><g transform="translate(598.6904761904716 999.3452380952376) rotate(0 452.1428571428571 -14.56368177150216)"><path d="M876.72 7.54 C886.78 3.22, 896.85 -1.09, 904.29 -4.29 M876.72 7.54 C883.5 4.63, 890.28 1.72, 904.29 -4.29" stroke="#1e1e1e" stroke-width="4" fill="none"></path></g><g transform="translate(598.6904761904716 999.3452380952376) rotate(0 452.1428571428571 -14.56368177150216)"><path d="M875.56 -12.95 C886.05 -9.78, 896.54 -6.62, 904.29 -4.29 M875.56 -12.95 C882.63 -10.81, 889.69 -8.68, 904.29 -4.29" stroke="#1e1e1e" stroke-width="4" fill="none"></path></g></g><mask id="mask-r6GWx728vlX80GCPk0oa0"><rect x="0" y="0" fill="#fff" width="1602.9761904761858" height="1196.4880952380945"></rect><rect x="1020.5546303037604" y="967.491449858554" fill="#000" width="126.5999984741211" height="43.199999999999996" opacity="1"></rect></mask><g transform="translate(1020.5546303037604 967.491449858554) rotate(0 30.278703029568305 17.290106465181452)"><text x="63.29999923706055" y="0" font-family="Cascadia, Segoe UI Emoji" font-size="36px" fill="#1e1e1e" text-anchor="middle" style="white-space: pre;" direction="ltr" dominant-baseline="text-before-edge">MEMCPY</text></g><g stroke-linecap="round" transform="translate(1513.4047619047574 899.4166666666661) rotate(0 171 98.5)"><path d="M7.86 8.16 C7.86 8.16, 7.86 8.16, 7.86 8.16 M7.86 8.16 C7.86 8.16, 7.86 8.16, 7.86 8.16 M8.78 31.49 C18.54 20.26, 28.29 9.04, 34.37 2.05 M8.78 31.49 C16.94 22.1, 25.1 12.72, 34.37 2.05 M8.39 56.32 C17.86 45.44, 27.32 34.55, 55.63 1.98 M8.39 56.32 C20.89 41.95, 33.38 27.57, 55.63 1.98 M8.66 80.4 C23.66 63.15, 38.66 45.89, 76.89 1.91 M8.66 80.4 C24.66 61.99, 40.67 43.59, 76.89 1.91 M8.27 105.24 C40.66 67.98, 73.05 30.72, 98.15 1.85 M8.27 105.24 C35.65 73.75, 63.02 42.25, 98.15 1.85 M8.54 129.32 C52.43 78.83, 96.32 28.33, 119.41 1.78 M8.54 129.32 C38.18 95.23, 67.81 61.13, 119.41 1.78 M8.15 154.16 C46.35 110.22, 84.55 66.27, 140.67 1.71 M8.15 154.16 C54.25 101.13, 100.35 48.09, 140.67 1.71 M5.13 182.01 C39.7 142.25, 74.27 102.48, 161.28 2.39 M5.13 182.01 C39.41 142.58, 73.69 103.14, 161.28 2.39 M15.24 194.78 C71.43 130.14, 127.61 65.51, 182.54 2.32 M15.24 194.78 C68.68 133.3, 122.12 71.82, 182.54 2.32 M33.22 198.48 C95.14 127.24, 157.07 56.01, 203.8 2.26 M33.22 198.48 C78.26 146.67, 123.3 94.86, 203.8 2.26 M54.48 198.41 C115.83 127.83, 177.18 57.26, 225.06 2.19 M54.48 198.41 C116.7 126.83, 178.93 55.25, 225.06 2.19 M75.74 198.34 C134.11 131.2, 192.47 64.06, 246.32 2.12 M75.74 198.34 C117.34 150.49, 158.93 102.64, 246.32 2.12 M97 198.27 C134.69 154.92, 172.37 111.57, 267.58 2.05 M97 198.27 C156.64 129.67, 216.28 61.06, 267.58 2.05 M118.26 198.2 C158.32 152.12, 198.38 106.04, 288.84 1.98 M118.26 198.2 C181.79 125.13, 245.31 52.05, 288.84 1.98 M139.52 198.13 C188.41 141.89, 237.3 85.65, 310.75 1.16 M139.52 198.13 C201.17 127.22, 262.82 56.3, 310.75 1.16 M160.78 198.07 C222.98 126.51, 285.18 54.96, 328.08 5.61 M160.78 198.07 C216.56 133.9, 272.35 69.72, 328.08 5.61 M182.04 198 C233.49 138.82, 284.93 79.64, 340.81 15.36 M182.04 198 C214.17 161.04, 246.3 124.08, 340.81 15.36 M203.3 197.93 C237.1 159.05, 270.89 120.18, 345.01 34.91 M203.3 197.93 C257.28 135.83, 311.27 73.73, 345.01 34.91 M223.91 198.61 C249.6 169.05, 275.3 139.5, 345.28 58.99 M223.91 198.61 C260.72 156.26, 297.53 113.91, 345.28 58.99 M245.17 198.54 C282.56 155.53, 319.95 112.52, 344.89 83.83 M245.17 198.54 C269.03 171.1, 292.89 143.65, 344.89 83.83 M266.43 198.48 C284.42 177.78, 302.41 157.08, 345.15 107.91 M266.43 198.48 C282.95 179.47, 299.47 160.46, 345.15 107.91 M287.69 198.41 C303.62 180.07, 319.56 161.74, 345.42 131.99 M287.69 198.41 C299.41 184.92, 311.14 171.43, 345.42 131.99 M310.26 196.83 C322.75 182.46, 335.23 168.1, 345.03 156.83 M310.26 196.83 C320.32 185.25, 330.38 173.68, 345.03 156.83" stroke="#ced4da" stroke-width="2" fill="none"></path><path d="M32 0 M32 0 C112.98 0, 193.95 0, 310 0 M32 0 C97.98 0, 163.97 0, 310 0 M310 0 C331.33 0, 342 10.67, 342 32 M310 0 C331.33 0, 342 10.67, 342 32 M342 32 C342 73.32, 342 114.65, 342 165 M342 32 C342 78.75, 342 125.51, 342 165 M342 165 C342 186.33, 331.33 197, 310 197 M342 165 C342 186.33, 331.33 197, 310 197 M310 197 C226.78 197, 143.57 197, 32 197 M310 197 C253.4 197, 196.81 197, 32 197 M32 197 C10.67 197, 0 186.33, 0 165 M32 197 C10.67 197, 0 186.33, 0 165 M0 165 C0 123.28, 0 81.57, 0 32 M0 165 C0 116.79, 0 68.58, 0 32 M0 32 C0 10.67, 10.67 0, 32 0 M0 32 C0 10.67, 10.67 0, 32 0" stroke="#1e1e1e" stroke-width="4" fill="none"></path></g><g transform="translate(1536.7047649565152 976.3166666666657) rotate(0 147.6999969482422 21.59999999999991)"><text x="147.6999969482422" y="0" font-family="Cascadia, Segoe UI Emoji" font-size="36px" fill="#1e1e1e" text-anchor="middle" style="white-space: pre;" direction="ltr" dominant-baseline="text-before-edge">std::vector&lt;T&gt;</text></g><g stroke-linecap="round"><g transform="translate(1517.2619047619 895.059523809523) rotate(0 -551.4285714285713 -225)"><path d="M0 0 C-183.81 -75, -919.05 -375, -1102.86 -450 M0 0 C-183.81 -75, -919.05 -375, -1102.86 -450" stroke="#1e1e1e" stroke-width="4" fill="none"></path></g><g transform="translate(1517.2619047619 895.059523809523) rotate(0 -551.4285714285713 -225)"><path d="M-1072.88 -448.85 C-1083.81 -449.27, -1094.75 -449.69, -1102.86 -450 M-1072.88 -448.85 C-1081.75 -449.19, -1090.62 -449.53, -1102.86 -450" stroke="#1e1e1e" stroke-width="4" fill="none"></path></g><g transform="translate(1517.2619047619 895.059523809523) rotate(0 -551.4285714285713 -225)"><path d="M-1080.63 -429.85 C-1088.74 -437.2, -1096.85 -444.55, -1102.86 -450 M-1080.63 -429.85 C-1087.21 -435.81, -1093.78 -441.77, -1102.86 -450" stroke="#1e1e1e" stroke-width="4" fill="none"></path></g></g><mask></mask></svg>