<svg version="1.1" xmlns="http://www.w3.org/2000/svg" viewBox="0 0 1646.8511904761872 820.9642857142853" width="4940.553571428562" height="2462.892857142856">
  <!-- svg-source:excalidraw -->
  
  <defs>
    <style class="style-fonts">
      @font-face {
        font-family: "Virgil";
        src: url("https://excalidraw.com/Virgil.woff2");
      }
      @font-face {
        font-family: "Cascadia";
        src: url("https://excalidraw.com/Cascadia.woff2");
      }
    </style>
    
  </defs>
  <g transform="translate(145.09285695212293 10) rotate(0 10.550000190734863 21.59999999999991)"><text x="10.550000190734863" y="0" font-family="Cascadia, Segoe UI Emoji" font-size="36px" fill="#1e1e1e" text-anchor="middle" style="white-space: pre;" direction="ltr" dominant-baseline="text-before-edge">1</text></g><g transform="translate(407.7595236187899 19.33333333333394) rotate(0 10.550000190734863 21.59999999999991)"><text x="10.550000190734863" y="0" font-family="Cascadia, Segoe UI Emoji" font-size="36px" fill="#1e1e1e" text-anchor="middle" style="white-space: pre;" direction="ltr" dominant-baseline="text-before-edge">2</text></g><g transform="translate(684.926190285456 24.83333333333394) rotate(0 10.550000190734863 21.59999999999991)"><text x="10.550000190734863" y="0" font-family="Cascadia, Segoe UI Emoji" font-size="36px" fill="#1e1e1e" text-anchor="middle" style="white-space: pre;" direction="ltr" dominant-baseline="text-before-edge">3</text></g><g transform="translate(951.5928569521229 14.83333333333394) rotate(0 10.550000190734863 21.59999999999991)"><text x="10.550000190734863" y="0" font-family="Cascadia, Segoe UI Emoji" font-size="36px" fill="#1e1e1e" text-anchor="middle" style="white-space: pre;" direction="ltr" dominant-baseline="text-before-edge">4</text></g><g transform="translate(1225.926190285456 22.66666666666788) rotate(0 10.550000190734863 21.59999999999991)"><text x="10.550000190734863" y="0" font-family="Cascadia, Segoe UI Emoji" font-size="36px" fill="#1e1e1e" text-anchor="middle" style="white-space: pre;" direction="ltr" dominant-baseline="text-before-edge">5</text></g><g transform="translate(1485.592856952123 29.83333333333394) rotate(0 10.550000190734863 21.59999999999991)"><text x="10.550000190734863" y="0" font-family="Cascadia, Segoe UI Emoji" font-size="36px" fill="#1e1e1e" text-anchor="middle" style="white-space: pre;" direction="ltr" dominant-baseline="text-before-edge">6</text></g><g stroke-linecap="round" transform="translate(18.642857142857792 89.5) rotate(0 134 117)"><path d="M7.86 8.16 C7.86 8.16, 7.86 8.16, 7.86 8.16 M7.86 8.16 C7.86 8.16, 7.86 8.16, 7.86 8.16 M8.78 31.49 C14.19 25.27, 19.59 19.05, 34.37 2.05 M8.78 31.49 C17.64 21.3, 26.49 11.12, 34.37 2.05 M8.39 56.32 C22.3 40.32, 36.21 24.33, 55.63 1.98 M8.39 56.32 C23.72 38.69, 39.05 21.05, 55.63 1.98 M8.66 80.4 C24.98 61.63, 41.31 42.85, 76.89 1.91 M8.66 80.4 C34.14 51.09, 59.62 21.79, 76.89 1.91 M8.27 105.24 C43.97 64.17, 79.67 23.11, 98.15 1.85 M8.27 105.24 C35.69 73.7, 63.11 42.15, 98.15 1.85 M8.54 129.32 C51.05 80.42, 93.57 31.51, 119.41 1.78 M8.54 129.32 C33.24 100.9, 57.95 72.48, 119.41 1.78 M8.15 154.16 C46.92 109.55, 85.7 64.94, 140.67 1.71 M8.15 154.16 C41.97 115.25, 75.79 76.34, 140.67 1.71 M8.41 178.24 C41.17 140.56, 73.93 102.88, 161.28 2.39 M8.41 178.24 C68.12 109.56, 127.82 40.88, 161.28 2.39 M1.46 210.62 C46.51 158.81, 91.55 106.99, 182.54 2.32 M1.46 210.62 C39.7 166.64, 77.93 122.66, 182.54 2.32 M8.95 226.4 C52.31 176.52, 95.66 126.65, 203.8 2.26 M8.95 226.4 C72.8 152.95, 136.66 79.49, 203.8 2.26 M22.33 235.39 C83.97 164.49, 145.6 93.59, 225.06 2.19 M22.33 235.39 C85.94 162.22, 149.55 89.04, 225.06 2.19 M39 240.61 C104.97 164.72, 170.94 88.83, 245.66 2.87 M39 240.61 C109.27 159.77, 179.54 78.94, 245.66 2.87 M60.26 240.54 C134.21 155.47, 208.16 70.4, 261.67 8.84 M60.26 240.54 C122.43 169.02, 184.6 97.5, 261.67 8.84 M81.52 240.47 C144.29 168.26, 207.07 96.04, 268.5 25.38 M81.52 240.47 C135.35 178.55, 189.18 116.63, 268.5 25.38 M102.78 240.4 C158.13 176.73, 213.48 113.06, 277.29 39.65 M102.78 240.4 C145.73 190.99, 188.67 141.59, 277.29 39.65 M124.04 240.33 C173.53 183.4, 223.02 126.47, 276.9 64.48 M124.04 240.33 C167.82 189.96, 211.61 139.6, 276.9 64.48 M145.3 240.26 C185.31 194.24, 225.31 148.22, 277.17 88.56 M145.3 240.26 C195.55 182.46, 245.79 124.66, 277.17 88.56 M166.56 240.19 C194.7 207.83, 222.83 175.46, 276.78 113.4 M166.56 240.19 C189.21 214.14, 211.85 188.1, 276.78 113.4 M187.82 240.12 C209.72 214.93, 231.63 189.73, 277.05 137.48 M187.82 240.12 C212.19 212.09, 236.55 184.07, 277.05 137.48 M209.08 240.05 C231.09 214.73, 253.11 189.41, 277.31 161.56 M209.08 240.05 C234.29 211.06, 259.49 182.06, 277.31 161.56 M230.34 239.98 C245.87 222.12, 261.4 204.25, 276.92 186.4 M230.34 239.98 C243.69 224.63, 257.04 209.27, 276.92 186.4" stroke="#a5d8ff" stroke-width="2" fill="none"></path><path d="M32 0 M32 0 C80.63 0, 129.26 0, 236 0 M32 0 C84.54 0, 137.08 0, 236 0 M236 0 C257.33 0, 268 10.67, 268 32 M236 0 C257.33 0, 268 10.67, 268 32 M268 32 C268 79.9, 268 127.8, 268 202 M268 32 C268 72.81, 268 113.62, 268 202 M268 202 C268 223.33, 257.33 234, 236 234 M268 202 C268 223.33, 257.33 234, 236 234 M236 234 C175.52 234, 115.05 234, 32 234 M236 234 C171.91 234, 107.83 234, 32 234 M32 234 C10.67 234, 0 223.33, 0 202 M32 234 C10.67 234, 0 223.33, 0 202 M0 202 C0 165.63, 0 129.26, 0 32 M0 202 C0 146.46, 0 90.91, 0 32 M0 32 C0 10.67, 10.67 0, 32 0 M0 32 C0 10.67, 10.67 0, 32 0" stroke="#1e1e1e" stroke-width="4" fill="none"></path></g><g transform="translate(68.24285561697889 184.89999999999964) rotate(0 84.4000015258789 21.59999999999991)"><text x="84.4000015258789" y="0" font-family="Cascadia, Segoe UI Emoji" font-size="36px" fill="#1e1e1e" text-anchor="middle" style="white-space: pre;" direction="ltr" dominant-baseline="text-before-edge">T object</text></g><g stroke-linecap="round" transform="translate(10 613.2142857142853) rotate(0 171 98.5)"><path d="M7.86 8.16 C7.86 8.16, 7.86 8.16, 7.86 8.16 M7.86 8.16 C7.86 8.16, 7.86 8.16, 7.86 8.16 M8.78 31.49 C14.84 24.52, 20.9 17.55, 34.37 2.05 M8.78 31.49 C14.74 24.63, 20.71 17.77, 34.37 2.05 M8.39 56.32 C25.79 36.32, 43.18 16.31, 55.63 1.98 M8.39 56.32 C19.32 43.76, 30.24 31.19, 55.63 1.98 M8.66 80.4 C29.82 56.06, 50.98 31.72, 76.89 1.91 M8.66 80.4 C24.71 61.94, 40.76 43.48, 76.89 1.91 M8.27 105.24 C33.03 76.76, 57.78 48.29, 98.15 1.85 M8.27 105.24 C31.76 78.22, 55.26 51.19, 98.15 1.85 M8.54 129.32 C48.4 83.46, 88.27 37.6, 119.41 1.78 M8.54 129.32 C41.62 91.26, 74.71 53.2, 119.41 1.78 M8.15 154.16 C55.35 99.85, 102.56 45.55, 140.67 1.71 M8.15 154.16 C40.15 117.34, 72.16 80.52, 140.67 1.71 M5.13 182.01 C47.71 133.03, 90.3 84.05, 161.28 2.39 M5.13 182.01 C56.16 123.32, 107.18 64.62, 161.28 2.39 M15.24 194.78 C73.1 128.22, 130.96 61.66, 182.54 2.32 M15.24 194.78 C59.68 143.65, 104.12 92.53, 182.54 2.32 M33.22 198.48 C94.19 128.34, 155.16 58.2, 203.8 2.26 M33.22 198.48 C80.84 143.7, 128.46 88.92, 203.8 2.26 M54.48 198.41 C97.11 149.37, 139.74 100.33, 225.06 2.19 M54.48 198.41 C94.13 152.79, 133.79 107.18, 225.06 2.19 M75.74 198.34 C117.03 150.85, 158.31 103.36, 246.32 2.12 M75.74 198.34 C121.64 145.54, 167.55 92.73, 246.32 2.12 M97 198.27 C138.68 150.32, 180.36 102.38, 267.58 2.05 M97 198.27 C155.92 130.49, 214.84 62.72, 267.58 2.05 M118.26 198.2 C182.23 124.61, 246.2 51.02, 288.84 1.98 M118.26 198.2 C163.44 146.23, 208.62 94.25, 288.84 1.98 M139.52 198.13 C203.79 124.2, 268.06 50.27, 310.75 1.16 M139.52 198.13 C175.91 156.27, 212.31 114.4, 310.75 1.16 M160.78 198.07 C215.2 135.46, 269.63 72.85, 328.08 5.61 M160.78 198.07 C225.92 123.13, 291.06 48.2, 328.08 5.61 M182.04 198 C223.23 150.62, 264.41 103.24, 340.81 15.36 M182.04 198 C237.07 134.69, 292.1 71.39, 340.81 15.36 M203.3 197.93 C243.27 151.95, 283.24 105.96, 345.01 34.91 M203.3 197.93 C234.51 162.03, 265.71 126.14, 345.01 34.91 M223.91 198.61 C270.44 145.08, 316.97 91.55, 345.28 58.99 M223.91 198.61 C256.08 161.6, 288.25 124.59, 345.28 58.99 M245.17 198.54 C280.55 157.84, 315.93 117.15, 344.89 83.83 M245.17 198.54 C274.05 165.31, 302.94 132.09, 344.89 83.83 M266.43 198.48 C282.52 179.96, 298.62 161.44, 345.15 107.91 M266.43 198.48 C297.14 163.14, 327.85 127.81, 345.15 107.91 M287.69 198.41 C303.46 180.26, 319.24 162.11, 345.42 131.99 M287.69 198.41 C309.9 172.85, 332.11 147.3, 345.42 131.99 M310.26 196.83 C318.96 186.82, 327.65 176.82, 345.03 156.83 M310.26 196.83 C322.38 182.89, 334.5 168.95, 345.03 156.83" stroke="#ced4da" stroke-width="2" fill="none"></path><path d="M32 0 M32 0 C111.97 0, 191.94 0, 310 0 M32 0 C100.72 0, 169.43 0, 310 0 M310 0 C331.33 0, 342 10.67, 342 32 M310 0 C331.33 0, 342 10.67, 342 32 M342 32 C342 73.88, 342 115.75, 342 165 M342 32 C342 83.25, 342 134.51, 342 165 M342 165 C342 186.33, 331.33 197, 310 197 M342 165 C342 186.33, 331.33 197, 310 197 M310 197 C252.72 197, 195.44 197, 32 197 M310 197 C240.13 197, 170.26 197, 32 197 M32 197 C10.67 197, 0 186.33, 0 165 M32 197 C10.67 197, 0 186.33, 0 165 M0 165 C0 137.91, 0 110.81, 0 32 M0 165 C0 137.6, 0 110.19, 0 32 M0 32 C0 10.67, 10.67 0, 32 0 M0 32 C0 10.67, 10.67 0, 32 0" stroke="#868e96" stroke-width="4" fill="none"></path></g><g transform="translate(33.30000305175781 690.114285714285) rotate(0 147.6999969482422 21.59999999999991)"><text x="147.6999969482422" y="0" font-family="Cascadia, Segoe UI Emoji" font-size="36px" fill="#868e96" text-anchor="middle" style="white-space: pre;" direction="ltr" dominant-baseline="text-before-edge">std::vector&lt;T&gt;</text></g><g stroke-linecap="round" transform="translate(288.8095238095211 89.16666666666606) rotate(0 134 117)"><path d="M7.86 8.16 C7.86 8.16, 7.86 8.16, 7.86 8.16 M7.86 8.16 C7.86 8.16, 7.86 8.16, 7.86 8.16 M8.78 31.49 C17.91 20.99, 27.03 10.49, 34.37 2.05 M8.78 31.49 C15.61 23.64, 22.43 15.79, 34.37 2.05 M8.39 56.32 C21.78 40.93, 35.16 25.53, 55.63 1.98 M8.39 56.32 C26.52 35.47, 44.64 14.62, 55.63 1.98 M8.66 80.4 C35.48 49.55, 62.31 18.69, 76.89 1.91 M8.66 80.4 C31.63 53.98, 54.6 27.56, 76.89 1.91 M8.27 105.24 C28.3 82.2, 48.34 59.15, 98.15 1.85 M8.27 105.24 C33.76 75.92, 59.25 46.59, 98.15 1.85 M8.54 129.32 C31.92 102.43, 55.29 75.53, 119.41 1.78 M8.54 129.32 C34.72 99.2, 60.91 69.08, 119.41 1.78 M8.15 154.16 C49.52 106.56, 90.9 58.96, 140.67 1.71 M8.15 154.16 C60.31 94.15, 112.47 34.15, 140.67 1.71 M8.41 178.24 C56.5 122.92, 104.59 67.6, 161.28 2.39 M8.41 178.24 C66.1 111.88, 123.79 45.52, 161.28 2.39 M1.46 210.62 C47.42 157.75, 93.39 104.88, 182.54 2.32 M1.46 210.62 C67.65 134.49, 133.83 58.36, 182.54 2.32 M8.95 226.4 C73.14 152.55, 137.34 78.7, 203.8 2.26 M8.95 226.4 C72.64 153.13, 136.34 79.85, 203.8 2.26 M22.33 235.39 C87.31 160.65, 152.28 85.91, 225.06 2.19 M22.33 235.39 C94.46 152.41, 166.59 69.44, 225.06 2.19 M39 240.61 C101.19 169.07, 163.37 97.53, 245.66 2.87 M39 240.61 C102.26 167.83, 165.52 95.06, 245.66 2.87 M60.26 240.54 C111.69 181.38, 163.11 122.22, 261.67 8.84 M60.26 240.54 C125.87 165.06, 191.48 89.59, 261.67 8.84 M81.52 240.47 C155.31 155.58, 229.11 70.69, 268.5 25.38 M81.52 240.47 C135.94 177.86, 190.36 115.26, 268.5 25.38 M102.78 240.4 C167.65 165.78, 232.52 91.15, 277.29 39.65 M102.78 240.4 C162.32 171.9, 221.86 103.41, 277.29 39.65 M124.04 240.33 C184.7 170.56, 245.35 100.78, 276.9 64.48 M124.04 240.33 C171.81 185.38, 219.57 130.44, 276.9 64.48 M145.3 240.26 C178.71 201.83, 212.12 163.39, 277.17 88.56 M145.3 240.26 C181.27 198.89, 217.23 157.52, 277.17 88.56 M166.56 240.19 C190.11 213.1, 213.66 186.01, 276.78 113.4 M166.56 240.19 C205.77 195.08, 244.99 149.98, 276.78 113.4 M187.82 240.12 C210.51 214.02, 233.2 187.92, 277.05 137.48 M187.82 240.12 C214.2 209.78, 240.58 179.43, 277.05 137.48 M209.08 240.05 C234.46 210.86, 259.84 181.66, 277.31 161.56 M209.08 240.05 C226.9 219.56, 244.71 199.07, 277.31 161.56 M230.34 239.98 C248.92 218.61, 267.5 197.24, 276.92 186.4 M230.34 239.98 C248.5 219.09, 266.66 198.2, 276.92 186.4" stroke="#a5d8ff" stroke-width="2" fill="none"></path><path d="M32 0 M32 0 C97.01 0, 162.02 0, 236 0 M32 0 C77.53 0, 123.06 0, 236 0 M236 0 C257.33 0, 268 10.67, 268 32 M236 0 C257.33 0, 268 10.67, 268 32 M268 32 C268 91.86, 268 151.72, 268 202 M268 32 C268 98.17, 268 164.33, 268 202 M268 202 C268 223.33, 257.33 234, 236 234 M268 202 C268 223.33, 257.33 234, 236 234 M236 234 C176.18 234, 116.35 234, 32 234 M236 234 C158.46 234, 80.92 234, 32 234 M32 234 C10.67 234, 0 223.33, 0 202 M32 234 C10.67 234, 0 223.33, 0 202 M0 202 C0 155.01, 0 108.01, 0 32 M0 202 C0 151.64, 0 101.27, 0 32 M0 32 C0 10.67, 10.67 0, 32 0 M0 32 C0 10.67, 10.67 0, 32 0" stroke="#1e1e1e" stroke-width="4" fill="none"></path></g><g transform="translate(338.4095222836422 184.5666666666657) rotate(0 84.4000015258789 21.59999999999991)"><text x="84.4000015258789" y="0" font-family="Cascadia, Segoe UI Emoji" font-size="36px" fill="#1e1e1e" text-anchor="middle" style="white-space: pre;" direction="ltr" dominant-baseline="text-before-edge">T object</text></g><g stroke-linecap="round" transform="translate(558.7261904761908 89.33333333333394) rotate(0 134 117)"><path d="M7.86 8.16 C7.86 8.16, 7.86 8.16, 7.86 8.16 M7.86 8.16 C7.86 8.16, 7.86 8.16, 7.86 8.16 M8.78 31.49 C14.04 25.44, 19.29 19.4, 34.37 2.05 M8.78 31.49 C14.36 25.07, 19.93 18.66, 34.37 2.05 M8.39 56.32 C21.76 40.95, 35.12 25.57, 55.63 1.98 M8.39 56.32 C18.14 45.11, 27.9 33.89, 55.63 1.98 M8.66 80.4 C23.32 63.54, 37.99 46.67, 76.89 1.91 M8.66 80.4 C27.84 58.34, 47.02 36.28, 76.89 1.91 M8.27 105.24 C37.46 71.66, 66.66 38.08, 98.15 1.85 M8.27 105.24 C33.36 76.38, 58.45 47.52, 98.15 1.85 M8.54 129.32 C36.93 96.66, 65.33 63.99, 119.41 1.78 M8.54 129.32 C49.82 81.83, 91.11 34.33, 119.41 1.78 M8.15 154.16 C59.57 95, 110.99 35.85, 140.67 1.71 M8.15 154.16 C34.88 123.41, 61.61 92.66, 140.67 1.71 M8.41 178.24 C62.06 116.52, 115.72 54.8, 161.28 2.39 M8.41 178.24 C56.02 123.47, 103.63 68.71, 161.28 2.39 M1.46 210.62 C45.34 160.15, 89.21 109.69, 182.54 2.32 M1.46 210.62 C52.84 151.52, 104.21 92.42, 182.54 2.32 M8.95 226.4 C75.55 149.79, 142.15 73.17, 203.8 2.26 M8.95 226.4 C81.59 142.83, 154.24 59.27, 203.8 2.26 M22.33 235.39 C88.73 159.01, 155.13 82.62, 225.06 2.19 M22.33 235.39 C70.9 179.52, 119.47 123.65, 225.06 2.19 M39 240.61 C119.86 147.59, 200.71 54.58, 245.66 2.87 M39 240.61 C118.71 148.91, 198.42 57.22, 245.66 2.87 M60.26 240.54 C111.43 181.67, 162.61 122.8, 261.67 8.84 M60.26 240.54 C118.32 173.75, 176.37 106.97, 261.67 8.84 M81.52 240.47 C134.29 179.77, 187.05 119.07, 268.5 25.38 M81.52 240.47 C125.26 190.15, 169 139.84, 268.5 25.38 M102.78 240.4 C155.56 179.68, 208.35 118.96, 277.29 39.65 M102.78 240.4 C147.01 189.52, 191.24 138.63, 277.29 39.65 M124.04 240.33 C172.64 184.42, 221.24 128.52, 276.9 64.48 M124.04 240.33 C178.47 177.72, 232.89 115.12, 276.9 64.48 M145.3 240.26 C187.98 191.17, 230.65 142.08, 277.17 88.56 M145.3 240.26 C180.06 200.27, 214.82 160.29, 277.17 88.56 M166.56 240.19 C191.03 212.05, 215.5 183.9, 276.78 113.4 M166.56 240.19 C193.6 209.09, 220.63 177.99, 276.78 113.4 M187.82 240.12 C209.12 215.62, 230.42 191.11, 277.05 137.48 M187.82 240.12 C210.28 214.28, 232.75 188.44, 277.05 137.48 M209.08 240.05 C225.34 221.35, 241.6 202.65, 277.31 161.56 M209.08 240.05 C232.93 212.62, 256.79 185.18, 277.31 161.56 M230.34 239.98 C246.15 221.8, 261.96 203.61, 276.92 186.4 M230.34 239.98 C242.25 226.28, 254.16 212.58, 276.92 186.4" stroke="#a5d8ff" stroke-width="2" fill="none"></path><path d="M32 0 M32 0 C79.11 0, 126.22 0, 236 0 M32 0 C107.8 0, 183.6 0, 236 0 M236 0 C257.33 0, 268 10.67, 268 32 M236 0 C257.33 0, 268 10.67, 268 32 M268 32 C268 79.86, 268 127.72, 268 202 M268 32 C268 68.76, 268 105.52, 268 202 M268 202 C268 223.33, 257.33 234, 236 234 M268 202 C268 223.33, 257.33 234, 236 234 M236 234 C181.47 234, 126.95 234, 32 234 M236 234 C175.54 234, 115.08 234, 32 234 M32 234 C10.67 234, 0 223.33, 0 202 M32 234 C10.67 234, 0 223.33, 0 202 M0 202 C0 152.26, 0 102.52, 0 32 M0 202 C0 156.04, 0 110.08, 0 32 M0 32 C0 10.67, 10.67 0, 32 0 M0 32 C0 10.67, 10.67 0, 32 0" stroke="#1e1e1e" stroke-width="4" fill="none"></path></g><g transform="translate(608.3261889503119 184.73333333333358) rotate(0 84.4000015258789 21.59999999999991)"><text x="84.4000015258789" y="0" font-family="Cascadia, Segoe UI Emoji" font-size="36px" fill="#1e1e1e" text-anchor="middle" style="white-space: pre;" direction="ltr" dominant-baseline="text-before-edge">T object</text></g><g stroke-linecap="round" transform="translate(828.8928571428532 89.00000000000182) rotate(0 134 117)"><path d="M7.86 8.16 C7.86 8.16, 7.86 8.16, 7.86 8.16 M7.86 8.16 C7.86 8.16, 7.86 8.16, 7.86 8.16 M8.78 31.49 C18.2 20.65, 27.63 9.81, 34.37 2.05 M8.78 31.49 C14.7 24.68, 20.62 17.87, 34.37 2.05 M8.39 56.32 C23.04 39.47, 37.69 22.62, 55.63 1.98 M8.39 56.32 C19.5 43.54, 30.61 30.76, 55.63 1.98 M8.66 80.4 C27.45 58.79, 46.24 37.17, 76.89 1.91 M8.66 80.4 C26.49 59.89, 44.33 39.37, 76.89 1.91 M8.27 105.24 C40.59 68.06, 72.91 30.88, 98.15 1.85 M8.27 105.24 C35.09 74.39, 61.91 43.53, 98.15 1.85 M8.54 129.32 C48.03 83.89, 87.53 38.46, 119.41 1.78 M8.54 129.32 C35.31 98.52, 62.09 67.72, 119.41 1.78 M8.15 154.16 C44.29 112.58, 80.43 71.01, 140.67 1.71 M8.15 154.16 C51.45 104.34, 94.76 54.52, 140.67 1.71 M8.41 178.24 C61.28 117.42, 114.15 56.61, 161.28 2.39 M8.41 178.24 C49.02 131.53, 89.62 84.82, 161.28 2.39 M1.46 210.62 C66.19 136.17, 130.91 61.71, 182.54 2.32 M1.46 210.62 C52.01 152.48, 102.56 94.33, 182.54 2.32 M8.95 226.4 C57.64 170.38, 106.34 114.36, 203.8 2.26 M8.95 226.4 C54.24 174.3, 99.54 122.19, 203.8 2.26 M22.33 235.39 C71.4 178.95, 120.46 122.51, 225.06 2.19 M22.33 235.39 C76.89 172.63, 131.44 109.87, 225.06 2.19 M39 240.61 C89.5 182.51, 140 124.42, 245.66 2.87 M39 240.61 C110.38 158.49, 181.77 76.37, 245.66 2.87 M60.26 240.54 C135.8 153.64, 211.33 66.75, 261.67 8.84 M60.26 240.54 C113.61 179.17, 166.96 117.8, 261.67 8.84 M81.52 240.47 C151.7 159.74, 221.88 79, 268.5 25.38 M81.52 240.47 C121.26 194.75, 161 149.04, 268.5 25.38 M102.78 240.4 C159.55 175.09, 216.32 109.78, 277.29 39.65 M102.78 240.4 C170.73 162.23, 238.68 84.07, 277.29 39.65 M124.04 240.33 C163.7 194.71, 203.35 149.1, 276.9 64.48 M124.04 240.33 C177.03 179.38, 230.01 118.43, 276.9 64.48 M145.3 240.26 C182.5 197.47, 219.69 154.68, 277.17 88.56 M145.3 240.26 C174.34 206.86, 203.38 173.45, 277.17 88.56 M166.56 240.19 C208.82 191.58, 251.08 142.97, 276.78 113.4 M166.56 240.19 C195.78 206.58, 225 172.97, 276.78 113.4 M187.82 240.12 C219.48 203.71, 251.13 167.29, 277.05 137.48 M187.82 240.12 C213.67 210.39, 239.51 180.66, 277.05 137.48 M209.08 240.05 C223.03 224, 236.99 207.95, 277.31 161.56 M209.08 240.05 C235.7 209.43, 262.32 178.81, 277.31 161.56 M230.34 239.98 C243.07 225.34, 255.8 210.7, 276.92 186.4 M230.34 239.98 C248.27 219.37, 266.19 198.75, 276.92 186.4" stroke="#a5d8ff" stroke-width="2" fill="none"></path><path d="M32 0 M32 0 C83.02 0, 134.04 0, 236 0 M32 0 C103.1 0, 174.2 0, 236 0 M236 0 C257.33 0, 268 10.67, 268 32 M236 0 C257.33 0, 268 10.67, 268 32 M268 32 C268 97.36, 268 162.72, 268 202 M268 32 C268 94.65, 268 157.29, 268 202 M268 202 C268 223.33, 257.33 234, 236 234 M268 202 C268 223.33, 257.33 234, 236 234 M236 234 C168.68 234, 101.36 234, 32 234 M236 234 C183.21 234, 130.42 234, 32 234 M32 234 C10.67 234, 0 223.33, 0 202 M32 234 C10.67 234, 0 223.33, 0 202 M0 202 C0 149.77, 0 97.54, 0 32 M0 202 C0 154.6, 0 107.2, 0 32 M0 32 C0 10.67, 10.67 0, 32 0 M0 32 C0 10.67, 10.67 0, 32 0" stroke="#1e1e1e" stroke-width="4" fill="none"></path></g><g transform="translate(878.4928556169743 184.40000000000146) rotate(0 84.4000015258789 21.59999999999991)"><text x="84.4000015258789" y="0" font-family="Cascadia, Segoe UI Emoji" font-size="36px" fill="#1e1e1e" text-anchor="middle" style="white-space: pre;" direction="ltr" dominant-baseline="text-before-edge">T object</text></g><g stroke-linecap="round" transform="translate(1098.684523809523 89.41666666666606) rotate(0 134 117)"><path d="M7.86 8.16 C7.86 8.16, 7.86 8.16, 7.86 8.16 M7.86 8.16 C7.86 8.16, 7.86 8.16, 7.86 8.16 M8.78 31.49 C16.03 23.15, 23.28 14.81, 34.37 2.05 M8.78 31.49 C18.6 20.19, 28.42 8.9, 34.37 2.05 M8.39 56.32 C26.96 34.96, 45.53 13.6, 55.63 1.98 M8.39 56.32 C24.29 38.03, 40.2 19.74, 55.63 1.98 M8.66 80.4 C23.87 62.91, 39.07 45.42, 76.89 1.91 M8.66 80.4 C28.01 58.14, 47.36 35.88, 76.89 1.91 M8.27 105.24 C27.22 83.44, 46.17 61.64, 98.15 1.85 M8.27 105.24 C29.5 80.82, 50.73 56.4, 98.15 1.85 M8.54 129.32 C43.15 89.5, 77.77 49.68, 119.41 1.78 M8.54 129.32 C52.18 79.12, 95.82 28.92, 119.41 1.78 M8.15 154.16 C49.84 106.2, 91.53 58.24, 140.67 1.71 M8.15 154.16 C58.16 96.63, 108.17 39.09, 140.67 1.71 M8.41 178.24 C47.21 133.61, 86.01 88.97, 161.28 2.39 M8.41 178.24 C64.28 113.97, 120.16 49.7, 161.28 2.39 M1.46 210.62 C61.12 142, 120.78 73.37, 182.54 2.32 M1.46 210.62 C60.66 142.53, 119.85 74.44, 182.54 2.32 M8.95 226.4 C71.4 154.56, 133.85 82.72, 203.8 2.26 M8.95 226.4 C78.28 146.65, 147.61 66.9, 203.8 2.26 M22.33 235.39 C83.34 165.22, 144.34 95.04, 225.06 2.19 M22.33 235.39 C84.39 164, 146.44 92.62, 225.06 2.19 M39 240.61 C91.77 179.9, 144.53 119.2, 245.66 2.87 M39 240.61 C106.32 163.17, 173.64 85.73, 245.66 2.87 M60.26 240.54 C139.75 149.09, 219.24 57.65, 261.67 8.84 M60.26 240.54 C118.88 173.1, 177.5 105.67, 261.67 8.84 M81.52 240.47 C151.02 160.52, 220.52 80.56, 268.5 25.38 M81.52 240.47 C145.32 167.08, 209.11 93.69, 268.5 25.38 M102.78 240.4 C172.03 160.74, 241.27 81.09, 277.29 39.65 M102.78 240.4 C157.31 177.67, 211.84 114.94, 277.29 39.65 M124.04 240.33 C162.77 195.78, 201.5 151.22, 276.9 64.48 M124.04 240.33 C165.73 192.37, 207.42 144.41, 276.9 64.48 M145.3 240.26 C173.48 207.85, 201.65 175.44, 277.17 88.56 M145.3 240.26 C192.22 186.29, 239.13 132.32, 277.17 88.56 M166.56 240.19 C194.59 207.95, 222.62 175.7, 276.78 113.4 M166.56 240.19 C199.15 202.71, 231.73 165.22, 276.78 113.4 M187.82 240.12 C221.01 201.94, 254.2 163.77, 277.05 137.48 M187.82 240.12 C211.12 213.33, 234.41 186.53, 277.05 137.48 M209.08 240.05 C236.3 208.74, 263.52 177.43, 277.31 161.56 M209.08 240.05 C235.68 209.45, 262.28 178.85, 277.31 161.56 M230.34 239.98 C245.19 222.91, 260.03 205.83, 276.92 186.4 M230.34 239.98 C240.74 228.03, 251.14 216.07, 276.92 186.4" stroke="#a5d8ff" stroke-width="2" fill="none"></path><path d="M32 0 M32 0 C89.48 0, 146.97 0, 236 0 M32 0 C80.97 0, 129.94 0, 236 0 M236 0 C257.33 0, 268 10.67, 268 32 M236 0 C257.33 0, 268 10.67, 268 32 M268 32 C268 82.4, 268 132.79, 268 202 M268 32 C268 85.4, 268 138.81, 268 202 M268 202 C268 223.33, 257.33 234, 236 234 M268 202 C268 223.33, 257.33 234, 236 234 M236 234 C192.35 234, 148.71 234, 32 234 M236 234 C169.35 234, 102.7 234, 32 234 M32 234 C10.67 234, 0 223.33, 0 202 M32 234 C10.67 234, 0 223.33, 0 202 M0 202 C0 166.95, 0 131.89, 0 32 M0 202 C0 165.61, 0 129.22, 0 32 M0 32 C0 10.67, 10.67 0, 32 0 M0 32 C0 10.67, 10.67 0, 32 0" stroke="#1e1e1e" stroke-width="4" fill="none"></path></g><g transform="translate(1148.284522283644 184.8166666666657) rotate(0 84.4000015258789 21.59999999999991)"><text x="84.4000015258789" y="0" font-family="Cascadia, Segoe UI Emoji" font-size="36px" fill="#1e1e1e" text-anchor="middle" style="white-space: pre;" direction="ltr" dominant-baseline="text-before-edge">T object</text></g><g stroke-linecap="round" transform="translate(1368.8511904761872 89.08333333333394) rotate(0 134 117)"><path d="M7.86 8.16 C7.86 8.16, 7.86 8.16, 7.86 8.16 M7.86 8.16 C7.86 8.16, 7.86 8.16, 7.86 8.16 M8.78 31.49 C16.02 23.16, 23.26 14.83, 34.37 2.05 M8.78 31.49 C14.07 25.41, 19.35 19.33, 34.37 2.05 M8.39 56.32 C18.55 44.64, 28.7 32.97, 55.63 1.98 M8.39 56.32 C21.67 41.05, 34.95 25.77, 55.63 1.98 M8.66 80.4 C30.82 54.91, 52.98 29.42, 76.89 1.91 M8.66 80.4 C27.71 58.49, 46.75 36.58, 76.89 1.91 M8.27 105.24 C31.29 78.76, 54.31 52.28, 98.15 1.85 M8.27 105.24 C41.74 66.74, 75.21 28.24, 98.15 1.85 M8.54 129.32 C51.56 79.83, 94.58 30.34, 119.41 1.78 M8.54 129.32 C30.9 103.6, 53.26 77.87, 119.41 1.78 M8.15 154.16 C54.66 100.65, 101.17 47.14, 140.67 1.71 M8.15 154.16 C49.42 106.68, 90.69 59.2, 140.67 1.71 M8.41 178.24 C45.45 135.63, 82.49 93.03, 161.28 2.39 M8.41 178.24 C51.78 128.35, 95.16 78.45, 161.28 2.39 M1.46 210.62 C63.36 139.42, 125.25 68.22, 182.54 2.32 M1.46 210.62 C68.97 132.96, 136.48 55.3, 182.54 2.32 M8.95 226.4 C72.77 152.99, 136.59 79.57, 203.8 2.26 M8.95 226.4 C55.63 172.7, 102.31 119, 203.8 2.26 M22.33 235.39 C101.65 144.15, 180.96 52.91, 225.06 2.19 M22.33 235.39 C100.52 145.44, 178.71 55.5, 225.06 2.19 M39 240.61 C91.51 180.2, 144.01 119.8, 245.66 2.87 M39 240.61 C98.57 172.08, 158.14 103.55, 245.66 2.87 M60.26 240.54 C117.1 175.15, 173.94 109.77, 261.67 8.84 M60.26 240.54 C107.37 186.34, 154.49 132.14, 261.67 8.84 M81.52 240.47 C138.07 175.41, 194.63 110.36, 268.5 25.38 M81.52 240.47 C128.91 185.95, 176.3 131.43, 268.5 25.38 M102.78 240.4 C158.26 176.57, 213.75 112.75, 277.29 39.65 M102.78 240.4 C164.91 168.92, 227.04 97.45, 277.29 39.65 M124.04 240.33 C173.51 183.42, 222.98 126.52, 276.9 64.48 M124.04 240.33 C164.34 193.98, 204.63 147.62, 276.9 64.48 M145.3 240.26 C174.58 206.59, 203.85 172.91, 277.17 88.56 M145.3 240.26 C177.65 203.05, 209.99 165.85, 277.17 88.56 M166.56 240.19 C192.88 209.92, 219.19 179.65, 276.78 113.4 M166.56 240.19 C194.31 208.27, 222.06 176.35, 276.78 113.4 M187.82 240.12 C209.08 215.67, 230.34 191.21, 277.05 137.48 M187.82 240.12 C219.01 204.24, 250.2 168.36, 277.05 137.48 M209.08 240.05 C232.24 213.42, 255.39 186.78, 277.31 161.56 M209.08 240.05 C226.53 219.99, 243.97 199.92, 277.31 161.56 M230.34 239.98 C241.1 227.61, 251.86 215.24, 276.92 186.4 M230.34 239.98 C247.65 220.07, 264.96 200.17, 276.92 186.4" stroke="#a5d8ff" stroke-width="2" fill="none"></path><path d="M32 0 M32 0 C111.02 0, 190.05 0, 236 0 M32 0 C96.84 0, 161.68 0, 236 0 M236 0 C257.33 0, 268 10.67, 268 32 M236 0 C257.33 0, 268 10.67, 268 32 M268 32 C268 73.86, 268 115.72, 268 202 M268 32 C268 77.81, 268 123.62, 268 202 M268 202 C268 223.33, 257.33 234, 236 234 M268 202 C268 223.33, 257.33 234, 236 234 M236 234 C169.39 234, 102.77 234, 32 234 M236 234 C181 234, 126.01 234, 32 234 M32 234 C10.67 234, 0 223.33, 0 202 M32 234 C10.67 234, 0 223.33, 0 202 M0 202 C0 157.11, 0 112.21, 0 32 M0 202 C0 164.82, 0 127.64, 0 32 M0 32 C0 10.67, 10.67 0, 32 0 M0 32 C0 10.67, 10.67 0, 32 0" stroke="#1e1e1e" stroke-width="4" fill="none"></path></g><g transform="translate(1418.4511889503083 184.48333333333358) rotate(0 84.4000015258789 21.59999999999991)"><text x="84.4000015258789" y="0" font-family="Cascadia, Segoe UI Emoji" font-size="36px" fill="#1e1e1e" text-anchor="middle" style="white-space: pre;" direction="ltr" dominant-baseline="text-before-edge">T object</text></g><g stroke-linecap="round"><g transform="translate(159.89425729885625 592.7023809523835) rotate(0 0.5380527971274205 -122.26190476190595)"><path d="M0 0 C0.25 -56.31, 0.5 -112.62, 1.08 -244.52 M0 0 C0.26 -58.47, 0.51 -116.95, 1.08 -244.52" stroke="#868e96" stroke-width="4" fill="none"></path></g><g transform="translate(159.89425729885625 592.7023809523835) rotate(0 0.5380527971274205 -122.26190476190595)"><path d="M11.21 -216.29 C8.88 -222.79, 6.54 -229.29, 1.08 -244.52 M11.21 -216.29 C8.79 -223.04, 6.36 -229.79, 1.08 -244.52" stroke="#868e96" stroke-width="4" fill="none"></path></g><g transform="translate(159.89425729885625 592.7023809523835) rotate(0 0.5380527971274205 -122.26190476190595)"><path d="M-9.31 -216.38 C-6.92 -222.86, -4.53 -229.34, 1.08 -244.52 M-9.31 -216.38 C-6.83 -223.11, -4.34 -229.84, 1.08 -244.52" stroke="#868e96" stroke-width="4" fill="none"></path></g></g><mask></mask><g mask="url(#mask-r6GWx728vlX80GCPk0oa0)" stroke-linecap="round"><g transform="translate(373.357142857139 720.3517991116496) rotate(0 367.0000000000002 -10.586482025665646)"><path d="M0 0 C14.4 -8.2, 54.55 -53.51, 86.38 -49.22 C118.2 -44.94, 151.35 26.2, 190.93 25.72 C230.52 25.24, 281.48 -54.27, 323.91 -52.11 C366.34 -49.94, 408.39 39.89, 445.51 38.69 C482.64 37.49, 515.79 -52.59, 546.66 -59.31 C577.54 -66.04, 599.54 -10.42, 630.77 -1.66 C661.99 7.09, 716.79 -5.93, 734 -6.78 M0 0 C14.4 -8.2, 54.55 -53.51, 86.38 -49.22 C118.2 -44.94, 151.35 26.2, 190.93 25.72 C230.52 25.24, 281.48 -54.27, 323.91 -52.11 C366.34 -49.94, 408.39 39.89, 445.51 38.69 C482.64 37.49, 515.79 -52.59, 546.66 -59.31 C577.54 -66.04, 599.54 -10.42, 630.77 -1.66 C661.99 7.09, 716.79 -5.93, 734 -6.78" stroke="#1e1e1e" stroke-width="4" fill="none"></path></g><g transform="translate(373.357142857139 720.3517991116496) rotate(0 367.0000000000002 -10.586482025665646)"><path d="M707.38 7.05 C717.1 2, 726.82 -3.05, 734 -6.78 M707.38 7.05 C713.93 3.65, 720.47 0.25, 734 -6.78" stroke="#1e1e1e" stroke-width="4" fill="none"></path></g><g transform="translate(373.357142857139 720.3517991116496) rotate(0 367.0000000000002 -10.586482025665646)"><path d="M704.72 -13.3 C715.41 -10.92, 726.1 -8.54, 734 -6.78 M704.72 -13.3 C711.92 -11.7, 719.12 -10.09, 734 -6.78" stroke="#1e1e1e" stroke-width="4" fill="none"></path></g></g><mask id="mask-r6GWx728vlX80GCPk0oa0"><rect x="0" y="0" fill="#fff" width="1207.3571428571395" height="918.3517991116496"></rect><rect x="696.3879105664273" y="692.8975873521822" fill="#000" width="126.5999984741211" height="43.199999999999996" opacity="1"></rect></mask><g transform="translate(696.3879105664273 692.8975873521822) rotate(0 43.96923229071194 16.867729733801752)"><text x="63.29999923706055" y="0" font-family="Cascadia, Segoe UI Emoji" font-size="36px" fill="#1e1e1e" text-anchor="middle" style="white-space: pre;" direction="ltr" dominant-baseline="text-before-edge">MEMCPY</text></g><g stroke-linecap="round" transform="translate(1123.0714285714257 613.9642857142853) rotate(0 171 98.5)"><path d="M7.86 8.16 C7.86 8.16, 7.86 8.16, 7.86 8.16 M7.86 8.16 C7.86 8.16, 7.86 8.16, 7.86 8.16 M8.78 31.49 C18.54 20.26, 28.29 9.04, 34.37 2.05 M8.78 31.49 C16.94 22.1, 25.1 12.72, 34.37 2.05 M8.39 56.32 C17.86 45.44, 27.32 34.55, 55.63 1.98 M8.39 56.32 C20.89 41.95, 33.38 27.57, 55.63 1.98 M8.66 80.4 C23.66 63.15, 38.66 45.89, 76.89 1.91 M8.66 80.4 C24.66 61.99, 40.67 43.59, 76.89 1.91 M8.27 105.24 C40.66 67.98, 73.05 30.72, 98.15 1.85 M8.27 105.24 C35.65 73.75, 63.02 42.25, 98.15 1.85 M8.54 129.32 C52.43 78.83, 96.32 28.33, 119.41 1.78 M8.54 129.32 C38.18 95.23, 67.81 61.13, 119.41 1.78 M8.15 154.16 C46.35 110.22, 84.55 66.27, 140.67 1.71 M8.15 154.16 C54.25 101.13, 100.35 48.09, 140.67 1.71 M5.13 182.01 C39.7 142.25, 74.27 102.48, 161.28 2.39 M5.13 182.01 C39.41 142.58, 73.69 103.14, 161.28 2.39 M15.24 194.78 C71.43 130.14, 127.61 65.51, 182.54 2.32 M15.24 194.78 C68.68 133.3, 122.12 71.82, 182.54 2.32 M33.22 198.48 C95.14 127.24, 157.07 56.01, 203.8 2.26 M33.22 198.48 C78.26 146.67, 123.3 94.86, 203.8 2.26 M54.48 198.41 C115.83 127.83, 177.18 57.26, 225.06 2.19 M54.48 198.41 C116.7 126.83, 178.93 55.25, 225.06 2.19 M75.74 198.34 C134.11 131.2, 192.47 64.06, 246.32 2.12 M75.74 198.34 C117.34 150.49, 158.93 102.64, 246.32 2.12 M97 198.27 C134.69 154.92, 172.37 111.57, 267.58 2.05 M97 198.27 C156.64 129.67, 216.28 61.06, 267.58 2.05 M118.26 198.2 C158.32 152.12, 198.38 106.04, 288.84 1.98 M118.26 198.2 C181.79 125.13, 245.31 52.05, 288.84 1.98 M139.52 198.13 C188.41 141.89, 237.3 85.65, 310.75 1.16 M139.52 198.13 C201.17 127.22, 262.82 56.3, 310.75 1.16 M160.78 198.07 C222.98 126.51, 285.18 54.96, 328.08 5.61 M160.78 198.07 C216.56 133.9, 272.35 69.72, 328.08 5.61 M182.04 198 C233.49 138.82, 284.93 79.64, 340.81 15.36 M182.04 198 C214.17 161.04, 246.3 124.08, 340.81 15.36 M203.3 197.93 C237.1 159.05, 270.89 120.18, 345.01 34.91 M203.3 197.93 C257.28 135.83, 311.27 73.73, 345.01 34.91 M223.91 198.61 C249.6 169.05, 275.3 139.5, 345.28 58.99 M223.91 198.61 C260.72 156.26, 297.53 113.91, 345.28 58.99 M245.17 198.54 C282.56 155.53, 319.95 112.52, 344.89 83.83 M245.17 198.54 C269.03 171.1, 292.89 143.65, 344.89 83.83 M266.43 198.48 C284.42 177.78, 302.41 157.08, 345.15 107.91 M266.43 198.48 C282.95 179.47, 299.47 160.46, 345.15 107.91 M287.69 198.41 C303.62 180.07, 319.56 161.74, 345.42 131.99 M287.69 198.41 C299.41 184.92, 311.14 171.43, 345.42 131.99 M310.26 196.83 C322.75 182.46, 335.23 168.1, 345.03 156.83 M310.26 196.83 C320.32 185.25, 330.38 173.68, 345.03 156.83" stroke="#ced4da" stroke-width="2" fill="none"></path><path d="M32 0 M32 0 C112.98 0, 193.95 0, 310 0 M32 0 C97.98 0, 163.97 0, 310 0 M310 0 C331.33 0, 342 10.67, 342 32 M310 0 C331.33 0, 342 10.67, 342 32 M342 32 C342 73.32, 342 114.65, 342 165 M342 32 C342 78.75, 342 125.51, 342 165 M342 165 C342 186.33, 331.33 197, 310 197 M342 165 C342 186.33, 331.33 197, 310 197 M310 197 C226.78 197, 143.57 197, 32 197 M310 197 C253.4 197, 196.81 197, 32 197 M32 197 C10.67 197, 0 186.33, 0 165 M32 197 C10.67 197, 0 186.33, 0 165 M0 165 C0 123.28, 0 81.57, 0 32 M0 165 C0 116.79, 0 68.58, 0 32 M0 32 C0 10.67, 10.67 0, 32 0 M0 32 C0 10.67, 10.67 0, 32 0" stroke="#1e1e1e" stroke-width="4" fill="none"></path></g><g transform="translate(1146.3714316231835 690.864285714285) rotate(0 147.6999969482422 21.59999999999991)"><text x="147.6999969482422" y="0" font-family="Cascadia, Segoe UI Emoji" font-size="36px" fill="#1e1e1e" text-anchor="middle" style="white-space: pre;" direction="ltr" dominant-baseline="text-before-edge">std::vector&lt;T&gt;</text></g><g stroke-linecap="round"><g transform="translate(1105.3809523809496 625.4974473744132) rotate(0 -460.61522724137876 -139.61181892530158)"><path d="M0 0 C-153.54 -46.54, -767.69 -232.69, -921.23 -279.22 M0 0 C-153.54 -46.54, -767.69 -232.69, -921.23 -279.22" stroke="#1e1e1e" stroke-width="4" fill="none"></path></g><g transform="translate(1105.3809523809496 625.4974473744132) rotate(0 -460.61522724137876 -139.61181892530158)"><path d="M-891.28 -280.87 C-902.2 -280.27, -913.13 -279.67, -921.23 -279.22 M-891.28 -280.87 C-900.14 -280.38, -909 -279.89, -921.23 -279.22" stroke="#1e1e1e" stroke-width="4" fill="none"></path></g><g transform="translate(1105.3809523809496 625.4974473744132) rotate(0 -460.61522724137876 -139.61181892530158)"><path d="M-897.23 -261.23 C-905.98 -267.79, -914.74 -274.36, -921.23 -279.22 M-897.23 -261.23 C-904.33 -266.55, -911.43 -271.88, -921.23 -279.22" stroke="#1e1e1e" stroke-width="4" fill="none"></path></g></g><mask></mask></svg>